<?xml version="1.0" encoding="UTF-8"?>
<svg xmlns="http://www.w3.org/2000/svg" width="64" height="65" viewBox="0 0 64 65" fill="none">
  <path d="M10.1785 53.9423C-1.93404 41.9435 -2.01464 22.4069 9.9747 10.2943C21.9735 -1.81832 41.5101 -1.89891 53.6227 10.0904C53.6938 10.152 53.7554 10.2232 53.8265 10.2943C65.9391 22.2931 66.0197 41.8297 54.0304 53.9423C42.0316 66.0549 22.495 66.1355 10.3824 54.1461C10.3113 54.0845 10.2497 54.0134 10.1785 53.9423Z" fill="#F8F9F9"></path>
  <path d="M31.8959 3.05523C39.5806 3.05523 46.8245 6.03242 52.2858 11.4416C52.3095 11.4653 52.3332 11.4843 52.3569 11.508L52.3806 11.5317C52.4138 11.5649 52.447 11.6028 52.4897 11.6407C63.8295 22.8763 63.9148 41.2561 52.6793 52.6055C47.199 58.1379 39.8935 61.1815 32.1045 61.1815C24.3154 61.1815 17.1759 58.2043 11.7145 52.7951C11.6908 52.7714 11.6671 52.7524 11.6434 52.7287L11.6197 52.705C11.5865 52.6718 11.5534 52.6339 11.5107 52.596C0.170845 41.3604 0.0855107 22.9806 11.3211 11.6312C16.8014 6.09879 24.1068 3.05523 31.8959 3.05523ZM31.8959 1.15894C23.9504 1.15894 16.0097 4.20723 9.9747 10.2991C-2.01464 22.4117 -1.93404 41.9435 10.1785 53.9471C10.2497 54.0182 10.3113 54.0893 10.3824 54.1509C16.4031 60.11 24.2585 63.0872 32.1092 63.0872C39.9599 63.0872 47.9954 60.0389 54.0304 53.9471C66.0197 41.8345 65.9391 22.3026 53.8265 10.2991C53.7554 10.228 53.6938 10.1569 53.6227 10.0952C47.602 4.13612 39.7465 1.15894 31.8959 1.15894Z" fill="#15162E"></path>
  <path d="M18.5742 39.0517C19.3137 39.8955 20.1386 40.6493 21.0346 41.3272C22.4379 42.3844 23.9739 43.1951 25.6284 43.7829C25.7422 43.8256 25.7469 43.8493 25.6758 43.9441C25.2634 44.4893 24.8509 45.0345 24.448 45.5797C24.3911 45.6555 24.3294 45.684 24.2394 45.6792C23.3007 45.6366 22.3763 45.4896 21.466 45.281C19.5271 44.8306 17.7114 44.0958 16.0521 42.9818C15.0708 42.3228 14.1843 41.5501 13.402 40.6588C13.3594 40.6066 13.3499 40.5592 13.3546 40.4976C13.4115 39.6253 13.4874 38.7578 13.5774 37.8902C13.677 36.9752 13.7955 36.065 13.9425 35.1595C14.4071 32.3293 15.085 29.556 16.0853 26.868C16.6731 25.2941 17.3463 23.7581 18.2044 22.3074C18.3514 22.0609 18.5268 21.8665 18.7638 21.7006C20.4657 20.5106 22.3146 19.6194 24.3152 19.0505C25.1259 18.8182 25.9508 18.657 26.7946 18.5669C26.88 18.5575 26.9321 18.5764 26.97 18.6618C27.0648 18.8703 27.1691 19.0742 27.2734 19.2733C27.3161 19.3586 27.3208 19.3871 27.2118 19.4108C26.202 19.6431 25.2112 19.9512 24.2536 20.3589C22.765 20.9895 21.4139 21.8428 20.1718 22.8763C19.9348 23.0706 19.7072 23.2745 19.4749 23.4736C19.4512 23.4926 19.418 23.5115 19.4133 23.5542C19.4702 23.5732 19.5081 23.5305 19.5508 23.5068C20.7407 22.9047 21.9354 22.3169 23.1774 21.8333C24.6186 21.2739 26.1025 20.8567 27.6337 20.6007C29.421 20.3021 31.2225 20.2167 33.0287 20.2736C35.4512 20.3495 37.8168 20.7524 40.1066 21.5678C41.6047 22.1035 43.0317 22.7909 44.4444 23.5068C44.4871 23.5258 44.5297 23.5447 44.5724 23.5684C44.5866 23.5732 44.6008 23.5921 44.6103 23.5684C44.6103 23.5684 44.5961 23.5542 44.5866 23.5447C44.1931 23.1655 43.7665 22.8241 43.3398 22.4828C41.8702 21.3023 40.2204 20.4632 38.4331 19.8849C37.8832 19.7047 37.3238 19.5483 36.7644 19.4061C36.6838 19.3871 36.6743 19.3634 36.7123 19.2923C36.8166 19.0932 36.9208 18.8941 37.0109 18.6902C37.0631 18.5764 37.1294 18.5527 37.2432 18.5669C37.9022 18.6333 38.5517 18.7423 39.1917 18.9035C41.4625 19.4772 43.5247 20.4964 45.4305 21.8475C45.5205 21.9092 45.5869 21.985 45.6438 22.0751C46.2933 23.1133 46.8242 24.2179 47.2983 25.3415C48.0237 27.0481 48.6115 28.8069 49.0808 30.5989C49.5265 32.2866 49.8725 33.9933 50.1333 35.7189C50.3277 37.0132 50.4699 38.3121 50.5789 39.6206C50.6026 39.9098 50.6168 40.1942 50.6405 40.4834C50.6453 40.5687 50.6216 40.6256 50.5694 40.6872C49.1188 42.3228 47.36 43.5269 45.3546 44.3755C44.0936 44.9065 42.7851 45.2763 41.4388 45.4991C40.8746 45.5939 40.3057 45.6603 39.7368 45.684C39.661 45.684 39.6136 45.6698 39.5662 45.6081C39.149 45.0487 38.7318 44.4893 38.3051 43.9299C38.234 43.8351 38.272 43.8209 38.3525 43.7924C39.936 43.233 41.4103 42.465 42.7662 41.4742C43.738 40.7631 44.6293 39.9619 45.421 39.0564C45.4305 39.0422 45.4447 39.028 45.4542 39.0138C45.4637 39.0138 45.4779 39.009 45.4921 39.0043C45.4921 39.0043 45.4731 38.9948 45.4637 38.9948C45.44 38.9948 45.4637 39.009 45.4637 39.0185C45.4305 38.9853 45.421 39.0185 45.402 39.0327C45.0702 39.265 44.7383 39.5021 44.397 39.7249C42.8847 40.7204 41.2681 41.4884 39.5472 42.0383C38.381 42.4081 37.1911 42.6783 35.9774 42.8585C34.1997 43.1192 32.4171 43.1856 30.6299 43.1098C28.2785 43.0055 25.9792 42.6072 23.7558 41.8061C21.9686 41.1613 20.3093 40.2748 18.778 39.156C18.7211 39.1133 18.6595 39.0754 18.6026 39.0327C18.5884 39.0138 18.5742 38.9806 18.541 39.0185C18.541 39.009 18.56 38.9948 18.541 38.9948C18.5315 38.9948 18.522 38.9995 18.5126 39.0043C18.5126 39.0043 18.5126 39.0043 18.5126 38.9995C18.5126 38.9995 18.5126 38.9995 18.5126 39.0043C18.522 39.0043 18.5363 39.0138 18.5457 39.0185C18.5552 39.0327 18.5694 39.0422 18.5789 39.0564L18.5742 39.0517ZM23.5188 33.7658C23.5283 33.9649 23.5283 34.1308 23.552 34.292C23.6752 35.1832 24.0403 35.9465 24.7324 36.5391C25.8228 37.4778 27.4346 37.3972 28.4349 36.3637C28.9848 35.7948 29.312 35.1216 29.4115 34.3441C29.5632 33.1495 29.2598 32.0923 28.4065 31.2247C27.3351 30.1391 25.5952 30.1581 24.538 31.2532C23.8506 31.9643 23.5425 32.8176 23.5235 33.7563L23.5188 33.7658ZM40.4717 33.9459C40.4717 32.9361 40.2062 32.1492 39.6515 31.4807C39.1016 30.8123 38.3905 30.4283 37.5134 30.4283C36.6364 30.4283 35.93 30.8028 35.3706 31.4665C34.9203 31.9975 34.6548 32.6138 34.5789 33.3059C34.432 34.5812 34.7733 35.6905 35.7594 36.5533C36.8355 37.492 38.4426 37.4114 39.4429 36.3921C40.1445 35.6763 40.4574 34.8087 40.4717 33.9554V33.9459ZM19.3991 23.5542L19.3896 23.5447C19.3896 23.5447 19.3848 23.5542 19.3801 23.5589C19.3801 23.5589 19.3801 23.5637 19.3896 23.5684C19.3896 23.5684 19.3943 23.5589 19.3991 23.5542Z" fill="#15162E"></path>
</svg>
