<?xml version="1.0" encoding="UTF-8"?>
<svg xmlns="http://www.w3.org/2000/svg" width="64" height="65" viewBox="0 0 64 65" fill="none">
  <path d="M10.1785 53.9423C-1.93404 41.9435 -2.01464 22.4069 9.9747 10.2943C21.9735 -1.81832 41.5101 -1.89891 53.6227 10.0904C53.6938 10.152 53.7554 10.2232 53.8265 10.2943C65.9391 22.2931 66.0197 41.8297 54.0304 53.9423C42.0316 66.0549 22.495 66.1355 10.3824 54.1461C10.3113 54.0845 10.2497 54.0134 10.1785 53.9423Z" fill="#F8F9F9"></path>
  <path d="M31.8959 3.05523C39.5806 3.05523 46.8245 6.03242 52.2858 11.4416C52.3095 11.4653 52.3332 11.4843 52.3569 11.508L52.3806 11.5317C52.4138 11.5649 52.447 11.6028 52.4897 11.6455C63.8295 22.881 63.9148 41.2609 52.6793 52.6102C47.199 58.1426 39.8935 61.1862 32.1045 61.1862C24.3154 61.1862 17.1759 58.209 11.7145 52.7998C11.6908 52.7761 11.6671 52.7572 11.6434 52.7335L11.6197 52.7097C11.5865 52.6766 11.5534 52.6386 11.5107 52.6007C0.170845 41.3604 0.0855107 22.9806 11.3211 11.6312C16.8014 6.09879 24.1068 3.05523 31.8959 3.05523ZM31.8959 1.15894C23.9504 1.15894 16.0097 4.20723 9.9747 10.2991C-2.01464 22.4117 -1.93404 41.9435 10.1785 53.9471C10.2497 54.0182 10.3113 54.0893 10.3824 54.1509C16.4031 60.11 24.2585 63.0872 32.1092 63.0872C39.9599 63.0872 47.9954 60.0389 54.0304 53.9471C66.0197 41.8345 65.9391 22.3026 53.8265 10.2991C53.7554 10.228 53.6938 10.1569 53.6227 10.0952C47.602 4.13612 39.7465 1.15894 31.8959 1.15894Z" fill="#15162E"></path>
  <path d="M42.5105 42.2088L43.7952 33.8177H35.7454V28.3706C35.7454 26.0761 36.869 23.8384 40.4767 23.8384H44.1365V16.6941C44.1365 16.6941 40.8133 16.1252 37.637 16.1252C31.0047 16.1252 26.6717 20.1454 26.6717 27.4177V33.8129H19.2998V42.2041H26.6717V62.4897C28.1508 62.722 29.6631 62.8405 31.2085 62.8405C32.754 62.8405 34.2663 62.722 35.7454 62.4897V42.2041H42.5105V42.2088Z" fill="#15162E"></path>
</svg>
