<?xml version="1.0" encoding="UTF-8"?>
<svg xmlns="http://www.w3.org/2000/svg" width="64" height="65" viewBox="0 0 64 65" fill="none">
  <path d="M10.1785 53.9423C-1.93404 41.9435 -2.01464 22.4069 9.9747 10.2943C21.9735 -1.81832 41.5101 -1.89891 53.6227 10.0904C53.6938 10.152 53.7554 10.2232 53.8265 10.2943C65.9391 22.2931 66.0197 41.8297 54.0304 53.9423C42.0316 66.0549 22.495 66.1355 10.3824 54.1461C10.3113 54.0845 10.2497 54.0134 10.1785 53.9423Z" fill="#F8F9F9"></path>
  <path d="M31.8959 3.05523C39.5806 3.05523 46.8245 6.03242 52.2858 11.4416C52.3095 11.4653 52.3332 11.4843 52.3569 11.508L52.3806 11.5317C52.4138 11.5649 52.447 11.598 52.4897 11.6407C63.8295 22.8763 63.9148 41.2561 52.6793 52.6055C47.199 58.1379 39.8935 61.1815 32.1045 61.1815C24.3154 61.1815 17.1759 58.2043 11.7145 52.7951C11.6908 52.7714 11.6671 52.7524 11.6434 52.7287L11.6197 52.705C11.5865 52.6718 11.5534 52.6339 11.5107 52.596C0.170845 41.3604 0.0855107 22.9806 11.3211 11.6312C16.8014 6.09879 24.1068 3.05523 31.8959 3.05523ZM31.8959 1.15894C23.9504 1.15894 16.0097 4.20723 9.9747 10.2991C-2.01464 22.4117 -1.93404 41.9435 10.1785 53.9471C10.2497 54.0182 10.3113 54.0893 10.3824 54.1509C16.4031 60.11 24.2585 63.0872 32.1092 63.0872C39.9599 63.0872 47.9954 60.0389 54.0304 53.9471C66.0197 41.8345 65.9391 22.3026 53.8265 10.2991C53.7554 10.228 53.6938 10.1569 53.6227 10.0952C47.602 4.13612 39.7465 1.15894 31.8959 1.15894Z" fill="#15162E"></path>
  <path d="M31.9998 19.1027C36.238 19.1027 36.7405 19.1169 38.4188 19.1975C39.969 19.2686 40.8081 19.5246 41.3675 19.7427C42.107 20.0319 42.638 20.3732 43.1927 20.9326C43.7473 21.4873 44.0934 22.0182 44.3826 22.7578C44.6007 23.3172 44.8567 24.1563 44.9278 25.7065C45.0036 27.38 45.0226 27.8825 45.0226 32.1255C45.0226 36.3684 45.0084 36.8662 44.9278 38.5444C44.8567 40.0947 44.6007 40.9338 44.3826 41.4932C44.0934 42.2327 43.7521 42.7637 43.1927 43.3184C42.638 43.873 42.107 44.2191 41.3675 44.5083C40.8081 44.7264 39.969 44.9824 38.4188 45.0535C36.7453 45.1293 36.2428 45.1483 31.9998 45.1483C27.7568 45.1483 27.259 45.1341 25.5808 45.0535C24.0306 44.9824 23.1915 44.7264 22.6321 44.5083C21.8925 44.2191 21.3616 43.8778 20.8069 43.3184C20.2522 42.7637 19.9062 42.2327 19.617 41.4932C19.3989 40.9338 19.1429 40.0947 19.0718 38.5444C18.9959 36.871 18.977 36.3684 18.977 32.1255C18.977 27.8825 18.9912 27.3847 19.0718 25.7065C19.1429 24.1563 19.3989 23.3172 19.617 22.7578C19.9062 22.0182 20.2475 21.4873 20.8069 20.9326C21.3616 20.3779 21.8925 20.0319 22.6321 19.7427C23.1915 19.5246 24.0306 19.2686 25.5808 19.1975C27.2543 19.1216 27.7568 19.1027 31.9998 19.1027ZM31.9998 16.2393C27.6857 16.2393 27.1453 16.2582 25.4528 16.3341C23.7604 16.4099 22.6084 16.6801 21.5986 17.0736C20.5556 17.4813 19.6691 18.0218 18.7873 18.9036C17.9056 19.7853 17.3604 20.6718 16.9574 21.7148C16.5639 22.7246 16.2985 23.8813 16.2179 25.569C16.142 27.2615 16.123 27.8019 16.123 32.116C16.123 36.4301 16.142 36.9705 16.2179 38.663C16.2937 40.3554 16.5639 41.5074 16.9574 42.5172C17.3651 43.5601 17.9056 44.4467 18.7873 45.3284C19.6691 46.2102 20.5556 46.7554 21.5986 47.1584C22.6084 47.5519 23.7651 47.8173 25.4528 47.8979C27.1453 47.9738 27.6857 47.9927 31.9998 47.9927C36.3139 47.9927 36.8543 47.9738 38.5468 47.8979C40.2392 47.8221 41.3912 47.5519 42.401 47.1584C43.4439 46.7507 44.3305 46.2102 45.2122 45.3284C46.094 44.4467 46.6392 43.5601 47.0422 42.5172C47.4356 41.5074 47.7011 40.3507 47.7817 38.663C47.8576 36.9705 47.8765 36.4301 47.8765 32.116C47.8765 27.8019 47.8576 27.2615 47.7817 25.569C47.7059 23.8766 47.4356 22.7246 47.0422 21.7148C46.6345 20.6718 46.094 19.7853 45.2122 18.9036C44.3305 18.0218 43.4439 17.4766 42.401 17.0736C41.3912 16.6801 40.2345 16.4147 38.5468 16.3341C36.8543 16.2582 36.3139 16.2393 31.9998 16.2393Z" fill="#15162E"></path>
  <path d="M31.9998 23.9666C27.4961 23.9666 23.8457 27.6169 23.8457 32.1206C23.8457 36.6243 27.4961 40.2747 31.9998 40.2747C36.5035 40.2747 40.1538 36.6243 40.1538 32.1206C40.1538 27.6169 36.5035 23.9666 31.9998 23.9666ZM31.9998 37.416C29.0747 37.416 26.7044 35.0457 26.7044 32.1206C26.7044 29.1956 29.0747 26.8252 31.9998 26.8252C34.9248 26.8252 37.2952 29.1956 37.2952 32.1206C37.2952 35.0457 34.9248 37.416 31.9998 37.416Z" fill="#15162E"></path>
  <path d="M40.4761 25.5501C41.5286 25.5501 42.3819 24.6968 42.3819 23.6443C42.3819 22.5918 41.5286 21.7385 40.4761 21.7385C39.4236 21.7385 38.5703 22.5918 38.5703 23.6443C38.5703 24.6968 39.4236 25.5501 40.4761 25.5501Z" fill="#15162E"></path>
</svg>
