<?xml version="1.0" encoding="UTF-8"?>
<svg xmlns="http://www.w3.org/2000/svg" width="65" height="65" viewBox="0 0 65 65" fill="none">
  <g clip-path="url(#clip0_2553_6523)">
    <path d="M49.0793 29.592C54.2428 20.6916 51.2135 9.29067 42.3132 4.12718C33.4128 -1.03632 22.0118 1.99299 16.8484 10.8933C11.6849 19.7936 14.7142 31.1946 23.6145 36.3581C32.5148 41.5216 43.9158 38.4923 49.0793 29.592Z" fill="#F8F9F9"></path>
    <path d="M32.9632 39.8244C27.7342 39.8244 22.818 37.7907 19.1202 34.0929C15.4224 30.3951 13.3887 25.4789 13.3887 20.2499C13.3887 9.45525 22.1733 0.670654 32.9679 0.670654C38.197 0.670654 43.1131 2.70443 46.8109 6.40221C50.5087 10.1 52.5425 15.0161 52.5425 20.2452C52.5425 31.0398 43.7579 39.8244 32.9632 39.8244ZM32.9632 2.56695C23.2162 2.56695 15.2802 10.4982 15.2802 20.2499C15.2802 24.9717 17.1196 29.4138 20.4571 32.7512C23.7946 36.0887 28.2367 37.9281 32.9584 37.9281C42.7054 37.9281 50.6414 29.9969 50.6414 20.2452C50.6414 15.5234 48.802 11.0813 45.4645 7.74384C42.127 4.40636 37.685 2.56695 32.9632 2.56695Z" fill="#15162E"></path>
    <path d="M17.0718 51.1405C16.9296 51.1405 16.7826 51.1073 16.6499 51.0409L12.5444 49.0071L8.43894 51.0409C8.12131 51.1973 7.74679 51.1642 7.46235 50.9603C7.1779 50.7517 7.03094 50.4056 7.08309 50.0548L7.74679 45.5274L4.54679 42.2563C4.30028 42.005 4.21494 41.6353 4.32398 41.2987C4.43302 40.9621 4.71746 40.7156 5.06828 40.6587L9.58146 39.8907L11.7053 35.8373C11.8712 35.5244 12.1936 35.3301 12.5444 35.3301C12.8952 35.3301 13.2223 35.5244 13.3835 35.8373L15.5074 39.8907L20.0253 40.6587C20.3714 40.7156 20.6606 40.9668 20.7696 41.2987C20.8786 41.6353 20.7933 42.0003 20.5468 42.2563L17.3468 45.5274L18.0105 50.0548C18.0626 50.4056 17.9157 50.7517 17.6312 50.9603C17.4653 51.0788 17.2709 51.1405 17.0718 51.1405ZM12.5492 47.0065C12.6914 47.0065 12.8383 47.0397 12.9711 47.1061L15.8724 48.5425L15.4031 45.3425C15.3604 45.0486 15.4552 44.7547 15.6638 44.5413L17.9252 42.2279L14.7299 41.6827C14.436 41.6353 14.1847 41.4504 14.0472 41.1896L12.5444 38.3215L11.0416 41.1896C10.9041 41.4504 10.6529 41.6353 10.3589 41.6827L7.16842 42.2231L9.42976 44.5366C9.63835 44.7499 9.73316 45.0439 9.6905 45.3378L9.22116 48.5378L12.1225 47.1013C12.2552 47.035 12.3975 47.0018 12.5444 47.0018L12.5492 47.0065Z" fill="#15162E"></path>
    <path d="M39.0638 63.6847C38.9216 63.6847 38.7746 63.6515 38.6419 63.5851L32.7918 60.6885L26.9417 63.5851C26.6241 63.7415 26.2496 63.7084 25.9651 63.5045C25.6807 63.2959 25.5337 62.9498 25.5859 62.599L26.534 56.1421L21.9687 51.4773C21.7221 51.226 21.6368 50.8562 21.7459 50.5196C21.8549 50.183 22.1393 49.9365 22.4902 49.8796L28.9281 48.7893L31.9574 43.0056C32.1186 42.6927 32.4457 42.4983 32.7965 42.4983C33.1473 42.4983 33.4744 42.6927 33.6356 43.0056L36.665 48.7893L43.1029 49.8796C43.449 49.9365 43.7382 50.1878 43.8472 50.5196C43.9562 50.8515 43.8709 51.2213 43.6244 51.4773L39.059 56.1421L40.0072 62.599C40.0593 62.9498 39.9124 63.2959 39.6279 63.5045C39.462 63.623 39.2676 63.6847 39.0685 63.6847H39.0638ZM24.5856 51.4441L28.2122 55.1513C28.4208 55.3647 28.5156 55.6586 28.473 55.9525L27.7192 61.082L32.3699 58.778C32.6353 58.6453 32.9482 58.6453 33.209 58.778L37.8596 61.082L37.1059 55.9525C37.0632 55.6586 37.158 55.3647 37.3666 55.1513L40.9933 51.4441L35.878 50.5765C35.5841 50.5291 35.3328 50.3442 35.1953 50.0835L32.787 45.4897L30.3787 50.0835C30.2413 50.3442 29.99 50.5291 29.6961 50.5765L24.5808 51.4441H24.5856Z" fill="#15162E"></path>
    <path d="M57.5621 51.1405C57.4198 51.1405 57.2729 51.1073 57.1401 51.0409L53.0347 49.0071L48.9292 51.0409C48.6115 51.1973 48.237 51.1642 47.9526 50.9603C47.6681 50.7517 47.5212 50.4056 47.5733 50.0548L48.237 45.5274L45.037 42.2563C44.7905 42.005 44.7052 41.6353 44.8142 41.2987C44.9233 40.9621 45.2077 40.7156 45.5585 40.6587L50.0717 39.8907L52.1955 35.8373C52.3615 35.5244 52.6838 35.3301 53.0347 35.3301C53.3855 35.3301 53.7126 35.5244 53.8738 35.8373L55.9976 39.8907L60.5108 40.6587C60.8569 40.7156 61.1461 40.9668 61.2551 41.2987C61.3641 41.6353 61.2788 42.0003 61.0323 42.2563L57.8323 45.5274L58.496 50.0548C58.5481 50.4056 58.4012 50.7517 58.1167 50.9603C57.9508 51.0788 57.7564 51.1405 57.5573 51.1405H57.5621ZM47.6587 42.2231L49.9247 44.5366C50.1333 44.7499 50.2281 45.0439 50.1855 45.3378L49.7161 48.5378L52.6175 47.1013C52.883 46.9686 53.1958 46.9686 53.4566 47.1013L56.3579 48.5378L55.8886 45.3378C55.8459 45.0439 55.9407 44.7499 56.1493 44.5366L58.4154 42.2231L55.2249 41.6827C54.931 41.6353 54.6797 41.4504 54.5422 41.1896L53.0394 38.3215L51.5366 41.1896C51.3991 41.4504 51.1478 41.6353 50.8539 41.6827L47.6634 42.2231H47.6587Z" fill="#15162E"></path>
    <path d="M32.7915 43.4417L29.5441 49.6378L22.6416 50.8088L27.5388 55.8102L26.5243 62.7317L32.7963 59.6265L39.0683 62.7317L38.0537 55.8102L42.9462 50.8088L36.0484 49.6378L32.801 43.4417H32.7915Z" fill="#FCC018"></path>
    <path d="M39.0638 63.6847C38.9216 63.6847 38.7746 63.6515 38.6419 63.5851L32.7918 60.6885L26.9417 63.5851C26.6241 63.7415 26.2496 63.7084 25.9651 63.5045C25.6807 63.2959 25.5337 62.9498 25.5859 62.599L26.534 56.1421L21.9687 51.4773C21.7221 51.226 21.6368 50.8562 21.7459 50.5196C21.8549 50.183 22.1393 49.9365 22.4902 49.8796L28.9281 48.7893L31.9574 43.0056C32.1233 42.6927 32.4457 42.4983 32.7965 42.4983C33.1473 42.4983 33.4744 42.6927 33.6356 43.0056L36.665 48.7893L43.1029 49.8796C43.449 49.9365 43.7382 50.1878 43.8472 50.5196C43.9562 50.8515 43.8709 51.2213 43.6244 51.4773L39.059 56.1421L40.0072 62.599C40.0593 62.9498 39.9124 63.2959 39.6279 63.5045C39.462 63.623 39.2676 63.6847 39.0685 63.6847H39.0638ZM24.5856 51.4441L28.2122 55.1513C28.4208 55.3647 28.5156 55.6586 28.473 55.9525L27.7192 61.082L32.3699 58.778C32.6353 58.6453 32.9482 58.6453 33.209 58.778L37.8596 61.082L37.1059 55.9525C37.0632 55.6586 37.158 55.3647 37.3666 55.1513L40.9933 51.4441L35.878 50.5765C35.5841 50.5291 35.3328 50.3442 35.1953 50.0835L32.787 45.4897L30.3787 50.0835C30.2413 50.3442 29.99 50.5291 29.6961 50.5765L24.5808 51.4441H24.5856Z" fill="#15162E"></path>
    <path d="M12.5492 36.2783L10.2073 40.7488L5.22949 41.5974L8.7566 45.2051L8.02179 50.1971L12.5445 47.9548L17.0671 50.1971L16.3323 45.2051L19.8594 41.5974L14.8816 40.7488L12.5397 36.2783H12.5492Z" fill="#FCC018"></path>
    <path d="M17.0718 51.1405C16.9296 51.1405 16.7826 51.1073 16.6499 51.0409L12.5444 49.0071L8.43894 51.0409C8.12131 51.1973 7.74679 51.1642 7.46235 50.9603C7.1779 50.7517 7.03094 50.4056 7.08309 50.0548L7.74679 45.5274L4.54679 42.2563C4.30028 42.005 4.21494 41.6353 4.32398 41.2987C4.43302 40.9621 4.71746 40.7156 5.06828 40.6587L9.58146 39.8907L11.7053 35.8373C11.8712 35.5244 12.1936 35.3301 12.5444 35.3301C12.8952 35.3301 13.2223 35.5244 13.3835 35.8373L15.5074 39.8907L20.0253 40.6587C20.3714 40.7156 20.6606 40.9668 20.7696 41.2987C20.8786 41.6353 20.7933 42.0003 20.5468 42.2563L17.3468 45.5274L18.0105 50.0548C18.0626 50.4056 17.9157 50.7517 17.6312 50.9603C17.4653 51.0788 17.2709 51.1405 17.0718 51.1405ZM7.16842 42.2231L9.4345 44.5366C9.64309 44.7499 9.73791 45.0439 9.69524 45.3378L9.22591 48.5378L12.1272 47.1013C12.3927 46.9686 12.7056 46.9686 12.9663 47.1013L15.8677 48.5378L15.3983 45.3378C15.3557 45.0439 15.4505 44.7499 15.6591 44.5366L17.9204 42.2231L14.7252 41.6779C14.4312 41.6305 14.18 41.4456 14.0425 41.1849L12.5397 38.3167L11.0369 41.1849C10.8994 41.4456 10.6481 41.6305 10.3542 41.6779L7.16368 42.2184L7.16842 42.2231Z" fill="#15162E"></path>
    <path d="M53.0345 36.2783L50.6926 40.7488L45.7148 41.5974L49.242 45.2051L48.5071 50.1971L53.0298 47.9548L57.5525 50.1971L56.8177 45.2051L60.3448 41.5974L55.367 40.7488L53.0251 36.2783H53.0345Z" fill="#FCC018"></path>
    <path d="M57.5621 51.1405C57.4198 51.1405 57.2729 51.1073 57.1401 51.0409L53.0347 49.0071L48.9292 51.0409C48.6115 51.1973 48.237 51.1642 47.9526 50.9603C47.6681 50.7517 47.5212 50.4056 47.5733 50.0548L48.237 45.5274L45.037 42.2563C44.7905 42.005 44.7052 41.6353 44.8142 41.2987C44.9233 40.9621 45.2077 40.7156 45.5585 40.6587L50.0717 39.8907L52.1955 35.8373C52.3615 35.5244 52.6838 35.3301 53.0347 35.3301C53.3855 35.3301 53.7126 35.5244 53.8738 35.8373L55.9976 39.8907L60.5108 40.6587C60.8569 40.7156 61.1461 40.9668 61.2551 41.2987C61.3641 41.6353 61.2788 42.0003 61.0323 42.2563L57.8323 45.5274L58.496 50.0548C58.5481 50.4056 58.4012 50.7517 58.1167 50.9603C57.9508 51.0788 57.7564 51.1405 57.5573 51.1405H57.5621ZM53.0394 47.0065C53.1816 47.0065 53.3286 47.0397 53.4613 47.1061L56.3627 48.5425L55.8933 45.3425C55.8507 45.0486 55.9455 44.7547 56.1541 44.5413L58.4154 42.2279L55.2249 41.6874C54.931 41.64 54.6797 41.4551 54.5422 41.1944L53.0394 38.3262L51.5366 41.1944C51.3991 41.4551 51.1478 41.64 50.8539 41.6874L47.6634 42.2279L49.9295 44.5413C50.1381 44.7547 50.2329 45.0486 50.1902 45.3425L49.7209 48.5425L52.6222 47.1061C52.755 47.0397 52.8972 47.0065 53.0441 47.0065H53.0394Z" fill="#15162E"></path>
    <path d="M32.792 27.2614C30.9051 27.2614 29.0515 26.6071 27.5819 25.4267C25.6097 23.8385 24.4814 21.4824 24.4814 18.9556C24.4814 14.376 28.2077 10.6545 32.792 10.6545C37.3763 10.6545 41.0977 14.3808 41.0977 18.9556C41.0977 21.4824 39.9694 23.8433 38.002 25.4267C36.5277 26.6119 34.6788 27.2614 32.792 27.2614ZM32.792 12.5461C29.2554 12.5461 26.3777 15.419 26.3777 18.9508C26.3777 20.8993 27.25 22.7197 28.7718 23.9428C29.9238 24.872 31.3129 25.3603 32.792 25.3603C34.2711 25.3603 35.6601 24.872 36.8121 23.9428C38.3292 22.7197 39.2014 20.8993 39.2014 18.9508C39.2014 15.419 36.3238 12.5461 32.792 12.5461Z" fill="#15162E"></path>
    <path d="M32.7917 39.668C28.4776 39.668 24.3911 38.2931 20.9683 35.6952C20.7312 35.5151 20.5938 35.2354 20.5938 34.9414C20.5938 30.1722 23.4145 25.8108 27.7807 23.8291C28.1078 23.6822 28.4871 23.7296 28.7668 23.9524C29.9188 24.8816 31.3126 25.3699 32.7869 25.3699C34.2613 25.3699 35.6551 24.8816 36.8071 23.9524C37.0868 23.7296 37.466 23.6774 37.7932 23.8291C42.1594 25.8108 44.9801 30.1722 44.9801 34.9414C44.9801 35.2354 44.8426 35.5151 44.6056 35.6952C41.1828 38.2979 37.0963 39.668 32.7822 39.668H32.7917ZM22.5043 34.4674C25.5099 36.6291 29.0607 37.7717 32.7917 37.7717C36.5226 37.7717 40.0735 36.6291 43.0791 34.4674C42.9084 30.8075 40.7798 27.4937 37.5087 25.7918C36.1244 26.7447 34.4746 27.2614 32.7869 27.2614C31.0992 27.2614 29.4495 26.7447 28.0652 25.7918C24.7988 27.489 22.6655 30.8075 22.4948 34.4674H22.5043Z" fill="#15162E"></path>
    <path d="M44.0416 35.8849C43.5201 35.8849 43.0935 35.4582 43.0935 34.9367C43.0935 30.9118 40.7089 27.2283 37.0158 25.5548C36.537 25.3367 36.3284 24.7773 36.5417 24.2985C36.7598 23.8197 37.3192 23.6064 37.798 23.8244C42.169 25.8061 44.9897 30.1675 44.9897 34.9367C44.9897 35.4582 44.5631 35.8849 44.0416 35.8849ZM21.5468 35.8849C21.0253 35.8849 20.5986 35.4582 20.5986 34.9367C20.5986 30.1675 23.4194 25.8108 27.7856 23.8244C28.2644 23.6064 28.8238 23.8197 29.0419 24.2938C29.26 24.7678 29.0466 25.332 28.5726 25.5501C24.8795 27.2283 22.4949 30.9071 22.4949 34.932C22.4949 35.4535 22.0683 35.8801 21.5468 35.8801V35.8849Z" fill="#15162E"></path>
    <path d="M32.792 27.2614C28.2077 27.2614 24.4814 23.5351 24.4814 18.9556C24.4814 14.376 28.2077 10.6545 32.792 10.6545C37.3763 10.6545 41.0977 14.3808 41.0977 18.9556C41.0977 23.5304 37.3715 27.2614 32.792 27.2614ZM32.792 12.5461C29.2554 12.5461 26.3777 15.419 26.3777 18.9508C26.3777 22.4827 29.2554 25.3603 32.792 25.3603C36.3286 25.3603 39.2014 22.4827 39.2014 18.9508C39.2014 15.419 36.3238 12.5461 32.792 12.5461Z" fill="#15162E"></path>
  </g>
  <defs>
    <clipPath id="clip0_2553_6523">
      <rect width="64" height="64" fill="white" transform="translate(0.791992 0.120605)"></rect>
    </clipPath>
  </defs>
</svg>
