<?xml version="1.0" encoding="UTF-8"?>
<svg xmlns="http://www.w3.org/2000/svg" width="313" height="287" viewBox="0 0 313 287" fill="none">
  <rect x="1.38672" y="1.62061" width="310.588" height="283.843" rx="49" fill="#E0E9FB" stroke="#121212" stroke-width="2"></rect>
  <path d="M100.088 221.022V216.282H104.908V221.022H100.088ZM100.088 189.022V184.282H104.908V189.022H100.088ZM102.608 217.642C100.581 217.642 98.768 217.269 97.168 216.522C95.568 215.775 94.2547 214.722 93.228 213.362C92.2147 212.002 91.568 210.389 91.288 208.522L96.048 207.762C96.4214 209.402 97.2214 210.709 98.448 211.682C99.688 212.642 101.168 213.122 102.888 213.122C104.541 213.122 105.901 212.735 106.968 211.962C108.035 211.175 108.568 210.182 108.568 208.982C108.568 208.142 108.315 207.462 107.808 206.942C107.301 206.409 106.488 205.969 105.368 205.622L98.428 203.462C94.388 202.209 92.368 199.755 92.368 196.102C92.368 194.395 92.7747 192.909 93.588 191.642C94.4147 190.362 95.5747 189.382 97.068 188.702C98.5614 188.009 100.321 187.669 102.348 187.682C104.228 187.695 105.901 188.035 107.368 188.702C108.848 189.369 110.075 190.329 111.048 191.582C112.035 192.822 112.735 194.329 113.148 196.102L108.208 197.002C108.021 196.055 107.655 195.222 107.108 194.502C106.561 193.782 105.875 193.222 105.048 192.822C104.221 192.422 103.301 192.209 102.288 192.182C101.315 192.169 100.441 192.322 99.668 192.642C98.8947 192.949 98.2814 193.389 97.828 193.962C97.3747 194.522 97.148 195.155 97.148 195.862C97.148 196.649 97.4614 197.322 98.088 197.882C98.728 198.442 99.7347 198.922 101.108 199.322L106.288 200.822C108.781 201.542 110.575 202.522 111.668 203.762C112.775 204.989 113.328 206.622 113.328 208.662C113.328 210.449 112.881 212.015 111.988 213.362C111.095 214.709 109.841 215.762 108.228 216.522C106.615 217.269 104.741 217.642 102.608 217.642ZM116.865 217.002V212.802L129.185 201.822C130.145 200.969 130.812 200.162 131.185 199.402C131.559 198.642 131.745 197.909 131.745 197.202C131.745 196.242 131.539 195.389 131.125 194.642C130.712 193.882 130.139 193.282 129.405 192.842C128.685 192.402 127.852 192.182 126.905 192.182C125.905 192.182 125.019 192.415 124.245 192.882C123.485 193.335 122.892 193.942 122.465 194.702C122.039 195.462 121.839 196.282 121.865 197.162H116.905C116.905 195.242 117.332 193.569 118.185 192.142C119.052 190.715 120.239 189.609 121.745 188.822C123.265 188.035 125.019 187.642 127.005 187.642C128.845 187.642 130.499 188.055 131.965 188.882C133.432 189.695 134.585 190.829 135.425 192.282C136.265 193.722 136.685 195.382 136.685 197.262C136.685 198.635 136.499 199.789 136.125 200.722C135.752 201.655 135.192 202.515 134.445 203.302C133.712 204.089 132.799 204.962 131.705 205.922L122.965 213.662L122.525 212.462H136.685V217.002H116.865ZM151.453 217.642C149.573 217.642 147.88 217.202 146.373 216.322C144.88 215.429 143.693 214.195 142.813 212.622C141.933 211.049 141.493 209.242 141.493 207.202V198.442C141.493 196.255 141.927 194.355 142.793 192.742C143.673 191.129 144.9 189.882 146.473 189.002C148.06 188.122 149.9 187.682 151.993 187.682C153.447 187.682 154.827 187.929 156.133 188.422C157.44 188.902 158.6 189.675 159.613 190.742L156.133 194.122C155.627 193.522 155.007 193.049 154.273 192.702C153.553 192.355 152.793 192.182 151.993 192.182C150.873 192.182 149.893 192.449 149.053 192.982C148.213 193.502 147.56 194.189 147.093 195.042C146.64 195.895 146.413 196.809 146.413 197.782V202.562L145.533 201.602C146.36 200.642 147.353 199.895 148.513 199.362C149.673 198.815 150.887 198.542 152.153 198.542C153.967 198.542 155.567 198.955 156.953 199.782C158.34 200.595 159.433 201.715 160.233 203.142C161.033 204.555 161.433 206.169 161.433 207.982C161.433 209.782 160.973 211.415 160.053 212.882C159.147 214.335 157.94 215.495 156.433 216.362C154.927 217.215 153.267 217.642 151.453 217.642ZM151.453 213.022C152.387 213.022 153.24 212.802 154.013 212.362C154.787 211.909 155.4 211.302 155.853 210.542C156.32 209.769 156.553 208.915 156.553 207.982C156.553 207.049 156.327 206.195 155.873 205.422C155.42 204.649 154.807 204.035 154.033 203.582C153.273 203.115 152.427 202.882 151.493 202.882C150.56 202.882 149.707 203.115 148.933 203.582C148.16 204.035 147.547 204.649 147.093 205.422C146.64 206.195 146.413 207.049 146.413 207.982C146.413 208.889 146.633 209.729 147.073 210.502C147.527 211.262 148.133 211.875 148.893 212.342C149.667 212.795 150.52 213.022 151.453 213.022ZM167.137 217.042V212.102H172.077V217.042H167.137ZM187.026 217.642C185.559 217.642 184.192 217.342 182.926 216.742C181.659 216.129 180.566 215.289 179.646 214.222C178.739 213.155 178.086 211.915 177.686 210.502L182.326 209.262C182.512 210.035 182.852 210.702 183.346 211.262C183.852 211.822 184.439 212.255 185.106 212.562C185.786 212.869 186.486 213.022 187.206 213.022C188.139 213.022 188.992 212.795 189.766 212.342C190.539 211.889 191.152 211.282 191.606 210.522C192.059 209.749 192.286 208.895 192.286 207.962C192.286 207.029 192.052 206.182 191.586 205.422C191.132 204.649 190.519 204.042 189.746 203.602C188.972 203.149 188.126 202.922 187.206 202.922C186.099 202.922 185.179 203.122 184.446 203.522C183.726 203.922 183.172 204.349 182.786 204.802L178.666 203.482L179.546 188.242H195.186V192.762H182.126L183.926 191.062L183.286 201.662L182.406 200.582C183.152 199.902 184.019 199.395 185.006 199.062C185.992 198.729 186.946 198.562 187.866 198.562C189.666 198.562 191.259 198.975 192.646 199.802C194.046 200.615 195.139 201.729 195.926 203.142C196.726 204.555 197.126 206.162 197.126 207.962C197.126 209.762 196.659 211.395 195.726 212.862C194.792 214.315 193.559 215.475 192.026 216.342C190.506 217.209 188.839 217.642 187.026 217.642ZM211.343 217.642C209.436 217.642 207.743 217.255 206.263 216.482C204.783 215.709 203.623 214.635 202.783 213.262C201.943 211.889 201.523 210.315 201.523 208.542C201.523 206.955 201.89 205.482 202.623 204.122C203.356 202.762 204.43 201.675 205.843 200.862L205.743 202.402C204.636 201.562 203.776 200.595 203.163 199.502C202.563 198.395 202.263 197.155 202.263 195.782C202.263 194.129 202.65 192.695 203.423 191.482C204.21 190.269 205.283 189.329 206.643 188.662C208.003 187.982 209.57 187.642 211.343 187.642C213.116 187.642 214.683 187.982 216.043 188.662C217.416 189.329 218.49 190.269 219.263 191.482C220.05 192.695 220.443 194.129 220.443 195.782C220.443 197.155 220.15 198.389 219.563 199.482C218.99 200.575 218.116 201.562 216.943 202.442L216.923 200.882C218.31 201.669 219.37 202.749 220.103 204.122C220.85 205.482 221.223 206.955 221.223 208.542C221.223 210.315 220.796 211.889 219.943 213.262C219.103 214.635 217.936 215.709 216.443 216.482C214.963 217.255 213.263 217.642 211.343 217.642ZM211.343 213.102C212.756 213.102 213.903 212.715 214.783 211.942C215.676 211.169 216.123 210.035 216.123 208.542C216.123 207.049 215.683 205.915 214.803 205.142C213.923 204.355 212.77 203.962 211.343 203.962C209.93 203.962 208.79 204.355 207.923 205.142C207.056 205.915 206.623 207.049 206.623 208.542C206.623 210.035 207.056 211.169 207.923 211.942C208.79 212.715 209.93 213.102 211.343 213.102ZM211.343 199.382C212.53 199.382 213.49 199.089 214.223 198.502C214.97 197.902 215.343 196.995 215.343 195.782C215.343 194.569 214.97 193.669 214.223 193.082C213.49 192.482 212.53 192.182 211.343 192.182C210.17 192.182 209.21 192.482 208.463 193.082C207.73 193.669 207.363 194.569 207.363 195.782C207.363 196.995 207.73 197.902 208.463 198.502C209.21 199.089 210.17 199.382 211.343 199.382Z" fill="#232836"></path>
  <path d="M62.3238 250.621L67.1438 236.221H69.6238L74.4438 250.621H72.5938L68.0838 237.261H68.6438L64.1738 250.621H62.3238ZM64.6438 247.251V245.581H72.1238V247.251H64.6438ZM78.3532 250.621L74.4332 239.821H76.2332L79.2632 248.351L82.2832 239.821H84.0932L80.1732 250.621H78.3532ZM90.1913 250.921C89.1313 250.921 88.2047 250.687 87.4113 250.221C86.6247 249.747 86.0113 249.091 85.5713 248.251C85.1313 247.404 84.9113 246.417 84.9113 245.291C84.9113 244.111 85.128 243.091 85.5613 242.231C85.9947 241.364 86.598 240.697 87.3713 240.231C88.1513 239.757 89.0647 239.521 90.1113 239.521C91.198 239.521 92.1213 239.771 92.8813 240.271C93.648 240.771 94.2213 241.484 94.6013 242.411C94.988 243.337 95.1547 244.441 95.1013 245.721H93.3013V245.081C93.2813 243.754 93.0113 242.764 92.4913 242.111C91.9713 241.451 91.198 241.121 90.1713 241.121C89.0713 241.121 88.2347 241.474 87.6613 242.181C87.088 242.887 86.8013 243.901 86.8013 245.221C86.8013 246.494 87.088 247.481 87.6613 248.181C88.2347 248.881 89.0513 249.231 90.1113 249.231C90.8247 249.231 91.4447 249.067 91.9713 248.741C92.498 248.414 92.9113 247.944 93.2113 247.331L94.9213 247.921C94.5013 248.874 93.868 249.614 93.0213 250.141C92.1813 250.661 91.238 250.921 90.1913 250.921ZM86.2013 245.721V244.291H94.1813V245.721H86.2013ZM97.3277 250.621V239.821H98.9177V242.431L98.6577 242.091C98.7844 241.757 98.9477 241.451 99.1477 241.171C99.3544 240.891 99.5844 240.661 99.8377 240.481C100.118 240.254 100.434 240.081 100.788 239.961C101.141 239.841 101.501 239.771 101.868 239.751C102.234 239.724 102.578 239.747 102.898 239.821V241.491C102.524 241.391 102.114 241.364 101.668 241.411C101.221 241.457 100.808 241.621 100.428 241.901C100.081 242.147 99.8111 242.447 99.6177 242.801C99.4311 243.154 99.3011 243.537 99.2277 243.951C99.1544 244.357 99.1177 244.774 99.1177 245.201V250.621H97.3277ZM107.507 250.921C106.7 250.921 106.024 250.774 105.477 250.481C104.937 250.181 104.527 249.787 104.247 249.301C103.974 248.814 103.837 248.281 103.837 247.701C103.837 247.134 103.944 246.644 104.157 246.231C104.377 245.811 104.684 245.464 105.077 245.191C105.47 244.911 105.94 244.691 106.487 244.531C107 244.391 107.574 244.271 108.207 244.171C108.847 244.064 109.494 243.967 110.147 243.881C110.8 243.794 111.41 243.711 111.977 243.631L111.337 244.001C111.357 243.041 111.164 242.331 110.757 241.871C110.357 241.411 109.664 241.181 108.677 241.181C108.024 241.181 107.45 241.331 106.957 241.631C106.47 241.924 106.127 242.404 105.927 243.071L104.237 242.561C104.497 241.614 105 240.871 105.747 240.331C106.494 239.791 107.477 239.521 108.697 239.521C109.677 239.521 110.517 239.697 111.217 240.051C111.924 240.397 112.43 240.924 112.737 241.631C112.89 241.964 112.987 242.327 113.027 242.721C113.067 243.107 113.087 243.514 113.087 243.941V250.621H111.507V248.031L111.877 248.271C111.47 249.144 110.9 249.804 110.167 250.251C109.44 250.697 108.554 250.921 107.507 250.921ZM107.777 249.431C108.417 249.431 108.97 249.317 109.437 249.091C109.91 248.857 110.29 248.554 110.577 248.181C110.864 247.801 111.05 247.387 111.137 246.941C111.237 246.607 111.29 246.237 111.297 245.831C111.31 245.417 111.317 245.101 111.317 244.881L111.937 245.151C111.357 245.231 110.787 245.307 110.227 245.381C109.667 245.454 109.137 245.534 108.637 245.621C108.137 245.701 107.687 245.797 107.287 245.911C106.994 246.004 106.717 246.124 106.457 246.271C106.204 246.417 105.997 246.607 105.837 246.841C105.684 247.067 105.607 247.351 105.607 247.691C105.607 247.984 105.68 248.264 105.827 248.531C105.98 248.797 106.214 249.014 106.527 249.181C106.847 249.347 107.264 249.431 107.777 249.431ZM120.057 255.721C119.49 255.721 118.937 255.634 118.397 255.461C117.857 255.287 117.36 255.024 116.907 254.671C116.46 254.324 116.087 253.884 115.787 253.351L117.417 252.491C117.684 253.017 118.06 253.401 118.547 253.641C119.04 253.881 119.547 254.001 120.067 254.001C120.754 254.001 121.324 253.874 121.777 253.621C122.23 253.374 122.564 253.004 122.777 252.511C122.997 252.017 123.104 251.404 123.097 250.671V247.721H123.307V239.821H124.887V250.691C124.887 250.984 124.877 251.267 124.857 251.541C124.844 251.814 124.81 252.084 124.757 252.351C124.617 253.117 124.34 253.747 123.927 254.241C123.514 254.741 122.98 255.111 122.327 255.351C121.674 255.597 120.917 255.721 120.057 255.721ZM119.927 250.921C118.92 250.921 118.057 250.671 117.337 250.171C116.617 249.664 116.06 248.981 115.667 248.121C115.28 247.261 115.087 246.291 115.087 245.211C115.087 244.131 115.28 243.161 115.667 242.301C116.06 241.441 116.617 240.764 117.337 240.271C118.057 239.771 118.917 239.521 119.917 239.521C120.937 239.521 121.794 239.767 122.487 240.261C123.18 240.754 123.704 241.431 124.057 242.291C124.417 243.151 124.597 244.124 124.597 245.211C124.597 246.284 124.417 247.254 124.057 248.121C123.704 248.981 123.18 249.664 122.487 250.171C121.794 250.671 120.94 250.921 119.927 250.921ZM120.147 249.291C120.874 249.291 121.47 249.117 121.937 248.771C122.404 248.417 122.747 247.934 122.967 247.321C123.194 246.701 123.307 245.997 123.307 245.211C123.307 244.411 123.194 243.707 122.967 243.101C122.747 242.487 122.407 242.011 121.947 241.671C121.487 241.324 120.904 241.151 120.197 241.151C119.464 241.151 118.857 241.331 118.377 241.691C117.904 242.051 117.55 242.537 117.317 243.151C117.09 243.764 116.977 244.451 116.977 245.211C116.977 245.977 117.094 246.671 117.327 247.291C117.56 247.904 117.91 248.391 118.377 248.751C118.85 249.111 119.44 249.291 120.147 249.291ZM132.359 250.921C131.299 250.921 130.373 250.687 129.579 250.221C128.793 249.747 128.179 249.091 127.739 248.251C127.299 247.404 127.079 246.417 127.079 245.291C127.079 244.111 127.296 243.091 127.729 242.231C128.163 241.364 128.766 240.697 129.539 240.231C130.319 239.757 131.233 239.521 132.279 239.521C133.366 239.521 134.289 239.771 135.049 240.271C135.816 240.771 136.389 241.484 136.769 242.411C137.156 243.337 137.323 244.441 137.269 245.721H135.469V245.081C135.449 243.754 135.179 242.764 134.659 242.111C134.139 241.451 133.366 241.121 132.339 241.121C131.239 241.121 130.403 241.474 129.829 242.181C129.256 242.887 128.969 243.901 128.969 245.221C128.969 246.494 129.256 247.481 129.829 248.181C130.403 248.881 131.219 249.231 132.279 249.231C132.993 249.231 133.613 249.067 134.139 248.741C134.666 248.414 135.079 247.944 135.379 247.331L137.089 247.921C136.669 248.874 136.036 249.614 135.189 250.141C134.349 250.661 133.406 250.921 132.359 250.921ZM128.369 245.721V244.291H136.349V245.721H128.369ZM148.46 250.921C147.446 250.921 146.593 250.671 145.9 250.171C145.206 249.664 144.68 248.981 144.32 248.121C143.966 247.254 143.79 246.284 143.79 245.211C143.79 244.124 143.966 243.151 144.32 242.291C144.68 241.431 145.206 240.754 145.9 240.261C146.6 239.767 147.456 239.521 148.47 239.521C149.47 239.521 150.33 239.771 151.05 240.271C151.776 240.764 152.333 241.441 152.72 242.301C153.106 243.161 153.3 244.131 153.3 245.211C153.3 246.291 153.106 247.261 152.72 248.121C152.333 248.981 151.776 249.664 151.05 250.171C150.33 250.671 149.466 250.921 148.46 250.921ZM143.49 255.421V239.821H145.08V247.771H145.28V255.421H143.49ZM148.24 249.291C148.953 249.291 149.543 249.111 150.01 248.751C150.476 248.391 150.826 247.904 151.06 247.291C151.293 246.671 151.41 245.977 151.41 245.211C151.41 244.451 151.293 243.764 151.06 243.151C150.833 242.537 150.48 242.051 150 241.691C149.526 241.331 148.923 241.151 148.19 241.151C147.49 241.151 146.91 241.324 146.45 241.671C145.99 242.011 145.646 242.487 145.42 243.101C145.193 243.707 145.08 244.411 145.08 245.211C145.08 245.997 145.19 246.701 145.41 247.321C145.636 247.934 145.983 248.417 146.45 248.771C146.916 249.117 147.513 249.291 148.24 249.291ZM158.562 250.921C157.755 250.921 157.078 250.774 156.532 250.481C155.992 250.181 155.582 249.787 155.302 249.301C155.028 248.814 154.892 248.281 154.892 247.701C154.892 247.134 154.998 246.644 155.212 246.231C155.432 245.811 155.738 245.464 156.132 245.191C156.525 244.911 156.995 244.691 157.542 244.531C158.055 244.391 158.628 244.271 159.262 244.171C159.902 244.064 160.548 243.967 161.202 243.881C161.855 243.794 162.465 243.711 163.032 243.631L162.392 244.001C162.412 243.041 162.218 242.331 161.812 241.871C161.412 241.411 160.718 241.181 159.732 241.181C159.078 241.181 158.505 241.331 158.012 241.631C157.525 241.924 157.182 242.404 156.982 243.071L155.292 242.561C155.552 241.614 156.055 240.871 156.802 240.331C157.548 239.791 158.532 239.521 159.752 239.521C160.732 239.521 161.572 239.697 162.272 240.051C162.978 240.397 163.485 240.924 163.792 241.631C163.945 241.964 164.042 242.327 164.082 242.721C164.122 243.107 164.142 243.514 164.142 243.941V250.621H162.562V248.031L162.932 248.271C162.525 249.144 161.955 249.804 161.222 250.251C160.495 250.697 159.608 250.921 158.562 250.921ZM158.832 249.431C159.472 249.431 160.025 249.317 160.492 249.091C160.965 248.857 161.345 248.554 161.632 248.181C161.918 247.801 162.105 247.387 162.192 246.941C162.292 246.607 162.345 246.237 162.352 245.831C162.365 245.417 162.372 245.101 162.372 244.881L162.992 245.151C162.412 245.231 161.842 245.307 161.282 245.381C160.722 245.454 160.192 245.534 159.692 245.621C159.192 245.701 158.742 245.797 158.342 245.911C158.048 246.004 157.772 246.124 157.512 246.271C157.258 246.417 157.052 246.607 156.892 246.841C156.738 247.067 156.662 247.351 156.662 247.691C156.662 247.984 156.735 248.264 156.882 248.531C157.035 248.797 157.268 249.014 157.582 249.181C157.902 249.347 158.318 249.431 158.832 249.431ZM167.636 255.421L169.726 249.741L169.756 251.421L165.036 239.821H166.906L170.606 249.151H169.966L173.436 239.821H175.246L169.366 255.421H167.636ZM181.107 250.921C180.034 250.921 179.107 250.677 178.327 250.191C177.554 249.704 176.957 249.031 176.537 248.171C176.117 247.311 175.907 246.324 175.907 245.211C175.907 244.077 176.121 243.084 176.547 242.231C176.974 241.377 177.577 240.714 178.357 240.241C179.137 239.761 180.054 239.521 181.107 239.521C182.187 239.521 183.117 239.764 183.897 240.251C184.677 240.731 185.274 241.401 185.687 242.261C186.107 243.114 186.317 244.097 186.317 245.211C186.317 246.337 186.107 247.331 185.687 248.191C185.267 249.044 184.667 249.714 183.887 250.201C183.107 250.681 182.181 250.921 181.107 250.921ZM181.107 249.231C182.227 249.231 183.061 248.857 183.607 248.111C184.154 247.364 184.427 246.397 184.427 245.211C184.427 243.991 184.151 243.021 183.597 242.301C183.044 241.574 182.214 241.211 181.107 241.211C180.354 241.211 179.734 241.381 179.247 241.721C178.761 242.061 178.397 242.531 178.157 243.131C177.917 243.731 177.797 244.424 177.797 245.211C177.797 246.424 178.077 247.397 178.637 248.131C179.197 248.864 180.021 249.231 181.107 249.231ZM192.619 250.901C191.926 250.901 191.329 250.791 190.829 250.571C190.336 250.351 189.926 250.057 189.599 249.691C189.272 249.324 189.016 248.917 188.829 248.471C188.642 248.024 188.509 247.567 188.429 247.101C188.356 246.634 188.319 246.197 188.319 245.791V239.821H190.119V245.231C190.119 245.737 190.166 246.227 190.259 246.701C190.352 247.174 190.509 247.601 190.729 247.981C190.956 248.361 191.256 248.661 191.629 248.881C192.009 249.101 192.482 249.211 193.049 249.211C193.496 249.211 193.902 249.134 194.269 248.981C194.636 248.827 194.949 248.601 195.209 248.301C195.469 247.994 195.669 247.607 195.809 247.141C195.949 246.674 196.019 246.131 196.019 245.511L197.189 245.871C197.189 246.911 196.999 247.807 196.619 248.561C196.246 249.314 195.716 249.894 195.029 250.301C194.349 250.701 193.546 250.901 192.619 250.901ZM196.219 250.621V247.731H196.019V239.821H197.809V250.621H196.219ZM206.639 250.621C205.999 250.747 205.366 250.797 204.739 250.771C204.119 250.751 203.566 250.627 203.079 250.401C202.592 250.167 202.222 249.807 201.969 249.321C201.756 248.894 201.639 248.464 201.619 248.031C201.606 247.591 201.599 247.094 201.599 246.541V236.821H203.379V246.461C203.379 246.901 203.382 247.277 203.389 247.591C203.402 247.904 203.472 248.174 203.599 248.401C203.839 248.827 204.219 249.077 204.739 249.151C205.266 249.224 205.899 249.204 206.639 249.091V250.621ZM199.409 241.291V239.821H206.639V241.291H199.409ZM216.916 250.911C215.629 250.911 214.572 250.631 213.746 250.071C212.926 249.504 212.422 248.714 212.236 247.701L214.056 247.411C214.202 247.997 214.539 248.464 215.066 248.811C215.592 249.151 216.246 249.321 217.026 249.321C217.766 249.321 218.346 249.167 218.766 248.861C219.186 248.554 219.396 248.137 219.396 247.611C219.396 247.304 219.326 247.057 219.186 246.871C219.046 246.677 218.756 246.497 218.316 246.331C217.882 246.164 217.226 245.964 216.346 245.731C215.392 245.477 214.642 245.214 214.096 244.941C213.549 244.667 213.159 244.351 212.926 243.991C212.692 243.631 212.576 243.194 212.576 242.681C212.576 242.047 212.749 241.494 213.096 241.021C213.442 240.541 213.926 240.171 214.546 239.911C215.172 239.651 215.899 239.521 216.726 239.521C217.546 239.521 218.279 239.651 218.926 239.911C219.572 240.171 220.092 240.541 220.486 241.021C220.886 241.494 221.122 242.047 221.196 242.681L219.376 243.011C219.289 242.431 219.009 241.974 218.536 241.641C218.069 241.307 217.466 241.131 216.726 241.111C216.026 241.084 215.456 241.207 215.016 241.481C214.582 241.754 214.366 242.124 214.366 242.591C214.366 242.851 214.446 243.074 214.606 243.261C214.772 243.447 215.076 243.624 215.516 243.791C215.962 243.957 216.609 244.147 217.456 244.361C218.409 244.601 219.159 244.864 219.706 245.151C220.259 245.431 220.652 245.764 220.886 246.151C221.119 246.531 221.236 247.001 221.236 247.561C221.236 248.601 220.852 249.421 220.086 250.021C219.319 250.614 218.262 250.911 216.916 250.911ZM227.541 250.901C226.848 250.901 226.251 250.791 225.751 250.571C225.258 250.351 224.848 250.057 224.521 249.691C224.194 249.324 223.938 248.917 223.751 248.471C223.564 248.024 223.431 247.567 223.351 247.101C223.278 246.634 223.241 246.197 223.241 245.791V239.821H225.041V245.231C225.041 245.737 225.088 246.227 225.181 246.701C225.274 247.174 225.431 247.601 225.651 247.981C225.878 248.361 226.178 248.661 226.551 248.881C226.931 249.101 227.404 249.211 227.971 249.211C228.418 249.211 228.824 249.134 229.191 248.981C229.558 248.827 229.871 248.601 230.131 248.301C230.391 247.994 230.591 247.607 230.731 247.141C230.871 246.674 230.941 246.131 230.941 245.511L232.111 245.871C232.111 246.911 231.921 247.807 231.541 248.561C231.168 249.314 230.638 249.894 229.951 250.301C229.271 250.701 228.468 250.901 227.541 250.901ZM231.141 250.621V247.731H230.941V239.821H232.731V250.621H231.141ZM248.441 250.621L248.451 243.711C248.451 242.904 248.234 242.274 247.801 241.821C247.374 241.361 246.818 241.131 246.131 241.131C245.731 241.131 245.351 241.224 244.991 241.411C244.631 241.591 244.338 241.877 244.111 242.271C243.884 242.657 243.771 243.154 243.771 243.761L242.831 243.381C242.818 242.614 242.974 241.944 243.301 241.371C243.634 240.791 244.088 240.341 244.661 240.021C245.234 239.701 245.881 239.541 246.601 239.541C247.728 239.541 248.614 239.884 249.261 240.571C249.908 241.251 250.231 242.167 250.231 243.321L250.221 250.621H248.441ZM235.521 250.621V239.821H237.111V242.711H237.311V250.621H235.521ZM241.991 250.621L242.001 243.781C242.001 242.954 241.788 242.307 241.361 241.841C240.934 241.367 240.368 241.131 239.661 241.131C238.961 241.131 238.394 241.371 237.961 241.851C237.528 242.331 237.311 242.967 237.311 243.761L236.371 243.201C236.371 242.501 236.538 241.874 236.871 241.321C237.204 240.767 237.658 240.334 238.231 240.021C238.804 239.701 239.454 239.541 240.181 239.541C240.908 239.541 241.541 239.694 242.081 240.001C242.621 240.307 243.038 240.747 243.331 241.321C243.624 241.887 243.771 242.564 243.771 243.351L243.761 250.621H241.991Z" fill="#232836"></path>
  <path d="M119.865 134.755C99.2528 114.336 99.1156 81.0904 119.518 60.478C139.937 39.8656 173.183 39.7284 193.796 60.1311C193.917 60.236 194.021 60.357 194.143 60.478C214.755 80.8968 214.892 114.143 194.489 134.755C174.071 155.368 140.825 155.505 120.212 135.102C120.091 134.997 119.986 134.876 119.865 134.755Z" fill="#F8F9F9"></path>
  <path d="M156.822 48.1591C169.9 48.1591 182.227 53.2255 191.521 62.4305C191.561 62.4708 191.601 62.5031 191.642 62.5434L191.682 62.5838C191.738 62.6483 191.795 62.7048 191.867 62.7774C211.165 81.8973 211.31 113.175 192.19 132.489C182.864 141.903 170.432 147.083 157.177 147.083C143.922 147.083 131.773 142.016 122.479 132.811C122.439 132.771 122.398 132.739 122.358 132.698L122.318 132.658C122.261 132.601 122.205 132.537 122.132 132.472C102.835 113.344 102.69 82.0668 121.809 62.7532C131.135 53.3384 143.567 48.1591 156.822 48.1591ZM156.822 44.9321C143.301 44.9321 129.788 50.1195 119.518 60.4862C99.1156 81.0987 99.2528 114.337 119.865 134.764C119.986 134.885 120.091 135.006 120.212 135.11C130.458 145.251 143.826 150.318 157.185 150.318C170.545 150.318 184.219 145.13 194.489 134.764C214.892 114.151 214.755 80.9131 194.143 60.4862C194.021 60.3652 193.917 60.2442 193.796 60.1393C183.55 49.9985 170.182 44.9321 156.822 44.9321Z" fill="#15162E"></path>
  <path d="M125.435 129.186C107.933 111.834 107.8 83.5766 125.151 66.0833C142.502 48.5811 170.76 48.4477 188.253 65.7989C188.351 65.8966 188.44 65.9855 188.538 66.0833C206.04 83.4344 206.173 111.692 188.822 129.186C171.471 146.688 143.213 146.821 125.72 129.47C125.622 129.372 125.533 129.283 125.435 129.186Z" fill="#F8F9F9"></path>
  <path d="M156.857 52.8653V56.4209C167.754 56.4209 178.012 60.6431 185.746 68.3053L185.781 68.3409L186.039 68.5987C202.119 84.5453 202.243 110.599 186.297 126.679C178.528 134.519 168.163 138.839 157.123 138.839C146.083 138.839 135.959 134.616 128.217 126.936L128.021 126.741L127.932 126.652C111.852 110.705 111.728 84.652 127.666 68.572C135.434 60.732 145.799 56.412 156.839 56.412V52.8564M156.839 52.8564C145.354 52.8564 133.861 57.2653 125.141 66.0653C107.79 83.5676 107.923 111.825 125.426 129.168C125.523 129.265 125.612 129.354 125.71 129.452C134.412 138.074 145.763 142.376 157.114 142.376C168.466 142.376 180.092 137.968 188.812 129.168C206.163 111.665 206.03 83.4076 188.528 66.0653C188.43 65.9676 188.341 65.8787 188.243 65.7809C179.541 57.1587 168.19 52.8564 156.839 52.8564Z" fill="#15162E"></path>
  <path d="M171.347 99.3184C169.658 97.4251 166.911 95.9317 163.089 94.8295L155.151 92.5362C153.044 91.9317 151.516 91.194 150.529 90.3229C149.56 89.4695 149.071 88.4295 149.071 87.2384C149.071 86.1629 149.409 85.1762 150.111 84.3051C150.813 83.434 151.738 82.7673 152.929 82.2784C154.12 81.7895 155.444 81.5584 156.947 81.594C158.502 81.6295 159.898 81.9495 161.169 82.5806C162.44 83.1851 163.48 84.0562 164.333 85.1584C165.169 86.2606 165.738 87.5406 166.022 88.9806L173.596 87.594C172.973 84.8651 171.889 82.554 170.396 80.6429C168.902 78.7318 167.009 77.274 164.751 76.2517C163.578 75.7184 162.307 75.3273 160.964 75.0784V69.4873H153.578V74.9451C151.889 75.194 150.342 75.6117 148.956 76.2517C146.662 77.3095 144.884 78.8117 143.631 80.7584C142.378 82.7051 141.738 84.9984 141.738 87.6118C141.738 93.2206 144.84 96.9718 151.036 98.9006L161.676 102.216C163.4 102.75 164.627 103.407 165.427 104.225C166.2 105.043 166.6 106.083 166.6 107.372C166.6 109.212 165.782 110.723 164.156 111.914C162.529 113.105 160.44 113.71 157.907 113.71C155.373 113.71 153 112.972 151.107 111.496C149.213 110.021 147.978 108.012 147.418 105.496L140.129 106.67C140.564 109.532 141.551 112.012 143.124 114.092C144.698 116.172 146.707 117.781 149.151 118.936C150.538 119.576 152.031 120.038 153.622 120.296V125.825H161.009V120.367C162.849 120.101 164.573 119.63 166.102 118.91C168.582 117.754 170.493 116.145 171.862 114.083C173.222 112.021 173.907 109.612 173.907 106.883C173.907 103.754 173.053 101.238 171.364 99.3629L171.347 99.3095V99.3184Z" fill="#4396F9"></path>
  <path d="M161.008 127.612H153.621C152.644 127.612 151.844 126.812 151.844 125.834V121.754C150.635 121.461 149.488 121.061 148.404 120.554C145.692 119.274 143.444 117.461 141.71 115.167C139.986 112.874 138.866 110.109 138.377 106.945C138.226 105.976 138.892 105.078 139.852 104.918L147.141 103.745C148.075 103.594 148.955 104.189 149.159 105.105C149.639 107.238 150.635 108.874 152.208 110.101C153.755 111.301 155.728 111.941 157.915 111.941C160.101 111.941 161.799 111.452 163.115 110.483C164.288 109.629 164.83 108.634 164.83 107.372C164.83 106.554 164.617 105.941 164.146 105.452C163.577 104.874 162.572 104.349 161.159 103.914L150.51 100.598C141.79 97.8784 139.959 92.0384 139.959 87.6117C139.959 84.6784 140.688 82.0473 142.137 79.7984C143.559 77.5761 145.604 75.8428 148.208 74.6339C149.292 74.1273 150.475 73.7361 151.799 73.4517V69.4873C151.799 68.5095 152.599 67.7095 153.577 67.7095H160.964C161.941 67.7095 162.741 68.5095 162.741 69.4873V73.6561C163.684 73.9139 164.608 74.2339 165.479 74.6339C168.012 75.7806 170.137 77.4428 171.79 79.5495C173.461 81.6828 174.652 84.2606 175.328 87.2028C175.435 87.6739 175.346 88.1717 175.079 88.5806C174.812 88.9895 174.395 89.265 173.915 89.3539L166.341 90.7317C165.381 90.9095 164.466 90.2784 164.279 89.3272C164.048 88.1539 163.595 87.1139 162.919 86.2339C162.217 85.3361 161.399 84.6606 160.404 84.1895C159.355 83.6739 158.217 83.4073 156.901 83.3806C155.657 83.3628 154.581 83.5317 153.612 83.9317C152.697 84.3139 152.004 84.8028 151.497 85.425C151.061 85.9673 150.848 86.5628 150.848 87.2473C150.848 87.9317 151.124 88.4828 151.701 88.9984C152.484 89.6917 153.808 90.3139 155.639 90.8384L163.577 93.1317C167.764 94.3317 170.732 95.9761 172.67 98.145C172.732 98.2161 172.795 98.2961 172.848 98.385C174.724 100.572 175.675 103.434 175.675 106.901C175.675 109.976 174.884 112.723 173.337 115.078C171.79 117.416 169.612 119.256 166.848 120.536C165.63 121.105 164.261 121.558 162.777 121.869V125.834C162.777 126.812 161.977 127.612 160.999 127.612H161.008ZM155.399 124.056H159.23V120.376C159.23 119.496 159.879 118.741 160.75 118.616C162.484 118.367 164.03 117.923 165.346 117.309C167.541 116.287 169.186 114.918 170.377 113.105C171.541 111.345 172.128 109.256 172.128 106.892C172.128 104.225 171.426 102.101 170.048 100.563C169.986 100.492 169.932 100.421 169.879 100.341C168.412 98.785 165.959 97.4961 162.599 96.5361L154.661 94.2428C152.288 93.5584 150.555 92.7139 149.355 91.6473C148.012 90.465 147.301 88.9361 147.301 87.2295C147.301 85.7273 147.781 84.3673 148.732 83.1761C149.621 82.065 150.777 81.2295 152.261 80.625C153.692 80.0295 155.239 79.7628 156.999 79.8073C158.812 79.8517 160.484 80.2428 161.968 80.9717C163.426 81.665 164.706 82.705 165.746 84.0473C166.412 84.9273 166.928 85.8873 167.301 86.9273L171.364 86.1895C170.795 84.5095 170.004 83.0161 168.999 81.7361C167.701 80.0828 166.03 78.7761 164.021 77.8695C162.964 77.3895 161.826 77.0428 160.652 76.8295C159.808 76.6784 159.195 75.9406 159.195 75.0784V71.265H155.364V74.945C155.364 75.825 154.715 76.5717 153.844 76.705C152.235 76.9361 150.884 77.3184 149.719 77.8606C147.701 78.7939 146.208 80.0561 145.141 81.7184C144.075 83.3895 143.532 85.3717 143.532 87.6117C143.532 92.4384 146.092 95.4873 151.586 97.2028L162.226 100.518C164.235 101.132 165.701 101.941 166.715 102.981C167.835 104.154 168.395 105.629 168.395 107.363C168.395 109.754 167.301 111.825 165.221 113.345C163.284 114.767 160.821 115.487 157.924 115.487C155.026 115.487 152.208 114.589 150.03 112.892C148.235 111.496 146.937 109.683 146.164 107.487L142.252 108.118C142.732 109.976 143.506 111.612 144.555 113.007C145.959 114.865 147.71 116.278 149.915 117.318C151.132 117.887 152.484 118.296 153.915 118.536C154.768 118.678 155.399 119.425 155.399 120.287V124.038V124.056Z" fill="#15162E"></path>
</svg>
