<?xml version="1.0" encoding="UTF-8"?>
<svg xmlns="http://www.w3.org/2000/svg" width="65" height="65" viewBox="0 0 65 65" fill="none">
  <path d="M46.2576 54.4185H18.529C17.339 54.4185 16.3719 53.4514 16.3719 52.2615V12.4487H12.7974C11.4937 12.4487 10.4365 13.5059 10.4365 14.8096V57.0449C10.4365 58.3486 11.4937 59.4058 12.7974 59.4058H43.8919C45.1956 59.4058 46.2528 58.3486 46.2528 57.0449V54.4185H46.2576Z" fill="#FCC018"></path>
  <path d="M43.8917 60.3587H12.7972C10.9673 60.3587 9.4834 58.8701 9.4834 57.0449V14.8096C9.4834 12.9797 10.972 11.4958 12.7972 11.4958H16.3717C16.8979 11.4958 17.3246 11.9225 17.3246 12.4487V52.2615C17.3246 52.9252 17.865 53.4656 18.5287 53.4656H46.2573C46.7835 53.4656 47.2102 53.8923 47.2102 54.4185V57.0449C47.2102 58.8748 45.7216 60.3587 43.8964 60.3587H43.8917ZM12.7972 13.4016C12.0197 13.4016 11.3892 14.0321 11.3892 14.8096V57.0449C11.3892 57.8224 12.0197 58.4529 12.7972 58.4529H43.8917C44.6692 58.4529 45.2997 57.8224 45.2997 57.0449V55.3714H18.524C16.8078 55.3714 15.4141 53.9776 15.4141 52.2615V13.4016H12.7924H12.7972Z" fill="#15162E"></path>
  <path d="M50.0359 50.6354H22.3073C21.1174 50.6354 20.1503 49.6683 20.1503 48.4784V9.61377H16.5757C15.272 9.61377 14.2148 10.671 14.2148 11.9747V54.2099C14.2148 55.5136 15.272 56.5708 16.5757 56.5708H47.6703C48.974 56.5708 50.0311 55.5136 50.0311 54.2099V50.6354H50.0359Z" fill="#FCC018"></path>
  <path d="M17.9932 9.61377H16.5757C15.272 9.61377 14.2148 10.671 14.2148 11.9747V54.2099C14.2148 55.5136 15.272 56.5708 16.5757 56.5708H47.6703C48.974 56.5708 50.0311 55.5136 50.0311 54.2099V52.7924" fill="#FCC018"></path>
  <path d="M47.6748 57.5237H16.5755C14.7456 57.5237 13.2617 56.0351 13.2617 54.2099V11.9747C13.2617 10.1447 14.7503 8.66089 16.5755 8.66089H17.993C18.5192 8.66089 18.9459 9.08756 18.9459 9.61378C18.9459 10.14 18.5192 10.5667 17.993 10.5667H16.5755C15.798 10.5667 15.1675 11.1972 15.1675 11.9747V54.2099C15.1675 54.9874 15.798 55.6179 16.5755 55.6179H47.67C48.4475 55.6179 49.078 54.9874 49.078 54.2099V52.7924C49.078 52.2662 49.5047 51.8396 50.0309 51.8396C50.5571 51.8396 50.9838 52.2662 50.9838 52.7924V54.2099C50.9838 56.0399 49.4952 57.5237 47.67 57.5237H47.6748Z" fill="#15162E"></path>
  <path d="M43.8966 60.3541H12.7973C10.9721 60.3541 9.48828 58.8702 9.48828 57.045V14.8098C9.48828 12.9846 10.9721 11.5007 12.7973 11.5007H14.2148C14.7363 11.5007 15.1629 11.9274 15.1629 12.4489C15.1629 12.9704 14.7363 13.397 14.2148 13.397H12.7973C12.0151 13.397 11.3846 14.0323 11.3846 14.8098V57.045C11.3846 57.8225 12.0198 58.4578 12.7973 58.4578H43.8918C44.6693 58.4578 45.3046 57.8225 45.3046 57.045V56.571C45.3046 56.0495 45.7312 55.6228 46.2527 55.6228C46.7742 55.6228 47.2009 56.0495 47.2009 56.571V57.045C47.2009 58.8702 45.717 60.3541 43.8918 60.3541H43.8966Z" fill="#15162E"></path>
  <path d="M17.9922 8.19634C17.9922 6.89263 19.0494 5.83545 20.3531 5.83545H44.2417L53.8132 15.407V50.4363C53.8132 51.74 52.756 52.7972 51.4523 52.7972H20.3578C19.0541 52.7972 17.9969 51.74 17.9969 50.4363V8.19634H17.9922Z" fill="#F8F9F9"></path>
  <path d="M51.4528 53.826H20.3582C18.4856 53.826 16.9639 52.3042 16.9639 50.4316V8.19637C16.9639 6.32378 18.4856 4.802 20.3582 4.802H44.2468C44.5218 4.802 44.7825 4.91104 44.9769 5.10541L54.5485 14.677C54.7428 14.8713 54.8519 15.1321 54.8519 15.407V50.4364C54.8519 52.309 53.3301 53.8307 51.4575 53.8307L51.4528 53.826ZM20.3582 6.86422C19.6234 6.86422 19.0308 7.46156 19.0308 8.19163V50.4269C19.0308 51.1617 19.6282 51.7543 20.3582 51.7543H51.4528C52.1876 51.7543 52.7802 51.157 52.7802 50.4269V15.829L43.8154 6.86422H20.3535H20.3582Z" fill="#15162E"></path>
  <path d="M46.6932 24.2674H25.1181C24.5966 24.2674 24.1699 23.8407 24.1699 23.3192C24.1699 22.7978 24.5966 22.3711 25.1181 22.3711H46.6932C47.2147 22.3711 47.6413 22.7978 47.6413 23.3192C47.6413 23.8407 47.2147 24.2674 46.6932 24.2674Z" fill="#15162E"></path>
  <path d="M46.6932 30.2598H25.1181C24.5966 30.2598 24.1699 29.8332 24.1699 29.3117C24.1699 28.7902 24.5966 28.3635 25.1181 28.3635H46.6932C47.2147 28.3635 47.6413 28.7902 47.6413 29.3117C47.6413 29.8332 47.2147 30.2598 46.6932 30.2598Z" fill="#15162E"></path>
  <path d="M46.6932 36.252H25.1181C24.5966 36.252 24.1699 35.8253 24.1699 35.3039C24.1699 34.7824 24.5966 34.3557 25.1181 34.3557H46.6932C47.2147 34.3557 47.6413 34.7824 47.6413 35.3039C47.6413 35.8253 47.2147 36.252 46.6932 36.252Z" fill="#15162E"></path>
  <path d="M53.8138 16.3505H46.6079C44.7827 16.3505 43.2988 14.8667 43.2988 13.0415V5.83554C43.2988 5.45154 43.5311 5.10547 43.8819 4.9585C44.2375 4.81154 44.6452 4.89213 44.9154 5.16236L54.487 14.7339C54.7572 15.0041 54.8378 15.4118 54.6908 15.7674C54.5439 16.1229 54.1978 16.3505 53.8138 16.3505ZM45.1904 8.12058V13.0415C45.1904 13.8189 45.8256 14.4542 46.6031 14.4542H51.524L45.1904 8.12058Z" fill="#15162E"></path>
</svg>
