<?xml version="1.0" encoding="UTF-8"?>
<svg xmlns="http://www.w3.org/2000/svg" width="313" height="286" viewBox="0 0 313 286" fill="none">
  <rect x="1.21094" y="1" width="310.588" height="283.843" rx="49" fill="#E0E9FB" stroke="#121212" stroke-width="2"></rect>
  <path d="M49.6172 216.381V212.181L61.9372 201.201C62.8972 200.348 63.5639 199.541 63.9372 198.781C64.3105 198.021 64.4972 197.288 64.4972 196.581C64.4972 195.621 64.2905 194.768 63.8772 194.021C63.4639 193.261 62.8905 192.661 62.1572 192.221C61.4372 191.781 60.6039 191.561 59.6572 191.561C58.6572 191.561 57.7705 191.795 56.9972 192.261C56.2372 192.715 55.6439 193.321 55.2172 194.081C54.7905 194.841 54.5905 195.661 54.6172 196.541H49.6572C49.6572 194.621 50.0839 192.948 50.9372 191.521C51.8039 190.095 52.9905 188.988 54.4972 188.201C56.0172 187.415 57.7705 187.021 59.7572 187.021C61.5972 187.021 63.2505 187.435 64.7172 188.261C66.1839 189.075 67.3372 190.208 68.1772 191.661C69.0172 193.101 69.4372 194.761 69.4372 196.641C69.4372 198.015 69.2505 199.168 68.8772 200.101C68.5039 201.035 67.9439 201.895 67.1972 202.681C66.4639 203.468 65.5505 204.341 64.4572 205.301L55.7172 213.041L55.2772 211.841H69.4372V216.381H49.6172ZM90.7931 217.021C89.3265 217.021 87.9598 216.721 86.6931 216.121C85.4265 215.508 84.3331 214.668 83.4131 213.601C82.5065 212.535 81.8531 211.295 81.4531 209.881L86.0931 208.641C86.2798 209.415 86.6198 210.081 87.1131 210.641C87.6198 211.201 88.2065 211.635 88.8731 211.941C89.5531 212.248 90.2531 212.401 90.9731 212.401C91.9065 212.401 92.7598 212.175 93.5331 211.721C94.3065 211.268 94.9198 210.661 95.3731 209.901C95.8265 209.128 96.0531 208.275 96.0531 207.341C96.0531 206.408 95.8198 205.561 95.3531 204.801C94.8998 204.028 94.2865 203.421 93.5131 202.981C92.7398 202.528 91.8931 202.301 90.9731 202.301C89.8665 202.301 88.9465 202.501 88.2131 202.901C87.4931 203.301 86.9398 203.728 86.5531 204.181L82.4331 202.861L83.3131 187.621H98.9531V192.141H85.8931L87.6931 190.441L87.0531 201.041L86.1731 199.961C86.9198 199.281 87.7865 198.775 88.7731 198.441C89.7598 198.108 90.7131 197.941 91.6331 197.941C93.4331 197.941 95.0265 198.355 96.4131 199.181C97.8131 199.995 98.9065 201.108 99.6931 202.521C100.493 203.935 100.893 205.541 100.893 207.341C100.893 209.141 100.426 210.775 99.4931 212.241C98.5598 213.695 97.3265 214.855 95.7931 215.721C94.2731 216.588 92.6065 217.021 90.7931 217.021ZM116.051 217.021C114.011 217.021 112.211 216.588 110.651 215.721C109.091 214.841 107.871 213.621 106.991 212.061C106.124 210.501 105.691 208.701 105.691 206.661V197.381C105.691 195.341 106.124 193.541 106.991 191.981C107.871 190.421 109.091 189.208 110.651 188.341C112.211 187.461 114.011 187.021 116.051 187.021C118.091 187.021 119.884 187.461 121.431 188.341C122.991 189.208 124.211 190.421 125.091 191.981C125.971 193.541 126.411 195.341 126.411 197.381V206.661C126.411 208.701 125.971 210.501 125.091 212.061C124.211 213.621 122.991 214.841 121.431 215.721C119.884 216.588 118.091 217.021 116.051 217.021ZM116.051 212.441C117.064 212.441 117.984 212.201 118.811 211.721C119.637 211.228 120.291 210.575 120.771 209.761C121.251 208.935 121.491 208.015 121.491 207.001V197.021C121.491 195.995 121.251 195.075 120.771 194.261C120.291 193.435 119.637 192.781 118.811 192.301C117.984 191.808 117.064 191.561 116.051 191.561C115.037 191.561 114.117 191.808 113.291 192.301C112.464 192.781 111.811 193.435 111.331 194.261C110.851 195.075 110.611 195.995 110.611 197.021V207.001C110.611 208.015 110.851 208.935 111.331 209.761C111.811 210.575 112.464 211.228 113.291 211.721C114.117 212.201 115.037 212.441 116.051 212.441ZM142.379 217.021C140.339 217.021 138.539 216.588 136.979 215.721C135.419 214.841 134.199 213.621 133.319 212.061C132.452 210.501 132.019 208.701 132.019 206.661V197.381C132.019 195.341 132.452 193.541 133.319 191.981C134.199 190.421 135.419 189.208 136.979 188.341C138.539 187.461 140.339 187.021 142.379 187.021C144.419 187.021 146.212 187.461 147.759 188.341C149.319 189.208 150.539 190.421 151.419 191.981C152.299 193.541 152.739 195.341 152.739 197.381V206.661C152.739 208.701 152.299 210.501 151.419 212.061C150.539 213.621 149.319 214.841 147.759 215.721C146.212 216.588 144.419 217.021 142.379 217.021ZM142.379 212.441C143.392 212.441 144.312 212.201 145.139 211.721C145.965 211.228 146.619 210.575 147.099 209.761C147.579 208.935 147.819 208.015 147.819 207.001V197.021C147.819 195.995 147.579 195.075 147.099 194.261C146.619 193.435 145.965 192.781 145.139 192.301C144.312 191.808 143.392 191.561 142.379 191.561C141.365 191.561 140.445 191.808 139.619 192.301C138.792 192.781 138.139 193.435 137.659 194.261C137.179 195.075 136.939 195.995 136.939 197.021V207.001C136.939 208.015 137.179 208.935 137.659 209.761C138.139 210.575 138.792 211.228 139.619 211.721C140.445 212.201 141.365 212.441 142.379 212.441ZM176.715 217.021C174.675 217.021 172.875 216.588 171.315 215.721C169.755 214.841 168.535 213.621 167.655 212.061C166.788 210.501 166.355 208.701 166.355 206.661V197.381C166.355 195.341 166.788 193.541 167.655 191.981C168.535 190.421 169.755 189.208 171.315 188.341C172.875 187.461 174.675 187.021 176.715 187.021C178.755 187.021 180.548 187.461 182.095 188.341C183.655 189.208 184.875 190.421 185.755 191.981C186.635 193.541 187.075 195.341 187.075 197.381V206.661C187.075 208.701 186.635 210.501 185.755 212.061C184.875 213.621 183.655 214.841 182.095 215.721C180.548 216.588 178.755 217.021 176.715 217.021ZM176.715 212.441C177.728 212.441 178.648 212.201 179.475 211.721C180.301 211.228 180.955 210.575 181.435 209.761C181.915 208.935 182.155 208.015 182.155 207.001V197.021C182.155 195.995 181.915 195.075 181.435 194.261C180.955 193.435 180.301 192.781 179.475 192.301C178.648 191.808 177.728 191.561 176.715 191.561C175.701 191.561 174.781 191.808 173.955 192.301C173.128 192.781 172.475 193.435 171.995 194.261C171.515 195.075 171.275 195.995 171.275 197.021V207.001C171.275 208.015 171.515 208.935 171.995 209.761C172.475 210.575 173.128 211.228 173.955 211.721C174.781 212.201 175.701 212.441 176.715 212.441ZM203.043 217.021C201.003 217.021 199.203 216.588 197.643 215.721C196.083 214.841 194.863 213.621 193.983 212.061C193.116 210.501 192.683 208.701 192.683 206.661V197.381C192.683 195.341 193.116 193.541 193.983 191.981C194.863 190.421 196.083 189.208 197.643 188.341C199.203 187.461 201.003 187.021 203.043 187.021C205.083 187.021 206.876 187.461 208.423 188.341C209.983 189.208 211.203 190.421 212.083 191.981C212.963 193.541 213.403 195.341 213.403 197.381V206.661C213.403 208.701 212.963 210.501 212.083 212.061C211.203 213.621 209.983 214.841 208.423 215.721C206.876 216.588 205.083 217.021 203.043 217.021ZM203.043 212.441C204.056 212.441 204.976 212.201 205.803 211.721C206.629 211.228 207.283 210.575 207.763 209.761C208.243 208.935 208.483 208.015 208.483 207.001V197.021C208.483 195.995 208.243 195.075 207.763 194.261C207.283 193.435 206.629 192.781 205.803 192.301C204.976 191.808 204.056 191.561 203.043 191.561C202.029 191.561 201.109 191.808 200.283 192.301C199.456 192.781 198.803 193.435 198.323 194.261C197.843 195.075 197.603 195.995 197.603 197.021V207.001C197.603 208.015 197.843 208.935 198.323 209.761C198.803 210.575 199.456 211.228 200.283 211.721C201.109 212.201 202.029 212.441 203.043 212.441ZM229.371 217.021C227.331 217.021 225.531 216.588 223.971 215.721C222.411 214.841 221.191 213.621 220.311 212.061C219.444 210.501 219.011 208.701 219.011 206.661V197.381C219.011 195.341 219.444 193.541 220.311 191.981C221.191 190.421 222.411 189.208 223.971 188.341C225.531 187.461 227.331 187.021 229.371 187.021C231.411 187.021 233.204 187.461 234.751 188.341C236.311 189.208 237.531 190.421 238.411 191.981C239.291 193.541 239.731 195.341 239.731 197.381V206.661C239.731 208.701 239.291 210.501 238.411 212.061C237.531 213.621 236.311 214.841 234.751 215.721C233.204 216.588 231.411 217.021 229.371 217.021ZM229.371 212.441C230.384 212.441 231.304 212.201 232.131 211.721C232.958 211.228 233.611 210.575 234.091 209.761C234.571 208.935 234.811 208.015 234.811 207.001V197.021C234.811 195.995 234.571 195.075 234.091 194.261C233.611 193.435 232.958 192.781 232.131 192.301C231.304 191.808 230.384 191.561 229.371 191.561C228.358 191.561 227.438 191.808 226.611 192.301C225.784 192.781 225.131 193.435 224.651 194.261C224.171 195.075 223.931 195.995 223.931 197.021V207.001C223.931 208.015 224.171 208.935 224.651 209.761C225.131 210.575 225.784 211.228 226.611 211.721C227.438 212.201 228.358 212.441 229.371 212.441ZM252.099 211.061V203.901H244.939V200.121H252.099V192.981H255.879V200.121H262.999V203.901H255.879V211.061H252.099Z" fill="#232836"></path>
  <path d="M70.2265 250.3C69.1132 250.3 68.1298 250.07 67.2765 249.61C66.4232 249.15 65.7532 248.507 65.2665 247.68C64.7865 246.847 64.5465 245.87 64.5465 244.75V235.61L66.3465 235.6V244.6C66.3465 245.28 66.4598 245.873 66.6865 246.38C66.9198 246.88 67.2265 247.297 67.6065 247.63C67.9865 247.963 68.4032 248.213 68.8565 248.38C69.3165 248.54 69.7732 248.62 70.2265 248.62C70.6865 248.62 71.1465 248.537 71.6065 248.37C72.0665 248.203 72.4832 247.957 72.8565 247.63C73.2365 247.297 73.5398 246.877 73.7665 246.37C73.9932 245.863 74.1065 245.273 74.1065 244.6V235.6H75.9065V244.75C75.9065 245.863 75.6632 246.837 75.1765 247.67C74.6965 248.503 74.0298 249.15 73.1765 249.61C72.3232 250.07 71.3398 250.3 70.2265 250.3ZM82.7866 250.29C81.5 250.29 80.4433 250.01 79.6166 249.45C78.7966 248.883 78.2933 248.093 78.1066 247.08L79.9266 246.79C80.0733 247.377 80.41 247.843 80.9366 248.19C81.4633 248.53 82.1166 248.7 82.8966 248.7C83.6366 248.7 84.2166 248.547 84.6366 248.24C85.0566 247.933 85.2666 247.517 85.2666 246.99C85.2666 246.683 85.1966 246.437 85.0566 246.25C84.9166 246.057 84.6266 245.877 84.1866 245.71C83.7533 245.543 83.0966 245.343 82.2166 245.11C81.2633 244.857 80.5133 244.593 79.9666 244.32C79.42 244.047 79.03 243.73 78.7966 243.37C78.5633 243.01 78.4466 242.573 78.4466 242.06C78.4466 241.427 78.62 240.873 78.9666 240.4C79.3133 239.92 79.7966 239.55 80.4166 239.29C81.0433 239.03 81.77 238.9 82.5966 238.9C83.4166 238.9 84.15 239.03 84.7966 239.29C85.4433 239.55 85.9633 239.92 86.3566 240.4C86.7566 240.873 86.9933 241.427 87.0666 242.06L85.2466 242.39C85.16 241.81 84.88 241.353 84.4066 241.02C83.94 240.687 83.3366 240.51 82.5966 240.49C81.8966 240.463 81.3266 240.587 80.8866 240.86C80.4533 241.133 80.2366 241.503 80.2366 241.97C80.2366 242.23 80.3166 242.453 80.4766 242.64C80.6433 242.827 80.9466 243.003 81.3866 243.17C81.8333 243.337 82.48 243.527 83.3266 243.74C84.28 243.98 85.03 244.243 85.5766 244.53C86.13 244.81 86.5233 245.143 86.7566 245.53C86.99 245.91 87.1066 246.38 87.1066 246.94C87.1066 247.98 86.7233 248.8 85.9566 249.4C85.19 249.993 84.1333 250.29 82.7866 250.29ZM93.9921 250.3C92.9321 250.3 92.0054 250.067 91.2121 249.6C90.4254 249.127 89.8121 248.47 89.3721 247.63C88.9321 246.783 88.7121 245.797 88.7121 244.67C88.7121 243.49 88.9288 242.47 89.3621 241.61C89.7954 240.743 90.3988 240.077 91.1721 239.61C91.9521 239.137 92.8654 238.9 93.9121 238.9C94.9988 238.9 95.9221 239.15 96.6821 239.65C97.4488 240.15 98.0221 240.863 98.4021 241.79C98.7888 242.717 98.9554 243.82 98.9021 245.1H97.1021V244.46C97.0821 243.133 96.8121 242.143 96.2921 241.49C95.7721 240.83 94.9988 240.5 93.9721 240.5C92.8721 240.5 92.0354 240.853 91.4621 241.56C90.8888 242.267 90.6021 243.28 90.6021 244.6C90.6021 245.873 90.8888 246.86 91.4621 247.56C92.0354 248.26 92.8521 248.61 93.9121 248.61C94.6254 248.61 95.2454 248.447 95.7721 248.12C96.2988 247.793 96.7121 247.323 97.0121 246.71L98.7221 247.3C98.3021 248.253 97.6688 248.993 96.8221 249.52C95.9821 250.04 95.0388 250.3 93.9921 250.3ZM90.0021 245.1V243.67H97.9821V245.1H90.0021ZM101.129 250V239.2H102.719V241.81L102.459 241.47C102.585 241.137 102.749 240.83 102.949 240.55C103.155 240.27 103.385 240.04 103.639 239.86C103.919 239.633 104.235 239.46 104.589 239.34C104.942 239.22 105.302 239.15 105.669 239.13C106.035 239.103 106.379 239.127 106.699 239.2V240.87C106.325 240.77 105.915 240.743 105.469 240.79C105.022 240.837 104.609 241 104.229 241.28C103.882 241.527 103.612 241.827 103.419 242.18C103.232 242.533 103.102 242.917 103.029 243.33C102.955 243.737 102.919 244.153 102.919 244.58V250H101.129ZM112.279 250.29C110.992 250.29 109.935 250.01 109.109 249.45C108.289 248.883 107.785 248.093 107.599 247.08L109.419 246.79C109.565 247.377 109.902 247.843 110.429 248.19C110.955 248.53 111.609 248.7 112.389 248.7C113.129 248.7 113.709 248.547 114.129 248.24C114.549 247.933 114.759 247.517 114.759 246.99C114.759 246.683 114.689 246.437 114.549 246.25C114.409 246.057 114.119 245.877 113.679 245.71C113.245 245.543 112.589 245.343 111.709 245.11C110.755 244.857 110.005 244.593 109.459 244.32C108.912 244.047 108.522 243.73 108.289 243.37C108.055 243.01 107.939 242.573 107.939 242.06C107.939 241.427 108.112 240.873 108.459 240.4C108.805 239.92 109.289 239.55 109.909 239.29C110.535 239.03 111.262 238.9 112.089 238.9C112.909 238.9 113.642 239.03 114.289 239.29C114.935 239.55 115.455 239.92 115.849 240.4C116.249 240.873 116.485 241.427 116.559 242.06L114.739 242.39C114.652 241.81 114.372 241.353 113.899 241.02C113.432 240.687 112.829 240.51 112.089 240.49C111.389 240.463 110.819 240.587 110.379 240.86C109.945 241.133 109.729 241.503 109.729 241.97C109.729 242.23 109.809 242.453 109.969 242.64C110.135 242.827 110.439 243.003 110.879 243.17C111.325 243.337 111.972 243.527 112.819 243.74C113.772 243.98 114.522 244.243 115.069 244.53C115.622 244.81 116.015 245.143 116.249 245.53C116.482 245.91 116.599 246.38 116.599 246.94C116.599 247.98 116.215 248.8 115.449 249.4C114.682 249.993 113.625 250.29 112.279 250.29ZM127.408 250.3C126.335 250.3 125.408 250.057 124.628 249.57C123.855 249.083 123.258 248.41 122.838 247.55C122.418 246.69 122.208 245.703 122.208 244.59C122.208 243.457 122.422 242.463 122.848 241.61C123.275 240.757 123.878 240.093 124.658 239.62C125.438 239.14 126.355 238.9 127.408 238.9C128.488 238.9 129.418 239.143 130.198 239.63C130.978 240.11 131.575 240.78 131.988 241.64C132.408 242.493 132.618 243.477 132.618 244.59C132.618 245.717 132.408 246.71 131.988 247.57C131.568 248.423 130.968 249.093 130.188 249.58C129.408 250.06 128.482 250.3 127.408 250.3ZM127.408 248.61C128.528 248.61 129.362 248.237 129.908 247.49C130.455 246.743 130.728 245.777 130.728 244.59C130.728 243.37 130.452 242.4 129.898 241.68C129.345 240.953 128.515 240.59 127.408 240.59C126.655 240.59 126.035 240.76 125.548 241.1C125.062 241.44 124.698 241.91 124.458 242.51C124.218 243.11 124.098 243.803 124.098 244.59C124.098 245.803 124.378 246.777 124.938 247.51C125.498 248.243 126.322 248.61 127.408 248.61ZM142.51 250V244.59C142.51 244.077 142.463 243.583 142.37 243.11C142.283 242.637 142.127 242.213 141.9 241.84C141.68 241.46 141.38 241.16 141 240.94C140.627 240.72 140.153 240.61 139.58 240.61C139.133 240.61 138.727 240.687 138.36 240.84C138 240.987 137.69 241.213 137.43 241.52C137.17 241.827 136.967 242.213 136.82 242.68C136.68 243.14 136.61 243.683 136.61 244.31L135.44 243.95C135.44 242.903 135.627 242.007 136 241.26C136.38 240.507 136.91 239.93 137.59 239.53C138.277 239.123 139.083 238.92 140.01 238.92C140.71 238.92 141.307 239.03 141.8 239.25C142.293 239.47 142.703 239.763 143.03 240.13C143.357 240.49 143.613 240.897 143.8 241.35C143.987 241.797 144.117 242.253 144.19 242.72C144.27 243.18 144.31 243.617 144.31 244.03V250H142.51ZM134.81 250V239.2H136.41V242.09H136.61V250H134.81ZM150.914 250V235.6H152.694V241.95H160.274V235.6H162.054V250H160.274V243.64H152.694V250H150.914ZM169.459 250.3C168.386 250.3 167.459 250.057 166.679 249.57C165.906 249.083 165.309 248.41 164.889 247.55C164.469 246.69 164.259 245.703 164.259 244.59C164.259 243.457 164.472 242.463 164.899 241.61C165.326 240.757 165.929 240.093 166.709 239.62C167.489 239.14 168.406 238.9 169.459 238.9C170.539 238.9 171.469 239.143 172.249 239.63C173.029 240.11 173.626 240.78 174.039 241.64C174.459 242.493 174.669 243.477 174.669 244.59C174.669 245.717 174.459 246.71 174.039 247.57C173.619 248.423 173.019 249.093 172.239 249.58C171.459 250.06 170.532 250.3 169.459 250.3ZM169.459 248.61C170.579 248.61 171.412 248.237 171.959 247.49C172.506 246.743 172.779 245.777 172.779 244.59C172.779 243.37 172.502 242.4 171.949 241.68C171.396 240.953 170.566 240.59 169.459 240.59C168.706 240.59 168.086 240.76 167.599 241.1C167.112 241.44 166.749 241.91 166.509 242.51C166.269 243.11 166.149 243.803 166.149 244.59C166.149 245.803 166.429 246.777 166.989 247.51C167.549 248.243 168.372 248.61 169.459 248.61ZM184.561 250V244.59C184.561 244.077 184.514 243.583 184.421 243.11C184.334 242.637 184.177 242.213 183.951 241.84C183.731 241.46 183.431 241.16 183.051 240.94C182.677 240.72 182.204 240.61 181.631 240.61C181.184 240.61 180.777 240.687 180.411 240.84C180.051 240.987 179.741 241.213 179.481 241.52C179.221 241.827 179.017 242.213 178.871 242.68C178.731 243.14 178.661 243.683 178.661 244.31L177.491 243.95C177.491 242.903 177.677 242.007 178.051 241.26C178.431 240.507 178.961 239.93 179.641 239.53C180.327 239.123 181.134 238.92 182.061 238.92C182.761 238.92 183.357 239.03 183.851 239.25C184.344 239.47 184.754 239.763 185.081 240.13C185.407 240.49 185.664 240.897 185.851 241.35C186.037 241.797 186.167 242.253 186.241 242.72C186.321 243.18 186.361 243.617 186.361 244.03V250H184.561ZM176.861 250V239.2H178.461V242.09H178.661V250H176.861ZM193.543 250.3C192.483 250.3 191.556 250.067 190.763 249.6C189.976 249.127 189.363 248.47 188.923 247.63C188.483 246.783 188.263 245.797 188.263 244.67C188.263 243.49 188.48 242.47 188.913 241.61C189.346 240.743 189.95 240.077 190.723 239.61C191.503 239.137 192.416 238.9 193.463 238.9C194.55 238.9 195.473 239.15 196.233 239.65C197 240.15 197.573 240.863 197.953 241.79C198.34 242.717 198.506 243.82 198.453 245.1H196.653V244.46C196.633 243.133 196.363 242.143 195.843 241.49C195.323 240.83 194.55 240.5 193.523 240.5C192.423 240.5 191.586 240.853 191.013 241.56C190.44 242.267 190.153 243.28 190.153 244.6C190.153 245.873 190.44 246.86 191.013 247.56C191.586 248.26 192.403 248.61 193.463 248.61C194.176 248.61 194.796 248.447 195.323 248.12C195.85 247.793 196.263 247.323 196.563 246.71L198.273 247.3C197.853 248.253 197.22 248.993 196.373 249.52C195.533 250.04 194.59 250.3 193.543 250.3ZM189.553 245.1V243.67H197.533V245.1H189.553ZM201.984 254.8L204.074 249.12L204.104 250.8L199.384 239.2H201.254L204.954 248.53H204.314L207.784 239.2H209.594L203.714 254.8H201.984ZM215.323 255.1C214.756 255.1 214.203 255.013 213.663 254.84C213.123 254.667 212.626 254.403 212.173 254.05C211.726 253.703 211.353 253.263 211.053 252.73L212.683 251.87C212.949 252.397 213.326 252.78 213.813 253.02C214.306 253.26 214.813 253.38 215.333 253.38C216.019 253.38 216.589 253.253 217.043 253C217.496 252.753 217.829 252.383 218.043 251.89C218.263 251.397 218.369 250.783 218.363 250.05V247.1H218.573V239.2H220.153V250.07C220.153 250.363 220.143 250.647 220.123 250.92C220.109 251.193 220.076 251.463 220.023 251.73C219.883 252.497 219.606 253.127 219.193 253.62C218.779 254.12 218.246 254.49 217.593 254.73C216.939 254.977 216.183 255.1 215.323 255.1ZM215.193 250.3C214.186 250.3 213.323 250.05 212.603 249.55C211.883 249.043 211.326 248.36 210.933 247.5C210.546 246.64 210.353 245.67 210.353 244.59C210.353 243.51 210.546 242.54 210.933 241.68C211.326 240.82 211.883 240.143 212.603 239.65C213.323 239.15 214.183 238.9 215.183 238.9C216.203 238.9 217.059 239.147 217.753 239.64C218.446 240.133 218.969 240.81 219.323 241.67C219.683 242.53 219.863 243.503 219.863 244.59C219.863 245.663 219.683 246.633 219.323 247.5C218.969 248.36 218.446 249.043 217.753 249.55C217.059 250.05 216.206 250.3 215.193 250.3ZM215.413 248.67C216.139 248.67 216.736 248.497 217.203 248.15C217.669 247.797 218.013 247.313 218.233 246.7C218.459 246.08 218.573 245.377 218.573 244.59C218.573 243.79 218.459 243.087 218.233 242.48C218.013 241.867 217.673 241.39 217.213 241.05C216.753 240.703 216.169 240.53 215.463 240.53C214.729 240.53 214.123 240.71 213.643 241.07C213.169 241.43 212.816 241.917 212.583 242.53C212.356 243.143 212.243 243.83 212.243 244.59C212.243 245.357 212.359 246.05 212.593 246.67C212.826 247.283 213.176 247.77 213.643 248.13C214.116 248.49 214.706 248.67 215.413 248.67ZM226.015 250.3C225.208 250.3 224.532 250.153 223.985 249.86C223.445 249.56 223.035 249.167 222.755 248.68C222.482 248.193 222.345 247.66 222.345 247.08C222.345 246.513 222.452 246.023 222.665 245.61C222.885 245.19 223.192 244.843 223.585 244.57C223.978 244.29 224.448 244.07 224.995 243.91C225.508 243.77 226.082 243.65 226.715 243.55C227.355 243.443 228.002 243.347 228.655 243.26C229.308 243.173 229.918 243.09 230.485 243.01L229.845 243.38C229.865 242.42 229.672 241.71 229.265 241.25C228.865 240.79 228.172 240.56 227.185 240.56C226.532 240.56 225.958 240.71 225.465 241.01C224.978 241.303 224.635 241.783 224.435 242.45L222.745 241.94C223.005 240.993 223.508 240.25 224.255 239.71C225.002 239.17 225.985 238.9 227.205 238.9C228.185 238.9 229.025 239.077 229.725 239.43C230.432 239.777 230.938 240.303 231.245 241.01C231.398 241.343 231.495 241.707 231.535 242.1C231.575 242.487 231.595 242.893 231.595 243.32V250H230.015V247.41L230.385 247.65C229.978 248.523 229.408 249.183 228.675 249.63C227.948 250.077 227.062 250.3 226.015 250.3ZM226.285 248.81C226.925 248.81 227.478 248.697 227.945 248.47C228.418 248.237 228.798 247.933 229.085 247.56C229.372 247.18 229.558 246.767 229.645 246.32C229.745 245.987 229.798 245.617 229.805 245.21C229.818 244.797 229.825 244.48 229.825 244.26L230.445 244.53C229.865 244.61 229.295 244.687 228.735 244.76C228.175 244.833 227.645 244.913 227.145 245C226.645 245.08 226.195 245.177 225.795 245.29C225.502 245.383 225.225 245.503 224.965 245.65C224.712 245.797 224.505 245.987 224.345 246.22C224.192 246.447 224.115 246.73 224.115 247.07C224.115 247.363 224.188 247.643 224.335 247.91C224.488 248.177 224.722 248.393 225.035 248.56C225.355 248.727 225.772 248.81 226.285 248.81ZM234.395 237.29V235.45H236.175V237.29H234.395ZM234.395 250V239.2H236.175V250H234.395ZM246.865 250V244.59C246.865 244.077 246.819 243.583 246.725 243.11C246.639 242.637 246.482 242.213 246.255 241.84C246.035 241.46 245.735 241.16 245.355 240.94C244.982 240.72 244.509 240.61 243.935 240.61C243.489 240.61 243.082 240.687 242.715 240.84C242.355 240.987 242.045 241.213 241.785 241.52C241.525 241.827 241.322 242.213 241.175 242.68C241.035 243.14 240.965 243.683 240.965 244.31L239.795 243.95C239.795 242.903 239.982 242.007 240.355 241.26C240.735 240.507 241.265 239.93 241.945 239.53C242.632 239.123 243.439 238.92 244.365 238.92C245.065 238.92 245.662 239.03 246.155 239.25C246.649 239.47 247.059 239.763 247.385 240.13C247.712 240.49 247.969 240.897 248.155 241.35C248.342 241.797 248.472 242.253 248.545 242.72C248.625 243.18 248.665 243.617 248.665 244.03V250H246.865ZM239.165 250V239.2H240.765V242.09H240.965V250H239.165Z" fill="#232836"></path>
  <path d="M184.754 143.714L129.292 143.82C125.607 143.82 122.605 140.863 122.596 137.204L122.578 127.808C122.543 109.025 137.942 93.7139 156.921 93.6695C175.9 93.634 191.361 108.883 191.397 127.666L191.415 137.062C191.415 140.721 188.431 143.696 184.745 143.705L184.754 143.714Z" fill="#4396F9"></path>
  <path d="M129.283 145.596C127.036 145.596 124.923 144.726 123.324 143.145C121.716 141.556 120.828 139.451 120.828 137.204L120.811 127.808C120.793 118.243 124.541 109.238 131.379 102.444C138.208 95.6586 147.276 91.9108 156.93 91.8931H157.001C166.619 91.8931 175.677 95.6053 182.516 102.346C189.372 109.113 193.164 118.101 193.182 127.666L193.2 137.062C193.2 139.309 192.329 141.422 190.731 143.012C189.132 144.602 187.018 145.481 184.763 145.481L129.301 145.588H129.283V145.596ZM157.001 95.4455H156.93C148.226 95.4632 140.038 98.8469 133.875 104.966C127.72 111.085 124.336 119.193 124.354 127.799L124.372 137.195C124.372 138.492 124.887 139.699 125.811 140.623C126.734 141.538 127.969 142.044 129.274 142.044H129.283L184.745 141.937C186.059 141.937 187.285 141.422 188.208 140.499C189.132 139.575 189.638 138.358 189.638 137.071L189.621 127.675C189.603 119.069 186.192 110.969 180.011 104.877C173.848 98.7936 165.669 95.4455 156.992 95.4455H157.001Z" fill="#15162E"></path>
  <path d="M157.036 87.586C146.627 87.6037 138.137 79.229 138.119 68.9181C138.101 58.6073 146.556 50.197 156.965 50.1792C167.373 50.1615 175.863 58.5362 175.881 68.8471C175.899 79.1579 167.444 87.5682 157.036 87.586Z" fill="#F8F9F9"></path>
  <path d="M157 53.7316C165.437 53.7316 172.311 60.5167 172.329 68.8559C172.329 72.8879 170.748 76.689 167.862 79.5575C164.966 82.435 161.121 84.0247 156.991 84.0335C148.554 84.0335 141.68 77.2485 141.663 68.9092C141.663 64.8772 143.244 61.0762 146.13 58.2076C149.025 55.3302 152.87 53.7405 157 53.7316ZM157 50.1792H156.965C146.556 50.197 138.101 58.6073 138.119 68.9181C138.137 79.22 146.609 87.5859 157 87.5859H157.036C167.444 87.5682 175.899 79.1579 175.881 68.847C175.863 58.5451 167.391 50.1792 157 50.1792Z" fill="#15162E"></path>
</svg>
