<?xml version="1.0" encoding="UTF-8"?>
<svg xmlns="http://www.w3.org/2000/svg" width="64" height="65" viewBox="0 0 64 65" fill="none">
  <path d="M32.1046 62.1343C24.1686 62.1343 16.6877 59.0576 11.0462 53.473C11.032 53.4587 11.0131 53.4398 10.9941 53.4256C10.9704 53.4066 10.9514 53.3829 10.9325 53.3592L10.8519 53.2739C-0.867242 41.6638 -0.957316 22.6866 10.648 10.9627C16.3085 5.25015 23.8557 2.10229 31.896 2.10229C39.9363 2.10229 47.3129 5.17904 52.9544 10.7636C52.9686 10.7779 52.9876 10.7968 53.0065 10.811C53.0302 10.83 53.0492 10.8537 53.0682 10.8727L53.1535 10.9627C64.8679 22.5728 64.9579 41.55 53.3526 53.2739C47.6922 58.9864 40.1449 62.1343 32.1046 62.1343Z" fill="#F8F9F9"></path>
  <path d="M31.8959 3.05523C39.5806 3.05523 46.8245 6.03242 52.2858 11.4416C52.3095 11.4653 52.3332 11.4843 52.3569 11.508L52.3806 11.5317C52.4138 11.5649 52.447 11.598 52.4897 11.6407C63.8295 22.8763 63.9148 41.2561 52.6793 52.6055C47.199 58.1379 39.8935 61.1815 32.1045 61.1815C24.3154 61.1815 17.1759 58.2043 11.7145 52.7951C11.6908 52.7714 11.6671 52.7524 11.6434 52.7287L11.6197 52.705C11.5865 52.6718 11.5534 52.6339 11.5107 52.5912C0.170845 41.3604 0.0855107 22.9806 11.3211 11.6312C16.8014 6.09879 24.1068 3.05523 31.8959 3.05523ZM31.8959 1.15894C23.9504 1.15894 16.0097 4.20723 9.9747 10.2991C-2.01464 22.4117 -1.93404 41.9435 10.1785 53.9471C10.2497 54.0182 10.3113 54.0893 10.3824 54.1509C16.4031 60.11 24.2585 63.0872 32.1092 63.0872C39.9599 63.0872 47.9954 60.0389 54.0304 53.9471C66.0197 41.8345 65.9391 22.3026 53.8265 10.2991C53.7554 10.228 53.6938 10.1569 53.6227 10.0952C47.602 4.13612 39.7465 1.15894 31.8959 1.15894Z" fill="#15162E"></path>
  <path d="M46.0229 23.8527C46.0229 23.7057 46.0229 23.701 45.8665 23.701C45.5015 23.701 45.1364 23.6583 44.7761 23.6061C43.4677 23.407 39.22 21.1789 38.4994 17.538C38.4852 17.4669 38.324 16.5614 38.3287 16.1774C38.3287 16.0067 38.3287 16.0067 38.1581 16.002C38.1201 16.002 38.0775 16.002 38.0395 16.002C36.3755 16.002 34.7163 16.002 33.0523 16.002C32.7157 16.002 32.7631 15.9593 32.7631 16.2959C32.7631 23.5018 32.7631 30.7125 32.7631 37.9184C32.7631 38.1887 32.7536 38.4541 32.7062 38.7196C32.4549 40.1134 31.7391 41.2038 30.5302 41.9528C29.4825 42.5975 28.3447 42.7824 27.1406 42.5454C26.7613 42.4695 26.401 42.3273 26.0455 42.1851C26.017 42.1567 25.9886 42.133 25.9601 42.1045C25.8416 42.005 25.7089 41.9196 25.5809 41.8295C24.0401 40.7629 23.3148 39.2838 23.5329 37.4349C23.7604 35.5575 24.8366 34.287 26.6144 33.6281C27.1453 33.4337 27.7047 33.3531 28.2689 33.3815C28.6339 33.4005 28.9989 33.4479 29.3498 33.5475C29.473 33.5807 29.5394 33.538 29.5441 33.41C29.5441 33.3626 29.5441 33.3199 29.5441 33.2725C29.5441 31.9783 29.4967 29.1528 29.4872 29.1481C29.4872 28.7735 29.4872 28.4038 29.4967 28.0292C29.4967 27.9202 29.4446 27.9012 29.3545 27.8918C28.6861 27.8112 28.0129 27.797 27.3397 27.8444C26.4105 27.9107 25.505 28.1051 24.628 28.418C23.2295 28.9205 22.0016 29.698 20.9397 30.741C20.0295 31.6322 19.3136 32.6657 18.7874 33.8272C18.2849 34.9412 17.9957 36.1075 17.9198 37.3258C17.8866 37.8521 17.8914 38.383 17.9388 38.914C18.0052 39.6441 18.1426 40.3599 18.3655 41.0615C19.0055 43.0716 20.1669 44.7167 21.8167 46.0251C21.9826 46.1578 22.1438 46.3048 22.3477 46.3901C22.433 46.466 22.5184 46.5418 22.5989 46.613C22.8644 46.8121 23.1536 46.9875 23.4523 47.1344C25.3012 48.0447 27.2449 48.4192 29.2976 48.1679C31.9572 47.8408 34.1758 46.6651 35.9204 44.6313C37.5655 42.7208 38.3619 40.4737 38.3761 37.9658C38.3951 34.3771 38.3809 30.7884 38.3856 27.1996C38.3856 27.1143 38.3382 26.991 38.4283 26.9484C38.5041 26.9152 38.5752 27.0147 38.6464 27.0574C39.9832 27.9344 41.4244 28.5697 42.9841 28.9252C43.8944 29.1338 44.8093 29.2571 45.7432 29.2571C46.0372 29.2571 46.0751 29.2429 46.0751 28.949C46.0751 27.6737 46.0087 24.1892 46.0087 23.8527H46.0229Z" fill="#15162E"></path>
</svg>
