<?xml version="1.0" encoding="UTF-8"?>
<svg xmlns="http://www.w3.org/2000/svg" width="314" height="286" viewBox="0 0 314 286" fill="none">
  <rect x="1.79883" y="1" width="310.588" height="283.843" rx="49" fill="#E0E9FB" stroke="#121212" stroke-width="2"></rect>
  <path d="M79.0938 216.381V212.181L91.4138 201.201C92.3738 200.348 93.0404 199.541 93.4138 198.781C93.7871 198.021 93.9738 197.288 93.9738 196.581C93.9738 195.621 93.7671 194.768 93.3538 194.021C92.9404 193.261 92.3671 192.661 91.6338 192.221C90.9138 191.781 90.0804 191.561 89.1338 191.561C88.1338 191.561 87.2471 191.795 86.4738 192.261C85.7138 192.715 85.1204 193.321 84.6938 194.081C84.2671 194.841 84.0671 195.661 84.0938 196.541H79.1338C79.1338 194.621 79.5604 192.948 80.4138 191.521C81.2804 190.095 82.4671 188.988 83.9738 188.201C85.4938 187.415 87.2471 187.021 89.2338 187.021C91.0738 187.021 92.7271 187.435 94.1938 188.261C95.6604 189.075 96.8138 190.208 97.6537 191.661C98.4938 193.101 98.9138 194.761 98.9138 196.641C98.9138 198.015 98.7271 199.168 98.3538 200.101C97.9804 201.035 97.4204 201.895 96.6738 202.681C95.9404 203.468 95.0271 204.341 93.9338 205.301L85.1938 213.041L84.7538 211.841H98.9138V216.381H79.0938ZM114.082 217.021C112.042 217.021 110.242 216.588 108.682 215.721C107.122 214.841 105.902 213.621 105.022 212.061C104.155 210.501 103.722 208.701 103.722 206.661V197.381C103.722 195.341 104.155 193.541 105.022 191.981C105.902 190.421 107.122 189.208 108.682 188.341C110.242 187.461 112.042 187.021 114.082 187.021C116.122 187.021 117.915 187.461 119.462 188.341C121.022 189.208 122.242 190.421 123.122 191.981C124.002 193.541 124.442 195.341 124.442 197.381V206.661C124.442 208.701 124.002 210.501 123.122 212.061C122.242 213.621 121.022 214.841 119.462 215.721C117.915 216.588 116.122 217.021 114.082 217.021ZM114.082 212.441C115.095 212.441 116.015 212.201 116.842 211.721C117.669 211.228 118.322 210.575 118.802 209.761C119.282 208.935 119.522 208.015 119.522 207.001V197.021C119.522 195.995 119.282 195.075 118.802 194.261C118.322 193.435 117.669 192.781 116.842 192.301C116.015 191.808 115.095 191.561 114.082 191.561C113.069 191.561 112.149 191.808 111.322 192.301C110.495 192.781 109.842 193.435 109.362 194.261C108.882 195.075 108.642 195.995 108.642 197.021V207.001C108.642 208.015 108.882 208.935 109.362 209.761C109.842 210.575 110.495 211.228 111.322 211.721C112.149 212.201 113.069 212.441 114.082 212.441ZM148.418 217.021C146.378 217.021 144.578 216.588 143.018 215.721C141.458 214.841 140.238 213.621 139.358 212.061C138.491 210.501 138.058 208.701 138.058 206.661V197.381C138.058 195.341 138.491 193.541 139.358 191.981C140.238 190.421 141.458 189.208 143.018 188.341C144.578 187.461 146.378 187.021 148.418 187.021C150.458 187.021 152.251 187.461 153.798 188.341C155.358 189.208 156.578 190.421 157.458 191.981C158.338 193.541 158.778 195.341 158.778 197.381V206.661C158.778 208.701 158.338 210.501 157.458 212.061C156.578 213.621 155.358 214.841 153.798 215.721C152.251 216.588 150.458 217.021 148.418 217.021ZM148.418 212.441C149.431 212.441 150.351 212.201 151.178 211.721C152.004 211.228 152.658 210.575 153.138 209.761C153.618 208.935 153.858 208.015 153.858 207.001V197.021C153.858 195.995 153.618 195.075 153.138 194.261C152.658 193.435 152.004 192.781 151.178 192.301C150.351 191.808 149.431 191.561 148.418 191.561C147.404 191.561 146.484 191.808 145.658 192.301C144.831 192.781 144.178 193.435 143.698 194.261C143.218 195.075 142.978 195.995 142.978 197.021V207.001C142.978 208.015 143.218 208.935 143.698 209.761C144.178 210.575 144.831 211.228 145.658 211.721C146.484 212.201 147.404 212.441 148.418 212.441ZM174.746 217.021C172.706 217.021 170.906 216.588 169.346 215.721C167.786 214.841 166.566 213.621 165.686 212.061C164.819 210.501 164.386 208.701 164.386 206.661V197.381C164.386 195.341 164.819 193.541 165.686 191.981C166.566 190.421 167.786 189.208 169.346 188.341C170.906 187.461 172.706 187.021 174.746 187.021C176.786 187.021 178.579 187.461 180.126 188.341C181.686 189.208 182.906 190.421 183.786 191.981C184.666 193.541 185.106 195.341 185.106 197.381V206.661C185.106 208.701 184.666 210.501 183.786 212.061C182.906 213.621 181.686 214.841 180.126 215.721C178.579 216.588 176.786 217.021 174.746 217.021ZM174.746 212.441C175.759 212.441 176.679 212.201 177.506 211.721C178.333 211.228 178.986 210.575 179.466 209.761C179.946 208.935 180.186 208.015 180.186 207.001V197.021C180.186 195.995 179.946 195.075 179.466 194.261C178.986 193.435 178.333 192.781 177.506 192.301C176.679 191.808 175.759 191.561 174.746 191.561C173.733 191.561 172.813 191.808 171.986 192.301C171.159 192.781 170.506 193.435 170.026 194.261C169.546 195.075 169.306 195.995 169.306 197.021V207.001C169.306 208.015 169.546 208.935 170.026 209.761C170.506 210.575 171.159 211.228 171.986 211.721C172.813 212.201 173.733 212.441 174.746 212.441ZM201.074 217.021C199.034 217.021 197.234 216.588 195.674 215.721C194.114 214.841 192.894 213.621 192.014 212.061C191.147 210.501 190.714 208.701 190.714 206.661V197.381C190.714 195.341 191.147 193.541 192.014 191.981C192.894 190.421 194.114 189.208 195.674 188.341C197.234 187.461 199.034 187.021 201.074 187.021C203.114 187.021 204.907 187.461 206.454 188.341C208.014 189.208 209.234 190.421 210.114 191.981C210.994 193.541 211.434 195.341 211.434 197.381V206.661C211.434 208.701 210.994 210.501 210.114 212.061C209.234 213.621 208.014 214.841 206.454 215.721C204.907 216.588 203.114 217.021 201.074 217.021ZM201.074 212.441C202.087 212.441 203.007 212.201 203.834 211.721C204.661 211.228 205.314 210.575 205.794 209.761C206.274 208.935 206.514 208.015 206.514 207.001V197.021C206.514 195.995 206.274 195.075 205.794 194.261C205.314 193.435 204.661 192.781 203.834 192.301C203.007 191.808 202.087 191.561 201.074 191.561C200.061 191.561 199.141 191.808 198.314 192.301C197.487 192.781 196.834 193.435 196.354 194.261C195.874 195.075 195.634 195.995 195.634 197.021V207.001C195.634 208.015 195.874 208.935 196.354 209.761C196.834 210.575 197.487 211.228 198.314 211.721C199.141 212.201 200.061 212.441 201.074 212.441ZM223.802 211.061V203.901H216.642V200.121H223.802V192.981H227.582V200.121H234.702V203.901H227.582V211.061H223.802Z" fill="#232836"></path>
  <path d="M68.2477 250V235.6H73.9377C74.0777 235.6 74.2443 235.607 74.4377 235.62C74.631 235.627 74.8177 235.647 74.9977 235.68C75.7777 235.8 76.431 236.067 76.9577 236.48C77.491 236.893 77.891 237.417 78.1577 238.05C78.4243 238.677 78.5577 239.373 78.5577 240.14C78.5577 240.9 78.421 241.597 78.1477 242.23C77.881 242.857 77.481 243.38 76.9477 243.8C76.421 244.213 75.771 244.48 74.9977 244.6C74.8177 244.627 74.631 244.647 74.4377 244.66C74.2443 244.673 74.0777 244.68 73.9377 244.68H70.0277V250H68.2477ZM70.0277 242.99H73.8777C74.0043 242.99 74.1477 242.983 74.3077 242.97C74.4743 242.957 74.631 242.933 74.7777 242.9C75.2377 242.793 75.611 242.6 75.8977 242.32C76.191 242.033 76.4043 241.7 76.5377 241.32C76.671 240.933 76.7377 240.54 76.7377 240.14C76.7377 239.74 76.671 239.35 76.5377 238.97C76.4043 238.583 76.191 238.247 75.8977 237.96C75.611 237.673 75.2377 237.48 74.7777 237.38C74.631 237.34 74.4743 237.317 74.3077 237.31C74.1477 237.297 74.0043 237.29 73.8777 237.29H70.0277V242.99ZM83.2317 250.3C82.4251 250.3 81.7484 250.153 81.2017 249.86C80.6617 249.56 80.2517 249.167 79.9717 248.68C79.6984 248.193 79.5617 247.66 79.5617 247.08C79.5617 246.513 79.6684 246.023 79.8817 245.61C80.1017 245.19 80.4084 244.843 80.8017 244.57C81.1951 244.29 81.6651 244.07 82.2117 243.91C82.7251 243.77 83.2984 243.65 83.9317 243.55C84.5717 243.443 85.2184 243.347 85.8717 243.26C86.5251 243.173 87.1351 243.09 87.7017 243.01L87.0617 243.38C87.0817 242.42 86.8884 241.71 86.4817 241.25C86.0817 240.79 85.3884 240.56 84.4017 240.56C83.7484 240.56 83.1751 240.71 82.6817 241.01C82.1951 241.303 81.8517 241.783 81.6517 242.45L79.9617 241.94C80.2217 240.993 80.7251 240.25 81.4717 239.71C82.2184 239.17 83.2017 238.9 84.4217 238.9C85.4017 238.9 86.2417 239.077 86.9417 239.43C87.6484 239.777 88.1551 240.303 88.4617 241.01C88.6151 241.343 88.7117 241.707 88.7517 242.1C88.7917 242.487 88.8117 242.893 88.8117 243.32V250H87.2317V247.41L87.6017 247.65C87.1951 248.523 86.6251 249.183 85.8917 249.63C85.1651 250.077 84.2784 250.3 83.2317 250.3ZM83.5017 248.81C84.1417 248.81 84.6951 248.697 85.1617 248.47C85.6351 248.237 86.0151 247.933 86.3017 247.56C86.5884 247.18 86.7751 246.767 86.8617 246.32C86.9617 245.987 87.0151 245.617 87.0217 245.21C87.0351 244.797 87.0417 244.48 87.0417 244.26L87.6617 244.53C87.0817 244.61 86.5117 244.687 85.9517 244.76C85.3917 244.833 84.8617 244.913 84.3617 245C83.8617 245.08 83.4117 245.177 83.0117 245.29C82.7184 245.383 82.4417 245.503 82.1817 245.65C81.9284 245.797 81.7217 245.987 81.5617 246.22C81.4084 246.447 81.3317 246.73 81.3317 247.07C81.3317 247.363 81.4051 247.643 81.5517 247.91C81.7051 248.177 81.9384 248.393 82.2517 248.56C82.5717 248.727 82.9884 248.81 83.5017 248.81ZM92.3063 254.8L94.3963 249.12L94.4263 250.8L89.7063 239.2H91.5763L95.2763 248.53H94.6363L98.1063 239.2H99.9162L94.0363 254.8H92.3063ZM105.777 250.3C104.704 250.3 103.777 250.057 102.997 249.57C102.224 249.083 101.627 248.41 101.207 247.55C100.787 246.69 100.577 245.703 100.577 244.59C100.577 243.457 100.791 242.463 101.217 241.61C101.644 240.757 102.247 240.093 103.027 239.62C103.807 239.14 104.724 238.9 105.777 238.9C106.857 238.9 107.787 239.143 108.567 239.63C109.347 240.11 109.944 240.78 110.357 241.64C110.777 242.493 110.987 243.477 110.987 244.59C110.987 245.717 110.777 246.71 110.357 247.57C109.937 248.423 109.337 249.093 108.557 249.58C107.777 250.06 106.851 250.3 105.777 250.3ZM105.777 248.61C106.897 248.61 107.731 248.237 108.277 247.49C108.824 246.743 109.097 245.777 109.097 244.59C109.097 243.37 108.821 242.4 108.267 241.68C107.714 240.953 106.884 240.59 105.777 240.59C105.024 240.59 104.404 240.76 103.917 241.1C103.431 241.44 103.067 241.91 102.827 242.51C102.587 243.11 102.467 243.803 102.467 244.59C102.467 245.803 102.747 246.777 103.307 247.51C103.867 248.243 104.691 248.61 105.777 248.61ZM117.289 250.28C116.596 250.28 115.999 250.17 115.499 249.95C115.006 249.73 114.596 249.437 114.269 249.07C113.942 248.703 113.686 248.297 113.499 247.85C113.312 247.403 113.179 246.947 113.099 246.48C113.026 246.013 112.989 245.577 112.989 245.17V239.2H114.789V244.61C114.789 245.117 114.836 245.607 114.929 246.08C115.022 246.553 115.179 246.98 115.399 247.36C115.626 247.74 115.926 248.04 116.299 248.26C116.679 248.48 117.152 248.59 117.719 248.59C118.166 248.59 118.572 248.513 118.939 248.36C119.306 248.207 119.619 247.98 119.879 247.68C120.139 247.373 120.339 246.987 120.479 246.52C120.619 246.053 120.689 245.51 120.689 244.89L121.859 245.25C121.859 246.29 121.669 247.187 121.289 247.94C120.916 248.693 120.386 249.273 119.699 249.68C119.019 250.08 118.216 250.28 117.289 250.28ZM120.889 250V247.11H120.689V239.2H122.479V250H120.889ZM131.309 250C130.669 250.127 130.036 250.177 129.409 250.15C128.789 250.13 128.236 250.007 127.749 249.78C127.262 249.547 126.892 249.187 126.639 248.7C126.426 248.273 126.309 247.843 126.289 247.41C126.276 246.97 126.269 246.473 126.269 245.92V236.2H128.049V245.84C128.049 246.28 128.052 246.657 128.059 246.97C128.072 247.283 128.142 247.553 128.269 247.78C128.509 248.207 128.889 248.457 129.409 248.53C129.936 248.603 130.569 248.583 131.309 248.47V250ZM124.079 240.67V239.2H131.309V240.67H124.079ZM137.582 250.29C136.295 250.29 135.238 250.01 134.412 249.45C133.592 248.883 133.088 248.093 132.902 247.08L134.722 246.79C134.868 247.377 135.205 247.843 135.732 248.19C136.258 248.53 136.912 248.7 137.692 248.7C138.432 248.7 139.012 248.547 139.432 248.24C139.852 247.933 140.062 247.517 140.062 246.99C140.062 246.683 139.992 246.437 139.852 246.25C139.712 246.057 139.422 245.877 138.982 245.71C138.548 245.543 137.892 245.343 137.012 245.11C136.058 244.857 135.308 244.593 134.762 244.32C134.215 244.047 133.825 243.73 133.592 243.37C133.358 243.01 133.242 242.573 133.242 242.06C133.242 241.427 133.415 240.873 133.762 240.4C134.108 239.92 134.592 239.55 135.212 239.29C135.838 239.03 136.565 238.9 137.392 238.9C138.212 238.9 138.945 239.03 139.592 239.29C140.238 239.55 140.758 239.92 141.152 240.4C141.552 240.873 141.788 241.427 141.862 242.06L140.042 242.39C139.955 241.81 139.675 241.353 139.202 241.02C138.735 240.687 138.132 240.51 137.392 240.49C136.692 240.463 136.122 240.587 135.682 240.86C135.248 241.133 135.032 241.503 135.032 241.97C135.032 242.23 135.112 242.453 135.272 242.64C135.438 242.827 135.742 243.003 136.182 243.17C136.628 243.337 137.275 243.527 138.122 243.74C139.075 243.98 139.825 244.243 140.372 244.53C140.925 244.81 141.318 245.143 141.552 245.53C141.785 245.91 141.902 246.38 141.902 246.94C141.902 247.98 141.518 248.8 140.752 249.4C139.985 249.993 138.928 250.29 137.582 250.29ZM152.661 250.3C151.568 250.3 150.638 250.057 149.871 249.57C149.111 249.077 148.531 248.4 148.131 247.54C147.731 246.68 147.524 245.7 147.511 244.6C147.524 243.473 147.734 242.483 148.141 241.63C148.554 240.77 149.144 240.1 149.911 239.62C150.678 239.14 151.601 238.9 152.681 238.9C153.821 238.9 154.801 239.18 155.621 239.74C156.448 240.3 157.001 241.067 157.281 242.04L155.521 242.57C155.294 241.943 154.924 241.457 154.411 241.11C153.904 240.763 153.321 240.59 152.661 240.59C151.921 240.59 151.311 240.763 150.831 241.11C150.351 241.45 149.994 241.923 149.761 242.53C149.528 243.13 149.408 243.82 149.401 244.6C149.414 245.8 149.691 246.77 150.231 247.51C150.778 248.243 151.588 248.61 152.661 248.61C153.368 248.61 153.954 248.45 154.421 248.13C154.888 247.803 155.241 247.333 155.481 246.72L157.281 247.19C156.908 248.197 156.324 248.967 155.531 249.5C154.738 250.033 153.781 250.3 152.661 250.3ZM163.629 250.3C162.556 250.3 161.629 250.057 160.849 249.57C160.076 249.083 159.479 248.41 159.059 247.55C158.639 246.69 158.429 245.703 158.429 244.59C158.429 243.457 158.642 242.463 159.069 241.61C159.496 240.757 160.099 240.093 160.879 239.62C161.659 239.14 162.576 238.9 163.629 238.9C164.709 238.9 165.639 239.143 166.419 239.63C167.199 240.11 167.796 240.78 168.209 241.64C168.629 242.493 168.839 243.477 168.839 244.59C168.839 245.717 168.629 246.71 168.209 247.57C167.789 248.423 167.189 249.093 166.409 249.58C165.629 250.06 164.702 250.3 163.629 250.3ZM163.629 248.61C164.749 248.61 165.582 248.237 166.129 247.49C166.676 246.743 166.949 245.777 166.949 244.59C166.949 243.37 166.672 242.4 166.119 241.68C165.566 240.953 164.736 240.59 163.629 240.59C162.876 240.59 162.256 240.76 161.769 241.1C161.282 241.44 160.919 241.91 160.679 242.51C160.439 243.11 160.319 243.803 160.319 244.59C160.319 245.803 160.599 246.777 161.159 247.51C161.719 248.243 162.542 248.61 163.629 248.61ZM183.951 250L183.961 243.09C183.961 242.283 183.744 241.653 183.311 241.2C182.884 240.74 182.327 240.51 181.641 240.51C181.241 240.51 180.861 240.603 180.501 240.79C180.141 240.97 179.847 241.257 179.621 241.65C179.394 242.037 179.281 242.533 179.281 243.14L178.341 242.76C178.327 241.993 178.484 241.323 178.811 240.75C179.144 240.17 179.597 239.72 180.171 239.4C180.744 239.08 181.391 238.92 182.111 238.92C183.237 238.92 184.124 239.263 184.771 239.95C185.417 240.63 185.741 241.547 185.741 242.7L185.731 250H183.951ZM171.031 250V239.2H172.621V242.09H172.821V250H171.031ZM177.501 250L177.511 243.16C177.511 242.333 177.297 241.687 176.871 241.22C176.444 240.747 175.877 240.51 175.171 240.51C174.471 240.51 173.904 240.75 173.471 241.23C173.037 241.71 172.821 242.347 172.821 243.14L171.881 242.58C171.881 241.88 172.047 241.253 172.381 240.7C172.714 240.147 173.167 239.713 173.741 239.4C174.314 239.08 174.964 238.92 175.691 238.92C176.417 238.92 177.051 239.073 177.591 239.38C178.131 239.687 178.547 240.127 178.841 240.7C179.134 241.267 179.281 241.943 179.281 242.73L179.271 250H177.501ZM193.305 250.3C192.292 250.3 191.439 250.05 190.745 249.55C190.052 249.043 189.525 248.36 189.165 247.5C188.812 246.633 188.635 245.663 188.635 244.59C188.635 243.503 188.812 242.53 189.165 241.67C189.525 240.81 190.052 240.133 190.745 239.64C191.445 239.147 192.302 238.9 193.315 238.9C194.315 238.9 195.175 239.15 195.895 239.65C196.622 240.143 197.179 240.82 197.565 241.68C197.952 242.54 198.145 243.51 198.145 244.59C198.145 245.67 197.952 246.64 197.565 247.5C197.179 248.36 196.622 249.043 195.895 249.55C195.175 250.05 194.312 250.3 193.305 250.3ZM188.335 254.8V239.2H189.925V247.15H190.125V254.8H188.335ZM193.085 248.67C193.799 248.67 194.389 248.49 194.855 248.13C195.322 247.77 195.672 247.283 195.905 246.67C196.139 246.05 196.255 245.357 196.255 244.59C196.255 243.83 196.139 243.143 195.905 242.53C195.679 241.917 195.325 241.43 194.845 241.07C194.372 240.71 193.769 240.53 193.035 240.53C192.335 240.53 191.755 240.703 191.295 241.05C190.835 241.39 190.492 241.867 190.265 242.48C190.039 243.087 189.925 243.79 189.925 244.59C189.925 245.377 190.035 246.08 190.255 246.7C190.482 247.313 190.829 247.797 191.295 248.15C191.762 248.497 192.359 248.67 193.085 248.67ZM200.538 250V235.3H202.318V250H200.538ZM209.998 250.3C208.938 250.3 208.011 250.067 207.218 249.6C206.431 249.127 205.818 248.47 205.378 247.63C204.938 246.783 204.718 245.797 204.718 244.67C204.718 243.49 204.935 242.47 205.368 241.61C205.801 240.743 206.405 240.077 207.178 239.61C207.958 239.137 208.871 238.9 209.918 238.9C211.005 238.9 211.928 239.15 212.688 239.65C213.455 240.15 214.028 240.863 214.408 241.79C214.795 242.717 214.961 243.82 214.908 245.1H213.108V244.46C213.088 243.133 212.818 242.143 212.298 241.49C211.778 240.83 211.005 240.5 209.978 240.5C208.878 240.5 208.041 240.853 207.468 241.56C206.895 242.267 206.608 243.28 206.608 244.6C206.608 245.873 206.895 246.86 207.468 247.56C208.041 248.26 208.858 248.61 209.918 248.61C210.631 248.61 211.251 248.447 211.778 248.12C212.305 247.793 212.718 247.323 213.018 246.71L214.728 247.3C214.308 248.253 213.675 248.993 212.828 249.52C211.988 250.04 211.045 250.3 209.998 250.3ZM206.008 245.1V243.67H213.988V245.1H206.008ZM223.164 250C222.524 250.127 221.891 250.177 221.264 250.15C220.644 250.13 220.091 250.007 219.604 249.78C219.118 249.547 218.748 249.187 218.494 248.7C218.281 248.273 218.164 247.843 218.144 247.41C218.131 246.97 218.124 246.473 218.124 245.92V236.2H219.904V245.84C219.904 246.28 219.908 246.657 219.914 246.97C219.928 247.283 219.998 247.553 220.124 247.78C220.364 248.207 220.744 248.457 221.264 248.53C221.791 248.603 222.424 248.583 223.164 248.47V250ZM215.934 240.67V239.2H223.164V240.67H215.934ZM229.588 250.3C228.528 250.3 227.601 250.067 226.808 249.6C226.021 249.127 225.408 248.47 224.968 247.63C224.528 246.783 224.308 245.797 224.308 244.67C224.308 243.49 224.524 242.47 224.958 241.61C225.391 240.743 225.994 240.077 226.768 239.61C227.548 239.137 228.461 238.9 229.508 238.9C230.594 238.9 231.518 239.15 232.278 239.65C233.044 240.15 233.618 240.863 233.998 241.79C234.384 242.717 234.551 243.82 234.498 245.1H232.698V244.46C232.678 243.133 232.408 242.143 231.888 241.49C231.368 240.83 230.594 240.5 229.568 240.5C228.468 240.5 227.631 240.853 227.058 241.56C226.484 242.267 226.198 243.28 226.198 244.6C226.198 245.873 226.484 246.86 227.058 247.56C227.631 248.26 228.448 248.61 229.508 248.61C230.221 248.61 230.841 248.447 231.368 248.12C231.894 247.793 232.308 247.323 232.608 246.71L234.318 247.3C233.898 248.253 233.264 248.993 232.418 249.52C231.578 250.04 230.634 250.3 229.588 250.3ZM225.598 245.1V243.67H233.578V245.1H225.598ZM240.964 250.3C239.958 250.3 239.094 250.05 238.374 249.55C237.654 249.043 237.098 248.36 236.704 247.5C236.318 246.64 236.124 245.67 236.124 244.59C236.124 243.51 236.318 242.54 236.704 241.68C237.098 240.82 237.654 240.143 238.374 239.65C239.094 239.15 239.954 238.9 240.954 238.9C241.974 238.9 242.831 239.147 243.524 239.64C244.218 240.133 244.741 240.81 245.094 241.67C245.454 242.53 245.634 243.503 245.634 244.59C245.634 245.663 245.454 246.633 245.094 247.5C244.741 248.36 244.218 249.043 243.524 249.55C242.831 250.05 241.978 250.3 240.964 250.3ZM241.184 248.67C241.911 248.67 242.508 248.497 242.974 248.15C243.441 247.797 243.784 247.313 244.004 246.7C244.231 246.08 244.344 245.377 244.344 244.59C244.344 243.79 244.231 243.087 244.004 242.48C243.784 241.867 243.444 241.39 242.984 241.05C242.524 240.703 241.941 240.53 241.234 240.53C240.501 240.53 239.894 240.71 239.414 241.07C238.941 241.43 238.588 241.917 238.354 242.53C238.128 243.143 238.014 243.83 238.014 244.59C238.014 245.357 238.131 246.05 238.364 246.67C238.598 247.283 238.948 247.77 239.414 248.13C239.888 248.49 240.478 248.67 241.184 248.67ZM244.344 250V242.05H244.144V235.6H245.934V250H244.344Z" fill="#232836"></path>
  <path d="M122.271 130.547C103.657 112.102 103.533 82.0666 121.96 63.4533C140.404 44.8399 170.44 44.7155 189.053 63.1422C189.16 63.231 189.257 63.3466 189.364 63.4533C207.986 81.8977 208.102 111.933 189.675 130.547C171.231 149.169 141.195 149.284 122.582 130.858C122.475 130.769 122.377 130.653 122.271 130.547Z" fill="#F8F9F9"></path>
  <path d="M155.657 49.3999V52.9555C167.302 52.9555 178.271 57.471 186.555 65.6666C186.591 65.7021 186.626 65.7377 186.662 65.7732L186.679 65.791C186.733 65.8532 186.795 65.9066 186.857 65.9777C204.039 82.9999 204.173 110.849 187.142 128.049C178.839 136.431 167.764 141.044 155.968 141.044C144.173 141.044 133.355 136.529 125.071 128.333C125.035 128.298 124.999 128.262 124.955 128.227L124.937 128.209C124.884 128.155 124.822 128.093 124.759 128.022C107.577 111 107.444 83.151 124.475 65.951C132.777 57.5688 143.853 52.9555 155.648 52.9555V49.3999M155.648 49.3999C143.435 49.3999 131.231 54.0843 121.951 63.4532C103.515 82.0666 103.639 112.102 122.262 130.547C122.368 130.653 122.466 130.76 122.573 130.858C131.826 140.022 143.897 144.6 155.968 144.6C168.039 144.6 180.386 139.915 189.666 130.547C208.102 111.924 207.977 81.8977 189.355 63.4532C189.248 63.3466 189.151 63.2399 189.044 63.1421C179.791 53.9777 167.719 49.3999 155.648 49.3999Z" fill="#15162E"></path>
  <path d="M203.701 74.4754L159.381 118.795C158.456 119.72 156.607 120.644 154.767 120.644C152.927 120.644 151.079 119.72 150.154 118.795L127.994 96.6353C125.221 93.862 125.221 89.2487 127.994 86.4753C130.767 83.702 135.381 83.702 138.154 86.4753L155.701 104.022L193.559 64.3154C196.332 61.542 200.945 61.542 203.719 64.3154C206.492 67.0887 206.492 71.702 203.719 74.4754H203.701Z" fill="#4396F9"></path>
  <path d="M154.759 122.413C152.332 122.413 150.066 121.222 148.884 120.049L126.724 97.8886C123.23 94.3952 123.23 88.7152 126.724 85.2219C130.217 81.7286 135.897 81.7286 139.39 85.2219L155.648 101.48L192.244 63.0974C195.764 59.5774 201.452 59.5774 204.946 63.0708C208.439 66.5641 208.439 72.2441 204.946 75.7374L160.626 120.057C159.452 121.24 157.177 122.422 154.75 122.422L154.759 122.413ZM133.061 86.173C131.666 86.173 130.279 86.6886 129.239 87.7286C127.168 89.7997 127.168 93.3019 129.239 95.373L151.399 117.533C152.039 118.173 153.435 118.857 154.759 118.857C156.084 118.857 157.479 118.173 158.119 117.533L202.439 73.213C204.51 71.1419 204.51 67.6397 202.439 65.5686C200.368 63.4974 196.866 63.4974 194.795 65.5686L156.972 105.24C156.644 105.586 156.19 105.782 155.71 105.791H155.692C155.221 105.791 154.768 105.604 154.439 105.266L136.892 87.7197C135.852 86.6797 134.466 86.1641 133.07 86.1641L133.061 86.173Z" fill="#15162E"></path>
</svg>
