<?xml version="1.0" encoding="UTF-8"?>
<svg xmlns="http://www.w3.org/2000/svg" width="64" height="65" viewBox="0 0 64 65" fill="none">
  <path d="M10.1785 53.9423C-1.93404 41.9435 -2.01464 22.4069 9.9747 10.2943C21.9735 -1.81832 41.5101 -1.89891 53.6227 10.0904C53.6938 10.152 53.7554 10.2232 53.8265 10.2943C65.9391 22.2931 66.0197 41.8297 54.0304 53.9423C42.0316 66.0549 22.495 66.1355 10.3824 54.1461C10.3113 54.0845 10.2497 54.0134 10.1785 53.9423Z" fill="#F8F9F9"></path>
  <path d="M31.8959 3.05523C39.5806 3.05523 46.8245 6.03242 52.2858 11.4416C52.3095 11.4653 52.3332 11.4843 52.3569 11.508L52.3806 11.5317C52.4138 11.5649 52.447 11.598 52.4897 11.6407C63.8295 22.8763 63.9148 41.2561 52.6793 52.6055C47.199 58.1379 39.8935 61.1815 32.1045 61.1815C24.3154 61.1815 17.1759 58.2043 11.7145 52.7951C11.6908 52.7714 11.6671 52.7524 11.6434 52.7287L11.6197 52.705C11.5865 52.6718 11.5534 52.6339 11.5107 52.5912C0.170845 41.3604 0.0855107 22.9806 11.3211 11.6312C16.8014 6.09879 24.1068 3.05523 31.8959 3.05523ZM31.8959 1.15894C23.9504 1.15894 16.0097 4.20723 9.9747 10.2991C-2.01464 22.4117 -1.93404 41.9435 10.1785 53.9471C10.2497 54.0182 10.3113 54.0893 10.3824 54.1509C16.4031 60.11 24.2585 63.0872 32.1092 63.0872C39.9599 63.0872 47.9954 60.0389 54.0304 53.9471C66.0197 41.8345 65.9391 22.3026 53.8265 10.2991C53.7554 10.228 53.6938 10.1569 53.6227 10.0952C47.602 4.13612 39.7465 1.15894 31.8959 1.15894Z" fill="#15162E"></path>
  <path d="M47.9287 24.1183C47.5447 22.6866 46.4211 21.5631 44.9894 21.1791C42.3962 20.4822 31.9998 20.4822 31.9998 20.4822C31.9998 20.4822 21.6034 20.4822 19.0102 21.1791C17.5785 21.5631 16.4549 22.6866 16.0709 24.1183C15.374 26.7115 15.374 32.1207 15.374 32.1207C15.374 32.1207 15.374 37.5299 16.0709 40.1231C16.4549 41.5548 17.5785 42.6783 19.0102 43.0623C21.6034 43.7592 31.9998 43.7592 31.9998 43.7592C31.9998 43.7592 42.3962 43.7592 44.9894 43.0623C46.4211 42.6783 47.5447 41.5548 47.9287 40.1231C48.6256 37.5299 48.6256 32.1207 48.6256 32.1207C48.6256 32.1207 48.6256 26.7115 47.9287 24.1183ZM28.6765 37.108V27.1334L37.3142 32.1207L28.6765 37.108Z" fill="#15162E"></path>
</svg>
