<?xml version="1.0" encoding="UTF-8"?>
<svg xmlns="http://www.w3.org/2000/svg" width="56" height="56" viewBox="0 0 56 56" fill="none">
  <g clip-path="url(#clip0_3197_6576)">
    <path d="M28.0004 44.4387C27.7889 44.4387 27.5773 44.3558 27.4156 44.194L16.1948 32.9732C15.8713 32.6497 15.8713 32.1229 16.1948 31.7993C16.5184 31.4758 17.0452 31.4758 17.3687 31.7993L28.0004 42.431L38.6321 31.7993C38.9557 31.4758 39.4825 31.4758 39.8061 31.7993C40.1296 32.1229 40.1296 32.6497 39.8061 32.9732L28.5853 44.194C28.4236 44.3558 28.212 44.4387 28.0004 44.4387Z" fill="#121212"></path>
    <path d="M28 43.6589C27.5437 43.6589 27.1704 43.2856 27.1704 42.8293V9.27494C27.1704 8.81865 27.5437 8.44531 28 8.44531C28.4563 8.44531 28.8297 8.81865 28.8297 9.27494V42.8293C28.8297 43.2856 28.4563 43.6589 28 43.6589Z" fill="#121212"></path>
    <path d="M47.4965 47.4835H8.50395C8.04765 47.4835 7.67432 47.1101 7.67432 46.6538C7.67432 46.1976 8.04765 45.8242 8.50395 45.8242H47.4965C47.9528 45.8242 48.3262 46.1976 48.3262 46.6538C48.3262 47.1101 47.9528 47.4835 47.4965 47.4835Z" fill="#121212"></path>
  </g>
  <defs>
    <clipPath id="clip0_3197_6576">
      <rect width="56" height="56" fill="white"></rect>
    </clipPath>
  </defs>
</svg>
