<?xml version="1.0" encoding="UTF-8"?>
<svg xmlns="http://www.w3.org/2000/svg" width="32" height="33" viewBox="0 0 32 33" fill="none">
  <path d="M16.8975 25.2872V28.3115C16.9022 29.6069 20.1183 30.6561 24.0875 30.6537C28.0544 30.6514 31.2705 29.5975 31.2705 28.2997V25.2754" fill="#FCC018"></path>
  <path d="M24.0688 31.1275C20.2701 31.1275 16.4287 30.1613 16.4287 28.314V25.2898C16.4264 25.0293 16.6371 24.8161 16.9 24.8161C17.1605 24.8161 17.3737 25.0269 17.3737 25.2898V28.314C17.376 29.0766 19.9835 30.1826 24.0688 30.1826H24.0877C25.9586 30.1826 27.7088 29.9434 29.0208 29.5148C30.3328 29.0861 30.797 28.5935 30.797 28.3046V25.2803C30.7946 25.0198 31.0054 24.8066 31.2683 24.8066C31.5288 24.8066 31.7419 25.0174 31.7419 25.2803V28.3046C31.7443 28.9061 31.3251 29.7587 29.3168 30.4171C27.9148 30.8765 26.0581 31.1299 24.0901 31.1323H24.0711L24.0688 31.1275Z" fill="#15162E"></path>
  <path d="M23.3841 22.9453C19.6423 23.0495 16.8975 24.0679 16.8975 25.2875C16.8975 26.583 20.1159 27.6321 24.0828 27.6298C28.0496 27.6274 31.2657 26.5711 31.2657 25.2757C31.2657 24.1366 30.2024 22.9406 23.3841 22.9453Z" fill="#FCC018"></path>
  <path d="M24.0663 28.104C20.2676 28.104 16.4263 27.1377 16.4263 25.2905C16.4263 23.9856 18.5719 22.6072 23.3724 22.4746C23.3937 22.4746 23.415 22.4746 23.4363 22.4746C26.579 22.4746 28.7436 22.7256 30.0556 23.2419C31.1877 23.6872 31.7395 24.355 31.7395 25.2763C31.7395 25.8778 31.3179 26.7304 29.3096 27.3888C27.9076 27.8482 26.0509 28.1016 24.0829 28.104H24.0639H24.0663ZM23.3913 23.4195C19.5145 23.5285 17.3712 24.5918 17.3712 25.2881C17.3712 26.0507 19.9787 27.1567 24.0639 27.1567H24.0829C25.9538 27.1567 27.7039 26.9175 29.016 26.4888C30.328 26.0602 30.7922 25.5676 30.7922 25.2786C30.7922 24.9187 30.6619 24.4995 29.7075 24.1229C28.5186 23.654 26.399 23.4243 23.389 23.4219L23.3913 23.4195Z" fill="#15162E"></path>
  <path d="M16.895 22.2638V25.2881C16.8998 26.5835 20.1159 27.6327 24.0851 27.6303C28.0543 27.6279 31.268 26.574 31.268 25.2762V22.252" fill="#FCC018"></path>
  <path d="M24.0663 28.1041C20.2676 28.1041 16.4263 27.1378 16.4263 25.2906V22.2663C16.4239 22.0058 16.6347 21.7927 16.8976 21.7927C17.1581 21.7927 17.3712 22.0035 17.3712 22.2663V25.2906C17.3736 26.0532 19.9811 27.1592 24.0663 27.1592H24.0853C25.9562 27.1592 27.7063 26.92 29.0184 26.4913C30.3304 26.0627 30.7946 25.5701 30.7946 25.2811V22.2569C30.7922 21.9963 31.003 21.7832 31.2658 21.7832C31.5264 21.7832 31.7395 21.994 31.7395 22.2569V25.2811C31.7419 25.8827 31.3227 26.7352 29.3144 27.3936C27.9124 27.8531 26.0557 28.1065 24.0876 28.1088H24.0687L24.0663 28.1041Z" fill="#15162E"></path>
  <path d="M23.3817 19.9219C19.6398 20.0261 16.895 21.0444 16.895 22.2641C16.895 23.5595 20.1135 24.6087 24.0803 24.6063C28.0472 24.6039 31.2633 23.5477 31.2633 22.2523C31.2633 21.1131 30.1999 19.9172 23.3817 19.9219Z" fill="#FCC018"></path>
  <path d="M24.0614 25.0805C20.2627 25.0805 16.4214 24.1143 16.4214 22.267C16.4214 20.9621 18.567 19.5838 23.3675 19.4512C23.3912 19.4512 23.4125 19.4512 23.4338 19.4512C29.2503 19.4512 31.7346 20.2895 31.737 22.2528C31.737 22.8544 31.3154 23.7069 29.3071 24.3653C27.9051 24.8248 26.0484 25.0782 24.0804 25.0805H24.0614ZM23.3865 20.3961C19.5096 20.5051 17.3663 21.5684 17.3663 22.2647C17.3663 23.0273 19.9738 24.1332 24.059 24.1332H24.078C25.9489 24.1332 27.6991 23.894 29.0111 23.4654C30.3231 23.0367 30.7873 22.5441 30.7873 22.2552C30.7873 21.0237 28.3101 20.3985 23.4291 20.3985H23.3841L23.3865 20.3961Z" fill="#15162E"></path>
  <path d="M16.8926 19.2384V22.2627C16.8973 23.5581 20.1134 24.6073 24.0826 24.6049C28.0495 24.6025 31.2656 23.5486 31.2656 22.2508V19.2266" fill="#FCC018"></path>
  <path d="M24.0614 25.0787C20.2627 25.0787 16.4214 24.1125 16.4214 22.2652V19.2409C16.419 18.9804 16.6298 18.7673 16.8927 18.7673C17.1532 18.7673 17.3663 18.9781 17.3663 19.2409V22.2652C17.3687 23.0278 19.9762 24.1338 24.0614 24.1338H24.0804C25.9513 24.1338 27.7015 23.8946 29.0135 23.4659C30.3255 23.0373 30.7897 22.5447 30.7897 22.2557V19.2315C30.7873 18.971 30.9981 18.7578 31.261 18.7578C31.5215 18.7578 31.7346 18.9686 31.7346 19.2315V22.2557C31.737 22.8573 31.3178 23.7099 29.3095 24.3682C27.9075 24.8277 26.0508 25.0811 24.0827 25.0834H24.0638L24.0614 25.0787Z" fill="#15162E"></path>
  <path d="M23.3793 16.8965C19.6374 17.0007 16.8926 18.0191 16.8926 19.2387C16.8926 20.5342 20.111 21.5833 24.0779 21.5809C28.0447 21.5786 31.2608 20.5223 31.2608 19.2269C31.2608 18.0877 30.1975 16.8918 23.3793 16.8965Z" fill="#FCC018"></path>
  <path d="M24.059 22.0551C20.2603 22.0551 16.4189 21.0889 16.4189 19.2416C16.4189 17.9367 18.5646 16.5584 23.3651 16.4258C23.3888 16.4258 23.4101 16.4258 23.4314 16.4258C29.2478 16.4258 31.7322 17.2641 31.7345 19.2274C31.7345 19.829 31.313 20.6816 29.3047 21.3399C27.9027 21.7994 26.0459 22.0528 24.0779 22.0551H24.059ZM23.384 17.3707C19.5072 17.4797 17.3639 18.543 17.3639 19.2393C17.3639 20.0019 19.9713 21.1078 24.0566 21.1078H24.0755C25.9465 21.1078 27.6966 20.8686 29.0086 20.44C30.3207 20.0113 30.7848 19.5187 30.7848 19.2298C30.7848 17.9983 28.3076 17.3731 23.4266 17.3731H23.3816L23.384 17.3707Z" fill="#15162E"></path>
  <path d="M16.8906 16.215V19.2392C16.8954 20.5347 20.1115 21.5838 24.0807 21.5815C28.0475 21.5791 31.2636 20.5252 31.2636 19.2274V16.2031" fill="#FCC018"></path>
  <path d="M24.0595 22.0553C20.2608 22.0553 16.4195 21.089 16.4195 19.2418V16.2175C16.4171 15.957 16.6279 15.7438 16.8907 15.7438C17.1512 15.7438 17.3644 15.9546 17.3644 16.2175V19.2418C17.3668 20.0044 19.9742 21.1103 24.0595 21.1103H24.0784C25.9494 21.1103 27.6995 20.8711 29.0115 20.4425C30.3235 20.0138 30.7877 19.5212 30.7877 19.2323V16.208C30.7853 15.9475 30.9961 15.7344 31.259 15.7344C31.5195 15.7344 31.7327 15.9452 31.7327 16.208V19.2323C31.735 19.8338 31.3158 20.6864 29.3076 21.3448C27.9055 21.8042 26.0488 22.0576 24.0808 22.06H24.0618L24.0595 22.0553Z" fill="#15162E"></path>
  <path d="M23.3773 13.8731C19.6354 13.9773 16.8906 14.9956 16.8906 16.2153C16.8906 17.5107 20.1091 18.5599 24.0759 18.5575C28.0428 18.5551 31.2589 17.4989 31.2589 16.2034C31.2589 15.0643 30.1955 13.8683 23.3773 13.8731Z" fill="#FCC018"></path>
  <path d="M24.057 19.0317C20.2583 19.0317 16.417 18.0655 16.417 16.2182C16.417 14.9133 18.5626 13.535 23.3631 13.4023C23.3844 13.4023 23.4057 13.4023 23.4271 13.4023C26.5697 13.4023 28.7343 13.6534 30.0464 14.1697C31.1784 14.6149 31.7302 15.2827 31.7302 16.204C31.7302 16.8055 31.3086 17.6581 29.3004 18.3165C27.8983 18.7759 26.0416 19.0293 24.0736 19.0317H24.0546H24.057ZM23.3821 14.3473C19.5052 14.4562 17.3619 15.5196 17.3619 16.2158C17.3619 16.9784 19.9694 18.0844 24.0546 18.0844H24.0736C25.9445 18.0844 27.6947 17.8452 29.0067 17.4166C30.3187 16.9879 30.7829 16.4953 30.7829 16.2064C30.7829 15.8464 30.6526 15.4272 29.6982 15.0507C28.5165 14.5841 26.4063 14.3496 23.4247 14.3496H23.3821V14.3473Z" fill="#15162E"></path>
  <path d="M13.2219 30.5282C6.07685 27.144 -0.44535 18.3127 0.883247 6.4406C6.41788 6.52586 10.5221 5.00306 13.1959 1.87695C15.6967 4.90833 19.6257 6.42402 24.8027 6.41929H25.4279C26.8655 18.289 20.3599 27.0421 13.2219 30.5282Z" fill="white"></path>
  <path d="M13.222 31.0009C13.1533 31.0009 13.0823 30.9867 13.0183 30.9559C5.75959 27.5148 -0.95444 18.5841 0.412049 6.38754C0.4381 6.14598 0.644139 5.97073 0.890439 5.96599C6.25219 6.04651 10.2711 4.56871 12.836 1.56812C12.926 1.46392 13.0586 1.40234 13.1959 1.40234H13.2007C13.3404 1.40234 13.473 1.46629 13.5607 1.57523C15.9526 4.47398 19.7276 5.94468 24.7791 5.94468H25.428C25.6672 5.94468 25.8685 6.1223 25.8993 6.36149C27.3605 18.4278 20.6915 27.4059 13.4304 30.9536C13.3641 30.9867 13.293 31.0009 13.222 31.0009ZM1.30962 6.91567C0.20601 18.3165 6.42744 26.6741 13.2173 29.9991C20.0118 26.5746 26.1977 18.1697 25.0041 6.88961H24.8028C24.8028 6.88961 24.7862 6.88961 24.7791 6.88961C19.6731 6.88961 15.7774 5.44497 13.1888 2.59121C10.4985 5.46155 6.50796 6.9133 1.30725 6.9133L1.30962 6.91567Z" fill="#121212"></path>
  <path d="M12.7623 18.8621C12.651 18.8621 12.5445 18.8242 12.4592 18.7531L7.54743 14.6513C7.34613 14.4832 7.32008 14.1848 7.48822 13.9835C7.65637 13.7822 7.95477 13.7561 8.15607 13.9242L12.6913 17.7111L18.0081 10.8644C18.1691 10.6584 18.4651 10.6205 18.6735 10.7816C18.8796 10.9426 18.9175 11.2386 18.7564 11.447L13.1389 18.6821C13.0608 18.7839 12.9423 18.8479 12.8145 18.8621C12.7979 18.8621 12.7813 18.8644 12.7647 18.8644L12.7623 18.8621Z" fill="#15162E"></path>
</svg>
