<?xml version="1.0" encoding="UTF-8"?>
<svg xmlns="http://www.w3.org/2000/svg" width="456" height="457" viewBox="0 0 456 457" fill="none">
  <path d="M54.3985 323.8C54.7346 325.678 55.2388 327.52 55.9038 329.303C56.0354 329.654 56.1742 330.005 56.3204 330.355C56.6054 331.05 56.9196 331.729 57.2558 332.401C57.5919 333.074 57.95 333.724 58.3227 334.367C62.5612 341.543 69.4377 346.768 77.4762 348.924L311.637 411.653C319.514 413.765 327.903 412.757 335.058 408.84C335.445 408.628 335.832 408.409 336.212 408.182C336.877 407.78 337.528 407.356 338.171 406.903C338.653 406.567 339.121 406.209 339.581 405.844C341.364 404.426 342.994 402.826 344.433 401.057C344.499 400.984 344.558 400.904 344.616 400.823C345.069 400.261 345.5 399.676 345.917 399.077C346.041 398.894 346.173 398.704 346.297 398.521C346.721 397.878 347.13 397.228 347.51 396.548L427.5 224.175C429.429 220.762 430.708 217.013 431.278 213.133C431.337 212.753 431.38 212.373 431.424 211.985C431.592 210.458 431.651 208.923 431.592 207.381C431.578 207.001 431.556 206.614 431.534 206.234C431.088 199.986 428.815 194.008 425.001 189.054L325.799 60.073C325.002 59.0353 324.14 58.0487 323.227 57.1207C322.773 56.6603 322.306 56.2145 321.823 55.7834C321.582 55.5714 321.341 55.3595 321.093 55.1476C320.603 54.7311 320.099 54.3364 319.58 53.9491C318.805 53.3718 318.016 52.8384 317.19 52.3341C315.553 51.333 313.836 50.4853 312.046 49.7911C311.447 49.5645 310.847 49.3526 310.241 49.1553C309.634 48.958 309.013 48.7826 308.392 48.6291C305.25 47.8326 302.005 47.5257 298.768 47.7157C298.768 47.7157 154.075 56.2584 152.541 56.5287C143.772 58.0707 135.704 62.4699 129.624 69.1053L55.6554 149.965C49.6558 156.52 46.0092 164.887 45.2858 173.751C45.22 174.511 45.1835 175.279 45.1615 176.046C45.0958 178.757 54.3838 323.793 54.3838 323.793L54.3985 323.8Z" fill="#C1D9FD"></path>
  <path d="M319.872 413.466C317.059 413.466 314.231 413.1 311.447 412.355L77.2862 349.626C69.0139 347.411 62.0569 342.121 57.6943 334.733C57.3069 334.075 56.9416 333.403 56.5981 332.723C56.2546 332.043 55.9331 331.342 55.6408 330.633C55.4946 330.275 55.3485 329.917 55.2169 329.559C54.5373 327.732 54.0185 325.839 53.675 323.924V323.844C53.2877 317.918 44.3723 178.743 44.4381 176.031C44.46 175.257 44.4966 174.475 44.5623 173.693C45.2931 164.712 49.0493 156.111 55.122 149.475L129.09 68.6156C135.207 61.9218 143.494 57.3764 152.417 55.8052C153.944 55.5349 283.911 47.8618 298.724 46.9849C302.034 46.7876 305.352 47.1018 308.575 47.9203C309.203 48.081 309.839 48.2637 310.46 48.461C311.081 48.6583 311.702 48.8776 312.309 49.1114C314.136 49.8203 315.904 50.6899 317.57 51.7129C318.403 52.2245 319.222 52.7799 320.011 53.3645C320.537 53.7518 321.056 54.1683 321.56 54.5922C321.809 54.8041 322.065 55.0233 322.306 55.2426C322.795 55.6883 323.285 56.1487 323.745 56.6164C324.681 57.5664 325.565 58.5822 326.376 59.6345L425.578 188.615C429.495 193.701 431.804 199.781 432.257 206.19C432.287 206.585 432.308 206.972 432.323 207.367C432.382 208.931 432.323 210.516 432.148 212.073C432.104 212.468 432.053 212.855 431.994 213.242C431.41 217.232 430.109 221.032 428.136 224.54L348.168 396.863C347.78 397.557 347.371 398.214 346.896 398.931C346.765 399.121 346.64 399.318 346.509 399.501C346.085 400.107 345.639 400.706 345.179 401.284L344.989 401.525C343.513 403.33 341.847 404.974 340.02 406.421C339.545 406.794 339.07 407.152 338.573 407.503C337.93 407.956 337.25 408.401 336.57 408.811C336.183 409.044 335.788 409.271 335.394 409.49C330.563 412.136 325.236 413.48 319.85 413.48L319.872 413.466ZM55.122 323.705C55.4508 325.518 55.9477 327.315 56.5908 329.04C56.7223 329.383 56.8539 329.727 56.9927 330.07C57.2704 330.743 57.5773 331.422 57.9062 332.065C58.2277 332.716 58.5785 333.359 58.9512 333.987C63.1166 341.039 69.7593 346.089 77.6662 348.208L311.827 410.937C319.558 413.013 327.684 412.033 334.714 408.189C335.094 407.978 335.474 407.766 335.84 407.539C336.49 407.144 337.133 406.728 337.754 406.289C338.222 405.961 338.682 405.617 339.135 405.259C340.875 403.878 342.468 402.307 343.878 400.582L344.061 400.356C344.499 399.808 344.93 399.23 345.332 398.653C345.457 398.47 345.581 398.288 345.705 398.105C346.158 397.418 346.545 396.789 346.889 396.176L426.857 223.853C428.772 220.448 430.014 216.823 430.569 213.016C430.62 212.643 430.672 212.27 430.715 211.898C430.876 210.407 430.935 208.894 430.883 207.403C430.869 207.031 430.847 206.658 430.825 206.278C430.394 200.154 428.187 194.352 424.445 189.492L325.236 60.5114C324.462 59.5029 323.614 58.531 322.722 57.6249C322.284 57.1791 321.823 56.7406 321.348 56.3168C321.115 56.1049 320.873 55.9003 320.632 55.6956C320.15 55.2937 319.653 54.8991 319.156 54.5264C318.403 53.971 317.622 53.4376 316.825 52.9479C315.232 51.976 313.544 51.1356 311.797 50.4633C311.22 50.2441 310.628 50.0322 310.029 49.8422C309.437 49.6522 308.83 49.4768 308.224 49.3306C305.147 48.556 301.983 48.2491 298.819 48.4391C297.379 48.5268 154.908 56.9379 152.665 57.2376C144.071 58.7503 136.077 63.1349 130.179 69.5876L56.2108 150.447C50.3573 156.849 46.74 165.143 46.0312 173.803C45.9727 174.548 45.9289 175.308 45.9143 176.053C45.8485 178.684 54.9319 320.556 55.1366 323.698L55.122 323.705Z" fill="#121212"></path>
  <path d="M108.388 231.752C96.4689 229.509 88.6132 217.948 90.8347 205.927C91.8212 200.571 94.6493 196.032 98.5224 192.839C85.0762 191.377 72.5728 200.6 70.0516 214.236C67.4062 228.559 76.7674 242.334 90.9589 245.009C102.615 247.201 113.898 241.231 119.035 231.102C115.703 232.169 112.064 232.447 108.38 231.76L108.388 231.752Z" fill="#FCC018"></path>
  <path d="M95.7308 192.686C96.6589 192.686 97.587 192.737 98.5297 192.839C94.6493 196.033 91.8285 200.571 90.842 205.927C88.6204 217.948 96.4762 229.509 108.395 231.753C109.754 232.008 111.106 232.133 112.444 232.133C114.724 232.133 116.945 231.774 119.05 231.102C114.629 239.828 105.647 245.462 95.7966 245.462C94.2035 245.462 92.5958 245.316 90.9735 245.009C76.7747 242.334 67.4135 228.559 70.0662 214.236C72.412 201.55 83.3954 192.686 95.7454 192.686M95.7454 191.224C82.4747 191.224 71.0674 200.79 68.6339 213.966C65.8424 229.056 75.7516 243.62 90.7104 246.441C92.3912 246.755 94.1085 246.916 95.8039 246.916C106.027 246.916 115.652 240.989 120.329 231.811C120.453 231.599 120.519 231.351 120.519 231.088C120.519 230.284 119.875 229.641 119.079 229.626H119.057C119.057 229.626 118.984 229.626 118.947 229.626C118.816 229.633 118.699 229.663 118.582 229.699C116.594 230.335 114.534 230.656 112.458 230.656C111.201 230.656 109.93 230.539 108.68 230.306C97.5724 228.216 90.2208 217.393 92.2962 206.183C93.1804 201.382 95.7308 197.041 99.4797 193.957C99.9327 193.584 100.123 192.971 99.9547 192.408C99.7866 191.845 99.297 191.436 98.7124 191.37C97.7331 191.261 96.7393 191.209 95.76 191.209L95.7454 191.224Z" fill="#121212"></path>
  <path d="M131.334 153.421L129.492 147.729L124.53 145.646L129.441 143.461L131.166 137.71L133.058 143.461L138.006 145.551L133.102 147.729L131.334 153.421Z" fill="#A4BAFD"></path>
  <path d="M131.166 137.71L133.058 143.461L138.006 145.551L133.102 147.729L131.334 153.421L129.492 147.729L124.53 145.646L129.441 143.461L131.166 137.71ZM131.166 136.248H131.144C130.508 136.256 129.945 136.679 129.763 137.293L128.235 142.401L123.938 144.316C123.405 144.55 123.062 145.083 123.069 145.668C123.069 146.252 123.427 146.771 123.968 146.998L128.308 148.817L129.945 153.867C130.143 154.474 130.705 154.876 131.334 154.876H131.341C131.977 154.876 132.54 154.459 132.73 153.845L134.301 148.788L138.598 146.881C139.131 146.647 139.475 146.114 139.467 145.529C139.467 144.944 139.109 144.426 138.576 144.199L134.242 142.365L132.562 137.242C132.364 136.643 131.802 136.234 131.173 136.234L131.166 136.248Z" fill="#121212"></path>
  <path d="M125.385 206.979L122.667 198.59L115.359 195.521L122.601 192.298L125.137 183.814L127.928 192.298L135.221 195.382L127.994 198.597L125.385 206.987V206.979Z" fill="#F8F9F9"></path>
  <path d="M125.137 183.814L127.928 192.298L135.222 195.382L127.994 198.598L125.385 206.987L122.667 198.598L115.359 195.528L122.601 192.306L125.137 183.821M125.137 182.36H125.115C124.479 182.367 123.917 182.791 123.734 183.405L121.388 191.246L114.76 194.198C114.227 194.432 113.883 194.966 113.89 195.55C113.89 196.135 114.248 196.654 114.789 196.88L121.483 199.686L123.997 207.44C124.194 208.046 124.757 208.448 125.385 208.448H125.393C126.028 208.448 126.591 208.032 126.781 207.418L129.193 199.664L135.813 196.719C136.347 196.486 136.69 195.952 136.683 195.368C136.683 194.783 136.325 194.264 135.792 194.038L129.112 191.217L126.533 183.368C126.335 182.769 125.773 182.36 125.144 182.36H125.137Z" fill="#121212"></path>
  <path d="M140.958 176.083L139.928 172.896L137.151 171.735L139.898 170.507L140.863 167.284L141.923 170.507L144.692 171.676L141.945 172.896L140.951 176.083H140.958Z" fill="#F8F9F9"></path>
  <path d="M140.863 167.284L141.923 170.507L144.692 171.676L141.945 172.896L140.951 176.083L139.92 172.896L137.143 171.734L139.891 170.507L140.856 167.284M140.856 165.823H140.834C140.198 165.83 139.635 166.254 139.453 166.868L138.678 169.447L136.544 170.397C136.011 170.631 135.667 171.164 135.675 171.749C135.675 172.334 136.033 172.853 136.573 173.079L138.729 173.985L139.555 176.536C139.752 177.135 140.315 177.544 140.943 177.544H140.951C141.587 177.544 142.149 177.128 142.339 176.514L143.136 173.963L145.277 173.013C145.81 172.779 146.154 172.246 146.147 171.661C146.147 171.077 145.788 170.558 145.255 170.331L143.099 169.418L142.252 166.831C142.054 166.232 141.492 165.823 140.863 165.823H140.856Z" fill="#121212"></path>
  <path d="M358.603 284.178L168.99 257.614C164.233 257.008 160.66 253.149 160.66 248.348L158.058 123.964C158.058 123.964 162.377 120.851 164.832 119.652C166.082 119.046 167.514 118.775 169.005 118.965L358.055 135.196C362.812 135.802 366.386 139.851 366.386 144.652V274.554C366.386 276.877 365.326 278.924 363.682 280.275C362.169 281.518 358.603 284.163 358.603 284.163V284.178Z" fill="#121212"></path>
  <path d="M352.815 285.939L163.765 261.641C159.008 261.034 155.435 256.986 155.435 252.185V130.351C155.435 125.886 159.352 122.437 163.78 122.999L352.83 139.23C357.587 139.836 361.161 143.885 361.161 148.686V278.587C361.161 283.052 357.244 286.502 352.815 285.939Z" fill="#F8F9F9"></path>
  <path d="M353.751 286.728C353.407 286.728 353.064 286.706 352.72 286.662L163.67 262.364C158.562 261.714 154.704 257.337 154.704 252.185V130.351C154.704 128.012 155.712 125.783 157.466 124.242C159.22 122.7 161.558 121.983 163.875 122.276L352.896 138.506C358.04 139.164 361.892 143.541 361.892 148.693V278.595C361.892 280.933 360.883 283.162 359.129 284.704C357.631 286.019 355.717 286.735 353.751 286.735V286.728ZM352.91 285.215C354.81 285.457 356.725 284.872 358.165 283.6C359.604 282.336 360.43 280.509 360.43 278.587V148.686C360.43 144.265 357.127 140.508 352.742 139.953L163.722 123.723C161.792 123.482 159.87 124.066 158.431 125.33C156.991 126.595 156.165 128.422 156.165 130.343V252.177C156.165 256.598 159.468 260.355 163.853 260.91L352.903 285.208L352.91 285.215Z" fill="#121212"></path>
  <path d="M348.796 280.582L168.282 257.373C164.818 256.935 162.223 253.982 162.223 250.497V133.259C162.223 130.278 164.84 127.976 167.799 128.348L348.314 143.497C351.778 143.936 354.372 146.888 354.372 150.374V275.672C354.372 278.653 351.756 280.955 348.796 280.582Z" fill="#303478"></path>
  <path d="M349.425 281.35C349.183 281.35 348.95 281.335 348.708 281.306L168.194 258.097C164.379 257.607 161.5 254.34 161.5 250.497V133.259C161.5 131.63 162.202 130.073 163.429 128.999C164.65 127.925 166.279 127.42 167.902 127.625L348.38 142.767C352.231 143.256 355.103 146.523 355.103 150.374V275.672C355.103 277.301 354.401 278.858 353.181 279.932C352.136 280.853 350.798 281.35 349.425 281.35ZM348.891 279.852C350.09 280.012 351.303 279.632 352.209 278.836C353.115 278.032 353.641 276.885 353.641 275.672V150.374C353.641 147.261 351.31 144.615 348.219 144.221L167.741 129.079C166.506 128.919 165.3 129.291 164.387 130.095C163.48 130.899 162.954 132.046 162.954 133.259V250.497C162.954 253.61 165.285 256.255 168.377 256.65L348.891 279.859V279.852Z" fill="#121212"></path>
  <path d="M348.847 280.195C350.148 280.363 351.456 279.961 352.435 279.092C353.415 278.23 353.985 276.98 353.985 275.672V150.374C353.985 147.086 351.529 144.294 348.27 143.878L167.755 128.729C166.455 128.568 165.147 128.963 164.167 129.832C163.188 130.695 162.618 131.944 162.618 133.252V250.489C162.618 253.778 165.073 256.57 168.333 256.986L348.847 280.195Z" fill="#303478"></path>
  <path d="M349.425 280.962C349.198 280.962 348.979 280.948 348.752 280.919L168.238 257.709C164.613 257.249 161.88 254.143 161.88 250.489V133.252C161.88 131.732 162.53 130.285 163.678 129.284C164.818 128.283 166.338 127.815 167.843 128.005L348.328 143.147C351.982 143.614 354.715 146.713 354.715 150.367V275.664C354.715 277.184 354.065 278.631 352.918 279.632C351.946 280.487 350.696 280.955 349.425 280.955V280.962ZM348.942 279.472C350.031 279.611 351.127 279.274 351.953 278.544C352.779 277.82 353.254 276.768 353.254 275.672V150.374C353.254 147.451 351.069 144.974 348.175 144.608L167.697 129.467C166.572 129.328 165.475 129.664 164.65 130.387C163.824 131.111 163.349 132.163 163.349 133.259V250.497C163.349 253.412 165.534 255.897 168.428 256.262L348.942 279.472Z" fill="#121212"></path>
  <path d="M242.52 361.208L48.0919 336.135C46.5719 335.938 45.7096 334.667 45.7315 333.395C45.7462 332.518 45.8192 326.328 45.8192 326.328L148.624 267.56C153.776 264.615 160.44 263.482 166.323 264.235L358.296 289.001C359.451 289.147 360.445 289.9 360.898 290.974L361.205 291.697C361.205 291.697 361.037 296.857 361.11 298.062C361.161 299.005 360.737 299.977 359.75 300.54L259.525 357.847C254.373 360.792 248.403 361.975 242.52 361.215V361.208Z" fill="#121212"></path>
  <path d="M242.52 354.324L48.7861 329.295C46.2138 328.967 45.5415 325.554 47.7923 324.268L147.477 267.334C152.628 264.389 158.599 263.205 164.482 263.965L358.216 288.994C360.788 289.322 361.46 292.735 359.21 294.021L259.525 350.955C254.373 353.9 248.403 355.084 242.52 354.324Z" fill="#F8F9F9"></path>
  <path d="M245.948 355.274C244.771 355.274 243.602 355.201 242.433 355.048L48.6985 330.019C47.2077 329.829 46.0604 328.755 45.7681 327.279C45.4758 325.802 46.1335 324.377 47.4342 323.632L147.118 266.698C152.373 263.694 158.577 262.467 164.577 263.234L358.311 288.263C359.802 288.453 360.949 289.527 361.241 291.003C361.533 292.479 360.876 293.904 359.575 294.65L259.891 351.584C255.66 354.003 250.807 355.267 245.948 355.267V355.274ZM242.615 353.601C248.301 354.332 254.183 353.162 259.167 350.32L358.852 293.385C359.758 292.867 359.94 291.96 359.809 291.288C359.677 290.616 359.166 289.849 358.128 289.717L164.394 264.688C158.708 263.957 152.826 265.127 147.849 267.969L48.165 324.904C47.2589 325.422 47.0762 326.329 47.2077 327.001C47.3392 327.673 47.8508 328.44 48.8885 328.572L242.623 353.601H242.615Z" fill="#121212"></path>
  <path d="M245.948 354.931C244.786 354.931 243.631 354.858 242.477 354.712L48.7423 329.683C47.405 329.515 46.3673 328.543 46.1042 327.22C45.8412 325.897 46.4331 324.604 47.6023 323.939L147.287 267.005C152.475 264.038 158.599 262.825 164.533 263.585L358.267 288.614C359.604 288.782 360.642 289.754 360.905 291.076C361.168 292.399 360.576 293.692 359.407 294.357L259.723 351.292C255.543 353.681 250.756 354.931 245.955 354.931H245.948Z" fill="#F8F9F9"></path>
  <path d="M245.948 355.662C244.757 355.662 243.558 355.588 242.381 355.435L48.6473 330.406C46.9884 330.194 45.7096 328.996 45.3881 327.359C45.0592 325.722 45.79 324.129 47.2369 323.296L146.921 266.362C152.248 263.314 158.54 262.072 164.62 262.854L358.355 287.883C360.006 288.095 361.292 289.293 361.614 290.93C361.943 292.567 361.212 294.16 359.765 294.993L260.081 351.927C255.798 354.375 250.917 355.662 245.948 355.662ZM161.054 264.089C156.377 264.089 151.722 265.309 147.645 267.633L47.9604 324.567C47.0615 325.079 46.6157 326.065 46.8131 327.074C47.0177 328.082 47.8069 328.82 48.83 328.952L242.564 353.981C243.675 354.127 244.815 354.193 245.94 354.193C250.654 354.193 255.287 352.965 259.35 350.648L359.034 293.714C359.926 293.203 360.379 292.216 360.182 291.208C359.977 290.199 359.188 289.461 358.165 289.33L164.43 264.301C163.305 264.155 162.18 264.089 161.047 264.089H161.054Z" fill="#121212"></path>
  <path d="M280.455 322.718L112.465 300.861C110.142 300.561 109.535 297.485 111.567 296.323L151.065 273.991C155.72 271.331 161.105 270.264 166.425 270.943L334.415 292.801C336.738 293.1 337.345 296.177 335.313 297.339L295.815 319.671C291.16 322.331 285.775 323.398 280.455 322.718Z" fill="#F8F9F9"></path>
  <path d="M283.546 323.647C282.479 323.647 281.419 323.581 280.36 323.442L112.37 301.585C110.997 301.409 109.937 300.415 109.667 299.056C109.396 297.697 110.003 296.374 111.201 295.687L150.707 273.355C155.464 270.637 161.083 269.526 166.513 270.22L334.502 292.077C335.876 292.253 336.936 293.247 337.206 294.606C337.477 295.965 336.87 297.288 335.671 297.975L296.166 320.307C292.337 322.499 287.945 323.647 283.538 323.647H283.546ZM280.55 321.995C285.672 322.653 290.963 321.6 295.45 319.043L334.955 296.71C335.737 296.265 335.898 295.475 335.781 294.891C335.664 294.306 335.218 293.641 334.32 293.532L166.33 271.674C161.208 271.024 155.917 272.069 151.43 274.627L111.925 296.959C111.143 297.405 110.982 298.194 111.099 298.778C111.216 299.363 111.662 300.028 112.56 300.138L280.55 321.995Z" fill="#121212"></path>
  <path d="M283.546 323.303C282.493 323.303 281.448 323.237 280.403 323.106L112.414 301.248C111.186 301.095 110.244 300.203 110.003 298.99C109.761 297.777 110.302 296.601 111.376 295.987L150.875 273.655C155.566 270.973 161.105 269.877 166.469 270.563L334.458 292.421C335.686 292.574 336.629 293.466 336.87 294.672C337.111 295.885 336.57 297.061 335.496 297.675L295.998 320.007C292.22 322.163 287.886 323.303 283.546 323.303Z" fill="#F8F9F9"></path>
  <path d="M283.546 324.034C282.464 324.034 281.375 323.968 280.308 323.829L112.312 301.965C110.77 301.767 109.579 300.657 109.279 299.129C108.972 297.602 109.652 296.118 111.004 295.351L150.509 273.019C155.34 270.264 161.04 269.131 166.557 269.84L334.553 291.705C336.095 291.902 337.287 293.013 337.586 294.54C337.893 296.067 337.213 297.551 335.862 298.325L296.356 320.658C292.476 322.872 288.047 324.048 283.538 324.048L283.546 324.034ZM163.327 271.09C159.11 271.09 154.908 272.186 151.24 274.283L111.735 296.615C110.945 297.068 110.543 297.945 110.719 298.844C110.894 299.743 111.603 300.401 112.509 300.518L280.498 322.382C281.507 322.514 282.53 322.572 283.546 322.572C287.799 322.572 291.979 321.469 295.64 319.379L335.145 297.047C335.942 296.593 336.337 295.717 336.161 294.818C335.986 293.919 335.277 293.261 334.371 293.144L166.374 271.28C165.358 271.148 164.343 271.09 163.327 271.09Z" fill="#121212"></path>
  <path d="M265.298 113.66C263.545 106.148 266.68 103.656 270.918 102.582C275.157 101.507 276.837 104.482 277.195 105.614C278.116 108.822 275.683 112.754 265.298 113.66Z" fill="#F8F9F9"></path>
  <path d="M264.736 114.442L264.59 113.828C263.026 107.134 264.984 103.342 270.735 101.873C275.135 100.755 277.305 103.561 277.89 105.388C278.328 106.922 278.087 108.413 277.188 109.721C275.449 112.25 271.364 113.865 265.364 114.384L264.736 114.442ZM272.65 103.079C272.19 103.079 271.671 103.144 271.101 103.291C267.717 104.153 264.473 105.972 265.883 112.878C272.409 112.213 274.988 110.357 275.997 108.896C276.64 107.96 276.815 106.901 276.501 105.819C276.406 105.519 275.529 103.086 272.65 103.086V103.079Z" fill="#121212"></path>
  <path d="M265.423 113.572C263.311 106.118 258.846 105.497 254.03 106.63C249.221 107.763 249.119 111.175 249.273 112.374C249.426 113.572 252.919 119.404 265.415 113.572H265.423Z" fill="#F8F9F9"></path>
  <path d="M255.937 116.854C253.898 116.854 252.408 116.379 251.348 115.794C249.477 114.764 248.652 113.244 248.549 112.469C248.44 111.614 248.169 107.266 253.862 105.921C257.947 104.964 263.669 104.686 266.124 113.375L266.292 113.974L265.73 114.237C261.55 116.189 258.356 116.854 255.93 116.854H255.937ZM257.406 106.915C256.347 106.915 255.258 107.098 254.198 107.346C249.843 108.377 249.887 111.387 250.003 112.286C250.025 112.484 250.486 113.66 252.057 114.522C254.015 115.597 257.764 116.218 264.546 113.178C262.982 108.245 260.278 106.915 257.413 106.915H257.406Z" fill="#121212"></path>
  <path d="M251.64 127.347C252.393 133.435 261.148 138.236 271.072 136.964C287.031 134.94 288.274 128.86 287.485 122.817C286.725 116.729 280.338 111.19 268.017 112.732C258.13 113.996 250.888 121.289 251.64 127.347Z" fill="#FCC018"></path>
  <path d="M267.863 137.9C262.945 137.9 258.298 136.497 254.995 133.932C252.62 132.09 251.209 129.847 250.917 127.435C250.069 120.61 258.173 113.258 267.929 112.009C276.304 110.956 281.185 113.163 283.802 115.202C286.286 117.131 287.85 119.806 288.215 122.722C288.552 125.294 288.654 128.612 286.476 131.44C283.999 134.655 278.986 136.694 271.174 137.688C270.07 137.827 268.96 137.9 267.871 137.9H267.863ZM272.08 113.192C270.86 113.192 269.544 113.273 268.112 113.455C258.276 114.712 251.684 121.779 252.371 127.252C252.62 129.262 253.84 131.177 255.901 132.77C259.635 135.671 265.269 136.964 270.991 136.234C278.408 135.291 283.093 133.435 285.322 130.541C287.163 128.151 287.09 125.338 286.768 122.904C286.454 120.369 285.08 118.037 282.91 116.349C280.944 114.822 277.561 113.192 272.087 113.192H272.08Z" fill="#121212"></path>
  <path d="M282.493 127.881C282.303 127.881 282.106 127.866 281.902 127.837C281.5 127.779 281.229 127.406 281.288 127.004C281.346 126.602 281.719 126.324 282.121 126.39C283.283 126.566 283.604 125.922 283.655 125.791C283.809 125.426 284.225 125.236 284.598 125.374C284.971 125.513 285.168 125.915 285.029 126.295C284.817 126.887 284.035 127.888 282.493 127.888V127.881Z" fill="#121212"></path>
  <path d="M265.211 137.432C263.808 137.294 262.485 136.994 261.228 136.643C255.901 131.44 255.133 120.164 259.306 115.392C260.775 114.515 262.375 113.807 264.107 113.259C257.991 119.134 260.263 131.418 265.211 137.432Z" fill="#121212"></path>
  <path d="M266.051 137.885L265.174 137.798C263.932 137.673 262.646 137.418 261.126 137.001L261.038 136.979L260.972 136.913C255.689 131.754 254.658 120.164 259.028 115.158L259.116 115.085C260.592 114.201 262.229 113.478 263.998 112.922L265.488 112.455L264.363 113.536C258.203 119.455 260.965 131.703 265.496 137.213L266.058 137.893L266.051 137.885ZM261.411 136.322C262.5 136.621 263.464 136.833 264.378 136.965C260.263 131.308 257.918 120.31 262.865 114.077C261.681 114.53 260.563 115.063 259.533 115.677C255.433 120.442 256.434 131.367 261.411 136.322Z" fill="#121212"></path>
  <path d="M267.52 112.411C267.52 112.411 270.1 112.206 271.115 112.155C267.315 117.694 266.234 131.622 274.367 136.811C273.308 137.023 272.168 137.213 270.955 137.374C270.633 137.425 270.348 137.439 270.027 137.491C262.039 130.636 263.384 116.481 267.52 112.411Z" fill="#121212"></path>
  <path d="M269.917 137.885L269.785 137.776C264.896 133.581 263.976 127.362 263.859 124.03C263.691 119.104 265.05 114.34 267.242 112.169C267.352 112.038 267.578 111.979 271.086 111.789L271.824 111.753L271.408 112.367C269.296 115.436 267.798 121.677 269.011 127.647C269.573 130.439 270.998 134.239 274.557 136.504L275.325 136.994L274.433 137.169C273.359 137.381 272.204 137.578 270.998 137.739C270.838 137.768 270.684 137.783 270.523 137.798C270.377 137.812 270.231 137.827 270.078 137.856L269.91 137.885H269.917ZM267.695 112.754C265.686 114.793 264.436 119.302 264.597 124.001C264.706 127.187 265.569 133.099 270.143 137.111C270.253 137.096 270.355 137.089 270.458 137.074C270.604 137.059 270.75 137.045 270.903 137.016C271.788 136.891 272.643 136.76 273.447 136.614C270.86 134.67 269.091 131.637 268.309 127.786C267.133 121.984 268.448 115.918 270.428 112.557C269.405 112.615 268.068 112.71 267.695 112.754Z" fill="#121212"></path>
  <path d="M257.136 135.072C253.898 133.113 251.75 130.395 251.37 127.384C251.019 124.527 252.276 121.421 254.695 118.695C252.342 123.416 253.979 132.039 257.128 135.065L257.136 135.072Z" fill="#121212"></path>
  <path d="M257.413 135.664L256.953 135.386C253.504 133.296 251.392 130.475 251.019 127.435C250.661 124.534 251.874 121.348 254.432 118.454L256.266 116.386L255.031 118.856C252.7 123.533 254.417 131.937 257.391 134.801L257.53 134.933L257.413 135.656V135.664ZM253.599 120.734C252.137 122.948 251.48 125.243 251.743 127.348C252.02 129.569 253.321 131.681 255.455 133.442C253.57 130.161 252.612 124.841 253.599 120.727V120.734Z" fill="#121212"></path>
  <path d="M281.141 121.465C280.988 121.465 280.842 121.421 280.71 121.326C280.381 121.085 280.316 120.632 280.55 120.303C281.894 118.461 283.692 118.702 284.445 119.082C284.803 119.265 284.949 119.703 284.766 120.062C284.583 120.42 284.152 120.566 283.794 120.39C283.604 120.303 282.632 119.93 281.726 121.165C281.58 121.362 281.361 121.465 281.134 121.465H281.141Z" fill="#121212"></path>
  <path d="M275.843 123.109C275.697 123.109 275.544 123.065 275.412 122.97C275.083 122.729 275.018 122.276 275.252 121.947C276.596 120.105 278.386 120.347 279.147 120.727C279.505 120.909 279.651 121.348 279.468 121.706C279.285 122.064 278.854 122.21 278.496 122.035C278.306 121.947 277.334 121.574 276.428 122.809C276.282 123.007 276.063 123.109 275.836 123.109H275.843Z" fill="#121212"></path>
  <path d="M265.065 162.505C255.988 159.925 250.734 150.484 253.307 141.407C255.886 132.331 265.328 127.077 274.404 129.649C274.455 129.657 274.506 129.679 274.557 129.693C283.633 132.273 288.888 141.714 286.315 150.791C283.736 159.867 274.294 165.121 265.218 162.549C265.167 162.541 265.116 162.519 265.065 162.505Z" fill="#F8F9F9" fill-opacity="0.976471"></path>
  <path d="M269.727 128.992V130.453C271.167 130.453 272.599 130.658 274.002 131.052C274.038 131.06 274.075 131.074 274.104 131.082C274.082 131.082 274.06 131.074 274.053 131.067L274.148 131.096C282.428 133.449 287.251 142.102 284.898 150.381C282.998 157.068 276.823 161.73 269.88 161.73C268.441 161.73 267.001 161.526 265.605 161.131C265.569 161.124 265.532 161.109 265.503 161.102C265.525 161.102 265.547 161.109 265.554 161.109L265.459 161.08C257.18 158.727 252.357 150.074 254.71 141.795C256.61 135.116 262.785 130.446 269.727 130.446V128.984M269.727 128.984C262.288 128.984 255.44 133.881 253.307 141.4C250.734 150.469 255.988 159.918 265.065 162.497C265.116 162.512 265.167 162.534 265.218 162.541C266.775 162.987 268.346 163.192 269.895 163.192C277.334 163.192 284.182 158.296 286.315 150.776C288.888 141.707 283.633 132.258 274.557 129.679C274.506 129.664 274.455 129.642 274.404 129.635C272.847 129.189 271.276 128.984 269.727 128.984Z" fill="#121212"></path>
  <path d="M266.11 158.771C259.167 156.754 255.104 149.468 257.048 142.504C258.992 135.54 266.19 131.52 273.14 133.537C273.176 133.552 273.213 133.559 273.249 133.574C280.192 135.591 284.255 142.876 282.311 149.841C280.367 156.805 273.169 160.824 266.219 158.807C266.183 158.8 266.146 158.785 266.11 158.771Z" fill="#F8F9F9" fill-opacity="0.976471"></path>
  <path d="M269.5 134.473C270.589 134.473 271.671 134.626 272.745 134.94L272.847 134.969C279.015 136.76 282.632 143.249 280.915 149.439C279.534 154.393 274.996 157.857 269.873 157.857C268.784 157.857 267.703 157.704 266.643 157.397L266.526 157.36C260.358 155.57 256.741 149.081 258.458 142.891C259.84 137.936 264.378 134.473 269.5 134.473ZM269.5 133.011C263.837 133.011 258.648 136.753 257.048 142.504C255.104 149.468 259.167 156.754 266.11 158.771L266.219 158.807C267.432 159.158 268.66 159.326 269.858 159.326C275.522 159.326 280.71 155.584 282.311 149.841C284.255 142.876 280.192 135.591 273.249 133.574C273.213 133.559 273.176 133.552 273.14 133.537C271.927 133.186 270.699 133.018 269.5 133.018V133.011Z" fill="#121212"></path>
  <path d="M273.761 144.491C273.052 144.243 272.131 144.25 270.984 144.506L268.609 145.047C267.98 145.193 267.476 145.215 267.096 145.135C266.723 145.054 266.453 144.85 266.278 144.543C266.124 144.265 266.073 143.958 266.131 143.636C266.19 143.315 266.336 143.008 266.57 142.708C266.804 142.409 267.118 142.16 267.513 141.963C267.922 141.751 268.324 141.634 268.748 141.612C269.164 141.59 269.559 141.663 269.932 141.824C270.304 141.992 270.633 142.241 270.911 142.57L272.672 141.13C272.124 140.516 271.51 140.07 270.852 139.793C270.195 139.515 269.493 139.405 268.77 139.464C268.39 139.493 268.01 139.573 267.622 139.698L266.826 138.251L264.918 139.303L265.693 140.713C265.291 141.02 264.948 141.349 264.685 141.707C264.246 142.306 263.998 142.95 263.954 143.629C263.91 144.309 264.071 144.996 264.443 145.668C265.24 147.115 266.577 147.641 268.455 147.261L271.678 146.603C272.197 146.494 272.613 146.494 272.935 146.589C273.249 146.691 273.505 146.903 273.688 147.232C273.951 147.707 273.958 148.211 273.702 148.752C273.454 149.293 273.001 149.746 272.343 150.104C271.685 150.462 270.969 150.615 270.268 150.498C269.566 150.389 268.967 150.045 268.455 149.475L266.738 150.82C267.257 151.5 267.863 151.996 268.572 152.311C269.281 152.625 270.027 152.756 270.823 152.705C271.269 152.676 271.722 152.581 272.175 152.42L272.964 153.853L274.872 152.8L274.097 151.39C274.535 151.061 274.915 150.688 275.208 150.287C275.683 149.636 275.946 148.949 276.004 148.218C276.063 147.488 275.895 146.771 275.507 146.07C275.062 145.259 274.484 144.733 273.783 144.491L273.768 144.477L273.761 144.491Z" fill="#FCC018"></path>
  <path d="M272.957 154.598C272.891 154.598 272.818 154.591 272.752 154.569C272.57 154.518 272.409 154.386 272.314 154.218L271.81 153.304C271.495 153.378 271.181 153.429 270.867 153.451C269.946 153.502 269.077 153.356 268.273 152.998C267.469 152.639 266.76 152.062 266.161 151.28C265.92 150.959 265.971 150.506 266.292 150.257L268.01 148.913C268.317 148.679 268.748 148.715 269.003 149C269.398 149.446 269.851 149.702 270.385 149.789C270.903 149.877 271.466 149.768 271.992 149.475C272.504 149.19 272.855 148.847 273.045 148.452C273.242 148.028 273.154 147.773 273.045 147.59C272.928 147.378 272.803 147.319 272.716 147.29C272.584 147.254 272.314 147.224 271.832 147.327L268.609 147.984C265.854 148.547 264.473 147.232 263.808 146.026C263.369 145.237 263.179 144.411 263.23 143.585C263.282 142.767 263.581 141.992 264.107 141.276C264.297 141.02 264.517 140.772 264.772 140.538L264.283 139.654C264.085 139.303 264.217 138.857 264.568 138.66L266.475 137.608C266.643 137.513 266.84 137.491 267.03 137.549C267.213 137.6 267.374 137.732 267.469 137.9L267.988 138.843C268.229 138.791 268.47 138.755 268.711 138.733C269.566 138.667 270.385 138.799 271.137 139.12C271.905 139.449 272.599 139.961 273.213 140.648C273.344 140.794 273.41 140.991 273.395 141.188C273.381 141.386 273.286 141.568 273.125 141.7L271.364 143.139C271.057 143.395 270.597 143.351 270.341 143.044C270.136 142.803 269.895 142.613 269.625 142.496C269.347 142.379 269.069 142.328 268.777 142.343C268.463 142.358 268.156 142.445 267.842 142.606C267.542 142.759 267.308 142.942 267.133 143.161C266.972 143.366 266.877 143.556 266.84 143.761C266.811 143.914 266.84 144.053 266.906 144.192C266.957 144.279 267.03 144.374 267.242 144.418C267.432 144.462 267.79 144.477 268.433 144.331L270.808 143.79C272.095 143.498 273.14 143.498 273.987 143.79C274.024 143.804 274.053 143.819 274.09 143.834C274.93 144.148 275.61 144.784 276.128 145.719C276.589 146.552 276.786 147.407 276.713 148.277C276.64 149.139 276.326 149.965 275.77 150.718C275.558 151.01 275.303 151.295 275.003 151.565L275.493 152.449C275.69 152.8 275.558 153.246 275.208 153.443L273.3 154.496C273.191 154.554 273.067 154.583 272.95 154.583L272.957 154.598ZM272.168 151.704C272.431 151.704 272.679 151.843 272.811 152.084L273.242 152.873L273.87 152.53L273.447 151.763C273.271 151.448 273.359 151.046 273.644 150.827C274.038 150.528 274.36 150.206 274.601 149.877C275.003 149.329 275.215 148.781 275.266 148.182C275.31 147.597 275.178 147.027 274.857 146.443C274.506 145.799 274.053 145.383 273.527 145.2C273.498 145.193 273.468 145.178 273.439 145.164C272.877 144.988 272.102 145.01 271.145 145.229L268.77 145.77C268.024 145.938 267.425 145.968 266.935 145.858C266.358 145.726 265.912 145.405 265.642 144.908C265.401 144.477 265.328 144.009 265.415 143.519C265.496 143.074 265.686 142.657 266.007 142.263C266.307 141.89 266.702 141.568 267.184 141.32C267.681 141.057 268.2 140.918 268.718 140.889C269.215 140.859 269.734 140.947 270.224 141.159C270.487 141.276 270.735 141.422 270.955 141.605L271.576 141.093C271.262 140.83 270.918 140.626 270.567 140.472C270.027 140.238 269.442 140.143 268.828 140.194C268.507 140.224 268.178 140.289 267.856 140.392C267.52 140.501 267.155 140.363 266.987 140.048L266.541 139.244L265.912 139.588L266.336 140.355C266.512 140.669 266.424 141.071 266.139 141.291C265.773 141.568 265.496 141.846 265.284 142.138C264.918 142.635 264.728 143.139 264.692 143.68C264.655 144.228 264.787 144.776 265.087 145.324C265.722 146.479 266.753 146.874 268.309 146.552L271.532 145.894C272.175 145.763 272.701 145.763 273.147 145.894C273.651 146.055 274.053 146.399 274.331 146.888C274.703 147.568 274.718 148.321 274.367 149.073C274.046 149.76 273.49 150.323 272.701 150.761C271.89 151.207 271.006 151.375 270.158 151.236C269.515 151.134 268.93 150.871 268.419 150.454L267.812 150.929C268.141 151.244 268.492 151.485 268.879 151.66C269.478 151.923 270.092 152.033 270.787 151.996C271.159 151.967 271.554 151.887 271.941 151.755C272.022 151.726 272.102 151.711 272.182 151.711L272.168 151.704Z" fill="#121212"></path>
  <path d="M272.263 197.041C269.164 187.497 274.382 177.259 283.918 174.153C293.462 171.055 303.7 176.273 306.806 185.809C306.828 185.86 306.843 185.911 306.857 185.97C309.956 195.514 304.738 205.752 295.201 208.858C285.658 211.956 275.42 206.738 272.314 197.202C272.292 197.151 272.277 197.099 272.263 197.041Z" fill="#F8F9F9" fill-opacity="0.976471"></path>
  <path d="M289.538 174.716C296.787 174.716 303.174 179.356 305.418 186.262C305.432 186.299 305.44 186.328 305.454 186.364C305.447 186.342 305.44 186.328 305.44 186.328L305.469 186.423C308.311 195.177 303.503 204.619 294.748 207.469C293.068 208.017 291.328 208.295 289.582 208.295C282.333 208.295 275.946 203.654 273.702 196.749C273.688 196.712 273.68 196.683 273.666 196.646C273.673 196.668 273.68 196.683 273.68 196.683L273.651 196.588C270.808 187.833 275.617 178.392 284.372 175.542C286.052 174.994 287.791 174.716 289.538 174.716ZM289.538 173.254C287.675 173.254 285.782 173.539 283.918 174.146C274.382 177.252 269.157 187.49 272.263 197.034C272.277 197.092 272.292 197.143 272.314 197.194C274.813 204.867 281.931 209.749 289.582 209.749C291.445 209.749 293.338 209.464 295.201 208.857C304.738 205.752 309.963 195.514 306.857 185.97C306.843 185.911 306.828 185.86 306.806 185.809C304.307 178.136 297.189 173.254 289.538 173.254Z" fill="#121212"></path>
  <path d="M276.172 195.755C273.834 188.425 277.86 180.518 285.168 178.107C292.476 175.688 300.288 179.671 302.626 187C302.641 187.037 302.648 187.081 302.663 187.117C305.001 194.447 300.975 202.346 293.667 204.765C286.366 207.184 278.547 203.201 276.209 195.872C276.194 195.835 276.187 195.791 276.172 195.755Z" fill="#F8F9F9" fill-opacity="0.976471"></path>
  <path d="M289.523 177.398V178.859C294.887 178.859 299.593 182.309 301.23 187.431L301.267 187.556C303.357 194.118 299.74 201.214 293.206 203.377C291.935 203.793 290.627 204.013 289.311 204.013C283.948 204.013 279.241 200.563 277.605 195.426L277.568 195.309C275.478 188.747 279.095 181.651 285.628 179.488C286.9 179.071 288.208 178.852 289.523 178.852V177.391M289.523 177.391C288.084 177.391 286.615 177.617 285.168 178.099C277.86 180.518 273.841 188.418 276.172 195.748C276.187 195.784 276.194 195.828 276.209 195.864C278.08 201.74 283.48 205.467 289.311 205.467C290.751 205.467 292.22 205.24 293.667 204.758C300.975 202.339 304.994 194.439 302.663 187.11C302.648 187.073 302.641 187.029 302.626 186.993C300.755 181.118 295.355 177.391 289.523 177.391Z" fill="#121212"></path>
  <path d="M293.316 194.037C293.119 193.27 292.563 192.452 291.657 191.597L289.772 189.814C289.275 189.346 288.953 188.915 288.8 188.527C288.654 188.147 288.668 187.789 288.836 187.453C288.99 187.154 289.231 186.927 289.553 186.781C289.874 186.642 290.225 186.584 290.634 186.62C291.043 186.657 291.438 186.781 291.855 187.007C292.286 187.241 292.629 187.534 292.892 187.892C293.163 188.242 293.323 188.637 293.404 189.068C293.477 189.492 293.455 189.938 293.323 190.376L295.633 191.078C295.852 190.23 295.881 189.426 295.742 188.681C295.596 187.935 295.282 187.256 294.8 186.642C294.551 186.328 294.252 186.035 293.908 185.772L294.712 184.216L292.651 183.156L291.869 184.676C291.365 184.501 290.868 184.399 290.393 184.377C289.604 184.34 288.888 184.508 288.259 184.866C287.631 185.232 287.119 185.78 286.746 186.51C285.943 188.074 286.271 189.565 287.718 190.997L290.21 193.453C290.612 193.847 290.861 194.213 290.97 194.549C291.073 194.885 291.029 195.236 290.846 195.594C290.583 196.105 290.137 196.412 289.509 196.515C288.88 196.617 288.215 196.485 287.506 196.12C286.798 195.755 286.242 195.207 285.928 194.527C285.614 193.84 285.555 193.102 285.76 192.32L283.553 191.597C283.261 192.459 283.18 193.292 283.319 194.096C283.458 194.9 283.787 195.638 284.306 196.317C284.598 196.697 284.949 197.041 285.358 197.34L284.561 198.882L286.622 199.942L287.404 198.422C287.952 198.612 288.5 198.729 289.034 198.751C289.889 198.787 290.656 198.612 291.336 198.232C292.015 197.852 292.549 197.282 292.943 196.515C293.389 195.645 293.513 194.819 293.316 194.052V194.03V194.037Z" fill="#FCC018"></path>
  <path d="M286.622 200.68C286.513 200.68 286.396 200.651 286.286 200.6L284.225 199.54C284.05 199.453 283.926 199.299 283.867 199.116C283.809 198.934 283.823 198.729 283.911 198.561L284.437 197.545C284.174 197.304 283.94 197.048 283.728 196.778C283.136 196.011 282.764 195.156 282.603 194.235C282.442 193.321 282.53 192.357 282.866 191.377C282.99 190.997 283.4 190.793 283.787 190.917L285.986 191.641C286.352 191.757 286.564 192.145 286.469 192.517C286.308 193.139 286.345 193.701 286.593 194.235C286.834 194.754 287.265 195.192 287.843 195.484C288.405 195.777 288.931 195.879 289.399 195.806C289.794 195.74 290.042 195.579 290.196 195.272C290.32 195.031 290.298 194.878 290.269 194.768C290.225 194.622 290.086 194.366 289.699 193.986L287.207 191.531C285.088 189.448 285.438 187.475 286.096 186.189C286.535 185.341 287.134 184.691 287.894 184.252C288.639 183.821 289.487 183.624 290.422 183.661C290.766 183.675 291.124 183.726 291.496 183.821L292.001 182.835C292.088 182.659 292.242 182.535 292.425 182.477C292.607 182.418 292.812 182.433 292.98 182.521L295.041 183.58C295.399 183.763 295.538 184.209 295.355 184.567L294.814 185.612C295.011 185.802 295.194 185.999 295.362 186.211C295.925 186.92 296.29 187.709 296.451 188.564C296.612 189.426 296.575 190.34 296.334 191.282C296.283 191.472 296.159 191.641 295.983 191.736C295.808 191.838 295.603 191.852 295.413 191.801L293.104 191.1C292.724 190.983 292.505 190.581 292.615 190.201C292.71 189.865 292.731 189.536 292.673 189.222C292.615 188.9 292.49 188.615 292.3 188.367C292.096 188.089 291.833 187.87 291.496 187.68C291.175 187.504 290.868 187.402 290.568 187.38C290.291 187.358 290.05 187.388 289.852 187.483C289.684 187.556 289.575 187.665 289.494 187.819C289.443 187.914 289.399 188.06 289.494 188.286C289.567 188.484 289.772 188.813 290.283 189.302L292.169 191.085C293.185 192.043 293.798 192.956 294.032 193.877C294.04 193.913 294.047 193.95 294.054 193.986C294.266 194.907 294.113 195.879 293.601 196.88C293.141 197.764 292.505 198.444 291.701 198.897C290.905 199.343 289.998 199.548 289.012 199.511C288.617 199.496 288.208 199.438 287.784 199.328L287.28 200.315C287.148 200.563 286.893 200.709 286.63 200.709L286.622 200.68ZM285.548 198.576L286.308 198.97L286.761 198.101C286.929 197.779 287.302 197.626 287.653 197.742C288.157 197.918 288.632 198.013 289.07 198.028C289.808 198.049 290.422 197.918 290.985 197.604C291.54 197.289 291.971 196.829 292.3 196.193C292.666 195.492 292.768 194.834 292.615 194.249C292.607 194.22 292.6 194.184 292.6 194.154C292.417 193.541 291.935 192.861 291.168 192.138L289.282 190.354C288.698 189.806 288.325 189.295 288.135 188.805C287.908 188.235 287.938 187.658 288.201 187.132C288.435 186.679 288.793 186.335 289.268 186.131C289.699 185.941 290.166 185.86 290.7 185.911C291.211 185.955 291.701 186.109 292.205 186.386C292.724 186.671 293.155 187.037 293.477 187.475C293.798 187.899 294.018 188.396 294.12 188.951C294.171 189.258 294.186 189.572 294.156 189.887L295.063 190.164C295.114 189.704 295.099 189.258 295.019 188.842C294.902 188.221 294.631 187.643 294.222 187.124C294.003 186.847 293.747 186.598 293.462 186.379C293.185 186.167 293.097 185.78 293.258 185.466L293.725 184.559L292.965 184.165L292.512 185.034C292.344 185.356 291.971 185.509 291.628 185.392C291.16 185.232 290.744 185.144 290.356 185.129C289.691 185.107 289.121 185.232 288.617 185.524C288.106 185.816 287.689 186.269 287.382 186.869C286.725 188.14 286.995 189.295 288.215 190.501L290.707 192.956C291.197 193.438 291.511 193.899 291.65 194.359C291.803 194.892 291.745 195.426 291.475 195.952C291.102 196.668 290.459 197.121 289.604 197.26C288.822 197.384 287.996 197.224 287.156 196.792C286.286 196.347 285.628 195.674 285.248 194.856C284.956 194.22 284.846 193.548 284.912 192.839L284.05 192.554C283.955 193.051 283.948 193.526 284.028 193.994C284.145 194.688 284.423 195.309 284.868 195.894C285.117 196.215 285.424 196.515 285.775 196.778C286.06 196.99 286.147 197.384 285.986 197.699L285.526 198.59L285.548 198.576Z" fill="#121212"></path>
  <path d="M260.358 264.301C245.984 261.56 236.557 247.69 239.29 233.324C242.031 218.949 255.901 209.522 270.268 212.255C270.348 212.263 270.421 212.285 270.509 212.299C284.883 215.04 294.31 228.91 291.577 243.277C288.836 257.651 274.966 267.078 260.6 264.345C260.519 264.337 260.446 264.315 260.358 264.301Z" fill="#F8F9F9" fill-opacity="0.976471"></path>
  <path d="M265.291 213.242C266.855 213.242 268.441 213.396 269.997 213.688C270.034 213.688 270.034 213.688 270.07 213.702H270.114L270.238 213.739C283.794 216.319 292.717 229.451 290.145 243.006C287.901 254.801 277.568 263.358 265.583 263.358C264.012 263.358 262.434 263.205 260.877 262.912C260.841 262.912 260.841 262.912 260.804 262.898H260.76L260.636 262.861C247.088 260.282 238.158 247.15 240.73 233.594C242.973 221.799 253.306 213.242 265.291 213.242ZM265.291 211.781C252.824 211.781 241.709 220.615 239.29 233.316C236.557 247.69 245.984 261.561 260.358 264.294C260.446 264.308 260.519 264.33 260.6 264.337C262.273 264.659 263.939 264.805 265.576 264.805C278.043 264.805 289.158 255.97 291.577 243.269C294.31 228.895 284.883 215.025 270.509 212.292C270.421 212.277 270.348 212.256 270.268 212.248C268.594 211.927 266.928 211.781 265.291 211.781Z" fill="#121212"></path>
  <path d="M261.469 258.389C250.464 256.226 243.185 245.527 245.224 234.5C247.263 223.465 257.845 216.267 268.857 218.43C268.916 218.445 268.974 218.452 269.04 218.467C280.045 220.63 287.324 231.329 285.285 242.356C283.246 253.391 272.665 260.589 261.652 258.426C261.593 258.411 261.535 258.404 261.469 258.389Z" fill="#F8F9F9" fill-opacity="0.976471"></path>
  <path d="M264.933 219.512C266.146 219.512 267.366 219.629 268.572 219.87L268.755 219.907C278.964 221.909 285.731 231.869 283.838 242.1C282.201 250.942 274.521 257.359 265.569 257.359C264.356 257.359 263.135 257.242 261.93 257.001L261.849 256.986L261.747 256.964C251.538 254.962 244.764 245.001 246.664 234.771C248.301 225.928 255.981 219.512 264.933 219.512ZM264.933 218.051C255.433 218.051 247.022 224.788 245.224 234.5C243.185 245.535 250.456 256.226 261.469 258.389C261.528 258.404 261.586 258.411 261.652 258.426C262.967 258.681 264.283 258.806 265.576 258.806C275.076 258.806 283.487 252.068 285.285 242.356C287.324 231.321 280.053 220.63 269.04 218.467C268.981 218.452 268.923 218.445 268.857 218.431C267.542 218.175 266.226 218.051 264.933 218.051Z" fill="#121212"></path>
  <path d="M271.32 235.282C270.195 234.997 268.77 235.128 267.038 235.691L263.435 236.853C262.485 237.16 261.71 237.27 261.111 237.197C260.527 237.123 260.073 236.853 259.767 236.4C259.489 235.991 259.365 235.53 259.408 235.019C259.452 234.507 259.635 234.018 259.964 233.528C260.293 233.038 260.738 232.607 261.316 232.242C261.915 231.862 262.529 231.621 263.172 231.533C263.808 231.438 264.429 231.504 265.028 231.701C265.627 231.906 266.168 232.249 266.643 232.724L269.164 230.262C268.229 229.385 267.228 228.785 266.168 228.442C265.108 228.098 264.02 228.025 262.902 228.215C262.317 228.318 261.74 228.486 261.162 228.742L259.737 226.622L256.931 228.508L258.327 230.576C257.75 231.102 257.267 231.657 256.909 232.257C256.31 233.243 256.018 234.266 256.04 235.326C256.062 236.385 256.405 237.423 257.07 238.417C258.502 240.543 260.643 241.172 263.486 240.324L268.375 238.863C269.164 238.622 269.8 238.563 270.312 238.665C270.816 238.775 271.232 239.067 271.561 239.557C272.029 240.251 272.109 241.04 271.795 241.91C271.481 242.78 270.845 243.54 269.88 244.19C268.916 244.84 267.827 245.162 266.731 245.089C265.635 245.016 264.655 244.563 263.793 243.752L261.323 246.061C262.222 247.033 263.23 247.727 264.356 248.114C265.481 248.502 266.658 248.604 267.885 248.414C268.572 248.304 269.259 248.092 269.932 247.785L271.342 249.883L274.148 247.997L272.752 245.929C273.381 245.359 273.914 244.738 274.316 244.073C274.967 242.999 275.281 241.903 275.266 240.77C275.251 239.637 274.901 238.548 274.199 237.511C273.403 236.327 272.431 235.589 271.313 235.304L271.291 235.289L271.32 235.282Z" fill="#FCC018"></path>
  <path d="M271.371 250.614C271.327 250.614 271.276 250.614 271.232 250.599C271.042 250.562 270.874 250.453 270.765 250.292L269.683 248.684C269.135 248.889 268.58 249.042 268.024 249.13C266.68 249.335 265.379 249.225 264.144 248.801C262.916 248.377 261.798 247.625 260.812 246.55C260.541 246.258 260.556 245.798 260.848 245.52L263.318 243.211C263.603 242.948 264.042 242.948 264.319 243.211C265.065 243.912 265.876 244.285 266.804 244.351C267.717 244.417 268.645 244.146 269.493 243.576C270.319 243.021 270.867 242.378 271.13 241.654C271.364 241.004 271.313 240.463 270.977 239.959C270.757 239.63 270.502 239.44 270.173 239.367C269.793 239.287 269.267 239.352 268.602 239.55L263.713 241.011C260.534 241.961 258.1 241.223 256.478 238.812C255.74 237.708 255.345 236.539 255.323 235.333C255.294 234.142 255.623 232.98 256.295 231.862C256.588 231.38 256.946 230.919 257.392 230.459L256.339 228.895C256.23 228.734 256.193 228.537 256.23 228.347C256.266 228.157 256.376 227.989 256.537 227.879L259.343 225.994C259.679 225.767 260.132 225.855 260.358 226.191L261.462 227.828C261.9 227.675 262.346 227.558 262.799 227.477C264.042 227.265 265.262 227.353 266.417 227.726C267.586 228.106 268.682 228.771 269.683 229.706C269.829 229.845 269.91 230.035 269.917 230.232C269.917 230.43 269.837 230.627 269.698 230.766L267.177 233.229C266.892 233.506 266.431 233.506 266.153 233.229C265.759 232.834 265.306 232.549 264.816 232.381C264.305 232.213 263.808 232.169 263.303 232.242C262.755 232.315 262.251 232.512 261.732 232.841C261.243 233.155 260.87 233.506 260.592 233.915C260.337 234.303 260.19 234.683 260.161 235.063C260.132 235.399 260.212 235.699 260.395 235.976C260.585 236.254 260.848 236.407 261.228 236.459C261.718 236.524 262.39 236.415 263.23 236.144L266.833 234.982C268.711 234.376 270.246 234.237 271.525 234.566C271.568 234.573 271.612 234.595 271.649 234.61C272.898 234.953 273.98 235.786 274.857 237.087C275.632 238.242 276.033 239.469 276.041 240.741C276.055 242.005 275.697 243.247 274.981 244.431C274.66 244.972 274.243 245.505 273.746 246.01L274.798 247.574C275.025 247.91 274.937 248.363 274.601 248.589L271.795 250.475C271.671 250.555 271.532 250.599 271.386 250.599L271.371 250.614ZM269.953 247.055C270.187 247.055 270.421 247.172 270.56 247.376L271.568 248.867L273.162 247.793L272.175 246.331C271.97 246.032 272.022 245.622 272.292 245.381C272.891 244.84 273.373 244.27 273.717 243.693C274.294 242.729 274.572 241.779 274.565 240.77C274.557 239.791 274.243 238.826 273.629 237.913C272.935 236.882 272.109 236.239 271.174 236.005C271.13 235.998 271.093 235.984 271.057 235.969C270.085 235.75 268.813 235.889 267.272 236.385L263.669 237.547C262.609 237.891 261.74 238.008 261.031 237.913C260.242 237.81 259.598 237.423 259.175 236.795C258.802 236.239 258.641 235.611 258.7 234.939C258.751 234.303 258.977 233.704 259.372 233.104C259.759 232.52 260.271 232.03 260.936 231.606C261.623 231.168 262.346 230.89 263.084 230.795C263.8 230.685 264.546 230.751 265.269 230.992C265.759 231.16 266.212 231.402 266.628 231.716L268.097 230.284C267.425 229.757 266.702 229.363 265.956 229.122C265.028 228.822 264.049 228.756 263.04 228.924C262.514 229.012 261.981 229.173 261.477 229.399C261.155 229.538 260.775 229.429 260.578 229.136L259.555 227.624L257.962 228.698L258.948 230.159C259.153 230.459 259.102 230.861 258.831 231.109C258.276 231.614 257.852 232.11 257.545 232.622C257.012 233.506 256.763 234.383 256.785 235.304C256.807 236.225 257.114 237.131 257.691 238C258.933 239.842 260.768 240.368 263.296 239.615L268.185 238.154C269.091 237.876 269.844 237.81 270.48 237.942C271.181 238.095 271.758 238.497 272.19 239.148C272.789 240.032 272.891 241.07 272.504 242.151C272.138 243.167 271.4 244.059 270.312 244.789C269.193 245.542 267.944 245.885 266.702 245.812C265.657 245.739 264.699 245.374 263.837 244.724L262.397 246.075C263.084 246.697 263.83 247.15 264.619 247.42C265.642 247.771 266.68 247.859 267.798 247.69C268.412 247.595 269.04 247.398 269.647 247.12C269.742 247.077 269.851 247.055 269.953 247.055Z" fill="#121212"></path>
</svg>
