<?xml version="1.0" encoding="UTF-8"?>
<svg xmlns="http://www.w3.org/2000/svg" width="57" height="56" viewBox="0 0 57 56" fill="none">
  <g id="Icon_android_NEW">
    <path id="Vector (Stroke)" fill-rule="evenodd" clip-rule="evenodd" d="M28.5 54.2236C42.9829 54.2236 54.7236 42.4829 54.7236 28C54.7236 13.5171 42.9829 1.77637 28.5 1.77637C14.0171 1.77637 2.27637 13.5171 2.27637 28C2.27637 42.4829 14.0171 54.2236 28.5 54.2236ZM56.5 28C56.5 43.464 43.964 56 28.5 56C13.036 56 0.5 43.464 0.5 28C0.5 12.536 13.036 0 28.5 0C43.964 0 56.5 12.536 56.5 28Z" fill="#121212"></path>
    <path id="Vector" d="M38.1677 20.0244L41.1831 14.46C41.3829 14.0914 41.3118 13.8071 40.9699 13.6117C40.6013 13.4385 40.3171 13.5274 40.1217 13.8649L37.0619 19.4738C34.3707 18.2836 31.5241 17.6885 28.5176 17.6885C25.5111 17.6885 22.6644 18.2836 19.9732 19.4738L16.9134 13.8649C16.7136 13.5274 16.4294 13.4385 16.0652 13.6117C15.7233 13.8116 15.6522 14.0914 15.8521 14.46L18.8719 20.0244C15.8121 21.5832 13.374 23.7592 11.5621 26.5481C9.75023 29.3415 8.83984 32.3924 8.83984 35.7053H48.1509C48.1509 32.3924 47.2449 29.337 45.4286 26.5481C43.6167 23.7592 41.1919 21.5832 38.1632 20.0244H38.1677ZM20.7237 28.1202C20.3996 28.4489 20.0088 28.6087 19.5558 28.6087C19.1028 28.6087 18.7209 28.4444 18.41 28.1202C18.0992 27.796 17.9437 27.4052 17.9437 26.9523C17.9437 26.4993 18.0992 26.1085 18.41 25.7843C18.7209 25.4601 19.1028 25.2958 19.5558 25.2958C20.0088 25.2958 20.3996 25.4601 20.7237 25.7843C21.0479 26.1129 21.2122 26.4993 21.2122 26.9523C21.2122 27.4052 21.0479 27.796 20.7237 28.1202ZM38.6384 28.1202C38.3276 28.4489 37.9456 28.6087 37.4927 28.6087C37.0397 28.6087 36.6489 28.4444 36.3247 28.1202C36.0005 27.796 35.8362 27.4052 35.8362 26.9523C35.8362 26.4993 36.0005 26.1085 36.3247 25.7843C36.6489 25.4601 37.0397 25.2958 37.4927 25.2958C37.9456 25.2958 38.3276 25.4601 38.6384 25.7843C38.9493 26.1129 39.1047 26.4993 39.1047 26.9523C39.1047 27.4052 38.9493 27.796 38.6384 28.1202Z" fill="black"></path>
  </g>
</svg>
