<?xml version="1.0" encoding="UTF-8"?>
<svg xmlns="http://www.w3.org/2000/svg" width="32" height="33" viewBox="0 0 32 33" fill="none">
  <path d="M5.48779 27.0111C-0.345003 21.2314 -0.384832 11.8206 5.39043 5.98779C11.1701 0.154997 20.5809 0.115167 26.4137 5.89043C26.4469 5.9192 26.4779 5.9546 26.5111 5.98779C32.3439 11.7675 32.3837 21.1783 26.6084 27.0111C20.8287 32.8461 11.4179 32.8837 5.58294 27.1084C5.54975 27.0797 5.51877 27.0443 5.48558 27.0111H5.48779Z" fill="white"></path>
  <path fill-rule="evenodd" clip-rule="evenodd" d="M26.0619 6.24768C20.4252 0.666535 11.3309 0.705154 5.74573 6.34154C0.164537 11.9783 0.203201 21.0727 5.83972 26.6579C5.85141 26.6694 5.86244 26.6815 5.87279 26.694L5.89375 26.7159C5.90641 26.729 5.91046 26.7326 5.91045 26.7326L5.9104 26.7325C5.91874 26.7398 5.92683 26.7473 5.93467 26.755C11.5738 32.3364 20.6681 32.2997 26.2531 26.6612C31.8343 21.0244 31.7957 11.9301 26.1591 6.34491L26.1575 6.3433C26.1455 6.33129 26.1345 6.3199 26.1257 6.31066L26.1029 6.28692C26.0902 6.27382 26.0862 6.27019 26.0862 6.27019L26.0863 6.27023C26.0779 6.26298 26.0698 6.25547 26.0619 6.24768ZM5.10622 27.3388C-0.893326 21.3621 -0.924406 11.6569 5.03513 5.63795L5.03526 5.63781C11.0062 -0.388011 20.7262 -0.432204 26.7558 5.52745C26.7831 5.55209 26.806 5.57547 26.8219 5.59189C26.832 5.60238 26.8389 5.60957 26.8444 5.61537C26.8518 5.6231 26.8568 5.62833 26.864 5.63554C32.8921 11.6098 32.9328 21.3364 26.9637 27.3648L26.9637 27.3649C20.9926 33.3932 11.2725 33.4348 5.2409 27.4753C5.21359 27.4507 5.19064 27.4273 5.17477 27.4109C5.16465 27.4004 5.15779 27.3932 5.15227 27.3874C5.14465 27.3795 5.13959 27.3741 5.13203 27.3666C5.12302 27.3576 5.11442 27.3483 5.10622 27.3388Z" fill="#15162E"></path>
  <path d="M7.74936 24.7515C3.17418 20.2168 3.1404 12.8294 7.67505 8.25424C12.2097 3.67906 19.5971 3.64529 24.1723 8.17994C24.197 8.2047 24.2218 8.22947 24.2466 8.25424C28.8217 12.7889 28.8555 20.1763 24.3209 24.7515C19.7862 29.3266 12.3988 29.3604 7.82366 24.8258C7.79889 24.801 7.77412 24.7762 7.74936 24.7515Z" fill="white"></path>
  <path fill-rule="evenodd" clip-rule="evenodd" d="M23.8196 8.53437C19.4405 4.19485 12.3703 4.22735 8.03018 8.60622C3.68997 12.9852 3.72223 20.056 8.10133 24.3963L8.10291 24.3979L8.17563 24.4706C8.17595 24.4709 8.17627 24.4713 8.17659 24.4716C12.5557 28.8108 19.6258 28.7783 23.9657 24.3995C28.306 20.0205 28.2737 12.9497 23.8946 8.60936L23.893 8.60779L23.8203 8.53506C23.8201 8.53483 23.8198 8.5346 23.8196 8.53437ZM7.31993 7.90226C12.0489 3.131 19.7529 3.09572 24.5242 7.82481L24.5258 7.82638L24.5985 7.89912C24.5988 7.89934 24.599 7.89956 24.5992 7.89979C29.3698 12.6288 29.4049 20.3323 24.676 25.1034C19.947 29.8747 12.243 29.91 7.47168 25.1809L7.4701 25.1793L7.39738 25.1066C7.39713 25.1063 7.39689 25.1061 7.39664 25.1058C2.62612 20.3768 2.59108 12.6734 7.31993 7.90226Z" fill="#15162E"></path>
  <path d="M19.7501 16.9456C19.3088 16.4503 18.5906 16.0585 17.5909 15.7725L15.5172 15.1736C14.9678 15.016 14.567 14.8224 14.3081 14.595C14.0559 14.3721 13.9276 14.0996 13.9276 13.7889C13.9276 13.5075 14.0176 13.2485 14.2 13.0211C14.3824 12.7937 14.6256 12.6203 14.9385 12.492C15.2515 12.3637 15.596 12.3029 15.9877 12.3141C16.393 12.3231 16.76 12.4087 17.091 12.5708C17.422 12.7284 17.6944 12.9581 17.9173 13.244C18.1357 13.5322 18.2843 13.8677 18.3586 14.2437L20.34 13.8812C20.1757 13.1675 19.8942 12.5641 19.5024 12.0642C19.1107 11.5644 18.6153 11.1839 18.0277 10.9159C17.7215 10.7763 17.3882 10.6727 17.037 10.6097V9.14844H15.1051V10.5737C14.6638 10.639 14.2585 10.747 13.896 10.9159C13.2971 11.1929 12.8311 11.5846 12.5046 12.0935C12.1781 12.6023 12.0092 13.2035 12.0092 13.8857C12.0092 15.3515 12.822 16.3309 14.4409 16.8375L17.2239 17.7044C17.6742 17.844 17.9961 18.0174 18.2033 18.229C18.4059 18.4429 18.5095 18.7131 18.5095 19.0508C18.5095 19.5304 18.2956 19.9267 17.8701 20.2396C17.4445 20.5526 16.8996 20.7102 16.2354 20.7102C15.5712 20.7102 14.952 20.5166 14.4589 20.1316C13.9636 19.7443 13.6416 19.2197 13.493 18.5622L11.5859 18.8684C11.7008 19.616 11.9574 20.2644 12.3672 20.8093C12.777 21.3542 13.3039 21.7752 13.9411 22.0769C14.3036 22.2458 14.6931 22.3651 15.1096 22.4327V23.8782H17.0415V22.4529C17.5211 22.3831 17.9714 22.2593 18.3744 22.0724C19.0229 21.7707 19.5227 21.3497 19.8784 20.8093C20.2342 20.2689 20.4121 19.6407 20.4121 18.927C20.4121 18.1097 20.1892 17.4522 19.7479 16.9614L19.7434 16.9456H19.7501Z" fill="#FCC018"></path>
  <path fill-rule="evenodd" clip-rule="evenodd" d="M14.6052 9.14844C14.6052 8.8723 14.8291 8.64844 15.1052 8.64844H17.037C17.3132 8.64844 17.537 8.8723 17.537 9.14844V10.21C17.7793 10.2757 18.013 10.3597 18.2351 10.461C18.8913 10.7601 19.452 11.1892 19.896 11.7558C20.3382 12.3199 20.6485 12.9923 20.8273 13.769C20.858 13.9021 20.8329 14.0419 20.7578 14.156C20.6828 14.2701 20.5644 14.3485 20.4301 14.3731L18.4487 14.7356C18.1798 14.7848 17.9212 14.6089 17.8682 14.3407C17.8081 14.0364 17.6901 13.7727 17.5209 13.5487C17.3414 13.3191 17.1291 13.1427 16.8761 13.0222L16.8711 13.0199C16.6113 12.8926 16.3166 12.8216 15.9767 12.814L15.9735 12.8139C15.6441 12.8045 15.3701 12.8555 15.1283 12.9546C14.8799 13.0565 14.7109 13.1834 14.5901 13.3339C14.4783 13.4734 14.4276 13.6222 14.4276 13.7889C14.4276 13.9437 14.4846 14.0834 14.6387 14.2198C14.8183 14.3774 15.1386 14.5448 15.6551 14.693L15.656 14.6933L17.7284 15.2918C17.7286 15.2919 17.7288 15.2919 17.729 15.292C18.7731 15.5907 19.5935 16.0181 20.1235 16.613C20.15 16.6427 20.1724 16.6749 20.1907 16.709C20.6836 17.3004 20.9121 18.057 20.9121 18.927C20.9121 19.7278 20.7112 20.4538 20.2961 21.0842C19.8845 21.7095 19.3095 22.1888 18.5854 22.5258L18.5848 22.526C18.2567 22.6782 17.9059 22.791 17.5415 22.8704V23.8782C17.5415 24.1543 17.3177 24.3782 17.0415 24.3782H15.1097C14.8336 24.3782 14.6097 24.1543 14.6097 23.8782V22.8403C14.3034 22.7641 14.01 22.6606 13.73 22.5302L13.7272 22.5288C13.0212 22.1945 12.429 21.7232 11.9677 21.1098C11.5014 20.4898 11.2173 19.7612 11.0918 18.9444C11.0501 18.6727 11.2354 18.4183 11.5067 18.3748L13.4138 18.0686C13.6744 18.0267 13.9226 18.1946 13.9808 18.452C14.1061 19.0064 14.3697 19.4271 14.767 19.7377C15.1615 20.0457 15.6687 20.2102 16.2355 20.2102C16.8201 20.2102 17.2537 20.0724 17.5739 19.8368C17.8871 19.6065 18.0096 19.3528 18.0096 19.0508C18.0096 18.8281 17.9465 18.6862 17.8432 18.5758C17.7174 18.4488 17.4847 18.3087 17.0759 18.182L14.2917 17.3147C13.4202 17.042 12.7173 16.6271 12.2324 16.0396C11.7422 15.4456 11.5093 14.7168 11.5093 13.8857C11.5093 13.1181 11.7003 12.4212 12.0838 11.8235C12.4671 11.226 13.0105 10.7747 13.6856 10.4624C13.976 10.3272 14.2844 10.2285 14.6052 10.1573V9.14844ZM19.3157 17.2127C18.9549 16.8432 18.3554 16.5113 17.4534 16.2533L17.4522 16.2529L15.3794 15.6542C15.3792 15.6542 15.379 15.6541 15.3788 15.6541C14.7974 15.4872 14.3164 15.2677 13.9782 14.9707L13.977 14.9696C13.6272 14.6604 13.4276 14.2554 13.4276 13.7889C13.4276 13.3927 13.5571 13.0237 13.81 12.7083C14.054 12.404 14.3714 12.1842 14.7489 12.0294C15.1326 11.872 15.5469 11.8015 16.0005 11.8143C16.4696 11.8249 16.9075 11.9246 17.3086 12.1206C17.7154 12.3148 18.0465 12.5963 18.3117 12.9366L18.3159 12.942C18.4843 13.1642 18.6175 13.4082 18.715 13.6702L19.7083 13.4885C19.5592 13.0596 19.3576 12.6899 19.109 12.3727C18.7695 11.9396 18.3395 11.6076 17.8203 11.3709C17.5536 11.2493 17.2605 11.1578 16.9487 11.1018C16.7105 11.0591 16.537 10.8518 16.537 10.6097V9.64844H15.6052V10.5737C15.6052 10.8216 15.4236 11.032 15.1784 11.0683C14.771 11.1286 14.4149 11.2258 14.1072 11.3692L14.106 11.3697C13.5836 11.6113 13.195 11.9434 12.9255 12.3635C12.656 12.7835 12.5093 13.2889 12.5093 13.8857C12.5093 14.5205 12.6828 15.0142 13.0037 15.4031C13.3299 15.7983 13.8427 16.1263 14.5899 16.3602C14.5898 16.3602 14.59 16.3603 14.5899 16.3602L17.372 17.2268C17.8607 17.3783 18.2715 17.5838 18.5607 17.8793L18.5663 17.8851C18.8667 18.2021 19.0096 18.6 19.0096 19.0508C19.0096 19.708 18.7043 20.2468 18.1664 20.6424C17.6355 21.0329 16.9793 21.2102 16.2355 21.2102C15.474 21.2102 14.7429 20.9876 14.1513 20.5257C13.6801 20.1573 13.3431 19.6851 13.1383 19.1256L12.1814 19.2792C12.3063 19.7478 12.5017 20.1561 12.7669 20.5088C13.1249 20.9847 13.586 21.3553 14.1538 21.6244C14.4728 21.7728 14.8175 21.8788 15.1897 21.9391C15.4318 21.9784 15.6097 22.1874 15.6097 22.4327V23.3782H16.5415V22.4529C16.5415 22.2046 16.7238 21.9939 16.9695 21.9581C17.4107 21.8939 17.8127 21.7817 18.1638 21.619C18.7364 21.3525 19.1611 20.9898 19.4609 20.5344C19.7573 20.0841 19.9121 19.5537 19.9121 18.927C19.9121 18.203 19.7168 17.6746 19.3761 17.2957C19.3531 17.2701 19.3329 17.2422 19.3157 17.2127Z" fill="#121212"></path>
</svg>
