<?xml version="1.0" encoding="UTF-8"?>
<svg xmlns="http://www.w3.org/2000/svg" width="272" height="272" viewBox="0 0 272 272" fill="none">
  <path d="M39.7176 108.344L97.9828 42.1096C100.973 38.7109 104.998 36.3833 109.435 35.4872C113.873 34.5912 118.486 35.1744 122.558 37.1521L207.864 78.4982C210.675 79.8609 213.14 81.8386 215.075 84.2935C217.011 86.7431 218.368 89.6009 219.047 92.6497L237.09 173.953C238.145 178.709 237.493 183.682 235.239 187.998C232.991 192.319 229.29 195.707 224.794 197.568L133.38 235.405C130.596 236.555 127.595 237.085 124.589 236.958C121.577 236.831 118.635 236.051 115.957 234.668L45.762 198.406C42.3846 196.662 39.5585 194.021 37.5808 190.782C35.6031 187.537 34.5586 183.809 34.5586 180.013V122.024C34.5586 116.986 36.3931 112.124 39.7176 108.344Z" fill="#C1D9FD"></path>
  <path d="M125.444 237.51C125.152 237.51 124.855 237.504 124.563 237.488C121.499 237.361 118.439 236.55 115.714 235.139L45.519 198.878C42.0567 197.086 39.1565 194.382 37.1257 191.057C35.1003 187.728 34.0293 183.91 34.0293 180.013V122.024C34.0293 116.859 35.9063 111.875 39.3208 107.994L97.5861 41.7597C100.635 38.2921 104.808 35.8796 109.336 34.9676C113.858 34.0556 118.641 34.6601 122.798 36.6749L208.104 78.021C210.967 79.4102 213.528 81.4621 215.5 83.9647C217.473 86.462 218.883 89.4259 219.573 92.533L237.616 173.836C238.697 178.703 238.024 183.82 235.718 188.242C233.416 192.664 229.609 196.153 225.002 198.056L133.588 235.892C131.027 236.953 128.227 237.504 125.449 237.504L125.444 237.51ZM39.7185 108.344L40.1162 108.694C36.8712 112.379 35.0897 117.114 35.0897 122.024V180.013C35.0897 183.714 36.1077 187.346 38.0324 190.506C39.9571 193.666 42.7142 196.238 46.0068 197.94L116.202 234.201C118.795 235.537 121.7 236.311 124.611 236.433C127.533 236.56 130.486 236.03 133.179 234.917L224.594 197.081C228.973 195.267 232.584 191.959 234.774 187.754C236.958 183.55 237.6 178.693 236.577 174.064L218.533 92.761C217.876 89.8077 216.54 86.9923 214.663 84.6222C212.786 82.2468 210.357 80.2956 207.632 78.9754L122.326 37.6293C118.381 35.7152 113.837 35.1426 109.537 36.0068C105.237 36.8711 101.276 39.1669 98.3761 42.4595L40.1109 108.694L39.7132 108.344H39.7185Z" fill="#121212"></path>
  <path d="M149.444 98.8903C149.153 98.8903 148.914 98.6517 148.914 98.3601V83.9489C148.914 83.6572 149.153 83.4186 149.444 83.4186C149.736 83.4186 149.974 83.6572 149.974 83.9489V98.3601C149.974 98.6517 149.736 98.8903 149.444 98.8903Z" fill="#121212"></path>
  <path d="M149.434 98.8903C149.275 98.8903 149.116 98.8161 149.01 98.6782L145.203 93.6571C145.028 93.4238 145.071 93.0898 145.304 92.9148C145.537 92.7398 145.871 92.7822 146.046 93.0155L149.853 98.0367C150.028 98.2699 149.986 98.604 149.752 98.779C149.657 98.8532 149.546 98.885 149.434 98.885V98.8903Z" fill="#121212"></path>
  <path d="M149.466 98.9009C149.355 98.9009 149.243 98.8638 149.148 98.7948C148.915 98.6199 148.867 98.2858 149.047 98.0525L152.854 93.0314C153.029 92.7981 153.363 92.7504 153.596 92.9307C153.83 93.1056 153.877 93.4397 153.697 93.673L149.89 98.6941C149.784 98.832 149.625 98.9062 149.466 98.9062V98.9009Z" fill="#121212"></path>
  <path d="M171.602 98.8903C171.311 98.8903 171.072 98.6517 171.072 98.3601V83.9489C171.072 83.6572 171.311 83.4186 171.602 83.4186C171.894 83.4186 172.133 83.6572 172.133 83.9489V98.3601C172.133 98.6517 171.894 98.8903 171.602 98.8903Z" fill="#121212"></path>
  <path d="M171.592 98.8903C171.433 98.8903 171.274 98.8161 171.168 98.6782L167.361 93.6571C167.186 93.4238 167.229 93.0898 167.462 92.9148C167.695 92.7398 168.029 92.7822 168.204 93.0155L172.011 98.0367C172.186 98.2699 172.144 98.604 171.911 98.779C171.815 98.8532 171.704 98.885 171.592 98.885V98.8903Z" fill="#121212"></path>
  <path d="M171.624 98.9009C171.513 98.9009 171.402 98.8638 171.306 98.7948C171.073 98.6199 171.025 98.2858 171.205 98.0525L175.012 93.0314C175.187 92.7981 175.521 92.7504 175.755 92.9307C175.988 93.1056 176.036 93.4397 175.855 93.673L172.048 98.6941C171.942 98.832 171.783 98.9062 171.624 98.9062V98.9009Z" fill="#121212"></path>
  <path d="M216.094 104.086L216.083 104.192L209.037 184.546H94.8125L101.907 103.657C102.013 102.474 102.925 101.568 104.017 101.568H213.973C215.224 101.568 216.205 102.74 216.083 104.092L216.094 104.086Z" fill="#F8F9F9"></path>
  <path d="M209.037 185.071H94.8129C94.6645 185.071 94.5213 185.008 94.4206 184.902C94.3198 184.79 94.2721 184.647 94.2827 184.499L101.377 103.609C101.504 102.14 102.639 101.038 104.017 101.038H213.973C214.694 101.038 215.362 101.34 215.866 101.891C216.396 102.469 216.667 103.254 216.619 104.06C216.619 104.086 216.619 104.118 216.619 104.145L216.608 104.251L209.562 184.594C209.541 184.87 209.307 185.077 209.032 185.077L209.037 185.071ZM95.3908 184.011H208.549L215.553 104.108C215.553 104.108 215.553 104.06 215.553 104.039C215.601 103.503 215.431 102.978 215.081 102.602C214.785 102.273 214.387 102.093 213.968 102.093H104.012C103.19 102.093 102.512 102.782 102.432 103.699L95.3855 184.011H95.3908Z" fill="#121212"></path>
  <path d="M208.289 184.149H60.1257C58.4397 184.149 57.0664 185.517 57.0664 187.208V192.075H211.619V187.478C211.619 185.639 210.129 184.149 208.289 184.149Z" fill="#121212"></path>
  <path d="M101.116 177.548C100.83 177.229 100.682 176.8 100.724 176.371L106.721 108.598C106.79 107.819 107.421 107.231 108.173 107.231H208.935C209.344 107.231 209.715 107.395 209.996 107.702C210.282 108.015 210.431 108.45 210.388 108.879L204.391 176.652C204.323 177.431 203.697 178.019 202.939 178.019H102.177C101.768 178.019 101.397 177.855 101.116 177.548Z" fill="#FCC018"></path>
  <path d="M202.938 178.55H102.176C101.619 178.55 101.105 178.322 100.723 177.903C100.336 177.473 100.145 176.895 100.198 176.317L106.195 108.551C106.285 107.496 107.139 106.695 108.178 106.695H208.94C209.497 106.695 210.011 106.923 210.393 107.342C210.785 107.766 210.976 108.349 210.923 108.927L204.926 176.694C204.836 177.749 203.982 178.55 202.943 178.55H202.938ZM101.508 177.187C101.688 177.383 101.921 177.489 102.176 177.489H202.938C203.42 177.489 203.818 177.107 203.866 176.604L209.862 108.832C209.889 108.551 209.793 108.259 209.608 108.058C209.428 107.861 209.194 107.755 208.935 107.755H108.173C107.69 107.755 107.292 108.137 107.245 108.641L101.248 176.413C101.221 176.699 101.312 176.98 101.502 177.187H101.508Z" fill="#121212"></path>
  <path d="M150.087 184.552H52.7401C51.2025 184.552 49.9512 185.803 49.9512 187.341V191.678H153.12V187.59C153.12 185.92 151.763 184.557 150.087 184.557V184.552Z" fill="#F8F9F9"></path>
  <path d="M153.12 192.203H49.956C49.6644 192.203 49.4258 191.964 49.4258 191.672V187.335C49.4258 185.506 50.9157 184.016 52.7449 184.016H150.092C152.059 184.016 153.655 185.612 153.655 187.579V191.667C153.655 191.959 153.417 192.197 153.125 192.197L153.12 192.203ZM50.4809 191.142H152.59V187.585C152.59 186.206 151.466 185.082 150.087 185.082H52.7396C51.4936 185.082 50.4809 186.095 50.4809 187.341V191.148V191.142Z" fill="#121212"></path>
  <path d="M119.849 189.106H92.8296C91.6472 189.106 90.6875 188.094 90.6875 186.848V184.536H91.7479V186.848C91.7479 187.51 92.2304 188.046 92.8296 188.046H119.849C120.443 188.046 120.931 187.51 120.931 186.848V184.536H121.991V186.848C121.991 188.094 121.032 189.106 119.849 189.106Z" fill="#121212"></path>
  <path d="M140.155 51.5527L139.63 51.4573C138.601 51.2664 137.552 51.171 136.512 51.171H136.502C126.974 51.171 119.222 58.9545 119.217 68.5249C119.217 73.1643 121.009 77.5226 124.275 80.8047C127.536 84.0867 131.878 85.8947 136.496 85.8947H187.312C193.972 85.8417 199.751 81.2925 201.389 74.8026C203.378 66.9396 198.627 58.9174 190.796 56.9185L190.175 56.7594L190.313 56.1338C191.936 48.8645 188.76 41.3991 182.408 37.5498C178.474 35.1638 173.845 34.4586 169.38 35.5721C164.916 36.6802 161.151 39.4691 158.776 43.4245L158.484 43.9123L157.843 43.6419C150.987 40.8424 143.14 44.1668 140.351 51.0543L140.15 51.5527H140.155Z" fill="#4F94F6"></path>
  <path d="M136.492 86.4249C131.731 86.4249 127.261 84.5586 123.9 81.1758C120.538 77.793 118.688 73.3021 118.688 68.5249C118.688 58.6629 126.683 50.6408 136.503 50.6408C137.584 50.6408 138.666 50.7415 139.726 50.9377L139.827 50.9589L139.864 50.8634C141.269 47.3958 143.942 44.6811 147.388 43.2284C150.819 41.7809 154.61 41.7544 158.045 43.1594L158.268 43.2496L158.321 43.1594C160.771 39.0821 164.652 36.2083 169.254 35.0631C173.856 33.9178 178.623 34.6442 182.684 37.1044C189.227 41.0704 192.499 48.7638 190.834 56.2557L190.807 56.3777L190.929 56.4095C199.042 58.4773 203.967 66.7858 201.905 74.9352C200.208 81.6477 194.211 86.3719 187.318 86.4302H136.497L136.492 86.4249ZM136.508 51.7012C127.266 51.7012 119.748 59.2461 119.743 68.5249C119.743 73.0211 121.482 77.2469 124.642 80.4282C127.802 83.6095 132.012 85.3592 136.487 85.3645H187.303C193.708 85.3115 199.291 80.916 200.865 74.6701C202.78 67.088 198.198 59.3575 190.654 57.4328L190.033 57.2737C189.757 57.2048 189.582 56.9238 189.646 56.6428L189.784 56.0171C191.353 48.9706 188.273 41.7332 182.122 38.0057C178.31 35.694 173.824 35.01 169.498 36.0864C165.171 37.1627 161.524 39.8615 159.222 43.6949L158.931 44.1827C158.798 44.4107 158.512 44.5009 158.268 44.4001L157.626 44.1297C154.45 42.836 150.956 42.8572 147.786 44.1933C144.599 45.5401 142.128 48.0427 140.829 51.2505L140.628 51.7489C140.532 51.9822 140.288 52.1201 140.034 52.0723C140.023 52.0723 140.013 52.0723 139.997 52.067L139.509 51.9769C138.512 51.7913 137.494 51.7012 136.487 51.7012H136.508Z" fill="#121212"></path>
  <path d="M177.567 52.4223C176.512 51.9557 175.362 52.4223 174.879 53.3713C172.721 53.6471 170.775 54.6067 169.153 56.2239C169.047 56.3299 168.898 56.3724 168.761 56.3405C168.57 56.2981 168.172 56.2292 168.156 56.2239C168.039 56.2027 168.024 56.0648 168.077 55.8952C168.479 54.7128 169.105 53.6895 169.996 52.8305C170.531 53.0214 171.136 53.0002 171.687 52.6927C172.451 52.2685 172.88 51.3671 172.705 50.5135C172.451 49.2198 171.125 48.5305 169.948 48.9812C169.031 49.3417 168.506 50.2802 168.654 51.2187C167.292 52.4806 166.348 54.0712 165.871 55.9058C165.844 56.0118 165.754 56.0807 165.653 56.0807H164.657C163.702 56.0807 162.605 56.0807 161.433 56.1019L149.333 56.0595C149.217 56.0595 149.1 56.0542 148.984 56.0542C145.442 56.0542 142.499 58.8219 142.308 62.385C142.138 65.6246 144.312 68.44 147.34 69.2088C147.403 69.2248 147.435 69.2884 147.403 69.3467C147.032 69.9777 145.129 73.1908 144.493 74.2671C144.424 74.3943 144.535 74.5375 144.673 74.4845L150.765 72.406C150.834 72.3848 150.913 72.3901 150.977 72.4325C154.842 74.9193 160.198 75.9956 166.051 76.0592C171.327 76.1016 175.977 72.2364 176.443 66.9819C176.804 62.9046 174.715 59.2885 171.486 57.4169C171.327 57.3214 171.306 57.0934 171.449 56.9821C172.52 56.1603 173.718 55.646 175.017 55.4657C175.287 55.858 175.685 56.1603 176.184 56.2822C177.398 56.6057 178.649 55.7573 178.755 54.4477C178.819 53.6046 178.331 52.7669 177.562 52.4276L177.567 52.4223ZM148.74 67.3107C146.216 67.1781 144.265 65.0149 144.397 62.491C144.524 60.0573 146.534 58.1486 148.968 58.1486H149.312L161.041 58.191C161.157 58.191 161.21 58.3395 161.12 58.4084L152.075 66.1018C151.136 66.8706 150.129 67.3107 148.984 67.3107H148.745H148.74ZM154.837 72.0667C153.151 71.388 151.725 70.5291 150.564 69.4952C150.452 69.3997 150.505 69.2248 150.648 69.1876C151.582 68.9543 153.411 67.6447 153.84 67.3266C153.883 67.3001 153.936 67.3266 153.936 67.3743C153.962 68.8483 154.307 70.37 154.964 71.9341C154.991 72.0137 154.922 72.0932 154.837 72.0614V72.0667ZM161.581 73.6839C160.309 73.5354 159.111 73.3286 157.992 73.0582C157.896 73.037 157.817 72.9734 157.774 72.8885C156.232 70.2003 155.712 67.6818 156.237 65.4019C156.253 65.3224 156.295 65.2534 156.364 65.2057L159.344 62.6766C159.386 62.6395 159.461 62.6766 159.439 62.7402C159.052 63.8219 158.808 65.0095 158.798 66.2768C158.782 68.843 159.747 71.2873 161.666 73.5619C161.709 73.6096 161.666 73.6892 161.603 73.6786H161.592L161.581 73.6839ZM174.285 67.4061C173.644 71.2608 170.139 73.9808 166.231 73.9543H166.184C165.346 73.9543 164.545 73.6096 163.962 73.0052C161.9 70.879 160.855 68.615 160.871 66.2874C160.892 62.9629 163.029 60.2164 164.222 58.9333C164.354 58.7848 164.535 58.6629 164.726 58.5621C165.224 58.2864 165.786 58.1592 166.359 58.1592H166.507C171.306 58.1592 175.112 62.4592 174.291 67.4008V67.4061H174.285Z" fill="#F8F9F9"></path>
  <path d="M165.435 64.1453C165.626 65.158 166.448 65.9798 167.461 66.176C169.279 66.526 170.849 64.9618 170.509 63.1326C170.319 62.1199 169.491 61.298 168.479 61.1072C166.66 60.7625 165.096 62.3214 165.435 64.1506V64.1453ZM167.318 62.157C167.774 62.157 168.145 62.5281 168.145 62.9894C168.145 63.4507 167.774 63.8219 167.318 63.8219C166.862 63.8219 166.485 63.4507 166.485 62.9894C166.485 62.5281 166.856 62.157 167.318 62.157Z" fill="#F8F9F9"></path>
  <path d="M155.135 142.766C154.551 142.766 154.074 142.288 154.074 141.705V118.344C154.074 117.761 154.551 117.283 155.135 117.283C155.718 117.283 156.195 117.761 156.195 118.344V141.705C156.195 142.288 155.718 142.766 155.135 142.766Z" fill="#F8F9F9"></path>
  <path d="M170.303 148.672H139.328C138.745 148.672 138.268 148.195 138.268 147.612V141.705C138.268 141.122 138.745 140.645 139.328 140.645C139.911 140.645 140.388 141.122 140.388 141.705V146.551H169.243V141.705C169.243 141.122 169.72 140.645 170.303 140.645C170.886 140.645 171.364 141.122 171.364 141.705V147.612C171.364 148.195 170.886 148.672 170.303 148.672Z" fill="#F8F9F9"></path>
  <path d="M155.128 142.776C154.879 142.776 154.624 142.686 154.423 142.506C153.988 142.113 153.946 141.445 154.338 141.01L164.348 129.786C164.741 129.346 165.409 129.309 165.844 129.701C166.278 130.093 166.321 130.761 165.928 131.196L155.918 142.421C155.706 142.654 155.42 142.776 155.128 142.776Z" fill="#F8F9F9"></path>
  <path d="M155.134 142.776C154.843 142.776 154.551 142.654 154.344 142.421L144.334 131.196C143.947 130.761 143.984 130.088 144.419 129.701C144.853 129.309 145.527 129.351 145.914 129.786L155.924 141.01C156.311 141.445 156.274 142.119 155.84 142.506C155.638 142.686 155.384 142.776 155.134 142.776Z" fill="#F8F9F9"></path>
  <path d="M185.818 156.912C162.918 156.896 133.248 156.875 122.786 156.896C120.565 156.896 118.789 158.545 118.577 160.761C118.317 163.417 120.406 165.713 123.073 165.713H185.813C188.114 165.713 190.028 163.937 190.203 161.641C190.394 159.091 188.385 156.917 185.824 156.912H185.818Z" fill="#F8F9F9"></path>
  <path d="M161.302 161.456C161.509 161.933 161.477 162.961 160.618 162.919C159.759 162.877 158.179 162.251 157.855 161.519C157.548 160.825 156.768 158.884 160.013 158.683C160.586 158.645 161.121 159.043 161.19 159.61C161.19 159.616 161.19 159.626 161.19 159.632C161.286 160.517 161.095 160.978 161.302 161.456Z" fill="#66AFF9"></path>
  <path d="M158.391 164.621C158.8 164.059 158.609 163.486 158.275 163.025C158.275 163.025 158.275 163.025 158.269 163.02C158.078 162.755 157.845 162.527 157.649 162.362C157.649 162.362 157.649 162.362 157.644 162.362C157.628 162.346 157.559 162.299 157.49 162.24C157.304 162.097 157.129 161.933 156.981 161.753C156.477 161.143 156.159 160.464 156.594 159.796C157.177 158.9 156.652 157.235 156.117 156.901C141.992 156.896 129.187 156.89 122.946 156.901C120.794 156.901 118.896 158.449 118.604 160.581C118.228 163.311 120.348 165.719 123.079 165.719H157.113C157.543 165.432 158.344 164.701 158.397 164.621H158.391Z" fill="#66AFF9"></path>
  <path d="M185.809 166.243H123.068C121.647 166.243 120.285 165.639 119.33 164.589C118.376 163.539 117.909 162.124 118.047 160.708C118.291 158.195 120.285 156.371 122.787 156.366C133.37 156.344 163.831 156.366 185.819 156.381C187.203 156.381 188.481 156.943 189.425 157.956C190.353 158.958 190.83 160.316 190.729 161.678C190.538 164.239 188.38 166.243 185.814 166.243H185.809ZM137.214 157.415C131.09 157.415 126.016 157.415 122.787 157.426C120.841 157.426 119.293 158.852 119.102 160.809C118.996 161.927 119.362 163.041 120.12 163.873C120.873 164.706 121.95 165.183 123.074 165.183H185.814C187.829 165.183 189.525 163.608 189.674 161.599C189.753 160.512 189.393 159.473 188.651 158.677C187.914 157.882 186.906 157.442 185.824 157.442C170.544 157.431 151.17 157.415 137.22 157.415H137.214Z" fill="#121212"></path>
  <path d="M56.9576 120.389C73.2126 120.389 86.3898 107.212 86.3898 90.9571C86.3898 74.7021 73.2126 61.5249 56.9576 61.5249C40.7026 61.5249 27.5254 74.7021 27.5254 90.9571C27.5254 107.212 40.7026 120.389 56.9576 120.389Z" fill="#F9C900"></path>
  <path d="M56.9624 120.925C40.4409 120.925 27 107.484 27 90.9624C27 74.4409 40.4409 61 56.9624 61C73.4839 61 86.9248 74.4409 86.9248 90.9624C86.9248 107.484 73.4839 120.925 56.9624 120.925ZM56.9624 62.0551C41.0242 62.0551 28.0604 75.0189 28.0604 90.9571C28.0604 106.895 41.0242 119.859 56.9624 119.859C72.9007 119.859 85.8644 106.895 85.8644 90.9571C85.8644 75.0189 72.9007 62.0551 56.9624 62.0551Z" fill="#15162E"></path>
  <path d="M56.1569 103.004V83.2584L51.6289 86.0261V81.5617L56.1569 78.847H60.282V103.004H56.1569Z" fill="#121212"></path>
</svg>
