<?xml version="1.0" encoding="UTF-8"?>
<svg xmlns="http://www.w3.org/2000/svg" width="272" height="273" viewBox="0 0 272 273" fill="none">
  <path d="M39.2359 108.458L97.5064 42.2338C100.476 38.8404 104.505 36.5075 108.959 35.6061C113.413 34.7047 118.026 35.288 122.108 37.2497L207.42 78.6065C210.23 79.985 212.722 81.9468 214.631 84.3858C216.593 86.8248 217.918 89.688 218.607 92.7632L236.635 174.045C237.695 178.817 237.059 183.748 234.779 188.096C232.552 192.39 228.841 195.784 224.334 197.693L132.925 235.55C130.168 236.716 127.145 237.247 124.123 237.088C121.101 236.982 118.185 236.186 115.481 234.808L45.2803 198.541C41.8869 196.791 39.0768 194.14 37.115 190.906C35.1532 187.672 34.0928 183.96 34.0928 180.143V122.137C34.0928 117.1 35.9485 112.275 39.2359 108.458Z" fill="#C1D9FD"></path>
  <path d="M124.972 237.671C124.653 237.671 124.388 237.671 124.07 237.671C120.995 237.565 117.92 236.717 115.216 235.338L45.0682 199.018C41.6218 197.216 38.7057 194.511 36.6908 191.171C34.676 187.831 33.6156 184.013 33.6156 180.143V122.137C33.6156 116.994 35.4714 112.01 38.9177 108.086L97.1353 41.9157C100.211 38.4693 104.346 36.0303 108.906 35.129C113.413 34.2276 118.238 34.8108 122.373 36.8257L207.685 78.1824C210.548 79.5609 213.093 81.6288 215.108 84.1208C217.123 86.6128 218.501 89.582 219.191 92.7103L237.218 173.992C238.278 178.87 237.642 183.96 235.309 188.414C233.029 192.815 229.212 196.314 224.599 198.223L133.19 236.08C130.539 237.088 127.782 237.671 124.972 237.671ZM39.66 108.829C36.4257 112.54 34.623 117.259 34.623 122.137V180.143C34.623 183.854 35.6304 187.46 37.5922 190.641C39.501 193.822 42.2581 196.367 45.5454 198.064L115.746 234.331C118.344 235.656 121.26 236.451 124.176 236.557C127.092 236.663 130.062 236.133 132.766 235.02L224.175 197.163C228.575 195.36 232.181 192.019 234.355 187.831C236.529 183.642 237.165 178.764 236.158 174.151L218.13 92.8693C217.494 89.9001 216.115 87.09 214.26 84.704C212.404 82.3181 209.965 80.3563 207.208 79.0838L121.843 37.7801C117.92 35.8713 113.36 35.288 109.065 36.1364C104.77 36.9847 100.794 39.3177 97.9306 42.605L39.66 108.829Z" fill="#121212"></path>
  <path d="M135.629 125.318C137.113 135.976 152.596 144.088 169.934 141.596C197.823 137.566 199.838 126.909 198.247 116.305C196.763 105.647 185.363 96.1566 163.836 99.2318C146.551 101.777 134.091 114.767 135.629 125.318Z" fill="#FCC018"></path>
  <path d="M163.571 142.55C155.406 142.55 147.718 140.27 142.15 136.135C138.121 133.113 135.682 129.401 135.099 125.371C133.614 114.979 145.597 101.353 163.783 98.7016C178.152 96.6338 186.582 100.292 191.142 103.686C195.384 106.867 198.088 111.321 198.777 116.252C199.414 120.599 199.679 126.22 196.126 130.992C191.991 136.506 183.454 140.164 169.987 142.073C167.813 142.444 165.692 142.55 163.571 142.55ZM171.789 99.1788C169.404 99.1788 166.805 99.3379 163.942 99.762C146.339 102.307 134.727 115.35 136.159 125.265C136.689 128.977 138.969 132.476 142.787 135.339C149.573 140.43 159.701 142.55 169.881 141.119C183.03 139.21 191.354 135.711 195.278 130.408C198.618 125.902 198.353 120.599 197.717 116.411C197.081 111.798 194.483 107.556 190.453 104.587C187.007 101.936 181.121 99.1788 171.789 99.1788Z" fill="#121212"></path>
  <path d="M159.117 100.981C155.83 87.8852 161.238 83.4314 168.608 81.4166C175.978 79.4018 179 84.5448 179.69 86.5596C181.386 92.1269 177.251 99.0727 159.117 100.981Z" fill="#F8F9F9"></path>
  <path d="M159.17 101.512H158.746L158.64 101.088C155.777 89.741 158.852 83.5375 168.502 80.8864C175.607 78.9246 179.212 83.3784 180.22 86.3476C180.962 88.7866 180.591 91.1726 179.212 93.2934C177.198 96.2626 172.161 100.133 159.17 101.512ZM171.789 81.4697C170.888 81.4697 169.881 81.5757 168.767 81.8938C157.527 84.9691 157.739 92.8693 159.542 100.398C171.736 99.0198 176.508 95.4673 178.311 92.7102C179.531 90.8545 179.849 88.7866 179.212 86.6658C179.106 86.4537 177.357 81.4697 171.789 81.4697Z" fill="#121212"></path>
  <path d="M159.329 100.823C155.406 87.8324 147.559 86.878 139.181 88.9989C130.804 91.1197 130.698 97.1111 131.016 99.179C131.334 101.3 137.591 111.374 159.329 100.823Z" fill="#F8F9F9"></path>
  <path d="M142.416 106.072C139.181 106.072 136.795 105.329 135.099 104.428C132.076 102.837 130.645 100.398 130.486 99.2319C130.38 98.3836 130.168 96.1037 131.334 93.8237C132.66 91.2257 135.258 89.3699 139.022 88.4156C144.059 87.143 147.93 87.2491 151.111 88.6807C155.088 90.4834 157.951 94.407 159.807 100.61L159.913 101.035L159.488 101.247C152.172 104.852 146.604 106.072 142.416 106.072ZM145.385 88.6276C143.529 88.6276 141.514 88.8927 139.287 89.476C131.069 91.5438 131.281 97.3762 131.546 99.0729C131.599 99.6031 132.554 101.883 135.576 103.474C139.234 105.435 146.233 106.443 158.693 100.504C156.148 92.4452 152.012 88.6276 145.385 88.6276Z" fill="#121212"></path>
  <path d="M189.552 124.576C189.287 124.576 189.021 124.576 188.703 124.523C188.438 124.47 188.226 124.205 188.226 123.94C188.279 123.675 188.544 123.463 188.809 123.463C191.566 123.834 192.256 121.978 192.309 121.872C192.415 121.607 192.68 121.448 192.998 121.554C193.263 121.66 193.422 121.925 193.316 122.243C193.051 123.092 191.885 124.576 189.552 124.576Z" fill="#121212"></path>
  <path d="M187.06 113.389C186.954 113.389 186.848 113.336 186.742 113.282C186.476 113.123 186.423 112.805 186.635 112.54C189.127 108.988 192.468 110.525 192.468 110.525C192.733 110.631 192.839 110.95 192.733 111.215C192.627 111.48 192.309 111.586 192.044 111.48C191.938 111.427 189.499 110.313 187.537 113.123C187.378 113.336 187.219 113.389 187.06 113.389Z" fill="#121212"></path>
  <path d="M177.834 116.411C177.728 116.411 177.622 116.358 177.516 116.305C177.251 116.146 177.198 115.828 177.41 115.562C179.902 112.01 183.242 113.548 183.242 113.548C183.507 113.654 183.613 113.972 183.507 114.237C183.401 114.502 183.083 114.608 182.818 114.502C182.712 114.449 180.273 113.336 178.311 116.146C178.152 116.358 177.993 116.411 177.834 116.411Z" fill="#121212"></path>
  <path d="M140.242 112.275C137.06 116.411 135.523 121.236 136.106 125.212C136.636 128.924 138.916 132.423 142.734 135.286C143.158 135.605 143.582 135.923 144.059 136.188C140.242 130.674 138.068 119.698 140.242 112.275Z" fill="#121212"></path>
  <path d="M169.191 99.2849C167.495 99.391 165.745 99.55 163.942 99.8151C162.988 99.9742 162.034 100.133 161.079 100.345C155.512 108.988 154.239 130.408 166.646 141.967C167.76 141.914 168.82 141.755 169.934 141.596C172.002 141.278 173.91 140.96 175.713 140.589C161.874 131.787 163.624 108.776 169.191 99.2849Z" fill="#121212"></path>
  <path d="M156.625 101.724C152.861 103.049 149.255 104.322 146.233 106.549C141.62 115.828 143.688 131.522 150.687 139.952C153.497 140.907 156.519 141.543 159.754 141.861C149.202 129.083 149.361 110.048 156.625 101.724Z" fill="#121212"></path>
  <path d="M141.514 167.046C132.607 158.191 132.554 143.823 141.355 134.915C150.21 126.007 164.579 125.954 173.486 134.756C173.539 134.809 173.592 134.862 173.645 134.915C182.553 143.77 182.606 158.138 173.804 167.046C164.95 175.954 150.581 176.007 141.673 167.205C141.62 167.152 141.567 167.099 141.514 167.046Z" fill="white"></path>
  <path d="M157.527 129.242C163.253 129.242 168.661 131.469 172.797 135.498C172.797 135.498 172.797 135.498 172.85 135.551L172.903 135.604L172.956 135.657C181.439 144.035 181.492 157.82 173.115 166.304C169.032 170.439 163.571 172.719 157.739 172.719C152.012 172.719 146.604 170.493 142.469 166.463C142.469 166.463 142.469 166.463 142.416 166.41L142.363 166.357L142.31 166.304C133.826 157.926 133.773 144.141 142.15 135.657C146.233 131.522 151.694 129.242 157.527 129.242ZM157.527 128.181C151.694 128.181 145.809 130.408 141.408 134.915C132.607 143.823 132.66 158.192 141.567 167.046C141.62 167.099 141.673 167.152 141.726 167.205C146.18 171.606 151.959 173.78 157.739 173.78C163.571 173.78 169.457 171.553 173.857 167.046C182.659 158.139 182.606 143.77 173.698 134.915C173.645 134.862 173.592 134.809 173.539 134.756C169.085 130.355 163.306 128.181 157.527 128.181Z" fill="#15162E"></path>
  <path d="M145.226 163.387C138.333 156.601 138.28 145.466 145.12 138.626C151.906 131.734 163.041 131.681 169.881 138.52C169.934 138.573 169.934 138.573 169.987 138.626C176.88 145.413 176.933 156.548 170.093 163.387C163.306 170.28 152.172 170.333 145.332 163.494C145.279 163.441 145.226 163.387 145.226 163.387Z" fill="white"></path>
  <path d="M157.527 134.438C161.874 134.438 166.01 136.135 169.085 139.21L169.138 139.263L169.191 139.316C175.66 145.731 175.66 156.124 169.297 162.592C166.169 165.721 162.034 167.47 157.58 167.47C153.232 167.47 149.096 165.774 146.021 162.698L145.915 162.592C139.446 156.177 139.446 145.784 145.809 139.316C148.937 136.188 153.073 134.438 157.527 134.438ZM157.527 133.377C153.02 133.377 148.513 135.127 145.067 138.574C138.28 145.466 138.333 156.548 145.173 163.335C145.226 163.388 145.226 163.388 145.279 163.441C148.672 166.834 153.126 168.531 157.633 168.531C162.14 168.531 166.646 166.781 170.093 163.335C176.88 156.442 176.827 145.36 169.987 138.574C169.934 138.521 169.934 138.521 169.881 138.467C166.434 135.074 161.981 133.377 157.527 133.377Z" fill="#15162E"></path>
  <path d="M163.2 151.617C162.564 150.874 161.45 150.291 159.966 149.867L156.837 148.966C155.989 148.754 155.406 148.435 155.035 148.117C154.664 147.799 154.451 147.375 154.451 146.898C154.451 146.474 154.611 146.102 154.876 145.731C155.141 145.413 155.512 145.148 155.989 144.936C156.466 144.724 156.996 144.671 157.58 144.671C158.163 144.671 158.746 144.83 159.223 145.042C159.701 145.254 160.125 145.625 160.443 146.049C160.761 146.474 160.973 147.004 161.079 147.534L164.048 147.004C163.783 145.943 163.359 145.042 162.776 144.3C162.193 143.557 161.45 142.974 160.549 142.55C160.072 142.338 159.595 142.179 159.064 142.073V139.899H156.148V142.02C155.512 142.126 154.876 142.285 154.345 142.55C153.444 142.974 152.755 143.557 152.278 144.3C151.8 145.042 151.535 145.943 151.535 147.004C151.535 149.231 152.755 150.662 155.194 151.458L159.382 152.783C160.072 152.995 160.549 153.26 160.867 153.578C161.185 153.897 161.344 154.321 161.344 154.798C161.344 155.54 161.026 156.123 160.39 156.601C159.754 157.078 158.958 157.29 157.951 157.29C156.943 157.29 156.042 157.025 155.3 156.442C154.557 155.858 154.08 155.063 153.868 154.109L151.005 154.586C151.164 155.699 151.588 156.707 152.172 157.502C152.808 158.297 153.603 158.934 154.557 159.411C155.088 159.676 155.671 159.835 156.307 159.941V162.115H159.223V159.994C159.966 159.888 160.602 159.729 161.238 159.411C162.193 158.934 162.988 158.35 163.518 157.502C164.048 156.707 164.313 155.752 164.313 154.692C164.207 153.366 163.889 152.412 163.2 151.617Z" fill="#FCC018"></path>
  <path d="M159.17 162.592H156.254C155.936 162.592 155.724 162.38 155.724 162.062V160.312C155.194 160.206 154.717 160.047 154.292 159.835C153.232 159.358 152.384 158.669 151.747 157.767C151.111 156.866 150.634 155.805 150.475 154.639C150.422 154.374 150.634 154.056 150.899 154.056L153.762 153.579C154.027 153.526 154.292 153.738 154.345 154.003C154.558 154.904 154.929 155.54 155.618 156.071C156.254 156.548 157.05 156.813 157.951 156.813C158.799 156.813 159.542 156.601 160.072 156.23C160.602 155.858 160.814 155.434 160.814 154.851C160.814 154.48 160.708 154.215 160.496 154.003C160.231 153.738 159.807 153.526 159.276 153.366L155.088 152.041C152.437 151.193 151.058 149.549 151.058 147.11C151.058 145.997 151.323 144.989 151.906 144.141C152.437 143.292 153.232 142.656 154.239 142.179C154.664 141.967 155.194 141.808 155.724 141.702V140.005C155.724 139.687 155.936 139.475 156.254 139.475H159.17C159.489 139.475 159.701 139.687 159.701 140.005V141.755C160.125 141.861 160.496 141.967 160.867 142.179C161.821 142.603 162.67 143.239 163.306 144.035C163.942 144.83 164.419 145.837 164.685 146.951C164.738 147.11 164.685 147.216 164.632 147.375C164.526 147.481 164.419 147.587 164.26 147.587L161.291 148.117C161.026 148.17 160.708 147.958 160.655 147.693C160.549 147.216 160.39 146.792 160.072 146.421C159.807 146.05 159.435 145.784 159.011 145.572C158.587 145.36 158.11 145.254 157.58 145.254C157.05 145.254 156.625 145.307 156.201 145.466C155.83 145.625 155.512 145.837 155.3 146.103C155.088 146.368 155.035 146.633 155.035 146.898C155.035 147.216 155.141 147.481 155.406 147.693C155.724 147.958 156.254 148.223 156.996 148.435L160.125 149.337C161.715 149.814 162.882 150.45 163.624 151.246C163.624 151.246 163.677 151.299 163.677 151.352C164.419 152.2 164.738 153.26 164.738 154.586C164.738 155.752 164.419 156.813 163.836 157.714C163.253 158.616 162.405 159.305 161.344 159.782C160.814 159.994 160.284 160.206 159.648 160.312V162.009C159.701 162.327 159.435 162.592 159.17 162.592ZM156.784 161.532H158.64V159.941C158.64 159.676 158.852 159.464 159.117 159.411C159.807 159.305 160.443 159.146 160.973 158.881C161.874 158.457 162.511 157.926 163.041 157.184C163.518 156.442 163.73 155.593 163.73 154.639C163.73 153.526 163.465 152.677 162.882 152.041L162.829 151.988C162.246 151.352 161.238 150.821 159.86 150.45L156.731 149.549C155.83 149.284 155.141 148.966 154.717 148.542C154.239 148.117 153.974 147.534 153.974 146.951C153.974 146.421 154.133 145.89 154.504 145.466C154.823 145.042 155.247 144.724 155.83 144.512C156.36 144.3 156.943 144.194 157.633 144.194C158.322 144.194 158.958 144.353 159.488 144.618C160.019 144.883 160.496 145.254 160.92 145.784C161.185 146.156 161.397 146.58 161.556 147.004L163.465 146.633C163.253 145.89 162.882 145.201 162.458 144.671C161.927 143.982 161.238 143.451 160.443 143.08C160.019 142.868 159.542 142.762 159.064 142.656C158.799 142.603 158.64 142.391 158.64 142.126V140.482H156.784V142.073C156.784 142.338 156.572 142.55 156.307 142.603C155.671 142.709 155.141 142.868 154.664 143.08C153.868 143.451 153.232 143.982 152.808 144.671C152.384 145.36 152.172 146.156 152.172 147.057C152.172 149.019 153.232 150.291 155.459 150.981L159.648 152.306C160.39 152.518 160.973 152.836 161.344 153.207C161.768 153.632 161.981 154.162 161.981 154.798C161.981 155.699 161.609 156.442 160.814 157.025C160.072 157.555 159.17 157.82 158.057 157.82C156.943 157.82 155.883 157.502 155.088 156.813C154.398 156.283 153.868 155.54 153.603 154.639L151.747 154.957C151.959 155.805 152.278 156.495 152.702 157.131C153.285 157.873 153.974 158.457 154.876 158.881C155.353 159.093 155.936 159.252 156.466 159.358C156.731 159.411 156.89 159.623 156.89 159.888V161.532H156.784Z" fill="#121212"></path>
  <path d="M132.448 184.331L133.72 188.414C133.773 188.573 133.879 188.732 133.985 188.838C134.091 188.944 134.25 189.05 134.409 189.103L138.28 190.429C138.492 190.535 138.704 190.641 138.81 190.853C138.916 191.065 139.022 191.277 139.022 191.489C139.022 191.701 138.969 191.966 138.81 192.125C138.704 192.337 138.492 192.443 138.28 192.55L134.409 193.875C134.25 193.928 134.091 194.034 133.985 194.14C133.879 194.246 133.773 194.405 133.72 194.564L132.501 198.647C132.448 198.859 132.342 199.071 132.129 199.23C131.97 199.389 131.705 199.442 131.493 199.442C131.281 199.442 131.016 199.389 130.857 199.23C130.698 199.071 130.539 198.912 130.486 198.647L129.213 194.564C129.16 194.405 129.054 194.246 128.948 194.14C128.842 194.034 128.683 193.928 128.524 193.875L124.653 192.55C124.441 192.443 124.229 192.337 124.123 192.125C124.017 191.913 123.911 191.701 123.911 191.489C123.911 191.277 123.964 191.012 124.123 190.853C124.229 190.641 124.441 190.535 124.653 190.429L128.524 189.103C128.683 189.05 128.842 188.944 128.948 188.838C129.054 188.732 129.16 188.573 129.213 188.414L130.433 184.331C130.486 184.119 130.592 183.907 130.804 183.748C130.963 183.589 131.228 183.536 131.44 183.536C131.652 183.536 131.917 183.589 132.076 183.748C132.235 183.907 132.395 184.119 132.448 184.331Z" fill="#F8F9F9"></path>
  <path d="M131.44 183.589C131.652 183.589 131.917 183.642 132.076 183.801C132.235 183.96 132.395 184.119 132.448 184.384L133.72 188.467C133.773 188.626 133.879 188.785 133.985 188.891C134.091 188.997 134.25 189.103 134.409 189.156L138.28 190.482C138.492 190.588 138.704 190.694 138.81 190.906C138.916 191.118 139.022 191.33 139.022 191.542C139.022 191.754 138.969 192.019 138.81 192.178C138.704 192.391 138.492 192.497 138.28 192.603L134.409 193.928C134.25 193.981 134.091 194.087 133.985 194.193C133.879 194.299 133.773 194.458 133.72 194.617L132.501 198.7C132.448 198.912 132.342 199.124 132.129 199.283C131.97 199.442 131.705 199.495 131.493 199.495C131.281 199.495 131.016 199.442 130.857 199.283C130.698 199.124 130.539 198.965 130.486 198.7L129.213 194.617C129.16 194.458 129.054 194.299 128.948 194.193C128.842 194.087 128.683 193.981 128.524 193.928L124.653 192.603C124.441 192.497 124.229 192.391 124.123 192.178C124.017 191.966 123.911 191.754 123.911 191.542C123.911 191.33 123.964 191.065 124.123 190.906C124.229 190.694 124.441 190.588 124.653 190.482L128.524 189.156C128.683 189.103 128.842 188.997 128.948 188.891C129.054 188.785 129.16 188.626 129.213 188.467L130.433 184.384C130.486 184.172 130.592 183.96 130.804 183.801C130.963 183.642 131.175 183.589 131.44 183.589ZM131.44 182.529C130.963 182.529 130.486 182.688 130.168 182.953C129.796 183.218 129.531 183.642 129.425 184.066L128.206 188.149L128.948 188.891L128.153 188.149L124.335 189.474H124.282C123.858 189.633 123.54 189.899 123.275 190.27C123.01 190.641 122.904 191.065 122.904 191.489C122.904 191.913 123.063 192.338 123.275 192.709C123.54 193.08 123.858 193.345 124.282 193.504H124.335L128.206 194.83C128.206 194.83 128.206 194.83 128.206 194.883L129.425 198.965C129.531 199.389 129.796 199.814 130.168 200.079C130.539 200.344 131.016 200.503 131.44 200.503C131.917 200.503 132.395 200.344 132.713 200.079C133.084 199.814 133.349 199.389 133.455 198.965L134.674 194.883L133.932 194.14L134.727 194.883L138.545 193.557H138.598C139.022 193.398 139.34 193.133 139.605 192.762C139.871 192.391 139.977 191.966 139.977 191.542C139.977 191.118 139.818 190.641 139.605 190.323C139.34 189.952 139.022 189.686 138.598 189.527H138.545L134.674 188.202V188.149L133.455 184.066C133.349 183.642 133.084 183.218 132.713 182.953C132.342 182.688 131.864 182.529 131.44 182.529Z" fill="#121212"></path>
  <path d="M198.671 158.881L199.573 161.85C199.626 161.956 199.679 162.062 199.732 162.168C199.838 162.274 199.944 162.327 200.05 162.38L202.86 163.335C203.019 163.388 203.178 163.494 203.231 163.653C203.337 163.812 203.39 163.971 203.39 164.13C203.39 164.289 203.337 164.448 203.231 164.607C203.125 164.766 203.019 164.872 202.86 164.925L200.05 165.88C199.944 165.933 199.838 165.986 199.732 166.092C199.626 166.198 199.573 166.304 199.573 166.41L198.671 169.379C198.618 169.538 198.565 169.697 198.406 169.803C198.247 169.909 198.088 169.962 197.929 169.962C197.77 169.962 197.611 169.909 197.452 169.803C197.293 169.697 197.24 169.538 197.187 169.379L196.285 166.41C196.232 166.304 196.179 166.198 196.126 166.092C196.02 165.986 195.914 165.933 195.808 165.88L192.998 164.925C192.839 164.872 192.68 164.766 192.627 164.607C192.521 164.448 192.468 164.289 192.468 164.13C192.468 163.971 192.521 163.812 192.627 163.653C192.733 163.494 192.839 163.388 192.998 163.335L195.808 162.38C195.914 162.327 196.02 162.274 196.126 162.168C196.232 162.062 196.285 161.956 196.285 161.85L197.187 158.881C197.24 158.722 197.293 158.563 197.452 158.457C197.611 158.351 197.77 158.298 197.929 158.298C198.088 158.298 198.247 158.351 198.406 158.457C198.565 158.616 198.618 158.722 198.671 158.881Z" fill="#F8F9F9"></path>
  <path d="M197.929 158.351C198.088 158.351 198.247 158.404 198.406 158.51C198.565 158.616 198.618 158.775 198.671 158.934L199.573 161.903C199.626 162.009 199.679 162.115 199.732 162.221C199.785 162.327 199.944 162.38 200.05 162.433L202.86 163.388C203.019 163.441 203.178 163.547 203.231 163.706C203.337 163.865 203.39 164.024 203.39 164.183C203.39 164.342 203.337 164.501 203.231 164.66C203.125 164.819 203.019 164.925 202.86 164.978L200.05 165.933C199.944 165.986 199.838 166.039 199.732 166.145C199.626 166.251 199.573 166.357 199.573 166.463L198.671 169.432C198.618 169.591 198.565 169.75 198.406 169.856C198.247 169.962 198.088 170.015 197.929 170.015C197.77 170.015 197.611 169.962 197.452 169.856C197.293 169.75 197.24 169.591 197.187 169.432L196.285 166.463C196.232 166.357 196.179 166.251 196.126 166.145C196.02 166.039 195.914 165.986 195.808 165.933L192.998 164.978C192.839 164.925 192.68 164.819 192.627 164.66C192.521 164.501 192.468 164.342 192.468 164.183C192.468 164.024 192.521 163.865 192.627 163.706C192.733 163.547 192.839 163.441 192.998 163.388L195.808 162.433C195.914 162.38 196.02 162.327 196.126 162.221C196.232 162.115 196.285 162.009 196.285 161.903L197.187 158.934C197.24 158.775 197.293 158.616 197.452 158.51C197.611 158.404 197.77 158.351 197.929 158.351ZM197.929 157.29C197.505 157.29 197.134 157.449 196.816 157.661C196.497 157.927 196.285 158.245 196.179 158.616L195.331 161.426L192.68 162.327H192.627H192.574C192.203 162.486 191.938 162.698 191.726 163.017C191.513 163.335 191.407 163.706 191.407 164.077C191.407 164.448 191.513 164.819 191.726 165.137C191.938 165.456 192.256 165.668 192.574 165.827H192.627H192.68L195.331 166.728L196.179 169.538C196.285 169.909 196.497 170.281 196.816 170.493C197.134 170.758 197.505 170.864 197.929 170.864C198.353 170.864 198.724 170.705 199.042 170.493C199.361 170.228 199.573 169.909 199.679 169.538L200.527 166.728L203.178 165.827H203.231H203.284C203.655 165.668 203.92 165.456 204.133 165.137C204.345 164.819 204.451 164.448 204.451 164.077C204.451 163.706 204.345 163.335 204.133 163.017C203.92 162.698 203.602 162.486 203.284 162.327H203.231H203.178L200.527 161.426L199.679 158.616C199.573 158.245 199.361 157.874 199.042 157.661C198.724 157.396 198.353 157.29 197.929 157.29Z" fill="#121212"></path>
  <path d="M99.2562 70.9717L99.6803 72.3502C99.6803 72.4032 99.7333 72.4562 99.7864 72.5093C99.8394 72.5623 99.8924 72.5623 99.9454 72.6153L101.218 73.0395C101.271 73.0925 101.377 73.0925 101.377 73.1986C101.43 73.2516 101.43 73.3576 101.43 73.4106C101.43 73.4637 101.43 73.5697 101.377 73.6227C101.324 73.6757 101.271 73.7288 101.218 73.7818L99.9454 74.206C99.8924 74.206 99.8394 74.259 99.7864 74.312C99.7333 74.365 99.7333 74.418 99.6803 74.4711L99.2562 75.8496C99.2562 75.9026 99.2031 76.0087 99.1501 76.0617C99.0971 76.1147 98.991 76.1147 98.938 76.1147C98.885 76.1147 98.779 76.1147 98.7259 76.0617C98.6729 76.0087 98.6199 75.9557 98.6199 75.8496L98.1957 74.4711C98.1957 74.418 98.1427 74.365 98.0897 74.312C98.0367 74.259 97.9836 74.259 97.9306 74.206L96.6581 73.7818C96.6051 73.7288 96.499 73.7288 96.499 73.6227C96.446 73.5697 96.446 73.4637 96.446 73.4106C96.446 73.3576 96.446 73.2516 96.499 73.1986C96.5521 73.1455 96.6051 73.0925 96.6581 73.0395L97.9306 72.6153C97.9836 72.6153 98.0367 72.5623 98.0897 72.5093C98.1427 72.4562 98.1427 72.4032 98.1957 72.3502L98.6199 70.9717C98.6199 70.9186 98.6729 70.8126 98.7259 70.7596C98.779 70.7065 98.885 70.7065 98.938 70.7065C98.991 70.7065 99.0971 70.7065 99.1501 70.7596C99.2031 70.8656 99.2562 70.9186 99.2562 70.9717Z" fill="#F8F9F9"></path>
  <path d="M98.938 70.7064C98.991 70.7064 99.0971 70.7064 99.1501 70.7594C99.2031 70.8125 99.2561 70.8655 99.2561 70.9715L99.6803 72.3501C99.6803 72.4031 99.7333 72.4561 99.7864 72.5091C99.8394 72.5622 99.8924 72.5622 99.9454 72.6152L101.218 73.0394C101.271 73.0924 101.377 73.0924 101.377 73.1984C101.43 73.2514 101.43 73.3575 101.43 73.4105C101.43 73.4635 101.43 73.5696 101.377 73.6226C101.324 73.6756 101.271 73.7286 101.218 73.7817L99.9454 74.2058C99.8924 74.2058 99.8394 74.2589 99.7864 74.3119C99.7333 74.3649 99.7333 74.4179 99.6803 74.4709L99.2561 75.8495C99.2561 75.9025 99.2031 76.0086 99.1501 76.0616C99.0971 76.1146 98.991 76.1146 98.938 76.1146C98.885 76.1146 98.7789 76.1146 98.7259 76.0616C98.6729 76.0086 98.6199 75.9555 98.6199 75.8495L98.1957 74.4709C98.1957 74.4179 98.1427 74.3649 98.0897 74.3119C98.0367 74.2589 97.9836 74.2589 97.9306 74.2058L96.6581 73.7817C96.6051 73.7286 96.499 73.7286 96.499 73.6226C96.446 73.5696 96.446 73.4635 96.446 73.4105C96.446 73.3575 96.446 73.2514 96.499 73.1984C96.552 73.1454 96.6051 73.0924 96.6581 73.0394L97.9306 72.6152C97.9836 72.6152 98.0367 72.5622 98.0897 72.5091C98.1427 72.4561 98.1427 72.4031 98.1957 72.3501L98.6199 70.9715C98.6199 70.9185 98.6729 70.8125 98.7259 70.7594C98.7789 70.7064 98.885 70.7064 98.938 70.7064ZM98.938 69.646C98.6199 69.646 98.3018 69.752 98.0897 69.9641C97.8246 70.1762 97.6655 70.3883 97.6125 70.7064L97.2944 71.7138L96.34 72.032H96.2869C96.0218 72.138 95.8097 72.2971 95.6507 72.5622C95.4916 72.8273 95.3856 73.0924 95.3856 73.3575C95.3856 73.6756 95.4916 73.9407 95.6507 74.1528C95.8097 74.3649 96.0218 74.577 96.2869 74.683H96.34L97.2944 75.0012L97.6125 76.0086C97.7185 76.2737 97.8776 76.5388 98.0897 76.7509C98.3548 76.9629 98.6199 77.069 98.938 77.069C99.2561 77.069 99.5743 76.9629 99.7864 76.8039C100.051 76.5918 100.211 76.3797 100.264 76.0616L100.582 75.0542L101.536 74.736H101.589C101.854 74.63 102.066 74.4709 102.225 74.2058C102.384 73.9407 102.49 73.6756 102.49 73.4105C102.49 73.0924 102.384 72.8273 102.225 72.6152C102.066 72.4031 101.854 72.191 101.589 72.085H101.536L100.582 71.7669L100.264 70.7594C100.158 70.4413 99.9984 70.2292 99.7864 70.0171C99.5743 69.752 99.2561 69.646 98.938 69.646Z" fill="#121212"></path>
  <path d="M116.011 102.89L116.541 104.587C116.541 104.64 116.594 104.693 116.647 104.746C116.7 104.799 116.753 104.852 116.806 104.852L118.397 105.382C118.503 105.435 118.556 105.488 118.609 105.541C118.662 105.594 118.715 105.701 118.715 105.807C118.715 105.913 118.662 106.019 118.609 106.072C118.556 106.125 118.503 106.231 118.397 106.231L116.806 106.761C116.753 106.761 116.7 106.814 116.647 106.867C116.594 106.92 116.541 106.973 116.541 107.026L116.011 108.723C116.011 108.829 115.958 108.882 115.852 108.935C115.799 108.988 115.693 109.041 115.587 109.041C115.481 109.041 115.375 108.988 115.322 108.935C115.269 108.882 115.216 108.776 115.163 108.723L114.632 107.026C114.632 106.973 114.579 106.92 114.526 106.867C114.473 106.814 114.42 106.761 114.367 106.761L112.777 106.231C112.671 106.178 112.618 106.125 112.565 106.072C112.512 106.019 112.458 105.913 112.458 105.807C112.458 105.701 112.512 105.594 112.565 105.541C112.618 105.488 112.671 105.382 112.777 105.382L114.367 104.852C114.42 104.852 114.473 104.799 114.526 104.746C114.579 104.693 114.632 104.64 114.632 104.587L115.163 102.89C115.163 102.784 115.216 102.731 115.322 102.678C115.375 102.625 115.481 102.572 115.587 102.572C115.693 102.572 115.799 102.625 115.852 102.678C115.958 102.678 116.011 102.784 116.011 102.89Z" fill="#F8F9F9"></path>
  <path d="M115.587 102.572C115.693 102.572 115.799 102.625 115.852 102.678C115.905 102.731 115.958 102.837 116.011 102.89L116.541 104.587C116.541 104.64 116.594 104.693 116.647 104.746C116.7 104.799 116.753 104.852 116.806 104.852L118.397 105.382C118.503 105.435 118.556 105.488 118.609 105.541C118.662 105.594 118.715 105.7 118.715 105.806C118.715 105.913 118.662 106.019 118.609 106.072C118.556 106.125 118.503 106.231 118.397 106.231L116.806 106.761C116.753 106.761 116.7 106.814 116.647 106.867C116.594 106.92 116.541 106.973 116.541 107.026L116.011 108.723C116.011 108.829 115.958 108.882 115.852 108.935C115.799 108.988 115.693 109.041 115.587 109.041C115.481 109.041 115.375 108.988 115.322 108.935C115.269 108.882 115.216 108.776 115.163 108.723L114.632 107.026C114.632 106.973 114.579 106.92 114.526 106.867C114.473 106.814 114.42 106.761 114.367 106.761L112.777 106.231C112.671 106.178 112.618 106.125 112.565 106.072C112.512 106.019 112.458 105.913 112.458 105.806C112.458 105.7 112.512 105.594 112.565 105.541C112.618 105.488 112.671 105.382 112.777 105.382L114.367 104.852C114.42 104.852 114.473 104.799 114.526 104.746C114.579 104.693 114.632 104.64 114.632 104.587L115.163 102.89C115.163 102.784 115.216 102.731 115.322 102.678C115.428 102.572 115.481 102.572 115.587 102.572ZM115.587 101.512C115.269 101.512 114.95 101.618 114.685 101.83C114.42 102.042 114.261 102.307 114.155 102.625L113.731 104.004L112.405 104.428H112.352H112.299C112.034 104.534 111.769 104.746 111.61 105.011C111.451 105.276 111.345 105.594 111.345 105.859C111.345 106.178 111.451 106.496 111.61 106.708C111.769 106.973 112.034 107.132 112.299 107.291L113.625 107.715L114.049 109.094C114.155 109.412 114.314 109.677 114.579 109.889C114.844 110.101 115.163 110.207 115.481 110.207C115.799 110.207 116.117 110.101 116.382 109.889C116.647 109.677 116.806 109.412 116.912 109.094L117.336 107.715L118.662 107.291H118.715H118.768C119.033 107.185 119.298 106.973 119.457 106.761C119.616 106.496 119.722 106.178 119.722 105.912C119.722 105.594 119.616 105.276 119.457 105.064C119.298 104.799 119.033 104.64 118.768 104.534L117.442 104.11L117.018 102.731C116.912 102.413 116.753 102.148 116.488 101.936C116.276 101.618 115.958 101.512 115.587 101.512Z" fill="#121212"></path>
  <path d="M215.002 135.234L215.532 136.93C215.532 136.983 215.585 137.036 215.638 137.089C215.691 137.142 215.744 137.195 215.797 137.195L217.388 137.726C217.494 137.779 217.547 137.832 217.6 137.885C217.653 137.938 217.706 138.044 217.706 138.15C217.706 138.256 217.653 138.362 217.6 138.415C217.547 138.468 217.494 138.574 217.388 138.574L215.797 139.104C215.744 139.104 215.691 139.157 215.638 139.21C215.585 139.263 215.532 139.316 215.532 139.369L215.002 141.066C215.002 141.172 214.949 141.225 214.843 141.278C214.79 141.331 214.684 141.384 214.578 141.384C214.472 141.384 214.366 141.331 214.313 141.278C214.26 141.225 214.207 141.119 214.154 141.066L213.623 139.369C213.623 139.316 213.57 139.263 213.517 139.21C213.464 139.157 213.411 139.104 213.358 139.104L211.768 138.574C211.662 138.521 211.609 138.468 211.556 138.415C211.503 138.362 211.449 138.256 211.449 138.15C211.449 138.044 211.503 137.938 211.556 137.885C211.609 137.832 211.662 137.726 211.768 137.726L213.358 137.195C213.411 137.195 213.464 137.142 213.517 137.089C213.57 137.036 213.623 136.983 213.623 136.93L214.154 135.234C214.154 135.128 214.207 135.075 214.313 135.022C214.366 134.969 214.472 134.916 214.578 134.916C214.684 134.916 214.79 134.969 214.843 135.022C214.896 135.075 214.949 135.128 215.002 135.234Z" fill="#F8F9F9"></path>
  <path d="M214.578 134.915C214.684 134.915 214.79 134.968 214.843 135.021C214.896 135.074 214.949 135.181 215.002 135.234L215.532 136.93C215.532 136.983 215.585 137.036 215.638 137.089C215.691 137.142 215.744 137.195 215.797 137.195L217.388 137.726C217.494 137.779 217.547 137.832 217.6 137.885C217.653 137.938 217.706 138.044 217.706 138.15C217.706 138.256 217.653 138.362 217.6 138.415C217.547 138.468 217.494 138.574 217.388 138.574L215.797 139.104C215.744 139.104 215.691 139.157 215.638 139.21C215.585 139.263 215.532 139.316 215.532 139.369L215.002 141.066C215.002 141.172 214.949 141.225 214.843 141.278C214.79 141.331 214.684 141.384 214.578 141.384C214.472 141.384 214.366 141.331 214.313 141.278C214.26 141.225 214.207 141.119 214.154 141.066L213.623 139.369C213.623 139.316 213.57 139.263 213.517 139.21C213.464 139.157 213.411 139.104 213.358 139.104L211.768 138.574C211.662 138.521 211.609 138.468 211.556 138.415C211.503 138.362 211.449 138.256 211.449 138.15C211.449 138.044 211.503 137.938 211.556 137.885C211.609 137.832 211.662 137.726 211.768 137.726L213.358 137.195C213.411 137.195 213.464 137.142 213.517 137.089C213.57 137.036 213.623 136.983 213.623 136.93L214.154 135.234C214.154 135.127 214.207 135.074 214.313 135.021C214.366 134.968 214.472 134.915 214.578 134.915ZM214.578 133.855C214.26 133.855 213.942 133.961 213.676 134.173C213.411 134.385 213.252 134.65 213.146 134.968L212.722 136.347L211.396 136.771H211.343H211.29C211.025 136.877 210.76 137.089 210.601 137.354C210.442 137.62 210.336 137.885 210.336 138.203C210.336 138.521 210.442 138.839 210.601 139.051C210.76 139.316 211.025 139.475 211.29 139.634L212.616 140.058L213.04 141.437C213.146 141.755 213.305 142.02 213.57 142.232C213.835 142.444 214.154 142.551 214.472 142.551C214.79 142.551 215.108 142.444 215.373 142.232C215.638 142.02 215.797 141.755 215.903 141.437L216.327 140.058L217.653 139.634H217.706H217.759C218.024 139.528 218.289 139.316 218.448 139.104C218.607 138.839 218.713 138.521 218.713 138.256C218.713 137.938 218.607 137.62 218.448 137.407C218.289 137.142 218.024 136.983 217.759 136.877L216.434 136.453L216.009 135.074C215.903 134.756 215.744 134.491 215.479 134.279C215.214 133.961 214.896 133.855 214.578 133.855Z" fill="#121212"></path>
  <path d="M92.5755 137.673L92.2573 137.62C79.214 136.241 74.124 132.423 72.1622 129.401C70.7836 127.28 70.4125 124.947 71.1548 122.561C72.1622 119.645 75.7146 115.192 82.8195 117.153C92.4694 119.804 95.5447 126.008 92.6815 137.407L92.5755 137.673Z" fill="#F8F9F9"></path>
  <path d="M92.9996 138.256L92.2573 138.15C79.002 136.771 73.8059 132.795 71.738 129.719C70.2534 127.492 69.8823 124.947 70.6776 122.402C71.738 119.274 75.5025 114.608 82.9786 116.623C92.9996 119.38 96.1809 125.796 93.2117 137.514L92.9996 138.256ZM79.5322 117.206C74.9193 117.206 72.4273 120.441 71.685 122.721C70.9957 124.947 71.3138 127.174 72.6394 129.136C74.5482 131.999 79.4791 135.711 92.2043 137.089C94.9084 126.167 91.9392 120.175 82.6604 117.63C81.547 117.365 80.4866 117.206 79.5322 117.206Z" fill="#121212"></path>
  <path d="M110.073 142.338C105.884 142.338 100.264 141.119 92.8405 137.513L92.5754 137.407L92.6815 137.142C97.0292 122.773 106.096 123.092 113.519 124.947C115.163 125.371 123.222 127.81 122.055 135.658C121.896 136.771 120.518 139.157 117.496 140.748C115.693 141.596 113.307 142.338 110.073 142.338Z" fill="#F8F9F9"></path>
  <path d="M110.073 142.869C105.142 142.869 99.2562 141.225 92.5754 137.991L91.8862 137.673L92.0983 136.93C96.5521 122.084 105.884 122.455 113.572 124.364C115.269 124.788 123.699 127.386 122.48 135.658C122.267 136.93 120.836 139.475 117.655 141.172C115.534 142.285 112.989 142.869 110.073 142.869ZM93.2117 137.036C99.6803 140.165 105.354 141.755 110.073 141.755C112.777 141.755 115.163 141.225 117.177 140.165C120.147 138.627 121.313 136.294 121.472 135.446C122.586 128.023 114.897 125.69 113.36 125.319C106.149 123.569 97.4004 123.251 93.2117 137.036Z" fill="#121212"></path>
  <path d="M116.965 161.956C115.428 172.72 99.7864 180.938 82.2363 178.393C54.0289 174.31 52.014 163.494 53.5517 152.837C55.0893 142.073 66.5949 132.423 88.3337 135.552C105.884 138.097 118.503 151.299 116.965 161.956Z" fill="#FCC018"></path>
  <path d="M88.7049 179.401C86.531 179.401 84.3571 179.241 82.1832 178.923C68.5567 176.962 59.9142 173.303 55.7786 167.683C52.1731 162.805 52.4382 157.131 53.0745 152.731C53.9228 146.845 57.4752 141.808 63.1485 138.521C69.5641 134.756 78.3657 133.59 88.4928 135.022C106.944 137.673 119.033 151.458 117.496 162.009C116.912 166.039 114.473 169.804 110.338 172.879C104.717 177.121 96.9762 179.401 88.7049 179.401ZM80.4335 135.499C73.8589 135.499 68.1326 136.824 63.6257 139.475C58.2706 142.604 54.8772 147.376 54.0819 152.943C53.4456 157.132 53.1805 162.54 56.5739 167.1C60.5505 172.455 68.9809 176.007 82.2893 177.916C92.5754 179.401 102.809 177.227 109.701 172.084C113.572 169.167 115.905 165.668 116.435 161.903C117.867 151.882 106.149 138.68 88.2807 136.135C85.5766 135.711 82.9786 135.499 80.4335 135.499Z" fill="#121212"></path>
  <path d="M63.6359 149.589C64.4622 147.94 64.3891 146.231 63.4728 145.772C62.5564 145.312 61.1437 146.278 60.3174 147.927C59.4911 149.576 59.5641 151.286 60.4805 151.745C61.3969 152.204 62.8096 151.239 63.6359 149.589Z" fill="#121212"></path>
  <path d="M60.9747 152.095C60.7626 152.095 60.5505 152.041 60.3384 151.935C59.278 151.405 59.1719 149.602 60.0733 147.8C60.9747 145.997 62.5123 144.99 63.5727 145.52C64.6332 146.05 64.7392 147.853 63.8378 149.656C63.1485 151.193 61.9821 152.095 60.9747 152.095ZM62.9895 145.944C62.2472 145.944 61.1868 146.792 60.6035 148.065C59.8612 149.549 59.8612 151.14 60.6565 151.511C61.3988 151.882 62.7244 150.981 63.4667 149.496C64.209 148.012 64.209 146.421 63.4137 146.05C63.2546 145.944 63.0955 145.944 62.9895 145.944Z" fill="#121212"></path>
  <path d="M61.6482 148.466C61.8843 147.995 61.8635 147.507 61.6016 147.376C61.3398 147.244 60.9362 147.52 60.7001 147.991C60.464 148.463 60.4849 148.951 60.7467 149.082C61.0085 149.213 61.4122 148.938 61.6482 148.466Z" fill="#F8F9F9"></path>
  <path d="M69.6878 152.243C70.5641 150.62 70.5433 148.909 69.6414 148.422C68.7395 147.935 67.298 148.857 66.4217 150.48C65.5454 152.104 65.5662 153.814 66.4681 154.301C67.37 154.788 68.8115 153.867 69.6878 152.243Z" fill="#121212"></path>
  <path d="M67.0191 154.692C66.807 154.692 66.5419 154.639 66.3828 154.533C65.8526 154.268 65.5875 153.632 65.5345 152.837C65.5345 152.094 65.7466 151.193 66.2238 150.398C66.648 149.602 67.2842 148.913 67.9205 148.489C68.6098 148.065 69.299 147.959 69.7762 148.224C70.3064 148.489 70.5715 149.125 70.6246 149.92C70.6246 150.663 70.4125 151.564 69.9353 152.359C69.5111 153.155 68.8749 153.844 68.2386 154.268C67.8144 154.586 67.3903 154.692 67.0191 154.692ZM69.14 148.595C68.8749 148.595 68.5567 148.701 68.1856 148.913C67.6023 149.284 67.0721 149.867 66.701 150.61C66.2768 151.352 66.0647 152.147 66.0647 152.837C66.0647 153.473 66.2768 153.897 66.5949 154.109C66.9661 154.321 67.4433 154.215 67.9205 153.897C68.5037 153.526 69.0339 152.943 69.4051 152.2C69.8292 151.458 70.0413 150.663 70.0413 149.973C70.0413 149.337 69.8292 148.913 69.5111 148.701C69.4051 148.595 69.246 148.595 69.14 148.595Z" fill="#121212"></path>
  <path d="M67.6714 151.196C67.9217 150.732 67.9158 150.243 67.6581 150.104C67.4004 149.965 66.9886 150.228 66.7382 150.692C66.4878 151.156 66.4938 151.645 66.7515 151.784C67.0091 151.923 67.421 151.66 67.6714 151.196Z" fill="#F8F9F9"></path>
  <path d="M62.4062 161.161C59.4901 161.161 58.6417 158.881 58.6417 158.828C58.5357 158.616 58.6947 158.351 58.9068 158.245C59.1189 158.192 59.384 158.298 59.4901 158.51C59.5431 158.616 60.2324 160.525 63.0955 160.154C63.3606 160.101 63.5727 160.313 63.6257 160.525C63.6788 160.79 63.4667 161.002 63.2546 161.055C62.9365 161.161 62.6713 161.161 62.4062 161.161Z" fill="#121212"></path>
  <path d="M62.4062 161.426C59.278 161.426 58.4296 158.934 58.4296 158.934C58.3236 158.563 58.4827 158.139 58.9068 158.033C59.278 157.927 59.7022 158.086 59.8082 158.51C59.8082 158.563 60.4975 160.366 63.1485 159.995C63.5197 159.942 63.8908 160.207 63.9439 160.631C63.9439 160.843 63.9439 161.002 63.7848 161.161C63.6788 161.32 63.5197 161.426 63.3076 161.426C62.9895 161.426 62.6713 161.426 62.4062 161.426ZM59.0659 158.51H59.0129C58.9068 158.563 58.8538 158.669 58.9068 158.775C58.9598 158.881 59.7021 160.896 62.4062 160.896C62.6713 160.896 62.9365 160.896 63.2016 160.843C63.2546 160.843 63.3076 160.79 63.3076 160.79C63.3606 160.737 63.3606 160.684 63.3606 160.631C63.3606 160.525 63.2546 160.472 63.1485 160.472C60.0733 160.896 59.278 158.722 59.278 158.616C59.225 158.563 59.1719 158.51 59.0659 158.51Z" fill="#121212"></path>
  <mask id="mask0_3124_7451" style="mask-type:luminance" maskUnits="userSpaceOnUse" x="53" y="134" width="65" height="45">
    <path d="M116.965 161.956C115.428 172.72 99.7864 180.938 82.2363 178.393C54.0289 174.31 52.014 163.494 53.5517 152.837C55.0893 142.073 66.5949 132.423 88.3337 135.552C105.884 138.097 118.503 151.299 116.965 161.956Z" fill="white"></path>
  </mask>
  <g mask="url(#mask0_3124_7451)">
    <path d="M92.6284 179.453C95.1205 179.241 97.4534 178.764 99.7333 178.181C109.33 169.114 111.027 149.178 103.763 140.589C101.165 138.998 98.3548 137.672 95.3325 136.665C105.99 147.216 101.589 168.955 92.6284 179.453Z" fill="#121212"></path>
    <path d="M91.9922 179.771L92.4164 179.294C100.688 169.538 105.99 147.693 95.1205 136.877L94.3251 136.082L95.3856 136.453C98.4608 137.46 101.324 138.786 103.869 140.43L103.922 140.483C111.398 149.337 109.224 169.591 99.8394 178.446L99.7864 178.499H99.7333C97.0292 179.188 94.7493 179.612 92.6285 179.771H91.9922ZM96.2339 137.248C100.635 142.179 102.49 149.496 101.589 158.086C100.741 165.933 97.6125 173.727 93.2647 179.082C95.1735 178.87 97.2413 178.499 99.6273 177.916C108.8 169.167 110.921 149.443 103.657 140.748C101.324 139.369 98.885 138.203 96.2339 137.248Z" fill="#121212"></path>
  </g>
  <mask id="mask1_3124_7451" style="mask-type:luminance" maskUnits="userSpaceOnUse" x="53" y="134" width="65" height="45">
    <path d="M116.965 161.956C115.428 172.72 99.7864 180.938 82.2363 178.393C54.0289 174.31 52.014 163.494 53.5517 152.837C55.0893 142.073 66.5949 132.423 88.3337 135.552C105.884 138.097 118.503 151.299 116.965 161.956Z" fill="white"></path>
  </mask>
  <g mask="url(#mask1_3124_7451)">
    <path d="M89.2881 135.021C89.2881 134.968 84.7283 134.597 82.9255 134.438C89.5002 144.353 90.9848 169.061 76.4039 178.022C78.2597 178.446 80.2745 178.817 82.4483 179.135C83.0316 179.241 83.5088 179.241 84.092 179.347C98.4608 167.524 96.499 142.338 89.2881 135.021Z" fill="#121212"></path>
    <path d="M84.145 179.665H84.039C83.7739 179.612 83.5088 179.559 83.2437 179.559C82.9786 179.506 82.7135 179.506 82.3953 179.453C80.2745 179.135 78.2066 178.764 76.3509 178.34L75.7146 178.181L76.2448 177.863C81.3879 174.681 84.9404 169.273 86.531 162.062C88.8639 151.405 86.3719 140.165 82.7135 134.597L82.3953 134.173L82.9255 134.226C88.8109 134.65 89.3411 134.809 89.4472 134.862C93.2117 138.68 95.4386 147.057 95.0144 155.7C94.6963 161.532 92.8936 172.402 84.2511 179.612L84.145 179.665ZM77.0932 177.916C78.7899 178.287 80.5926 178.605 82.5014 178.87C82.7665 178.923 83.0316 178.976 83.2967 178.976C83.5088 179.029 83.7739 179.029 83.986 179.082C92.4164 172.03 94.1661 161.373 94.4842 155.647C94.9084 147.163 92.7875 138.998 89.1291 135.234C88.5988 135.127 85.3645 134.862 83.4027 134.756C87.0082 140.536 89.3411 151.617 87.0082 162.168C85.5236 169.22 82.0772 174.681 77.0932 177.916Z" fill="#121212"></path>
  </g>
  <mask id="mask2_3124_7451" style="mask-type:luminance" maskUnits="userSpaceOnUse" x="53" y="134" width="65" height="45">
    <path d="M116.965 161.956C115.428 172.72 99.7864 180.938 82.2363 178.393C54.0289 174.31 52.014 163.494 53.5517 152.837C55.0893 142.073 66.5949 132.423 88.3337 135.552C105.884 138.097 118.503 151.299 116.965 161.956Z" fill="white"></path>
  </mask>
  <g mask="url(#mask2_3124_7451)">
    <path d="M106.997 175.53C112.777 172.137 116.7 167.418 117.443 162.116C118.185 157.079 116.011 151.511 111.822 146.633C115.852 155.011 112.671 170.228 106.997 175.53Z" fill="#121212"></path>
    <path d="M105.089 176.908L106.838 175.318C112.299 170.281 115.64 155.17 111.61 146.686L110.762 144.884L112.034 146.368C116.435 151.511 118.45 157.078 117.708 162.062C116.965 167.312 113.201 172.137 107.156 175.689L105.089 176.908ZM112.724 148.118C115.481 156.23 112.936 168.531 108.482 174.31C113.466 170.97 116.541 166.675 117.23 162.062C117.814 157.609 116.223 152.731 112.724 148.118Z" fill="#121212"></path>
  </g>
  <path d="M110.603 203.843L79.4261 220.598C78.9489 220.863 78.4187 220.916 77.9415 220.757C77.4643 220.598 77.0402 220.28 76.7751 219.803L54.1879 178.075C53.9228 177.598 53.8698 177.068 54.0289 176.59C54.1879 176.113 54.506 175.689 54.9832 175.424L79.161 162.381C79.6382 162.116 80.1684 162.062 80.6456 162.222L86.0008 163.812L91.3559 165.403C91.6211 165.456 91.8331 165.615 92.0452 165.774C92.2573 165.933 92.4164 166.145 92.5224 166.357L111.345 201.139C111.61 201.616 111.663 202.147 111.504 202.624C111.398 203.207 111.08 203.631 110.603 203.843Z" fill="white"></path>
  <path d="M80.1154 163.282C80.2214 163.282 80.2745 163.282 80.3805 163.335L85.7357 164.926L91.0908 166.516C91.1969 166.569 91.3029 166.622 91.409 166.675C91.515 166.728 91.568 166.835 91.6211 166.941L110.444 201.723C110.55 201.935 110.603 202.2 110.497 202.412C110.444 202.624 110.285 202.836 110.073 202.942L78.8959 219.697C78.7899 219.75 78.6308 219.803 78.4717 219.803C78.3657 219.803 78.3127 219.803 78.2066 219.75C77.9945 219.697 77.7825 219.538 77.6764 219.326L55.1423 177.598C55.0363 177.386 54.9832 177.121 55.0893 176.909C55.1423 176.697 55.3014 176.484 55.5134 176.378L79.6912 163.335C79.8503 163.282 80.0094 163.282 80.1154 163.282ZM80.1154 162.222C79.7973 162.222 79.4791 162.275 79.161 162.434L54.9832 175.477C54.506 175.742 54.1879 176.166 54.0289 176.643C53.8698 177.121 53.9228 177.651 54.1879 178.128L76.7751 219.856C77.0402 220.333 77.4643 220.651 77.9415 220.81C78.1006 220.863 78.3127 220.916 78.5248 220.916C78.8429 220.916 79.161 220.863 79.4791 220.704L110.656 203.95C111.133 203.684 111.451 203.26 111.61 202.783C111.769 202.306 111.716 201.776 111.451 201.298L92.6285 166.516C92.5224 166.304 92.3634 166.092 92.1513 165.933C91.9392 165.774 91.7271 165.668 91.462 165.562L86.1068 163.971L80.7517 162.381C80.4866 162.222 80.3275 162.222 80.1154 162.222Z" fill="#121212"></path>
  <path d="M86.0538 163.865L80.6987 162.275C80.2215 162.115 79.6382 162.168 79.2141 162.434L83.2967 170.016C83.4558 170.281 83.7209 170.546 84.039 170.599C84.3571 170.705 84.6753 170.652 84.9934 170.493L92.5755 166.41C92.4694 166.198 92.3103 165.986 92.0983 165.827C91.8862 165.668 91.6741 165.562 91.409 165.456L86.0538 163.865Z" fill="#4F94F6"></path>
  <path d="M80.9638 163.441L85.7357 164.873L90.5076 166.304L84.4632 169.591C84.4101 169.591 84.4101 169.591 84.3571 169.591H84.3041C84.2511 169.591 84.1981 169.538 84.1981 169.485L80.9638 163.441ZM80.1154 162.221C79.7973 162.221 79.4792 162.274 79.161 162.434L83.2437 170.016C83.4027 170.281 83.6678 170.546 83.986 170.599C84.092 170.652 84.1981 170.652 84.3571 170.652C84.5692 170.652 84.7813 170.599 84.9404 170.493L92.5224 166.41C92.4164 166.198 92.2573 165.986 92.0452 165.827C91.8331 165.668 91.6211 165.562 91.356 165.456L86.0008 163.865L80.6456 162.274C80.4866 162.221 80.3275 162.221 80.1154 162.221Z" fill="#121212"></path>
  <path d="M88.5988 179.136L79.4791 178.817C78.7368 178.817 77.9946 178.976 77.3053 179.295C76.616 179.666 76.0858 180.196 75.6616 180.832L70.8367 188.52C70.4125 189.157 70.2004 189.899 70.2004 190.641C70.2004 191.383 70.3595 192.126 70.6776 192.815L74.9723 200.821C75.3435 201.511 75.8737 202.041 76.51 202.465C77.1462 202.889 77.8885 203.101 78.6308 203.101L87.7505 203.419C88.4928 203.419 89.2351 203.26 89.9244 202.889C90.6137 202.518 91.1439 201.988 91.568 201.351L96.393 193.663C96.8172 193.027 97.0292 192.285 97.0292 191.543C97.0823 190.8 96.8702 190.058 96.5521 189.369L92.2573 181.362C91.8862 180.673 91.356 180.143 90.7197 179.719C90.0834 179.348 89.3411 179.136 88.5988 179.136Z" fill="white"></path>
  <path d="M79.3731 179.878C79.4261 179.878 79.4261 179.878 79.4791 179.878L88.5988 180.196C89.1821 180.196 89.7123 180.408 90.2425 180.673C90.7197 180.991 91.1439 181.415 91.409 181.893L95.6507 189.899C95.9158 190.429 96.0749 190.959 96.0218 191.543C96.0218 192.126 95.8098 192.656 95.5446 193.133L90.7197 200.821C90.4016 201.298 89.9774 201.723 89.5002 201.988C89.023 202.253 88.4928 202.359 87.9626 202.359C87.9096 202.359 87.9096 202.359 87.8565 202.359L78.7368 202.041C78.1536 202.041 77.6234 201.829 77.0932 201.564C76.616 201.245 76.1918 200.821 75.9267 200.344L71.685 192.338C71.4199 191.808 71.2608 191.277 71.3138 190.694C71.3138 190.111 71.5259 189.581 71.791 189.104L76.616 181.415C76.9341 180.938 77.3583 180.514 77.8355 180.249C78.3127 179.984 78.8429 179.878 79.3731 179.878ZM79.3731 178.817C78.6838 178.817 77.9415 178.976 77.3583 179.348C76.669 179.719 76.1388 180.249 75.7146 180.885L70.8897 188.573C70.4655 189.21 70.2534 189.952 70.2534 190.694C70.2534 191.436 70.4125 192.179 70.7306 192.868L75.0253 200.874C75.3965 201.564 75.9267 202.094 76.563 202.518C77.1992 202.942 77.9415 203.154 78.6838 203.154L87.8035 203.472C87.8565 203.472 87.9096 203.472 87.9626 203.472C88.6519 203.472 89.3942 203.313 89.9774 202.942C90.6667 202.571 91.1969 202.041 91.6211 201.405L96.446 193.716C96.8702 193.08 97.0823 192.338 97.0823 191.596C97.1353 190.853 96.9232 190.111 96.6051 189.422L92.3103 181.415C91.9392 180.726 91.409 180.196 90.7727 179.772C90.1365 179.348 89.3942 179.136 88.6519 179.136L79.5322 178.817C79.4261 178.817 79.4261 178.817 79.3731 178.817Z" fill="#121212"></path>
  <path d="M85.3645 194.299L85.2585 194.352C85.0464 194.458 84.8873 194.512 84.7283 194.512C84.5692 194.459 84.4101 194.352 84.3041 194.193C83.8799 193.61 83.5618 193.08 83.3497 192.656C83.1376 192.232 83.0316 191.86 82.9786 191.489C82.9255 191.118 82.9786 190.747 83.0846 190.323L83.3497 189.05C83.4557 188.573 83.5088 188.202 83.4557 187.937C83.4027 187.672 83.2967 187.407 83.1376 187.089L82.9255 186.77C82.7665 186.505 82.5544 186.293 82.2893 186.134C82.0242 185.975 81.706 185.975 81.3879 185.975C81.0168 186.028 80.6456 186.187 80.1684 186.452L78.9489 187.248C78.6308 187.46 78.4187 187.407 78.2066 187.089L77.9415 186.664C77.8355 186.558 77.8355 186.399 77.8355 186.24C77.8355 186.081 77.9415 185.975 78.1006 185.816C78.3127 185.604 78.5248 185.445 78.7368 185.286C78.9489 185.127 79.214 184.968 79.5322 184.756C80.5926 184.066 81.494 183.801 82.3423 183.96C83.1906 184.119 83.8799 184.597 84.4101 185.445L84.6222 185.816C84.9934 186.346 85.1524 186.823 85.2055 187.301C85.2585 187.725 85.2055 188.255 85.0994 188.785L84.8343 190.164C84.7813 190.482 84.7813 190.747 84.7813 191.012C84.7813 191.277 84.8873 191.595 84.9934 191.913C85.1524 192.232 85.3645 192.709 85.6827 193.239C85.7887 193.451 85.8417 193.61 85.7887 193.769C85.6827 194.034 85.5766 194.14 85.3645 194.299ZM87.6975 198.17L87.5384 198.276C87.3263 198.382 87.1673 198.435 87.0082 198.435C86.8491 198.382 86.6901 198.276 86.584 198.064L86.2659 197.587C86.1598 197.375 86.1068 197.216 86.1598 197.057C86.2129 196.897 86.3189 196.738 86.531 196.632L86.6901 196.526C86.9021 196.42 87.0612 196.367 87.2203 196.42C87.3793 196.473 87.5384 196.579 87.6444 196.791L87.9626 197.269C88.0686 197.481 88.1216 197.64 88.1216 197.799C87.9626 197.905 87.8565 198.064 87.6975 198.17Z" fill="#FCC018"></path>
  <path d="M81.7591 184.013C81.9181 184.013 82.0772 184.013 82.2363 184.066C83.0846 184.225 83.7739 184.703 84.3041 185.551L84.5162 185.922C84.8873 186.452 85.0464 186.93 85.0994 187.407C85.1524 187.831 85.0994 188.361 84.9934 188.891L84.7283 190.27C84.6753 190.588 84.6752 190.853 84.6752 191.118C84.6752 191.383 84.7813 191.701 84.8873 192.02C85.0464 192.338 85.2585 192.815 85.5766 193.345C85.6827 193.557 85.7357 193.716 85.6827 193.875C85.6296 194.034 85.5236 194.193 85.3645 194.299L85.2585 194.352C85.0994 194.459 84.9934 194.512 84.8343 194.512C84.7813 194.512 84.7813 194.512 84.7283 194.512C84.5692 194.459 84.4101 194.352 84.3041 194.193C83.8799 193.61 83.5618 193.08 83.3497 192.656C83.1376 192.232 83.0316 191.86 82.9786 191.489C82.9255 191.118 82.9786 190.747 83.0846 190.323L83.3497 189.05C83.4558 188.573 83.5088 188.202 83.4558 187.937C83.4027 187.672 83.2967 187.407 83.1376 187.089L82.9255 186.77C82.7665 186.505 82.5544 186.293 82.2893 186.134C82.0772 186.028 81.8651 185.975 81.6 185.975C81.494 185.975 81.4409 185.975 81.3349 185.975C80.9637 186.028 80.5926 186.187 80.1154 186.452L78.8959 187.248C78.7899 187.301 78.6838 187.354 78.5778 187.354C78.4187 187.354 78.2597 187.248 78.1536 187.089L77.8885 186.664C77.7825 186.558 77.7825 186.399 77.7825 186.24C77.7825 186.081 77.8885 185.975 78.0476 185.816C78.2597 185.604 78.4717 185.445 78.6838 185.286C78.8959 185.127 79.161 184.968 79.4791 184.756C80.2745 184.278 81.0698 184.013 81.7591 184.013ZM87.0082 196.367C87.0612 196.367 87.0612 196.367 87.1142 196.367C87.2733 196.42 87.4324 196.526 87.5384 196.738L87.8565 197.216C87.9626 197.428 88.0156 197.587 88.0156 197.746C87.9626 197.905 87.8565 198.064 87.6975 198.17L87.5384 198.276C87.3793 198.382 87.2203 198.435 87.0612 198.435C87.0082 198.435 87.0082 198.435 86.9552 198.435C86.7961 198.382 86.637 198.276 86.531 198.064L86.2129 197.587C86.1068 197.375 86.0538 197.216 86.1068 197.057C86.1598 196.898 86.2659 196.738 86.478 196.632L86.637 196.526C86.7431 196.42 86.9022 196.367 87.0082 196.367ZM81.7591 182.953C80.8047 182.953 79.8503 183.271 78.7899 183.96C78.4717 184.172 78.2066 184.384 77.9946 184.544C77.7825 184.703 77.5174 184.915 77.2522 185.127C76.8281 185.498 76.722 185.922 76.669 186.187C76.616 186.558 76.722 186.929 76.9341 187.301L77.1992 187.725C77.6234 188.361 78.2066 188.467 78.5248 188.467C78.8429 188.467 79.161 188.361 79.4261 188.202L80.6456 187.407C81.0698 187.142 81.2819 187.089 81.3879 187.089C81.4409 187.089 81.494 187.089 81.494 187.089C81.6 187.089 81.653 187.089 81.653 187.142C81.7591 187.195 81.8121 187.248 81.9181 187.407L82.1302 187.725C82.2363 187.884 82.2893 188.043 82.2893 188.149C82.2893 188.202 82.3423 188.414 82.1832 188.891L81.9181 190.111C81.7591 190.641 81.7591 191.171 81.8121 191.648C81.8651 192.126 82.0242 192.656 82.2893 193.186C82.5544 193.663 82.8725 194.193 83.2967 194.83C83.6148 195.254 83.986 195.519 84.4101 195.572C84.5162 195.572 84.6222 195.625 84.7283 195.625C85.0464 195.625 85.4176 195.519 85.7357 195.307L85.8417 195.254C86.3719 194.883 86.584 194.459 86.637 194.193C86.7431 193.769 86.637 193.345 86.3719 192.921C86.0538 192.391 85.8417 192.02 85.7357 191.701C85.6296 191.436 85.5766 191.224 85.5766 191.171C85.5766 190.959 85.5766 190.747 85.6296 190.535L85.8947 189.209C86.0538 188.52 86.1068 187.937 86.0538 187.354C86.0008 186.77 85.7357 186.134 85.3115 185.445L85.0994 185.074C84.4101 183.96 83.4558 183.324 82.2893 183.112C82.1832 182.953 81.9712 182.953 81.7591 182.953ZM87.0082 195.307C86.6901 195.307 86.3189 195.413 86.0008 195.625L85.8417 195.731C85.3115 196.102 85.0994 196.526 85.0464 196.791C84.9934 197.11 84.9404 197.587 85.3115 198.17L85.6296 198.647C86.0008 199.23 86.478 199.39 86.7961 199.443C86.9022 199.443 87.0082 199.496 87.1142 199.496C87.4854 199.496 87.8035 199.39 88.1216 199.177L88.2807 199.071C88.8109 198.7 89.023 198.276 89.076 197.958C89.1291 197.64 89.1291 197.163 88.8109 196.632L88.4928 196.155C88.1216 195.625 87.6975 195.413 87.3793 195.36C87.2203 195.307 87.1142 195.307 87.0082 195.307Z" fill="#121212"></path>
  <path d="M56.4148 119.857C72.6668 119.857 85.8417 106.682 85.8417 90.4303C85.8417 74.1783 72.6668 61.0034 56.4148 61.0034C40.1628 61.0034 26.9879 74.1783 26.9879 90.4303C26.9879 106.682 40.1628 119.857 56.4148 119.857Z" fill="#F9C900"></path>
  <path d="M56.4148 120.387C39.8721 120.387 26.4577 106.92 26.4577 90.4303C26.4577 73.9406 39.9251 60.4731 56.4148 60.4731C72.9045 60.4731 86.3719 73.9406 86.3719 90.4303C86.3719 106.92 72.9575 120.387 56.4148 120.387ZM56.4148 61.5336C40.4554 61.5336 27.5181 74.5238 27.5181 90.4303C27.5181 106.337 40.5084 119.327 56.4148 119.327C72.3212 119.327 85.3115 106.337 85.3115 90.4303C85.3115 74.5238 72.3743 61.5336 56.4148 61.5336Z" fill="#15162E"></path>
  <path d="M55.9376 102.943C54.7181 102.943 53.6047 102.731 52.4912 102.254C51.4308 101.777 50.4764 101.141 49.6811 100.239C48.8858 99.3909 48.3025 98.3835 47.9844 97.164L51.908 96.1035C52.1731 97.0579 52.7033 97.8002 53.4456 98.3304C54.1879 98.8606 54.9832 99.1258 55.8846 99.0727C56.6799 99.0727 57.3692 98.9137 58.0055 98.5425C58.6417 98.1714 59.1189 97.6942 59.4901 97.0579C59.8612 96.4217 60.0203 95.7324 60.0203 94.9371C60.0203 93.7176 59.6491 92.7632 58.8538 91.9148C58.0585 91.1195 57.1041 90.6954 55.8846 90.6954C55.5135 90.6954 55.1423 90.7484 54.8242 90.8544C54.453 90.9605 54.1349 91.1195 53.8168 91.2786L51.961 88.0973L60.0733 81.1515L60.4444 82.1059H48.9388V78.2883H63.7318V82.1059L57.2101 88.3624L57.1571 87.1959C58.6417 87.302 59.8612 87.7261 60.9216 88.4154C61.9821 89.1047 62.7244 90.0591 63.3076 91.1725C63.8378 92.286 64.1559 93.5585 64.1559 94.884C64.1559 96.4217 63.7848 97.7472 63.0425 98.9667C62.3002 100.186 61.2928 101.141 60.0733 101.83C58.8008 102.572 57.4222 102.943 55.9376 102.943Z" fill="#121212"></path>
</svg>
