<?xml version="1.0" encoding="UTF-8"?>
<svg xmlns="http://www.w3.org/2000/svg" width="56" height="56" viewBox="0 0 56 56" fill="none">
  <g clip-path="url(#clip0_3197_6626)">
    <path d="M27.9995 34.6077C27.257 34.6077 26.5145 34.392 25.8632 33.9606L6.16367 20.8234C5.14738 20.1473 4.5376 19.0107 4.5376 17.787C4.5376 15.6631 6.26323 13.9375 8.38293 13.9375H47.6161C49.7358 13.9375 51.4614 15.6631 51.4614 17.7828C51.4614 19.0065 50.8558 20.1431 49.8354 20.8193L30.1317 33.9565C29.4846 34.3879 28.742 34.6036 27.9954 34.6036L27.9995 34.6077ZM8.38293 15.6009C7.17582 15.6009 6.19686 16.584 6.19686 17.787C6.19686 18.4548 6.52871 19.0729 7.08456 19.4421L26.7883 32.5793C27.5266 33.0729 28.4766 33.0729 29.2149 32.5793L48.9186 19.4421C49.4745 19.0729 49.8063 18.4548 49.8063 17.787C49.8063 16.5799 48.8274 15.5968 47.6203 15.5968H8.38293V15.6009Z" fill="black"></path>
    <path d="M47.6164 48.7941H8.38317C7.35443 48.7941 6.38791 48.3958 5.66199 47.6658C4.93606 46.9398 4.53369 45.9733 4.53369 44.9446V17.7867C4.53369 17.3304 4.90702 16.957 5.36332 16.957C5.81962 16.957 6.19295 17.3304 6.19295 17.7867V44.9446C6.19295 45.5295 6.4211 46.077 6.83176 46.4918C7.24658 46.9067 7.79414 47.1348 8.37902 47.1348H47.6081C48.1929 47.1348 48.7405 46.9067 49.1553 46.496C49.5701 46.0812 49.7983 45.5336 49.7983 44.9487V17.7867C49.7983 17.3304 50.1716 16.957 50.6279 16.957C51.0842 16.957 51.4575 17.3304 51.4575 17.7867V44.9446C51.4575 45.9733 51.0552 46.9398 50.3292 47.6658C49.6033 48.3917 48.6368 48.7941 47.6081 48.7941H47.6164Z" fill="black"></path>
    <path d="M45.5634 8.75223L29.8419 24.4737C29.5142 24.8014 28.8588 25.1291 28.2034 25.1291C27.548 25.1291 26.8926 24.8014 26.5649 24.4737L18.7041 16.613C17.721 15.6299 17.721 13.9913 18.7041 13.0082C19.6872 12.0251 21.3258 12.0251 22.3089 13.0082L28.5311 19.2305L41.9587 5.14749C42.9418 4.16438 44.5803 4.16438 45.5634 5.14749C46.5465 6.1306 46.5465 7.76912 45.5634 8.75223Z" fill="#4396F9"></path>
    <path d="M28.2032 25.9584C27.2865 25.9584 26.4237 25.5062 25.9798 25.0582L18.1191 17.1975C17.4886 16.567 17.1401 15.7166 17.1401 14.8082C17.1401 13.8997 17.4886 13.0535 18.1191 12.4188C18.7496 11.7883 19.6 11.4399 20.5084 11.4399C21.4169 11.4399 22.2631 11.7883 22.8978 12.4188L28.5185 18.0396L41.3612 4.57054C42.6927 3.23898 44.8332 3.23898 46.1523 4.5581C46.7828 5.18861 47.1312 6.03898 47.1312 6.94743C47.1312 7.85587 46.7828 8.7021 46.1523 9.33676L30.4308 25.0582C29.9828 25.5062 29.1241 25.9584 28.2074 25.9584H28.2032ZM20.5084 13.1033C20.0438 13.1033 19.6124 13.2775 19.293 13.5969C18.9736 13.9163 18.7994 14.3477 18.7994 14.8123C18.7994 15.2769 18.9736 15.7083 19.293 16.0277L27.1538 23.8885C27.3197 24.0544 27.7677 24.2991 28.2032 24.2991C28.6388 24.2991 29.0868 24.0544 29.2527 23.8885L44.9742 8.16699C45.2936 7.84758 45.4678 7.41617 45.4678 6.95158C45.4678 6.48698 45.2936 6.05558 44.9742 5.73617C44.3147 5.07661 43.2029 5.07661 42.5434 5.73617L29.1283 19.8067C28.9748 19.9685 28.7632 20.0597 28.5392 20.0639C28.3111 20.0514 28.0995 19.9768 27.9419 19.8191L21.7197 13.5969C21.4003 13.2775 20.9689 13.1033 20.5043 13.1033H20.5084Z" fill="#121212"></path>
  </g>
  <defs>
    <clipPath id="clip0_3197_6626">
      <rect width="56" height="56" fill="white"></rect>
    </clipPath>
  </defs>
</svg>
