<?xml version="1.0" encoding="UTF-8"?>
<svg xmlns="http://www.w3.org/2000/svg" width="272" height="272" viewBox="0 0 272 272" fill="none">
  <g clip-path="url(#clip0_3661_55855)">
    <mask id="mask0_3661_55855" style="mask-type:luminance" maskUnits="userSpaceOnUse" x="34" y="35" width="204" height="202">
      <path d="M39.7176 108.344L97.9828 42.1096C100.973 38.7109 104.998 36.3833 109.435 35.4872C113.873 34.5912 118.486 35.1744 122.558 37.1521L207.864 78.4982C210.675 79.8609 213.14 81.8386 215.075 84.2935C217.011 86.7431 218.368 89.6009 219.047 92.6497L237.09 173.953C238.145 178.709 237.493 183.682 235.239 187.998C232.991 192.319 229.29 195.707 224.794 197.568L133.38 235.405C130.596 236.555 127.595 237.085 124.589 236.958C121.577 236.831 118.635 236.051 115.957 234.668L45.762 198.406C42.3846 196.662 39.5585 194.021 37.5808 190.782C35.6031 187.537 34.5586 183.809 34.5586 180.013V122.024C34.5586 116.986 36.3931 112.124 39.7176 108.344Z" fill="white"></path>
    </mask>
    <g mask="url(#mask0_3661_55855)">
      <path d="M39.7176 108.344L97.9828 42.1096C100.973 38.7109 104.998 36.3833 109.435 35.4872C113.873 34.5912 118.486 35.1744 122.558 37.1521L207.864 78.4982C210.675 79.8609 213.14 81.8386 215.075 84.2935C217.011 86.7431 218.368 89.6009 219.047 92.6497L237.09 173.953C238.145 178.709 237.493 183.682 235.239 187.998C232.991 192.319 229.29 195.707 224.794 197.568L133.38 235.405C130.596 236.555 127.595 237.085 124.589 236.958C121.577 236.831 118.635 236.051 115.957 234.668L45.762 198.406C42.3846 196.662 39.5585 194.021 37.5808 190.782C35.6031 187.537 34.5586 183.809 34.5586 180.013V122.024C34.5586 116.986 36.3931 112.124 39.7176 108.344Z" fill="#C1D9FD"></path>
      <path d="M139.004 128.079L146.522 140.061L128.744 147.638L112.668 140.22L119.216 127.108C119.492 127.129 139.004 128.079 139.004 128.079Z" fill="#F8BEA2"></path>
      <path d="M128.74 148.216L111.953 140.47L118.904 126.546L119.265 126.578C119.578 126.599 132.335 127.225 139.031 127.548L139.307 127.564L147.303 140.305L128.74 148.216ZM113.39 139.966L128.756 147.055L145.744 139.812L138.702 128.593C135.972 128.46 121.985 127.776 119.535 127.654L113.385 139.966H113.39Z" fill="#121212"></path>
      <path d="M172.642 286.353L183.919 265.378C183.919 265.378 172.419 244.636 170.388 236.741C168.771 230.447 168.31 205.797 168.188 196.052C168.172 194.801 169.789 194.276 170.5 195.304C188.119 220.776 189.556 250.049 189.556 250.049L210.87 264.031C223.5 248.469 208.956 218.703 208.728 218.029C208.5 217.351 187.986 175.183 187.986 175.183C170.903 143.216 142.706 133.694 142.706 133.694C135.559 147.85 126.28 145.952 120.925 142.05C116.837 139.07 114.944 134.876 114.944 134.876C114.944 134.876 100.607 142.416 88.6028 150.199C76.5987 157.983 72.8236 184.552 72.7388 185.146L61.705 232.769C60.6976 237.117 57.5375 251.136 57.6701 255.6C57.9299 264.381 59.7909 276.682 73.8787 265.966C81.8319 258.798 90.2676 210.893 91.9484 206.704C94.0693 201.428 98.0724 209.175 97.1551 222.6C95.9303 240.41 82.219 300.547 82.219 300.547C82.219 300.547 148.941 332.243 172.652 286.342" fill="#FCC018"></path>
      <path d="M128.152 311.75C125.05 311.75 121.826 311.565 118.491 311.193C98.9845 309.025 82.1661 301.114 81.9964 301.035C81.7737 300.929 81.6518 300.679 81.7048 300.435C81.8427 299.836 95.4215 240.134 96.625 222.568C97.3514 212.033 95.045 205.909 93.6081 205.575C93.2423 205.495 92.8075 205.988 92.4417 206.9C92.0281 207.934 91.1161 212.027 89.9655 217.218C86.3389 233.559 80.2732 260.913 74.2288 266.359C69.1334 270.234 65.1144 271.491 62.2512 270.123C57.9883 268.087 57.2884 260.866 57.1294 255.616C56.9968 251.269 59.913 238.109 61.1749 232.653L72.2087 185.029C72.6116 182.245 76.5352 157.384 88.3007 149.759C100.188 142.055 114.541 134.489 114.684 134.415C114.811 134.346 114.965 134.335 115.103 134.383C115.241 134.431 115.352 134.531 115.416 134.664C115.437 134.706 117.303 138.768 121.222 141.626C123.099 142.994 126.906 145.12 131.338 144.054C135.511 143.047 139.169 139.484 142.213 133.455C142.33 133.222 142.605 133.105 142.854 133.19C143.141 133.285 171.449 143.147 188.432 174.928C190.542 179.266 208.977 217.165 209.211 217.855C209.227 217.892 209.28 218.014 209.365 218.204C212.928 226.147 214.645 232.807 215.462 236.99C216.485 242.239 216.777 247.048 216.321 251.285C215.759 256.518 214.057 260.919 211.263 264.365C211.093 264.577 210.791 264.625 210.558 264.476L189.243 250.495C189.1 250.404 189.015 250.245 189.004 250.076C188.988 249.784 187.366 220.654 170.044 195.607C169.816 195.278 169.471 195.251 169.222 195.331C168.968 195.411 168.697 195.644 168.702 196.052C168.824 206.184 169.286 230.41 170.887 236.614C172.88 244.349 184.254 264.916 184.37 265.123C184.46 265.282 184.46 265.473 184.37 265.632L173.151 286.491C173.14 286.528 173.13 286.56 173.108 286.597C167.637 297.191 159.418 304.534 148.687 308.436C142.611 310.642 135.723 311.75 128.13 311.75H128.152ZM82.8395 300.255C85.4481 301.438 100.93 308.177 118.634 310.144C129.954 311.4 139.954 310.488 148.358 307.434C158.787 303.643 166.788 296.507 172.128 286.226C172.138 286.183 172.154 286.146 172.175 286.104L183.315 265.383C181.937 262.88 171.804 244.365 169.874 236.873C168.252 230.558 167.785 206.232 167.658 196.063C167.647 195.251 168.14 194.567 168.92 194.318C169.689 194.074 170.479 194.34 170.94 195.002C187.541 219.005 189.863 246.714 190.07 249.752L210.759 263.32C215.409 257.297 216.65 248.512 214.444 237.191C213.638 233.061 211.941 226.492 208.415 218.639C208.304 218.39 208.24 218.242 208.225 218.199C207.906 217.388 194.534 189.859 187.504 175.411C171.873 146.164 146.55 135.714 142.955 134.351C139.806 140.411 135.988 144.022 131.598 145.083C126.747 146.254 122.632 143.953 120.607 142.479C117.25 140.03 115.352 136.832 114.705 135.602C112.113 136.981 99.5094 143.757 88.8839 150.645C84.1014 153.746 79.9074 160.554 76.7632 170.337C74.4356 177.569 73.4388 183.99 73.2638 185.199C73.2638 185.215 73.2585 185.246 73.2532 185.262L62.2194 232.886C60.9681 238.3 58.0732 251.353 58.2004 255.579C58.4337 263.379 59.9077 267.822 62.7178 269.163C65.1939 270.346 68.8418 269.126 73.5607 265.537C79.3188 260.346 85.5754 232.138 88.9369 216.98C90.1458 211.54 91.0154 207.611 91.4608 206.497C92.2243 204.594 93.1787 204.382 93.8467 204.53C96.2539 205.082 98.4013 212.16 97.6855 222.626C96.5243 239.493 84.0537 294.842 82.8342 300.239L82.8395 300.255Z" fill="#121212"></path>
      <path d="M107.383 99.9719C107.383 99.9719 105.05 81.425 114.869 77.3052C124.689 73.1855 132.069 71.0911 142.032 72.3212C159.487 74.4739 152.796 100.428 152.796 100.428" fill="#F8BEA2"></path>
      <path d="M153.311 100.566L152.282 100.301C152.319 100.157 155.951 85.7197 150.575 77.8248C148.645 74.9935 145.75 73.318 141.97 72.8514C132.161 71.6372 124.95 73.6521 115.072 77.7983C105.735 81.7166 107.882 99.728 107.903 99.9083L106.853 100.041C106.827 99.8499 106.27 95.2795 106.917 90.1205C107.787 83.18 110.464 78.5831 114.663 76.8227C124.711 72.6075 132.055 70.5609 142.102 71.8016C146.195 72.3053 149.345 74.1346 151.455 77.231C153.836 80.7251 154.87 85.7197 154.53 92.0823C154.281 96.7853 153.353 100.417 153.316 100.566H153.311Z" fill="#221F1F"></path>
      <path d="M145.162 55.8262C130.406 50.0681 123.068 64.6967 116.865 66.4729C110.667 68.2438 103.641 61.8283 102.379 61.8283C101.706 61.8283 98.7898 71.16 103.519 76.6902C103.36 82.7346 103.636 98.5085 107.4 98.7047C107.4 98.7047 110.105 100.332 111.064 95.6188C111.648 92.7504 112.109 86.865 112.172 82.6233C115.391 84.1503 118.784 84.0283 128.646 81.4197C138.911 78.6997 145.894 79.601 150.242 81.0856C150.077 85.3167 150.374 92.305 150.931 95.534C151.748 100.269 154.499 98.7206 154.499 98.7206C157.426 98.6516 157.978 88.3761 157.956 80.7834C159.536 74.0603 156.912 60.3967 145.162 55.8156H145.168L145.162 55.8262Z" fill="#722D18"></path>
      <path d="M108.455 99.5053C107.903 99.5053 107.453 99.325 107.246 99.2243C102.723 98.6676 102.882 80.9849 102.983 76.8758C98.9428 71.9554 100.47 64.3839 101.498 62.1517C101.7 61.7116 101.949 61.2981 102.384 61.2981C102.856 61.2981 103.476 61.6692 104.839 62.507C107.681 64.2567 112.437 67.1887 116.726 65.964C118.513 65.4549 120.464 63.753 122.723 61.7806C127.829 57.3268 134.822 51.224 145.358 55.3332C145.374 55.3385 145.39 55.3491 145.411 55.3544C157.712 60.1899 159.992 74.2989 158.486 80.8524C158.534 98.4926 155.723 99.2031 154.631 99.2561C154.302 99.4046 153.406 99.7174 152.468 99.272C151.434 98.7789 150.739 97.5541 150.411 95.6294C149.886 92.5807 149.557 85.9477 149.7 81.4674C145.665 80.1684 138.847 79.267 128.783 81.934C119.743 84.3253 115.979 84.7123 112.691 83.4239C112.59 87.4217 112.172 92.8617 111.588 95.7249C111.201 97.639 110.47 98.8425 109.42 99.3038C109.086 99.4523 108.757 99.5053 108.46 99.5053H108.455ZM102.538 62.4115C101.732 63.7689 99.8972 71.6426 103.916 76.3456C104.001 76.4463 104.049 76.5735 104.043 76.7061C103.768 87.1619 104.961 98.0472 107.426 98.1798C107.511 98.1798 107.596 98.2116 107.67 98.254C107.691 98.2646 108.333 98.6305 108.996 98.3335C109.696 98.0207 110.231 97.0451 110.539 95.5181C111.148 92.5277 111.578 86.6105 111.636 82.6233C111.636 82.443 111.732 82.2733 111.885 82.1832C112.039 82.0878 112.23 82.0772 112.394 82.1567C115.613 83.6837 119.075 83.4186 128.502 80.9213C139.138 78.1006 146.286 79.1928 150.405 80.5979C150.628 80.6721 150.771 80.8842 150.766 81.1228C150.591 85.5395 150.92 92.3739 151.445 95.4598C151.71 96.9921 152.213 97.9836 152.903 98.3176C153.555 98.6305 154.202 98.2858 154.234 98.2752C154.308 98.2328 154.393 98.2116 154.477 98.2116C155.925 98.1745 157.457 93.5881 157.415 80.81C157.415 80.7675 157.415 80.7251 157.431 80.688C158.894 74.4633 156.741 60.9269 144.96 56.3353C144.944 56.33 144.928 56.3194 144.912 56.314C135.013 52.4806 128.582 58.085 123.417 62.5918C121.063 64.649 119.027 66.4199 117.012 66.9979C112.272 68.3499 107.267 65.2694 104.277 63.4242C103.625 63.0213 102.903 62.5759 102.538 62.4274V62.4115Z" fill="#121212"></path>
      <path d="M142.843 89.129C142.69 89.129 142.536 89.0601 142.43 88.9328C142.345 88.8268 140.357 86.4514 137.345 88.3761C137.096 88.5352 136.772 88.4609 136.613 88.2171C136.454 87.9678 136.529 87.6444 136.772 87.4854C140.601 85.0464 143.225 88.2436 143.252 88.2754C143.432 88.5034 143.395 88.8374 143.167 89.023C143.071 89.1025 142.949 89.1396 142.838 89.1396L142.843 89.129Z" fill="#121212"></path>
      <path d="M123.761 89.129C123.608 89.129 123.454 89.0601 123.348 88.9328C123.263 88.8268 121.275 86.4514 118.263 88.3761C118.014 88.5352 117.69 88.4609 117.531 88.2171C117.372 87.9678 117.446 87.6444 117.69 87.4854C121.519 85.0464 124.143 88.2436 124.17 88.2754C124.35 88.5034 124.313 88.8374 124.085 89.023C123.989 89.1025 123.867 89.1396 123.756 89.1396L123.761 89.129Z" fill="#121212"></path>
      <path d="M109.413 99.9719C109.413 99.9719 109.35 88.7738 103.443 92.1512C97.5365 95.5181 101.847 106.552 108.66 108.355C108.66 108.355 108.851 114.001 109.996 117.755C111.911 124.012 116.492 129.728 127.324 130.03C139.084 130.353 145.447 129.351 149.386 118.28C150.144 116.143 150.812 111.069 151.412 108.355H151.427C158.246 106.552 162.562 95.5181 156.645 92.1512C150.738 88.7844 150.675 99.9719 150.675 99.9719" fill="#F8BEA2"></path>
      <path d="M130.687 130.613C129.605 130.613 128.481 130.592 127.314 130.56C117.977 130.3 111.986 126.043 109.494 117.909C108.502 114.654 108.216 110.104 108.153 108.752C103.821 107.39 100.73 102.612 100.215 98.6464C99.807 95.534 100.894 92.9943 103.184 91.6847C104.621 90.8628 105.894 90.7568 106.965 91.3718C109.876 93.0526 109.95 99.6803 109.95 99.9613C109.95 100.253 109.717 100.492 109.425 100.497C109.133 100.497 108.895 100.264 108.895 99.9719C108.884 98.2222 108.423 93.4344 106.44 92.2944C105.714 91.8755 104.823 91.9763 103.72 92.6072C101.117 94.0918 101.069 96.9444 101.276 98.5085C101.763 102.241 104.717 106.753 108.81 107.84C109.038 107.899 109.197 108.1 109.202 108.333C109.202 108.392 109.404 113.954 110.517 117.602C112.861 125.253 118.524 129.256 127.352 129.5C139.133 129.828 145.093 128.805 148.9 118.1C149.366 116.785 149.817 114.198 150.22 111.918C150.458 110.539 150.686 109.24 150.909 108.238C150.957 108.021 151.137 107.856 151.354 107.83C155.432 106.722 158.364 102.231 158.846 98.5085C159.048 96.9444 159.005 94.0971 156.397 92.6125C155.294 91.9816 154.403 91.8808 153.677 92.2997C151.694 93.445 151.232 98.2275 151.222 99.9719C151.222 100.264 150.983 100.497 150.692 100.497C150.4 100.497 150.161 100.258 150.167 99.9613C150.167 99.6803 150.241 93.0579 153.152 91.3771C154.223 90.7621 155.49 90.8681 156.932 91.6847C159.228 92.9943 160.315 95.5287 159.907 98.6411C159.387 102.634 156.259 107.448 151.885 108.779C151.688 109.712 151.487 110.873 151.275 112.098C150.851 114.537 150.411 117.055 149.912 118.455C146.164 128.991 140.04 130.613 130.708 130.613H130.687Z" fill="#121212"></path>
      <path d="M153.003 100.921C152.971 100.921 152.945 100.921 152.913 100.916C152.626 100.868 152.43 100.592 152.483 100.301C152.542 99.956 153.109 96.9019 154.594 96.1278C155.065 95.8786 155.59 95.8733 156.105 96.1172C156.37 96.2392 156.486 96.5573 156.359 96.8224C156.237 97.0875 155.919 97.2042 155.654 97.0769C155.378 96.9497 155.203 97.0027 155.081 97.0663C154.307 97.4693 153.713 99.3727 153.522 100.481C153.48 100.741 153.252 100.921 153.003 100.921Z" fill="#121212"></path>
      <path d="M106.556 100.921C106.301 100.921 106.079 100.741 106.036 100.481C105.845 99.3728 105.252 97.4693 104.478 97.0664C104.356 97.0027 104.181 96.9444 103.905 97.077C103.64 97.1989 103.322 97.0876 103.2 96.8225C103.078 96.5573 103.189 96.2392 103.454 96.1173C103.969 95.8787 104.493 95.884 104.965 96.1279C106.45 96.9073 107.017 99.956 107.076 100.301C107.123 100.587 106.932 100.863 106.646 100.916C106.614 100.916 106.582 100.921 106.556 100.921Z" fill="#121212"></path>
      <path d="M131.106 120.269C130.931 120.269 130.756 120.269 130.576 120.258C123.842 119.95 121.981 114.913 121.906 114.701C121.811 114.426 121.954 114.123 122.23 114.023C122.506 113.927 122.808 114.07 122.909 114.346C122.978 114.532 124.632 118.927 130.623 119.197C136.646 119.484 138.794 114.712 138.884 114.51C139.001 114.245 139.313 114.123 139.584 114.24C139.849 114.357 139.976 114.669 139.86 114.935C139.838 114.988 137.458 120.269 131.111 120.269H131.106Z" fill="#121212"></path>
      <path d="M121.158 105.269C122.382 105.269 123.374 103.328 123.374 100.937C123.374 98.5456 122.382 96.605 121.158 96.605C119.933 96.605 118.941 98.5456 118.941 100.937C118.941 103.328 119.933 105.269 121.158 105.269Z" fill="#121212"></path>
      <path d="M140.076 105.269C141.3 105.269 142.292 103.328 142.292 100.937C142.292 98.5456 141.3 96.605 140.076 96.605C138.851 96.605 137.859 98.5456 137.859 100.937C137.859 103.328 138.851 105.269 140.076 105.269Z" fill="#121212"></path>
      <path d="M131.233 110.666C131.058 110.666 130.888 110.582 130.787 110.422C130.628 110.179 130.697 109.85 130.946 109.691C133.247 108.201 134.393 106.732 134.255 105.454C134.069 103.758 131.667 102.496 130.755 102.156C130.48 102.056 130.342 101.748 130.448 101.472C130.549 101.197 130.856 101.059 131.132 101.165C131.291 101.223 135.024 102.655 135.315 105.343C135.501 107.071 134.228 108.837 131.53 110.587C131.439 110.645 131.339 110.672 131.243 110.672L131.233 110.666Z" fill="#121212"></path>
      <path d="M106.032 103.567C106 103.567 105.974 103.567 105.942 103.561C104.06 103.238 103.646 101.244 103.688 100.237C103.699 99.9454 103.948 99.7174 104.24 99.7333C104.531 99.7439 104.759 99.9931 104.744 100.285C104.744 100.364 104.68 102.268 106.117 102.517C106.403 102.565 106.599 102.84 106.552 103.132C106.509 103.392 106.281 103.572 106.032 103.572V103.567Z" fill="#121212"></path>
      <path d="M154.492 103.736C154.237 103.736 154.015 103.556 153.972 103.296C153.924 103.01 154.115 102.734 154.407 102.681C155.849 102.432 155.78 100.47 155.78 100.454C155.77 100.163 155.992 99.9136 156.284 99.903C156.581 99.8817 156.825 100.115 156.835 100.407C156.883 101.414 156.469 103.402 154.582 103.726C154.55 103.726 154.524 103.731 154.492 103.731V103.736Z" fill="#121212"></path>
      <path d="M121.879 142.707C121.879 142.707 128.75 148.163 136.773 142.076L128.554 155.257L121.879 142.707Z" fill="#F8F9F9"></path>
      <path d="M128.549 155.788C128.549 155.788 128.539 155.788 128.533 155.788C128.342 155.782 128.173 155.676 128.083 155.507L121.407 142.956C121.291 142.734 121.344 142.463 121.534 142.299C121.725 142.135 122.006 142.135 122.203 142.288C122.473 142.5 128.862 147.405 136.444 141.647C136.646 141.493 136.932 141.504 137.123 141.679C137.314 141.854 137.351 142.135 137.213 142.352L128.995 155.533C128.899 155.687 128.729 155.782 128.544 155.782L128.549 155.788ZM123.231 144.128L128.586 154.197L135.05 143.826C129.991 146.604 125.543 145.258 123.231 144.128Z" fill="#121212"></path>
      <path d="M141.194 131.164C141.194 131.164 142.17 134.531 137.594 140.899C133.024 147.272 128.549 155.252 128.549 155.252L138.347 153.205L134.885 149.473L151.295 145.385C151.295 145.385 150.489 132.723 141.194 131.164Z" fill="#96B6C5"></path>
      <path d="M128.548 155.782C128.384 155.782 128.22 155.703 128.119 155.565C127.997 155.395 127.981 155.173 128.082 154.992C128.124 154.913 132.626 146.912 137.159 140.586C141.528 134.499 140.69 131.339 140.68 131.308C140.632 131.133 140.674 130.942 140.791 130.809C140.913 130.671 141.093 130.608 141.274 130.64C150.87 132.246 151.804 145.215 151.814 145.348C151.83 145.602 151.66 145.835 151.411 145.894L135.871 149.764L138.723 152.84C138.856 152.977 138.898 153.179 138.84 153.359C138.781 153.539 138.628 153.677 138.442 153.714L128.644 155.761C128.607 155.766 128.57 155.772 128.532 155.772L128.548 155.782ZM141.804 131.833C141.851 133.238 141.464 136.419 138.023 141.212C134.476 146.159 130.95 152.145 129.588 154.494L137.313 152.877L134.487 149.833C134.359 149.695 134.312 149.499 134.37 149.324C134.423 149.144 134.566 149.006 134.752 148.958L150.717 144.982C150.473 142.85 149.004 133.593 141.804 131.833Z" fill="#121212"></path>
      <path d="M117.299 131.011C117.299 131.011 116.843 134.038 120.899 140.745C124.956 147.453 128.556 155.257 128.556 155.257L120.141 153.052L123.603 149.319L107.193 145.231C107.193 145.231 107.999 132.569 117.294 131.011H117.299Z" fill="#96B6C5"></path>
      <path d="M128.55 155.788C128.507 155.788 128.46 155.782 128.417 155.772L120.003 153.566C119.823 153.518 119.679 153.38 119.626 153.2C119.573 153.02 119.621 152.829 119.748 152.691L122.601 149.616L107.06 145.745C106.811 145.682 106.641 145.454 106.657 145.199C106.668 145.067 107.601 132.098 117.198 130.491C117.378 130.464 117.569 130.528 117.691 130.666C117.792 130.783 117.84 130.936 117.818 131.085C117.818 131.127 117.49 134.091 121.344 140.47C125.369 147.124 128.99 154.955 129.027 155.035C129.112 155.22 129.085 155.438 128.953 155.597C128.852 155.719 128.698 155.788 128.545 155.788H128.55ZM121.127 152.76L127.585 154.451C126.471 152.118 123.576 146.201 120.438 141.016C117.394 135.984 116.837 132.946 116.758 131.652C109.478 133.354 108.004 142.681 107.76 144.823L123.725 148.799C123.905 148.847 124.054 148.985 124.107 149.165C124.16 149.345 124.117 149.542 123.99 149.679L121.127 152.76Z" fill="#121212"></path>
      <path d="M212.335 248.379C212.043 248.379 211.804 248.14 211.804 247.849C211.804 237.923 208.824 229.848 208.793 229.768C208.692 229.493 208.83 229.19 209.106 229.084C209.381 228.984 209.683 229.122 209.789 229.397C209.821 229.477 212.87 237.727 212.87 247.849C212.87 248.14 212.631 248.379 212.34 248.379H212.335Z" fill="#121212"></path>
      <path d="M140.633 310.064L139.461 300.573C139.329 299.497 139.154 298.352 138.92 296.968C136.762 284.402 132.489 231.99 133.369 213.067C134.212 194.944 128.099 155.735 128.035 155.342L129.085 155.178C129.149 155.576 135.278 194.891 134.43 213.12C133.576 231.55 137.871 284.593 139.965 296.793C140.204 298.193 140.379 299.354 140.516 300.446L141.688 309.937L140.638 310.064H140.633Z" fill="#121212"></path>
      <path opacity="0.27" d="M140.75 90.7515C135.495 90.7515 131.232 95.0091 131.232 100.269C131.232 100.545 131.248 100.826 131.27 101.101C131.323 101.101 131.37 101.101 131.423 101.122C131.577 101.175 135.214 102.575 135.49 105.189C135.575 106.006 135.326 106.828 134.748 107.649C136.386 108.975 138.47 109.781 140.734 109.781C145.988 109.781 150.251 105.523 150.251 100.264C150.251 95.0038 145.994 90.7462 140.734 90.7462H140.739L140.75 90.7515Z" fill="#ACDFF2"></path>
      <path opacity="0.27" d="M121.131 109.781C126.385 109.781 130.648 105.518 130.648 100.264C130.648 95.0091 126.385 90.7462 121.131 90.7462C115.876 90.7462 111.613 95.0038 111.613 100.264C111.613 105.523 115.871 109.781 121.131 109.781Z" fill="#ACDFF2"></path>
      <path d="M121.132 110.311C115.591 110.311 111.084 105.804 111.084 100.264C111.084 94.7228 115.591 90.2159 121.132 90.2159C126.672 90.2159 131.179 94.7228 131.179 100.264C131.179 105.804 126.672 110.311 121.132 110.311ZM121.132 91.2817C116.179 91.2817 112.144 95.3113 112.144 100.269C112.144 105.226 116.174 109.256 121.132 109.256C126.089 109.256 130.119 105.226 130.119 100.269C130.119 95.3113 126.089 91.2817 121.132 91.2817Z" fill="#121212"></path>
      <path d="M140.749 110.306C138.119 110.306 135.389 109.468 133.793 108.174C133.576 107.999 133.533 107.687 133.692 107.459C134.201 106.732 134.413 106.048 134.339 105.354C134.106 103.143 130.871 101.828 130.638 101.738C130.384 101.711 130.14 101.51 130.119 101.255C130.097 100.985 130.182 100.714 130.272 100.428C130.315 100.285 130.368 100.131 130.41 99.956C131.805 93.9911 135.728 90.269 140.659 90.2265C140.691 90.2212 140.723 90.2159 140.755 90.2159C146.295 90.2159 150.802 94.7228 150.802 100.264C150.802 105.804 146.295 110.311 140.755 110.311L140.749 110.306ZM134.837 107.628C136.285 108.604 138.586 109.245 140.749 109.245C145.702 109.245 149.736 105.216 149.736 100.258C149.736 95.3007 145.755 91.3188 140.839 91.2711C140.813 91.2711 140.781 91.2764 140.755 91.2764C135.431 91.2764 132.451 95.8786 131.444 100.189C131.396 100.391 131.338 100.576 131.285 100.741C131.274 100.773 131.264 100.804 131.253 100.836C132.139 101.207 135.118 102.655 135.394 105.237C135.479 106.032 135.288 106.833 134.837 107.623V107.628ZM130.622 101.732C130.622 101.732 130.622 101.732 130.628 101.732C130.628 101.732 130.628 101.732 130.622 101.732Z" fill="#121212"></path>
      <path d="M185.728 252.265H82.9992C82.6439 252.265 82.2887 252.202 81.96 252.059C81.6312 251.921 81.3396 251.714 81.0957 251.449C80.8518 251.189 80.6662 250.882 80.5496 250.542C80.4329 250.203 80.3905 249.848 80.4223 249.492L85.1519 181.885C85.2155 181.137 85.5495 180.443 86.0956 179.928C86.6418 179.419 87.3628 179.128 88.1104 179.117H190.839C191.195 179.117 191.55 179.181 191.879 179.324C192.207 179.462 192.499 179.668 192.743 179.934C192.987 180.193 193.172 180.501 193.284 180.84C193.4 181.18 193.443 181.535 193.411 181.89L188.682 249.498C188.618 250.245 188.284 250.94 187.738 251.454C187.192 251.968 186.471 252.255 185.723 252.265H185.728Z" fill="#FCE076"></path>
      <path d="M82.9567 252.796C82.5485 252.796 82.1402 252.711 81.7584 252.546C81.3608 252.377 81.0055 252.128 80.7139 251.815C80.417 251.497 80.1996 251.125 80.0565 250.717C79.9133 250.309 79.8656 249.885 79.9027 249.45L84.6322 181.848C84.7064 180.962 85.0988 180.146 85.7457 179.541C86.3925 178.937 87.2356 178.597 88.1157 178.587H190.855C191.285 178.587 191.698 178.661 192.101 178.831C192.499 179 192.854 179.25 193.146 179.568C193.443 179.886 193.66 180.252 193.803 180.665C193.947 181.073 193.994 181.498 193.957 181.932L189.228 249.535C189.153 250.42 188.761 251.237 188.114 251.841C187.467 252.446 186.63 252.785 185.744 252.796H83.0045C83.0045 252.796 82.9726 252.796 82.962 252.796H82.9567ZM190.882 179.647C190.882 179.647 190.861 179.647 190.855 179.647H88.1157C87.506 179.658 86.9174 179.891 86.4615 180.315C86.0108 180.739 85.7298 181.312 85.682 181.927L80.9525 249.529C80.926 249.821 80.9631 250.102 81.0533 250.367C81.1434 250.638 81.2919 250.876 81.4827 251.088C81.6736 251.295 81.9069 251.459 82.1667 251.571C82.4212 251.682 82.7128 251.73 82.9885 251.73H185.723C186.338 251.719 186.926 251.481 187.377 251.062C187.828 250.638 188.109 250.065 188.157 249.45L192.886 181.848C192.913 181.556 192.875 181.275 192.785 181.01C192.695 180.739 192.547 180.501 192.356 180.294C192.165 180.087 191.932 179.923 191.672 179.812C191.423 179.706 191.147 179.647 190.882 179.647Z" fill="#121212"></path>
      <path d="M136.302 226.889C142.117 226.889 146.832 222.175 146.832 216.359C146.832 210.544 142.117 205.829 136.302 205.829C130.486 205.829 125.771 210.544 125.771 216.359C125.771 222.175 130.486 226.889 136.302 226.889Z" fill="#FCC018"></path>
      <path d="M136.302 227.42C130.205 227.42 125.242 222.457 125.242 216.359C125.242 210.262 130.205 205.299 136.302 205.299C142.4 205.299 147.363 210.262 147.363 216.359C147.363 222.457 142.4 227.42 136.302 227.42ZM136.302 206.359C130.788 206.359 126.303 210.845 126.303 216.359C126.303 221.874 130.788 226.359 136.302 226.359C141.817 226.359 146.302 221.874 146.302 216.359C146.302 210.845 141.817 206.359 136.302 206.359Z" fill="#121212"></path>
    </g>
    <path d="M125.444 237.51C125.152 237.51 124.855 237.504 124.563 237.488C121.499 237.361 118.439 236.55 115.714 235.139L45.519 198.878C42.0567 197.091 39.1565 194.382 37.1257 191.057C35.1003 187.728 34.0293 183.91 34.0293 180.013V122.024C34.0293 116.859 35.9063 111.875 39.3208 107.994L97.5861 41.7597C100.635 38.2921 104.808 35.8796 109.336 34.9676C113.858 34.0556 118.641 34.6601 122.798 36.6749L208.104 78.021C210.967 79.4102 213.528 81.4621 215.5 83.9647C217.473 86.462 218.883 89.4259 219.573 92.533L237.616 173.836C238.697 178.703 238.024 183.82 235.718 188.242C233.416 192.664 229.609 196.153 225.002 198.056L133.588 235.892C131.027 236.953 128.227 237.504 125.449 237.504L125.444 237.51ZM40.1162 108.694C36.8766 112.379 35.0897 117.114 35.0897 122.024V180.013C35.0897 183.714 36.1077 187.346 38.0324 190.506C39.9571 193.666 42.7142 196.238 46.0068 197.94L116.202 234.201C118.795 235.537 121.7 236.311 124.611 236.433C127.527 236.56 130.486 236.03 133.179 234.917L224.594 197.081C228.973 195.267 232.584 191.959 234.774 187.754C236.958 183.555 237.6 178.693 236.577 174.064L218.533 92.761C217.876 89.8077 216.54 86.9923 214.663 84.6222C212.786 82.2468 210.357 80.2956 207.632 78.9754L122.326 37.6293C118.381 35.7152 113.837 35.1426 109.537 36.0068C105.237 36.8711 101.276 39.1669 98.3761 42.4595L40.1109 108.694H40.1162Z" fill="#121212"></path>
    <path d="M201.556 144.298L204.435 139.309C204.991 138.349 205.914 137.66 206.99 137.394C213.809 135.719 219.943 131.912 224.472 126.499C229.45 120.55 232.181 113.036 232.181 105.279C232.181 98.9857 230.389 92.8246 227.011 87.5172C223.634 82.2097 218.809 77.9733 213.109 75.3116C207.409 72.65 201.068 71.6638 194.827 72.4803C188.587 73.2968 182.712 75.8737 177.887 79.9086C173.062 83.9435 169.488 89.2775 167.585 95.2742C165.681 101.271 165.528 107.687 167.145 113.768C168.762 119.85 172.076 125.343 176.705 129.606C180.814 133.391 185.803 136.064 191.206 137.389C192.288 137.654 193.221 138.344 193.783 139.309L196.662 144.293C196.911 144.722 197.266 145.077 197.696 145.326C198.125 145.576 198.613 145.703 199.106 145.703C199.599 145.703 200.087 145.57 200.516 145.326C200.946 145.077 201.301 144.722 201.55 144.293L201.556 144.298Z" fill="#4F94F6"></path>
    <path d="M199.111 146.238C198.522 146.238 197.944 146.085 197.435 145.788C196.926 145.491 196.502 145.067 196.211 144.563L193.332 139.579C192.854 138.752 192.038 138.142 191.089 137.909C185.601 136.562 180.506 133.826 176.354 129.998C171.64 125.661 168.284 120.094 166.641 113.906C164.997 107.718 165.151 101.218 167.086 95.1152C169.021 89.0124 172.643 83.6148 177.552 79.5057C182.462 75.3965 188.416 72.7879 194.763 71.9554C201.11 71.123 207.536 72.1198 213.337 74.8345C219.137 77.5439 224.02 81.8333 227.461 87.2362C230.897 92.6391 232.716 98.8797 232.716 105.285C232.716 113.153 229.932 120.809 224.879 126.843C220.256 132.368 214.116 136.196 207.117 137.914C206.184 138.142 205.373 138.752 204.895 139.579L202.016 144.568C201.725 145.077 201.301 145.501 200.786 145.793C200.277 146.085 199.699 146.244 199.111 146.244V146.238ZM199.121 72.7348C197.716 72.7348 196.306 72.825 194.901 73.0105C188.75 73.8112 182.987 76.3403 178.231 80.3222C173.475 84.3041 169.97 89.532 168.093 95.4386C166.216 101.345 166.068 107.644 167.664 113.636C169.254 119.627 172.51 125.019 177.07 129.219C181.094 132.925 186.03 135.571 191.343 136.88C192.568 137.182 193.628 137.972 194.249 139.049L197.128 144.033C197.329 144.383 197.621 144.669 197.966 144.871C198.66 145.273 199.562 145.273 200.256 144.871C200.606 144.669 200.898 144.377 201.094 144.033L203.973 139.043C204.593 137.967 205.648 137.177 206.863 136.88C213.639 135.221 219.588 131.509 224.063 126.159C228.951 120.316 231.65 112.899 231.65 105.279C231.65 99.0759 229.89 93.0367 226.56 87.8035C223.23 82.5703 218.501 78.4187 212.881 75.7942C208.549 73.7688 203.856 72.7348 199.116 72.7348H199.121Z" fill="#121212"></path>
    <path d="M219.269 91.9975C218.055 91.462 216.729 91.9975 216.173 93.0898C213.691 93.4079 211.449 94.516 209.582 96.3718C209.46 96.4884 209.291 96.5415 209.131 96.5097C208.914 96.4619 208.453 96.3824 208.437 96.3718C208.299 96.3453 208.283 96.1862 208.347 95.99C208.808 94.6327 209.529 93.4503 210.552 92.4641C211.167 92.6815 211.862 92.6603 212.498 92.3051C213.378 91.8173 213.872 90.778 213.67 89.7971C213.378 88.3125 211.851 87.5172 210.499 88.0368C209.439 88.4504 208.84 89.532 209.015 90.6084C207.445 92.0559 206.364 93.8904 205.812 96.0006C205.781 96.1226 205.674 96.2021 205.563 96.2021H204.413C203.315 96.2021 202.053 96.2021 200.701 96.2286L186.772 96.1809C186.634 96.1809 186.502 96.1756 186.369 96.1756C182.292 96.1756 178.904 99.3569 178.687 103.461C178.49 107.188 180.993 110.433 184.476 111.313C184.551 111.329 184.583 111.403 184.551 111.472C184.121 112.204 181.931 115.894 181.205 117.135C181.126 117.278 181.253 117.443 181.417 117.384L188.432 114.993C188.511 114.966 188.602 114.977 188.676 115.025C193.124 117.888 199.285 119.129 206.024 119.198C212.101 119.245 217.451 114.797 217.986 108.752C218.4 104.06 215.998 99.8977 212.281 97.7451C212.095 97.639 212.069 97.3739 212.239 97.2413C213.469 96.2923 214.847 95.7037 216.348 95.4969C216.655 95.9476 217.117 96.2976 217.689 96.4354C219.089 96.8066 220.526 95.831 220.648 94.3252C220.722 93.3549 220.16 92.3952 219.274 92.0028L219.269 91.9975ZM186.094 109.134C183.188 108.98 180.94 106.488 181.094 103.588C181.237 100.788 183.554 98.5881 186.353 98.5881H186.751L200.25 98.6358C200.388 98.6358 200.441 98.8055 200.341 98.885L189.932 107.745C188.856 108.63 187.69 109.134 186.375 109.134H186.099V109.123L186.094 109.134ZM193.114 114.611C191.173 113.832 189.529 112.84 188.199 111.653C188.071 111.547 188.135 111.345 188.299 111.297C189.376 111.027 191.481 109.516 191.974 109.155C192.021 109.123 192.08 109.155 192.08 109.214C192.112 110.91 192.509 112.66 193.262 114.463C193.294 114.553 193.214 114.648 193.119 114.606L193.114 114.611ZM200.876 116.472C199.413 116.303 198.029 116.059 196.74 115.751C196.634 115.725 196.539 115.65 196.491 115.56C194.71 112.464 194.116 109.569 194.72 106.944C194.736 106.854 194.784 106.775 194.863 106.716L198.294 103.805C198.342 103.763 198.432 103.805 198.4 103.88C197.955 105.126 197.668 106.488 197.663 107.946C197.647 110.9 198.755 113.71 200.961 116.334C201.009 116.393 200.961 116.478 200.887 116.472H200.876ZM215.499 109.251C214.762 113.689 210.727 116.817 206.231 116.785H206.173C205.208 116.785 204.285 116.387 203.617 115.693C201.242 113.243 200.044 110.64 200.06 107.962C200.086 104.139 202.541 100.974 203.919 99.4948C204.073 99.3251 204.28 99.1872 204.503 99.0653C205.075 98.7472 205.727 98.604 206.38 98.604H206.549C212.069 98.604 216.459 103.551 215.51 109.24V109.245L215.499 109.251Z" fill="#F8F9F9"></path>
    <path d="M205.309 105.497C205.526 106.663 206.475 107.607 207.642 107.835C209.736 108.238 211.539 106.435 211.152 104.336C210.934 103.169 209.98 102.225 208.813 102.003C206.719 101.61 204.922 103.402 205.314 105.502V105.491L205.309 105.497ZM207.477 103.206C208.002 103.206 208.432 103.636 208.432 104.161C208.432 104.686 208.002 105.115 207.477 105.115C206.952 105.115 206.523 104.686 206.523 104.161C206.523 103.636 206.952 103.206 207.477 103.206Z" fill="#F8F9F9"></path>
    <path d="M56.9615 120.389C73.2165 120.389 86.3937 107.212 86.3937 90.9571C86.3937 74.7021 73.2165 61.5249 56.9615 61.5249C40.7065 61.5249 27.5293 74.7021 27.5293 90.9571C27.5293 107.212 40.7065 120.389 56.9615 120.389Z" fill="#F9C900"></path>
    <path d="M56.9624 120.925C40.4409 120.925 27 107.484 27 90.9624C27 74.4409 40.4409 61 56.9624 61C73.4839 61 86.9248 74.4409 86.9248 90.9624C86.9248 107.484 73.4839 120.925 56.9624 120.925ZM56.9624 62.0551C41.0242 62.0551 28.0604 75.0189 28.0604 90.9571C28.0604 106.895 41.0242 119.859 56.9624 119.859C72.9007 119.859 85.8644 106.895 85.8644 90.9571C85.8644 75.0189 72.9007 62.0551 56.9624 62.0551Z" fill="#15162E"></path>
    <path d="M48.6532 102.972V99.4512L58.9871 90.2413C59.793 89.5255 60.3497 88.8469 60.6625 88.2106C60.9754 87.5744 61.1344 86.9593 61.1344 86.3655C61.1344 85.5595 60.9595 84.8437 60.6148 84.2075C60.2702 83.5765 59.7877 83.0728 59.1779 82.707C58.5682 82.3358 57.8683 82.1556 57.073 82.1556C56.2352 82.1556 55.4929 82.3464 54.8514 82.7335C54.2098 83.1206 53.7061 83.6296 53.3509 84.2658C52.9956 84.9021 52.826 85.5914 52.8472 86.3283H48.685C48.685 84.7165 49.0455 83.3167 49.7666 82.1184C50.4877 80.9202 51.4845 79.9923 52.7517 79.3348C54.019 78.6774 55.4876 78.3433 57.1525 78.3433C58.6954 78.3433 60.0846 78.688 61.3147 79.3772C62.5448 80.0665 63.5098 81.0156 64.215 82.2298C64.9202 83.444 65.2701 84.8384 65.2701 86.4132C65.2701 87.5638 65.111 88.534 64.7982 89.3135C64.4854 90.0982 64.0188 90.8193 63.3984 91.4767C62.7781 92.1342 62.0093 92.8659 61.092 93.6718L53.7591 100.162L53.388 99.1542H65.2648V102.961H48.6426L48.6532 102.972Z" fill="#121212"></path>
  </g>
  <defs>
    <clipPath id="clip0_3661_55855">
      <rect width="272" height="272" fill="white"></rect>
    </clipPath>
  </defs>
</svg>
