<?xml version="1.0" encoding="UTF-8"?>
<svg xmlns="http://www.w3.org/2000/svg" width="56" height="56" viewBox="0 0 56 56" fill="none">
  <path fill-rule="evenodd" clip-rule="evenodd" d="M28 54.2236C42.4829 54.2236 54.2236 42.4829 54.2236 28C54.2236 13.5171 42.4829 1.77637 28 1.77637C13.5171 1.77637 1.77637 13.5171 1.77637 28C1.77637 42.4829 13.5171 54.2236 28 54.2236ZM56 28C56 43.464 43.464 56 28 56C12.536 56 0 43.464 0 28C0 12.536 12.536 0 28 0C43.464 0 56 12.536 56 28Z" fill="#121212"></path>
  <path d="M26.8228 16.1734C31.8721 15.4007 36.9303 14.6724 41.9885 13.9707C41.9885 18.4027 41.9885 22.8348 41.9885 27.2668C36.9348 27.2846 31.8766 27.3645 26.8184 27.3778C26.8184 23.6386 26.8184 19.9038 26.8184 16.1734H26.8228Z" fill="black"></path>
  <path d="M14.002 17.9588C17.8034 17.3726 21.6226 16.8663 25.4374 16.3867C25.4374 20.0638 25.4374 23.7364 25.4418 27.4135C21.6271 27.4135 17.8123 27.4668 13.9976 27.4579V17.9588H14.002Z" fill="black"></path>
  <path d="M14.002 28.621C17.8123 28.6077 21.6226 28.6699 25.4373 28.661C25.4373 32.347 25.4462 36.0329 25.4373 39.7189C21.627 39.1549 17.8167 38.6619 14.002 38.1468V28.621Z" fill="black"></path>
  <path d="M26.8008 28.7676H41.9887C41.9932 33.1863 41.9887 37.6095 41.9887 42.0326C36.9394 41.2776 31.8812 40.576 26.823 39.8876C26.8186 36.1839 26.8052 32.4757 26.8008 28.7676Z" fill="black"></path>
</svg>
