<?xml version="1.0" encoding="UTF-8"?>
<svg xmlns="http://www.w3.org/2000/svg" width="57" height="56" viewBox="0 0 57 56" fill="none">
  <path fill-rule="evenodd" clip-rule="evenodd" d="M28.5 54.2236C42.9829 54.2236 54.7236 42.4829 54.7236 28C54.7236 13.5171 42.9829 1.77637 28.5 1.77637C14.0171 1.77637 2.27637 13.5171 2.27637 28C2.27637 42.4829 14.0171 54.2236 28.5 54.2236ZM56.5 28C56.5 43.464 43.964 56 28.5 56C13.036 56 0.5 43.464 0.5 28C0.5 12.536 13.036 0 28.5 0C43.964 0 56.5 12.536 56.5 28Z" fill="#121212"></path>
  <path d="M38.3324 13.9531H18.6681C16.3405 13.9531 14.4536 15.84 14.4536 18.1676V37.832C14.4536 40.1595 16.3405 42.0464 18.6681 42.0464H38.3324C40.66 42.0464 42.5469 40.1595 42.5469 37.832V18.1676C42.5469 15.84 40.66 13.9531 38.3324 13.9531Z" fill="black"></path>
  <path d="M38.3326 13.9531H29.5085C28.345 16.6532 26.2622 21.063 26.1734 29.5052C26.169 29.8072 26.4043 30.0515 26.7063 30.0603C26.7108 30.0603 26.7152 30.0603 26.7241 30.0603H29.9438C30.2457 30.0603 30.4855 30.3046 30.4855 30.6021C30.4855 30.6066 30.4855 30.6155 30.4855 30.6199C30.4056 34.4569 30.7564 38.2894 31.5336 42.0508H38.3326C40.6597 42.0508 42.5471 40.1634 42.5471 37.8364V18.172C42.5471 15.845 40.6597 13.9576 38.3326 13.9576V13.9531Z" fill="black"></path>
  <path fill-rule="evenodd" clip-rule="evenodd" d="M29.6744 13.5676C29.8872 13.6593 29.9854 13.9062 29.8937 14.1191C29.8408 14.2418 29.786 14.3681 29.7296 14.498C28.5535 17.2081 26.6767 21.5331 26.5928 29.5095L26.5928 29.5113C26.5917 29.5808 26.642 29.6364 26.7142 29.6405H29.9435C30.4795 29.6405 30.905 30.0749 30.905 30.602V30.6196L30.9049 30.6285C30.8256 34.434 31.1735 38.2351 31.9443 41.9658C31.9912 42.1927 31.8452 42.4148 31.6183 42.4617C31.3913 42.5086 31.1693 42.3626 31.1224 42.1356C30.3391 38.3447 29.9854 34.4823 30.0656 30.6154V30.602C30.0656 30.534 30.0115 30.4799 29.9435 30.4799H26.7063C26.7022 30.4799 26.6978 30.4798 26.6937 30.4797C26.1645 30.4641 25.7461 30.0325 25.7535 29.4998C25.8393 21.3564 27.7672 16.9125 28.9603 14.1624C29.0162 14.0336 29.0705 13.9085 29.1229 13.7869C29.2146 13.574 29.4615 13.4758 29.6744 13.5676Z" fill="white"></path>
  <path fill-rule="evenodd" clip-rule="evenodd" d="M22.2475 21.5801C22.5504 21.5801 22.7959 21.8256 22.7959 22.1285V23.9937C22.7959 24.2966 22.5504 24.5422 22.2475 24.5422C21.9446 24.5422 21.699 24.2966 21.699 23.9937V22.1285C21.699 21.8256 21.9446 21.5801 22.2475 21.5801ZM34.8108 21.5801C35.1137 21.5801 35.3593 21.8256 35.3593 22.1285V23.9937C35.3593 24.2966 35.1137 24.5422 34.8108 24.5422C34.5079 24.5422 34.2624 24.2966 34.2624 23.9937V22.1285C34.2624 21.8256 34.5079 21.5801 34.8108 21.5801ZM19.9077 31.6909C20.1181 31.4729 20.4653 31.4668 20.6832 31.6771C25.0449 35.8863 31.9557 35.8863 36.3174 31.6771C36.5353 31.4668 36.8825 31.4729 37.0929 31.6909C37.3032 31.9089 37.297 32.2561 37.0791 32.4664C32.2924 37.0857 24.7081 37.0857 19.9215 32.4664C19.7035 32.2561 19.6974 31.9089 19.9077 31.6909Z" fill="white"></path>
</svg>
