<?xml version="1.0" encoding="UTF-8"?>
<svg xmlns="http://www.w3.org/2000/svg" width="56" height="56" viewBox="0 0 56 56" fill="none">
  <g clip-path="url(#clip0_3197_6597)">
    <path d="M25.9548 53.8134C11.7433 53.8134 0.169944 42.265 0.140907 28.0493H0.136759C0.11187 13.817 11.6686 2.21044 25.9009 2.18555H25.9507C40.1622 2.18555 51.7397 13.7298 51.7646 27.9497C51.7771 34.8439 49.1057 41.3316 44.2399 46.2181C39.3741 51.1047 32.8947 53.801 26.0005 53.8134H25.9507H25.9548ZM25.9548 3.84066H25.9051C12.5854 3.86555 1.77113 14.7254 1.79602 28.0451C1.80846 34.4955 4.33468 40.5601 8.90594 45.1106C13.4648 49.6528 19.5169 52.1541 25.9507 52.1541H26.0005C32.4508 52.1417 38.5154 49.6155 43.0659 45.0442C47.6206 40.473 50.1219 34.4001 50.1095 27.9497C50.0971 21.4993 47.5708 15.4347 42.9996 10.8842C38.4408 6.34199 32.3886 3.84066 25.9548 3.84066Z" fill="#121212"></path>
    <path d="M46.9449 26.1325C51.8687 26.1325 55.8634 22.1461 55.8634 17.2264C55.8634 12.3067 51.8687 8.32031 46.9449 8.32031C42.021 8.32031 38.0264 12.3067 38.0264 17.2264C38.0264 22.1461 42.021 26.1325 46.9449 26.1325Z" fill="#4396F9"></path>
    <path d="M51.2924 16.459H42.7969C42.3738 16.459 42.0254 16.8116 42.0254 17.2305C42.0254 17.6495 42.378 18.0021 42.7969 18.0021H51.2924C51.7155 18.0021 52.0639 17.6495 52.0639 17.2305C52.0639 16.8116 51.7113 16.459 51.2924 16.459Z" fill="white"></path>
    <path d="M47.7746 21.5106V13.0235C47.7746 12.6045 47.422 12.252 47.003 12.252C46.584 12.252 46.2314 12.6045 46.2314 13.0235V21.5106C46.2314 21.9296 46.584 22.2822 47.003 22.2822C47.422 22.2822 47.7746 21.9296 47.7746 21.5106Z" fill="white"></path>
    <path d="M35.1019 42.9863L16.5845 43.0237C15.3525 43.0237 14.3528 42.0364 14.3487 40.8127V37.6726C14.3321 31.4006 19.4716 26.2859 25.81 26.2735C32.1442 26.261 37.3087 31.3549 37.3211 37.6269V40.7671C37.3294 41.9866 36.3297 42.9822 35.1019 42.9863Z" fill="#4396F9"></path>
    <path d="M16.5844 43.8526C14.9002 43.8526 13.5272 42.492 13.523 40.8162V37.676C13.5106 34.4197 14.7882 31.3542 17.1153 29.0396C19.4383 26.729 22.5287 25.4556 25.814 25.4473H25.8389C29.1118 25.4473 32.198 26.7083 34.5251 29.0064C36.8605 31.3086 38.1506 34.3699 38.1547 37.6262V40.7664C38.163 41.5794 37.8436 42.3468 37.267 42.9234C36.6904 43.5 35.923 43.8153 35.1059 43.8194L16.5885 43.8567H16.5844V43.8526ZM25.8389 27.1065H25.8182C22.9725 27.1107 20.3011 28.2182 18.2893 30.2176C16.2816 32.217 15.174 34.8636 15.1823 37.6719V40.812C15.1906 41.5753 15.817 42.1933 16.5885 42.1933L35.1059 42.156C35.4792 42.156 35.8318 42.0108 36.0973 41.7453C36.3586 41.484 36.5038 41.1356 36.5038 40.7664V37.6262C36.4913 34.8179 35.3796 32.1714 33.3595 30.1844C31.3435 28.1975 28.6762 27.1024 25.8389 27.1024V27.1065Z" fill="#121212"></path>
    <path d="M25.8389 25.079C21.9106 25.079 18.7124 21.914 18.7041 18.0189C18.6958 14.1196 21.8899 10.938 25.8265 10.9297H25.8389C29.7672 10.9297 32.9654 14.0947 32.9737 17.9898C32.982 21.8891 29.788 25.0707 25.8514 25.079H25.8389ZM25.8389 12.5889H25.8265C22.8066 12.5931 20.3551 15.0281 20.3634 18.0147C20.3675 20.9972 22.8232 23.4198 25.8389 23.4198H25.8514C28.8712 23.4156 31.3228 20.9807 31.3145 17.994C31.3103 15.0115 28.8546 12.5889 25.8389 12.5889Z" fill="#121212"></path>
  </g>
  <defs>
    <clipPath id="clip0_3197_6597">
      <rect width="56" height="56" fill="white"></rect>
    </clipPath>
  </defs>
</svg>
