<?xml version="1.0" encoding="UTF-8"?>
<svg xmlns="http://www.w3.org/2000/svg" width="56" height="56" viewBox="0 0 56 56" fill="none">
  <path fill-rule="evenodd" clip-rule="evenodd" d="M12.0767 5.29408C12.0767 2.8103 14.1238 0.876953 16.4938 0.876953H39.5063C41.8763 0.876953 43.9234 2.8103 43.9234 5.29408V50.7066C43.9234 53.1904 41.8763 55.1237 39.5063 55.1237H16.4938C14.01 55.1237 12.0767 53.0766 12.0767 50.7066V5.29408ZM16.4938 2.53621C15.0138 2.53621 13.7359 3.75286 13.7359 5.29408V50.7066C13.7359 52.1866 14.9526 53.4645 16.4938 53.4645H39.5063C40.9863 53.4645 42.2642 52.2478 42.2642 50.7066V5.29408C42.2642 3.75286 40.9863 2.53621 39.5063 2.53621H16.4938Z" fill="#231F20"></path>
  <path d="M31.4564 6.08242C31.4564 6.51992 31.1064 6.86992 30.6689 6.86992H25.3314C24.8939 6.86992 24.5439 6.51992 24.5439 6.08242C24.5439 5.64492 24.8939 5.29492 25.3314 5.29492H30.6689C31.1064 5.29492 31.4564 5.64492 31.4564 6.08242Z" fill="#231F20"></path>
  <path fill-rule="evenodd" clip-rule="evenodd" d="M23.3609 21.8741V24.4148H36.4438C37.0356 24.4148 37.5392 23.9113 37.5392 23.3195V23.1445C37.5392 22.4662 37.0284 21.9411 36.4049 21.8741H23.3609ZM21.7017 21.832C21.7017 20.9363 22.4231 20.2148 23.3188 20.2148H36.4438C36.4668 20.2148 36.4898 20.2158 36.5127 20.2177C37.9757 20.3396 39.1984 21.5586 39.1984 23.1445V23.3195C39.1984 24.8277 37.952 26.0741 36.4438 26.0741H23.3188C22.4231 26.0741 21.7017 25.3527 21.7017 24.457V21.832Z" fill="#231F20"></path>
  <path d="M21.9188 18.9453C19.5563 18.9453 17.6313 20.8703 17.6313 23.2328C17.6313 25.5953 19.5563 27.5203 21.9188 27.5203C24.2813 27.5203 26.2063 25.5953 26.2063 23.2328C26.2063 20.8703 24.2813 18.9453 21.9188 18.9453Z" fill="#4396F9"></path>
  <path fill-rule="evenodd" clip-rule="evenodd" d="M16.8018 23.2324C16.8018 20.4117 19.0982 18.1152 21.9189 18.1152C24.7396 18.1152 27.036 20.4117 27.036 23.2324C27.036 26.0531 24.7396 28.3495 21.9189 28.3495C19.0982 28.3495 16.8018 26.0531 16.8018 23.2324ZM21.9189 19.7745C20.0146 19.7745 18.461 21.3281 18.461 23.2324C18.461 25.1367 20.0146 26.6902 21.9189 26.6902C23.8232 26.6902 25.3768 25.1367 25.3768 23.2324C25.3768 21.3281 23.8232 19.7745 21.9189 19.7745Z" fill="#231F20"></path>
  <path fill-rule="evenodd" clip-rule="evenodd" d="M23.3609 36.3116V38.8523H36.4438C37.0356 38.8523 37.5392 38.3488 37.5392 37.757V37.582C37.5392 36.9686 37.0075 36.3791 36.4043 36.3116H23.3609ZM21.7017 36.2695C21.7017 35.3738 22.4231 34.6523 23.3188 34.6523H36.4438C36.4668 34.6523 36.4898 34.6533 36.5127 34.6552C37.9974 34.7789 39.1984 36.1053 39.1984 37.582V37.757C39.1984 39.2652 37.952 40.5116 36.4438 40.5116H23.3188C22.4231 40.5116 21.7017 39.7902 21.7017 38.8945V36.2695Z" fill="#231F20"></path>
  <path d="M21.9188 33.3828C19.5563 33.3828 17.6313 35.3078 17.6313 37.6703C17.6313 40.0328 19.5563 41.9578 21.9188 41.9578C24.2813 41.9578 26.2063 40.0328 26.2063 37.6703C26.2063 35.3078 24.2813 33.3828 21.9188 33.3828Z" fill="#4396F9"></path>
  <path fill-rule="evenodd" clip-rule="evenodd" d="M16.8018 37.6699C16.8018 34.8492 19.0982 32.5527 21.9189 32.5527C24.7396 32.5527 27.036 34.8492 27.036 37.6699C27.036 40.4906 24.7396 42.787 21.9189 42.787C19.0982 42.787 16.8018 40.4906 16.8018 37.6699ZM21.9189 34.212C20.0146 34.212 18.461 35.7656 18.461 37.6699C18.461 39.5742 20.0146 41.1277 21.9189 41.1277C23.8232 41.1277 25.3768 39.5742 25.3768 37.6699C25.3768 35.7656 23.8232 34.212 21.9189 34.212Z" fill="#231F20"></path>
</svg>
