<?xml version="1.0" encoding="UTF-8"?>
<svg xmlns="http://www.w3.org/2000/svg" width="57" height="56" viewBox="0 0 57 56" fill="none">
  <path fill-rule="evenodd" clip-rule="evenodd" d="M28.5 54.2236C42.9829 54.2236 54.7236 42.4829 54.7236 28C54.7236 13.5171 42.9829 1.77637 28.5 1.77637C14.0171 1.77637 2.27637 13.5171 2.27637 28C2.27637 42.4829 14.0171 54.2236 28.5 54.2236ZM56.5 28C56.5 43.464 43.964 56 28.5 56C13.036 56 0.5 43.464 0.5 28C0.5 12.536 13.036 0 28.5 0C43.964 0 56.5 12.536 56.5 28Z" fill="#121212"></path>
  <path d="M34.2733 25.149H38.2657H34.2733ZM29.5171 25.149H33.5095H29.5171ZM24.8586 25.149H28.8509H24.8586ZM20.2 25.149H24.0991H20.2ZM15.4482 25.149H19.4406H15.4482ZM20.2 20.7747H24.0991H20.2ZM24.8586 20.7747H28.8509H24.8586ZM29.5171 20.7747H33.5095H29.5171ZM29.5171 16.4004H33.5095H29.5171Z" fill="black"></path>
  <path d="M38.2657 26.9573H34.2733V23.3424H38.2657V26.9573ZM33.5139 26.9573H29.5215V23.3424H33.5139V26.9573ZM28.8554 26.9573H24.863V23.3424H28.8554V26.9573ZM24.0991 26.9573H20.2V23.3424H24.0991V26.9573ZM19.4406 26.9573H15.4482V23.3424H19.4406V26.9573ZM33.5139 22.583H29.5215V18.9681H33.5139V22.583ZM28.8554 22.583H24.863V18.9681H28.8554V22.583ZM24.0991 22.583H20.2V18.9681H24.0991V22.583ZM33.5139 18.2087H29.5215V14.5938H33.5139V18.2087Z" fill="black"></path>
  <path d="M51.0069 25.3403C51.0069 25.3403 49.2971 23.7238 45.7755 24.2923C45.3935 21.5345 42.4492 19.918 42.4492 19.918C42.4492 19.918 39.6914 23.2442 41.6898 26.9524C41.1214 27.2366 40.1666 27.6185 38.7411 27.6185H12.5929C12.1177 29.426 12.1177 41.4031 25.2406 41.4031C34.6554 41.4031 41.6898 37.0288 45.0161 29.0441C49.9588 29.426 51.0069 25.3359 51.0069 25.3359" fill="black"></path>
</svg>
