<?xml version="1.0" encoding="UTF-8"?>
<svg xmlns="http://www.w3.org/2000/svg" width="624" height="625" viewBox="0 0 624 625" fill="none">
  <path d="M52.7001 463.618C53.2001 466.398 53.9501 469.128 54.9401 471.778C55.1401 472.298 55.3401 472.818 55.5501 473.338C55.9801 474.368 56.4401 475.378 56.9301 476.368C57.4301 477.358 57.9501 478.328 58.5201 479.278C64.8001 489.918 75.0001 497.668 86.9201 500.858L434.15 593.878C445.83 597.008 458.27 595.518 468.89 589.708C469.47 589.388 470.04 589.068 470.6 588.728C471.59 588.128 472.56 587.498 473.5 586.838C474.21 586.338 474.91 585.808 475.59 585.268C478.24 583.168 480.65 580.788 482.79 578.168C482.88 578.058 482.97 577.938 483.06 577.828C483.73 576.998 484.37 576.128 484.99 575.248C485.18 574.978 485.37 574.698 485.55 574.418C486.18 573.468 486.78 572.498 487.35 571.488L605.97 315.878C608.83 310.818 610.73 305.258 611.57 299.508C611.65 298.938 611.72 298.378 611.79 297.808C612.04 295.538 612.12 293.258 612.04 290.988C612.02 290.418 611.99 289.848 611.95 289.288C611.29 280.028 607.92 271.158 602.26 263.808L455.15 72.5476C453.97 71.0076 452.69 69.5476 451.33 68.1676C450.65 67.4876 449.96 66.8176 449.25 66.1776C448.89 65.8576 448.53 65.5476 448.17 65.2376C447.44 64.6176 446.69 64.0276 445.93 63.4576C444.79 62.6076 443.61 61.8076 442.39 61.0676C439.97 59.5876 437.41 58.3176 434.76 57.2976C433.88 56.9576 432.98 56.6376 432.08 56.3576C431.18 56.0676 430.26 55.8076 429.34 55.5776C424.68 54.3976 419.87 53.9376 415.07 54.2276C415.07 54.2276 200.51 66.8976 198.24 67.2876C185.24 69.5676 173.27 76.0976 164.26 85.9376L54.5801 205.838C45.6901 215.558 40.2801 227.968 39.2101 241.108C39.1201 242.238 39.0601 243.368 39.0301 244.508C38.9301 248.528 52.7101 463.598 52.7101 463.598L52.7001 463.618Z" fill="#C1D9FD"></path>
  <path d="M446.36 596.508C442.19 596.508 438.01 595.958 433.89 594.858L86.6601 501.838C74.4101 498.558 64.1101 490.728 57.6601 479.798C57.0801 478.818 56.5401 477.818 56.0401 476.818C55.5301 475.808 55.0601 474.768 54.6301 473.718C54.4101 473.188 54.2001 472.658 54.0001 472.128C52.9901 469.428 52.2201 466.628 51.7101 463.788V463.678C51.1301 454.898 37.9201 248.518 38.0201 244.498C38.0501 243.348 38.1101 242.188 38.2001 241.038C39.2901 227.748 44.8401 215.008 53.8301 205.178L163.51 85.2777C172.57 75.3677 184.84 68.6377 198.05 66.3177C200.35 65.9177 406.23 53.7577 415 53.2377C419.91 52.9477 424.81 53.4177 429.58 54.6177C430.51 54.8477 431.45 55.1177 432.37 55.4177C433.29 55.7077 434.21 56.0377 435.11 56.3777C437.81 57.4177 440.43 58.7177 442.9 60.2277C444.14 60.9877 445.35 61.8077 446.51 62.6677C447.28 63.2377 448.05 63.8477 448.8 64.4777C449.17 64.7877 449.54 65.1077 449.9 65.4377C450.63 66.0877 451.34 66.7677 452.03 67.4677C453.41 68.8677 454.72 70.3677 455.93 71.9377L603.04 263.198C608.84 270.728 612.26 279.728 612.93 289.218C612.97 289.798 613 290.378 613.02 290.958C613.1 293.268 613.02 295.608 612.76 297.928C612.7 298.508 612.62 299.088 612.54 299.658C611.68 305.558 609.75 311.188 606.82 316.378L488.24 571.918C487.66 572.958 487.06 573.938 486.36 574.978C486.17 575.258 485.98 575.538 485.79 575.818C485.16 576.728 484.5 577.618 483.82 578.458L483.54 578.818C481.36 581.488 478.89 583.918 476.19 586.058C475.5 586.608 474.78 587.148 474.05 587.658C473.09 588.338 472.09 588.988 471.09 589.588C470.51 589.938 469.93 590.268 469.34 590.588C462.19 594.498 454.3 596.498 446.34 596.498L446.36 596.508ZM53.6901 463.498C54.1801 466.198 54.9101 468.868 55.8701 471.428C56.0601 471.938 56.2601 472.448 56.4701 472.958C56.8801 473.958 57.3401 474.958 57.8201 475.928C58.3001 476.878 58.8201 477.838 59.3701 478.778C65.5601 489.258 75.4301 496.758 87.1701 499.898L434.4 592.918C445.89 595.998 457.96 594.548 468.4 588.838C468.97 588.528 469.52 588.208 470.07 587.878C471.03 587.298 471.99 586.678 472.91 586.028C473.6 585.538 474.29 585.018 474.96 584.498C477.55 582.448 479.92 580.108 482.01 577.548L482.28 577.218C482.93 576.408 483.56 575.558 484.17 574.688C484.35 574.418 484.54 574.148 484.72 573.878C485.39 572.878 485.96 571.938 486.48 571.008L605.06 315.468C607.91 310.418 609.75 305.028 610.58 299.368C610.66 298.818 610.73 298.258 610.79 297.708C611.03 295.488 611.11 293.248 611.04 291.028C611.02 290.468 610.99 289.918 610.95 289.358C610.31 280.258 607.03 271.638 601.47 264.418L454.36 73.1577C453.21 71.6577 451.95 70.2177 450.62 68.8777C449.96 68.2077 449.28 67.5577 448.58 66.9377C448.23 66.6277 447.88 66.3177 447.52 66.0177C446.8 65.4177 446.06 64.8277 445.33 64.2777C444.22 63.4477 443.05 62.6577 441.87 61.9377C439.5 60.4877 436.99 59.2477 434.4 58.2477C433.54 57.9177 432.66 57.6077 431.78 57.3277C430.89 57.0477 429.99 56.7877 429.1 56.5677C424.53 55.4077 419.83 54.9677 415.13 55.2377C413 55.3677 201.64 67.8477 198.4 68.2877C185.64 70.5277 173.77 77.0477 165 86.6277L55.3201 206.528C46.6201 216.038 41.2501 228.348 40.2001 241.208C40.1101 242.318 40.0501 243.448 40.0201 244.558C39.9301 248.468 53.4001 458.998 53.6901 463.508V463.498Z" fill="#121212"></path>
  <path d="M343.66 101.818C348.03 84.4578 340.85 78.5578 331.07 75.8878C321.28 73.2178 317.26 80.0578 316.37 82.6778C314.11 90.0878 319.6 99.2978 343.65 101.818H343.66Z" fill="#F8F9F9"></path>
  <path d="M344.44 102.818H343.55C326.26 100.998 319.46 95.8378 316.8 91.8278C314.89 88.9478 314.41 85.6778 315.41 82.3878C316.78 78.3578 321.65 72.2878 331.32 74.9278C339.4 77.1378 349.58 82.3478 344.62 102.068L344.43 102.828L344.44 102.818ZM326.83 76.2678C324.61 76.2678 322.65 76.8778 320.97 78.0978C318.45 79.9278 317.49 82.4878 317.32 82.9878C316.51 85.6578 316.9 88.3478 318.47 90.7078C320.85 94.2978 327.02 98.9178 342.9 100.718C346.89 83.6978 339.05 79.0878 330.81 76.8378C329.4 76.4578 328.08 76.2678 326.83 76.2678Z" fill="#121212"></path>
  <path d="M343.39 101.608C348.58 84.3879 358.98 83.1379 370.1 85.9479C381.21 88.7779 381.31 96.6879 380.91 99.4679C380.5 102.248 372.18 115.638 343.4 101.608H343.39Z" fill="#F8F9F9"></path>
  <path d="M365.78 108.908C360.21 108.908 352.77 107.298 342.95 102.508L342.19 102.138L342.44 101.318C344.94 93.0179 348.76 87.7979 354.11 85.3579C358.43 83.3879 363.59 83.2679 370.35 84.9779C382.92 88.1779 382.18 97.7279 381.9 99.6179C381.67 101.208 379.76 104.538 375.65 106.708C373.34 107.928 370.13 108.908 365.79 108.908H365.78ZM344.6 101.078C360.83 108.808 369.92 107.468 374.71 104.938C378.27 103.058 379.78 100.298 379.92 99.3279C380.25 97.0979 380.49 89.6279 369.86 86.9179C353.15 82.6879 347.63 91.5379 344.61 101.078H344.6Z" fill="#121212"></path>
  <path d="M374.82 134.108C372.83 148.198 352.32 158.998 329.34 155.658C292.39 150.328 289.74 136.168 291.81 122.168C293.81 108.078 308.86 95.4677 337.39 99.5477C360.29 102.878 376.8 120.098 374.81 134.108H374.82Z" fill="#FCC018"></path>
  <path d="M337.79 157.268C334.96 157.268 332.08 157.058 329.2 156.648C311.29 154.068 299.9 149.208 294.39 141.818C289.59 135.368 289.96 127.858 290.83 122.028C291.76 115.448 295.41 109.478 301.1 105.208C307.16 100.668 318.39 95.8277 337.54 98.5577C359.76 101.788 378 118.808 375.81 134.248C375.05 139.628 371.78 144.628 366.35 148.698C358.94 154.248 348.66 157.268 337.78 157.268H337.79ZM326.88 99.7577C314.61 99.7577 306.88 103.368 302.3 106.798C297.04 110.748 293.67 116.248 292.81 122.308C291.95 128.098 291.66 134.798 296 140.618C301.18 147.568 312.13 152.168 329.49 154.668C342.9 156.618 356.23 153.788 365.16 147.098C370.15 143.358 373.15 138.818 373.83 133.968C375.67 120.968 360.42 103.898 337.25 100.528C333.48 99.9877 330.02 99.7477 326.87 99.7477L326.88 99.7577Z" fill="#121212"></path>
  <path d="M305.44 132.838C302.66 132.838 301.08 131.148 300.59 130.068C300.36 129.568 300.58 128.968 301.08 128.738C301.58 128.508 302.17 128.728 302.4 129.218C302.52 129.458 303.61 131.448 306.87 130.638C307.4 130.508 307.95 130.828 308.08 131.368C308.21 131.908 307.89 132.448 307.35 132.578C306.66 132.748 306.02 132.828 305.43 132.828L305.44 132.838Z" fill="#121212"></path>
  <mask id="mask0_16685_78372" style="mask-type:luminance" maskUnits="userSpaceOnUse" x="291" y="98" width="84" height="59">
    <path d="M374.82 134.108C372.83 148.198 352.32 158.998 329.34 155.658C292.39 150.328 289.74 136.168 291.81 122.168C293.81 108.078 308.86 95.4677 337.39 99.5477C360.29 102.878 376.8 120.098 374.81 134.108H374.82Z" fill="white"></path>
  </mask>
  <g mask="url(#mask0_16685_78372)">
    <path d="M342.93 156.978C346.2 156.708 349.28 156.068 352.21 155.308C364.78 143.438 367.01 117.318 357.52 106.068C354.15 103.978 350.47 102.268 346.46 100.928C360.42 114.808 354.65 143.228 342.94 156.978H342.93Z" fill="#121212"></path>
    <path d="M340.6 158.168L342.17 156.328C352.87 143.778 359.75 115.558 345.75 101.638L342.72 98.6277L346.77 99.9777C350.85 101.338 354.64 103.098 358.04 105.218L358.28 105.428C368.47 117.508 365.65 143.998 352.89 156.038L352.7 156.218L352.45 156.278C348.91 157.198 345.91 157.738 343 157.978L340.59 158.178L340.6 158.168ZM349.73 103.218C354.48 109.708 356.45 118.738 355.31 129.108C354.23 138.888 350.51 148.648 345.21 155.718C347.21 155.438 349.33 155.008 351.7 154.398C363.37 143.148 366.1 117.998 356.85 106.828C354.64 105.468 352.25 104.258 349.73 103.208V103.218Z" fill="#121212"></path>
    <path d="M338.56 98.8176C338.58 98.7376 332.58 98.2376 330.23 98.0776C338.83 111.078 340.78 143.448 321.71 155.168C324.16 155.698 326.79 156.188 329.6 156.618C330.34 156.758 331.01 156.788 331.76 156.928C350.57 141.348 348.01 108.428 338.57 98.8276L338.56 98.8176Z" fill="#121212"></path>
    <path d="M332.03 157.998L331.57 157.918C331.22 157.848 330.89 157.808 330.55 157.768C330.18 157.718 329.8 157.678 329.41 157.598C326.65 157.178 323.97 156.678 321.49 156.138L319.06 155.608L321.18 154.308C329.48 149.208 332.91 140.478 334.33 134.058C337.37 120.278 334.15 105.798 329.39 98.6177L328.27 96.9277L330.29 97.0677C338.67 97.6577 339.02 97.7777 339.32 98.1677C344.32 103.278 347.31 114.428 346.73 125.908C346.33 133.668 343.94 148.108 332.38 157.688L332.02 157.988L332.03 157.998ZM324.23 154.668C326 155.018 327.85 155.338 329.75 155.628C330.13 155.698 330.46 155.738 330.8 155.778C331.02 155.808 331.24 155.828 331.46 155.868C342.14 146.768 344.37 133.168 344.74 125.818C345.29 115.018 342.61 104.608 338.06 99.7477C337.17 99.6377 334.36 99.3977 332.09 99.2177C336.5 107.178 339.23 121.188 336.29 134.498C334.35 143.298 330.2 150.218 324.23 154.668Z" fill="#121212"></path>
    <path d="M361.75 151.828C369.34 147.408 374.44 141.188 375.43 134.228C376.36 127.618 373.56 120.358 368.06 113.928C373.33 124.968 369.2 144.918 361.76 151.818L361.75 151.828Z" fill="#121212"></path>
    <path d="M360.75 153.568V151.378L361.07 151.078C368.06 144.588 372.35 125.238 367.15 114.348L363.89 107.518L368.81 113.268C374.67 120.108 377.37 127.598 376.41 134.358C375.41 141.438 370.38 147.948 362.25 152.688L360.75 153.568ZM370.86 119.488C372.61 128.668 370.4 140.088 366.27 147.478C370.9 143.608 373.75 138.978 374.44 134.098C375.09 129.468 373.84 124.428 370.86 119.498V119.488Z" fill="#121212"></path>
  </g>
  <path d="M305.64 111.388C304.06 110.748 301.98 112.358 300.89 115.038C299.81 117.718 300.19 120.328 301.77 120.958C302.06 121.078 302.36 121.118 302.67 121.088C304.07 120.978 305.63 119.498 306.52 117.308C307.6 114.618 307.22 112.018 305.64 111.378V111.388Z" fill="#121212"></path>
  <path d="M303.16 115.754C303.445 115.047 303.357 114.345 302.962 114.186C302.568 114.027 302.017 114.471 301.732 115.177C301.447 115.884 301.535 116.586 301.929 116.745C302.324 116.904 302.875 116.46 303.16 115.754Z" fill="#F8F9F9"></path>
  <path d="M314.8 114.488C314.02 114.148 313.07 114.348 312.14 115.058C311.27 115.718 310.49 116.768 309.95 117.988C309.41 119.218 309.17 120.498 309.27 121.588C309.38 122.758 309.87 123.598 310.65 123.938C310.95 124.068 311.28 124.118 311.61 124.098C312.15 124.058 312.73 123.808 313.31 123.368C314.18 122.708 314.96 121.658 315.5 120.438C316.04 119.208 316.28 117.928 316.18 116.838C316.07 115.668 315.58 114.828 314.8 114.488Z" fill="#121212"></path>
  <path d="M312.138 118.96C312.445 118.262 312.378 117.558 311.989 117.387C311.6 117.216 311.035 117.643 310.729 118.34C310.422 119.038 310.489 119.742 310.878 119.914C311.268 120.085 311.832 119.658 312.138 118.96Z" fill="#F8F9F9"></path>
  <path d="M315.09 173.038C306.64 159.988 310.36 142.568 323.4 134.118C336.45 125.668 353.87 129.388 362.32 142.428C362.37 142.498 362.41 142.568 362.46 142.648C370.91 155.698 367.19 173.118 354.15 181.568C341.1 190.018 323.68 186.298 315.23 173.258C315.18 173.188 315.14 173.118 315.09 173.038Z" fill="#F8F9F9"></path>
  <path d="M338.68 131.588C347.59 131.588 355.8 136.048 360.65 143.518C360.67 143.558 360.7 143.588 360.73 143.628L360.71 143.608L360.79 143.738C368.63 155.828 365.16 172.048 353.07 179.898C348.82 182.648 343.92 184.108 338.88 184.108C329.97 184.108 321.76 179.648 316.91 172.178C316.88 172.138 316.86 172.098 316.83 172.058C316.84 172.078 316.85 172.088 316.85 172.088L316.77 171.958C308.93 159.868 312.4 143.648 324.49 135.798C328.74 133.048 333.64 131.588 338.68 131.588ZM338.68 129.588C333.44 129.588 328.13 131.048 323.4 134.118C310.36 142.578 306.63 159.998 315.09 173.038C315.14 173.118 315.18 173.188 315.23 173.258C320.62 181.568 329.65 186.098 338.88 186.098C344.12 186.098 349.43 184.638 354.16 181.568C367.2 173.108 370.93 155.688 362.47 142.648C362.42 142.568 362.38 142.498 362.33 142.428C356.94 134.118 347.91 129.588 338.68 129.588Z" fill="#121212"></path>
  <path d="M320.44 169.548C314.02 159.508 316.89 146.068 326.85 139.538C336.82 133.008 350.11 135.838 356.54 145.878C356.57 145.928 356.61 145.988 356.64 146.038C363.06 156.078 360.19 169.518 350.22 176.048C340.25 182.578 326.96 179.748 320.53 169.708C320.5 169.658 320.46 169.598 320.43 169.548H320.44Z" fill="#F8F9F9"></path>
  <path d="M338.58 136.018V138.018C345.2 138.018 351.29 141.358 354.86 146.948L354.89 146.998L354.97 147.128C360.8 156.238 358.18 168.468 349.14 174.388C345.96 176.478 342.29 177.578 338.52 177.578C331.9 177.578 325.81 174.238 322.23 168.648L322.12 168.478C316.29 159.368 318.91 147.138 327.95 141.218C331.13 139.138 334.8 138.028 338.57 138.028V136.028M338.57 136.018C334.55 136.018 330.48 137.158 326.85 139.528C316.88 146.058 314.01 159.498 320.44 169.538C320.47 169.588 320.51 169.648 320.54 169.698C324.63 176.088 331.49 179.558 338.51 179.558C342.53 179.558 346.6 178.418 350.22 176.048C360.19 169.518 363.06 156.078 356.64 146.038L356.54 145.878C352.45 139.488 345.59 136.018 338.57 136.018Z" fill="#121212"></path>
  <path d="M345.42 160.138C344.82 159.068 343.67 158.068 341.96 157.148L338.43 155.238C337.49 154.728 336.84 154.218 336.46 153.708C336.09 153.198 335.96 152.658 336.09 152.088C336.2 151.578 336.47 151.138 336.89 150.798C337.31 150.458 337.82 150.238 338.44 150.128C339.06 150.018 339.71 150.048 340.42 150.218C341.15 150.398 341.79 150.698 342.32 151.128C342.86 151.548 343.26 152.068 343.56 152.678C343.84 153.288 343.98 153.958 343.96 154.668L347.7 154.798C347.69 153.438 347.41 152.228 346.9 151.168C346.39 150.108 345.64 149.218 344.67 148.498C344.17 148.128 343.61 147.808 342.99 147.548L343.57 144.898L340.06 144.128L339.49 146.718C338.66 146.658 337.88 146.698 337.16 146.858C335.96 147.128 334.96 147.648 334.16 148.448C333.36 149.248 332.82 150.268 332.55 151.508C331.97 154.168 333.05 156.278 335.8 157.838L340.51 160.518C341.27 160.948 341.79 161.388 342.08 161.858C342.36 162.328 342.45 162.858 342.31 163.478C342.12 164.348 341.58 164.988 340.68 165.388C339.78 165.788 338.73 165.858 337.52 165.598C336.31 165.338 335.27 164.738 334.52 163.838C333.77 162.938 333.4 161.858 333.39 160.598L329.8 160.398C329.71 161.798 329.92 163.088 330.45 164.238C330.98 165.388 331.77 166.368 332.81 167.168C333.4 167.618 334.06 167.988 334.79 168.278L334.22 170.908L337.73 171.678L338.3 169.088C339.2 169.148 340.07 169.108 340.87 168.928C342.17 168.638 343.24 168.068 344.11 167.228C344.97 166.388 345.55 165.318 345.83 164.018C346.15 162.538 346.01 161.248 345.4 160.178V160.148L345.42 160.138Z" fill="#FCC018"></path>
  <path d="M337.76 172.668C337.69 172.668 337.62 172.668 337.55 172.648L334.04 171.878C333.5 171.758 333.16 171.228 333.28 170.688L333.68 168.848C333.17 168.588 332.68 168.288 332.24 167.958C331.07 167.048 330.17 165.938 329.58 164.648C328.99 163.358 328.74 161.908 328.84 160.328C328.88 159.778 329.32 159.328 329.89 159.398L333.48 159.598C334.01 159.628 334.42 160.058 334.42 160.588C334.42 161.618 334.72 162.468 335.32 163.188C335.91 163.898 336.75 164.388 337.76 164.608C338.74 164.828 339.6 164.778 340.3 164.468C340.9 164.198 341.24 163.818 341.36 163.258C341.46 162.798 341.35 162.528 341.25 162.378C341.05 162.068 340.64 161.728 340.04 161.388L335.32 158.708C331.39 156.468 331.12 153.448 331.59 151.298C331.9 149.878 332.53 148.688 333.47 147.748C334.4 146.818 335.57 146.198 336.96 145.888C337.5 145.768 338.08 145.698 338.71 145.698L339.1 143.918C339.16 143.658 339.31 143.428 339.54 143.288C339.76 143.148 340.03 143.098 340.29 143.158L343.8 143.928C344.06 143.988 344.28 144.138 344.43 144.368C344.57 144.588 344.62 144.858 344.56 145.118L344.15 146.998C344.55 147.208 344.92 147.448 345.28 147.708C346.38 148.528 347.24 149.558 347.81 150.748C348.39 151.958 348.69 153.318 348.71 154.808C348.71 155.078 348.6 155.348 348.41 155.538C348.22 155.728 347.95 155.848 347.68 155.818L343.94 155.688C343.39 155.668 342.96 155.218 342.98 154.668C342.99 154.108 342.89 153.588 342.67 153.118C342.44 152.638 342.13 152.248 341.73 151.938C341.3 151.598 340.8 151.358 340.2 151.218C339.63 151.078 339.12 151.048 338.63 151.138C338.18 151.218 337.82 151.368 337.53 151.598C337.29 151.798 337.14 152.018 337.08 152.318C337.04 152.498 337.02 152.778 337.28 153.128C337.48 153.398 337.92 153.838 338.91 154.368L342.44 156.278C344.33 157.298 345.59 158.398 346.29 159.658C346.32 159.708 346.34 159.758 346.36 159.808C347.04 161.068 347.19 162.558 346.83 164.228C346.5 165.718 345.83 166.968 344.83 167.938C343.84 168.908 342.59 169.568 341.12 169.898C340.5 170.038 339.83 170.108 339.13 170.118L338.74 171.898C338.64 172.368 338.22 172.688 337.76 172.688V172.668ZM335.44 170.138L336.99 170.478L337.34 168.858C337.45 168.368 337.91 168.038 338.39 168.078C339.23 168.138 339.99 168.088 340.67 167.938C341.79 167.688 342.69 167.218 343.43 166.498C344.14 165.798 344.63 164.888 344.87 163.798C345.14 162.568 345.03 161.518 344.55 160.668C344.53 160.628 344.51 160.578 344.49 160.538C343.96 159.668 342.95 158.828 341.49 158.038L337.96 156.128C336.89 155.548 336.14 154.958 335.66 154.308C335.12 153.568 334.93 152.738 335.12 151.888C335.28 151.138 335.67 150.518 336.27 150.038C336.83 149.588 337.48 149.298 338.27 149.158C339.02 149.018 339.83 149.058 340.66 149.268C341.53 149.478 342.3 149.848 342.95 150.358C343.59 150.858 344.1 151.498 344.47 152.268C344.68 152.728 344.83 153.218 344.91 153.728L346.64 153.788C346.54 153.008 346.33 152.278 346.01 151.628C345.58 150.728 344.93 149.948 344.09 149.318C343.65 148.988 343.15 148.708 342.62 148.488C342.18 148.298 341.93 147.818 342.03 147.348L342.4 145.668L340.84 145.328L340.49 146.938C340.38 147.428 339.94 147.748 339.44 147.728C338.66 147.668 338 147.708 337.4 147.848C336.37 148.078 335.55 148.508 334.89 149.168C334.23 149.828 333.78 150.698 333.55 151.738C333.06 153.968 333.94 155.628 336.31 156.988L341.02 159.668C341.93 160.178 342.56 160.728 342.95 161.348C343.38 162.058 343.5 162.848 343.31 163.708C343.05 164.888 342.29 165.788 341.1 166.318C340 166.808 338.73 166.898 337.33 166.588C335.88 166.268 334.65 165.548 333.77 164.488C333.07 163.648 332.64 162.668 332.48 161.568L330.81 161.478C330.86 162.338 331.04 163.118 331.38 163.838C331.84 164.848 332.52 165.678 333.44 166.388C333.95 166.778 334.54 167.108 335.18 167.358C335.63 167.538 335.89 168.018 335.79 168.498L335.43 170.148L335.44 170.138Z" fill="#121212"></path>
  <path d="M608.07 243.087L608.04 243.417L585.95 495.318H227.85L250.1 241.727C250.43 238.017 253.29 235.177 256.72 235.177H601.44C605.36 235.177 608.43 238.857 608.06 243.087H608.08H608.07Z" fill="#F8F9F9"></path>
  <path d="M585.95 496.318H227.85C227.57 496.318 227.3 496.198 227.11 495.997C226.92 495.788 226.83 495.517 226.85 495.237L249.1 241.647C249.48 237.397 252.75 234.188 256.71 234.188H601.43C603.5 234.188 605.43 235.057 606.88 236.637C608.43 238.327 609.22 240.637 609.06 242.997C609.06 243.057 609.06 243.127 609.06 243.188L609.03 243.518L586.95 495.407C586.91 495.927 586.47 496.318 585.95 496.318ZM228.94 494.318H585.03L607.05 243.167C607.05 243.117 607.05 243.057 607.05 242.997C607.22 241.137 606.61 239.308 605.4 237.988C604.34 236.828 602.92 236.188 601.43 236.188H256.71C253.79 236.188 251.37 238.607 251.09 241.827L228.94 494.328V494.318Z" fill="#121212"></path>
  <path d="M583.61 494.097H119.11C113.82 494.097 109.52 498.397 109.52 503.687V518.947H594.05V504.537C594.05 498.767 589.38 494.097 583.61 494.097Z" fill="#121212"></path>
  <path d="M401.15 495.357H95.96C91.14 495.357 87.22 499.277 87.22 504.097V517.687H410.66V504.867C410.66 499.627 406.4 495.357 401.15 495.357Z" fill="#F8F9F9"></path>
  <path d="M410.66 518.687H87.22C86.67 518.687 86.22 518.237 86.22 517.687V504.097C86.22 498.727 90.59 494.357 95.96 494.357H401.15C406.94 494.357 411.66 499.067 411.66 504.867V517.687C411.66 518.237 411.21 518.687 410.66 518.687ZM88.22 516.687H409.66V504.867C409.66 500.177 405.84 496.357 401.15 496.357H95.96C91.69 496.357 88.22 499.827 88.22 504.097V516.687Z" fill="#121212"></path>
  <path d="M306.34 508.978H221.63C218.3 508.978 215.58 506.098 215.58 502.558V495.308H217.58V502.558C217.58 504.998 219.4 506.978 221.63 506.978H306.34C308.57 506.978 310.39 504.998 310.39 502.558V495.308H312.39V502.558C312.39 506.098 309.68 508.978 306.34 508.978Z" fill="#121212"></path>
  <path d="M566.84 474.138H250.95C248.7 474.138 246.92 472.107 247.13 469.777L265.93 257.308C266.11 255.268 267.78 253.698 269.75 253.698H585.64C587.89 253.698 589.67 255.728 589.46 258.058L570.66 470.527C570.48 472.567 568.81 474.138 566.84 474.138Z" fill="#4F94F6"></path>
  <path d="M566.84 475.138H250.95C249.62 475.138 248.34 474.568 247.43 473.568C246.48 472.528 246 471.107 246.13 469.688L264.93 257.217C265.15 254.677 267.27 252.698 269.75 252.698H585.64C586.97 252.698 588.25 253.268 589.16 254.268C590.11 255.308 590.58 256.728 590.46 258.148L571.66 470.618C571.44 473.158 569.32 475.138 566.84 475.138ZM269.75 254.698C268.3 254.698 267.06 255.878 266.92 257.398L248.12 469.868C248.04 470.738 248.33 471.587 248.9 472.217C249.44 472.807 250.17 473.138 250.94 473.138H566.83C568.28 473.138 569.52 471.947 569.66 470.438L588.46 257.967C588.54 257.097 588.25 256.248 587.68 255.618C587.14 255.028 586.41 254.698 585.64 254.698H269.75Z" fill="#121212"></path>
  <mask id="mask1_16685_78372" style="mask-type:luminance" maskUnits="userSpaceOnUse" x="263" y="81" width="358" height="393">
    <path d="M582.84 473.148H266.95C264.7 473.148 262.92 471.118 263.13 468.788L297.07 85.4076C297.25 83.3676 298.92 81.7976 300.89 81.7976H616.78C619.03 81.7976 620.81 83.8276 620.6 86.1576L586.66 469.538C586.48 471.578 584.81 473.148 582.84 473.148Z" fill="white"></path>
  </mask>
  <g mask="url(#mask1_16685_78372)">
    <path d="M453.98 92.6077C437.93 92.2077 415.9 95.7476 403.06 115.258C398.78 121.778 396.38 129.378 395.66 137.138C391.13 186.118 401.53 268.858 401.53 268.858C401.53 268.858 411.23 302.388 448.03 284.408H525.57C525.57 284.408 524.69 179.228 525.9 138.338C527.1 97.4477 473.32 96.5076 473.32 96.5076C473.32 96.5076 470.41 95.4977 465.77 94.2877C461.93 93.2977 457.97 92.6977 453.99 92.6077H453.98Z" fill="#E3BB87"></path>
    <path d="M428.16 290.718C424.18 290.718 420.46 289.958 417.04 288.438C404.7 282.968 400.74 269.698 400.57 269.138C400.56 269.088 400.55 269.038 400.54 268.988C400.44 268.158 390.17 185.578 394.66 137.048C395.43 128.788 398.05 121.068 402.22 114.708C415.27 94.8775 437.58 91.2075 454 91.6075C457.94 91.6975 461.98 92.2775 466.01 93.3275C470.11 94.3875 472.83 95.2975 473.49 95.5175C474.62 95.5475 481.23 95.8075 489.54 97.7675C497.83 99.7175 509.39 103.788 517.36 112.138C523.99 119.088 527.19 127.908 526.89 138.378C525.7 178.788 526.56 283.358 526.56 284.408C526.56 284.678 526.46 284.928 526.27 285.118C526.08 285.308 525.83 285.418 525.56 285.418H448.25C440.96 288.948 434.23 290.718 428.15 290.718H428.16ZM402.52 268.648C402.84 269.678 406.82 281.728 417.87 286.618C426.01 290.218 436 289.168 447.59 283.508C447.73 283.438 447.88 283.408 448.03 283.408H524.56C524.47 272.498 523.76 176.618 524.89 138.308C525.18 128.408 522.16 120.068 515.92 113.518C501.29 98.1875 473.57 97.5175 473.29 97.5075C473.18 97.5075 473.08 97.4875 472.98 97.4475C472.95 97.4475 470.05 96.4275 465.5 95.2475C461.62 94.2475 457.73 93.6875 453.94 93.5975C438.04 93.1775 416.43 96.7275 403.89 115.798C399.89 121.878 397.39 129.288 396.65 137.218C392.24 184.838 402.13 265.558 402.51 268.638L402.52 268.648Z" fill="#121212"></path>
    <path d="M422.53 211.168C422.53 211.168 422.18 252.958 412.31 259.588L405.52 322.428H491.27C491.27 322.428 490.5 263.638 484.34 252.958C478.18 242.278 474.18 196.748 474.18 196.748L422.53 211.168Z" fill="#F0C9BD"></path>
    <path d="M491.27 323.427H405.53C405.25 323.427 404.98 323.307 404.79 323.097C404.6 322.887 404.51 322.607 404.54 322.317L411.33 259.477C411.36 259.187 411.52 258.917 411.77 258.757C419.5 253.557 421.45 222.637 421.54 211.157C421.54 210.707 421.84 210.327 422.27 210.207L473.92 195.787C474.21 195.707 474.51 195.757 474.76 195.927C475 196.097 475.16 196.367 475.19 196.657C475.23 197.107 479.24 242.087 485.22 252.447C491.44 263.227 492.26 319.987 492.29 322.397C492.29 322.667 492.19 322.917 492 323.107C491.81 323.297 491.56 323.407 491.29 323.407L491.27 323.427ZM406.64 321.427H490.25C490.11 313.597 488.99 263.037 483.47 253.457C477.76 243.567 473.98 205.467 473.29 198.037L423.52 211.927C423.47 214.537 423.23 223.527 422.12 233.007C420.39 247.817 417.41 256.937 413.27 260.137L406.65 321.427H406.64Z" fill="#121212"></path>
    <path d="M412.32 259.587C412.32 259.587 421.08 274.807 438.97 274.807C460.81 274.807 480.6 251.817 480.6 251.817L475.11 604.527H362.71C362.71 604.527 365.32 489.547 371.01 415.267C376.7 340.987 412.31 259.577 412.31 259.577L412.32 259.587Z" fill="#FCC018"></path>
    <path d="M476.1 605.537H361.69L361.71 604.517C361.74 603.367 364.38 488.667 370.01 415.207C375.65 341.607 411.04 260.007 411.39 259.197L412.18 257.387L413.17 259.097C413.25 259.247 421.88 273.817 438.96 273.817C460.09 273.817 479.64 251.397 479.83 251.177L481.63 249.087L476.09 605.547L476.1 605.537ZM363.74 603.537H474.13L479.56 254.437C474.15 260.087 457.44 275.817 438.97 275.817C424.23 275.817 415.41 265.677 412.51 261.677C407.44 273.727 377.17 347.947 372.01 415.357C366.67 485.057 364.01 591.937 363.74 603.537Z" fill="#121212"></path>
    <path d="M532.04 484.268C538.79 431.208 538.15 371.448 540.3 351.088C542.31 332.068 544.75 298.548 534.34 288.328C521.32 275.548 484.34 252.958 484.34 252.958C484.34 252.958 451.75 306.788 412.32 351.248C412.32 351.248 410.97 300.388 412.32 292.148C414.29 280.158 409.15 258.388 409.15 258.388C409.15 258.388 379.84 274.848 377.92 276.658C376 278.468 374.23 280.998 372.97 283.898C371.71 286.798 352.35 347.278 349.21 362.708C346.08 378.148 354.88 405.998 355.6 411.428C356.32 416.858 357.77 433.138 357.77 445.438C357.77 457.738 349.21 604.538 349.21 604.538H544.1L532.04 484.278V484.268Z" fill="#F8F9F9"></path>
    <path d="M544.1 605.537H349.21C348.93 605.537 348.67 605.427 348.48 605.227C348.29 605.027 348.19 604.757 348.21 604.477C348.29 603.007 356.77 457.567 356.77 445.437C356.77 433.307 355.34 417.047 354.61 411.557C354.45 410.377 353.86 407.957 353.12 404.887C350.55 394.317 345.76 374.647 348.23 362.497C351.41 346.817 370.68 286.617 372.05 283.477C373.34 280.537 375.18 277.847 377.23 275.917C379.18 274.077 405.64 259.197 408.65 257.497C408.92 257.347 409.25 257.327 409.54 257.457C409.83 257.587 410.04 257.837 410.11 258.147C410.32 259.047 415.28 280.257 413.29 292.307C412.14 299.307 412.99 338.267 413.24 348.667C451.41 305.157 483.15 252.967 483.47 252.437C483.61 252.207 483.83 252.047 484.09 251.987C484.35 251.927 484.62 251.967 484.85 252.107C486.36 253.027 522.07 274.907 535.03 287.617C542.94 295.377 544.99 316.177 541.29 351.197C540.54 358.327 540.13 370.197 539.62 385.237C538.69 412.517 537.41 449.877 533.04 484.287L545.09 604.437C545.12 604.717 545.03 604.997 544.84 605.207C544.65 605.417 544.38 605.537 544.1 605.537ZM350.27 603.537H542.99L531.04 484.377C531.04 484.297 531.04 484.227 531.04 484.147C535.41 449.797 536.69 412.447 537.62 385.167C538.13 370.087 538.54 358.177 539.3 350.977C542.88 317.087 540.97 296.247 533.63 289.037C521.93 277.557 490.27 257.797 484.66 254.327C480.29 261.427 449.39 310.937 413.05 351.897C412.78 352.207 412.35 352.317 411.96 352.177C411.57 352.037 411.31 351.677 411.3 351.267C411.25 349.187 409.96 300.217 411.31 291.987C412.95 281.997 409.49 264.767 408.44 259.917C396.72 266.517 379.88 276.157 378.58 277.387C376.72 279.137 375.04 281.597 373.86 284.297C372.94 286.407 353.36 347.197 350.17 362.907C347.79 374.617 352.51 394.007 355.04 404.427C355.83 407.667 356.4 410.017 356.57 411.307C357.31 416.837 358.75 433.037 358.75 445.447C358.75 457.087 351.02 590.247 350.25 603.547L350.27 603.537Z" fill="#121212"></path>
    <path d="M512.32 266.107L482.78 293.717L458.63 294.178L460 308.798L412.32 351.238L482.54 245.427L512.33 266.097L512.32 266.107Z" fill="#F8F9F9"></path>
    <path d="M412.32 352.248C412.09 352.248 411.85 352.168 411.66 351.998C411.28 351.668 411.2 351.108 411.48 350.688L481.7 244.878C481.85 244.658 482.08 244.498 482.34 244.448C482.61 244.398 482.88 244.448 483.1 244.608L512.89 265.278C513.14 265.448 513.3 265.728 513.32 266.028C513.34 266.328 513.23 266.628 513.01 266.828L483.47 294.438C483.29 294.608 483.05 294.698 482.81 294.708L459.73 295.148L461 308.698C461.03 309.018 460.91 309.328 460.67 309.538L412.99 351.978C412.8 352.148 412.56 352.228 412.32 352.228V352.248ZM482.81 246.848L417.42 345.368L458.96 308.398L457.63 294.278C457.6 293.998 457.7 293.728 457.88 293.518C458.07 293.308 458.33 293.188 458.61 293.188L482.38 292.728L510.74 266.228L482.81 246.848Z" fill="#121212"></path>
    <path d="M394.52 257.217L396.14 276.537L410.04 290.807L400.83 299.147L411.95 351.247L417.16 249.867L394.52 257.227V257.217Z" fill="#F8F9F9"></path>
    <path d="M411.95 352.247C411.48 352.247 411.07 351.917 410.97 351.457L399.85 299.357C399.77 299.007 399.89 298.647 400.16 298.407L408.6 290.757L395.42 277.227C395.26 277.057 395.16 276.847 395.14 276.617L393.52 257.297C393.48 256.837 393.77 256.407 394.21 256.267L416.85 248.907C417.16 248.807 417.51 248.867 417.77 249.067C418.03 249.267 418.18 249.587 418.16 249.917L412.95 351.297C412.92 351.797 412.53 352.207 412.03 352.247C412 352.247 411.98 352.247 411.95 352.247ZM401.93 299.507L411.34 343.607L416.09 251.267L395.59 257.927L397.11 276.097L410.76 290.117C410.95 290.307 411.05 290.577 411.04 290.847C411.04 291.117 410.91 291.377 410.71 291.557L401.93 299.517V299.507Z" fill="#121212"></path>
    <path d="M418.52 131.137C418.52 131.137 414.08 133.617 409.14 143.687C406.03 150.017 404.24 157.227 403.66 164.257C403.13 170.657 402.57 179.097 402.87 183.297C405.84 212.967 417.16 232.697 444.39 236.057C467.85 240.217 484.88 223.297 492.85 209.537C497.38 201.727 500.46 193.187 502.29 184.387L505.64 168.267C506.17 165.717 506.17 163.087 505.48 160.577C504.15 155.787 501.28 151.737 496.26 149.167C480.9 141.297 470.96 131.317 464.58 122.497C450.95 120.137 433.76 120.577 418.53 131.187V131.147L418.52 131.137Z" fill="#F0C9BD"></path>
    <path d="M451.49 237.687C449.13 237.687 446.7 237.477 444.22 237.037C418.7 233.887 405.23 216.837 401.88 183.387C401.57 179.097 402.14 170.567 402.66 164.167C403.28 156.637 405.21 149.407 408.24 143.247C413.26 133.017 417.84 130.377 418.03 130.267C418.09 130.237 418.14 130.207 418.2 130.187C430.91 121.437 447 118.427 464.74 121.497C465 121.537 465.23 121.687 465.38 121.897C473.23 132.757 483.77 141.637 496.7 148.267C501.63 150.787 504.91 154.837 506.42 160.297C507.13 162.867 507.19 165.617 506.6 168.457L503.25 184.577C501.32 193.857 498.11 202.427 493.7 210.027C485.61 223.987 470.63 237.677 451.47 237.677L451.49 237.687ZM418.81 132.137C417.92 132.757 414.15 135.727 410.03 144.127C407.11 150.067 405.25 157.057 404.65 164.337C404.13 170.667 403.57 179.087 403.86 183.227C407.1 215.557 420.02 232.047 444.51 235.067C466.17 238.907 483.23 224.147 491.98 209.037C496.28 201.617 499.42 193.257 501.3 184.177L504.65 168.057C505.18 165.527 505.13 163.097 504.5 160.837C503.14 155.947 500.21 152.317 495.79 150.057C482.7 143.347 472.01 134.387 464 123.407C446.59 120.477 431.49 123.367 419.09 131.997C419 132.057 418.9 132.107 418.8 132.137H418.81Z" fill="#121212"></path>
    <path d="M470.32 178.408C471.47 172.878 470.12 167.918 467.3 167.328C464.48 166.738 461.25 170.748 460.1 176.278C458.95 181.808 460.3 186.768 463.12 187.358C465.94 187.948 469.17 183.938 470.32 178.408Z" fill="#121212"></path>
    <path d="M426.62 169.287C427.78 163.757 426.42 158.797 423.6 158.207C420.78 157.617 417.55 161.628 416.4 167.158C415.25 172.688 416.6 177.648 419.42 178.238C422.24 178.828 425.47 174.817 426.62 169.287Z" fill="#121212"></path>
    <path d="M479.92 194.597C476.12 194.597 471.19 193.638 464.51 191.908C459.57 190.628 455.99 187.877 453.87 183.727C448.29 172.797 454.76 156.037 455.04 155.327C455.22 154.867 455.72 154.607 456.2 154.717L498.38 164.677C498.84 164.787 499.18 165.208 499.17 165.688C499.17 165.908 498.96 171.237 493.76 183.177C490.26 191.207 487.06 194.597 479.92 194.597ZM456.6 156.867C455.4 160.317 451.14 173.977 455.64 182.817C457.49 186.437 460.63 188.837 465 189.967C483.44 194.737 486.96 193.738 491.92 182.378C495.82 173.428 496.83 168.287 497.08 166.427L456.6 156.867Z" fill="#121212"></path>
    <path d="M434.98 184.128C431.88 184.128 428.15 183.428 421.63 181.738C416.69 180.458 413.11 177.708 410.99 173.558C405.42 162.628 411.88 145.868 412.16 145.158C412.34 144.698 412.84 144.438 413.32 144.548L455.5 154.508C455.64 154.538 455.78 154.608 455.89 154.698C456.07 154.838 456.22 155.058 456.27 155.278C456.35 155.608 456.88 158.798 451.71 170.658C451.02 172.228 449.72 173.638 449.66 173.698C449.5 173.868 449.28 173.978 449.04 174.008C448.63 174.058 438.9 175.298 438.99 182.868C438.99 183.368 438.64 183.788 438.15 183.868C437.1 184.038 436.08 184.128 434.97 184.128H434.98ZM413.73 146.708C412.53 150.158 408.27 163.818 412.77 172.658C414.61 176.278 417.76 178.678 422.12 179.808C430.02 181.848 433.63 182.408 437.02 182.018C437.51 175.398 444.39 172.678 448.42 172.088C448.78 171.658 449.47 170.778 449.87 169.868C453.6 161.308 454.23 157.598 454.31 156.298L413.71 146.708H413.73Z" fill="#121212"></path>
    <path d="M444.08 191.688C443.83 191.688 443.57 191.588 443.38 191.398C438.54 186.608 436.66 182.408 437.79 178.938C439.54 173.528 447.87 172.188 448.22 172.138C448.77 172.058 449.28 172.428 449.36 172.968C449.44 173.518 449.07 174.028 448.53 174.108C448.46 174.118 441.06 175.318 439.69 179.558C438.82 182.258 440.53 185.768 444.79 189.978C445.18 190.368 445.19 190.998 444.79 191.388C444.59 191.588 444.34 191.688 444.08 191.688Z" fill="#121212"></path>
    <path d="M438.53 144.887C438.26 144.887 437.99 144.777 437.8 144.567C431.21 137.457 424.36 142.367 424.08 142.587C423.64 142.917 423.01 142.827 422.68 142.377C422.35 141.937 422.44 141.307 422.88 140.977C422.96 140.917 431.43 134.757 439.26 143.207C439.64 143.607 439.61 144.247 439.21 144.617C439.02 144.797 438.77 144.887 438.53 144.887Z" fill="#121212"></path>
    <path d="M484.67 155.557C484.38 155.557 484.09 155.427 483.89 155.187C477.79 147.657 470.62 152.097 470.32 152.287C469.85 152.587 469.24 152.447 468.94 151.987C468.64 151.527 468.77 150.907 469.24 150.607C469.33 150.547 478.2 144.977 485.45 153.927C485.8 154.357 485.73 154.987 485.3 155.337C485.12 155.487 484.89 155.557 484.67 155.557Z" fill="#121212"></path>
    <path d="M452.22 214.078C446.98 214.078 442.24 212.618 438.1 209.728C437.65 209.408 437.54 208.788 437.85 208.338C438.16 207.888 438.79 207.778 439.24 208.088C443.8 211.268 449.16 212.558 455.17 211.918C459.71 211.438 463.69 210.038 466.99 207.768C467.45 207.458 468.07 207.568 468.38 208.028C468.69 208.488 468.58 209.108 468.12 209.418C464.54 211.878 460.25 213.388 455.38 213.908C454.31 214.018 453.25 214.078 452.22 214.078Z" fill="#121212"></path>
    <path d="M331.12 332.848C331.12 332.848 297.02 413.418 300.59 429.458C304.32 446.178 325.31 461.528 339.78 444.528C352.23 429.908 361.94 344.238 361.94 344.238L331.12 332.848Z" fill="#F8F9F9"></path>
    <path d="M325.19 452.928C323.66 452.928 322.11 452.738 320.55 452.348C310.81 449.928 302.01 440.398 299.62 429.678C296.02 413.508 328.81 335.758 330.2 332.458C330.41 331.968 330.97 331.728 331.47 331.908L362.29 343.298C362.72 343.458 362.99 343.888 362.94 344.348C362.54 347.858 353.05 430.488 340.55 445.178C336.21 450.268 330.88 452.928 325.2 452.928H325.19ZM331.67 334.118C327.99 342.918 298.3 414.578 301.56 429.248C303.76 439.108 312.13 448.208 321.02 450.418C325.7 451.578 332.62 451.388 339.01 443.888C350.5 430.398 359.83 353.518 360.84 344.908L331.66 334.128L331.67 334.118Z" fill="#121212"></path>
    <path d="M366.23 307.157C366.23 307.157 368.16 303.467 370.93 301.457C373.71 299.447 379.25 295.347 380.5 291.917C381.75 288.477 386.89 274.057 388.45 271.077C390.01 268.097 393.59 265.387 394.19 264.057C394.79 262.727 396.44 260.617 398.04 259.207C399.63 257.787 400.65 257.017 400.3 256.027C399.95 255.037 396.12 251.427 392.01 253.927C387.9 256.427 384.35 259.917 384.35 259.917L385.04 247.267L382.29 241.407L377.55 243.877L372.66 251.687L343.19 274.497L366.23 307.157Z" fill="#F0C9BD"></path>
    <path d="M366.23 308.158C365.91 308.158 365.6 307.998 365.41 307.738L342.37 275.078C342.06 274.638 342.15 274.038 342.58 273.708L371.91 251.008L376.7 243.348C376.79 243.198 376.93 243.078 377.08 242.988L381.82 240.518C382.06 240.388 382.34 240.368 382.6 240.458C382.86 240.548 383.07 240.738 383.18 240.978L385.93 246.838C386 246.988 386.03 247.148 386.02 247.318L385.46 257.528C386.91 256.268 389.09 254.518 391.47 253.068C393.28 251.968 395.28 251.768 397.26 252.468C399.37 253.218 400.92 254.818 401.23 255.688C401.77 257.218 400.59 258.268 399.09 259.588L398.69 259.938C397.23 261.238 395.65 263.228 395.09 264.458C394.77 265.178 393.96 266.008 392.94 267.058C391.7 268.338 390.16 269.928 389.32 271.528C387.98 274.098 383.8 285.668 382.02 290.608L381.43 292.238C380.19 295.648 375.48 299.378 371.51 302.248C368.95 304.098 367.13 307.568 367.11 307.598C366.95 307.908 366.64 308.108 366.29 308.138C366.27 308.138 366.25 308.138 366.22 308.138L366.23 308.158ZM344.56 274.708L366.16 305.328C367.01 303.998 368.49 301.998 370.35 300.658C372.54 299.068 378.37 294.858 379.56 291.578L380.15 289.948C382.1 284.548 386.16 273.308 387.56 270.618C388.53 268.758 390.19 267.048 391.52 265.678C392.3 264.878 393.1 264.048 393.28 263.648C393.95 262.178 395.71 259.948 397.37 258.458L397.78 258.098C398.53 257.438 399.45 256.618 399.36 256.358C399.24 256.098 398.14 254.828 396.4 254.288C395.06 253.868 393.76 254.038 392.54 254.778C388.58 257.178 385.09 260.598 385.06 260.628C384.77 260.918 384.33 260.998 383.95 260.828C383.57 260.658 383.34 260.278 383.36 259.858L384.04 247.458L381.84 242.768L378.27 244.628L373.53 252.208C373.47 252.308 373.39 252.398 373.29 252.468L344.57 274.688L344.56 274.708Z" fill="#121212"></path>
    <path d="M354.08 283.808C351.87 280.038 348.48 273.988 348.48 273.988C348.48 273.988 354.49 281.138 355.43 282.258C356.37 283.378 362.13 286.128 363.31 286.458C364.49 286.788 366.51 285.408 366.51 285.408C366.51 285.408 368.08 285.318 368.6 284.548C369.12 283.778 370.95 275.418 371.2 271.858C371.45 268.308 362.1 250.808 362.1 250.808C362.1 250.808 359.45 250.488 358.15 250.468C356.86 250.438 352.4 255.938 352.4 255.938C352.4 255.938 350.51 254.818 349.23 255.658C347.95 256.498 336.98 269.288 335.29 270.878C333.6 272.458 332.94 275.088 333.18 278.298C333.42 281.508 337.66 307.048 337.3 311.168C336.94 315.288 328.64 340.508 328.64 340.508L355.46 362.258C355.46 362.258 366.09 306.238 368.29 304.058" fill="#F0C9BD"></path>
    <path d="M355.46 363.258C355.23 363.258 355.01 363.178 354.83 363.038L328.01 341.288C327.69 341.028 327.56 340.598 327.69 340.198C330.55 331.518 336.03 314.258 336.3 311.088C336.53 308.448 334.66 295.768 333.42 287.388C332.77 282.978 332.26 279.488 332.17 278.388C331.9 274.738 332.74 271.898 334.6 270.158C335.28 269.518 337.68 266.818 340.22 263.958C344.95 258.628 347.88 255.358 348.68 254.838C349.86 254.068 351.26 254.378 352.12 254.718C355 251.248 357.02 249.488 358.15 249.488H358.17C359.5 249.518 362.1 249.828 362.21 249.838C362.54 249.878 362.82 250.068 362.97 250.358C363.94 252.178 372.44 268.218 372.18 271.948C371.95 275.198 370.17 284.028 369.41 285.128C368.77 286.048 367.46 286.308 366.83 286.388C366.14 286.818 364.37 287.808 363.01 287.428C361.82 287.088 356.14 284.438 354.76 283.038C354.82 283.128 354.87 283.228 354.92 283.318C355.2 283.798 355.04 284.408 354.56 284.688C354.08 284.968 353.47 284.808 353.19 284.328C351 280.598 347.61 274.548 347.58 274.488C347.33 274.038 347.46 273.468 347.88 273.178C348.31 272.888 348.88 272.968 349.21 273.358L356.16 281.628C356.9 282.508 362.39 285.188 363.54 285.508C363.96 285.628 365.13 285.128 365.91 284.598C366.06 284.498 366.23 284.438 366.41 284.428C366.96 284.388 367.62 284.178 367.74 283.998C368.15 283.208 369.91 275.358 370.16 271.808C370.32 269.488 364.99 258.488 361.43 251.768C360.63 251.678 359.07 251.518 358.17 251.488C357.41 251.768 354.98 254.318 353.15 256.588C352.84 256.968 352.3 257.078 351.87 256.818C351.52 256.618 350.36 256.118 349.75 256.518C349.06 256.998 344.63 261.988 341.69 265.298C339.01 268.318 336.69 270.928 335.94 271.628C334.54 272.938 333.92 275.228 334.14 278.248C334.22 279.278 334.75 282.908 335.37 287.108C337.09 298.758 338.49 308.618 338.26 311.278C337.93 315.138 331.11 336.098 329.77 340.188L354.75 360.458C357.58 345.638 365.39 305.518 367.55 303.378C367.94 302.988 368.58 302.998 368.97 303.388C369.36 303.778 369.35 304.418 368.96 304.808C367.38 306.988 360.42 341.338 356.41 362.478C356.34 362.828 356.1 363.108 355.77 363.228C355.66 363.268 355.54 363.288 355.43 363.288L355.46 363.258Z" fill="#121212"></path>
    <path d="M352.41 255.928C352.41 255.928 360.1 263.508 361.99 268.818C363.89 274.128 366.51 285.398 366.51 285.398" fill="#F0C9BD"></path>
    <path d="M366.51 286.398C366.06 286.398 365.64 286.088 365.54 285.628C365.51 285.518 362.91 274.348 361.05 269.158C359.25 264.128 351.78 256.718 351.71 256.648C351.32 256.258 351.31 255.628 351.71 255.238C352.1 254.848 352.73 254.838 353.12 255.238C353.44 255.558 360.99 263.038 362.94 268.498C364.83 273.798 367.38 284.728 367.49 285.188C367.62 285.728 367.28 286.268 366.74 286.388C366.66 286.408 366.59 286.418 366.51 286.418V286.398Z" fill="#121212"></path>
    <path d="M373.35 333.948L326.52 316.698L312.82 347.658L365.28 366.478L373.35 333.938V333.948Z" fill="#FCC018"></path>
    <path d="M365.28 367.488C365.17 367.488 365.05 367.468 364.94 367.428L312.48 348.608C312.22 348.518 312.01 348.318 311.9 348.058C311.79 347.808 311.79 347.518 311.9 347.258L325.6 316.298C325.81 315.818 326.37 315.578 326.86 315.768L373.69 333.018C374.17 333.198 374.44 333.698 374.31 334.198L366.24 366.738C366.17 367.008 365.99 367.248 365.74 367.378C365.59 367.458 365.43 367.498 365.27 367.498L365.28 367.488ZM314.17 347.088L364.58 365.178L372.17 334.588L327.06 317.978L314.17 347.098V347.088Z" fill="#121212"></path>
    <path d="M360.62 360.408C360.53 360.408 360.43 360.398 360.34 360.368C359.81 360.208 359.51 359.658 359.66 359.128L363.75 345.298C363.91 344.768 364.46 344.468 364.99 344.618C365.52 344.778 365.82 345.328 365.67 345.858L361.58 359.688C361.45 360.128 361.05 360.408 360.62 360.408Z" fill="#121212"></path>
    <path d="M368.27 278.538C367.73 279.068 366.67 279.598 365.92 279.708L361.61 280.348C360.86 280.458 360.41 279.948 360.6 279.218L361.61 275.438C361.81 274.708 362.41 273.668 362.95 273.138L424.86 212.258C425.4 211.728 426.28 211.738 426.81 212.278L430.19 215.718C430.72 216.258 430.71 217.138 430.17 217.668L368.26 278.558L368.27 278.538Z" fill="#C1D9FD"></path>
    <path d="M361.41 281.358C360.85 281.358 360.35 281.148 360 280.758C359.58 280.288 359.45 279.638 359.63 278.958L360.64 275.178C360.88 274.268 361.57 273.088 362.24 272.428L424.15 211.548C425.09 210.628 426.59 210.638 427.51 211.578L430.89 215.018C431.81 215.948 431.8 217.458 430.86 218.378L368.95 279.268C368.26 279.948 367.01 280.568 366.05 280.708L361.74 281.348C361.62 281.368 361.51 281.378 361.4 281.378L361.41 281.358ZM425.83 212.848C425.73 212.848 425.64 212.888 425.56 212.958L363.65 273.838C363.24 274.248 362.73 275.128 362.58 275.688L361.61 279.328L365.78 278.718C366.32 278.638 367.18 278.218 367.57 277.828L429.48 216.938C429.63 216.798 429.63 216.548 429.48 216.398L426.1 212.958C426.03 212.888 425.93 212.848 425.83 212.848Z" fill="#121212"></path>
    <path d="M419.81 217.218L425.1 222.648L427.37 220.408L422.08 214.978L419.81 217.218Z" fill="#F8F9F9"></path>
    <path d="M425.1 223.648H425.09C424.82 223.648 424.57 223.538 424.38 223.348L419.1 217.918C418.72 217.528 418.72 216.898 419.12 216.508L421.39 214.278C421.58 214.088 421.85 213.998 422.1 213.988C422.37 213.988 422.62 214.098 422.81 214.288L428.09 219.718C428.47 220.108 428.47 220.738 428.07 221.128L425.8 223.358C425.61 223.538 425.36 223.648 425.1 223.648ZM421.22 217.228L425.11 221.228L425.96 220.398L422.07 216.398L421.22 217.228Z" fill="#121212"></path>
    <path d="M362.11 250.808C362.11 250.808 367.97 266.968 369.14 270.438C370.31 273.908 370.78 280.138 371.8 282.418C372.7 284.428 375.46 283.258 376.24 281.258C377.02 279.258 378.34 272.738 378.47 269.938C378.6 267.138 378.13 264.478 377.81 262.118C377.5 259.758 374.73 249.168 374.3 248.098C373.87 247.028 370.31 244.928 368.33 245.218C366.35 245.508 362.93 247.688 362.11 250.818V250.808Z" fill="#F0C9BD"></path>
    <path d="M373.34 284.468C372.24 284.468 371.35 283.878 370.88 282.828C370.31 281.548 369.92 279.278 369.51 276.878C369.13 274.668 368.74 272.378 368.19 270.748C367.04 267.328 361.23 251.298 361.17 251.138C361.1 250.948 361.09 250.738 361.14 250.548C362.07 246.998 365.9 244.548 368.19 244.218C370.5 243.878 374.61 246.128 375.24 247.718C375.73 248.958 378.49 259.578 378.81 261.978L378.96 263.088C379.25 265.168 379.58 267.518 379.47 269.978C379.34 272.978 377.97 279.578 377.17 281.618C376.55 283.198 374.94 284.428 373.41 284.458C373.38 284.458 373.36 284.458 373.33 284.458L373.34 284.468ZM363.16 250.778C363.98 253.038 369.01 266.948 370.08 270.118C370.67 271.888 371.08 274.258 371.47 276.538C371.84 278.708 372.23 280.948 372.7 282.008C372.84 282.328 373.05 282.488 373.36 282.458C374.01 282.438 374.94 281.808 375.3 280.888C376.02 279.038 377.34 272.588 377.46 269.878C377.56 267.598 377.26 265.438 376.97 263.358L376.82 262.238C376.51 259.938 373.75 249.408 373.37 248.448C373.06 247.818 370.04 245.968 368.47 246.188C366.78 246.438 363.97 248.318 363.16 250.768V250.778Z" fill="#121212"></path>
    <path d="M377.55 243.878C377.78 245.918 381.06 250.578 385.22 251.748C389.38 252.918 393.65 249.598 393.53 248.268C393.41 246.938 388.93 244.868 387.74 242.578C386.55 240.288 384.97 239.338 383.54 239.218C382.11 239.098 380.24 240.088 379.54 240.828C378.84 241.568 377.55 243.878 377.55 243.878Z" fill="#F0C9BD"></path>
    <path d="M387.04 252.998C386.36 252.998 385.66 252.908 384.96 252.718C380.59 251.488 376.85 246.578 376.56 243.998C376.54 243.788 376.58 243.578 376.68 243.398C376.82 243.148 378.06 240.958 378.82 240.148C379.67 239.238 381.81 238.058 383.64 238.228C384.81 238.328 387.02 238.968 388.65 242.128C389.15 243.108 390.54 244.148 391.77 245.078C393.33 246.248 394.45 247.098 394.55 248.198C394.64 249.288 393.6 250.318 392.97 250.848C391.63 251.958 389.44 253.018 387.05 253.018L387.04 252.998ZM378.6 244.058C379.05 245.808 381.82 249.758 385.5 250.788C387.85 251.448 390 250.388 390.81 249.898C391.9 249.248 392.4 248.598 392.52 248.348C392.29 247.968 391.25 247.188 390.55 246.658C389.15 245.608 387.57 244.418 386.86 243.028C385.98 241.318 384.77 240.318 383.46 240.198C382.4 240.108 380.83 240.908 380.27 241.498C379.87 241.918 379.1 243.178 378.6 244.048V244.058Z" fill="#121212"></path>
    <path d="M472.14 338.168C470.37 338.168 469.51 336.978 469.3 336.298C469.14 335.768 469.43 335.208 469.96 335.048C470.48 334.888 471.03 335.168 471.2 335.678C471.26 335.818 471.51 336.248 472.4 336.148C472.96 336.078 473.45 336.478 473.51 337.028C473.57 337.578 473.18 338.068 472.63 338.138C472.46 338.158 472.29 338.168 472.13 338.168H472.14Z" fill="#121212"></path>
    <mask id="mask2_16685_78372" style="mask-type:luminance" maskUnits="userSpaceOnUse" x="465" y="323" width="37" height="25">
      <path d="M500.91 338.528C499.91 344.508 491.1 348.898 481.35 347.248C465.68 344.618 464.69 338.558 465.72 332.638C466.72 326.658 473.24 321.448 485.33 323.468C495.04 325.118 501.9 332.588 500.91 338.538V338.528Z" fill="white"></path>
    </mask>
    <g mask="url(#mask2_16685_78372)">
      <path d="M487.12 347.928C488.52 347.858 489.84 347.608 491.09 347.298C496.56 342.378 497.77 331.278 493.84 326.398C492.42 325.468 490.88 324.708 489.19 324.098C495 330.138 492.26 342.178 487.13 347.908V347.928H487.12Z" fill="#121212"></path>
      <path d="M487.12 348.928C486.85 348.928 486.58 348.818 486.39 348.618C486.19 348.408 486.09 348.118 486.12 347.818V347.798C486.15 347.588 486.23 347.398 486.37 347.238C490.91 342.168 494.06 330.618 488.45 324.788C488.13 324.458 488.08 323.938 488.33 323.548C488.58 323.158 489.07 322.988 489.51 323.148C491.26 323.768 492.89 324.578 494.37 325.548C494.46 325.608 494.54 325.678 494.6 325.758C498.99 331.208 497.5 342.858 491.75 348.038C491.63 348.148 491.48 348.228 491.32 348.268C489.78 348.648 488.46 348.858 487.17 348.928C487.15 348.928 487.13 348.928 487.12 348.928ZM492 326.468C493.3 329.168 493.74 332.538 493.24 336.258C492.74 340.018 491.33 343.738 489.36 346.648C489.76 346.578 490.17 346.488 490.6 346.388C495.29 341.948 496.66 331.708 493.15 327.148C492.78 326.908 492.4 326.678 492 326.468Z" fill="#121212"></path>
      <path d="M485.84 323.148C485.84 323.148 483.31 322.828 482.31 322.738C485.83 328.358 486.35 342.138 478.12 346.938C479.16 347.198 480.27 347.418 481.46 347.628C481.77 347.688 482.06 347.698 482.37 347.778C490.53 341.348 489.77 327.318 485.84 323.128L485.86 323.148H485.84Z" fill="#121212"></path>
      <path d="M482.36 348.778C482.28 348.778 482.2 348.778 482.13 348.748C481.98 348.708 481.83 348.698 481.69 348.678C481.55 348.658 481.42 348.638 481.28 348.618C480.08 348.418 478.93 348.178 477.88 347.918C477.48 347.818 477.19 347.498 477.13 347.088C477.07 346.688 477.26 346.288 477.62 346.078C481.03 344.098 482.5 340.578 483.14 337.968C484.52 332.358 483.31 326.208 481.47 323.268C481.27 322.948 481.27 322.538 481.47 322.218C481.67 321.898 482.04 321.708 482.41 321.748C483.25 321.828 485.15 322.058 485.78 322.138C486.07 322.118 486.36 322.228 486.57 322.448C488.81 324.828 490.01 329.678 489.63 334.788C489.38 338.178 488.18 344.468 482.99 348.558C482.81 348.698 482.59 348.768 482.37 348.768L482.36 348.778ZM480.51 346.438C480.87 346.508 481.24 346.578 481.62 346.638C481.74 346.658 481.85 346.678 481.96 346.688C482 346.688 482.04 346.698 482.09 346.708C486.39 343.088 487.41 337.618 487.63 334.638C487.95 330.398 487.01 326.148 485.35 324.088C485.04 324.048 484.56 323.988 484.06 323.928C485.8 327.938 486.25 333.688 485.08 338.438C484.25 341.798 482.69 344.528 480.51 346.428V346.438Z" fill="#121212"></path>
      <path d="M495.18 345.928C498.46 344.128 500.69 341.538 501.17 338.578C501.63 335.778 500.5 332.658 498.23 329.878C500.36 334.628 498.41 343.068 495.18 345.948V345.928Z" fill="#121212"></path>
      <path d="M495.18 346.938C495.01 346.938 494.85 346.898 494.7 346.818C494.33 346.618 494.13 346.198 494.2 345.778C494.24 345.508 494.4 345.248 494.63 345.098C497.41 342.468 499.28 334.628 497.33 330.288C497.12 329.828 497.29 329.288 497.72 329.028C498.15 328.758 498.7 328.858 499.02 329.248C501.55 332.348 502.67 335.718 502.17 338.738C501.66 341.878 499.41 344.708 495.82 346.728C495.64 346.868 495.42 346.948 495.2 346.948L495.18 346.938ZM500.1 335.678C500 337.588 499.61 339.538 499.02 341.288C499.63 340.378 500.02 339.408 500.18 338.408C500.32 337.528 500.29 336.608 500.1 335.668V335.678Z" fill="#121212"></path>
    </g>
    <path d="M485.5 348.588C484.08 348.588 482.63 348.468 481.18 348.228C473.42 346.928 468.5 344.678 466.14 341.338C464.04 338.378 464.28 335.038 464.73 332.458C465.82 325.948 472.67 320.328 485.49 322.468C495.22 324.118 503.03 331.848 501.89 338.688C501.48 341.128 499.95 343.358 497.47 345.128C494.3 347.378 490.02 348.588 485.5 348.588ZM480.24 324.008C471.95 324.008 467.49 328.108 466.71 332.788C466.14 336.098 466.46 338.298 467.78 340.168C469.82 343.048 474.32 345.038 481.52 346.248C487.05 347.188 492.58 346.158 496.32 343.488C498.36 342.038 499.61 340.258 499.93 338.348C500.98 332.098 492.86 325.738 485.17 324.438C483.4 324.138 481.76 324.008 480.24 324.008Z" fill="#121212"></path>
    <path d="M472.93 332.158C472.61 332.158 472.29 332.008 472.1 331.718C471.4 330.688 470.65 330.888 470.43 330.978C469.92 331.178 469.34 330.958 469.12 330.458C468.9 329.958 469.12 329.388 469.61 329.158C470.45 328.778 472.39 328.578 473.75 330.598C474.06 331.058 473.94 331.678 473.48 331.988C473.31 332.108 473.11 332.158 472.92 332.158H472.93Z" fill="#121212"></path>
    <path d="M478.87 334.347C478.55 334.347 478.23 334.197 478.04 333.907C477.34 332.877 476.59 333.087 476.37 333.167C475.86 333.367 475.28 333.138 475.06 332.648C474.84 332.148 475.06 331.567 475.55 331.347C476.39 330.957 478.33 330.767 479.69 332.787C480 333.247 479.88 333.868 479.42 334.178C479.25 334.298 479.05 334.347 478.86 334.347H478.87Z" fill="#121212"></path>
    <path d="M488.24 324.648C488.18 324.648 488.11 324.648 488.05 324.628C488.01 324.628 487.97 324.608 487.93 324.598C482.05 323.828 478.08 322.038 476.44 319.428C475.56 318.028 475.37 316.468 475.88 314.908C476.53 313.128 478.93 310.178 483.43 311.528C489.22 313.258 491.06 317.188 489.2 323.918C489.08 324.358 488.68 324.648 488.24 324.648ZM481.23 313.178C478.72 313.178 477.87 315.278 477.76 315.558C477.44 316.518 477.56 317.468 478.12 318.358C479.36 320.328 482.67 321.788 487.49 322.508C488.95 316.208 486.14 314.418 482.85 313.428C482.24 313.248 481.7 313.168 481.22 313.168L481.23 313.178Z" fill="#121212"></path>
    <path d="M497.88 327.468C495.39 327.468 492.05 326.718 487.67 324.448C487.23 324.218 487.03 323.718 487.18 323.248C490.03 314.528 495.81 315.058 499.91 316.208C505.71 317.818 505.25 322.318 505.1 323.198C504.96 324.018 504.04 325.588 502.06 326.578C501.06 327.078 499.69 327.478 497.89 327.478L497.88 327.468ZM489.36 323.058C495.6 326.118 499.16 325.728 501.06 324.828C502.57 324.118 503.08 323.038 503.12 322.848C503.3 321.798 503.3 319.218 499.36 318.128C494.15 316.668 491.21 318.088 489.36 323.058Z" fill="#121212"></path>
    <path d="M504.2 363.448C504.2 363.448 522.99 418.258 508.44 456.768C500.36 475.858 471.34 488.208 436.92 475.228L421.66 512.868C421.66 512.868 516.56 547.168 546.51 488.958C579.97 423.928 564.27 316.578 534.34 288.318" fill="#F8F9F9"></path>
    <path d="M479.6 523.908C477.38 523.908 475.11 523.858 472.8 523.748C445.5 522.458 421.55 513.898 421.31 513.818C421.05 513.728 420.85 513.528 420.74 513.288C420.63 513.038 420.62 512.758 420.73 512.508L435.99 474.868C436.19 474.368 436.76 474.118 437.27 474.308C471.1 487.058 499.55 475.218 507.52 456.388C521.75 418.698 503.44 364.328 503.25 363.778C503.07 363.258 503.35 362.688 503.87 362.508C504.39 362.328 504.96 362.608 505.14 363.128C505.33 363.678 523.87 418.718 509.37 457.128C503.41 471.208 486.66 481.608 464.85 481.608C456.37 481.608 447.14 480.038 437.47 476.508L422.97 512.268C427.72 513.868 449.03 520.628 472.93 521.748C508.92 523.438 533.39 512.258 545.6 488.508C579.2 423.208 562.64 316.448 533.63 289.058C533.23 288.678 533.21 288.048 533.59 287.648C533.97 287.248 534.6 287.228 535 287.608C550.02 301.788 561.58 335.188 565.16 374.778C569.08 418.058 562.59 459.848 547.37 489.438C535.72 512.078 512.36 523.918 479.58 523.918L479.6 523.908Z" fill="#121212"></path>
    <path opacity="0.27" d="M455.29 155.468C455.29 155.468 455.56 159.548 450.37 171.438C449.82 172.668 448.45 172.678 447.17 172.918C445.04 173.318 442.3 174.628 441.32 175.708C440.41 176.688 439.11 178.848 439.15 180.528C439.17 182.018 438.24 183.018 437.03 183.198C433.11 183.748 430.05 182.858 421.87 180.758C401.33 175.438 413.09 145.518 413.09 145.518L455.27 155.478H455.29V155.468Z" fill="#AEDCEE"></path>
    <path opacity="0.27" d="M498.16 165.658C498.16 165.658 498.01 170.878 492.83 182.778C487.65 194.678 483.49 195.788 464.75 190.938C444.21 185.618 455.97 155.698 455.97 155.698L498.15 165.658H498.17H498.16Z" fill="#AEDCEE"></path>
  </g>
  <path d="M178.29 438.398L191.3 415.858C193.81 411.518 197.98 408.408 202.85 407.218C233.67 399.658 261.37 382.448 281.85 357.988C304.35 331.098 316.69 297.158 316.69 262.098C316.69 233.668 308.59 205.828 293.32 181.838C278.06 157.848 256.27 138.718 230.51 126.678C204.75 114.638 176.09 110.198 147.9 113.878C119.71 117.558 93.1499 129.208 71.3399 147.448C49.5399 165.688 33.3799 189.778 24.7899 216.878C16.1899 243.978 15.5099 272.968 22.8099 300.448C30.1099 327.928 45.0999 352.748 66.0099 372.008C84.5799 389.108 107.13 401.188 131.55 407.188C136.45 408.388 140.67 411.488 143.19 415.858L156.2 438.388C157.32 440.328 158.93 441.938 160.87 443.058C162.81 444.178 165.01 444.768 167.25 444.768C169.49 444.768 171.69 444.178 173.63 443.058C175.57 441.938 177.18 440.328 178.3 438.388L178.29 438.398Z" fill="#FCC018"></path>
  <path d="M167.25 445.768C164.84 445.768 162.46 445.128 160.37 443.928C158.28 442.728 156.54 440.988 155.34 438.898L142.33 416.368C139.98 412.298 135.97 409.308 131.32 408.168C106.76 402.128 83.95 389.888 65.35 372.758C44.26 353.338 29.22 328.428 21.86 300.718C14.5 273.008 15.19 243.918 23.86 216.588C32.53 189.268 48.73 165.098 70.72 146.698C92.71 128.298 119.36 116.618 147.79 112.908C176.21 109.198 204.97 113.648 230.95 125.788C256.92 137.928 278.79 157.128 294.18 181.308C309.57 205.498 317.71 233.428 317.7 262.098C317.7 297.328 305.24 331.608 282.62 358.628C261.92 383.368 234.42 400.498 203.09 408.188C198.5 409.318 194.52 412.298 192.17 416.358L179.16 438.898C177.95 440.988 176.21 442.728 174.12 443.928C172.03 445.138 169.66 445.768 167.25 445.768ZM167.3 113.628C160.88 113.628 154.45 114.048 148.04 114.878C119.99 118.538 93.69 130.068 72 148.218C50.3 166.378 34.31 190.218 25.76 217.188C17.21 244.148 16.53 272.858 23.79 300.198C31.05 327.538 45.89 352.118 66.71 371.278C85.07 388.178 107.58 400.258 131.81 406.218C136.98 407.488 141.46 410.828 144.08 415.358L157.09 437.888C158.12 439.678 159.61 441.158 161.39 442.188C164.96 444.248 169.58 444.248 173.14 442.188C174.93 441.158 176.41 439.678 177.44 437.888L190.45 415.348C193.07 410.808 197.51 407.488 202.62 406.238C233.53 398.658 260.66 381.748 281.09 357.338C303.4 330.678 315.69 296.848 315.7 262.088C315.7 233.798 307.68 206.228 292.49 182.368C277.3 158.498 255.73 139.558 230.1 127.578C210.33 118.338 188.93 113.618 167.31 113.618L167.3 113.628Z" fill="#121212"></path>
  <path d="M203.92 447.108C202.4 425.768 218.47 407.258 239.8 405.728C261.14 404.208 279.65 420.278 281.18 441.608C281.2 441.728 281.2 441.838 281.2 441.968C282.72 463.308 266.65 481.818 245.32 483.348C223.98 484.868 205.47 468.798 203.94 447.468C203.92 447.348 203.92 447.238 203.92 447.108Z" fill="#F8F9F9"></path>
  <path d="M242.59 407.638C261.74 407.638 277.81 422.628 279.18 441.758C279.18 441.808 279.18 441.818 279.19 441.868V441.938L279.2 442.118C280.64 462.308 265.37 479.908 245.18 481.358C244.3 481.418 243.41 481.448 242.53 481.448C223.38 481.448 207.31 466.458 205.94 447.328C205.94 447.278 205.94 447.268 205.93 447.218V447.148L205.92 446.968C204.48 426.778 219.75 409.178 239.94 407.728C240.82 407.668 241.71 407.638 242.59 407.638ZM242.58 405.638C241.66 405.638 240.73 405.668 239.79 405.738C218.46 407.268 202.4 425.778 203.91 447.118C203.91 447.248 203.91 447.358 203.93 447.478C205.39 467.868 222.38 483.458 242.52 483.458C243.44 483.458 244.37 483.428 245.31 483.358C266.64 481.828 282.7 463.318 281.19 441.978C281.19 441.848 281.19 441.738 281.17 441.618C279.71 421.228 262.72 405.638 242.58 405.638Z" fill="#121212"></path>
  <path d="M212.68 446.458C211.61 430.098 224 415.808 240.35 414.558C256.7 413.308 270.84 425.558 271.91 441.928C271.91 442.018 271.92 442.108 271.93 442.198C273 458.558 260.61 472.848 244.26 474.098C227.91 475.348 213.77 463.098 212.7 446.728C212.7 446.638 212.69 446.548 212.68 446.458Z" fill="#F8F9F9"></path>
  <path d="M242.64 416.468C256.99 416.468 268.97 427.708 269.91 442.048V442.188L269.93 442.328C270.93 457.578 259.34 470.938 244.1 472.108C243.39 472.158 242.67 472.188 241.96 472.188C227.61 472.188 215.63 460.948 214.69 446.598L214.67 446.328C213.67 431.078 225.26 417.718 240.5 416.548C241.21 416.498 241.93 416.468 242.64 416.468ZM242.64 414.468C241.88 414.468 241.12 414.498 240.35 414.558C224 415.808 211.61 430.098 212.68 446.458C212.68 446.548 212.69 446.638 212.7 446.728C213.72 462.328 226.6 474.188 241.97 474.188C242.73 474.188 243.49 474.158 244.26 474.098C260.61 472.848 273 458.558 271.93 442.198C271.93 442.108 271.92 442.018 271.91 441.928C270.89 426.328 258.01 414.468 242.64 414.468Z" fill="#121212"></path>
  <path d="M249.03 451.718C249.02 450.018 248.29 448.058 246.85 445.818L243.86 441.168C243.07 439.938 242.62 438.888 242.51 438.018C242.4 437.168 242.61 436.418 243.14 435.818C243.62 435.278 244.22 434.928 244.96 434.798C245.7 434.668 246.46 434.748 247.27 435.018C248.08 435.288 248.86 435.768 249.59 436.448C250.36 437.148 250.92 437.928 251.28 438.808C251.65 439.668 251.79 440.568 251.74 441.498C251.68 442.418 251.39 443.318 250.9 444.168L255.32 446.808C256.21 445.158 256.68 443.518 256.77 441.898C256.86 440.278 256.55 438.708 255.86 437.198C255.5 436.418 255.04 435.658 254.47 434.938L256.93 432.128L253.21 428.868L250.81 431.618C249.85 430.998 248.89 430.528 247.91 430.238C246.29 429.758 244.73 429.728 243.24 430.158C241.75 430.588 240.42 431.458 239.26 432.778C236.79 435.598 236.7 438.858 238.97 442.558L242.87 448.918C243.5 449.948 243.83 450.818 243.87 451.578C243.9 452.328 243.64 453.028 243.08 453.678C242.27 454.608 241.19 455.008 239.85 454.888C238.5 454.768 237.19 454.158 235.91 453.038C234.63 451.918 233.77 450.508 233.46 448.928C233.16 447.348 233.42 445.798 234.25 444.278L230.06 441.658C229.02 443.288 228.42 444.978 228.29 446.718C228.16 448.458 228.46 450.158 229.19 451.818C229.6 452.748 230.16 453.638 230.84 454.478L228.4 457.258L232.12 460.518L234.52 457.768C235.56 458.448 236.64 458.968 237.73 459.278C239.49 459.788 241.16 459.818 242.76 459.388C244.36 458.948 245.76 458.038 246.96 456.668C248.34 455.098 249.02 453.448 249 451.768L249.02 451.728L249.03 451.718Z" fill="#FCC018"></path>
  <path d="M232.14 461.518C231.9 461.518 231.66 461.428 231.48 461.268L227.76 458.008C227.34 457.648 227.3 457.008 227.67 456.598L229.57 454.428C229.06 453.718 228.63 452.978 228.3 452.218C227.51 450.408 227.18 448.538 227.32 446.648C227.46 444.768 228.1 442.908 229.24 441.128C229.54 440.668 230.15 440.528 230.61 440.818L234.8 443.438C235.25 443.718 235.4 444.298 235.15 444.758C234.43 446.088 234.21 447.388 234.47 448.748C234.72 450.078 235.46 451.298 236.59 452.298C237.69 453.268 238.83 453.808 239.96 453.898C240.99 453.978 241.75 453.708 242.36 453.028C242.75 452.578 242.93 452.128 242.91 451.628C242.88 451.058 242.59 450.318 242.05 449.448L238.15 443.088C235.64 438.988 235.77 435.298 238.54 432.128C239.81 430.678 241.31 429.698 242.99 429.208C244.65 428.728 246.4 428.758 248.22 429.288C249.02 429.518 249.82 429.868 250.64 430.338L252.49 428.228C252.66 428.028 252.91 427.908 253.18 427.888C253.44 427.878 253.71 427.958 253.91 428.138L257.63 431.398C258.05 431.758 258.09 432.398 257.72 432.808L255.79 435.018C256.18 435.588 256.53 436.188 256.81 436.808C257.57 438.478 257.9 440.218 257.8 441.978C257.7 443.758 257.18 445.548 256.23 447.308C256.1 447.548 255.88 447.728 255.62 447.798C255.35 447.868 255.07 447.828 254.84 447.688L250.42 445.048C249.95 444.768 249.79 444.168 250.07 443.688C250.48 442.968 250.72 442.218 250.78 441.448C250.83 440.658 250.7 439.928 250.4 439.218C250.09 438.468 249.61 437.818 248.95 437.198C248.32 436.618 247.67 436.218 246.98 435.988C246.32 435.768 245.73 435.708 245.16 435.798C244.66 435.888 244.25 436.118 243.92 436.488C243.59 436.868 243.46 437.328 243.53 437.898C243.62 438.618 244.03 439.538 244.73 440.638L247.72 445.288C249.28 447.708 250.04 449.808 250.06 451.718C250.06 451.778 250.06 451.838 250.04 451.898C250.03 453.788 249.26 455.608 247.76 457.328C246.43 458.848 244.85 459.868 243.07 460.358C241.3 460.848 239.42 460.808 237.5 460.248C236.6 459.988 235.68 459.598 234.77 459.068L232.92 461.178C232.75 461.378 232.5 461.498 232.23 461.518C232.21 461.518 232.19 461.518 232.16 461.518H232.14ZM229.83 457.168L232.04 459.108L233.79 457.118C234.12 456.738 234.67 456.668 235.09 456.938C236.09 457.588 237.07 458.048 238.03 458.328C239.62 458.788 241.09 458.828 242.52 458.428C243.92 458.048 245.17 457.228 246.23 456.008C247.44 454.628 248.04 453.208 248.02 451.778C248.02 451.718 248.02 451.658 248.03 451.608C247.98 450.138 247.3 448.378 246.01 446.378L243.02 441.728C242.14 440.358 241.65 439.198 241.52 438.158C241.37 437.018 241.67 435.988 242.39 435.178C243.02 434.458 243.83 433.998 244.79 433.838C245.7 433.678 246.61 433.768 247.6 434.098C248.56 434.418 249.43 434.958 250.28 435.738C251.15 436.538 251.8 437.448 252.22 438.448C252.64 439.418 252.82 440.478 252.75 441.578C252.7 442.348 252.52 443.088 252.22 443.808L254.92 445.418C255.44 444.238 255.73 443.038 255.8 441.868C255.88 440.428 255.6 439.008 254.98 437.638C254.65 436.918 254.23 436.228 253.72 435.588C253.42 435.208 253.43 434.668 253.75 434.308L255.55 432.248L253.34 430.308L251.59 432.298C251.26 432.668 250.71 432.748 250.29 432.478C249.36 431.878 248.5 431.468 247.65 431.218C246.19 430.788 244.84 430.768 243.54 431.148C242.23 431.528 241.05 432.308 240.04 433.458C237.88 435.928 237.82 438.738 239.85 442.058L243.75 448.418C244.47 449.588 244.85 450.608 244.9 451.548C244.94 452.578 244.59 453.528 243.86 454.358C242.83 455.528 241.47 456.048 239.79 455.908C238.23 455.778 236.71 455.068 235.28 453.818C233.81 452.528 232.85 450.908 232.51 449.138C232.22 447.628 232.38 446.128 232.99 444.668L230.43 443.068C229.78 444.298 229.41 445.548 229.32 446.798C229.2 448.378 229.47 449.898 230.14 451.418C230.51 452.258 231.02 453.068 231.65 453.838C231.96 454.218 231.95 454.758 231.63 455.128L229.85 457.158L229.83 457.168Z" fill="#121212"></path>
  <path d="M110.82 180.798V159.198H117.48C117.7 159.198 118.09 159.198 118.64 159.208C119.19 159.218 119.72 159.258 120.22 159.328C121.89 159.548 123.29 160.158 124.41 161.148C125.53 162.138 126.38 163.408 126.95 164.938C127.52 166.468 127.81 168.158 127.81 169.998C127.81 171.838 127.52 173.518 126.95 175.048C126.38 176.578 125.53 177.838 124.41 178.838C123.29 179.838 121.89 180.438 120.22 180.658C119.72 180.718 119.19 180.758 118.64 180.768C118.09 180.778 117.7 180.788 117.49 180.788H110.83L110.82 180.798ZM113.57 178.248H117.49C117.87 178.248 118.29 178.238 118.77 178.208C119.24 178.188 119.65 178.138 120 178.078C121.18 177.858 122.14 177.368 122.87 176.588C123.6 175.818 124.13 174.858 124.48 173.708C124.82 172.558 124.99 171.318 124.99 169.988C124.99 168.658 124.82 167.368 124.47 166.218C124.13 165.068 123.59 164.118 122.86 163.358C122.13 162.598 121.18 162.108 120.01 161.898C119.66 161.828 119.25 161.778 118.76 161.768C118.28 161.748 117.86 161.738 117.5 161.738H113.58V178.238L113.57 178.248Z" fill="#121212"></path>
  <path d="M138.27 181.247C136.68 181.247 135.29 180.897 134.11 180.187C132.93 179.477 132 178.497 131.34 177.227C130.68 175.967 130.35 174.487 130.35 172.797C130.35 171.107 130.67 169.497 131.32 168.197C131.97 166.907 132.88 165.907 134.04 165.197C135.2 164.487 136.57 164.137 138.14 164.137C139.71 164.137 141.16 164.517 142.3 165.257C143.45 166.007 144.3 167.077 144.88 168.467C145.46 169.857 145.7 171.517 145.62 173.437H142.92V172.477C142.89 170.487 142.48 168.997 141.71 168.017C140.93 167.027 139.77 166.537 138.23 166.537C136.58 166.537 135.32 167.067 134.47 168.127C133.61 169.187 133.18 170.707 133.18 172.687C133.18 174.667 133.61 176.077 134.47 177.127C135.33 178.177 136.55 178.707 138.14 178.707C139.21 178.707 140.14 178.457 140.93 177.967C141.72 177.477 142.34 176.777 142.79 175.857L145.35 176.737C144.72 178.167 143.77 179.277 142.51 180.057C141.25 180.847 139.83 181.237 138.26 181.237L138.27 181.247ZM132.29 173.447V171.297H144.26V173.447H132.29Z" fill="#121212"></path>
  <path d="M155.09 181.227C153.16 181.227 151.58 180.807 150.34 179.957C149.1 179.107 148.35 177.927 148.07 176.407L150.8 175.967C151.02 176.847 151.53 177.547 152.32 178.057C153.11 178.577 154.09 178.827 155.26 178.827C156.43 178.827 157.24 178.597 157.87 178.137C158.5 177.677 158.82 177.057 158.82 176.257C158.82 175.797 158.71 175.427 158.5 175.137C158.29 174.847 157.86 174.587 157.2 174.337C156.55 174.087 155.56 173.787 154.24 173.437C152.81 173.057 151.68 172.667 150.86 172.257C150.04 171.847 149.45 171.367 149.11 170.827C148.76 170.287 148.58 169.637 148.58 168.867C148.58 167.917 148.84 167.087 149.36 166.367C149.88 165.657 150.61 165.097 151.54 164.707C152.47 164.317 153.56 164.127 154.8 164.127C156.04 164.127 157.13 164.327 158.1 164.707C159.07 165.097 159.85 165.647 160.45 166.367C161.05 167.077 161.4 167.917 161.51 168.867L158.78 169.367C158.65 168.497 158.23 167.817 157.53 167.317C156.83 166.817 155.92 166.547 154.81 166.527C153.76 166.487 152.91 166.667 152.25 167.077C151.59 167.487 151.27 168.037 151.27 168.747C151.27 169.137 151.39 169.467 151.64 169.747C151.89 170.027 152.34 170.287 153.01 170.537C153.67 170.787 154.64 171.077 155.91 171.397C157.34 171.757 158.47 172.147 159.29 172.577C160.12 173.007 160.7 173.507 161.05 174.077C161.4 174.657 161.58 175.357 161.58 176.197C161.58 177.757 161 178.987 159.85 179.877C158.7 180.767 157.12 181.217 155.1 181.217L155.09 181.227Z" fill="#121212"></path>
  <path d="M164.87 180.798V159.198H167.58V172.398L174.37 164.598H177.83L170.68 172.698L178.68 180.798H174.94L167.57 172.998V180.798H164.86H164.87Z" fill="#121212"></path>
  <path d="M178.38 166.797V164.587H189.22V166.797H178.38ZM189.23 180.797C188.27 180.987 187.32 181.067 186.39 181.027C185.45 180.987 184.62 180.807 183.89 180.457C183.16 180.117 182.6 179.577 182.22 178.847C181.9 178.207 181.73 177.557 181.7 176.907C181.68 176.257 181.66 175.507 181.66 174.677V160.097H184.33V174.557C184.33 175.217 184.33 175.787 184.35 176.257C184.37 176.727 184.47 177.137 184.66 177.467C185.02 178.107 185.59 178.487 186.38 178.587C187.17 178.697 188.11 178.667 189.22 178.497V180.787L189.23 180.797Z" fill="#121212"></path>
  <path d="M198.75 181.247C197.14 181.247 195.75 180.877 194.59 180.157C193.42 179.427 192.53 178.417 191.9 177.127C191.27 175.837 190.96 174.357 190.96 172.687C190.96 171.017 191.28 169.497 191.92 168.217C192.56 166.937 193.46 165.937 194.63 165.227C195.8 164.517 197.17 164.157 198.75 164.157C200.33 164.157 201.76 164.517 202.93 165.247C204.1 165.977 205 166.977 205.62 168.257C206.24 169.547 206.56 171.017 206.56 172.687C206.56 174.357 206.24 175.867 205.61 177.147C204.98 178.427 204.08 179.437 202.91 180.157C201.74 180.887 200.35 181.247 198.74 181.247H198.75ZM198.75 178.707C200.43 178.707 201.68 178.147 202.5 177.027C203.32 175.907 203.73 174.457 203.73 172.677C203.73 170.897 203.31 169.387 202.48 168.307C201.65 167.227 200.4 166.677 198.74 166.677C197.61 166.677 196.68 166.927 195.95 167.447C195.22 167.957 194.67 168.657 194.32 169.557C193.96 170.457 193.78 171.497 193.78 172.677C193.78 174.497 194.2 175.957 195.04 177.057C195.88 178.157 197.12 178.707 198.75 178.707Z" fill="#121212"></path>
  <path d="M209.85 187.997V164.597H212.23V176.517H212.53V187.997H209.85ZM217.31 181.247C215.79 181.247 214.51 180.867 213.47 180.117C212.43 179.367 211.64 178.337 211.11 177.037C210.57 175.747 210.31 174.287 210.31 172.677C210.31 171.067 210.58 169.587 211.11 168.297C211.64 167.007 212.43 165.997 213.48 165.257C214.53 164.517 215.81 164.147 217.33 164.147C218.85 164.147 220.12 164.517 221.21 165.267C222.3 166.017 223.13 167.027 223.71 168.317C224.29 169.607 224.58 171.067 224.58 172.687C224.58 174.307 224.29 175.767 223.71 177.057C223.13 178.347 222.3 179.367 221.21 180.127C220.12 180.887 218.83 181.257 217.32 181.257L217.31 181.247ZM216.98 178.797C218.05 178.797 218.94 178.527 219.64 177.987C220.34 177.447 220.86 176.717 221.22 175.787C221.57 174.867 221.74 173.827 221.74 172.677C221.74 171.527 221.57 170.507 221.22 169.587C220.88 168.667 220.34 167.937 219.63 167.397C218.92 166.857 218.01 166.587 216.91 166.587C215.81 166.587 214.99 166.847 214.3 167.357C213.61 167.877 213.09 168.587 212.76 169.507C212.42 170.427 212.25 171.477 212.25 172.677C212.25 173.877 212.42 174.907 212.75 175.837C213.08 176.757 213.6 177.487 214.3 178.007C215 178.527 215.89 178.797 216.98 178.797Z" fill="#121212"></path>
  <path d="M94.53 217.248C93.02 217.248 91.73 216.868 90.65 216.118C89.57 215.368 88.74 214.338 88.15 213.048C87.56 211.758 87.27 210.298 87.27 208.678C87.27 207.058 87.56 205.598 88.15 204.308C88.73 203.018 89.57 201.998 90.65 201.258C91.73 200.518 93.02 200.138 94.52 200.138C96.02 200.138 97.33 200.508 98.37 201.248C99.41 201.988 100.2 202.998 100.73 204.288C101.26 205.578 101.53 207.038 101.53 208.668C101.53 210.298 101.26 211.728 100.73 213.028C100.19 214.328 99.41 215.348 98.37 216.108C97.33 216.868 96.05 217.238 94.53 217.238V217.248ZM94.86 214.798C95.95 214.798 96.85 214.538 97.54 214.008C98.24 213.478 98.76 212.758 99.09 211.838C99.42 210.908 99.59 209.858 99.59 208.678C99.59 207.498 99.42 206.418 99.09 205.508C98.76 204.598 98.24 203.878 97.55 203.358C96.86 202.848 95.98 202.588 94.93 202.588C93.88 202.588 92.92 202.858 92.21 203.398C91.5 203.938 90.96 204.668 90.62 205.588C90.27 206.508 90.1 207.538 90.1 208.678C90.1 209.818 90.27 210.868 90.62 211.788C90.97 212.718 91.5 213.448 92.2 213.988C92.9 214.528 93.79 214.798 94.85 214.798H94.86ZM99.6 216.798V204.878H99.3V195.208H101.98V216.808H99.6V216.798Z" fill="#121212"></path>
  <path d="M113.2 217.247C111.61 217.247 110.22 216.897 109.04 216.187C107.86 215.477 106.93 214.497 106.27 213.227C105.61 211.967 105.28 210.487 105.28 208.797C105.28 207.107 105.6 205.497 106.25 204.197C106.9 202.907 107.81 201.907 108.97 201.197C110.13 200.487 111.5 200.137 113.07 200.137C114.64 200.137 116.09 200.517 117.23 201.257C118.38 202.007 119.23 203.077 119.81 204.467C120.39 205.857 120.63 207.517 120.55 209.437H117.85V208.477C117.82 206.487 117.41 204.997 116.64 204.017C115.86 203.027 114.7 202.537 113.16 202.537C111.51 202.537 110.25 203.067 109.4 204.127C108.54 205.187 108.11 206.707 108.11 208.687C108.11 210.667 108.54 212.077 109.4 213.127C110.26 214.177 111.48 214.707 113.07 214.707C114.14 214.707 115.07 214.457 115.86 213.967C116.65 213.477 117.27 212.777 117.72 211.857L120.28 212.737C119.65 214.167 118.7 215.277 117.44 216.057C116.18 216.847 114.76 217.237 113.19 217.237L113.2 217.247ZM107.22 209.447V207.297H119.19V209.447H107.22Z" fill="#121212"></path>
  <path d="M127.68 216.797L121.8 200.597H124.5L129.04 213.387L133.57 200.597H136.28L130.4 216.797H127.67H127.68Z" fill="#121212"></path>
  <path d="M139.29 197.728V194.968H141.96V197.728H139.29ZM139.29 216.798V200.598H141.96V216.798H139.29Z" fill="#121212"></path>
  <path d="M153.28 217.247C151.64 217.247 150.25 216.877 149.1 216.147C147.96 215.407 147.08 214.397 146.48 213.107C145.88 211.817 145.57 210.347 145.55 208.697C145.57 207.007 145.89 205.517 146.5 204.237C147.11 202.957 148 201.947 149.15 201.227C150.3 200.507 151.69 200.147 153.31 200.147C155.02 200.147 156.49 200.567 157.73 201.407C158.97 202.247 159.79 203.397 160.21 204.857L157.57 205.657C157.23 204.717 156.68 203.987 155.91 203.467C155.15 202.947 154.27 202.687 153.28 202.687C152.17 202.687 151.26 202.947 150.53 203.457C149.81 203.977 149.28 204.687 148.93 205.587C148.58 206.497 148.4 207.527 148.39 208.697C148.41 210.497 148.83 211.947 149.64 213.057C150.46 214.157 151.67 214.717 153.28 214.717C154.34 214.717 155.22 214.477 155.92 213.987C156.62 213.497 157.15 212.797 157.51 211.877L160.21 212.587C159.65 214.097 158.77 215.257 157.59 216.047C156.4 216.847 154.97 217.247 153.28 217.247Z" fill="#121212"></path>
  <path d="M169.86 217.247C168.27 217.247 166.88 216.897 165.7 216.187C164.52 215.477 163.59 214.497 162.93 213.227C162.27 211.967 161.94 210.487 161.94 208.797C161.94 207.107 162.26 205.497 162.91 204.197C163.56 202.907 164.47 201.907 165.63 201.197C166.79 200.487 168.16 200.137 169.73 200.137C171.3 200.137 172.75 200.517 173.89 201.257C175.04 202.007 175.89 203.077 176.47 204.467C177.05 205.857 177.29 207.517 177.21 209.437H174.51V208.477C174.48 206.487 174.07 204.997 173.3 204.017C172.52 203.027 171.36 202.537 169.82 202.537C168.17 202.537 166.91 203.067 166.06 204.127C165.2 205.187 164.77 206.707 164.77 208.687C164.77 210.667 165.2 212.077 166.06 213.127C166.92 214.177 168.14 214.707 169.73 214.707C170.8 214.707 171.73 214.457 172.52 213.967C173.31 213.477 173.93 212.777 174.38 211.857L176.94 212.737C176.31 214.167 175.36 215.277 174.1 216.057C172.84 216.847 171.42 217.237 169.85 217.237L169.86 217.247ZM163.87 209.447V207.297H175.84V209.447H163.87Z" fill="#121212"></path>
  <path d="M186.67 217.227C184.74 217.227 183.16 216.807 181.92 215.957C180.68 215.107 179.93 213.927 179.65 212.407L182.38 211.967C182.6 212.847 183.11 213.547 183.9 214.057C184.69 214.577 185.67 214.827 186.84 214.827C188.01 214.827 188.82 214.597 189.45 214.137C190.08 213.677 190.4 213.057 190.4 212.257C190.4 211.797 190.29 211.427 190.08 211.137C189.87 210.847 189.44 210.587 188.78 210.337C188.13 210.087 187.14 209.787 185.82 209.437C184.39 209.057 183.26 208.667 182.44 208.257C181.62 207.847 181.03 207.367 180.69 206.827C180.34 206.287 180.16 205.637 180.16 204.867C180.16 203.917 180.42 203.087 180.94 202.367C181.46 201.657 182.19 201.097 183.12 200.707C184.05 200.317 185.14 200.127 186.38 200.127C187.62 200.127 188.71 200.327 189.68 200.707C190.65 201.097 191.43 201.647 192.03 202.367C192.63 203.077 192.98 203.917 193.09 204.867L190.36 205.367C190.23 204.497 189.81 203.817 189.11 203.317C188.41 202.817 187.5 202.547 186.39 202.527C185.34 202.487 184.49 202.667 183.83 203.077C183.17 203.487 182.85 204.037 182.85 204.747C182.85 205.137 182.97 205.467 183.22 205.747C183.47 206.027 183.92 206.287 184.59 206.537C185.25 206.787 186.22 207.077 187.49 207.397C188.92 207.757 190.05 208.147 190.87 208.577C191.7 209.007 192.28 209.507 192.63 210.077C192.98 210.657 193.16 211.357 193.16 212.197C193.16 213.757 192.58 214.987 191.43 215.877C190.28 216.767 188.7 217.217 186.68 217.217L186.67 217.227Z" fill="#121212"></path>
  <path d="M208.83 217.247C207.32 217.247 206.03 216.867 204.95 216.117C203.87 215.367 203.04 214.337 202.45 213.047C201.86 211.757 201.57 210.297 201.57 208.677C201.57 207.057 201.86 205.597 202.45 204.307C203.03 203.017 203.87 201.997 204.95 201.257C206.03 200.517 207.32 200.137 208.82 200.137C210.32 200.137 211.63 200.507 212.67 201.247C213.71 201.987 214.5 202.997 215.03 204.287C215.56 205.577 215.83 207.037 215.83 208.667C215.83 210.297 215.56 211.727 215.03 213.027C214.49 214.327 213.71 215.347 212.67 216.107C211.63 216.867 210.35 217.237 208.83 217.237V217.247ZM209.02 224.447C208.17 224.447 207.34 224.317 206.53 224.057C205.72 223.797 204.98 223.407 204.3 222.877C203.63 222.357 203.06 221.687 202.61 220.887L205.06 219.597C205.46 220.387 206.03 220.967 206.76 221.327C207.5 221.687 208.25 221.867 209.03 221.867C210.06 221.867 210.91 221.677 211.6 221.307C212.28 220.927 212.78 220.377 213.11 219.637C213.44 218.897 213.59 217.977 213.58 216.877V212.457H213.9V200.607H216.27V216.917C216.27 217.357 216.26 217.777 216.23 218.187C216.21 218.597 216.15 219.007 216.07 219.397C215.86 220.547 215.45 221.497 214.82 222.237C214.19 222.977 213.4 223.537 212.42 223.907C211.44 224.277 210.31 224.457 209.02 224.457V224.447ZM209.16 214.797C210.25 214.797 211.15 214.537 211.84 214.007C212.54 213.477 213.06 212.757 213.39 211.837C213.72 210.907 213.89 209.857 213.89 208.677C213.89 207.497 213.72 206.417 213.39 205.507C213.06 204.597 212.54 203.877 211.85 203.357C211.16 202.847 210.28 202.587 209.23 202.587C208.18 202.587 207.22 202.857 206.51 203.397C205.8 203.937 205.26 204.667 204.92 205.587C204.57 206.507 204.4 207.537 204.4 208.677C204.4 209.817 204.57 210.867 204.92 211.787C205.27 212.717 205.8 213.447 206.5 213.987C207.2 214.527 208.09 214.797 209.15 214.797H209.16Z" fill="#121212"></path>
  <path d="M227.49 217.247C225.9 217.247 224.51 216.897 223.33 216.187C222.15 215.477 221.22 214.497 220.56 213.227C219.9 211.967 219.57 210.487 219.57 208.797C219.57 207.107 219.89 205.497 220.54 204.197C221.19 202.907 222.1 201.907 223.26 201.197C224.42 200.487 225.79 200.137 227.36 200.137C228.93 200.137 230.38 200.517 231.52 201.257C232.67 202.007 233.52 203.077 234.1 204.467C234.68 205.857 234.92 207.517 234.84 209.437H232.14V208.477C232.11 206.487 231.7 204.997 230.93 204.017C230.15 203.027 228.99 202.537 227.45 202.537C225.8 202.537 224.54 203.067 223.69 204.127C222.83 205.187 222.4 206.707 222.4 208.687C222.4 210.667 222.83 212.077 223.69 213.127C224.55 214.177 225.77 214.707 227.36 214.707C228.43 214.707 229.36 214.457 230.15 213.967C230.94 213.477 231.56 212.777 232.01 211.857L234.57 212.737C233.94 214.167 232.99 215.277 231.73 216.057C230.47 216.847 229.05 217.237 227.48 217.237L227.49 217.247ZM221.5 209.447V207.297H233.47V209.447H221.5Z" fill="#121212"></path>
  <path d="M236.38 202.797V200.587H247.22V202.797H236.38ZM247.23 216.797C246.27 216.987 245.32 217.067 244.39 217.027C243.45 216.987 242.62 216.807 241.89 216.457C241.16 216.117 240.6 215.577 240.22 214.847C239.9 214.207 239.73 213.557 239.7 212.907C239.68 212.257 239.66 211.507 239.66 210.677V196.097H242.33V210.557C242.33 211.217 242.33 211.787 242.35 212.257C242.37 212.727 242.47 213.137 242.66 213.467C243.02 214.107 243.59 214.487 244.38 214.587C245.17 214.697 246.11 214.667 247.22 214.497V216.787L247.23 216.797Z" fill="#121212"></path>
  <path d="M199.477 307.147L171.06 307.264C168.32 307.264 166.95 305.855 166.95 303.037V291.881C166.95 287.732 167.381 284.327 168.242 281.665C169.103 279.003 170.316 276.694 171.882 274.737C173.448 272.78 175.327 270.862 177.519 268.983L185.738 261.937C188.322 259.667 190.122 257.788 191.14 256.301C192.158 254.735 192.667 252.935 192.667 250.899V249.373C192.667 246.711 191.805 244.441 190.083 242.562C188.361 240.683 185.308 239.744 180.924 239.744H170.121C168.007 239.744 166.95 238.726 166.95 236.691V233.99C166.95 233.051 167.185 232.307 167.655 231.759C168.124 231.133 168.946 230.741 170.121 230.585C172.078 230.272 174.035 230.076 175.992 229.998C178.027 229.919 179.984 229.88 181.863 229.88C188.596 229.88 193.802 231.485 197.481 234.695C201.16 237.904 203 242.288 203 247.846V250.547C203 253.365 202.569 255.792 201.708 257.828C200.847 259.785 199.634 261.624 198.068 263.347C196.502 265.069 194.624 266.948 192.432 268.983L184.682 275.794C182.803 277.359 181.315 278.847 180.219 280.256C179.202 281.587 178.458 283.113 177.988 284.836C177.597 286.558 177.401 288.867 177.401 291.764V297.87L199.477 297.752C201.826 297.752 203 298.927 203 301.275V303.624C203 305.972 201.826 307.147 199.477 307.147Z" fill="black"></path>
  <path d="M118 246.672C118 245.655 118.352 244.95 119.057 244.559C119.84 244.089 120.662 243.854 121.523 243.854H125.163C126.337 243.854 127.198 244.167 127.746 244.793C128.294 245.42 128.764 246.398 129.155 247.729L138.197 270.745C138.276 270.979 138.471 271.097 138.784 271.097H139.019C139.332 271.097 139.528 270.979 139.606 270.745L148.531 247.729C149 246.398 149.47 245.42 149.94 244.793C150.488 244.167 151.388 243.854 152.641 243.854H156.046C157.064 243.854 157.925 244.089 158.629 244.559C159.334 244.95 159.686 245.655 159.686 246.672C159.686 247.22 159.569 247.768 159.334 248.316L149.118 271.919C148.883 272.545 148.727 273.093 148.648 273.563C148.648 274.033 148.648 274.385 148.648 274.62C148.648 274.854 148.648 275.207 148.648 275.676C148.727 276.068 148.883 276.616 149.118 277.32L159.334 302.684C159.491 302.919 159.569 303.193 159.569 303.506C159.569 303.82 159.569 304.094 159.569 304.328C159.569 305.268 159.217 305.972 158.512 306.442C157.886 306.912 157.064 307.147 156.046 307.147H152.641C151.388 307.147 150.488 306.834 149.94 306.207C149.392 305.581 148.922 304.602 148.531 303.272L139.724 279.082C139.646 278.925 139.567 278.769 139.489 278.612C139.411 278.456 139.254 278.377 139.019 278.377H138.784C138.55 278.377 138.393 278.456 138.315 278.612C138.236 278.769 138.158 278.925 138.08 279.082L129.155 303.272C128.764 304.602 128.294 305.581 127.746 306.207C127.198 306.834 126.337 307.147 125.163 307.147H121.523C120.662 307.147 119.879 306.912 119.174 306.442C118.47 305.972 118.117 305.268 118.117 304.328C118.117 304.094 118.117 303.859 118.117 303.624C118.117 303.311 118.196 302.998 118.352 302.684L128.568 277.32C128.803 276.616 128.921 276.068 128.921 275.676C128.999 275.207 129.038 274.854 129.038 274.62C129.038 274.385 129.038 274.033 129.038 273.563C129.038 273.093 128.881 272.545 128.568 271.919L118.352 248.316C118.117 247.768 118 247.22 118 246.672Z" fill="black"></path>
  <path d="M87.5901 348.467V332.267H89.9701V336.597H90.2701V348.467H87.5901ZM97.3001 348.467V338.207C97.3101 336.967 96.9901 335.997 96.3501 335.287C95.7101 334.577 94.8601 334.227 93.8001 334.227C92.7401 334.227 91.9001 334.587 91.2501 335.307C90.6001 336.027 90.2701 336.987 90.2701 338.177L88.8601 337.337C88.8601 336.287 89.1101 335.347 89.6101 334.517C90.1101 333.687 90.7901 333.037 91.6501 332.557C92.5101 332.077 93.4801 331.847 94.5701 331.847C95.6601 331.847 96.6101 332.077 97.4201 332.537C98.2301 332.997 98.8501 333.657 99.3001 334.507C99.7401 335.357 99.9601 336.377 99.9601 337.557V348.467H97.2901H97.3001ZM106.97 348.467L106.99 338.097C106.99 336.887 106.67 335.937 106.02 335.257C105.37 334.567 104.54 334.227 103.51 334.227C102.91 334.227 102.34 334.367 101.8 334.637C101.26 334.907 100.82 335.347 100.48 335.927C100.14 336.507 99.9701 337.257 99.9701 338.167L98.5601 337.597C98.5401 336.447 98.7801 335.437 99.2701 334.577C99.7701 333.717 100.44 333.037 101.3 332.557C102.16 332.077 103.13 331.837 104.21 331.837C105.9 331.837 107.23 332.347 108.2 333.377C109.17 334.397 109.66 335.777 109.66 337.507L109.64 348.457H106.97V348.467Z" fill="#121212"></path>
  <path d="M120.31 348.917C118.7 348.917 117.31 348.547 116.15 347.827C114.98 347.097 114.09 346.087 113.46 344.797C112.83 343.507 112.52 342.027 112.52 340.357C112.52 338.687 112.84 337.167 113.48 335.887C114.12 334.607 115.02 333.607 116.19 332.897C117.36 332.187 118.73 331.827 120.31 331.827C121.89 331.827 123.32 332.187 124.49 332.917C125.66 333.647 126.56 334.647 127.18 335.927C127.8 337.217 128.12 338.687 128.12 340.357C128.12 342.027 127.8 343.537 127.17 344.817C126.54 346.097 125.64 347.107 124.47 347.827C123.3 348.557 121.91 348.917 120.3 348.917H120.31ZM120.31 346.377C121.99 346.377 123.24 345.817 124.06 344.697C124.88 343.577 125.29 342.127 125.29 340.347C125.29 338.567 124.87 337.057 124.04 335.977C123.21 334.897 121.96 334.347 120.3 334.347C119.17 334.347 118.24 334.597 117.51 335.117C116.78 335.627 116.23 336.327 115.88 337.227C115.52 338.127 115.34 339.167 115.34 340.347C115.34 342.167 115.76 343.627 116.6 344.727C117.44 345.827 118.68 346.377 120.31 346.377Z" fill="#121212"></path>
  <path d="M131.42 348.467V332.267H133.81V336.187L133.42 335.677C133.61 335.177 133.86 334.717 134.16 334.297C134.46 333.877 134.81 333.527 135.19 333.257C135.61 332.917 136.08 332.657 136.61 332.477C137.14 332.297 137.68 332.187 138.23 332.157C138.78 332.127 139.29 332.157 139.77 332.267V334.767C139.21 334.617 138.6 334.577 137.93 334.647C137.26 334.717 136.64 334.967 136.07 335.387C135.55 335.757 135.15 336.207 134.86 336.737C134.57 337.267 134.38 337.837 134.27 338.457C134.16 339.077 134.1 339.697 134.1 340.337V348.467H131.41H131.42Z" fill="#121212"></path>
  <path d="M149.35 348.918C147.76 348.918 146.37 348.568 145.19 347.858C144.01 347.148 143.08 346.168 142.42 344.898C141.76 343.638 141.43 342.158 141.43 340.468C141.43 338.778 141.75 337.168 142.4 335.868C143.05 334.578 143.96 333.578 145.12 332.868C146.28 332.158 147.65 331.808 149.22 331.808C150.79 331.808 152.24 332.188 153.38 332.928C154.53 333.678 155.38 334.748 155.96 336.138C156.54 337.528 156.78 339.188 156.7 341.108H154V340.148C153.97 338.158 153.56 336.668 152.79 335.688C152.01 334.698 150.85 334.208 149.31 334.208C147.66 334.208 146.4 334.738 145.55 335.798C144.69 336.858 144.26 338.378 144.26 340.358C144.26 342.338 144.69 343.748 145.55 344.798C146.41 345.848 147.63 346.378 149.22 346.378C150.29 346.378 151.22 346.128 152.01 345.638C152.8 345.148 153.42 344.448 153.87 343.528L156.43 344.408C155.8 345.838 154.85 346.948 153.59 347.728C152.33 348.518 150.91 348.908 149.34 348.908L149.35 348.918ZM143.36 341.118V338.968H155.33V341.118H143.36Z" fill="#121212"></path>
  <path d="M164.24 334.468V332.258H175.08V334.468H164.24ZM175.08 348.468C174.12 348.658 173.17 348.738 172.24 348.698C171.3 348.658 170.47 348.478 169.74 348.128C169.01 347.788 168.45 347.248 168.07 346.518C167.75 345.878 167.58 345.228 167.55 344.578C167.53 343.928 167.51 343.178 167.51 342.348V327.768H170.18V342.228C170.18 342.888 170.18 343.458 170.2 343.928C170.22 344.398 170.32 344.808 170.51 345.138C170.87 345.778 171.44 346.158 172.23 346.258C173.02 346.368 173.96 346.338 175.07 346.168V348.458L175.08 348.468Z" fill="#121212"></path>
  <path d="M178.38 348.467V332.267H180.77V336.187L180.38 335.677C180.57 335.177 180.82 334.717 181.12 334.297C181.42 333.877 181.77 333.527 182.15 333.257C182.57 332.917 183.04 332.657 183.57 332.477C184.1 332.297 184.64 332.187 185.19 332.157C185.74 332.127 186.25 332.157 186.73 332.267V334.767C186.17 334.617 185.56 334.577 184.89 334.647C184.22 334.717 183.6 334.967 183.03 335.387C182.51 335.757 182.11 336.207 181.82 336.737C181.53 337.267 181.34 337.837 181.23 338.457C181.12 339.077 181.06 339.697 181.06 340.337V348.467H178.37H178.38Z" fill="#121212"></path>
  <path d="M193.67 348.917C192.46 348.917 191.45 348.697 190.63 348.247C189.81 347.807 189.2 347.217 188.78 346.487C188.36 345.757 188.16 344.957 188.16 344.087C188.16 343.217 188.32 342.497 188.65 341.877C188.98 341.257 189.43 340.737 190.02 340.317C190.61 339.897 191.31 339.577 192.14 339.337C192.91 339.127 193.77 338.947 194.73 338.787C195.69 338.627 196.65 338.487 197.63 338.357C198.61 338.227 199.52 338.107 200.38 337.977L199.42 338.537C199.45 337.097 199.16 336.037 198.56 335.337C197.95 334.647 196.91 334.297 195.43 334.297C194.45 334.297 193.59 334.517 192.86 334.967C192.12 335.407 191.61 336.137 191.31 337.137L188.77 336.377C189.16 334.957 189.92 333.837 191.04 333.037C192.16 332.227 193.63 331.817 195.46 331.817C196.93 331.817 198.19 332.077 199.25 332.607C200.3 333.127 201.06 333.927 201.52 334.987C201.75 335.487 201.9 336.027 201.96 336.617C202.02 337.197 202.05 337.817 202.05 338.457V348.477H199.68V344.597L200.23 344.957C199.62 346.267 198.77 347.257 197.67 347.927C196.58 348.597 195.24 348.927 193.67 348.927V348.917ZM194.07 346.677C195.03 346.677 195.86 346.507 196.57 346.157C197.28 345.817 197.84 345.357 198.27 344.787C198.7 344.227 198.98 343.607 199.11 342.937C199.26 342.437 199.34 341.877 199.36 341.267C199.38 340.657 199.38 340.177 199.38 339.847L200.31 340.257C199.44 340.377 198.59 340.497 197.75 340.597C196.91 340.707 196.12 340.827 195.37 340.947C194.62 341.067 193.94 341.217 193.34 341.387C192.9 341.527 192.49 341.707 192.1 341.927C191.71 342.147 191.4 342.427 191.17 342.777C190.94 343.127 190.82 343.547 190.82 344.057C190.82 344.497 190.93 344.917 191.16 345.317C191.39 345.717 191.74 346.037 192.21 346.287C192.69 346.537 193.31 346.667 194.08 346.667L194.07 346.677Z" fill="#121212"></path>
  <path d="M204.74 334.467V332.257H214.41V334.467H204.74ZM207.48 348.467V331.387C207.48 330.967 207.5 330.537 207.54 330.107C207.58 329.667 207.67 329.247 207.81 328.827C207.95 328.407 208.18 328.027 208.5 327.677C208.87 327.267 209.27 326.977 209.71 326.797C210.15 326.627 210.6 326.517 211.05 326.477C211.5 326.437 211.94 326.417 212.35 326.417H214.41V328.637H212.5C211.71 328.637 211.12 328.827 210.73 329.217C210.34 329.607 210.15 330.187 210.15 330.967V348.467H207.48ZM214.26 334.467V332.257H223.93V334.467H214.26ZM217.01 348.467V331.387C217.01 330.967 217.03 330.537 217.07 330.107C217.11 329.667 217.2 329.247 217.34 328.827C217.48 328.407 217.71 328.027 218.03 327.677C218.4 327.267 218.8 326.977 219.24 326.797C219.68 326.627 220.13 326.517 220.58 326.477C221.03 326.437 221.47 326.417 221.88 326.417H223.93V328.637H222.03C221.24 328.637 220.65 328.827 220.26 329.217C219.87 329.607 219.68 330.187 219.68 330.967V348.467H217.01Z" fill="#121212"></path>
  <path d="M227.09 329.397V326.637H229.76V329.397H227.09ZM227.09 348.467V332.267H229.76V348.467H227.09Z" fill="#121212"></path>
  <path d="M241.08 348.917C239.44 348.917 238.05 348.547 236.9 347.817C235.76 347.077 234.88 346.067 234.28 344.777C233.68 343.487 233.37 342.017 233.35 340.367C233.37 338.677 233.69 337.187 234.3 335.907C234.91 334.627 235.8 333.617 236.95 332.897C238.1 332.177 239.49 331.817 241.11 331.817C242.82 331.817 244.29 332.237 245.53 333.077C246.77 333.917 247.59 335.067 248.01 336.527L245.37 337.327C245.03 336.387 244.48 335.657 243.71 335.137C242.95 334.617 242.07 334.357 241.08 334.357C239.97 334.357 239.06 334.617 238.33 335.127C237.61 335.647 237.08 336.357 236.73 337.257C236.38 338.167 236.2 339.197 236.19 340.367C236.21 342.167 236.63 343.617 237.44 344.727C238.26 345.827 239.47 346.387 241.08 346.387C242.14 346.387 243.02 346.147 243.72 345.657C244.42 345.167 244.95 344.467 245.31 343.547L248.01 344.257C247.45 345.767 246.57 346.927 245.39 347.717C244.2 348.517 242.77 348.917 241.08 348.917Z" fill="#121212"></path>
</svg>
