<?xml version="1.0" encoding="UTF-8"?>
<svg xmlns="http://www.w3.org/2000/svg" width="272" height="272" viewBox="0 0 272 272" fill="none">
  <path d="M39.2349 120.146L97.5054 53.922C100.475 50.5286 104.504 48.1957 108.958 47.2943C113.412 46.393 118.025 46.9762 122.107 48.938L207.419 90.2947C210.229 91.6733 212.721 93.6351 214.63 96.074C216.592 98.513 217.917 101.376 218.606 104.451L236.634 185.733C237.694 190.505 237.058 195.436 234.778 199.784C232.551 204.079 228.84 207.472 224.333 209.381L132.924 247.238C130.167 248.405 127.144 248.935 124.122 248.776C121.1 248.67 118.184 247.874 115.48 246.496L45.2793 210.229C41.8859 208.48 39.0758 205.828 37.114 202.594C35.1522 199.36 34.0918 195.648 34.0918 191.831V133.825C34.0918 128.788 35.9475 123.963 39.2349 120.146Z" fill="#C1D9FD"></path>
  <path d="M124.971 249.306C124.653 249.306 124.388 249.306 124.07 249.306C120.995 249.2 117.919 248.352 115.215 246.973L45.0679 210.707C41.6215 208.904 38.7053 206.2 36.6905 202.86C34.6757 199.519 33.6152 195.702 33.6152 191.831V133.826C33.6152 128.683 35.471 123.699 38.9174 119.775L97.1349 53.5512C100.21 50.1048 104.346 47.6658 108.906 46.7645C113.413 45.8631 118.184 46.4464 122.373 48.4612L207.685 89.8179C210.548 91.1964 213.093 93.2643 215.108 95.7563C217.069 98.2483 218.501 101.218 219.19 104.346L237.218 185.628C238.278 190.506 237.642 195.596 235.309 200.049C233.029 204.45 229.211 207.95 224.598 209.858L133.189 247.716C130.538 248.776 127.781 249.306 124.971 249.306ZM113.041 47.4538C111.716 47.4538 110.39 47.5598 109.065 47.8249C104.77 48.6732 100.793 51.0062 97.9302 54.2935L39.6597 120.517C36.4254 124.229 34.6226 128.948 34.6226 133.826V191.831C34.6226 195.543 35.63 199.148 37.5918 202.329C39.5006 205.511 42.2577 208.056 45.5451 209.752L115.745 246.019C118.343 247.345 121.26 248.14 124.176 248.246C127.092 248.352 130.061 247.822 132.765 246.708L224.121 208.904C228.522 207.101 232.128 203.761 234.301 199.572C236.475 195.384 237.112 190.506 236.104 185.893L218.077 104.611C217.441 101.642 216.062 98.8315 214.206 96.4456C212.351 94.0596 209.912 92.0978 207.154 90.8253L121.843 49.4686C119.139 48.09 116.064 47.4538 113.041 47.4538Z" fill="#121212"></path>
  <path d="M232.497 89.2343V89.3934L223.483 192.467H76.9316L86.0513 88.7041C86.2104 87.1665 87.3769 86 88.7554 86H229.792C231.383 86 232.603 87.5376 232.497 89.2343Z" fill="#F8F9F9"></path>
  <path d="M223.431 192.944H76.9326C76.7735 192.944 76.6674 192.891 76.5614 192.785C76.4554 192.679 76.4023 192.52 76.4023 192.361L85.522 88.5983C85.6811 86.7955 87.0596 85.417 88.7563 85.417H229.793C230.695 85.417 231.49 85.7881 232.126 86.4774C232.763 87.1667 233.134 88.1741 233.028 89.1815C233.028 89.2345 233.028 89.2345 233.028 89.2876V89.4466L224.014 192.52C223.908 192.785 223.696 192.944 223.431 192.944ZM77.5158 191.884H222.954L231.967 89.2345V89.1815C232.02 88.4392 231.808 87.7499 231.331 87.2197C230.907 86.7955 230.377 86.5304 229.793 86.5304H88.7563C87.6429 86.5304 86.6885 87.4848 86.5825 88.7043L77.5158 191.884Z" fill="#121212"></path>
  <path d="M222.478 191.938H32.449C30.2751 191.938 28.5254 193.687 28.5254 195.861V202.118H226.773V196.232C226.72 193.846 224.811 191.938 222.478 191.938Z" fill="#121212"></path>
  <path d="M147.822 192.468H22.9567C20.9949 192.468 19.4043 194.058 19.4043 196.02V201.587H151.746V196.338C151.693 194.217 149.943 192.468 147.822 192.468Z" fill="#F8F9F9"></path>
  <path d="M151.694 202.118H19.4052C19.0871 202.118 18.875 201.906 18.875 201.587V196.02C18.875 193.74 20.7308 191.938 22.9577 191.938H147.823C150.262 191.938 152.224 193.899 152.224 196.338V201.587C152.224 201.906 152.012 202.118 151.694 202.118ZM19.9354 201.057H151.217V196.338C151.217 194.483 149.732 192.998 147.876 192.998H22.9577C21.261 192.998 19.9354 194.376 19.9354 196.02V201.057Z" fill="#121212"></path>
  <path d="M109.012 198.14H74.3363C72.9047 198.14 71.7383 196.921 71.7383 195.383V192.414H72.7987V195.383C72.7987 196.338 73.488 197.08 74.3363 197.08H109.012C109.861 197.08 110.55 196.338 110.55 195.383V192.414H111.61V195.383C111.61 196.921 110.444 198.14 109.012 198.14Z" fill="#121212"></path>
  <path d="M149.413 184.355C149.36 184.355 149.36 184.355 149.413 184.355C149.095 184.302 148.883 184.09 148.883 183.772L157.79 93.4762C157.843 93.2111 158.056 92.946 158.374 92.999C158.639 93.052 158.904 93.2641 158.851 93.5823L149.943 183.878C149.89 184.143 149.678 184.355 149.413 184.355Z" fill="#121212"></path>
  <path d="M94.0578 93.264C93.1035 93.264 92.2551 94.0063 92.2021 95.0137L84.514 181.969C84.461 182.499 84.673 183.082 84.9912 183.453C85.3623 183.825 85.8395 184.037 86.3697 184.037H145.86L154.714 93.2109H94.0578V93.264Z" fill="#4396F9"></path>
  <path d="M145.861 184.62H86.3705C85.6812 184.62 85.098 184.355 84.6208 183.825C84.1436 183.295 83.9315 182.605 83.9845 181.916L91.6726 95.014C91.7787 93.7415 92.7861 92.7871 94.0586 92.7871H154.715C154.874 92.7871 155.033 92.8401 155.086 92.9462C155.192 93.0522 155.245 93.2113 155.245 93.3703L146.391 184.196C146.391 184.408 146.126 184.62 145.861 184.62ZM94.0586 93.7945C93.3693 93.7945 92.7861 94.3247 92.7331 95.067L85.0449 182.022C84.9919 182.446 85.151 182.818 85.4161 183.136C85.6812 183.401 85.9993 183.56 86.3705 183.56H145.383L154.132 93.7945H94.0586Z" fill="#121212"></path>
  <path d="M224.65 93.9006C224.278 93.5295 223.801 93.3174 223.271 93.3174H154.661L145.807 184.09H215.583C216.537 184.09 217.386 183.348 217.439 182.34L225.127 95.3852C225.233 94.855 225.021 94.2718 224.65 93.9006Z" fill="#1D3BAB"></path>
  <path d="M145.808 184.621C145.648 184.621 145.489 184.568 145.436 184.461C145.383 184.355 145.277 184.196 145.277 184.037L154.132 93.2116C154.132 92.9465 154.397 92.7344 154.662 92.7344H223.272C223.961 92.7344 224.544 92.9995 225.022 93.5297C225.499 94.0599 225.711 94.7492 225.658 95.4385L218.023 182.394C217.917 183.666 216.909 184.621 215.637 184.621H145.808ZM155.139 93.8478L146.391 183.613H215.584C216.273 183.613 216.856 183.083 216.909 182.341L224.597 95.3854C224.65 94.9613 224.491 94.5901 224.226 94.272C223.961 94.0069 223.643 93.8478 223.272 93.8478H155.139Z" fill="#121212"></path>
  <path d="M184.46 143.369C185.892 136.37 182.922 134.143 178.946 133.242C174.969 132.341 173.485 135.151 173.22 136.211C172.477 139.18 174.81 142.786 184.46 143.369Z" fill="#F8F9F9"></path>
  <path d="M184.884 143.899L184.407 143.846C177.408 143.422 174.598 141.46 173.431 139.869C172.583 138.703 172.318 137.377 172.689 135.999C173.166 134.302 175.075 131.757 179.052 132.659C182.392 133.401 186.581 135.363 184.937 143.422L184.884 143.899ZM177.514 133.56C174.651 133.56 173.803 135.999 173.75 136.317C173.484 137.377 173.697 138.385 174.333 139.286C175.34 140.665 177.832 142.361 184.036 142.786C185.255 136.105 182.127 134.461 178.84 133.719C178.362 133.613 177.938 133.56 177.514 133.56Z" fill="#121212"></path>
  <path d="M184.355 143.263C186.105 136.264 190.241 135.575 194.748 136.529C199.254 137.483 199.414 140.612 199.307 141.725C199.201 142.892 196.126 148.353 184.355 143.263Z" fill="#F8F9F9"></path>
  <path d="M192.891 145.914C190.718 145.914 187.854 145.33 184.143 143.74L183.719 143.581L183.825 143.156C185.84 135.15 191.089 135.256 194.853 136.052C200.049 137.112 199.943 141.036 199.837 141.831C199.784 142.52 199.042 143.899 197.398 144.853C196.391 145.436 194.959 145.914 192.891 145.914ZM184.991 142.997C191.513 145.701 195.065 145.065 196.868 143.952C198.353 143.103 198.777 141.937 198.777 141.725C198.883 140.876 198.83 137.96 194.641 137.059C190.877 136.264 186.847 136.423 184.991 142.997Z" fill="#121212"></path>
  <path d="M197.504 155.723C196.973 161.397 188.967 166.062 179.688 165.161C164.842 163.676 163.517 158.056 164.1 152.436C164.63 146.763 170.463 141.461 181.915 142.574C191.141 143.475 198.034 150.05 197.504 155.723Z" fill="#BDBDBD"></path>
  <path d="M168.766 156.836C167.493 156.836 166.804 155.988 166.592 155.511C166.486 155.245 166.645 154.927 166.91 154.821C167.175 154.715 167.493 154.874 167.599 155.139C167.652 155.245 167.97 155.988 169.19 155.723C169.455 155.67 169.773 155.882 169.826 156.147C169.879 156.412 169.667 156.73 169.402 156.783C169.19 156.836 168.978 156.836 168.766 156.836Z" fill="#121212"></path>
  <mask id="mask0_4042_6028" style="mask-type:luminance" maskUnits="userSpaceOnUse" x="163" y="142" width="35" height="24">
    <path d="M197.504 155.723C196.973 161.397 188.967 166.062 179.688 165.161C164.842 163.676 163.517 158.056 164.1 152.436C164.63 146.763 170.463 141.461 181.915 142.574C191.141 143.475 198.034 150.05 197.504 155.723Z" fill="white"></path>
  </mask>
  <g mask="url(#mask0_4042_6028)">
    <path d="M185.148 165.426C186.474 165.267 187.693 164.949 188.807 164.578C193.632 159.594 194.056 149.149 190.026 144.801C188.648 144.006 187.163 143.423 185.52 142.945C191.405 148.247 189.602 159.7 185.148 165.426Z" fill="#121212"></path>
    <path d="M183.983 166.116L184.778 165.108C188.808 159.912 191.035 148.619 185.255 143.37L183.559 141.832L185.732 142.468C187.376 142.945 188.967 143.582 190.345 144.377L190.451 144.483C194.799 149.149 194.11 159.912 189.179 165.002L189.073 165.108L188.967 165.161C187.535 165.586 186.369 165.851 185.202 166.01L183.983 166.116ZM187.323 144.112C189.179 146.604 190.027 150.103 189.762 154.08C189.497 157.898 188.277 161.768 186.369 164.684C187.058 164.525 187.8 164.366 188.596 164.101C192.996 159.435 193.633 149.467 189.815 145.225C188.967 144.801 188.171 144.43 187.323 144.112Z" fill="#121212"></path>
  </g>
  <mask id="mask1_4042_6028" style="mask-type:luminance" maskUnits="userSpaceOnUse" x="163" y="142" width="35" height="24">
    <path d="M197.504 155.723C196.973 161.397 188.967 166.062 179.688 165.161C164.842 163.676 163.517 158.056 164.1 152.436C164.63 146.763 170.463 141.461 181.915 142.574C191.141 143.475 198.034 150.05 197.504 155.723Z" fill="white"></path>
  </mask>
  <g mask="url(#mask1_4042_6028)">
    <path d="M182.392 142.256C182.392 142.203 180.006 142.15 179.052 142.097C182.71 147.134 184.089 160.071 176.666 165.055C177.673 165.214 178.734 165.373 179.847 165.479C180.165 165.532 180.431 165.532 180.696 165.585C187.907 159.064 186.316 145.914 182.392 142.256Z" fill="#121212"></path>
    <path d="M180.855 166.168L180.59 166.115C180.43 166.115 180.324 166.062 180.165 166.062C180.006 166.062 179.847 166.062 179.688 166.009C178.575 165.903 177.461 165.744 176.507 165.585L175.234 165.373L176.348 164.631C179.529 162.457 180.749 158.957 181.173 156.412C182.127 150.898 180.59 145.172 178.575 142.415L177.938 141.566L178.999 141.619C182.392 141.725 182.551 141.725 182.71 141.938C184.831 143.952 186.263 148.353 186.21 152.966C186.21 156.094 185.468 161.927 181.014 166.009L180.855 166.168ZM177.938 164.737C178.575 164.843 179.211 164.896 179.847 165.002C180.006 165.002 180.112 165.055 180.271 165.055C180.324 165.055 180.43 165.055 180.483 165.055C184.513 161.29 185.149 155.829 185.149 152.913C185.202 148.671 183.93 144.589 182.074 142.733C181.703 142.733 180.802 142.68 179.953 142.627C182.074 146.179 182.976 151.8 182.127 156.518C181.65 160.071 180.165 162.828 177.938 164.737Z" fill="#121212"></path>
  </g>
  <mask id="mask2_4042_6028" style="mask-type:luminance" maskUnits="userSpaceOnUse" x="163" y="142" width="35" height="24">
    <path d="M197.504 155.723C196.973 161.397 188.967 166.062 179.688 165.161C164.842 163.676 163.517 158.056 164.1 152.436C164.63 146.763 170.463 141.461 181.915 142.574C191.141 143.475 198.034 150.05 197.504 155.723Z" fill="white"></path>
  </mask>
  <g mask="url(#mask2_4042_6028)">
    <path d="M192.572 163.04C195.541 161.131 197.45 158.533 197.715 155.776C197.98 153.125 196.708 150.262 194.428 147.77C196.761 152.064 195.435 160.124 192.572 163.04Z" fill="#121212"></path>
    <path d="M188.861 166.062L192.202 162.669C194.853 159.965 196.178 152.224 193.951 148.035L192.096 144.482L194.853 147.399C197.345 150.05 198.564 153.019 198.299 155.776C198.034 158.692 196.125 161.396 192.891 163.464L188.861 166.062ZM195.913 150.633C196.496 153.92 195.966 157.844 194.694 160.654C196.125 159.169 197.027 157.473 197.186 155.723C197.398 154.079 196.921 152.33 195.913 150.633Z" fill="#121212"></path>
  </g>
  <path d="M182.075 165.797C181.279 165.797 180.484 165.744 179.689 165.691C172.425 164.948 167.759 163.199 165.426 160.335C163.358 157.79 163.358 154.768 163.623 152.382C163.941 149.201 165.744 146.391 168.66 144.535C172.001 142.414 176.614 141.566 182.022 142.096C191.035 142.997 198.671 149.519 198.087 155.829C197.875 158.056 196.656 160.123 194.535 161.873C191.354 164.365 186.847 165.797 182.075 165.797ZM178.947 142.944C175.076 142.944 171.736 143.793 169.191 145.383C166.539 147.08 164.896 149.625 164.631 152.488C164.419 154.768 164.419 157.419 166.221 159.646C168.395 162.297 172.849 163.941 179.795 164.63C185.15 165.16 190.399 163.835 193.793 161.025C195.701 159.487 196.815 157.631 196.974 155.723C197.451 150.527 191.141 144.058 181.863 143.157C180.855 142.997 179.901 142.944 178.947 142.944Z" fill="#121212"></path>
  <path d="M169.932 150.845C169.773 150.845 169.614 150.792 169.508 150.632C168.501 149.36 167.44 149.89 167.387 149.943C167.122 150.102 166.804 149.996 166.645 149.731C166.486 149.466 166.592 149.148 166.857 148.989C167.493 148.618 169.084 148.406 170.304 149.996C170.463 150.208 170.463 150.579 170.197 150.738C170.197 150.845 170.038 150.845 169.932 150.845Z" fill="#121212"></path>
  <path d="M174.917 152.223C174.758 152.223 174.599 152.17 174.493 152.011C173.485 150.739 172.425 151.269 172.372 151.322C172.107 151.481 171.788 151.375 171.629 151.11C171.47 150.845 171.576 150.527 171.842 150.368C172.478 149.997 174.068 149.784 175.288 151.375C175.447 151.587 175.447 151.958 175.182 152.117C175.129 152.223 175.023 152.223 174.917 152.223Z" fill="#121212"></path>
  <path d="M199.785 130.75H196.073C195.702 130.75 195.543 130.591 195.543 130.167V129.743C195.543 129.637 195.543 129.584 195.596 129.531C195.596 129.478 195.649 129.371 195.702 129.265L198.618 123.751C198.618 123.698 198.671 123.698 198.671 123.645V123.592C198.671 123.539 198.671 123.539 198.618 123.539H196.02C195.702 123.539 195.543 123.38 195.543 123.062V122.744C195.543 122.426 195.702 122.267 195.967 122.267H199.732C200.103 122.267 200.262 122.426 200.262 122.797V123.221C200.262 123.327 200.262 123.38 200.209 123.433C200.209 123.486 200.156 123.592 200.103 123.698L197.24 129.212C197.187 129.265 197.187 129.318 197.187 129.318V129.371C197.187 129.424 197.187 129.425 197.24 129.425H199.838C200.156 129.425 200.315 129.584 200.315 129.902V130.22C200.262 130.591 200.103 130.697 199.785 130.75Z" fill="#F8F9F9"></path>
  <path d="M208.322 125.766H204.292C203.921 125.766 203.709 125.554 203.709 125.183V124.758C203.709 124.652 203.709 124.599 203.762 124.493C203.762 124.44 203.815 124.334 203.868 124.228L206.996 118.237C206.996 118.184 207.049 118.184 207.049 118.131V118.078C207.049 118.025 207.049 118.025 206.996 118.025H204.186C203.868 118.025 203.709 117.866 203.709 117.548V117.229C203.709 116.911 203.868 116.699 204.186 116.699H208.269C208.64 116.699 208.852 116.911 208.852 117.282V117.76C208.852 117.866 208.852 117.919 208.799 118.025C208.799 118.078 208.746 118.184 208.64 118.29L205.512 124.228C205.459 124.281 205.459 124.334 205.459 124.387V124.44C205.459 124.493 205.459 124.493 205.512 124.493H208.322C208.64 124.493 208.852 124.652 208.852 125.024V125.342C208.852 125.607 208.64 125.766 208.322 125.766Z" fill="#F8F9F9"></path>
  <path d="M215.904 120.305H211.556C211.132 120.305 210.92 120.093 210.92 119.669V119.191C210.92 119.085 210.92 118.979 210.973 118.926C210.973 118.82 211.026 118.767 211.079 118.661L214.472 112.192C214.472 112.139 214.525 112.086 214.525 112.086V112.033C214.525 111.98 214.525 111.98 214.472 111.98H211.45C211.079 111.98 210.92 111.821 210.92 111.45V111.079C210.92 110.708 211.079 110.549 211.45 110.549H215.851C216.275 110.549 216.487 110.761 216.487 111.185V111.662C216.487 111.768 216.487 111.874 216.434 111.927C216.434 112.033 216.381 112.139 216.275 112.246L212.935 118.661C212.882 118.714 212.882 118.767 212.882 118.82V118.873C212.882 118.926 212.882 118.926 212.935 118.926H215.957C216.328 118.926 216.487 119.085 216.487 119.509V119.881C216.434 120.093 216.275 120.305 215.904 120.305Z" fill="#F8F9F9"></path>
  <path d="M115.905 142.521C114.473 135.523 117.442 133.296 121.419 132.394C125.395 131.493 126.88 134.303 127.145 135.364C127.887 138.386 125.554 141.938 115.905 142.521Z" fill="#F8F9F9"></path>
  <path d="M115.479 143.104L115.373 142.627C113.73 134.515 117.971 132.606 121.259 131.864C125.288 130.962 127.144 133.56 127.621 135.204C127.993 136.583 127.727 137.908 126.879 139.075C125.713 140.665 122.902 142.627 115.904 143.051L115.479 143.104ZM122.849 132.765C122.425 132.765 122.001 132.818 121.524 132.924C118.29 133.666 115.108 135.31 116.328 141.991C122.584 141.567 125.076 139.87 126.031 138.491C126.667 137.59 126.879 136.583 126.614 135.522C126.561 135.204 125.713 132.765 122.849 132.765Z" fill="#121212"></path>
  <path d="M116.011 142.469C114.261 135.47 110.126 134.781 105.619 135.735C101.112 136.689 100.953 139.818 101.059 140.931C101.165 142.045 104.24 147.559 116.011 142.469Z" fill="#F8F9F9"></path>
  <path d="M107.474 145.12C105.459 145.12 103.974 144.642 102.967 144.059C101.323 143.105 100.581 141.726 100.528 141.037C100.475 140.242 100.316 136.318 105.512 135.258C109.276 134.462 114.526 134.356 116.54 142.362L116.646 142.787L116.222 142.946C112.511 144.536 109.648 145.12 107.474 145.12ZM108.534 135.894C107.633 135.894 106.678 136.053 105.724 136.212C101.535 137.06 101.482 139.976 101.588 140.878C101.588 141.09 102.012 142.256 103.497 143.105C105.353 144.165 108.852 144.854 115.374 142.15C113.995 137.166 111.344 135.894 108.534 135.894Z" fill="#121212"></path>
  <path d="M102.861 154.875C103.391 160.548 111.397 165.214 120.676 164.312C135.522 162.828 136.847 157.208 136.264 151.587C135.734 145.914 129.902 140.612 118.449 141.725C109.223 142.68 102.33 149.254 102.861 154.875Z" fill="#FCC018"></path>
  <path d="M131.598 156.042C131.386 156.042 131.227 156.042 130.962 155.989C130.697 155.936 130.484 155.671 130.537 155.353C130.59 155.087 130.856 154.875 131.174 154.928C132.393 155.14 132.764 154.398 132.764 154.345C132.87 154.08 133.189 153.921 133.454 154.08C133.719 154.186 133.878 154.504 133.772 154.769C133.56 155.194 132.87 156.042 131.598 156.042Z" fill="#121212"></path>
  <mask id="mask3_4042_6028" style="mask-type:luminance" maskUnits="userSpaceOnUse" x="102" y="141" width="35" height="24">
    <path d="M102.861 154.875C103.391 160.548 111.397 165.214 120.676 164.312C135.522 162.828 136.847 157.208 136.264 151.587C135.734 145.914 129.902 140.612 118.449 141.725C109.223 142.68 102.33 149.254 102.861 154.875Z" fill="white"></path>
  </mask>
  <g mask="url(#mask3_4042_6028)">
    <path d="M115.215 164.577C113.889 164.418 112.67 164.1 111.556 163.728C106.732 158.744 106.307 148.299 110.337 143.951C111.716 143.156 113.2 142.573 114.844 142.096C108.958 147.451 110.761 158.903 115.215 164.577Z" fill="#121212"></path>
    <path d="M116.382 165.267L115.109 165.107C113.943 164.948 112.777 164.683 111.345 164.259L111.239 164.206L111.133 164.1C106.202 159.01 105.566 148.3 109.86 143.581L109.966 143.475C111.398 142.679 112.936 142.043 114.579 141.566L116.753 140.93L115.056 142.467C109.277 147.716 111.504 159.063 115.534 164.206L116.382 165.267ZM111.822 163.305C112.617 163.57 113.36 163.729 114.049 163.888C112.14 160.972 110.868 157.101 110.656 153.284C110.391 149.307 111.239 145.808 113.095 143.316C112.246 143.634 111.398 144.005 110.656 144.482C106.785 148.671 107.421 158.639 111.822 163.305Z" fill="#121212"></path>
  </g>
  <mask id="mask4_4042_6028" style="mask-type:luminance" maskUnits="userSpaceOnUse" x="102" y="141" width="35" height="24">
    <path d="M102.861 154.875C103.391 160.548 111.397 165.214 120.676 164.312C135.522 162.828 136.847 157.208 136.264 151.587C135.734 145.914 129.902 140.612 118.449 141.725C109.223 142.68 102.33 149.254 102.861 154.875Z" fill="white"></path>
  </mask>
  <g mask="url(#mask4_4042_6028)">
    <path d="M117.972 141.407C117.972 141.354 120.358 141.301 121.312 141.248C117.654 146.285 116.275 159.222 123.698 164.206C122.691 164.365 121.63 164.524 120.517 164.63C120.199 164.684 119.934 164.684 119.668 164.737C112.457 158.215 114.048 145.119 117.972 141.407Z" fill="#121212"></path>
    <path d="M119.509 165.32L119.35 165.161C114.843 161.078 114.154 155.246 114.154 152.117C114.101 147.505 115.532 143.051 117.653 141.089C117.812 140.877 117.971 140.877 121.365 140.771L122.425 140.718L121.789 141.566C119.774 144.323 118.236 150.05 119.191 155.564C119.615 158.109 120.834 161.661 124.016 163.782L125.129 164.524L123.857 164.737C122.849 164.896 121.789 165.055 120.622 165.161C120.463 165.161 120.304 165.214 120.198 165.214C120.092 165.214 119.933 165.214 119.774 165.267L119.509 165.32ZM118.236 141.937C116.381 143.793 115.161 147.823 115.161 152.117C115.161 155.034 115.797 160.442 119.827 164.259C119.88 164.259 119.986 164.259 120.039 164.259C120.145 164.259 120.304 164.259 120.463 164.206C121.153 164.153 121.789 164.047 122.425 163.941C120.198 162.032 118.767 159.222 118.13 155.776C117.282 151.057 118.236 145.384 120.304 141.884C119.509 141.884 118.555 141.884 118.236 141.937Z" fill="#121212"></path>
  </g>
  <mask id="mask5_4042_6028" style="mask-type:luminance" maskUnits="userSpaceOnUse" x="102" y="141" width="35" height="24">
    <path d="M102.861 154.875C103.391 160.548 111.397 165.214 120.676 164.312C135.522 162.828 136.847 157.208 136.264 151.587C135.734 145.914 129.902 140.612 118.449 141.725C109.223 142.68 102.33 149.254 102.861 154.875Z" fill="white"></path>
  </mask>
  <g mask="url(#mask5_4042_6028)">
    <path d="M107.791 162.191C104.822 160.282 102.913 157.684 102.648 154.927C102.383 152.276 103.655 149.413 105.935 146.921C103.602 151.269 104.928 159.328 107.791 162.191Z" fill="#121212"></path>
    <path d="M111.503 165.214L107.473 162.615C104.292 160.548 102.383 157.844 102.065 154.927C101.8 152.17 103.019 149.201 105.511 146.55L108.268 143.634L106.413 147.186C104.186 151.428 105.511 159.116 108.162 161.82L111.503 165.214ZM104.451 149.784C103.444 151.481 103.019 153.231 103.178 154.874C103.337 156.624 104.186 158.321 105.67 159.805C104.398 156.942 103.868 153.072 104.451 149.784Z" fill="#121212"></path>
  </g>
  <path d="M118.29 164.949C113.518 164.949 109.011 163.518 105.883 160.973C103.762 159.223 102.542 157.155 102.33 154.928C101.747 148.619 109.382 142.097 118.396 141.196C123.804 140.665 128.417 141.514 131.757 143.635C134.726 145.543 136.476 148.301 136.794 151.482C137.059 153.868 137.059 156.89 134.991 159.435C132.658 162.298 127.94 164.048 120.729 164.79C119.88 164.896 119.085 164.949 118.29 164.949ZM103.391 154.822C103.603 156.731 104.663 158.587 106.572 160.124C110.018 162.934 115.214 164.313 120.57 163.73C127.515 163.041 131.969 161.397 134.143 158.746C135.946 156.519 135.946 153.868 135.734 151.588C135.469 148.725 133.825 146.233 131.174 144.483C128.046 142.468 123.645 141.673 118.502 142.203C109.223 143.211 102.913 149.679 103.391 154.822Z" fill="#121212"></path>
  <path d="M130.433 150.05C130.327 150.05 130.221 149.997 130.115 149.944C129.902 149.785 129.849 149.414 130.009 149.202C131.228 147.611 132.819 147.876 133.455 148.194C133.72 148.353 133.826 148.671 133.667 148.937C133.508 149.202 133.19 149.308 132.978 149.149C132.872 149.096 131.811 148.618 130.857 149.838C130.751 149.944 130.592 150.05 130.433 150.05Z" fill="#121212"></path>
  <path d="M125.448 151.429C125.342 151.429 125.236 151.376 125.13 151.323C124.918 151.164 124.865 150.793 125.024 150.581C126.244 148.99 127.834 149.255 128.471 149.573C128.736 149.732 128.842 150.05 128.683 150.315C128.524 150.581 128.205 150.687 127.993 150.528C127.887 150.474 126.827 149.997 125.872 151.217C125.766 151.376 125.607 151.429 125.448 151.429Z" fill="#121212"></path>
</svg>
