<?xml version="1.0" encoding="UTF-8"?>
<svg xmlns="http://www.w3.org/2000/svg" width="56" height="56" viewBox="0 0 56 56" fill="none">
  <g clip-path="url(#clip0_2466_2167)">
    <path d="M53.4889 48.2319L38.7102 33.4531C38.0539 34.3894 37.3277 35.2994 36.4877 36.1394C35.5602 37.0756 34.5539 37.8981 33.5039 38.6156L48.3002 53.4119C49.6564 54.7681 51.8877 54.7681 53.2439 53.4119L53.4889 53.1669C54.8452 51.8106 54.8452 49.5794 53.4889 48.2231V48.2319Z" stroke="#231F20" stroke-width="1.5" stroke-linecap="round" stroke-linejoin="round"></path>
    <path d="M7.41125 36.1385C-0.621247 28.1847 -0.673747 15.226 7.28 7.19348C15.2338 -0.83902 28.1925 -0.891521 36.225 7.06223C36.2688 7.10598 36.3125 7.14973 36.3563 7.19348C44.3888 15.1472 44.4413 28.106 36.4875 36.1385C28.5338 44.171 15.575 44.2235 7.5425 36.2697C7.49875 36.226 7.455 36.1822 7.41125 36.1385Z" stroke="#231F20" stroke-width="1.5" stroke-linecap="round" stroke-linejoin="round"></path>
    <path d="M10.7978 32.7608C4.64654 26.662 4.60279 16.7308 10.7015 10.5795C16.8003 4.42828 26.7315 4.38453 32.8828 10.4833C32.9178 10.5183 32.9528 10.5533 32.979 10.5795C39.1303 16.6783 39.174 26.6095 33.0753 32.7608C26.9765 38.912 17.0453 38.9558 10.894 32.857C10.859 32.822 10.824 32.787 10.7978 32.7608Z" stroke="#231F20" stroke-width="1.5" stroke-linecap="round" stroke-linejoin="round"></path>
    <path d="M21.8835 32.28C16.8697 29.865 12.276 23.6875 13.2385 15.2875C17.1585 15.3837 20.0547 14.3075 21.8835 12.0938C23.6422 14.22 26.381 15.2962 30.0647 15.2962C30.2135 15.2962 30.371 15.2962 30.5285 15.2962C31.491 23.6962 26.8972 29.8738 21.8835 32.2887V32.28Z" fill="#F9C900" stroke="#231F20" stroke-width="1.5" stroke-linecap="round" stroke-linejoin="round"></path>
    <path d="M18.1035 20.8603L21.5598 23.7741L25.5323 18.6641" stroke="#231F20" stroke-width="1.5" stroke-linecap="round" stroke-linejoin="round"></path>
  </g>
  <defs>
    <clipPath id="clip0_2466_2167">
      <rect width="56" height="56" fill="white"></rect>
    </clipPath>
  </defs>
</svg>
