<?xml version="1.0" encoding="UTF-8"?>
<svg xmlns="http://www.w3.org/2000/svg" width="56" height="56" viewBox="0 0 56 56" fill="none">
  <path d="M39.5062 1.70703H16.4938C14.5688 1.70703 12.9062 3.28203 12.9062 5.29453V50.707C12.9062 52.632 14.4813 54.2945 16.4938 54.2945H39.5062C41.4312 54.2945 43.0938 52.7195 43.0938 50.707V5.29453C43.0938 3.28203 41.4312 1.70703 39.5062 1.70703Z" stroke="#231F20" stroke-width="1.5" stroke-miterlimit="10" stroke-linecap="round" stroke-linejoin="round"></path>
  <path d="M31.4564 6.08047C31.4564 6.51797 31.1064 6.86797 30.6689 6.86797H25.3314C24.8939 6.86797 24.5439 6.51797 24.5439 6.08047C24.5439 5.64297 24.8939 5.29297 25.3314 5.29297H30.6689C31.1064 5.29297 31.4564 5.64297 31.4564 6.08047Z" fill="#231F20"></path>
  <path d="M38.3688 23.1469V23.3219C38.3688 24.3719 37.4938 25.2469 36.4438 25.2469H23.3188C22.8813 25.2469 22.5312 24.8969 22.5312 24.4594V21.8344C22.5312 21.3969 22.8813 21.0469 23.3188 21.0469H36.4438C37.4938 21.1344 38.3688 22.0094 38.3688 23.1469Z" stroke="#231F20" stroke-width="1.5" stroke-miterlimit="10" stroke-linecap="round" stroke-linejoin="round"></path>
  <path d="M21.9188 18.9453C19.5563 18.9453 17.6313 20.8703 17.6313 23.2328C17.6313 25.5953 19.5563 27.5203 21.9188 27.5203C24.2813 27.5203 26.2063 25.5953 26.2063 23.2328C26.2063 20.8703 24.2813 18.9453 21.9188 18.9453Z" fill="#F9C900" stroke="#231F20" stroke-width="1.5" stroke-miterlimit="10" stroke-linecap="round" stroke-linejoin="round"></path>
  <path d="M38.3688 37.5844V37.7594C38.3688 38.8094 37.4938 39.6844 36.4438 39.6844H23.3188C22.8813 39.6844 22.5312 39.3344 22.5312 38.8969V36.2719C22.5312 35.8344 22.8813 35.4844 23.3188 35.4844H36.4438C37.4938 35.5719 38.3688 36.5344 38.3688 37.5844Z" stroke="#231F20" stroke-width="1.5" stroke-miterlimit="10" stroke-linecap="round" stroke-linejoin="round"></path>
  <path d="M21.9188 33.3828C19.5563 33.3828 17.6313 35.3078 17.6313 37.6703C17.6313 40.0328 19.5563 41.9578 21.9188 41.9578C24.2813 41.9578 26.2063 40.0328 26.2063 37.6703C26.2063 35.3078 24.2813 33.3828 21.9188 33.3828Z" fill="#F9C900" stroke="#231F20" stroke-width="1.5" stroke-miterlimit="10" stroke-linecap="round" stroke-linejoin="round"></path>
</svg>
