<?xml version="1.0" encoding="UTF-8"?>
<svg xmlns="http://www.w3.org/2000/svg" width="456" height="456" viewBox="0 0 456 456" fill="none">
  <g clip-path="url(#clip0_4075_47803)">
    <path d="M68.0636 363.682L197.702 441.582C199.602 442.459 201.502 443.117 203.548 443.628C203.914 443.701 204.352 443.847 204.717 443.92C205.521 444.067 206.325 444.213 207.129 444.359C207.933 444.505 208.737 444.578 209.54 444.578C218.529 445.236 227.371 442.313 234.24 436.467L433.521 266.417C440.244 260.717 444.483 252.605 445.36 243.836C445.433 243.324 445.433 242.886 445.506 242.374C445.579 241.57 445.579 240.694 445.579 239.817C445.579 239.159 445.579 238.574 445.506 237.917C445.36 235.432 444.921 233.02 444.191 230.682C444.191 230.609 444.117 230.463 444.117 230.39C443.898 229.659 443.606 228.928 443.387 228.197C443.314 227.978 443.241 227.759 443.094 227.54C442.802 226.736 442.437 226.005 442.071 225.274L337.571 48.4281C335.744 44.6281 333.187 41.1935 330.044 38.2704C329.752 37.9781 329.46 37.6858 329.094 37.4666C327.852 36.3704 326.537 35.4204 325.075 34.4704C324.71 34.2512 324.344 34.032 323.979 33.8127C318.133 30.3781 311.41 28.7704 304.687 29.1358L129.156 38.3435C127.767 38.4166 126.306 38.5627 124.917 38.8551C124.26 39.0012 123.529 39.1474 122.871 39.2935C122.506 39.3666 122.214 39.4397 121.848 39.5858C121.19 39.8051 120.533 39.9512 119.875 40.1704C118.925 40.5358 117.902 40.9012 116.952 41.3397C115.052 42.2166 113.225 43.1666 111.544 44.3358C110.96 44.7012 110.448 45.1397 109.864 45.5781C109.352 46.0166 108.767 46.4551 108.256 46.8935C105.625 49.232 103.36 51.9358 101.533 54.932L22.1713 186.032C16.252 195.824 14.4251 207.517 16.9828 218.624L43.6559 334.013C45.8482 343.367 51.0366 351.77 58.4905 357.836C59.1482 358.347 59.8059 358.859 60.4636 359.37C62.8751 360.978 65.3597 362.513 68.0636 363.682Z" fill="#C1D9FD"></path>
    <path d="M212.062 445.397C211.207 445.397 210.345 445.367 209.482 445.302C208.708 445.331 207.838 445.229 206.99 445.075L204.579 444.637C204.367 444.593 204.148 444.534 203.928 444.476C203.746 444.425 203.563 444.374 203.395 444.344C201.247 443.811 199.288 443.124 197.388 442.247L197.315 442.211L67.7204 364.332C64.8411 363.083 62.2323 361.431 60.0473 359.977L58.0304 358.413C50.5181 352.304 45.1615 343.703 42.9327 334.181L16.2596 218.792C13.6361 207.392 15.5069 195.627 21.5358 185.659L100.897 54.5594C102.761 51.5121 105.063 48.7497 107.759 46.3528C108.03 46.119 108.315 45.8924 108.6 45.6659C108.863 45.454 109.133 45.2421 109.382 45.0301C109.593 44.8694 109.754 44.7378 109.922 44.6136C110.31 44.314 110.712 43.9997 111.15 43.7221C112.633 42.6917 114.336 41.7417 116.638 40.6821C117.405 40.324 118.209 40.0244 118.984 39.7321L119.605 39.4982C119.978 39.374 120.321 39.279 120.657 39.184C120.972 39.0963 121.293 39.0086 121.607 38.899C121.98 38.7455 122.316 38.6651 122.718 38.5847C123.025 38.519 123.368 38.4459 123.705 38.3728C124.055 38.2997 124.413 38.2267 124.75 38.1463C126.028 37.8759 127.446 37.7078 129.105 37.6201L304.636 28.4124C311.578 28.0397 318.374 29.6913 324.337 33.1917L325.441 33.8567C327.085 34.9236 328.378 35.8882 329.518 36.8894C329.935 37.1524 330.264 37.4813 330.549 37.7663C333.772 40.7624 336.358 44.2555 338.215 48.1213L442.685 224.909C443.065 225.669 443.438 226.407 443.738 227.218C443.906 227.489 443.993 227.752 444.059 227.964C444.176 228.351 444.3 228.709 444.425 229.06C444.556 229.432 444.688 229.805 444.797 230.185L444.827 230.317C444.849 230.39 444.87 230.456 444.885 230.536C445.616 232.904 446.069 235.374 446.215 237.887C446.288 238.545 446.288 239.174 446.288 239.831C446.288 240.708 446.288 241.622 446.215 242.455C446.178 242.732 446.157 242.952 446.142 243.171C446.12 243.427 446.105 243.682 446.062 243.953C445.163 252.949 440.866 261.141 433.975 266.987L234.694 437.037C228.285 442.488 220.327 445.419 212.047 445.419L212.062 445.397ZM198.038 440.932C199.843 441.765 201.707 442.415 203.717 442.919C203.877 442.949 204.097 443.007 204.316 443.065C204.498 443.117 204.688 443.168 204.857 443.204L207.253 443.643C208.013 443.782 208.781 443.855 209.533 443.855C218.398 444.498 226.984 441.684 233.758 435.919L433.039 265.869C439.645 260.264 443.76 252.422 444.622 243.77C444.658 243.5 444.68 243.273 444.695 243.054C444.717 242.806 444.732 242.55 444.775 242.279C444.841 241.541 444.841 240.672 444.841 239.824C444.841 239.181 444.841 238.626 444.775 238.004C444.629 235.549 444.198 233.174 443.489 230.909L443.453 230.77C443.431 230.697 443.409 230.624 443.394 230.551C443.292 230.214 443.175 229.878 443.058 229.549C442.927 229.169 442.795 228.797 442.678 228.417C442.62 228.241 442.568 228.088 442.481 227.956L442.4 227.803C442.123 227.036 441.779 226.349 441.407 225.611L336.928 48.8082C335.116 45.0447 332.639 41.7051 329.533 38.8113C329.248 38.5263 328.992 38.2705 328.707 38.0951L328.598 38.0147C327.502 37.0428 326.245 36.1147 324.666 35.0844L323.592 34.4413C317.885 31.0871 311.352 29.5086 304.716 29.8667L129.185 39.0744C127.6 39.1547 126.255 39.3228 125.057 39.5713C124.728 39.6444 124.362 39.7247 124.004 39.7978C123.668 39.8709 123.332 39.9367 123.018 40.0097C122.667 40.0828 122.426 40.1413 122.112 40.2655C121.732 40.3971 121.388 40.4921 121.052 40.5797C120.738 40.6674 120.416 40.7551 120.102 40.8647L119.51 41.0913C118.757 41.3763 117.975 41.6686 117.259 42.0047C115.038 43.0278 113.401 43.934 111.961 44.9351C111.552 45.1909 111.201 45.4686 110.828 45.7609C110.66 45.8924 110.485 46.0313 110.302 46.1628C110.076 46.3528 109.798 46.5794 109.52 46.8059C109.25 47.0178 108.98 47.2371 108.731 47.449C106.159 49.7363 103.937 52.389 102.154 55.3121L22.7927 186.405C16.9611 196.051 15.1488 207.429 17.6919 218.456L44.365 333.845C46.5208 343.052 51.7019 351.369 58.9511 357.266L60.9096 358.793C62.9996 360.189 65.5646 361.804 68.3488 363.01L68.4365 363.054L198.038 440.932Z" fill="#121212"></path>
    <path d="M356.031 360.342H107.569C98.8001 360.342 92.3693 356.031 93.7578 350.55C99.8962 326.069 96.6078 335.08 108.519 286.337C109.542 282.172 116.923 279.541 123.427 279.614H340.319C347.481 279.614 354.277 282.464 355.227 286.337C368.454 340.78 365.458 332.354 369.989 350.55C371.231 356.031 364.873 360.342 356.031 360.342Z" fill="#F8F9F9"></path>
    <path d="M356.031 361.073H107.569C101.767 361.073 96.6809 359.173 94.3059 356.118C92.9686 354.401 92.5302 352.413 93.049 350.367C95.709 339.771 96.5932 335.459 97.7186 330.008C99.2094 322.781 101.058 313.785 107.811 286.162C108.936 281.573 116.441 278.883 123.157 278.883C123.252 278.883 123.347 278.883 123.442 278.883H340.327C348.08 278.883 354.942 282.084 355.943 286.162C364.091 319.711 366.05 329.211 367.475 336.146C368.337 340.356 368.966 343.396 370.705 350.367C371.172 352.443 370.697 354.438 369.324 356.162C366.868 359.231 361.906 361.066 356.038 361.066L356.031 361.073ZM123.179 280.345C117.121 280.345 110.149 282.793 109.236 286.513C102.491 314.106 100.642 323.088 99.1582 330.308C98.0328 335.781 97.1413 340.1 94.474 350.725C94.0648 352.34 94.4009 353.846 95.4678 355.219C97.5725 357.931 102.213 359.611 107.577 359.611H356.038C361.38 359.611 366.035 357.945 368.176 355.256C369.28 353.875 369.652 352.348 369.28 350.711C367.541 343.724 366.912 340.67 366.042 336.446C364.617 329.518 362.666 320.033 354.518 286.513C353.685 283.114 347.313 280.345 340.319 280.345H123.427C123.347 280.345 123.259 280.345 123.179 280.345Z" fill="#121212"></path>
    <path d="M370.061 352.011V363.192C370.061 368.015 363.85 371.523 356.03 371.523H107.569C99.6035 371.523 93.5381 367.942 93.5381 363.192V352.011C93.5381 356.834 99.8227 360.342 107.569 360.342H356.03C363.85 360.342 370.061 356.907 370.061 352.011Z" fill="#121212"></path>
    <path d="M356.031 372.254H107.569C99.1507 372.254 92.8076 368.359 92.8076 363.192V352.012C92.8076 351.61 93.1365 351.281 93.5384 351.281C93.9403 351.281 94.2692 351.61 94.2692 352.012C94.2692 356.272 100.108 359.612 107.569 359.612H356.031C363.616 359.612 369.331 356.345 369.331 352.012C369.331 351.61 369.66 351.281 370.061 351.281C370.463 351.281 370.792 351.61 370.792 352.012V363.192C370.792 368.359 364.449 372.254 356.031 372.254ZM94.2692 356.075V363.192C94.2692 367.453 100.108 370.792 107.569 370.792H356.031C363.492 370.792 369.331 367.453 369.331 363.192V356.148C367.007 359.151 362.111 361.073 356.031 361.073H107.569C101.562 361.073 96.6149 359.093 94.2692 356.075Z" fill="#121212"></path>
    <path d="M118.311 351.142C115.096 351.142 110.711 349.688 111.369 346.772L124.157 291.183C124.523 289.458 127.811 288.267 131.319 288.267L336.168 288.157C339.676 288.157 342.964 289.414 343.33 291.073L352.157 346.772C352.815 349.688 348.504 351.142 345.215 351.142H118.311Z" fill="#FCC018"></path>
    <path d="M336.168 288.165C339.676 288.165 342.965 289.422 343.33 291.08L352.158 346.78C352.815 349.695 348.504 351.15 345.215 351.15H118.311C115.096 351.15 110.711 349.695 111.369 346.78L124.158 291.19C124.523 289.465 127.811 288.274 131.319 288.274L336.168 288.165ZM336.168 286.703L131.319 286.813C127.6 286.813 123.325 288.084 122.725 290.883L109.944 346.451C109.674 347.664 109.944 348.818 110.726 349.79C112.283 351.734 115.659 352.604 118.311 352.604H345.215C347.685 352.604 351.149 351.873 352.801 349.805C353.575 348.84 353.846 347.693 353.59 346.502L344.77 290.847C344.77 290.847 344.762 290.788 344.755 290.759C344.163 288.092 339.99 286.696 336.168 286.696V286.703Z" fill="#121212"></path>
    <path d="M292.125 319.39C292.125 331.645 265.086 341.627 231.69 341.627C198.294 341.627 171.255 331.645 171.255 319.39C171.255 307.135 198.294 297.153 231.69 297.153C265.086 297.153 292.125 307.311 292.125 319.39Z" fill="#4B43EA"></path>
    <path d="M231.69 342.358C215.467 342.358 200.194 340.027 188.699 335.788C176.978 331.47 170.525 325.645 170.525 319.39C170.525 313.135 176.978 307.303 188.699 302.991C200.194 298.753 215.467 296.422 231.69 296.422C265.415 296.422 292.856 306.726 292.856 319.39C292.856 325.653 286.403 331.477 274.681 335.788C263.186 340.027 247.913 342.358 231.69 342.358ZM231.69 297.883C215.635 297.883 200.545 300.185 189.203 304.358C178.264 308.385 171.986 313.865 171.986 319.39C171.986 324.915 178.264 330.388 189.203 334.422C200.545 338.602 215.635 340.896 231.69 340.896C247.745 340.896 262.836 338.595 274.177 334.422C285.117 330.395 291.394 324.915 291.394 319.39C291.394 307.734 264.056 297.883 231.69 297.883Z" fill="#121212"></path>
    <path d="M322.313 315.415L323.84 309.802L328.598 307.537L323.665 305.615L321.743 300.076L320.143 305.761L315.385 308.026L320.245 309.941L322.32 315.415H322.313Z" fill="#F8F9F9"></path>
    <path d="M321.743 300.076L323.665 305.615L328.597 307.537L323.84 309.802L322.313 315.415L320.237 309.941L315.378 308.027L320.135 305.761L321.735 300.076M321.735 298.614C321.735 298.614 321.706 298.614 321.691 298.614C321.056 298.636 320.5 299.067 320.325 299.681L318.9 304.723L314.742 306.704C314.216 306.952 313.887 307.493 313.909 308.07C313.931 308.648 314.289 309.167 314.837 309.378L319.097 311.059L320.939 315.926C321.158 316.496 321.699 316.869 322.305 316.869C322.327 316.869 322.349 316.869 322.378 316.869C323.014 316.84 323.555 316.401 323.716 315.795L325.068 310.825L329.218 308.852C329.745 308.604 330.073 308.063 330.051 307.478C330.03 306.894 329.664 306.382 329.123 306.17L324.819 304.497L323.116 299.593C322.912 299.002 322.356 298.614 321.735 298.614Z" fill="#121212"></path>
    <path d="M150.363 309.882L151.327 306.323L154.338 304.891L151.218 303.678L149.997 300.17L148.981 303.773L145.971 305.205L149.047 306.418L150.363 309.89V309.882Z" fill="#F8F9F9"></path>
    <path d="M149.997 300.164L151.218 303.671L154.338 304.884L151.327 306.317L150.363 309.876L149.047 306.404L145.971 305.191L148.982 303.759L149.997 300.156M149.997 298.695C149.997 298.695 149.968 298.695 149.954 298.695C149.318 298.717 148.762 299.148 148.587 299.762L147.754 302.721L145.342 303.869C144.816 304.117 144.487 304.658 144.509 305.235C144.531 305.82 144.889 306.331 145.437 306.543L147.915 307.523L148.996 310.387C149.215 310.957 149.756 311.33 150.363 311.33C150.385 311.33 150.407 311.33 150.436 311.33C151.072 311.301 151.612 310.862 151.773 310.256L152.562 307.347L154.967 306.2C155.493 305.951 155.822 305.411 155.8 304.826C155.778 304.241 155.412 303.73 154.872 303.518L152.38 302.546L151.386 299.674C151.181 299.082 150.626 298.695 150.005 298.695H149.997Z" fill="#121212"></path>
    <path d="M139.343 325.222L139.934 323.037L141.783 322.153L139.861 321.407L139.116 319.251L138.495 321.466L136.646 322.35L138.539 323.095L139.343 325.229V325.222Z" fill="#BED983"></path>
    <path d="M139.123 319.252L139.869 321.407L141.791 322.153L139.942 323.037L139.35 325.222L138.546 323.088L136.653 322.343L138.502 321.459L139.123 319.244M139.123 317.783C139.123 317.783 139.094 317.783 139.08 317.783C138.444 317.805 137.888 318.236 137.713 318.85L137.267 320.428L136.018 321.027C135.492 321.276 135.163 321.817 135.185 322.394C135.207 322.971 135.565 323.49 136.113 323.702L137.406 324.213L137.983 325.741C138.203 326.311 138.743 326.684 139.35 326.684C139.372 326.684 139.394 326.684 139.423 326.684C140.059 326.654 140.6 326.216 140.76 325.609L141.177 324.067L142.419 323.475C142.945 323.227 143.274 322.686 143.252 322.102C143.23 321.517 142.865 321.005 142.324 320.794L141.031 320.289L140.505 318.769C140.3 318.177 139.745 317.79 139.123 317.79V317.783Z" fill="#121212"></path>
    <path d="M306.535 341.335L307.5 337.777L310.511 336.344L307.391 335.131L306.17 331.624L305.154 335.226L302.144 336.659L305.22 337.872L306.535 341.343V341.335Z" fill="#FCC018"></path>
    <path d="M306.17 331.623L307.391 335.131L310.511 336.344L307.5 337.776L306.536 341.335L305.22 337.864L302.144 336.651L305.154 335.219L306.17 331.616M306.17 330.154C306.17 330.154 306.141 330.154 306.126 330.154C305.491 330.176 304.935 330.607 304.76 331.221L303.927 334.181L301.515 335.328C300.989 335.577 300.66 336.117 300.682 336.695C300.704 337.279 301.062 337.791 301.61 338.003L304.088 338.982L305.169 341.847C305.388 342.417 305.929 342.789 306.536 342.789C306.558 342.789 306.579 342.789 306.609 342.789C307.244 342.76 307.785 342.322 307.946 341.715L308.735 338.807L311.139 337.659C311.666 337.411 311.994 336.87 311.973 336.285C311.951 335.701 311.585 335.189 311.044 334.977L308.553 334.005L307.559 331.134C307.354 330.542 306.799 330.154 306.178 330.154H306.17Z" fill="#121212"></path>
    <path d="M163.707 341.708L164.299 339.516L166.155 338.632L164.226 337.879L163.473 335.716L162.844 337.937L160.988 338.822L162.888 339.567L163.699 341.708H163.707Z" fill="#FCC018"></path>
    <path d="M163.48 335.715L164.233 337.879L166.162 338.631L164.306 339.515L163.714 341.708L162.903 339.567L161.003 338.821L162.859 337.937L163.487 335.715M163.487 334.254C163.487 334.254 163.458 334.254 163.443 334.254C162.808 334.276 162.252 334.707 162.077 335.321L161.631 336.907L160.374 337.506C159.848 337.754 159.519 338.295 159.541 338.872C159.563 339.457 159.921 339.969 160.469 340.18L161.763 340.692L162.34 342.227C162.559 342.797 163.1 343.169 163.706 343.169C163.728 343.169 163.75 343.169 163.78 343.169C164.415 343.14 164.956 342.702 165.117 342.095L165.533 340.546L166.783 339.947C167.309 339.698 167.638 339.157 167.616 338.573C167.594 337.988 167.229 337.477 166.688 337.265L165.387 336.76L164.861 335.233C164.656 334.641 164.101 334.254 163.48 334.254H163.487Z" fill="#121212"></path>
    <path d="M329.957 336.6L330.549 334.407L332.405 333.523L330.476 332.77L329.723 330.607L329.095 332.829L327.239 333.713L329.139 334.459L329.95 336.6H329.957Z" fill="#BED983"></path>
    <path d="M329.73 330.608L330.483 332.771L332.412 333.523L330.556 334.408L329.964 336.6L329.153 334.459L327.253 333.713L329.109 332.829L329.738 330.608M329.738 329.146C329.738 329.146 329.708 329.146 329.694 329.146C329.058 329.168 328.503 329.599 328.327 330.213L327.882 331.799L326.625 332.398C326.098 332.646 325.77 333.187 325.792 333.764C325.813 334.349 326.172 334.861 326.72 335.073L328.013 335.584L328.59 337.119C328.81 337.689 329.35 338.061 329.957 338.061C329.979 338.061 330.001 338.061 330.03 338.061C330.666 338.032 331.207 337.594 331.367 336.987L331.784 335.438L333.033 334.839C333.56 334.59 333.888 334.049 333.867 333.465C333.845 332.88 333.479 332.369 332.938 332.157L331.638 331.653L331.112 330.125C330.907 329.533 330.352 329.146 329.73 329.146H329.738Z" fill="#121212"></path>
    <path d="M104.858 301.845L109.995 304.22C111.245 304.95 112.297 306.017 112.86 307.347C113.386 308.597 113.262 309.028 112.969 310.351L109.396 326.998C108.899 329.205 107.226 331.002 104.924 331.814L97.7549 333.714L104.865 301.859L104.858 301.845Z" fill="#121212"></path>
    <path d="M267.936 140.169C261.425 136.42 255.718 143.933 253.35 149.202C253.314 149.289 253.27 149.37 253.219 149.45C248.542 156.999 251.896 172.93 240.935 179.185C240.474 179.448 239.941 179.565 239.415 179.536C231.413 179.097 213.143 169.312 205.2 165.995C204.433 165.673 203.841 165.045 203.57 164.248C201.933 159.469 196.153 142.573 194.874 138.817C194.684 138.269 194.67 137.692 194.816 137.129C195.744 133.614 199.58 121.44 199.822 120.365C199.836 120.3 199.865 120.205 199.88 120.146C200.94 116.923 204.14 107.263 203.307 103.317C203.044 94.3134 191.849 86.9838 184.483 101.987C184.475 101.987 184.461 101.987 184.453 101.994C182.824 107.482 167.427 135.083 169.794 140.71C169.378 140.71 174.595 159.118 172.483 157.569C172.483 157.569 168.413 154.412 166.615 153.016C166.045 152.578 165.658 151.942 165.534 151.24C164.525 145.548 162.435 124.224 161.441 122.156C159.242 111.311 143.099 102.337 142.537 119.496C142.537 119.496 142.537 123.734 142.537 123.785C142.405 125.554 140.213 123.12 138.466 122.843C134.6 122.229 130.837 124.158 131.487 129.946L132.357 146.819C132.189 147.74 130.457 145.621 130.084 145.277C130.084 145.292 130.084 145.307 130.084 145.321C123.624 139.789 120.021 143.531 120.036 155.311C120.036 155.311 120.036 155.311 120.029 155.311V182.729C120.292 192.215 162.801 225.194 188.341 254.367C189.269 255.353 190.994 258.232 190.957 259.979C190.701 271.342 189.51 314.531 189.203 325.565C189.16 327.042 190.227 328.32 191.688 328.532C214.444 331.799 239.137 330.988 261.995 327.772C263.479 327.56 264.56 326.252 264.495 324.754C263.786 307.72 268.821 238.611 270.845 214.883C272.197 198.967 273.805 139.38 267.944 140.162L267.936 140.169Z" fill="#F4C8BD"></path>
    <path d="M222.592 331.353C211.726 331.353 201.305 330.659 191.586 329.263C189.759 329 188.421 327.407 188.472 325.55C188.721 316.635 189.971 271.583 190.226 259.964C190.256 258.51 188.677 255.791 187.807 254.87C176.868 242.382 162.771 229.14 150.326 217.462C133.08 201.269 119.459 188.48 119.298 182.758V155.318C119.298 155.281 119.298 155.237 119.305 155.201C119.312 147.966 120.672 143.677 123.339 142.442C125.232 141.565 127.592 142.295 130.354 144.597C130.435 144.634 130.515 144.685 130.581 144.751C130.654 144.824 130.778 144.955 130.939 145.124C131.063 145.255 131.312 145.525 131.567 145.781L130.756 129.989C130.369 126.569 131.516 124.662 132.547 123.675C133.972 122.309 136.171 121.746 138.576 122.126C139.387 122.25 140.198 122.725 140.914 123.135C141.184 123.288 141.55 123.5 141.806 123.617C141.806 123.347 141.806 122.638 141.806 121.885C141.806 120.621 141.806 119.897 141.849 119.481H141.813C142.091 110.989 146.015 109.389 148.331 109.199C153.892 108.731 160.725 115.052 162.15 121.973C162.749 123.478 163.546 129.792 164.671 139.153C165.278 144.159 165.848 148.88 166.242 151.123C166.337 151.649 166.622 152.117 167.054 152.453C168.398 153.498 171.022 155.53 172.249 156.487C172.111 154.295 170.737 148.492 170.028 145.496C169.29 142.39 169.034 141.28 169.027 140.775C167.675 136.676 172.885 125.181 179.309 111.713C181.428 107.27 183.262 103.426 183.744 101.804C183.774 101.701 183.825 101.606 183.898 101.526C188.502 92.267 194.048 92.362 196.233 92.8297C200.516 93.7577 203.855 98.23 204.031 103.243C204.769 106.955 202.416 114.767 200.581 120.336C200.552 120.431 200.53 120.497 200.523 120.54C200.421 120.994 199.785 123.084 198.754 126.452C197.549 130.399 196.043 135.317 195.517 137.326C195.407 137.743 195.422 138.181 195.561 138.59L204.257 164.021C204.462 164.613 204.907 165.088 205.477 165.329C207.575 166.206 210.322 167.5 213.509 168.998C222.029 173.01 233.692 178.498 239.451 178.819C239.853 178.841 240.24 178.754 240.569 178.564C247.153 174.807 248.33 167.434 249.462 160.302C250.142 156.034 250.778 152.007 252.597 149.077C252.627 149.026 252.656 148.975 252.685 148.916C254.483 144.919 257.881 140.169 262.039 138.817C264.092 138.152 266.139 138.364 268.119 139.445C268.448 139.46 268.85 139.577 269.252 139.964C274.616 145.08 272.657 202.109 271.568 214.97C269.412 240.328 264.516 307.932 265.225 324.747C265.306 326.632 263.961 328.254 262.097 328.517C248.6 330.41 235.293 331.367 222.592 331.367V331.353ZM120.759 155.435V182.736C120.898 187.83 135.682 201.707 151.327 216.395C163.794 228.102 177.927 241.366 188.889 253.891C189.876 254.944 191.732 257.991 191.688 260C191.425 271.627 190.175 316.679 189.934 325.594C189.905 326.705 190.701 327.662 191.79 327.816C212.734 330.819 236.974 330.556 261.893 327.056C263.011 326.902 263.815 325.923 263.764 324.79C263.055 307.91 267.951 240.211 270.114 214.832C270.794 206.859 271.451 189.32 271.386 173.762C271.261 146.782 269.149 141.872 268.251 141.009C268.163 140.929 268.082 140.885 268.039 140.892C267.878 140.914 267.717 140.885 267.578 140.805C265.919 139.847 264.209 139.643 262.492 140.198C258.787 141.397 255.608 145.957 254.022 149.501C253.971 149.618 253.913 149.727 253.847 149.837C252.188 152.519 251.567 156.407 250.917 160.521C249.784 167.646 248.505 175.714 241.307 179.82C240.73 180.149 240.065 180.31 239.385 180.266C233.342 179.937 222.007 174.595 212.902 170.313C209.738 168.822 206.997 167.536 204.929 166.667C203.972 166.265 203.227 165.468 202.891 164.482L194.194 139.051C193.961 138.371 193.939 137.64 194.121 136.939C194.655 134.9 196.167 129.975 197.381 126.014C198.228 123.244 199.025 120.635 199.127 120.204C199.149 120.117 199.178 120 199.207 119.919C200.26 116.74 203.402 107.204 202.613 103.47C202.606 103.426 202.598 103.382 202.598 103.338C202.467 98.9462 199.609 95.0366 195.948 94.2401C192.024 93.3924 188.092 96.33 185.162 102.308C185.147 102.337 185.133 102.359 185.118 102.388C184.541 104.193 182.816 107.803 180.661 112.327C176.291 121.49 168.976 136.829 170.488 140.425C170.547 140.564 170.561 140.724 170.525 140.87C170.583 141.389 171.036 143.297 171.475 145.145C173.989 155.764 174.113 157.649 173.221 158.241C173.09 158.329 172.637 158.57 172.067 158.16L172.096 158.124C171.57 157.773 170.218 156.721 166.184 153.593C165.468 153.038 164.986 152.249 164.832 151.364C164.423 149.084 163.853 144.334 163.246 139.314C162.399 132.32 161.346 123.61 160.806 122.477C160.769 122.397 160.747 122.309 160.732 122.221C159.439 116.075 153.293 110.237 148.47 110.646C145.306 110.909 143.464 114.066 143.289 119.517C143.289 119.656 143.289 120.804 143.289 121.87C143.289 123.778 143.289 123.785 143.289 123.829C143.245 124.406 143.026 124.801 142.631 125.013C141.93 125.385 141.133 124.925 140.205 124.392C139.599 124.041 138.912 123.646 138.371 123.559C136.42 123.252 134.673 123.675 133.584 124.72C132.444 125.809 131.984 127.585 132.24 129.858L133.109 146.782C133.109 146.841 133.109 146.892 133.102 146.95C133 147.52 132.598 147.696 132.43 147.74C131.677 147.959 130.939 147.235 129.894 146.103C129.843 146.044 129.792 145.993 129.748 145.949C129.704 145.927 129.667 145.898 129.631 145.869C127.994 144.466 125.692 142.968 123.975 143.757C121.914 144.707 120.781 148.807 120.789 155.303C120.789 155.34 120.789 155.384 120.781 155.42L120.759 155.435Z" fill="#121212"></path>
    <mask id="mask0_4075_47803" style="mask-type:luminance" maskUnits="userSpaceOnUse" x="171" y="261" width="122" height="81">
      <path d="M292.125 261.265H171.256V318.272H171.336C171.285 318.645 171.256 319.018 171.256 319.391C171.256 331.646 198.294 341.628 231.69 341.628C265.087 341.628 292.125 331.646 292.125 319.391C292.125 319.018 292.096 318.638 292.045 318.272H292.125V261.265Z" fill="white"></path>
    </mask>
    <g mask="url(#mask0_4075_47803)">
      <path d="M272.117 276.736L275.902 346.985H183.752V277.13C183.752 273.301 186.858 270.203 190.68 270.203H265.196C268.865 270.203 271.905 273.067 272.117 276.736Z" fill="#656CDB"></path>
      <path d="M276.677 347.722H183.021V277.137C183.021 272.914 186.456 269.479 190.68 269.479H265.196C269.252 269.479 272.614 272.651 272.848 276.699L276.677 347.722ZM184.483 346.261H275.128L271.386 276.779C271.196 273.506 268.478 270.941 265.196 270.941H190.68C187.26 270.941 184.483 273.725 184.483 277.137V346.261Z" fill="#121212"></path>
    </g>
    <path d="M231.69 342.358C209.804 342.358 189.481 337.974 178.644 330.922L179.44 329.694C190.051 336.607 210.074 340.897 231.69 340.897C253.306 340.897 273.936 336.483 284.422 329.373L285.241 330.586C274.52 337.849 254 342.358 231.69 342.358Z" fill="#121212"></path>
    <path d="M201.67 86.1064L196.365 95.3945C191.775 103.426 196.818 116.77 217.045 130.632C217.762 131.122 218.478 131.604 219.194 132.065C244.5 148.529 265.664 146.863 271.466 136.712L276.771 127.424C270.976 137.575 249.806 139.241 224.499 122.776C223.79 122.316 223.067 121.834 222.351 121.344C202.116 107.474 197.081 94.1376 201.67 86.1064Z" fill="#F8F9F9"></path>
    <path d="M254.117 145.489C246.408 145.489 234.292 143.202 218.595 132.986C217.879 132.518 217.148 132.036 216.424 131.539C194.187 116.295 190.986 102.593 195.407 94.8468L200.705 85.566C201.005 85.0398 201.677 84.8571 202.204 85.1568C202.73 85.4564 202.912 86.1287 202.613 86.6548C196.599 97.1779 209.818 111.435 222.965 120.446C223.674 120.935 224.39 121.41 225.091 121.863C240.079 131.612 255.455 135.872 266.241 133.271C270.735 132.182 274.046 129.975 275.807 126.884C276.106 126.358 276.779 126.175 277.305 126.474C277.831 126.774 278.014 127.446 277.714 127.973L272.409 137.261C270.34 140.885 266.548 143.458 261.454 144.693C259.839 145.087 257.369 145.489 254.117 145.489ZM199.017 92.9541L197.315 95.9429C191.3 106.466 204.52 120.723 217.667 129.734C218.375 130.223 219.084 130.698 219.793 131.151C234.781 140.9 250.164 145.168 260.943 142.559C265.437 141.47 268.747 139.263 270.509 136.172L272.116 133.358C270.545 134.235 268.755 134.922 266.76 135.404C261.308 136.727 246.218 138.225 223.9 123.705C223.184 123.237 222.453 122.755 221.73 122.258C205.426 111.084 199.354 100.737 199.017 92.9541Z" fill="#121212"></path>
    <g opacity="0.1">
      <path d="M201.67 86.1064L196.365 95.3945C191.775 103.426 196.818 116.77 217.045 130.632C217.762 131.122 218.478 131.604 219.194 132.065C244.5 148.529 265.664 146.863 271.466 136.712L276.771 127.424C270.976 137.575 249.806 139.241 224.499 122.776C223.79 122.316 223.067 121.834 222.351 121.344C202.116 107.474 197.081 94.1376 201.67 86.1064Z" fill="#F8F9F9"></path>
      <path d="M254.117 145.489C246.408 145.489 234.292 143.202 218.595 132.986C217.879 132.518 217.148 132.036 216.424 131.539C194.187 116.295 190.986 102.593 195.407 94.8468L200.705 85.566C201.005 85.0398 201.677 84.8571 202.204 85.1568C202.73 85.4564 202.912 86.1287 202.613 86.6548C196.599 97.1779 209.818 111.435 222.965 120.446C223.674 120.935 224.39 121.41 225.091 121.863C240.079 131.612 255.455 135.872 266.241 133.271C270.735 132.182 274.046 129.975 275.807 126.884C276.106 126.358 276.779 126.175 277.305 126.474C277.831 126.774 278.014 127.446 277.714 127.973L272.409 137.261C270.34 140.885 266.548 143.458 261.454 144.693C259.839 145.087 257.369 145.489 254.117 145.489ZM199.017 92.9541L197.315 95.9429C191.3 106.466 204.52 120.723 217.667 129.734C218.375 130.223 219.084 130.698 219.793 131.151C234.781 140.9 250.164 145.168 260.943 142.559C265.437 141.47 268.747 139.263 270.509 136.172L272.116 133.358C270.545 134.235 268.755 134.922 266.76 135.404C261.308 136.727 246.218 138.225 223.9 123.705C223.184 123.237 222.453 122.755 221.73 122.258C205.426 111.084 199.354 100.737 199.017 92.9541Z" fill="#121212"></path>
    </g>
    <path d="M256.083 92.1939C301.888 123.58 269.829 152.278 224.499 122.784C223.791 122.324 223.067 121.841 222.351 121.352C176.554 89.9577 208.613 61.2604 253.935 90.7616C254.644 91.222 255.367 91.7043 256.083 92.1939Z" fill="#F8F9F9"></path>
    <path d="M259.452 136.289C249.894 136.289 237.565 132.598 223.9 123.705C223.184 123.237 222.453 122.755 221.73 122.258C211.901 115.52 204.885 108.344 201.444 101.497C198.287 95.2121 198.192 89.2856 201.188 84.7987C207.889 74.7725 228.855 73.1283 254.534 89.841C255.25 90.3087 255.981 90.791 256.704 91.2879C266.533 98.0256 273.549 105.202 276.99 112.042C280.155 118.326 280.242 124.253 277.246 128.733C274.111 133.424 267.848 136.281 259.445 136.281L259.452 136.289ZM218.865 79.5006C211.397 79.5006 205.784 81.8756 203.015 86.0191C198.63 92.5814 201.224 105.538 222.972 120.446C223.681 120.935 224.397 121.41 225.099 121.863C248.71 137.224 269.23 136.8 275.427 127.519C279.811 120.957 277.217 108.001 255.462 93.1002C254.753 92.6106 254.037 92.1356 253.335 91.6825C240.262 83.1764 228.131 79.5079 218.858 79.5079L218.865 79.5006Z" fill="#121212"></path>
    <path d="M131.268 146.249C131.575 145.993 132.116 146.066 132.364 146.395C134.264 148.88 136.764 153.206 137.202 156.348L139.833 176.664C141.148 177.906 150.794 185.433 157.59 190.621L169.94 179.952L154.448 167.968C154.302 167.836 154.119 167.668 154.156 167.456L150.794 141.221C150.21 136.544 144.546 128.111 141.112 124.823C141.039 124.75 141.864 124.808 141.864 124.662C141.762 124.516 141.755 124.224 141.864 124.078C141.974 123.895 142.003 123.646 142.303 123.639C142.442 123.529 142.748 123.537 142.887 123.639C142.96 123.712 143.107 123.712 143.18 123.785C146.833 127.366 151.744 135.96 152.402 141.002L155.763 166.871L171.256 178.856L182.875 168.844C182.948 168.771 183.094 168.698 183.167 168.552L172.184 158.394C171.855 158.146 172.155 157.452 172.41 157.145C172.659 156.816 173.2 156.743 173.507 156.999L184.337 167.456C186.602 165.702 189.306 164.533 192.083 164.168C194.933 163.729 200.245 163.656 202.949 164.679L205.142 165.41C205.58 165.512 207.568 166.564 207.546 166.893C207.473 167.113 207.327 167.259 207.18 167.332C206.961 167.405 206.815 167.478 206.596 167.405L202.832 165.892C197.373 163.634 187.998 165.702 183.825 169.933L154.755 194.823C154.609 194.991 154.463 194.955 154.17 195.043C154.097 195.043 153.951 194.969 153.878 194.969C153.739 194.801 153.527 194.714 153.513 194.458C153.513 194.385 153.44 194.239 153.44 194.166C153.403 193.954 153.586 193.786 153.732 193.654L156.275 191.637C138.371 177.826 138.298 177.46 138.225 177.095L135.594 156.487C135.229 153.637 132.803 149.603 131.049 147.338C130.8 146.943 130.837 146.541 131.268 146.242V146.249Z" fill="#121212"></path>
    <path d="M244.258 112.335C244.06 114.607 240.399 114.337 240.399 114.337C233.99 113.496 235.247 107.3 235.247 107.3L231.308 106.006C231.308 106.006 228.97 110.983 233.654 115.236L232.229 118.093L236.014 120.03L237.629 117.348C237.629 117.348 244.813 120.6 247.882 113.518C247.882 113.518 249.314 110.705 246.172 107.796C243.03 104.888 239.303 102.089 241.4 100.153C243.498 98.2161 246.72 100.81 247.151 101.563C247.583 102.316 248.452 103.726 248.255 105.502L251.697 106.773C251.697 106.773 253.378 102.184 249.015 99.3707L249.979 97.4342L246.837 95.7461L245.726 97.5073C245.726 97.5073 240.867 95.7973 238.609 98.143C236.906 99.9115 236.628 101.315 237.447 103.215C237.856 104.15 238.455 104.983 239.193 105.692L242.781 109.156C242.781 109.156 244.418 110.537 244.258 112.356V112.335Z" fill="#FCC018"></path>
    <path d="M236 120.76C235.89 120.76 235.773 120.731 235.671 120.68L231.886 118.743C231.528 118.56 231.389 118.122 231.564 117.764L232.748 115.389C228.261 110.909 230.614 105.75 230.636 105.691C230.797 105.355 231.177 105.195 231.528 105.311L235.466 106.605C235.817 106.722 236.029 107.08 235.956 107.445C235.956 107.467 235.496 109.893 236.774 111.676C237.534 112.736 238.784 113.386 240.487 113.613C240.487 113.613 243.395 113.759 243.519 112.276C243.644 110.873 242.306 109.703 242.292 109.696L238.667 106.203C237.834 105.406 237.191 104.493 236.76 103.492C235.803 101.278 236.183 99.5749 238.061 97.6238C240.151 95.4534 243.951 96.2353 245.39 96.6299L246.201 95.3438C246.406 95.0149 246.83 94.9053 247.166 95.088L250.308 96.7761C250.659 96.9661 250.791 97.3899 250.615 97.748L249.928 99.1219C254.043 102.242 252.376 106.963 252.362 107.014C252.296 107.197 252.157 107.343 251.982 107.423C251.806 107.504 251.602 107.511 251.419 107.445L247.977 106.174C247.663 106.057 247.466 105.743 247.502 105.406C247.67 103.938 246.961 102.725 246.545 102.001L246.494 101.921C246.333 101.643 245.003 100.423 243.578 100.203C242.891 100.101 242.336 100.255 241.868 100.686C241.532 101 241.495 101.263 241.495 101.431C241.503 102.615 243.585 104.493 245.419 106.145C245.829 106.51 246.238 106.883 246.64 107.255C250.148 110.5 248.576 113.708 248.511 113.847C247.553 116.054 246.084 117.574 244.155 118.312C241.634 119.284 239.062 118.633 237.914 118.246L236.614 120.409C236.475 120.636 236.234 120.76 235.985 120.76H236ZM233.194 117.771L235.722 119.065L236.986 116.96C237.176 116.646 237.578 116.521 237.914 116.668C237.944 116.682 240.925 117.99 243.651 116.938C245.193 116.339 246.384 115.089 247.195 113.218C247.261 113.087 248.328 110.792 245.653 108.322C245.259 107.957 244.849 107.591 244.448 107.226C242.087 105.1 240.048 103.265 240.041 101.438C240.041 100.744 240.319 100.13 240.889 99.6115C241.678 98.888 242.686 98.5957 243.804 98.7638C245.646 99.0415 247.363 100.496 247.765 101.19L247.809 101.27C248.24 102.008 249 103.324 248.993 104.997L251.163 105.801C251.397 104.53 251.463 101.833 248.591 99.9769C248.277 99.7722 248.167 99.3703 248.335 99.0342L248.986 97.7334L247.071 96.703L246.326 97.8869C246.143 98.1792 245.785 98.3034 245.463 98.1865C245.419 98.1719 241.02 96.6592 239.113 98.6395C237.637 100.174 237.381 101.256 238.097 102.915C238.455 103.733 238.981 104.486 239.676 105.151L243.271 108.615C243.315 108.651 245.156 110.237 244.974 112.4C244.769 114.76 241.963 115.184 240.333 115.067C238.17 114.782 236.585 113.927 235.576 112.517C234.37 110.829 234.348 108.819 234.429 107.803L231.732 106.919C231.323 108.271 230.782 111.655 234.129 114.687C234.37 114.906 234.436 115.265 234.29 115.557L233.186 117.771H233.194Z" fill="#121212"></path>
    <path d="M251.421 93.4798C213.823 69.0137 187.216 92.8294 225.216 118.867C225.822 119.283 226.421 119.678 227.013 120.073C242.615 130.223 256.317 132.064 264.29 128.864C256.529 131.385 243.843 129.353 229.52 120.036C228.957 119.671 228.387 119.291 227.817 118.903C191.337 93.9037 216.863 71.0671 252.941 94.5394C253.277 94.7587 253.613 94.9779 253.949 95.2044C253.716 95.0291 253.453 94.8537 253.197 94.6783C252.598 94.2691 252.006 93.8744 251.414 93.4871L251.421 93.4798Z" fill="#121212"></path>
    <path d="M256.054 131.049C246.284 131.049 235.074 126.182 226.619 120.679C226.02 120.285 225.413 119.883 224.806 119.466C216.68 113.898 210.878 107.964 208.035 102.315C205.441 97.1631 205.368 92.3108 207.809 88.6424C210.673 84.3528 216.666 82.1312 224.251 82.5697C230.119 82.9058 239.67 84.9593 251.823 92.8662C252.422 93.2535 253.021 93.6555 253.621 94.0647L253.803 94.1889C254.008 94.3278 254.213 94.4666 254.403 94.6128C254.717 94.8539 254.783 95.2997 254.549 95.6212C254.315 95.9428 253.876 96.0231 253.548 95.8039C253.211 95.5774 252.883 95.3581 252.546 95.1462C233.685 82.8693 217.265 83.242 212.296 90.6885C208.766 95.972 210.827 106.371 228.234 118.297C228.796 118.684 229.359 119.057 229.922 119.422C248.79 131.699 260.826 129.222 264.063 128.17C264.436 128.045 264.838 128.243 264.977 128.615C265.108 128.988 264.926 129.397 264.56 129.544C261.944 130.596 259.065 131.056 256.054 131.056V131.049ZM222.329 83.9728C216.059 83.9728 211.346 85.9751 209.022 89.4535C205.339 94.9708 207.48 105.823 225.625 118.26C225.83 118.399 226.041 118.545 226.246 118.684C219.048 113.569 213.889 108.176 211.295 103.017C208.803 98.062 208.722 93.3924 211.075 89.8701C213.428 86.3405 217.981 84.2724 223.813 84.0093C223.308 83.9874 222.811 83.9728 222.329 83.9728Z" fill="#121212"></path>
    <path d="M71.7613 224.975C69.5398 216.125 71.9075 211.265 79.449 209.205C84.9663 207.699 87.7506 211.149 88.5252 213.429C89.0952 215.292 88.8175 217.148 87.7359 218.778C86.194 221.109 82.2186 224.105 72.0536 225.172L71.8198 225.194L71.7613 224.967V224.975Z" fill="#F8F9F9"></path>
    <path d="M71.2644 226.005L71.0525 225.157C68.736 215.957 71.3448 210.666 79.259 208.503C85.3025 206.852 88.3644 210.681 89.2194 213.195C89.8625 215.299 89.5556 217.36 88.3498 219.187C86.7202 221.65 82.584 224.814 72.134 225.91L71.2717 226.005H71.2644ZM81.9921 209.585C81.276 209.585 80.494 209.687 79.639 209.921C72.5871 211.843 70.4021 216.191 72.3752 224.419C81.9629 223.352 85.6898 220.553 87.1294 218.39C88.0867 216.943 88.3279 215.307 87.831 213.655C87.261 211.989 85.4413 209.585 81.9994 209.585H81.9921Z" fill="#121212"></path>
    <path d="M52.4764 227.547C50.1307 226.312 49.0491 224.449 48.9176 223.564C48.0114 217.448 54.296 215.533 55.5603 215.212C61.3407 213.743 68.3999 213.502 71.7834 224.719L71.8491 224.938L71.6372 225.041C65.8349 227.869 61.4503 228.819 58.1837 228.819C55.6626 228.819 53.8064 228.256 52.4691 227.547H52.4764Z" fill="#F8F9F9"></path>
    <path d="M58.1914 229.542C55.8821 229.542 53.8433 229.089 52.1406 228.19C49.5391 226.816 48.3552 224.733 48.1944 223.666C47.2006 216.929 54.0041 214.846 55.3779 214.495C60.9975 213.07 68.8825 212.551 72.4779 224.499L72.7264 225.318L71.9591 225.691C66.7194 228.248 62.0864 229.542 58.1914 229.542ZM52.8202 226.896C54.311 227.686 56.116 228.08 58.1914 228.08C61.7794 228.08 66.0764 226.889 70.9725 224.543C67.7571 214.356 61.4725 214.451 55.7433 215.913C54.5814 216.205 48.8302 217.959 49.6414 223.454C49.7364 224.083 50.6352 225.749 52.8202 226.904V226.896Z" fill="#121212"></path>
    <path d="M52.8051 244.136C53.9962 252.525 66.2001 258.948 79.8728 256.961C101.869 253.789 103.447 245.356 102.212 237.025C101.021 228.636 92.062 221.131 75.0789 223.557C61.4501 225.538 51.6212 235.79 52.8051 244.128V244.136Z" fill="#FCC018"></path>
    <path d="M74.8526 258.057C68.3488 258.057 62.2103 256.252 57.7819 252.934C54.5153 250.493 52.5496 247.482 52.0892 244.238C50.7738 234.972 61.6842 224.77 74.9842 222.841C82.9642 221.701 89.8626 222.658 94.9415 225.61C99.4357 228.219 102.278 232.239 102.943 236.93C103.462 240.423 103.681 244.932 100.795 248.812C97.4919 253.248 90.6811 256.149 79.9826 257.691C78.2653 257.94 76.548 258.064 74.8526 258.064V258.057ZM53.5288 244.033C53.938 246.883 55.7065 249.558 58.6515 251.765C63.9349 255.718 71.8273 257.392 79.7707 256.237C90.0673 254.754 96.5565 252.035 99.6184 247.928C102.169 244.501 102.001 240.547 101.496 237.135C100.897 232.896 98.303 229.25 94.2034 226.875C89.4096 224.09 82.8326 223.192 75.1888 224.288C61.4722 226.283 52.4399 236.36 53.5361 244.033H53.5288Z" fill="#121212"></path>
    <path d="M96.8416 236.159C97.5524 235.802 97.6085 234.475 96.9667 233.194C96.325 231.913 95.2284 231.164 94.5176 231.52C93.8067 231.876 93.7507 233.203 94.3925 234.484C95.0342 235.765 96.1307 236.515 96.8416 236.159Z" fill="#121212"></path>
    <path d="M94.2109 234.577C93.5093 233.174 93.6043 231.749 94.4301 231.333C95.2559 230.916 96.4543 231.698 97.1559 233.101C97.8574 234.504 97.7624 235.929 96.9366 236.346C96.7832 236.419 96.6224 236.455 96.4543 236.455C95.6943 236.455 94.7882 235.724 94.2109 234.577ZM94.6128 231.705C94.0136 232.005 93.999 233.24 94.5763 234.394C95.1536 235.556 96.1547 236.28 96.7539 235.98C97.3532 235.681 97.3678 234.446 96.7905 233.291C96.3009 232.312 95.5116 231.639 94.9124 231.639C94.8028 231.639 94.7005 231.661 94.6128 231.705Z" fill="#121212"></path>
    <path d="M96.6585 234.073C96.8642 233.97 96.88 233.585 96.6938 233.213C96.5076 232.842 96.1899 232.624 95.9842 232.727C95.7785 232.83 95.7628 233.215 95.949 233.587C96.1352 233.958 96.4528 234.176 96.6585 234.073Z" fill="#F8F9F9"></path>
    <path d="M92.1757 238.153C92.8754 237.776 92.8909 236.447 92.2103 235.187C91.5297 233.926 90.4108 233.21 89.7112 233.588C89.0115 233.965 88.996 235.294 89.6766 236.554C90.3572 237.815 91.4761 238.531 92.1757 238.153Z" fill="#121212"></path>
    <path d="M90.7983 238.15C90.294 237.829 89.8337 237.303 89.4829 236.66C89.1394 236.017 88.9494 235.337 88.9567 234.745C88.9641 234.109 89.1906 233.634 89.5998 233.415C90.0091 233.196 90.5279 233.262 91.0687 233.605C91.5729 233.927 92.0333 234.453 92.384 235.096C92.7275 235.739 92.9175 236.418 92.9102 237.01C92.9029 237.646 92.6764 238.121 92.2671 238.34C92.1137 238.428 91.9383 238.465 91.7556 238.465C91.4633 238.465 91.1344 238.355 90.8056 238.143L90.7983 238.15ZM89.7971 233.773C89.5267 233.919 89.3733 234.263 89.366 234.745C89.366 235.271 89.5267 235.878 89.841 236.462C90.1552 237.04 90.5717 237.515 91.0175 237.8C91.4267 238.063 91.7994 238.121 92.0698 237.975C92.3402 237.829 92.4937 237.485 92.501 237.003C92.501 236.477 92.3402 235.87 92.026 235.286C91.7117 234.708 91.2952 234.233 90.8494 233.948C90.5864 233.78 90.3379 233.693 90.1187 233.693C90.0017 233.693 89.8921 233.722 89.7971 233.773Z" fill="#121212"></path>
    <path d="M91.9747 236.17C92.1771 236.061 92.1812 235.675 91.9837 235.31C91.7862 234.944 91.462 234.736 91.2596 234.845C91.0572 234.954 91.0531 235.34 91.2506 235.705C91.4481 236.071 91.7722 236.279 91.9747 236.17Z" fill="#F8F9F9"></path>
    <path d="M95.365 243.5C97.6523 243.5 98.2808 241.709 98.2881 241.688C98.3538 241.505 98.2515 241.3 98.0615 241.242C97.8788 241.183 97.6742 241.278 97.6158 241.468C97.5938 241.541 97.0311 243.061 94.8023 242.754C94.6123 242.733 94.4296 242.864 94.4004 243.061C94.3711 243.259 94.51 243.434 94.7073 243.463C94.9412 243.493 95.1604 243.507 95.365 243.507V243.5Z" fill="#121212"></path>
    <path d="M95.3654 243.865C95.1461 243.865 94.9123 243.851 94.6565 243.814C94.2619 243.763 93.9842 243.398 94.0354 243.003C94.0865 242.608 94.4519 242.338 94.8465 242.382C96.7831 242.638 97.2435 241.388 97.2654 241.337C97.3896 240.964 97.7988 240.76 98.1715 240.891C98.3542 240.95 98.5004 241.081 98.5881 241.249C98.6758 241.424 98.6904 241.614 98.6246 241.797C98.6246 241.819 97.9085 243.858 95.3581 243.858L95.3654 243.865Z" fill="#121212"></path>
    <mask id="mask1_4075_47803" style="mask-type:luminance" maskUnits="userSpaceOnUse" x="52" y="223" width="51" height="35">
      <path d="M52.8051 244.136C53.9962 252.525 66.2001 258.948 79.8728 256.961C101.869 253.789 103.447 245.356 102.212 237.025C101.021 228.636 92.062 221.131 75.0789 223.557C61.4501 225.538 51.6212 235.79 52.8051 244.128V244.136Z" fill="white"></path>
    </mask>
    <g mask="url(#mask1_4075_47803)">
      <path d="M71.7911 257.75C69.8472 257.589 68.013 257.209 66.2665 256.756C58.7834 249.689 57.4534 234.139 63.1022 227.445C65.1046 226.202 67.3042 225.179 69.6865 224.383C61.3776 232.648 64.8123 249.558 71.7838 257.75H71.7911Z" fill="#121212"></path>
      <path d="M71.7765 257.954C70.0885 257.815 68.32 257.501 66.2227 256.953L66.1715 256.939L66.135 256.902C58.8127 249.989 57.1173 234.226 62.9561 227.313L63.0073 227.269C65.0169 226.027 67.2458 224.989 69.6354 224.193L70.4685 223.915L69.8473 224.529C61.3631 232.962 65.4992 250.033 71.9519 257.618L72.2735 257.998L71.7838 257.954H71.7765ZM63.2485 227.605C57.5631 234.38 59.2292 249.777 66.3761 256.573C68.2323 257.048 69.8181 257.348 71.3234 257.501C67.9108 253.299 65.4846 247.219 64.8123 241.117C64.0742 234.416 65.5504 228.68 68.9704 224.858C66.9242 225.603 65.0023 226.524 63.2485 227.605Z" fill="#121212"></path>
      <path d="M74.3927 223.133C74.3854 223.082 77.9515 222.79 79.3473 222.688C74.2246 230.426 73.07 249.689 84.4188 256.676C82.9573 256.997 81.3934 257.282 79.72 257.538C79.2815 257.618 78.8796 257.64 78.4411 257.721C67.2457 248.447 68.7657 228.855 74.3854 223.133H74.3927Z" fill="#121212"></path>
      <path d="M78.3165 257.874C71.5495 252.269 70.1465 243.792 69.9126 239.239C69.5692 232.509 71.3084 225.983 74.2315 222.994C74.2315 222.994 74.2315 222.994 74.2388 222.987C74.3192 222.921 74.7503 222.819 79.3249 222.483L79.7415 222.454L79.5076 222.804C76.6284 227.152 74.6772 235.892 76.5115 244.201C77.7465 249.784 80.5161 254.037 84.5134 256.5L84.9445 256.763L84.4476 256.873C82.9934 257.194 81.4076 257.479 79.7415 257.735C79.5149 257.779 79.303 257.801 79.0911 257.83C78.8865 257.852 78.6819 257.881 78.4626 257.918L78.3676 257.932L78.2945 257.874H78.3165ZM76.1242 244.282C74.3119 236.082 76.1534 227.445 78.9522 222.921C77.4103 223.038 74.8892 223.25 74.4946 223.316C71.6592 226.239 69.9857 232.619 70.3219 239.225C70.5484 243.697 71.9149 251.999 78.5065 257.501C78.6965 257.472 78.8792 257.45 79.0619 257.421C79.2665 257.399 79.4711 257.37 79.6976 257.333C81.1738 257.107 82.5842 256.851 83.8922 256.581C80.0192 254.023 77.3445 249.792 76.1242 244.289V244.282Z" fill="#121212"></path>
      <path d="M60.5881 254.688C56.0646 252.057 53.0319 248.352 52.4473 244.209C51.8919 240.277 53.5654 235.951 56.8393 232.129C53.7116 238.706 56.1669 250.574 60.5881 254.688Z" fill="#121212"></path>
      <path d="M60.4786 254.864C55.7432 252.109 52.8202 248.338 52.2355 244.238C51.6802 240.336 53.2586 235.988 56.6713 231.998L57.6725 230.829L57.0075 232.224C53.8579 238.845 56.4667 250.596 60.7125 254.542L62.0571 255.792L60.464 254.864H60.4786ZM52.6448 244.18C53.1563 247.782 55.5532 251.137 59.4482 253.738C55.9625 249.259 53.9602 239.649 56.1232 233.328C53.3829 236.923 52.1552 240.738 52.6448 244.18Z" fill="#121212"></path>
    </g>
    <path d="M76.3651 270.64C83.2019 270.64 88.7443 265.098 88.7443 258.261C88.7443 251.424 83.2019 245.882 76.3651 245.882C69.5282 245.882 63.9858 251.424 63.9858 258.261C63.9858 265.098 69.5282 270.64 76.3651 270.64Z" fill="#FCC018"></path>
    <path d="M76.3654 271.371C69.1381 271.371 63.2554 265.489 63.2554 258.261C63.2554 251.034 69.1381 245.151 76.3654 245.151C83.5927 245.151 89.4754 251.034 89.4754 258.261C89.4754 265.489 83.5927 271.371 76.3654 271.371ZM76.3654 246.613C69.9419 246.613 64.7169 251.838 64.7169 258.261C64.7169 264.685 69.9419 269.91 76.3654 269.91C82.7888 269.91 88.0138 264.685 88.0138 258.261C88.0138 251.838 82.7888 246.613 76.3654 246.613Z" fill="#121212"></path>
    <path d="M79.9677 258.992C79.5512 258.517 78.8716 258.144 77.9289 257.859L75.7877 257.223C75.1666 257.033 74.7135 256.807 74.4285 256.536C74.1362 256.266 73.9973 255.945 73.9973 255.557C73.9973 255.199 74.0996 254.885 74.3043 254.615C74.5089 254.337 74.7939 254.125 75.1519 253.971C75.51 253.818 75.9119 253.745 76.365 253.752C76.8473 253.752 77.2785 253.855 77.6658 254.045C78.0531 254.235 78.3746 254.498 78.6231 254.834C78.8716 255.17 79.0396 255.565 79.1127 256.018L80.545 255.755C80.4135 255.06 80.1577 254.468 79.7777 253.964C79.3977 253.467 78.9227 253.087 78.3454 252.817C77.98 252.649 77.5708 252.532 77.1396 252.473V251.063H75.7293V252.451C75.2396 252.503 74.7866 252.62 74.3919 252.81C73.8219 253.08 73.3835 253.453 73.0619 253.935C72.7477 254.417 72.5869 254.987 72.5869 255.63C72.5869 257.004 73.3689 257.94 74.9327 258.429L77.5489 259.24C78.1554 259.423 78.5866 259.65 78.8423 259.913C79.0981 260.176 79.2296 260.526 79.2296 260.958C79.2296 261.55 78.9885 262.039 78.5062 262.412C78.0239 262.785 77.3954 262.975 76.6135 262.975C75.8316 262.975 75.1812 262.77 74.6331 262.353C74.085 261.937 73.7269 261.381 73.5589 260.68L72.1704 260.914C72.2946 261.608 72.5504 262.207 72.9523 262.719C73.3469 263.23 73.8585 263.625 74.4723 263.903C74.8596 264.078 75.2835 264.195 75.7366 264.253V265.649H77.1469V264.29C77.7169 264.239 78.2358 264.1 78.6889 263.888C79.3027 263.603 79.7777 263.201 80.1139 262.69C80.45 262.178 80.6181 261.579 80.6181 260.892C80.6181 260.103 80.4062 259.474 79.9896 258.999L79.9677 258.992Z" fill="black"></path>
    <path d="M133.811 61.458C132.086 54.596 133.92 50.8253 139.774 49.2322C144.056 48.063 146.212 50.7376 146.811 52.506C147.25 53.953 147.038 55.3853 146.197 56.6568C144.999 58.4618 141.915 60.793 134.03 61.6187L133.847 61.6406L133.804 61.4653L133.811 61.458Z" fill="#F8F9F9"></path>
    <path d="M133.307 62.4301L133.102 61.6409C131.282 54.399 133.336 50.2336 139.577 48.5309C144.378 47.2228 146.819 50.2701 147.498 52.2798C148.01 53.9678 147.769 55.6121 146.804 57.0663C145.518 59.0028 142.273 61.4947 134.11 62.3497L133.299 62.4374L133.307 62.4301ZM141.791 49.6709C141.25 49.6709 140.644 49.7513 139.964 49.934C134.644 51.3809 132.97 54.6548 134.41 60.8371C141.674 60.004 144.502 57.8921 145.591 56.2478C146.307 55.1663 146.49 53.9459 146.11 52.7182C145.993 52.3821 144.962 49.6709 141.784 49.6709H141.791Z" fill="#121212"></path>
    <path d="M118.859 63.4459C117.04 62.4886 116.199 61.0417 116.097 60.3548C115.396 55.6121 120.263 54.1286 121.249 53.8801C125.729 52.7401 131.209 52.5501 133.833 61.2536L133.884 61.429L133.723 61.5094C129.222 63.7017 125.824 64.4398 123.295 64.4398C121.344 64.4398 119.904 64.0013 118.867 63.4532L118.859 63.4459Z" fill="#F8F9F9"></path>
    <path d="M123.288 65.1631C121.468 65.1631 119.86 64.805 118.516 64.0962C116.44 63 115.498 61.3265 115.373 60.4642C114.584 55.1004 119.977 53.4488 121.066 53.1712C125.487 52.0458 131.692 51.6438 134.527 61.0415L134.761 61.8088L134.037 62.1596C129.952 64.1546 126.335 65.1631 123.288 65.1631ZM119.195 62.8027C120.328 63.4019 121.702 63.7015 123.288 63.7015C126.013 63.7015 129.273 62.8027 133 61.0342C130.53 53.405 125.772 53.4854 121.432 54.5815C120.204 54.8958 116.228 56.2258 116.82 60.245C116.886 60.6835 117.573 61.9404 119.195 62.7954V62.8027Z" fill="#121212"></path>
    <path d="M119.115 76.3145C120.043 82.8184 129.5 87.8022 140.11 86.2603C157.166 83.7976 158.394 77.2645 157.437 70.8045C156.509 64.3007 149.566 58.4764 136.398 60.3618C125.831 61.8964 118.202 69.8472 119.123 76.3145H119.115Z" fill="#FCC018"></path>
    <path d="M136.215 87.2761C131.136 87.2761 126.342 85.8657 122.871 83.2715C120.306 81.3495 118.757 78.9819 118.392 76.4169C117.361 69.1457 125.889 61.1438 136.288 59.6384C142.514 58.7469 147.9 59.4996 151.876 61.8015C155.405 63.8549 157.634 67.0119 158.16 70.6949C158.562 73.4353 158.737 76.9722 156.465 80.0269C153.878 83.5053 148.558 85.778 140.22 86.9765C138.882 87.1738 137.538 87.2688 136.222 87.2688L136.215 87.2761ZM119.839 76.2122C120.146 78.3826 121.497 80.4142 123.748 82.1022C127.811 85.1422 133.891 86.4284 140.001 85.5442C147.937 84.3969 152.935 82.3142 155.281 79.1646C157.225 76.5557 157.093 73.5303 156.706 70.9142C156.246 67.6769 154.265 64.8926 151.13 63.073C147.447 60.9319 142.383 60.2449 136.486 61.0926C125.941 62.6272 118.998 70.3442 119.831 76.2196L119.839 76.2122Z" fill="#121212"></path>
    <path d="M153.255 70.1239C153.807 69.8474 153.852 68.8187 153.355 67.8264C152.857 66.8341 152.007 66.2539 151.455 66.5304C150.903 66.807 150.858 67.8357 151.355 68.828C151.852 69.8203 152.703 70.4005 153.255 70.1239Z" fill="#121212"></path>
    <path d="M151.218 68.9046C150.67 67.8158 150.743 66.7123 151.386 66.3908C152.029 66.0692 152.957 66.6758 153.498 67.7573C154.046 68.8461 153.973 69.9496 153.33 70.2711C153.213 70.3296 153.089 70.3588 152.957 70.3588C152.365 70.3588 151.664 69.7961 151.218 68.9046ZM151.532 66.6758C151.064 66.9096 151.057 67.8669 151.503 68.7658C151.956 69.6646 152.73 70.2273 153.191 69.9934C153.659 69.7596 153.666 68.8023 153.22 67.9034C152.84 67.1434 152.226 66.6246 151.766 66.6246C151.685 66.6246 151.605 66.6392 151.532 66.6758Z" fill="#121212"></path>
    <path d="M153.126 68.5073C153.285 68.4278 153.296 68.1293 153.152 67.8406C153.007 67.5519 152.761 67.3824 152.602 67.4619C152.444 67.5415 152.432 67.84 152.577 68.1286C152.721 68.4173 152.967 68.5869 153.126 68.5073Z" fill="#F8F9F9"></path>
    <path d="M149.637 71.6693C150.181 71.376 150.194 70.3465 149.667 69.3698C149.139 68.3931 148.271 67.8392 147.728 68.1325C147.185 68.4258 147.172 69.4553 147.699 70.432C148.226 71.4087 149.094 71.9626 149.637 71.6693Z" fill="#121212"></path>
    <path d="M148.58 71.6669C148.192 71.4184 147.827 71.0092 147.564 70.5123C147.294 70.0153 147.155 69.4892 147.155 69.0288C147.155 68.5319 147.337 68.1665 147.652 67.9984C147.966 67.8304 148.368 67.8815 148.784 68.1446C149.172 68.393 149.537 68.8023 149.8 69.2992C150.071 69.7961 150.209 70.3223 150.209 70.7827C150.209 71.2796 150.027 71.645 149.712 71.813C149.588 71.8788 149.457 71.908 149.311 71.908C149.084 71.908 148.828 71.8277 148.572 71.6596L148.58 71.6669ZM147.805 68.2761C147.593 68.3857 147.476 68.6561 147.476 69.0288C147.476 69.438 147.601 69.913 147.842 70.3588C148.083 70.8119 148.404 71.1773 148.748 71.3965C149.062 71.6011 149.354 71.645 149.566 71.5354C149.778 71.4257 149.895 71.1554 149.895 70.7827C149.895 70.3734 149.771 69.8984 149.53 69.4527C149.289 68.9996 148.967 68.6342 148.624 68.415C148.419 68.2834 148.229 68.2177 148.061 68.2177C147.966 68.2177 147.886 68.2396 147.812 68.2761H147.805Z" fill="#121212"></path>
    <path d="M149.488 70.133C149.644 70.0487 149.647 69.7499 149.493 69.4658C149.34 69.1817 149.089 69.0198 148.933 69.1041C148.777 69.1885 148.774 69.4872 148.928 69.7713C149.081 70.0554 149.332 70.2174 149.488 70.133Z" fill="#F8F9F9"></path>
    <path d="M152.117 75.8176C153.893 75.8176 154.375 74.4292 154.382 74.4146C154.433 74.2684 154.353 74.1149 154.207 74.0638C154.061 74.0126 153.907 74.093 153.856 74.2392C153.834 74.2976 153.403 75.4742 151.678 75.2403C151.532 75.2184 151.386 75.328 151.371 75.4742C151.35 75.6276 151.459 75.7665 151.605 75.7811C151.788 75.803 151.956 75.8176 152.117 75.8176Z" fill="#121212"></path>
    <path d="M152.117 76.1832C151.942 76.1832 151.759 76.1686 151.562 76.1467C151.211 76.0955 150.962 75.774 151.014 75.4232C151.057 75.0797 151.386 74.824 151.73 74.8751C153.133 75.0724 153.484 74.2101 153.52 74.1151C153.63 73.7863 153.995 73.6036 154.324 73.7205C154.485 73.7717 154.616 73.8886 154.697 74.0421C154.77 74.1955 154.784 74.3709 154.733 74.5317C154.733 74.5463 154.156 76.1832 152.124 76.1832H152.117Z" fill="#121212"></path>
    <mask id="mask2_4075_47803" style="mask-type:luminance" maskUnits="userSpaceOnUse" x="119" y="60" width="39" height="27">
      <path d="M119.115 76.3145C120.043 82.8184 129.5 87.8022 140.11 86.2603C157.166 83.7976 158.394 77.2645 157.437 70.8045C156.509 64.3007 149.566 58.4764 136.398 60.3618C125.831 61.8964 118.202 69.8472 119.123 76.3145H119.115Z" fill="white"></path>
    </mask>
    <g mask="url(#mask2_4075_47803)">
      <path d="M133.833 86.8741C132.328 86.7499 130.903 86.4576 129.551 86.1068C123.748 80.626 122.718 68.5683 127.103 63.3799C128.659 62.4153 130.362 61.626 132.211 61.0049C125.765 67.4137 128.433 80.531 133.84 86.8814L133.833 86.8741Z" fill="#121212"></path>
      <path d="M133.826 87.035C132.518 86.9254 131.144 86.6843 129.514 86.2604H129.478L129.448 86.2239C123.77 80.86 122.455 68.6416 126.986 63.2777L127.022 63.2485C128.579 62.2839 130.311 61.4801 132.167 60.8589L132.81 60.647L132.328 61.122C125.751 67.6624 128.951 80.8966 133.965 86.7793L134.213 87.0716L133.833 87.0424L133.826 87.035ZM127.212 63.497C122.806 68.7512 124.092 80.692 129.638 85.9608C131.078 86.3335 132.306 86.5674 133.475 86.6843C130.83 83.4251 128.951 78.7116 128.425 73.9762C127.855 68.7804 128.995 64.3301 131.648 61.3631C130.062 61.9404 128.571 62.6566 127.212 63.4897V63.497Z" fill="#121212"></path>
      <path d="M135.85 60.0256C135.85 59.9891 138.612 59.7625 139.694 59.6821C135.726 65.6817 134.827 80.626 143.633 86.0337C142.5 86.2821 141.287 86.5014 139.994 86.6987C139.65 86.7644 139.343 86.7791 139 86.8375C130.318 79.6467 131.495 64.4467 135.857 60.0183L135.85 60.0256Z" fill="#121212"></path>
      <path d="M138.897 86.9692C133.65 82.6211 132.562 76.0515 132.379 72.5219C132.116 67.3042 133.46 62.2399 135.733 59.9234C135.792 59.8722 136.128 59.7919 139.679 59.5361L140.001 59.5142L139.825 59.7845C137.597 63.1534 136.084 69.9349 137.502 76.3803C138.459 80.7138 140.607 84.0095 143.706 85.9169L144.042 86.1215L143.655 86.2092C142.522 86.4576 141.294 86.6842 140.008 86.8815C139.833 86.9107 139.665 86.9326 139.504 86.9545C139.343 86.9765 139.182 86.9911 139.014 87.0276L138.941 87.0422L138.883 86.9984L138.897 86.9692ZM137.202 76.4315C135.799 70.0738 137.224 63.3726 139.394 59.8649C138.196 59.9526 136.245 60.1207 135.938 60.1718C133.738 62.4445 132.437 67.3919 132.7 72.5072C132.876 75.9711 133.935 82.4092 139.043 86.6842C139.19 86.6622 139.336 86.6403 139.475 86.6257C139.635 86.6038 139.796 86.5892 139.964 86.5526C141.112 86.3772 142.2 86.1799 143.216 85.968C140.213 83.9876 138.137 80.6992 137.195 76.4388L137.202 76.4315Z" fill="#121212"></path>
      <path d="M125.144 84.4917C121.637 82.4528 119.284 79.5809 118.831 76.3655C118.399 73.3109 119.7 69.964 122.236 66.9971C119.81 72.0978 121.71 81.2982 125.144 84.4917Z" fill="#121212"></path>
      <path d="M125.064 84.6302C121.395 82.4964 119.122 79.566 118.669 76.3945C118.238 73.3691 119.459 69.9929 122.111 66.9018L122.886 65.9956L122.374 67.0771C119.934 72.2071 121.958 81.3271 125.246 84.3818L126.291 85.3537L125.056 84.6375L125.064 84.6302ZM118.984 76.3433C119.378 79.1348 121.242 81.7364 124.26 83.7533C121.556 80.2748 120.007 72.8283 121.68 67.9248C119.561 70.7164 118.604 73.6687 118.984 76.3433Z" fill="#121212"></path>
    </g>
    <path d="M135.28 99.0046C142.116 99.0046 147.659 93.4622 147.659 86.6253C147.659 79.7885 142.116 74.2461 135.28 74.2461C128.443 74.2461 122.9 79.7885 122.9 86.6253C122.9 93.4622 128.443 99.0046 135.28 99.0046Z" fill="#FCC018"></path>
    <path d="M135.279 99.7283C128.052 99.7283 122.169 93.8456 122.169 86.6183C122.169 79.391 128.052 73.5083 135.279 73.5083C142.507 73.5083 148.389 79.391 148.389 86.6183C148.389 93.8456 142.507 99.7283 135.279 99.7283ZM135.279 74.9698C128.856 74.9698 123.631 80.1948 123.631 86.6183C123.631 93.0418 128.856 98.2668 135.279 98.2668C141.703 98.2668 146.928 93.0418 146.928 86.6183C146.928 80.1948 141.703 74.9698 135.279 74.9698Z" fill="#121212"></path>
    <path d="M138.882 87.3493C138.466 86.8743 137.786 86.5016 136.843 86.2166L134.702 85.5808C134.081 85.3908 133.628 85.1643 133.343 84.8939C133.051 84.6235 132.912 84.3019 132.912 83.9146C132.912 83.5566 133.014 83.2423 133.219 82.9719C133.423 82.6943 133.708 82.4823 134.066 82.3289C134.425 82.1754 134.826 82.1023 135.28 82.1096C135.762 82.1096 136.193 82.2119 136.58 82.4019C136.968 82.5919 137.289 82.855 137.538 83.1912C137.786 83.5273 137.954 83.9219 138.027 84.375L139.46 84.1119C139.328 83.4177 139.072 82.8258 138.692 82.3216C138.312 81.8246 137.837 81.4446 137.26 81.1743C136.895 81.0062 136.485 80.8893 136.054 80.8308V79.4204H134.644V80.8089C134.154 80.86 133.701 80.9769 133.306 81.1669C132.736 81.4373 132.298 81.81 131.976 82.2923C131.662 82.7746 131.501 83.3446 131.501 83.9877C131.501 85.3616 132.283 86.2969 133.847 86.7866L136.463 87.5977C137.07 87.7804 137.501 88.0069 137.757 88.27C138.013 88.5331 138.144 88.8839 138.144 89.315C138.144 89.9069 137.903 90.3966 137.421 90.7693C136.938 91.1419 136.31 91.3319 135.528 91.3319C134.746 91.3319 134.096 91.1273 133.548 90.7108C133 90.2943 132.641 89.7389 132.473 89.0373L131.085 89.2712C131.209 89.9654 131.465 90.5646 131.867 91.0762C132.261 91.5877 132.773 91.9823 133.387 92.26C133.774 92.4354 134.198 92.5523 134.651 92.6108V94.0066H136.061V92.6473C136.631 92.5962 137.15 92.4573 137.603 92.2454C138.217 91.9604 138.692 91.5585 139.028 91.0469C139.365 90.5354 139.533 89.9362 139.533 89.2493C139.533 88.46 139.321 87.8316 138.904 87.3566L138.882 87.3493Z" fill="black"></path>
    <path d="M365.432 132.103L365.198 132.081C355.033 131.014 351.057 128.011 349.516 125.687C348.434 124.057 348.164 122.201 348.726 120.338C349.501 118.058 352.285 114.608 357.802 116.114C365.344 118.167 367.712 123.034 365.49 131.884L365.432 132.11V132.103Z" fill="#F8F9F9"></path>
    <path d="M365.979 132.892L365.117 132.805C354.667 131.709 350.531 128.544 348.894 126.082C347.688 124.262 347.381 122.194 348.017 120.119C348.879 117.576 351.949 113.754 357.985 115.398C365.899 117.554 368.501 122.844 366.191 132.052L365.979 132.892ZM355.252 116.472C351.803 116.472 349.983 118.876 349.406 120.564C348.909 122.194 349.15 123.831 350.114 125.278C351.554 127.448 355.281 130.24 364.869 131.307C366.842 123.078 364.657 118.73 357.605 116.808C356.75 116.574 355.968 116.472 355.252 116.472Z" fill="#121212"></path>
    <path d="M379.06 135.713C375.794 135.713 371.409 134.763 365.607 131.935L365.395 131.833L365.461 131.613C368.844 120.396 375.903 120.645 381.684 122.106C382.948 122.428 389.233 124.342 388.327 130.459C388.195 131.343 387.113 133.206 384.768 134.441C383.43 135.143 381.574 135.713 379.053 135.713H379.06Z" fill="#F8F9F9"></path>
    <path d="M379.06 136.444C375.165 136.444 370.532 135.15 365.285 132.593L364.518 132.22L364.767 131.402C368.362 119.461 376.247 119.972 381.867 121.397C383.24 121.748 390.051 123.831 389.05 130.568C388.889 131.635 387.713 133.718 385.111 135.092C383.408 135.991 381.37 136.444 379.06 136.444ZM366.279 131.445C371.175 133.791 375.472 134.982 379.06 134.982C381.136 134.982 382.941 134.58 384.432 133.798C386.617 132.644 387.515 130.978 387.61 130.357C388.422 124.861 382.67 123.115 381.508 122.815C375.779 121.361 369.502 121.266 366.279 131.445Z" fill="#121212"></path>
    <path d="M384.446 151.03C383.255 159.42 371.051 165.843 357.378 163.855C335.382 160.684 333.803 152.251 335.038 143.92C336.23 135.531 345.189 128.026 362.172 130.452C375.801 132.432 385.63 142.685 384.446 151.023V151.03Z" fill="#FCC018"></path>
    <path d="M362.399 164.958C360.703 164.958 358.986 164.834 357.269 164.586C346.57 163.044 339.767 160.135 336.464 155.707C333.577 151.827 333.796 147.318 334.315 143.825C334.98 139.14 337.823 135.121 342.317 132.512C347.396 129.56 354.294 128.603 362.274 129.743C375.574 131.672 386.485 141.873 385.169 151.14C384.709 154.384 382.736 157.395 379.477 159.836C375.041 163.153 368.902 164.958 362.399 164.958ZM355.975 130.737C350.911 130.737 346.519 131.76 343.048 133.777C338.948 136.159 336.361 139.805 335.762 144.037C335.258 147.457 335.082 151.41 337.64 154.837C340.702 158.944 347.191 161.663 357.488 163.146C365.431 164.301 373.324 162.627 378.607 158.674C381.552 156.467 383.328 153.792 383.73 150.942C384.819 143.262 375.786 133.185 362.07 131.197C359.95 130.897 357.919 130.744 355.982 130.744L355.975 130.737Z" fill="#121212"></path>
    <path d="M342.853 141.383C343.495 140.102 343.439 138.775 342.728 138.419C342.017 138.062 340.921 138.812 340.279 140.093C339.637 141.374 339.693 142.701 340.404 143.057C341.115 143.414 342.212 142.664 342.853 141.383Z" fill="#121212"></path>
    <path d="M340.797 143.35C340.629 143.35 340.468 143.313 340.315 143.24C339.489 142.823 339.394 141.406 340.096 139.995C340.797 138.592 341.996 137.818 342.821 138.227C343.647 138.643 343.742 140.061 343.041 141.471C342.463 142.619 341.557 143.35 340.797 143.35ZM342.339 138.526C341.747 138.526 340.958 139.199 340.461 140.178C339.884 141.34 339.898 142.568 340.498 142.867C341.097 143.167 342.091 142.443 342.675 141.281C343.253 140.12 343.238 138.892 342.639 138.592C342.544 138.548 342.449 138.526 342.339 138.526Z" fill="#121212"></path>
    <path d="M341.302 140.478C341.488 140.106 341.473 139.722 341.267 139.618C341.061 139.515 340.744 139.733 340.557 140.105C340.371 140.477 340.387 140.861 340.593 140.964C340.798 141.067 341.116 140.85 341.302 140.478Z" fill="#F8F9F9"></path>
    <path d="M347.596 143.465C348.276 142.204 348.261 140.876 347.561 140.498C346.861 140.12 345.742 140.836 345.062 142.097C344.381 143.358 344.397 144.686 345.096 145.064C345.796 145.441 346.915 144.725 347.596 143.465Z" fill="#121212"></path>
    <path d="M345.503 145.366C345.321 145.366 345.145 145.323 344.992 145.242C344.583 145.023 344.356 144.548 344.349 143.912C344.342 143.32 344.532 142.641 344.875 141.998C345.218 141.355 345.686 140.828 346.19 140.507C346.731 140.163 347.25 140.098 347.659 140.317C348.068 140.536 348.295 141.011 348.302 141.647C348.31 142.239 348.12 142.926 347.776 143.561C347.433 144.205 346.965 144.731 346.461 145.052C346.132 145.264 345.803 145.374 345.511 145.374L345.503 145.366ZM347.133 140.595C346.914 140.595 346.665 140.682 346.402 140.85C345.957 141.135 345.54 141.61 345.226 142.188C344.912 142.765 344.743 143.379 344.751 143.905C344.751 144.387 344.912 144.738 345.182 144.877C345.452 145.023 345.825 144.957 346.234 144.701C346.68 144.416 347.097 143.941 347.411 143.364C347.725 142.787 347.893 142.173 347.886 141.647C347.886 141.165 347.725 140.814 347.455 140.675C347.36 140.624 347.25 140.595 347.133 140.595Z" fill="#121212"></path>
    <path d="M346.021 142.617C346.218 142.251 346.214 141.866 346.012 141.757C345.809 141.648 345.485 141.856 345.288 142.221C345.09 142.587 345.094 142.972 345.297 143.082C345.499 143.191 345.823 142.983 346.021 142.617Z" fill="#F8F9F9"></path>
    <path d="M341.885 150.394C339.598 150.394 338.97 148.604 338.962 148.582C338.897 148.399 338.999 148.195 339.189 148.136C339.372 148.078 339.576 148.173 339.635 148.363C339.657 148.436 340.219 149.956 342.448 149.649C342.638 149.627 342.821 149.759 342.85 149.956C342.879 150.153 342.74 150.329 342.543 150.358C342.309 150.387 342.09 150.402 341.885 150.402V150.394Z" fill="#121212"></path>
    <path d="M341.886 150.76C339.336 150.76 338.627 148.721 338.619 148.699C338.495 148.319 338.7 147.91 339.072 147.785C339.445 147.661 339.854 147.866 339.986 148.238C340.001 148.29 340.468 149.547 342.405 149.283C342.799 149.225 343.165 149.51 343.216 149.897C343.245 150.087 343.194 150.277 343.077 150.431C342.96 150.584 342.792 150.679 342.602 150.708C342.354 150.745 342.12 150.76 341.901 150.76H341.886Z" fill="#121212"></path>
    <mask id="mask3_4075_47803" style="mask-type:luminance" maskUnits="userSpaceOnUse" x="334" y="129" width="51" height="36">
      <path d="M384.446 151.03C383.255 159.42 371.051 165.843 357.378 163.855C335.382 160.684 333.803 152.251 335.038 143.92C336.23 135.531 345.189 128.026 362.172 130.452C375.801 132.432 385.63 142.685 384.446 151.023V151.03Z" fill="white"></path>
    </mask>
    <g mask="url(#mask3_4075_47803)">
      <path d="M365.46 164.652C367.404 164.491 369.239 164.111 370.985 163.658C378.468 156.591 379.798 141.04 374.149 134.347C372.147 133.104 369.947 132.081 367.565 131.285C375.874 139.55 372.439 156.46 365.468 164.652H365.46Z" fill="#121212"></path>
      <path d="M364.985 164.893L365.307 164.513C371.767 156.928 375.896 139.864 367.411 131.424L366.79 130.81L367.623 131.088C370.013 131.884 372.242 132.922 374.252 134.164L374.303 134.208C380.141 141.121 378.446 156.884 371.124 163.797L371.087 163.834L371.036 163.848C368.932 164.396 367.17 164.71 365.482 164.849L364.993 164.893H364.985ZM368.288 131.753C371.708 135.582 373.185 141.311 372.447 148.012C371.774 154.114 369.355 160.194 365.935 164.396C367.441 164.243 369.026 163.943 370.883 163.468C378.03 156.672 379.696 141.275 374.01 134.5C372.257 133.419 370.335 132.498 368.288 131.753Z" fill="#121212"></path>
      <path d="M362.859 130.028C362.866 129.977 359.3 129.684 357.904 129.582C363.027 137.321 364.181 156.584 352.833 163.57C354.294 163.892 355.858 164.177 357.531 164.432C357.97 164.513 358.372 164.535 358.81 164.615C370.006 155.342 368.486 135.75 362.866 130.028H362.859Z" fill="#121212"></path>
      <path d="M358.862 164.834L358.767 164.82C358.547 164.783 358.343 164.754 358.138 164.732C357.926 164.703 357.707 164.681 357.488 164.637C355.829 164.381 354.243 164.096 352.782 163.775L352.285 163.665L352.716 163.402C356.72 160.939 359.483 156.686 360.718 151.103C362.552 142.802 360.601 134.054 357.722 129.706L357.488 129.355L357.904 129.385C362.479 129.721 362.917 129.823 362.99 129.889C362.99 129.889 362.99 129.889 362.998 129.896C365.928 132.885 367.66 139.411 367.317 146.141C367.083 150.694 365.687 159.171 358.913 164.776L358.84 164.834H358.862ZM353.359 163.475C354.674 163.753 356.077 164.009 357.554 164.228C357.773 164.272 357.985 164.294 358.189 164.315C358.372 164.337 358.555 164.359 358.745 164.396C365.329 158.886 366.695 150.584 366.929 146.119C367.265 139.52 365.592 133.141 362.757 130.21C362.362 130.145 359.841 129.933 358.299 129.816C361.098 134.339 362.939 142.977 361.127 151.176C359.914 156.672 357.232 160.91 353.359 163.468V163.475Z" fill="#121212"></path>
      <path d="M376.671 161.583C381.194 158.952 384.227 155.247 384.812 151.104C385.367 147.172 383.694 142.846 380.42 139.024C383.547 145.601 381.092 157.469 376.671 161.583Z" fill="#121212"></path>
      <path d="M375.18 162.686L376.524 161.437C380.77 157.49 383.379 145.732 380.229 139.119L379.564 137.723L380.565 138.892C383.978 142.882 385.557 147.23 385.001 151.133C384.417 155.232 381.494 159.003 376.758 161.758L375.165 162.686H375.18ZM381.128 140.23C383.291 146.551 381.289 156.153 377.803 160.64C381.698 158.039 384.095 154.684 384.607 151.082C385.096 147.64 383.861 143.825 381.128 140.23Z" fill="#121212"></path>
    </g>
    <path d="M375.074 177.46C382.269 171.551 383.311 160.927 377.401 153.732C371.491 146.537 360.867 145.496 353.672 151.406C346.478 157.316 345.436 167.939 351.346 175.134C357.256 182.329 367.879 183.37 375.074 177.46Z" fill="#FCC018"></path>
    <path d="M364.372 182.007C354.675 182.007 346.782 174.115 346.782 164.418C346.782 154.72 354.675 146.828 364.372 146.828C374.069 146.828 381.961 154.72 381.961 164.418C381.961 174.115 374.069 182.007 364.372 182.007ZM364.372 148.29C355.478 148.29 348.244 155.524 348.244 164.418C348.244 173.311 355.478 180.546 364.372 180.546C373.265 180.546 380.5 173.311 380.5 164.418C380.5 155.524 373.265 148.29 364.372 148.29Z" fill="#121212"></path>
    <path d="M359.666 170.973C358.533 170.973 357.59 170.695 356.838 170.14C356.085 169.584 355.522 168.854 355.15 167.947C354.777 167.041 354.594 166.069 354.609 165.032C354.616 163.972 354.828 163 355.23 162.109C355.632 161.217 356.216 160.501 356.976 159.96C357.736 159.419 358.657 159.149 359.753 159.149C361.003 159.149 362.033 159.536 362.845 160.311C363.656 161.085 364.313 162.262 364.818 163.833H363.97C364.313 162.795 364.73 161.926 365.212 161.232C365.694 160.537 366.25 160.011 366.886 159.668C367.521 159.324 368.245 159.149 369.063 159.149C370.108 159.149 371.015 159.397 371.775 159.902C372.535 160.406 373.119 161.093 373.536 161.977C373.952 162.854 374.157 163.862 374.157 164.995C374.157 166.128 373.96 167.1 373.558 167.999C373.163 168.897 372.578 169.621 371.818 170.162C371.058 170.702 370.138 170.973 369.063 170.973C368.238 170.973 367.507 170.805 366.871 170.461C366.235 170.118 365.68 169.606 365.205 168.912C364.73 168.218 364.313 167.341 363.97 166.274H364.818C364.459 167.341 364.043 168.225 363.553 168.912C363.064 169.606 362.501 170.118 361.865 170.461C361.23 170.805 360.499 170.973 359.68 170.973H359.666ZM359.79 168.744C360.564 168.744 361.273 168.466 361.909 167.918C362.545 167.37 363.144 166.42 363.699 165.068C363.144 163.709 362.545 162.752 361.909 162.196C361.273 161.648 360.564 161.37 359.79 161.37C359.081 161.37 358.496 161.546 358.043 161.897C357.59 162.247 357.261 162.7 357.049 163.263C356.838 163.826 356.735 164.425 356.735 165.061C356.735 165.697 356.838 166.289 357.049 166.851C357.261 167.414 357.59 167.874 358.043 168.218C358.496 168.561 359.074 168.737 359.79 168.737V168.744ZM368.968 168.744C369.677 168.744 370.262 168.569 370.715 168.225C371.168 167.882 371.497 167.421 371.709 166.859C371.921 166.296 372.023 165.697 372.023 165.068C372.023 164.44 371.921 163.826 371.709 163.27C371.497 162.708 371.168 162.255 370.715 161.904C370.262 161.553 369.684 161.378 368.968 161.378C368.194 161.378 367.485 161.655 366.849 162.204C366.213 162.752 365.614 163.709 365.059 165.075C365.614 166.427 366.213 167.377 366.849 167.925C367.485 168.474 368.194 168.751 368.968 168.751V168.744Z" fill="#121212"></path>
  </g>
  <defs>
    <clipPath id="clip0_4075_47803">
      <rect width="456" height="456" fill="white"></rect>
    </clipPath>
  </defs>
</svg>
