<?xml version="1.0" encoding="UTF-8"?>
<svg xmlns="http://www.w3.org/2000/svg" xmlns:xlink="http://www.w3.org/1999/xlink" id="Layer_6" data-name="Layer 6" viewBox="0 0 513 513">
  <defs>
    <clipPath id="clippath">
      <path d="M74.91,204.34l109.89-124.92c5.64-6.41,13.23-10.8,21.6-12.49,8.37-1.69,17.07-.59,24.75,3.14l160.89,77.98c5.3,2.57,9.95,6.3,13.6,10.93,3.65,4.62,6.21,10.01,7.49,15.76l34.03,153.34c1.99,8.97.76,18.35-3.49,26.49-4.24,8.15-11.22,14.54-19.7,18.05l-172.41,71.36c-5.25,2.17-10.91,3.17-16.58,2.93-5.68-.24-11.23-1.71-16.28-4.32l-132.39-68.39c-6.37-3.29-11.7-8.27-15.43-14.38-3.73-6.12-5.7-13.15-5.7-20.31v-109.37c0-9.5,3.46-18.67,9.73-25.8Z" fill="none" stroke-width="0"></path>
    </clipPath>
    <clipPath id="clippath-1">
      <path d="M477.08,226.45l-17.7-1.9c-4.03-39.3-36.76-69.94-76.53-69.94-42.5,0-76.95,34.98-76.95,78.13s34.45,78.13,76.95,78.13c11.49,0,22.4-2.56,32.19-7.15l4.25,20.74,38.08,1.02,25.72-72.58-6.01-26.46Z" clip-rule="evenodd" fill="none" stroke-width="0"></path>
    </clipPath>
    <clipPath id="clippath-2">
      <path d="M472.74,322.37h-146.41c-1.33,0-2.39-1.22-2.26-2.62l11.12-157.52c.11-1.23,1.09-2.17,2.26-2.17h146.41c1.33,0,2.39,1.22,2.26,2.62l-11.12,157.52c-.11,1.23-1.09,2.17-2.26,2.17Z" fill="none" stroke-width="0"></path>
    </clipPath>
    <clipPath id="clippath-3">
      <path d="M74.91-363.66l109.89-124.92c5.64-6.41,13.23-10.8,21.6-12.49,8.37-1.69,17.07-.59,24.75,3.14l160.89,77.98c5.3,2.57,9.95,6.3,13.6,10.93,3.65,4.62,6.21,10.01,7.49,15.76l34.03,153.34c1.99,8.97.76,18.35-3.49,26.49-4.24,8.15-11.22,14.54-19.7,18.05l-172.41,71.36c-5.25,2.17-10.91,3.17-16.58,2.93-5.68-.24-11.23-1.71-16.28-4.32l-132.39-68.39c-6.37-3.29-11.7-8.27-15.43-14.38-3.73-6.12-5.7-13.15-5.7-20.31v-109.37c0-9.5,3.46-18.67,9.73-25.8Z" fill="none" stroke-width="0"></path>
    </clipPath>
    <clipPath id="clippath-4">
      <path d="M477.08-341.55l-17.7-1.9c-4.03-39.3-36.76-69.94-76.53-69.94-42.5,0-76.95,34.98-76.95,78.13s34.45,78.13,76.95,78.13c11.49,0,22.4-2.56,32.19-7.15l4.25,20.74,38.08,1.02,25.72-72.58-6.01-26.46Z" clip-rule="evenodd" fill="none" stroke-width="0"></path>
    </clipPath>
    <clipPath id="clippath-5">
      <path d="M472.74-245.63h-146.41c-1.33,0-2.39-1.22-2.26-2.62l11.12-157.52c.11-1.23,1.09-2.17,2.26-2.17h146.41c1.33,0,2.39,1.22,2.26,2.62l-11.12,157.52c-.11,1.23-1.09,2.17-2.26,2.17Z" fill="none" stroke-width="0"></path>
    </clipPath>
  </defs>
  <g clip-path="url(#clippath)">
    <path d="M74.91,204.34l109.89-124.92c5.64-6.41,13.23-10.8,21.6-12.49,8.37-1.69,17.07-.59,24.75,3.14l160.89,77.98c5.3,2.57,9.95,6.3,13.6,10.93,3.65,4.62,6.21,10.01,7.49,15.76l34.03,153.34c1.99,8.97.76,18.35-3.49,26.49-4.24,8.15-11.22,14.54-19.7,18.05l-172.41,71.36c-5.25,2.17-10.91,3.17-16.58,2.93-5.68-.24-11.23-1.71-16.28-4.32l-132.39-68.39c-6.37-3.29-11.7-8.27-15.43-14.38-3.73-6.12-5.7-13.15-5.7-20.31v-109.37c0-9.5,3.46-18.67,9.73-25.8Z" fill="#c1d9fd" stroke-width="0"></path>
    <path d="M74.91,204.34l109.89-124.92c5.64-6.41,13.23-10.8,21.6-12.49,8.37-1.69,17.07-.59,24.75,3.14l160.89,77.98c5.3,2.57,9.95,6.3,13.6,10.93,3.65,4.62,6.21,10.01,7.49,15.76l34.03,153.34c1.99,8.97.76,18.35-3.49,26.49-4.24,8.15-11.22,14.54-19.7,18.05l-172.41,71.36c-5.25,2.17-10.91,3.17-16.58,2.93-5.68-.24-11.23-1.71-16.28-4.32l-132.39-68.39c-6.37-3.29-11.7-8.27-15.43-14.38-3.73-6.12-5.7-13.15-5.7-20.31v-109.37c0-9.5,3.46-18.67,9.73-25.8Z" fill="none" stroke-width="0"></path>
    <g>
      <g>
        <path d="M253.51,251.56l14.18,22.6-33.53,14.29-30.32-13.99,12.35-24.73c.52.04,37.32,1.83,37.32,1.83Z" fill="#f8bea2" stroke-width="0"></path>
        <path d="M234.14,289.54l-31.66-14.61,13.11-26.26.68.06c.6.04,24.65,1.22,37.28,1.83l.52.03,15.08,24.03-35.02,14.92ZM205.19,273.98l28.98,13.37,32.04-13.66-13.28-21.16c-5.15-.25-31.52-1.53-36.15-1.77l-11.59,23.22Z" fill="#121212" stroke-width="0"></path>
      </g>
      <g>
        <path d="M316.94,550.07l21.27-39.56s-21.69-39.12-25.52-54.01c-3.05-11.87-3.92-58.36-4.15-76.74-.03-2.36,3.02-3.35,4.36-1.41,33.23,48.04,35.94,103.25,35.94,103.25l40.2,26.37c23.82-29.35-3.61-85.49-4.04-86.76-.43-1.28-39.12-80.81-39.12-80.81-32.22-60.29-85.4-78.25-85.4-78.25-13.48,26.7-30.98,23.12-41.08,15.76-7.71-5.62-11.28-13.53-11.28-13.53,0,0-27.04,14.22-49.68,28.9-22.64,14.68-29.76,64.79-29.92,65.91l-20.81,89.82c-1.9,8.2-7.86,34.64-7.61,43.06.49,16.56,4,39.76,30.57,19.55,15-13.52,30.91-103.87,34.08-111.77,4-9.95,11.55,4.66,9.82,29.98-2.31,33.59-28.17,147.01-28.17,147.01,0,0,125.84,59.78,170.56-26.79" fill="#fcc018" stroke-width="0"></path>
        <path d="M233.03,597.97c-5.85,0-11.93-.35-18.22-1.05-36.79-4.09-68.51-19.01-68.83-19.16-.42-.2-.65-.67-.55-1.13.26-1.13,25.87-113.73,28.14-146.86,1.36-19.87-2.98-31.42-5.69-32.05-.69-.15-1.51.78-2.2,2.5-.78,1.95-2.5,9.67-4.66,19.45-6.84,30.83-18.28,82.42-29.68,92.69-9.61,7.31-17.18,9.68-22.59,7.1-8.04-3.84-9.36-17.46-9.66-27.36-.25-8.21,5.25-33.02,7.63-43.31l20.8-89.82c.76-5.26,8.19-52.16,30.35-66.52,22.42-14.53,49.49-28.8,49.76-28.94.24-.13.53-.15.79-.06.26.09.47.28.59.53.04.08,3.56,7.74,10.95,13.13,3.54,2.58,10.73,6.59,19.08,4.58,7.87-1.9,14.77-8.62,20.51-19.99.22-.44.74-.66,1.21-.5.54.18,53.93,18.78,85.97,78.72,3.98,8.18,38.75,79.66,39.19,80.96.03.07.13.3.29.65,6.72,14.98,9.96,27.53,11.5,35.42,1.93,9.9,2.48,18.98,1.62,26.96-1.06,9.87-4.27,18.17-9.54,24.67-.32.4-.89.49-1.33.21l-40.2-26.37c-.27-.17-.43-.47-.45-.79-.03-.55-3.09-55.49-35.76-102.73-.43-.62-1.08-.68-1.55-.52-.48.15-.99.59-.98,1.36.23,19.11,1.1,64.8,4.12,76.5,3.76,14.59,25.21,53.38,25.43,53.77.17.3.17.66,0,.96l-21.16,39.35c-.02.07-.04.13-.08.19-10.32,19.98-25.82,33.83-46.06,41.19-11.46,4.16-24.45,6.25-38.77,6.25ZM147.57,576.29c4.92,2.23,34.12,14.94,67.51,18.65,21.35,2.37,40.21.65,56.06-5.11,19.67-7.15,34.76-20.61,44.83-40.01.02-.08.05-.15.09-.22l21.01-39.08c-2.6-4.72-21.71-39.64-25.35-53.77-3.06-11.91-3.94-57.79-4.18-76.97-.02-1.53.91-2.82,2.38-3.29,1.45-.46,2.95.04,3.81,1.29,31.31,45.27,35.69,97.53,36.09,103.26l39.01,25.59c8.78-11.36,11.11-27.94,6.95-49.29-1.52-7.79-4.72-20.18-11.37-34.99-.21-.46-.33-.75-.36-.83-.6-1.53-25.82-53.46-39.08-80.7-29.48-55.16-77.24-74.87-84.02-77.44-5.94,11.43-13.14,18.24-21.42,20.24-9.14,2.21-16.91-2.13-20.73-4.91-6.33-4.62-9.91-10.65-11.13-12.97-4.89,2.6-28.66,15.38-48.7,28.37-21.43,13.89-28.71,59.96-29.47,65.17,0,.03-.02.1-.02.13l-20.8,89.82c-2.36,10.21-7.82,34.82-7.58,42.8.44,14.71,3.22,23.09,8.52,25.62,4.68,2.23,11.55-.07,20.45-6.83,10.86-9.79,22.66-63,29-91.58,2.27-10.26,3.92-17.67,4.76-19.76,1.44-3.59,3.24-4,4.5-3.71,4.54,1.04,8.6,14.39,7.24,34.13-2.19,31.81-25.71,136.2-28.01,146.38Z" fill="#121212" stroke-width="0"></path>
      </g>
      <path d="M193.86,198.55s-4.4-34.98,14.12-42.75c18.52-7.77,32.44-11.72,51.23-9.4,32.92,4.06,20.3,53.01,20.3,53.01" fill="#f8bea2" stroke-width="0"></path>
      <path d="M280.49,199.67l-1.94-.5c.07-.27,6.92-27.5-3.22-42.39-3.64-5.34-9.1-8.5-16.23-9.38-18.5-2.29-32.1,1.51-50.73,9.33-17.61,7.39-13.56,41.36-13.52,41.7l-1.98.25c-.05-.36-1.1-8.98.12-18.71,1.64-13.09,6.69-21.76,14.62-25.08,18.95-7.95,32.81-11.81,51.74-9.47,7.72.95,13.66,4.4,17.64,10.24,4.49,6.59,6.44,16.01,5.8,28.01-.47,8.87-2.22,15.72-2.29,16Z" fill="#221f1f" stroke-width="0"></path>
      <g>
        <path d="M265.11,115.29c-27.83-10.86-41.67,16.73-53.37,20.08-11.69,3.34-24.94-8.76-27.32-8.76-1.27,0-6.77,17.6,2.15,28.03-.3,11.4.22,41.15,7.32,41.52,0,0,5.1,3.07,6.91-5.82,1.1-5.41,1.97-16.51,2.09-24.51,6.07,2.88,12.47,2.65,31.07-2.27,19.36-5.13,32.53-3.43,40.73-.63-.31,7.98.25,21.16,1.3,27.25,1.54,8.93,6.73,6.01,6.73,6.01,5.52-.13,6.56-19.51,6.52-33.83,2.98-12.68-1.97-38.45-24.13-47.09h.01Z" fill="#722d18" stroke-width="0"></path>
        <path d="M195.88,197.67c-1.04,0-1.89-.34-2.28-.53-8.53-1.05-8.23-34.4-8.04-42.15-7.62-9.28-4.74-23.56-2.8-27.77.38-.83.85-1.61,1.67-1.61.89,0,2.07.7,4.63,2.28,5.36,3.3,14.33,8.83,22.42,6.52,3.37-.96,7.05-4.17,11.31-7.89,9.63-8.4,22.82-19.91,42.69-12.15.03.01.06.03.1.04,23.2,9.12,27.5,35.73,24.66,48.09.09,33.27-5.21,34.61-7.27,34.71-.62.28-2.31.87-4.08.03-1.95-.93-3.26-3.24-3.88-6.87-.99-5.76-1.61-18.26-1.34-26.71-7.61-2.45-20.47-4.15-39.45.88-17.05,4.51-24.15,5.24-30.35,2.81-.19,7.53-.98,17.8-2.08,23.2-.73,3.61-2.11,5.88-4.09,6.75-.63.28-1.25.38-1.81.38ZM184.72,127.71c-1.52,2.56-4.98,17.41,2.6,26.28.16.19.25.43.24.68-.68,26.05,2.78,40.31,6.38,40.5.16,0,.32.06.46.14.04.02,1.25.71,2.5.15,1.32-.59,2.33-2.43,2.91-5.31,1.15-5.65,1.96-16.8,2.07-24.32,0-.34.18-.65.47-.83.29-.18.65-.2.96-.05,6.07,2.88,12.6,2.38,30.38-2.33,20.06-5.31,33.54-3.26,41.31-.61.42.14.69.54.68.99-.33,8.33.29,21.22,1.28,27.04.5,2.89,1.45,4.76,2.75,5.39,1.23.6,2.46-.06,2.51-.08.14-.08.3-.12.46-.12,2.73-.07,5.62-8.72,5.54-32.83,0-.08,0-.16.03-.23,2.76-11.74-1.3-37.27-23.52-45.93-.03-.01-.06-.03-.09-.04-18.68-7.23-30.8,3.34-40.54,11.84-4.44,3.88-8.28,7.22-12.08,8.31-8.94,2.55-18.38-3.26-24.02-6.74-1.23-.76-2.59-1.6-3.28-1.88Z" fill="#121212" stroke-width="0"></path>
      </g>
      <path d="M260.74,178.1c-.29,0-.58-.13-.78-.37-.16-.2-3.9-4.68-9.59-1.05-.47.3-1.08.16-1.38-.3-.3-.47-.16-1.08.3-1.38,7.23-4.61,12.17,1.43,12.22,1.49.34.43.27,1.06-.16,1.41-.18.15-.41.22-.62.22Z" fill="#121212" stroke-width="0"></path>
      <path d="M224.75,178.1c-.29,0-.58-.13-.78-.37-.16-.2-3.9-4.68-9.59-1.05-.47.3-1.08.16-1.38-.3-.3-.47-.16-1.08.3-1.38,7.23-4.61,12.17,1.43,12.22,1.49.34.43.27,1.06-.16,1.41-.18.15-.41.22-.62.22Z" fill="#121212" stroke-width="0"></path>
      <path d="M197.69,198.55s-.12-21.12-11.26-14.75c-11.14,6.35-3.01,27.16,9.84,30.56,0,0,.36,10.65,2.52,17.73,3.61,11.8,12.25,22.58,32.68,23.15,22.18.61,34.18-1.28,41.61-22.16,1.43-4.03,2.69-13.6,3.82-18.72h.03c12.86-3.4,21-24.21,9.84-30.56-11.14-6.35-11.26,14.75-11.26,14.75" fill="#f8bea2" stroke-width="0"></path>
      <path d="M237.81,256.34c-2.04,0-4.16-.04-6.36-.1-17.61-.49-28.92-8.52-33.61-23.86-1.87-6.14-2.41-14.72-2.53-17.27-8.17-2.57-14-11.58-14.97-19.06-.77-5.87,1.28-10.66,5.6-13.13,2.71-1.55,5.11-1.75,7.13-.59,5.49,3.17,5.63,15.67,5.63,16.2,0,.55-.44,1-.99,1.01h0c-.55,0-1-.44-1-.99-.02-3.3-.89-12.33-4.63-14.48-1.37-.79-3.05-.6-5.14.59-4.91,2.8-5,8.18-4.61,11.13.92,7.04,6.49,15.55,14.21,17.6.43.11.73.49.74.93,0,.11.38,10.6,2.48,17.48,4.41,14.43,15.1,21.98,31.75,22.44,22.21.62,33.46-1.31,40.64-21.5.88-2.48,1.73-7.36,2.49-11.66.45-2.6.88-5.05,1.3-6.94.09-.41.43-.72.84-.77,7.69-2.09,13.22-10.56,14.13-17.58.38-2.95.3-8.32-4.62-11.12-2.08-1.19-3.76-1.38-5.14-.59-3.74,2.16-4.61,11.18-4.63,14.47,0,.55-.45.99-1,.99h0c-.55,0-1-.45-.99-1.01,0-.53.14-13.02,5.63-16.19,2.02-1.16,4.41-.96,7.13.58,4.33,2.47,6.38,7.25,5.61,13.12-.98,7.53-6.88,16.61-15.13,19.12-.37,1.76-.75,3.95-1.16,6.26-.8,4.6-1.63,9.35-2.57,11.99-7.07,19.87-18.62,22.93-36.22,22.93Z" fill="#121212" stroke-width="0"></path>
      <path d="M279.91,200.34c-.06,0-.11,0-.17-.01-.54-.09-.91-.61-.81-1.16.11-.65,1.18-6.4,3.98-7.87.89-.47,1.88-.48,2.85-.02.5.23.72.83.48,1.33-.23.5-.83.72-1.33.48-.52-.24-.85-.14-1.08-.02-1.46.76-2.58,4.36-2.94,6.44-.08.49-.51.83-.98.83Z" fill="#121212" stroke-width="0"></path>
      <path d="M192.31,200.34c-.48,0-.9-.34-.98-.83-.36-2.09-1.48-5.68-2.94-6.44-.23-.12-.56-.23-1.08.02-.5.23-1.1.02-1.33-.48-.23-.5-.02-1.1.48-1.33.97-.45,1.96-.44,2.85.02,2.8,1.46,3.87,7.22,3.98,7.87.09.54-.27,1.06-.81,1.16-.06,0-.12.01-.17.01Z" fill="#121212" stroke-width="0"></path>
      <path d="M238.61,236.83c-.33,0-.66,0-1-.02-12.7-.58-16.21-10.08-16.35-10.48-.18-.52.09-1.09.61-1.28.52-.18,1.09.09,1.28.61.13.35,3.25,8.64,14.55,9.15,11.37.48,15.54-8.75,15.58-8.84.22-.5.81-.74,1.32-.52.51.22.74.81.52,1.32-.04.1-4.53,10.06-16.5,10.06Z" fill="#121212" stroke-width="0"></path>
      <path d="M219.84,208.54c2.31,0,4.18-3.66,4.18-8.17s-1.87-8.17-4.18-8.17-4.18,3.66-4.18,8.17,1.87,8.17,4.18,8.17Z" fill="#121212" stroke-width="0"></path>
      <path d="M255.52,208.54c2.31,0,4.18-3.66,4.18-8.17s-1.87-8.17-4.18-8.17-4.18,3.66-4.18,8.17,1.87,8.17,4.18,8.17Z" fill="#121212" stroke-width="0"></path>
      <path d="M238.85,218.72c-.33,0-.65-.16-.84-.46-.3-.46-.17-1.08.3-1.38,4.34-2.81,6.5-5.58,6.24-7.99-.35-3.2-4.88-5.58-6.6-6.22-.52-.19-.78-.77-.58-1.29.19-.52.77-.78,1.29-.58.3.11,7.34,2.81,7.89,7.88.35,3.26-2.05,6.59-7.14,9.89-.17.11-.36.16-.54.16Z" fill="#121212" stroke-width="0"></path>
      <path d="M191.31,205.33c-.06,0-.11,0-.17-.01-3.55-.61-4.33-4.37-4.25-6.27.03-.55.51-.97,1.04-.95.55.02.98.49.95,1.04h0c0,.15-.12,3.74,2.59,4.21.54.09.91.61.82,1.16-.08.49-.51.83-.98.83Z" fill="#121212" stroke-width="0"></path>
      <path d="M282.71,205.65c-.48,0-.9-.34-.98-.83-.09-.54.27-1.06.81-1.16,2.7-.47,2.59-4.06,2.59-4.21-.02-.55.41-1.02.96-1.04.54,0,1.02.4,1.04.95.09,1.9-.69,5.65-4.24,6.27-.06,0-.12.01-.17.01Z" fill="#121212" stroke-width="0"></path>
      <g>
        <path d="M221.2,279.15s12.96,10.29,28.09-1.19l-15.5,24.86-12.59-23.67Z" fill="#f8f9f9" stroke-width="0"></path>
        <path d="M233.79,303.82s-.02,0-.03,0c-.36-.01-.68-.21-.85-.53l-12.59-23.67c-.22-.42-.12-.93.24-1.24.36-.3.89-.31,1.26-.02.51.4,12.56,9.66,26.86-1.21.38-.29.92-.27,1.28.06.36.33.43.86.17,1.27l-15.5,24.86c-.18.29-.5.47-.85.47ZM223.76,281.83l10.1,18.99,12.19-19.56c-9.54,5.24-17.93,2.7-22.29.57Z" fill="#121212" stroke-width="0"></path>
      </g>
      <g>
        <path d="M257.64,257.38s1.84,6.35-6.79,18.36c-8.62,12.02-17.06,27.07-17.06,27.07l18.48-3.86-6.53-7.04,30.95-7.71s-1.52-23.88-19.05-26.82Z" fill="#96b6c5" stroke-width="0"></path>
        <path d="M233.79,303.81c-.31,0-.62-.15-.81-.41-.23-.32-.26-.74-.07-1.08.08-.15,8.57-15.24,17.12-27.17,8.24-11.48,6.66-17.44,6.64-17.5-.09-.33-.01-.69.21-.94s.58-.37.91-.32c18.1,3.03,19.86,27.49,19.88,27.74.03.48-.29.92-.76,1.03l-29.31,7.3,5.38,5.8c.25.26.33.64.22.98s-.4.6-.75.67l-18.48,3.86c-.07.01-.14.02-.21.02ZM258.79,258.64c.09,2.65-.64,8.65-7.13,17.69-6.69,9.33-13.34,20.62-15.9,25.05l14.57-3.05-5.33-5.74c-.24-.26-.33-.63-.22-.97.1-.34.37-.6.72-.69l30.11-7.5c-.46-4.02-3.22-21.48-16.81-24.8Z" fill="#121212" stroke-width="0"></path>
      </g>
      <g>
        <path d="M212.56,257.09s-.86,5.71,6.79,18.36c7.65,12.65,14.44,27.37,14.44,27.37l-15.87-4.16,6.53-7.04-30.95-7.71s1.52-23.88,19.05-26.82h.01Z" fill="#96b6c5" stroke-width="0"></path>
        <path d="M233.79,303.82c-.08,0-.17-.01-.25-.03l-15.87-4.16c-.34-.09-.61-.35-.71-.69-.1-.34-.01-.7.23-.96l5.38-5.8-29.31-7.3c-.47-.12-.79-.55-.76-1.03.02-.25,1.78-24.71,19.88-27.74.34-.05.7.07.93.33.19.22.28.51.24.79-.01.09-.62,5.68,6.65,17.7,7.59,12.55,14.42,27.32,14.49,27.47.16.35.11.76-.14,1.06-.19.23-.48.36-.77.36ZM219.79,298.12l12.18,3.19c-2.1-4.4-7.56-15.56-13.48-25.34-5.74-9.49-6.79-15.22-6.94-17.66-13.75,3.22-16.52,20.8-16.98,24.84l30.11,7.5c.34.09.62.35.72.69.1.34.02.71-.22.97l-5.4,5.81Z" fill="#121212" stroke-width="0"></path>
      </g>
      <path d="M297.37,526.3c-.34,0-.67-.17-.86-.49-.28-.47-.13-1.09.35-1.37.22-.13,21.8-12.89,41.27-14.49.57-.03,1.03.37,1.08.92.04.55-.37,1.03-.92,1.08-19,1.56-40.2,14.08-40.41,14.21-.16.1-.34.14-.51.14Z" fill="#121212" stroke-width="0"></path>
      <path d="M296.11,551.5c-.25,0-.51-.1-.71-.29-.39-.39-.39-1.02,0-1.41.12-.12.59-.67,1.36-1.55,19.3-22.1,32.46-34.85,39.13-37.9.5-.23,1.1,0,1.33.49s0,1.1-.49,1.33c-4.4,2.02-14.65,10.14-38.45,37.4-.98,1.12-1.32,1.51-1.45,1.64-.19.19-.45.29-.7.29Z" fill="#121212" stroke-width="0"></path>
      <path d="M391.8,478.45c-.55,0-1-.45-1-1,0-18.74-5.62-33.95-5.68-34.1-.19-.52.07-1.09.59-1.29.51-.19,1.09.07,1.29.59.06.15,5.8,15.71,5.8,34.8,0,.55-.45,1-1,1Z" fill="#121212" stroke-width="0"></path>
      <path d="M256.57,594.79l-2.21-17.9c-.25-2-.57-4.16-1.02-6.8-4.07-23.69-12.13-122.54-10.47-158.24,1.59-34.18-9.94-108.13-10.06-108.87l1.98-.31c.12.75,11.68,74.9,10.08,109.28-1.61,34.77,6.49,134.81,10.44,157.81.46,2.67.79,4.86,1.04,6.89l2.21,17.9-1.98.24Z" fill="#121212" stroke-width="0"></path>
      <g>
        <path d="M395.57,512.28l-48.91-32.32-17.44,31.04,39.97,25.95,26.37-24.67Z" fill="#96b6c5" stroke-width="0"></path>
        <path d="M369.31,538.21l-41.42-26.89,18.42-32.79,50.86,33.61-27.87,26.07ZM330.56,510.67l38.53,25.02,24.87-23.27-46.95-31.03-16.45,29.28Z" fill="#121212" stroke-width="0"></path>
      </g>
      <path d="M361.49,498.87c-.19,0-.39-.06-.56-.17l-14.99-10.2c-.46-.31-.58-.93-.26-1.39.31-.46.93-.58,1.39-.26l14.99,10.2c.46.31.58.93.26,1.39-.19.28-.51.44-.83.44Z" fill="#221f1f" stroke-width="0"></path>
      <path d="M256.79,181.16c-9.91,0-17.95,8.03-17.95,17.95,0,.52.03,1.05.07,1.57.1,0,.19,0,.29.04.29.1,7.15,2.74,7.67,7.67.16,1.54-.31,3.09-1.4,4.64,3.09,2.5,7.02,4.02,11.29,4.02,9.91,0,17.95-8.03,17.95-17.95s-8.03-17.95-17.95-17.95h.01Z" fill="#acdff2" opacity=".27" stroke-width="0"></path>
      <path d="M219.79,217.05c9.91,0,17.95-8.04,17.95-17.95s-8.04-17.95-17.95-17.95-17.95,8.03-17.95,17.95,8.03,17.95,17.95,17.95Z" fill="#acdff2" opacity=".27" stroke-width="0"></path>
      <path d="M219.79,218.05c-10.45,0-18.95-8.5-18.95-18.95s8.5-18.95,18.95-18.95,18.95,8.5,18.95,18.95-8.5,18.95-18.95,18.95ZM219.79,182.16c-9.34,0-16.95,7.6-16.95,16.95s7.6,16.95,16.95,16.95,16.95-7.6,16.95-16.95-7.6-16.95-16.95-16.95Z" fill="#121212" stroke-width="0"></path>
      <path d="M256.79,218.04c-4.96,0-10.11-1.58-13.12-4.02-.41-.33-.49-.92-.19-1.35.96-1.37,1.36-2.66,1.22-3.97-.44-4.17-6.54-6.65-6.98-6.82-.48-.05-.94-.43-.98-.91-.04-.51.12-1.02.29-1.56.08-.27.18-.56.26-.89,2.63-11.25,10.03-18.27,19.33-18.35.06-.01.12-.02.18-.02,10.45,0,18.95,8.5,18.95,18.95s-8.5,18.95-18.95,18.95ZM245.65,212.99c2.73,1.84,7.07,3.05,11.15,3.05,9.34,0,16.95-7.6,16.95-16.95s-7.51-16.86-16.78-16.95c-.05,0-.11.01-.16.01-10.05,0-15.66,8.68-17.56,16.81-.09.38-.2.73-.3,1.04-.02.06-.04.12-.06.18,1.67.7,7.3,3.43,7.81,8.3.16,1.5-.2,3.01-1.05,4.5ZM237.79,201.89h0ZM237.7,201.87s0,0,.01,0c0,0,0,0-.01,0Z" fill="#121212" stroke-width="0"></path>
    </g>
    <g>
      <g>
        <path d="M341.63,485.78h-193.75c-.67,0-1.34-.12-1.96-.39-.62-.26-1.17-.65-1.63-1.15-.46-.49-.81-1.07-1.03-1.71-.22-.64-.3-1.31-.24-1.98l8.92-127.51c.12-1.41.75-2.72,1.78-3.69,1.03-.96,2.39-1.51,3.8-1.53h193.75c.67,0,1.34.12,1.96.39.62.26,1.17.65,1.63,1.15.46.49.81,1.07,1.02,1.71.22.64.3,1.31.24,1.98l-8.92,127.51c-.12,1.41-.75,2.72-1.78,3.69-1.03.97-2.39,1.51-3.8,1.53Z" fill="#fce076" stroke-width="0"></path>
        <path d="M147.8,486.78c-.78,0-1.55-.16-2.27-.47-.75-.32-1.42-.79-1.97-1.38-.56-.6-.97-1.29-1.24-2.07-.27-.77-.36-1.58-.29-2.39l8.92-127.5c.14-1.67.88-3.21,2.1-4.35,1.22-1.14,2.81-1.78,4.47-1.8h193.77c.81,0,1.59.14,2.35.46.75.32,1.42.79,1.97,1.39.55.6.97,1.29,1.24,2.07.27.77.37,1.58.29,2.39l-8.92,127.5c-.14,1.67-.88,3.21-2.1,4.35-1.22,1.14-2.8,1.78-4.47,1.8h-193.77s-.05,0-.08,0ZM351.34,348.82s-.04,0-.06,0h-193.77c-1.15.02-2.27.46-3.12,1.26-.85.8-1.38,1.88-1.47,3.04l-8.92,127.5c-.05.55.02,1.08.19,1.58.17.51.45.96.81,1.35.36.39.8.7,1.29.91.49.21.97.29,1.55.3h193.76c1.17-.02,2.28-.47,3.13-1.26.85-.8,1.38-1.88,1.47-3.04l8.92-127.5c.05-.54-.02-1.08-.19-1.58-.17-.51-.45-.96-.81-1.35-.36-.39-.8-.7-1.29-.91-.47-.2-.98-.3-1.49-.3Z" fill="#121212" stroke-width="0"></path>
      </g>
      <g>
        <circle cx="248.4" cy="418.06" r="19.86" fill="#fcc018" stroke-width="0"></circle>
        <path d="M248.4,438.92c-11.5,0-20.86-9.36-20.86-20.86s9.36-20.86,20.86-20.86,20.86,9.36,20.86,20.86-9.36,20.86-20.86,20.86ZM248.4,399.2c-10.4,0-18.86,8.46-18.86,18.86s8.46,18.86,18.86,18.86,18.86-8.46,18.86-18.86-8.46-18.86-18.86-18.86Z" fill="#121212" stroke-width="0"></path>
      </g>
    </g>
  </g>
  <path d="M236.59,447.95c-.55,0-1.11-.01-1.66-.04-5.78-.24-11.55-1.77-16.69-4.43l-132.39-68.39c-6.53-3.37-12-8.48-15.83-14.75-3.82-6.28-5.84-13.48-5.84-20.83v-109.37c0-9.74,3.54-19.14,9.98-26.46l109.89-124.92c5.75-6.54,13.62-11.09,22.16-12.81,8.54-1.72,17.55-.58,25.39,3.22l160.89,77.98c5.4,2.62,10.23,6.49,13.95,11.2,3.72,4.71,6.38,10.3,7.68,16.16l34.03,153.34c2.04,9.18.77,18.83-3.58,27.17-4.34,8.34-11.52,14.92-20.21,18.51l-172.41,71.36c-4.83,2-10.11,3.04-15.35,3.04ZM75.66,205h0c-6.11,6.95-9.48,15.88-9.48,25.14v109.37c0,6.98,1.92,13.83,5.55,19.79,3.63,5.96,8.83,10.81,15.04,14.02l132.39,68.39c4.89,2.52,10.37,3.98,15.86,4.21,5.5.23,11.08-.76,16.16-2.86l172.41-71.36c8.26-3.42,15.07-9.66,19.2-17.59,4.12-7.92,5.33-17.09,3.4-25.82l-34.03-153.34c-1.24-5.57-3.76-10.88-7.3-15.35-3.54-4.48-8.12-8.16-13.26-10.65l-160.89-77.98c-7.45-3.61-16.01-4.7-24.12-3.06-8.11,1.63-15.58,5.96-21.05,12.17l-109.89,124.92Z" fill="#121212" stroke-width="0"></path>
  <g>
    <g>
      <circle cx="106.41" cy="170.31" r="55.51" fill="#f9c900" stroke-width="0"></circle>
      <path d="M106.42,226.83c-31.16,0-56.51-25.35-56.51-56.51s25.35-56.51,56.51-56.51,56.51,25.35,56.51,56.51-25.35,56.51-56.51,56.51ZM106.42,115.8c-30.06,0-54.51,24.45-54.51,54.51s24.45,54.51,54.51,54.51,54.51-24.45,54.51-54.51-24.45-54.51-54.51-54.51Z" fill="#15162e" stroke-width="0"></path>
    </g>
    <path d="M104.9,193.03v-37.24l-8.54,5.22v-8.42l8.54-5.12h7.78v45.56h-7.78Z" fill="#121212" stroke-width="0"></path>
  </g>
  <g>
    <g>
      <path d="M305.9,232.74c0-43.15,34.45-78.13,76.95-78.13s76.95,34.98,76.95,78.13-34.45,78.13-76.95,78.13-76.95-34.98-76.95-78.13Z" fill="#c1d9fd" fill-rule="evenodd" stroke-width="0"></path>
      <path d="M382.85,311.88c-42.98,0-77.95-35.5-77.95-79.13s34.97-79.13,77.95-79.13,77.95,35.5,77.95,79.13-34.97,79.13-77.95,79.13ZM382.85,155.61c-41.88,0-75.95,34.6-75.95,77.13s34.07,77.13,75.95,77.13,75.95-34.6,75.95-77.13-34.07-77.13-75.95-77.13Z" fill="#121212" stroke-width="0"></path>
    </g>
    <g clip-path="url(#clippath-1)">
      <g clip-path="url(#clippath-2)">
        <g>
          <g>
            <g>
              <path d="M451.28,253.17s-.79-6.18-3.87-7.8c0,0-2.14-1.31-2.12,1.14.03,2.45,2.41,4.86,2.01,8.29s-.65,7.32,1.1,10.74c0,0,.54.51-.25,3.2-.55,1.84-1.53,5.67-2.1,7.9-.48,1.88-.26,3.89.7,5.56.76,1.32,2.03,2.57,4.15,2.97,5.07.95,6.2-3.11,6.68-4.84.39-1.38.2-7.69.11-10.18-.02-.59.31-1.14.84-1.37,1.63-.74,5.19-2.59,7.73-5.74l6.36-3.51s3.05-1.09,2.35-2.9-4.88.47-4.88.47c0,0-7.95,3.94-2.62-.27,5.33-4.21,8.02-5.68,7.1-7.79-.92-2.11-3.1-.25-4.83,1.11s-5,3.79-5,3.79c0,0-.79.7-1.51.92-.89.27-1.62-.04-.25-1.37,2.48-2.4,7.61-8.66,7.61-8.66,0,0,1.37-2-.32-2.87-1.69-.86-2.44-.46-3.79,1.18-1.15,1.38-5.25,6.36-6.47,7.84-.31.38-.74.64-1.21.71-.59.08-1.13-.17-.34-1.87l5.06-6.43s2.53-3.4,1.5-4.16-3.16-.52-4.51,1.7-6.64,9.46-6.64,9.46c0,0-2.46,3.26-2.59,2.81Z" fill="#c68f79" stroke-width="0"></path>
              <path d="M452.37,286.05c-.49,0-1.02-.05-1.6-.16-2.01-.38-3.62-1.53-4.66-3.33-1.03-1.79-1.31-4.02-.78-6.12.55-2.15,1.55-6.03,2.11-7.93.53-1.8.39-2.44.36-2.55-.02-.03-.04-.06-.06-.09-1.85-3.62-1.58-7.66-1.18-11.17.2-1.78-.43-3.28-1.04-4.73-.5-1.17-.96-2.28-.97-3.46-.01-1,.29-1.69.9-2.03.98-.55,2.22.16,2.36.25,2.45,1.29,3.56,5.02,3.99,7.04.45-.52,1.01-1.22,1.48-1.85.05-.06,5.28-7.23,6.6-9.4.78-1.28,1.89-2.13,3.13-2.37.91-.18,1.81-.01,2.46.46.29.21.48.53.53.91.21,1.37-1.38,3.63-1.88,4.3l-5.01,6.38c-.14.32-.22.54-.25.69.24-.07.43-.21.58-.4,1.22-1.49,5.32-6.46,6.47-7.85,1.49-1.79,2.58-2.46,4.71-1.37.78.4,1.08.99,1.19,1.41.3,1.2-.49,2.41-.58,2.54-.24.3-4.79,5.84-7.36,8.43.17-.12.31-.24.39-.31.08-.06,3.33-2.48,5.03-3.82l.26-.21c1.37-1.08,2.92-2.31,4.29-1.96.63.16,1.11.61,1.43,1.35.99,2.28-1.06,3.85-4.78,6.71-.65.5-1.37,1.05-2.14,1.66.48-.21.97-.44,1.42-.67.51-.28,3.23-1.69,4.85-1.1.5.18.87.54,1.06,1.03.22.57.21,1.17-.05,1.72-.59,1.28-2.29,1.99-2.69,2.14l-6.19,3.41c-2.58,3.14-6.05,5-7.91,5.84-.25.11-.41.38-.4.66.12,3.28.26,8.99-.14,10.41-.45,1.6-1.56,5.53-5.94,5.53ZM449.04,265.13c.34.46.53,1.5-.16,3.82-.57,1.94-1.65,6.15-2.09,7.87-.44,1.72-.21,3.55.63,5,.82,1.43,2.05,2.31,3.63,2.6,3.85.72,5.07-1.64,5.82-4.28.25-.89.28-4.7.09-9.97-.03-.9.47-1.72,1.28-2.08,1.42-.64,4.98-2.45,7.45-5.53.06-.08.14-.14.22-.19l6.36-3.51s.07-.04.11-.05c.39-.14,1.58-.7,1.89-1.37.08-.19.09-.36.01-.55-.03-.08-.07-.13-.18-.17-.73-.27-2.57.44-3.65,1.02-4.79,2.38-5.13,1.83-5.44,1.35-.47-.74.2-1.46,1.99-2.87.94-.74,1.79-1.4,2.56-1.99,3.6-2.76,4.82-3.77,4.32-4.92-.12-.28-.26-.45-.42-.49-.63-.17-2.06.95-2.99,1.68l-.26.21c-1.72,1.35-4.98,3.78-5.01,3.8-.04.04-.89.78-1.74,1.03-.84.25-1.53.1-1.84-.42-.52-.88.51-1.88.84-2.2,2.42-2.34,7.5-8.54,7.55-8.6.09-.14.45-.82.33-1.28-.03-.12-.11-.29-.41-.44-1.19-.61-1.56-.59-2.88.99-1.15,1.38-5.24,6.36-6.46,7.84-.44.54-1.04.89-1.69.98-.79.11-1.18-.25-1.34-.47-.51-.68-.15-1.67.22-2.46.02-.05.05-.1.09-.15l5.06-6.43c.9-1.21,1.64-2.67,1.59-3.13-.31-.19-.76-.25-1.22-.16-.48.09-1.39.44-2.14,1.68-1.35,2.22-6.46,9.22-6.67,9.51-2.48,3.29-2.85,3.22-3.29,3.15-.28-.05-.55-.29-.63-.56-.01-.04-.02-.08-.03-.13-.21-1.61-1.23-6.05-3.48-7.23-.33-.2-.76-.32-.88-.25-.03.02-.15.19-.14.71,0,.89.4,1.82.86,2.9.66,1.55,1.4,3.32,1.15,5.49-.38,3.26-.64,7.01.99,10.24ZM447.89,266.08s0,0,0,0c0,0,0,0,0,0ZM447.89,266.08s0,0,0,0c0,0,0,0,0,0ZM447.89,266.08s0,0,0,0t0,0ZM447.89,266.08h0s0,0,0,0ZM447.89,266.08h0Z" fill="#121212" stroke-width="0"></path>
            </g>
            <g>
              <path d="M452.73,254.86s3.69,3.05,2.19,8.53" fill="#c68f79" stroke-width="0"></path>
              <path d="M454.91,264.14c-.07,0-.13,0-.2-.03-.4-.11-.63-.52-.53-.92,1.36-4.96-1.91-7.73-1.94-7.76-.32-.26-.36-.74-.1-1.06.27-.32.74-.36,1.06-.1.17.14,4.05,3.43,2.43,9.31-.09.33-.39.55-.72.55Z" fill="#121212" stroke-width="0"></path>
            </g>
            <g>
              <path d="M458.54,268.77s-1.57.73-2.46.74" fill="#c68f79" stroke-width="0"></path>
              <path d="M456.08,270.26c-.41,0-.74-.33-.75-.74,0-.41.33-.75.74-.76.53,0,1.6-.42,2.15-.67.38-.18.82-.01,1,.36.17.38.01.82-.36,1-.17.08-1.74.8-2.77.81h0Z" fill="#121212" stroke-width="0"></path>
            </g>
            <g>
              <path d="M453.45,268.97s-.98-.06-1.9-.53" fill="#c68f79" stroke-width="0"></path>
              <path d="M453.45,269.72s-.03,0-.04,0c-.05,0-1.15-.07-2.2-.61-.37-.19-.51-.64-.33-1.01.19-.37.64-.52,1.01-.33.76.39,1.6.45,1.6.45.41.03.73.38.7.79-.02.4-.35.71-.75.71Z" fill="#121212" stroke-width="0"></path>
            </g>
          </g>
          <g>
            <path d="M444.52,273.53c-8.02,19.57-12.05,16.63-13.7,12.11-2.51-6.87-.62-8.49-2.44-23.61-2.79-23.14-26.66-30.62-26.66-30.62,0,0-1.53,3.44-4.83,5.88-4.32,3.2-11.81,4.75-17.59-6.85,0,0-26.22,12.87-35.02,29.67,0,0-7.74,12.26-11.81,26.78-2.13,7.6-5.45,37.53,4.74,50.29l12.81-12.44s-7.22-28.75,8.33-50.54c1.1-1.54,2.64.68,2.7,2.57.22,6.88-4.03,33.67-4.12,38.16-.16,8.03-1.78,26.36-1.78,26.36l11.25,35.95,15.3-11.83,11.96,15.35,34.49-13.49s-15.37-52.96-16.36-67.56c-.19-2.87.13-16.13.34-22.19.01-.36.53-.4.59-.04,1.14,6.61,1.66,11.81,2.31,15.88,1.44,8.98,6.67,20.6,17.12,18.76,21.53-3.79,28.21-35.17,28.21-35.17,0,0-15.66-3.01-15.84-3.4Z" fill="#8aa23b" stroke-width="0"></path>
            <path d="M393.66,381.49c-.23,0-.45-.1-.59-.29l-11.5-14.76-14.7,11.38c-.19.15-.45.19-.68.12-.23-.07-.42-.26-.49-.49l-11.25-35.95c-.03-.09-.04-.19-.03-.29.02-.18,1.62-18.4,1.78-26.31.04-1.84.74-7.23,1.56-13.48,1.2-9.17,2.69-20.57,2.56-24.64-.04-1.13-.7-2.23-1.11-2.36-.07-.04-.2.14-.24.19-15.16,21.25-8.28,49.64-8.21,49.92.06.26-.01.53-.21.72l-12.81,12.44c-.15.15-.37.23-.57.21-.21-.01-.41-.11-.54-.28-10.64-13.31-6.85-43.93-4.88-50.96,4.05-14.46,11.82-26.86,11.9-26.98,4.59-8.76,13.96-16.45,21.01-21.35,7.61-5.29,14.24-8.56,14.31-8.59.37-.18.82-.03,1,.34,2.42,4.87,5.31,7.74,8.6,8.53,3.44.83,6.41-.86,7.87-1.94,3.09-2.29,4.57-5.55,4.59-5.58.16-.35.55-.52.91-.41.24.08,24.36,7.9,27.17,31.25.82,6.78.89,10.91.95,13.92.07,3.77.11,5.84,1.45,9.53.38,1.05,1.21,2.81,2.44,2.83,0,0,.02,0,.03,0,1.39,0,4.51-1.97,9.83-14.97.11-.27.37-.46.67-.47.16,0,.33.04.46.13,1.05.41,10.04,2.21,15.56,3.27.2.04.37.15.48.32s.15.37.11.57c-.02.08-1.74,8.04-6.1,16.35-5.82,11.1-13.67,17.8-22.71,19.4-3.33.59-6.38-.08-9.07-1.99-6.41-4.56-8.45-14.46-8.92-17.39-.26-1.62-.5-3.46-.76-5.4-.24-1.78-.49-3.7-.8-5.78-.18,6.54-.35,15.14-.2,17.36.97,14.35,16.18,66.88,16.33,67.4.11.37-.09.77-.45.91l-34.49,13.49c-.09.04-.18.05-.27.05ZM381.71,364.64c.22,0,.44.1.59.29l11.61,14.91,33.33-13.04c-1.85-6.41-15.26-53.26-16.2-67.06-.2-2.89.13-16.14.34-22.27.02-.55.43-.98.98-1.02.57-.03,1.01.33,1.11.87.69,4.01,1.15,7.47,1.56,10.53.27,2.02.5,3.76.76,5.36.45,2.78,2.37,12.18,8.31,16.4,2.34,1.67,5.01,2.25,7.94,1.74,18.95-3.34,26.24-29.1,27.43-33.84-9.32-1.8-13-2.61-14.5-3.06-4.27,10.27-7.86,15.26-10.96,15.26-.02,0-.04,0-.06,0-1.11-.02-2.68-.7-3.82-3.82-1.43-3.92-1.47-6.21-1.54-10.01-.05-2.98-.13-7.06-.94-13.77-2.45-20.34-21.86-28.43-25.54-29.79-.62,1.14-2.15,3.63-4.75,5.56-1.67,1.24-5.08,3.17-9.11,2.2-3.58-.86-6.69-3.77-9.25-8.65-4.1,2.13-26.21,14.1-34.03,29.01-.11.17-7.76,12.4-11.75,26.64-1.82,6.5-5.4,35.92,4.1,48.96l11.9-11.55c-.81-3.68-5.99-30.36,8.54-50.73.7-.99,1.56-.86,1.89-.76,1.24.38,2.12,2.24,2.17,3.74.13,4.19-1.37,15.66-2.58,24.88-.81,6.2-1.51,11.56-1.55,13.32-.15,7.58-1.62,24.5-1.77,26.26l10.88,34.78,14.44-11.17c.14-.11.3-.16.46-.16ZM444.52,273.53h0,0Z" fill="#121212" stroke-width="0"></path>
          </g>
          <g>
            <path d="M347.52,364.54l2.19-1.68,5.05-7.8,1.02-16.21-12.87,8.39,4.61,17.29Z" fill="#c68f79" stroke-width="0"></path>
            <path d="M347.52,365.29c-.08,0-.16-.01-.24-.04-.24-.08-.42-.27-.48-.52l-4.61-17.29c-.08-.31.04-.64.31-.82l12.87-8.4c.24-.15.54-.16.79-.02.25.14.39.41.37.7l-1.02,16.21c0,.13-.05.25-.12.36l-5.05,7.8c-.05.07-.11.14-.17.19l-2.19,1.68c-.13.1-.29.16-.46.16ZM343.77,347.57l4.18,15.68,1.19-.92,4.88-7.53.91-14.52-11.16,7.28Z" fill="#121212" stroke-width="0"></path>
          </g>
          <g>
            <path d="M398.26,225.02l5.29,10.75-11.37,3.74c-1.15.38-2.39.39-3.54.02l-12.42-3.9,6.07-9.82s15.75-.78,15.98-.8Z" fill="#c68f79" stroke-width="0"></path>
            <path d="M390.37,240.55c-.66,0-1.32-.1-1.96-.3l-12.42-3.9c-.22-.07-.4-.24-.48-.45-.08-.22-.06-.46.07-.66l6.07-9.82c.13-.21.35-.34.6-.35,5.38-.27,15.65-.77,15.96-.8.31-.02.6.14.73.42l5.29,10.75c.1.2.1.42.02.62s-.25.35-.46.42l-11.37,3.74c-.67.22-1.36.33-2.04.33ZM377.35,235.21l11.5,3.61c1.01.32,2.08.31,3.08-.02l10.55-3.47-4.69-9.53c-2.37.12-12.14.61-15.09.75l-5.36,8.67Z" fill="#121212" stroke-width="0"></path>
          </g>
          <path d="M407.07,203.2s2.78-7.46,7.8-4.8c5.03,2.67,2.14,11.2-7.17,11.43,0,0-1.12,16.76-15.86,17.14-11.92.3-17.33-3.88-20.48-17.14,0,0-2.42.12-4.5-.51-2.08-.63-3.99-2.35-4.61-3.72-.62-1.37-1.52-5.95,3.32-7.6,4.83-1.66,6.13,5.08,6.13,5.08" fill="#c68f79" stroke-width="0"></path>
          <path d="M390.7,227.73c-11.5,0-16.81-4.61-19.92-17.14-.89,0-2.58-.09-4.13-.55-2.42-.73-4.42-2.67-5.08-4.12-.45-1-.97-3.25-.07-5.33.67-1.54,1.96-2.65,3.84-3.29,1.4-.48,2.68-.39,3.82.26,2.51,1.46,3.26,5.23,3.29,5.39.08.41-.19.8-.59.88-.4.07-.8-.19-.88-.59,0-.03-.66-3.27-2.58-4.38-.75-.43-1.59-.48-2.58-.14-1.46.5-2.45,1.33-2.95,2.47-.72,1.66-.2,3.53.06,4.11.52,1.14,2.25,2.73,4.14,3.31,1.94.59,4.23.48,4.25.48.39-.03.68.23.77.58,3.01,12.68,7.98,16.87,19.73,16.56,5.8-.15,10.1-2.93,12.79-8.26,2.04-4.05,2.34-8.14,2.35-8.18.03-.39.34-.69.73-.7,5.16-.13,8.12-2.9,8.75-5.6.45-1.89-.27-3.54-1.92-4.42-1.01-.54-1.96-.63-2.87-.28-2.45.93-3.87,4.64-3.88,4.68-.14.39-.57.59-.96.44-.39-.14-.58-.58-.44-.96.07-.18,1.66-4.38,4.75-5.56,1.33-.5,2.71-.39,4.11.36,2.25,1.19,3.28,3.53,2.68,6.08-.74,3.14-3.96,6.36-9.52,6.72-.42,3.21-3,16.82-16.52,17.17-.4,0-.79.01-1.17.01Z" fill="#121212" stroke-width="0"></path>
          <path d="M369.8,207.72c-.41,0-.74-.32-.75-.73-.04-1.89-.52-4.84-1.45-5.46-.12-.08-.29-.15-.61-.03-.38.15-.82-.04-.97-.43-.15-.39.04-.82.43-.97.71-.27,1.4-.21,1.98.18,1.89,1.27,2.09,5.78,2.11,6.67,0,.41-.32.76-.73.77h-.02Z" fill="#121212" stroke-width="0"></path>
          <path d="M371.85,205s-5.35-21.95,8.24-23.65c7.76-.97,13.5.69,21.15,3.94,7.65,3.26,5.87,18.79,5.87,18.79" fill="#c68f79" stroke-width="0"></path>
          <path d="M407.07,203.95s-.06,0-.09,0c-.41-.05-.7-.43-.65-.84.02-.14,1.66-14.14-5.38-17.13-7.64-3.25-13.21-4.83-20.76-3.89-2.86.36-5.04,1.62-6.49,3.75-4.07,6-1.29,16.95-1.26,17.06.1.4-.14.81-.54.91-.41.11-.81-.14-.91-.54-.12-.48-2.97-11.73,1.47-18.28,1.7-2.5,4.24-3.99,7.54-4.4,7.89-.99,13.65.64,21.54,4,8.08,3.44,6.36,18.08,6.28,18.7-.05.38-.37.66-.74.66Z" fill="#121212" stroke-width="0"></path>
          <path d="M367.09,205.62s-.04,0-.06,0c-1.76-.13-2.33-1.9-2.38-2.82-.02-.41.29-.77.71-.79.4-.03.77.29.79.71,0,.05.1,1.34.99,1.41.41.03.72.39.69.8-.03.39-.36.69-.75.69Z" fill="#121212" stroke-width="0"></path>
          <path d="M409.14,206.95c-.08,0-.17-.01-.25-.04-.39-.14-.59-.57-.45-.96.3-.84,1.9-5.04,4.09-5.64.47-.13,1.2-.16,1.95.46.32.26.36.74.1,1.06-.27.32-.74.36-1.06.1-.27-.22-.45-.21-.59-.17-1.07.29-2.44,2.92-3.08,4.7-.11.31-.4.5-.71.5Z" fill="#121212" stroke-width="0"></path>
          <path d="M412.81,205.9c-.2,0-.41-.03-.63-.08-.4-.11-.64-.52-.53-.92.11-.4.51-.64.92-.53.88.24,1.37-.99,1.38-1,.15-.39.59-.57.97-.42.38.15.57.59.42.97-.3.75-1.17,1.99-2.53,1.99Z" fill="#121212" stroke-width="0"></path>
          <g>
            <path d="M407.04,203.34s-.18-2.13-.18-5.03c0-2.9-2.63-3.35-3.38-6.1-.75-2.74-2.92-3.5-2.92-3.5,0,0-.98-.45-4.43-3.81-3.45-3.35-6.45-2.44-10.58-2.44-4.13,0-6.53,1.37-8.25,2.59-1.72,1.22-1.58,3.58-1.58,3.58,0,0,0,2.06-.08,5.03-.08,2.97-3.23,2.82-3.23,2.82l-.64,6.74s-.64-4.23-3.9-5.49c0,0-2.33-19.69-2.22-23.38.12-3.7,1.46-4.38,2.4-4.34.94.03,1.16-.42,1.16-.42,0-1.94.54-3.17.99-3.86.28-.43.83-.56,1.3-.34,4.24,2.02,9.69,2.12,12.33,2.02.92-.03,1.67-.73,1.8-1.65l.21-1.56c.08-.56.59-.93,1.14-.83,1.71.34,5.43,1.25,9.92,3.49,5.32,2.65,7.65,4.04,9.84,7.57.98,1.6,2.25,2.97,3.66,4.2,1.25,1.1,2.06,2.62,2.59,3.43,1.12,1.71.56,13.59,0,15.54,0,0-3.98-.23-5.97,5.75h0Z" fill="#121212" stroke-width="0"></path>
            <path d="M407.04,204.1c-.13,0-.25-.03-.37-.1-.25-.14-.39-.41-.38-.69-.04-.45-.18-2.41-.18-5,0-1.3-.63-1.98-1.44-2.84-.72-.77-1.53-1.64-1.92-3.06-.63-2.3-2.38-2.97-2.45-2.99-.25-.11-1.33-.7-4.7-3.97-2.58-2.51-4.8-2.42-7.86-2.29-.7.03-1.43.06-2.2.06-3.83,0-6.1,1.24-7.82,2.45-1.35.96-1.26,2.9-1.26,2.92,0,.04,0,2.11-.08,5.09-.03,1.05-.38,1.91-1.05,2.53-.71.66-1.61.89-2.23.98l-.58,6.11c-.04.38-.35.67-.72.68h-.02c-.37,0-.68-.27-.74-.64,0-.04-.62-3.82-3.43-4.9-.26-.1-.44-.34-.48-.61-.09-.81-2.33-19.78-2.22-23.49.07-2.11.54-3.59,1.39-4.39.5-.47,1.11-.7,1.78-.68.18,0,.31-.01.39-.04.06-1.9.63-3.17,1.1-3.91.48-.74,1.42-1,2.25-.62,4.22,2.01,9.79,2.03,11.98,1.95.55-.02,1.01-.44,1.09-1l.21-1.56c.07-.47.32-.9.71-1.18.38-.28.85-.38,1.32-.29,1.85.37,5.62,1.31,10.11,3.55,5.43,2.71,7.87,4.17,10.14,7.85.86,1.4,2.01,2.71,3.51,4.03,1.1.96,1.85,2.19,2.4,3.08.12.19.22.36.32.51,1.38,2.11.58,14.48.09,16.15-.1.34-.39.56-.76.54-.1.01-3.42-.07-5.19,5.17-.03.12-.08.23-.16.32h0c-.15.18-.36.27-.57.27ZM389.59,181.61c2.41,0,4.64.41,7.06,2.76,3.21,3.12,4.2,3.65,4.24,3.67.02,0,2.47.89,3.32,3.98.29,1.06.91,1.72,1.57,2.43.86.92,1.84,1.97,1.84,3.86,0,.71.01,1.37.03,1.96,1.66-2.62,3.72-3.24,4.75-3.39.53-2.97.81-13.15-.02-14.42-.1-.16-.22-.34-.34-.55-.5-.81-1.18-1.92-2.11-2.73-1.62-1.41-2.86-2.84-3.8-4.37-2.08-3.36-4.27-4.67-9.54-7.3-4.34-2.16-7.96-3.07-9.73-3.42-.07,0-.12.01-.16.04-.03.02-.08.07-.09.16l-.21,1.56c-.18,1.29-1.24,2.25-2.52,2.3-2.87.1-8.33-.03-12.68-2.1-.11-.05-.26-.05-.34.07-.4.62-.87,1.72-.87,3.46,0,.11-.03.23-.08.33-.07.15-.54.87-1.86.84-.29,0-.5.08-.71.27-.31.29-.85,1.12-.92,3.35-.1,3.3,1.82,19.95,2.16,22.84,1.29.62,2.17,1.64,2.77,2.66l.33-3.48c.04-.4.42-.71.78-.68,0,0,1.17.03,1.87-.63.37-.34.55-.82.57-1.47.08-2.96.08-5.01.08-5.01,0-.07-.15-2.75,1.89-4.19,1.91-1.35,4.43-2.72,8.68-2.72.75,0,1.45-.03,2.13-.06.65-.03,1.28-.05,1.9-.05Z" fill="#121212" stroke-width="0"></path>
          </g>
          <path d="M379.46,194.96c-.16,0-.33-.05-.46-.16-.33-.26-.38-.73-.12-1.05.77-.97,2.91-2.38,5.5-.7.35.23.45.69.22,1.04-.23.35-.69.45-1.04.22-2.1-1.37-3.45.3-3.51.37-.15.19-.37.29-.59.29Z" fill="#121212" stroke-width="0"></path>
          <path d="M394.32,194.96c-.16,0-.33-.05-.46-.16-.33-.26-.38-.73-.12-1.05.77-.97,2.91-2.38,5.5-.7.35.23.45.69.22,1.04-.23.35-.69.45-1.04.22-2.1-1.37-3.45.3-3.51.37-.15.19-.37.29-.59.29Z" fill="#121212" stroke-width="0"></path>
          <path d="M388.61,220.46c-5.17,0-7.11-4.38-7.13-4.42-.16-.38.01-.82.39-.99.38-.16.82.01.99.39.07.15,1.68,3.68,6.1,3.51,4.43-.2,5.65-3.47,5.7-3.61.14-.39.57-.59.96-.46.39.14.59.56.46.95-.06.18-1.58,4.37-7.05,4.61-.14,0-.28,0-.42,0Z" fill="#121212" stroke-width="0"></path>
          <path d="M398.07,203.96c0-1.89-.77-3.43-1.72-3.43-.95,0-1.72,1.54-1.72,3.43s.77,3.43,1.72,3.43,1.72-1.54,1.72-3.43Z" fill="#121212" stroke-width="0"></path>
          <path d="M383.35,203.96c0-1.89-.77-3.43-1.72-3.43-.95,0-1.72,1.54-1.72,3.43,0,1.89.77,3.43,1.72,3.43.95,0,1.72-1.54,1.72-3.43Z" fill="#121212" stroke-width="0"></path>
          <path d="M388.51,211.99c-.14,0-.28-.04-.41-.12-2.22-1.46-3.26-2.96-3.1-4.46.25-2.28,3.14-3.45,3.47-3.57.39-.15.82.05.97.43.15.39-.05.82-.43.97-.66.25-2.39,1.17-2.51,2.33-.09.88.75,1.94,2.43,3.04.35.23.44.69.21,1.04-.14.22-.38.34-.63.34Z" fill="#121212" stroke-width="0"></path>
          <g>
            <path d="M351.96,349.61l14.45,27.62,15.3-11.83,11.96,15.35,30.96-12.13c7.1,5.54,37.49,188.12,37.49,188.12l-32.23,5.54c0-11.65-14.2-87.37-20.49-110.11-6.28-22.75-15.57-39.39-15.57-39.39-3.28,5.54,10.65,145.61,10.65,145.61l-31.41,1.67s-5.73-69.34-7.38-90.98c-1.64-21.63-12.66-61.76-12.66-61.76,0,0-8.93-36.7-6.56-41.6,2.37-4.9,5.49-16.11,5.49-16.11h0Z" fill="#c6b8a5" stroke-width="0"></path>
            <path d="M429.88,563.03c-.18,0-.35-.06-.48-.18-.17-.14-.27-.35-.27-.57,0-11.4-13.96-86.39-20.46-109.91-5-18.12-12-32.48-14.53-37.4-1,13.23,5.87,90.86,11.09,143.35.02.2-.04.41-.18.56-.13.16-.33.25-.53.26l-31.42,1.67c-.38.03-.75-.28-.79-.69-.06-.69-5.75-69.59-7.38-90.98-1.62-21.31-12.52-61.21-12.63-61.62-.93-3.8-8.93-37.13-6.51-42.13,2.28-4.7,5.31-15.52,5.43-15.97.07-.26.27-.48.55-.54.34-.08.68.07.84.38l14.04,26.83,14.59-11.29c.33-.26.8-.19,1.05.13l11.61,14.91,30.44-11.93c.25-.1.53-.06.74.11,1.15.9,4.66,3.64,21.69,96.59,8.39,45.81,16.01,91.54,16.09,91.99.07.41-.21.79-.61.86l-32.23,5.54s-.08.01-.13.01ZM393.83,412.03h0c.27,0,.52.15.65.38.09.17,9.4,16.98,15.64,39.55,6.37,23.05,19.88,95.43,20.49,109.42l30.64-5.27c-12-72.03-31.4-179.28-36.83-186.62l-30.49,11.95c-.31.12-.66.02-.87-.24l-11.5-14.76-14.71,11.38c-.18.14-.4.19-.62.14-.22-.05-.4-.19-.5-.38l-13.58-25.96c-.99,3.39-3.2,10.67-5.02,14.43-1.65,3.42,3.05,26.45,6.61,41.1.11.38,11.05,40.42,12.68,61.88,1.53,20.2,6.7,82.78,7.32,90.25l29.9-1.59c-1.75-17.61-13.73-139.78-10.47-145.29.13-.23.38-.37.65-.37Z" fill="#121212" stroke-width="0"></path>
          </g>
          <path d="M391.01,253.89c0-.16-.13-.29-.29-.29s-.29.13-.29.29.13.29.29.29.29-.13.29-.29Z" fill="#121212" stroke-width="0"></path>
          <path d="M389.8,253.89c0-.16-.13-.29-.29-.29s-.29.13-.29.29.13.29.29.29.29-.13.29-.29Z" fill="#121212" stroke-width="0"></path>
          <path d="M390.12,256.24c-1.28,0-2.33-1.05-2.33-2.35s1.04-2.35,2.33-2.35,2.33,1.05,2.33,2.35-1.04,2.35-2.33,2.35ZM390.12,253.04c-.46,0-.83.38-.83.85s.37.85.83.85.83-.38.83-.85-.37-.85-.83-.85Z" fill="#121212" stroke-width="0"></path>
          <path d="M391.01,266.9c0-.16-.13-.29-.29-.29s-.29.13-.29.29.13.29.29.29.29-.13.29-.29Z" fill="#121212" stroke-width="0"></path>
          <path d="M389.8,266.9c0-.16-.13-.29-.29-.29s-.29.13-.29.29.13.29.29.29.29-.13.29-.29Z" fill="#121212" stroke-width="0"></path>
          <path d="M390.12,269.25c-1.28,0-2.33-1.05-2.33-2.35s1.04-2.35,2.33-2.35,2.33,1.05,2.33,2.35-1.04,2.35-2.33,2.35ZM390.12,266.05c-.46,0-.83.38-.83.85s.37.85.83.85.83-.38.83-.85-.37-.85-.83-.85Z" fill="#121212" stroke-width="0"></path>
          <path d="M391.01,279.9c0-.16-.13-.29-.29-.29s-.29.13-.29.29.13.29.29.29.29-.13.29-.29Z" fill="#121212" stroke-width="0"></path>
          <path d="M389.8,279.9c0-.16-.13-.29-.29-.29s-.29.13-.29.29.13.29.29.29.29-.13.29-.29Z" fill="#121212" stroke-width="0"></path>
          <path d="M390.12,282.25c-1.28,0-2.33-1.05-2.33-2.35s1.04-2.35,2.33-2.35,2.33,1.05,2.33,2.35-1.04,2.35-2.33,2.35ZM390.12,279.05c-.46,0-.83.38-.83.85s.37.85.83.85.83-.38.83-.85-.37-.85-.83-.85Z" fill="#121212" stroke-width="0"></path>
          <g>
            <path d="M389.57,305.91c0-.16-.13-.29-.29-.29s-.29.13-.29.29.13.29.29.29.29-.13.29-.29Z" fill="#121212" stroke-width="0"></path>
            <path d="M388.37,305.91c0-.16-.13-.29-.29-.29s-.29.13-.29.29.13.29.29.29.29-.13.29-.29Z" fill="#121212" stroke-width="0"></path>
            <path d="M388.69,308.26c-1.28,0-2.33-1.05-2.33-2.35s1.04-2.35,2.33-2.35,2.33,1.05,2.33,2.35-1.04,2.35-2.33,2.35ZM388.69,305.06c-.46,0-.83.38-.83.85s.37.85.83.85.83-.38.83-.85-.37-.85-.83-.85Z" fill="#121212" stroke-width="0"></path>
          </g>
          <g>
            <path d="M390.2,293.58c0-.16-.13-.29-.29-.29s-.29.13-.29.29.13.29.29.29.29-.13.29-.29Z" fill="#121212" stroke-width="0"></path>
            <path d="M389,293.58c0-.16-.13-.29-.29-.29s-.29.13-.29.29.13.29.29.29.29-.13.29-.29Z" fill="#121212" stroke-width="0"></path>
            <path d="M389.32,295.94c-1.28,0-2.33-1.05-2.33-2.35s1.04-2.35,2.33-2.35,2.33,1.05,2.33,2.35-1.04,2.35-2.33,2.35ZM389.32,292.74c-.46,0-.83.38-.83.85s.37.85.83.85.83-.38.83-.85-.37-.85-.83-.85Z" fill="#121212" stroke-width="0"></path>
          </g>
          <path d="M388.85,317.74c0-.16-.13-.29-.29-.29s-.29.13-.29.29.13.29.29.29.29-.13.29-.29Z" fill="#121212" stroke-width="0"></path>
          <path d="M387.64,317.74c0-.16-.13-.29-.29-.29s-.29.13-.29.29.13.29.29.29.29-.13.29-.29Z" fill="#121212" stroke-width="0"></path>
          <path d="M387.96,320.1c-1.28,0-2.33-1.05-2.33-2.35s1.04-2.35,2.33-2.35,2.33,1.05,2.33,2.35-1.04,2.35-2.33,2.35ZM387.96,316.9c-.46,0-.83.38-.83.85s.37.85.83.85.83-.38.83-.85-.37-.85-.83-.85Z" fill="#121212" stroke-width="0"></path>
          <path d="M387.49,331.05c0-.16-.13-.29-.29-.29s-.29.13-.29.29.13.29.29.29.29-.13.29-.29Z" fill="#121212" stroke-width="0"></path>
          <path d="M386.29,331.05c0-.16-.13-.29-.29-.29s-.29.13-.29.29.13.29.29.29.29-.13.29-.29Z" fill="#121212" stroke-width="0"></path>
          <path d="M386.6,333.41c-1.28,0-2.33-1.05-2.33-2.35s1.04-2.35,2.33-2.35,2.33,1.05,2.33,2.35-1.04,2.35-2.33,2.35ZM386.6,330.21c-.46,0-.83.38-.83.85s.37.85.83.85.83-.38.83-.85-.37-.85-.83-.85Z" fill="#121212" stroke-width="0"></path>
          <path d="M385.95,344.18c0-.16-.13-.29-.29-.29s-.29.13-.29.29.13.29.29.29.29-.13.29-.29Z" fill="#121212" stroke-width="0"></path>
          <path d="M384.75,344.18c0-.16-.13-.29-.29-.29s-.29.13-.29.29.13.29.29.29.29-.13.29-.29Z" fill="#121212" stroke-width="0"></path>
          <path d="M385.06,346.53c-1.28,0-2.33-1.05-2.33-2.35s1.04-2.35,2.33-2.35,2.33,1.05,2.33,2.35-1.04,2.35-2.33,2.35ZM385.06,343.33c-.46,0-.83.38-.83.85s.37.85.83.85.83-.38.83-.85-.37-.85-.83-.85Z" fill="#121212" stroke-width="0"></path>
          <path d="M384.38,357.79c0-.16-.13-.29-.29-.29s-.29.13-.29.29.13.29.29.29.29-.13.29-.29Z" fill="#121212" stroke-width="0"></path>
          <path d="M383.18,357.79c0-.16-.13-.29-.29-.29s-.29.13-.29.29.13.29.29.29.29-.13.29-.29Z" fill="#121212" stroke-width="0"></path>
          <path d="M383.5,360.15c-1.28,0-2.33-1.05-2.33-2.35s1.04-2.35,2.33-2.35,2.33,1.05,2.33,2.35-1.04,2.35-2.33,2.35ZM383.5,356.94c-.46,0-.83.38-.83.85s.37.85.83.85.83-.38.83-.85-.37-.85-.83-.85Z" fill="#121212" stroke-width="0"></path>
          <g>
            <path d="M372.36,234.81c.29,2.42,6.56,12.12,8.87,14.61,3.91-2.14,9.29-9.72,9.29-9.72-5.64-.12-9.8-6.23-11.21-9.27l-6.95,4.38Z" fill="#f8f9f9" stroke-width="0"></path>
            <path d="M381.23,250.17c-.2,0-.4-.08-.55-.24-2.29-2.47-8.74-12.35-9.07-15.03-.04-.29.1-.57.34-.73l6.95-4.38c.18-.11.41-.15.61-.08.21.06.38.21.47.4,1.39,3.01,5.39,8.72,10.55,8.84.28,0,.53.17.65.41.12.25.1.54-.06.77-.22.32-5.53,7.75-9.54,9.94-.11.06-.24.09-.36.09ZM373.21,235.16c.81,2.63,5.82,10.48,8.18,13.3,2.79-1.81,6.24-6.14,7.75-8.14-4.8-.86-8.42-5.53-10.13-8.81l-5.8,3.65Z" fill="#121212" stroke-width="0"></path>
          </g>
          <g>
            <path d="M392.21,239.46c-.73.18-.82.18-1.55.27,0,0,3.31,6.63,8.23,9.82,0,0,10.05-9.97,11.65-13.78,0,0-2.15-1.39-4.39-2.48-2.12-1.04-4.33-1.79-4.42-1.88,0,0-2.78,6.44-9.52,8.05h0Z" fill="#f8f9f9" stroke-width="0"></path>
            <path d="M398.89,250.3c-.14,0-.28-.04-.41-.12-5.03-3.26-8.35-9.84-8.49-10.12-.11-.22-.11-.48.01-.69.12-.21.33-.36.57-.39.68-.08.79-.09,1.36-.23.03-.01.06-.02.09-.03,6.28-1.5,8.97-7.55,9-7.62.1-.23.3-.39.54-.44.19-.04.38,0,.53.09.09.04.29.12.57.23.82.32,2.33.91,3.79,1.62,2.25,1.1,4.38,2.47,4.47,2.53.31.2.43.58.29.92-1.63,3.91-11.4,13.61-11.81,14.02-.14.14-.34.22-.53.22ZM391.84,240.32c1.04,1.81,3.59,5.86,6.96,8.27,1.83-1.85,8.87-9.05,10.77-12.53-.78-.48-2.25-1.35-3.75-2.09-1.4-.69-2.83-1.24-3.68-1.57-.02,0-.04-.01-.05-.02-.93,1.75-3.88,6.38-9.61,7.79-.03.01-.06.02-.1.03-.23.05-.4.09-.54.12ZM392.21,239.46h0,0ZM401.72,231.41h0,0Z" fill="#121212" stroke-width="0"></path>
          </g>
          <path d="M363.5,345.58c-.38,0-.71-.29-.75-.68-.02-.24-.66-6.02-8.23-6.65-.41-.03-.72-.4-.68-.81.03-.41.42-.72.81-.68,8.86.74,9.59,7.94,9.6,8.02.04.41-.27.78-.68.81-.02,0-.04,0-.07,0Z" fill="#121212" stroke-width="0"></path>
          <path d="M364.04,356.53c-.19,0-.39-.07-.53-.22-.21-.21-.29-.46-.82-2.29-1.13-3.85-4.12-14.09-7.6-15.71-.38-.17-.54-.62-.36-1,.17-.38.62-.54,1-.36,3.61,1.68,6.27,9.36,8.41,16.65.22.77.46,1.57.54,1.78.19.29.16.69-.1.95-.15.14-.34.22-.53.22Z" fill="#121212" stroke-width="0"></path>
          <path d="M404.26,369.48c-.3,0-.58-.18-.7-.47-.15-.38.03-.82.42-.98l21.39-8.58c.38-.15.82.03.98.42.15.38-.03.82-.42.98l-21.39,8.58c-.09.04-.19.05-.28.05Z" fill="#121212" stroke-width="0"></path>
          <path d="M410.36,359.33c-.3,0-.58-.18-.7-.47-.15-.38.03-.82.42-.97l13.03-5.2c.39-.16.82.03.97.42.15.38-.03.82-.42.97l-13.03,5.2c-.09.04-.19.05-.28.05Z" fill="#121212" stroke-width="0"></path>
          <g>
            <path d="M341.36,348.36l16.81-11.07-7.33-13.25-20.55,13.8,11.08,10.53Z" fill="#f8f9f9" stroke-width="0"></path>
            <path d="M341.36,349.11c-.19,0-.37-.07-.52-.21l-11.08-10.53c-.17-.16-.25-.38-.23-.61.02-.23.14-.43.33-.56l20.55-13.8c.17-.12.39-.16.59-.11.2.05.38.18.48.37l7.33,13.25c.19.34.08.77-.24.99l-16.81,11.07c-.13.08-.27.12-.41.12ZM331.48,337.93l9.97,9.47,15.73-10.36-6.6-11.93-19.1,12.82Z" fill="#121212" stroke-width="0"></path>
          </g>
          <path d="M344.61,332.43c-.24,0-.47-.11-.62-.32-.24-.34-.15-.81.19-1.04l6.3-4.36c.34-.24.81-.15,1.04.19.24.34.15.81-.19,1.04l-6.3,4.36c-.13.09-.28.13-.43.13Z" fill="#221f1f" stroke-width="0"></path>
          <g>
            <g>
              <path d="M461.75,271l-16.56-4.31-4.74,12.07,21.19,5.38.11-13.15Z" fill="#f8f9f9" stroke-width="0"></path>
              <path d="M461.65,284.9c-.06,0-.12,0-.18-.02l-21.19-5.38c-.21-.05-.38-.19-.48-.38-.1-.19-.11-.42-.03-.62l4.74-12.07c.14-.35.52-.55.89-.45l16.56,4.31c.33.09.56.39.56.73l-.11,13.15c0,.23-.11.45-.29.59-.13.1-.29.16-.46.16ZM441.47,278.25l19.43,4.94.09-11.61-15.35-3.99-4.18,10.66Z" fill="#121212" stroke-width="0"></path>
            </g>
            <path d="M450.66,279.5c-.06,0-.12,0-.17-.02l-6.33-1.49c-.4-.09-.65-.5-.56-.9s.5-.65.9-.56l6.33,1.49c.4.09.65.5.56.9-.08.35-.39.58-.73.58Z" fill="#121212" stroke-width="0"></path>
          </g>
        </g>
      </g>
    </g>
    <path d="M382.85,311.88c-21.05,0-40.77-8.38-55.54-23.61l1.44-1.39c14.39,14.83,33.6,23,54.11,23,11.21,0,22-2.42,32.08-7.2l.86,1.81c-10.35,4.9-21.43,7.39-32.94,7.39Z" fill="#121212" stroke-width="0"></path>
    <g>
      <path d="M447.81,214.93c-11.75,0-21.26-9.67-21.26-21.58s9.51-21.57,21.26-21.57,21.25,9.66,21.25,21.58-9.51,21.58-21.25,21.58v-.02Z" fill="#fcc018" stroke-width="0"></path>
      <path d="M447.81,215.95c-.06,0-.12,0-.18-.02-12.19-.1-22.08-10.19-22.08-22.58s9.98-22.57,22.26-22.57,22.25,10.13,22.25,22.58-9.98,22.58-22.25,22.58ZM447.81,172.79c-11.17,0-20.26,9.23-20.26,20.57s9.09,20.58,20.26,20.58c.06,0,.12,0,.17.01,11.09-.09,20.08-9.29,20.08-20.58s-9.09-20.58-20.25-20.58Z" fill="#121212" stroke-width="0"></path>
    </g>
    <g>
      <path d="M457.68,191.51h-8.17v-8.32c0-1.02-.83-1.87-1.84-1.87s-1.84.85-1.84,1.87v8.32h-8.4c-1.01,0-1.84.85-1.84,1.87s.83,1.87,1.84,1.87h8.4v8.5c0,1.02.83,1.87,1.84,1.87s1.84-.85,1.84-1.87v-8.5h8.17c1.01,0,1.84-.85,1.84-1.87s-.83-1.87-1.84-1.87Z" fill="#f8f9f9" stroke-width="0"></path>
      <path d="M447.67,181.32c1.01,0,1.84.85,1.84,1.87v8.32h8.18c1.01,0,1.84.85,1.84,1.87s-.83,1.87-1.84,1.87h-8.18v8.5c0,1.02-.83,1.87-1.84,1.87s-1.84-.85-1.84-1.87v-8.5h-8.4c-1.01,0-1.84-.85-1.84-1.87s.83-1.87,1.84-1.87h8.4v-8.32c0-1.02.83-1.87,1.84-1.87M447.67,179.32c-2.12,0-3.84,1.74-3.84,3.87v6.32h-6.4c-2.12,0-3.84,1.74-3.84,3.87s1.72,3.87,3.84,3.87h6.4v6.5c0,2.13,1.72,3.87,3.84,3.87s3.84-1.74,3.84-3.87v-6.5h6.18c2.12,0,3.84-1.74,3.84-3.87s-1.72-3.87-3.84-3.87h-6.18v-6.32c0-2.13-1.72-3.87-3.84-3.87h0Z" fill="#121212" stroke-width="0"></path>
    </g>
  </g>
  <g clip-path="url(#clippath-3)">
    <g>
      <path d="M274.04,472.68c-9.55-9.56-12.72-23.77-12.72-23.77l-44.52-2.64-1.24,21.49s8.04,14.81,24.62,15.66c16.59.85,28.92-5.53,28.92-5.53l4.94-5.21Z" fill="#f8bea2" stroke="#121212" stroke-linecap="round" stroke-linejoin="round" stroke-width="2"></path>
      <path d="M126.4,478.69c-.48-5.34.16-22.54.79-26.16l-43.54-6.22s-1.12,14.2-2.71,21.06l45.46,11.32Z" fill="#f8bea2" stroke="#121212" stroke-linecap="round" stroke-linejoin="round" stroke-width="2"></path>
      <path d="M275.97,473.84c-2.52-2.06-6.29-2.18-8.72-.03-.22.21-.45.43-.66.67-2.43,2.88-6.73,3.8-10.49,4.06-7.82.52-19.26.25-23.57-5.04-6.8-8.37-17.06-6.71-18.84-4.71-1.52,1.71-4.22,9.61-5.89,14.77-1.33,4.12-1.98,8.44-1.61,12.75,1.65,19.39,19.02,20.63,19.02,20.63,0,0,83.18,1.57,99.93.52,9.2-.58,10.02-5.43,8.9-9.66-1-3.76-3.54-6.91-6.77-9.05-6.5-4.3-21.2-13.19-39.27-18.94-5.56-1.77-8.95-3.42-12.02-5.94v-.02Z" fill="#908e8d" stroke="#121212" stroke-miterlimit="10" stroke-width="2"></path>
      <path d="M98.49,463.85s-21.54-2.55-32.22,17.39c-10.68,19.94-10.2,32.86,11.65,36.68,21.85,3.83,42.11,1.6,50.88-4.31,8.77-5.91,2.07-34.93-9.1-43.06-9.23-6.73-21.21-6.7-21.21-6.7Z" fill="#908e8d" stroke="#121212" stroke-miterlimit="10" stroke-width="2"></path>
      <path d="M324.34-31.69s7.28,25.79,12.81,37.05c5.53,11.27-15.32,95.7-15.32,95.7,0,0-25.73,92.3-29.56,142.05-3.83,49.76-17.23,209.26-17.23,209.26l-73.37-3.83s32.53-322.18,24.88-334.94c0,0-21.69,38.27-36.36,90.59-14.68,52.31-47.85,226.49-47.85,253.28l-75.28-12.75S138.05,24.76,154.63,12.01l70.01,16.85,30.2-24.24,32.57,3.36,36.92-39.66v-.02Z" fill="#121212" stroke-width="0"></path>
      <path d="M316.94-17.92l21.27-39.56s-21.69-39.12-25.52-54.01c-3.05-11.87-3.92-58.36-4.15-76.74-.03-2.36,3.02-3.35,4.36-1.41,33.23,48.04,35.94,103.25,35.94,103.25l40.2,26.37c23.82-29.35-3.61-85.49-4.04-86.76-.43-1.28-39.12-80.81-39.12-80.81-32.22-60.29-85.4-78.25-85.4-78.25-13.48,26.7-30.98,23.12-41.08,15.76-7.71-5.62-11.28-13.53-11.28-13.53,0,0-27.04,14.22-49.68,28.9-22.64,14.68-29.76,64.79-29.92,65.91l-20.81,89.82c-1.9,8.2-7.86,34.64-7.61,43.06.49,16.56,4,39.76,30.57,19.55,15-13.52,30.91-103.87,34.08-111.77,4-9.95,11.55,4.66,9.82,29.98-2.31,33.59-28.17,147.01-28.17,147.01,0,0,125.84,59.78,170.56-26.79" fill="#fcc018" stroke="#121212" stroke-linecap="round" stroke-linejoin="round" stroke-width="2"></path>
      <path d="M365.53-33.67l-30.62-19.67-17.97,35.41,8.99,13.71c2,3.04,4.49,5.71,7.4,7.89l.84.63,31.37-37.96Z" fill="#f8bea2" stroke="#121212" stroke-linecap="round" stroke-linejoin="round" stroke-width="2"></path>
      <path d="M233.8-265.18s11.68,74.4,10.07,109.07c-1.61,34.68,6.31,133.88,10.46,158.03.39,2.27.75,4.55,1.03,6.85l2.21,17.9" fill="none" stroke="#121212" stroke-miterlimit="10" stroke-width="2"></path>
      <path d="M287.99,479.78s1.16,5.58-9.23,10.08" fill="none" stroke="#121212" stroke-linecap="round" stroke-linejoin="round" stroke-width="2"></path>
      <path d="M298.28,483.49s.25,4.89-7.93,9.8" fill="none" stroke="#121212" stroke-linecap="round" stroke-linejoin="round" stroke-width="2"></path>
      <path d="M86.52,473.57s12.35-7.29,30.32,2.52" fill="none" stroke="#121212" stroke-linecap="round" stroke-linejoin="round" stroke-width="2"></path>
      <path d="M86.52,481.3s12.35-7.29,30.32,2.52" fill="none" stroke="#121212" stroke-linecap="round" stroke-linejoin="round" stroke-width="2"></path>
      <path d="M152.08-7.49s20.9,10.75,38.5,11.78" fill="none" stroke="#121212" stroke-linecap="round" stroke-linejoin="round" stroke-width="2"></path>
    </g>
  </g>
  <g clip-path="url(#clippath-4)">
    <g clip-path="url(#clippath-5)">
      <g>
        <path d="M375.76,3.16s5.28,2.77,12.38,2.41c7.1-.37,10.54-6.81,10.54-6.81l-.53-9.34-19.06,1.15s-1.36,6.18-5.45,10.34l2.11,2.26Z" fill="#c68f79" stroke="#121212" stroke-linecap="round" stroke-linejoin="round" stroke-width="1.5"></path>
        <path d="M456.33-1.41c-.68-2.98-1.16-9.16-1.16-9.16l-18.64,2.7c.27,1.58.54,9.05.34,11.37l19.47-4.92Z" fill="#c68f79" stroke="#121212" stroke-linecap="round" stroke-linejoin="round" stroke-width="1.5"></path>
        <path d="M372.81,1.41c-1.32,1.1-2.77,1.81-5.15,2.58-7.74,2.5-14.03,6.37-16.81,8.24-1.39.93-2.47,2.3-2.9,3.94-.48,1.84-.13,3.95,3.81,4.2,7.17.45,42.79-.23,42.79-.23,0,0,7.43-.54,8.14-8.97.16-1.87-.12-3.75-.69-5.54-.72-2.24-2.08-5.52-2.52-6.42-.56-1.13-1.3-2-4.75,1.12-2.54,2.3-8.24,3.43-11.59,3.19-4.96-.35-7.57-3.19-7.66-3.28-1.04-.93-1.58.27-2.66,1.17h-.01Z" fill="#908e8d" stroke="#121212" stroke-linecap="round" stroke-linejoin="round" stroke-width="1.5"></path>
        <path d="M439.73-.03c-4.78,3.53-7.65,16.15-3.9,18.72,3.76,2.57,12.43,3.54,21.78,1.87,9.36-1.66,9.56-7.28,4.99-15.95-4.57-8.67-13.79-7.56-13.79-7.56,0,0-5.13-.01-9.08,2.91Z" fill="#908e8d" stroke="#121212" stroke-linecap="round" stroke-linejoin="round" stroke-width="1.5"></path>
        <path d="M371.63,8.36c-4.45-1.96-3.95-4.38-3.95-4.38" fill="none" stroke="#121212" stroke-linecap="round" stroke-linejoin="round" stroke-width="1.5"></path>
        <path d="M366.67,9.85c-3.51-2.13-3.4-4.26-3.4-4.26" fill="none" stroke="#121212" stroke-linecap="round" stroke-linejoin="round" stroke-width="1.5"></path>
        <path d="M440.96,2.38c7.7-4.27,12.98-1.1,12.98-1.1" fill="none" stroke="#121212" stroke-linecap="round" stroke-linejoin="round" stroke-width="1.5"></path>
        <path d="M440.96,5.73c7.7-4.27,12.98-1.1,12.98-1.1" fill="none" stroke="#121212" stroke-linecap="round" stroke-linejoin="round" stroke-width="1.5"></path>
      </g>
    </g>
  </g>
</svg>
