<?xml version="1.0" encoding="UTF-8"?>
<svg xmlns="http://www.w3.org/2000/svg" xmlns:xlink="http://www.w3.org/1999/xlink" viewBox="0 0 513 513">
  <defs>
    <clipPath id="clippath">
      <path d="M74.91,204.34l109.89-124.92c5.64-6.41,13.23-10.8,21.6-12.49,8.37-1.69,76.55-26.74,84.23-23.01l101.41,104.13c5.3,2.57,9.95,6.3,13.6,10.93,3.65,4.62,6.21,10.01,7.49,15.76l34.03,153.34c1.99,8.97.76,18.35-3.49,26.49-4.24,8.15-11.22,14.54-19.7,18.05l-172.41,71.36c-5.25,2.17-10.91,3.17-16.58,2.93-5.68-.24-11.23-1.71-16.28-4.32l-132.39-68.39c-6.37-3.29-11.7-8.27-15.43-14.38-3.73-6.12-5.7-13.15-5.7-20.31v-109.37c0-9.5,3.46-18.67,9.73-25.8Z" fill="none" stroke-width="0"></path>
    </clipPath>
  </defs>
  <g id="Layer_1" data-name="Layer 1">
    <g>
      <path d="M74.91,204.34l109.89-124.92c5.64-6.41,13.23-10.8,21.6-12.49,8.37-1.69,17.07-.59,24.75,3.14l160.89,77.98c5.3,2.57,9.95,6.3,13.6,10.93,3.65,4.62,6.21,10.01,7.49,15.76l34.03,153.34c1.99,8.97.76,18.35-3.49,26.49-4.24,8.15-11.22,14.54-19.7,18.05l-172.41,71.36c-5.25,2.17-10.91,3.17-16.58,2.93-5.68-.24-11.23-1.71-16.28-4.32l-132.39-68.39c-6.37-3.29-11.7-8.27-15.43-14.38-3.73-6.12-5.7-13.15-5.7-20.31v-109.37c0-9.5,3.46-18.67,9.73-25.8Z" fill="#c1d9fd" stroke-width="0"></path>
      <path d="M236.59,447.95c-.55,0-1.11-.01-1.66-.04-5.78-.24-11.55-1.77-16.69-4.43l-132.39-68.39c-6.53-3.38-12-8.48-15.83-14.75-3.82-6.28-5.84-13.48-5.84-20.83v-109.37c0-9.75,3.54-19.14,9.98-26.46l109.89-124.92c5.75-6.54,13.62-11.09,22.16-12.81,8.54-1.72,17.55-.58,25.39,3.22l160.89,77.98c5.4,2.62,10.23,6.49,13.95,11.2s6.38,10.3,7.68,16.16l34.03,153.34c2.04,9.18.77,18.83-3.58,27.17-4.34,8.34-11.52,14.92-20.21,18.51l-172.41,71.36c-4.83,2-10.11,3.04-15.35,3.04ZM214.07,67.17c-2.5,0-5.01.25-7.47.74-8.11,1.63-15.58,5.96-21.05,12.17l-109.89,124.92c-6.12,6.95-9.48,15.88-9.48,25.14v109.37c0,6.98,1.92,13.83,5.55,19.79,3.63,5.96,8.83,10.81,15.04,14.02l132.39,68.39c4.89,2.52,10.37,3.98,15.86,4.21,5.51.23,11.08-.76,16.16-2.86l172.41-71.36c8.26-3.42,15.07-9.66,19.2-17.59,4.12-7.93,5.33-17.09,3.4-25.82l-34.03-153.34c-1.24-5.57-3.76-10.88-7.3-15.35-3.54-4.48-8.12-8.16-13.26-10.65l-160.89-77.98c-5.18-2.51-10.91-3.8-16.65-3.8Z" fill="#121212" stroke-width="0"></path>
    </g>
  </g>
  <g id="Layer_6" data-name="Layer 6">
    <g>
      <g>
        <circle cx="106.41" cy="170.31" r="55.51" fill="#f9c900" stroke-width="0"></circle>
        <path d="M106.41,226.83c-31.16,0-56.51-25.35-56.51-56.51s25.35-56.51,56.51-56.51,56.51,25.35,56.51,56.51-25.35,56.51-56.51,56.51ZM106.41,115.8c-30.06,0-54.51,24.45-54.51,54.51s24.45,54.51,54.51,54.51,54.51-24.45,54.51-54.51-24.45-54.51-54.51-54.51Z" fill="#15162e" stroke-width="0"></path>
      </g>
      <path d="M90.74,192.97v-6.64l19.49-17.37c1.52-1.35,2.57-2.63,3.16-3.83.59-1.2.89-2.36.89-3.48,0-1.52-.33-2.87-.98-4.07-.65-1.19-1.56-2.14-2.71-2.83-1.15-.7-2.47-1.04-3.97-1.04-1.58,0-2.98.36-4.19,1.09-1.21.73-2.16,1.69-2.83,2.89-.67,1.2-.99,2.5-.95,3.89h-7.85c0-3.04.68-5.68,2.04-7.94s3.24-4.01,5.63-5.25c2.39-1.24,5.16-1.87,8.3-1.87,2.91,0,5.53.65,7.85,1.95,2.32,1.3,4.14,3.09,5.47,5.38,1.33,2.29,1.99,4.92,1.99,7.89,0,2.17-.3,4-.89,5.47-.59,1.48-1.47,2.84-2.64,4.08-1.17,1.25-2.62,2.63-4.35,4.14l-13.83,12.24-.7-1.9h22.4v7.18h-31.35Z" fill="#121212" stroke-width="0"></path>
    </g>
    <g>
      <g>
        <path d="M395.7,138.91c4.53-13.22-.66-18.28-8.1-20.99-7.44-2.72-11.01,2.34-11.87,4.32-2.24,5.62,1.43,13.14,19.97,16.67h0Z" fill="#f8f9f9" stroke-width="0"></path>
        <path d="M396.41,139.91l-.91-.02c-13.41-2.56-18.41-7.07-20.24-10.4-1.33-2.43-1.49-5.06-.47-7.62,1.36-3.12,5.65-7.62,13.14-4.89,6.23,2.28,13.91,7.06,8.71,22.26l-.23.68ZM383.5,118.13c-4.73,0-6.62,3.96-6.86,4.51-.78,1.96-.65,4,.38,5.89,1.58,2.89,6,6.81,18,9.23,4.04-12.65-1.64-16.66-7.77-18.9-1.41-.52-2.66-.73-3.75-.73Z" fill="#121212" stroke-width="0"></path>
      </g>
      <g>
        <path d="M395.5,138.73c5.16-13.05,13.33-13.35,21.8-10.43,8.46,2.92,8.02,9.09,7.52,11.22-.5,2.14-7.85,12.01-29.32-.79Z" fill="#f8f9f9" stroke-width="0"></path>
        <path d="M414.19,146.17c-4.56,0-10.82-1.57-19.21-6.57l-.73-.44.31-.79c5.91-14.95,15.99-13.45,23.05-11.01,9.74,3.37,8.52,10.92,8.17,12.39-.31,1.31-2.01,3.8-5.46,5.26-1.56.66-3.58,1.16-6.13,1.16ZM396.75,138.31c11.93,6.93,18.97,6.48,22.8,4.86,3.09-1.31,4.19-3.42,4.29-3.88.39-1.67,1.04-7.31-6.88-10.05-7.09-2.44-15.01-3.24-20.22,9.07Z" fill="#121212" stroke-width="0"></path>
      </g>
      <g>
        <path d="M417.82,166.07c-2.47,10.83-19.12,17.89-36.78,13.79-28.39-6.56-29.53-17.75-27-28.5,2.48-10.83,15.01-19.66,36.93-14.62,17.59,4.09,29.31,18.56,26.85,29.33Z" fill="#fcc018" stroke-width="0"></path>
        <path d="M391.28,182.04c-3.44,0-6.97-.4-10.47-1.21-13.82-3.19-22.4-7.74-26.24-13.91-3.36-5.4-2.57-11.28-1.51-15.79,1.17-5.11,4.43-9.57,9.18-12.55,5.04-3.16,14.15-6.22,28.95-2.82,17.18,3.99,30.34,18.54,27.6,30.52h0c-.96,4.2-3.86,7.92-8.39,10.76-5.24,3.28-11.98,5-19.12,5ZM378.99,136.28c-7.4,0-12.45,1.97-15.68,4-4.3,2.7-7.24,6.71-8.29,11.3-1.04,4.4-1.69,9.54,1.26,14.29,3.54,5.69,11.72,9.95,24.99,13.02,10.25,2.38,20.74,1.06,28.07-3.53,4.08-2.55,6.67-5.84,7.51-9.5h0c2.26-9.89-8.42-24.03-26.1-28.13-4.45-1.02-8.35-1.44-11.75-1.44Z" fill="#121212" stroke-width="0"></path>
      </g>
      <path d="M362.82,161.12c-3.08,0-4.4-2.02-4.67-3.12-.13-.54.2-1.08.74-1.21.53-.13,1.07.2,1.2.72.05.19.57,1.73,2.99,1.6.53-.05,1.02.4,1.05.95s-.4,1.02-.95,1.05c-.12,0-.24,0-.36,0Z" fill="#121212" stroke-width="0"></path>
      <path d="M391.52,181.77c2.56,0,5-.29,7.32-.69,10.56-8.41,13.99-28.59,7.35-37.95-2.48-1.85-5.24-3.41-8.27-4.72,9.95,11.71,3.61,33.43-6.4,43.36Z" fill="#121212" stroke-width="0"></path>
      <path d="M391.93,136.25c.02-.06-4.61-.84-6.43-1.12,5.84,10.67,5.24,35.98-10.36,43.85,1.87.57,3.89,1.12,6.04,1.64.57.16,1.09.23,1.66.38,15.64-10.89,15.81-36.66,9.1-44.75h0Z" fill="#121212" stroke-width="0"></path>
      <path d="M406.5,179c6.2-2.94,10.57-7.45,11.79-12.8,1.16-5.08-.55-10.91-4.41-16.27,3.38,8.93-1.14,24.18-7.38,29.06h0Z" fill="#121212" stroke-width="0"></path>
      <path d="M365.86,149.78c-.34,0-.68-.18-.86-.49-1.63-2.77-3.87-1.95-3.96-1.91-.51.2-1.09-.06-1.29-.57-.2-.52.06-1.09.57-1.29,1.35-.52,4.43-.61,6.41,2.77.28.48.12,1.09-.36,1.37-.16.09-.33.14-.5.14Z" fill="#121212" stroke-width="0"></path>
      <path d="M375.11,153.7c-.34,0-.68-.18-.86-.49-1.63-2.77-3.87-1.95-3.96-1.91-.52.2-1.09-.06-1.29-.57s.06-1.09.57-1.29c1.35-.52,4.43-.61,6.41,2.77.28.48.12,1.09-.36,1.37-.16.09-.33.14-.5.14Z" fill="#121212" stroke-width="0"></path>
      <rect x="361.76" y="165.61" width="48.69" height="48.69" transform="translate(693.09 491.49) rotate(-161.71)" fill="none" stroke-width="0"></rect>
      <g>
        <path d="M396.69,210.94c11.62-5.79,16.33-19.9,10.55-31.52-5.79-11.62-19.9-16.33-31.52-10.55-.07.03-.13.06-.19.1-11.62,5.79-16.33,19.9-10.55,31.52,5.79,11.62,19.9,16.33,31.52,10.55.07-.03.13-.06.19-.1Z" fill="#fff" stroke-width="0"></path>
        <path d="M386.18,168.41c8.22,0,15.6,4.56,19.26,11.91,5.29,10.61.96,23.55-9.66,28.84l-.11.06s-.05.02-.07.03c-3.01,1.5-6.24,2.26-9.58,2.26-8.22,0-15.6-4.56-19.26-11.91-5.29-10.61-.96-23.55,9.66-28.84l.11-.06s.05-.02.07-.03c3.01-1.5,6.24-2.26,9.58-2.26M376.56,170.69h0,0M386.18,166.41c-3.52,0-7.1.79-10.47,2.47-.07.03-.13.06-.19.1-11.62,5.79-16.33,19.9-10.55,31.52,4.11,8.25,12.42,13.02,21.05,13.02,3.52,0,7.1-.79,10.47-2.47.07-.03.13-.06.19-.1,11.62-5.79,16.33-19.9,10.55-31.52-4.11-8.25-12.42-13.02-21.05-13.02h0Z" fill="#121212" stroke-width="0"></path>
      </g>
      <g>
        <path d="M394.27,206.15c8.96-4.47,12.6-15.35,8.13-24.3-4.47-8.95-15.35-12.6-24.3-8.13-.05.02-.1.05-.15.07-8.95,4.47-12.6,15.35-8.13,24.3,4.47,8.95,15.35,12.6,24.3,8.13.05-.02.1-.05.15-.07Z" fill="#fff" stroke-width="0"></path>
        <path d="M386.16,173.8c6.16,0,11.7,3.42,14.44,8.93,3.97,7.95.72,17.65-7.24,21.62l-.08.04-.07.03c-2.26,1.13-4.67,1.7-7.18,1.7-6.16,0-11.69-3.42-14.44-8.93-3.97-7.95-.72-17.65,7.23-21.62l.08-.04.06-.03c2.26-1.13,4.67-1.7,7.18-1.7M386.16,171.8c-2.72,0-5.48.61-8.07,1.91-.05.02-.1.05-.15.07-8.95,4.47-12.6,15.35-8.13,24.3,3.17,6.36,9.58,10.04,16.23,10.04,2.72,0,5.48-.61,8.07-1.91.05-.02.1-.05.15-.07,8.96-4.47,12.6-15.35,8.13-24.3-3.17-6.36-9.58-10.04-16.23-10.04h0Z" fill="#121212" stroke-width="0"></path>
      </g>
      <g>
        <path d="M391.3,188.79c-.89-.52-2.14-.74-3.76-.68l-3.35.12c-.89.03-1.57-.06-2.06-.27-.48-.21-.8-.55-.95-1.01-.14-.42-.13-.84.03-1.26.16-.43.43-.8.83-1.14s.88-.6,1.46-.77c.6-.18,1.19-.24,1.75-.16.57.07,1.08.28,1.55.59.46.32.84.74,1.14,1.26l2.75-1.5c-.59-.97-1.3-1.73-2.12-2.27-.82-.55-1.74-.87-2.74-.98-.52-.06-1.06-.05-1.61.03l-.71-2.15-2.85.94.69,2.1c-.62.31-1.16.67-1.62,1.09-.75.7-1.25,1.5-1.48,2.42-.23.91-.19,1.88.14,2.89.71,2.16,2.39,3.21,5.02,3.17l4.53-.07c.73-.01,1.29.08,1.7.3.4.22.69.57.85,1.06.23.71.11,1.4-.36,2.06-.48.67-1.2,1.17-2.18,1.49-.98.32-1.99.34-2.9,0-.92-.33-1.65-.95-2.19-1.85l-2.66,1.38c.53,1.05,1.23,1.88,2.1,2.48s1.85.97,2.94,1.1c.62.07,1.25.06,1.9-.04l.7,2.13,2.85-.94-.69-2.1c.67-.34,1.28-.74,1.78-1.21.81-.76,1.34-1.63,1.61-2.59s.22-1.98-.13-3.04c-.4-1.21-1.05-2.07-1.93-2.58v-.02Z" fill="#fcc018" stroke-width="0"></path>
        <path d="M383.51,178.61l.71,2.16c.31-.04.62-.06.93-.06.23,0,.46.01.68.04,1,.11,1.92.43,2.74.98s1.53,1.3,2.12,2.27l-2.75,1.5c-.29-.52-.68-.94-1.14-1.26-.47-.32-.98-.52-1.55-.59-.17-.02-.34-.04-.52-.04-.4,0-.82.06-1.24.19-.58.18-1.06.43-1.46.77-.4.34-.67.72-.83,1.14s-.17.85-.03,1.26c.15.46.47.8.96,1.01.42.18.99.27,1.71.27.11,0,.23,0,.35,0l3.35-.12c.17,0,.34-.01.51-.01,1.37,0,2.45.23,3.25.69v.02c.9.51,1.55,1.37,1.95,2.58.35,1.05.39,2.07.13,3.04-.26.97-.8,1.83-1.61,2.59-.5.47-1.1.87-1.78,1.21l.69,2.1-2.85.94-.7-2.13c-.38.06-.75.09-1.12.09-.26,0-.52-.02-.78-.05-1.09-.14-2.07-.5-2.94-1.1s-1.57-1.44-2.1-2.48l2.66-1.38c.54.9,1.27,1.52,2.19,1.85.45.16.92.24,1.4.24s1-.08,1.5-.25c.98-.32,1.71-.82,2.18-1.49s.6-1.36.36-2.06c-.16-.5-.45-.85-.85-1.06-.38-.2-.9-.3-1.56-.3-.05,0-.09,0-.14,0l-4.53.07c-.05,0-.1,0-.15,0-2.55,0-4.17-1.05-4.87-3.17-.33-1.01-.38-1.97-.14-2.89.23-.91.73-1.71,1.48-2.42.45-.42,1-.78,1.62-1.09l-.69-2.1,2.85-.94M383.51,177.11c-.16,0-.32.02-.47.08l-2.85.94c-.38.12-.69.39-.87.75s-.21.77-.09,1.14l.32.96c-.31.21-.58.44-.84.68-.96.9-1.6,1.95-1.91,3.14-.31,1.2-.25,2.45.17,3.73.63,1.92,2.24,4.2,6.3,4.2h.17s4.53-.08,4.53-.08h.11c.56,0,.8.09.87.13.01,0,.06.03.12.2.06.17.09.37-.16.72-.29.4-.77.72-1.43.94-.35.12-.7.17-1.03.17-.31,0-.61-.05-.89-.15-.59-.21-1.05-.6-1.41-1.21-.28-.47-.78-.73-1.29-.73-.23,0-.47.05-.69.17l-2.66,1.38c-.73.38-1.02,1.28-.65,2.01.65,1.28,1.52,2.3,2.58,3.04,1.06.74,2.28,1.2,3.61,1.36.32.04.64.06.97.06.02,0,.04,0,.06,0l.33,1.01c.12.38.39.69.75.87.21.11.44.16.68.16.16,0,.32-.02.47-.08l2.85-.94c.38-.12.69-.39.87-.75.18-.36.21-.77.09-1.15l-.31-.95c.37-.25.7-.52,1.01-.8,1.01-.94,1.69-2.05,2.02-3.29.34-1.25.29-2.56-.15-3.9-.5-1.51-1.33-2.63-2.48-3.33-.05-.04-.09-.07-.14-.1-.84-.49-1.86-.77-3.1-.86l2.44-1.33c.36-.2.62-.53.73-.93.11-.4.05-.82-.16-1.17-.69-1.15-1.56-2.07-2.57-2.75-1.01-.68-2.16-1.09-3.41-1.22-.23-.02-.47-.04-.71-.04l-.35-1.06c-.12-.38-.39-.69-.75-.87-.21-.11-.44-.16-.68-.16h0ZM383.85,186.74c-.67,0-.99-.1-1.12-.15-.11-.05-.11-.07-.12-.1-.03-.09-.03-.17,0-.27.04-.12.13-.3.4-.53.24-.21.54-.36.92-.48.29-.09.55-.13.81-.13.1,0,.21,0,.31.02.34.04.63.16.92.35.26.18.49.43.67.75.09.16.21.3.34.41l-2.83.11c-.1,0-.2,0-.29,0h0Z" fill="#121212" stroke-width="0"></path>
      </g>
    </g>
    <g>
      <path d="M347.94,213.51l1.26,4.14c.05.17.14.32.26.45.12.13.27.23.44.29l3.89,1.34c.22.09.41.24.54.43.13.19.2.42.2.65s-.07.46-.2.65c-.13.19-.32.35-.54.44l-3.89,1.35c-.17.06-.32.16-.44.29-.12.13-.21.28-.25.45l-1.26,4.14c-.05.23-.18.43-.37.57-.19.14-.42.22-.65.22s-.47-.08-.65-.22c-.19-.14-.32-.34-.37-.57l-1.26-4.14c-.05-.17-.14-.32-.26-.45-.12-.13-.27-.23-.44-.29l-3.89-1.34c-.22-.09-.41-.24-.54-.43-.13-.19-.2-.42-.2-.65s.07-.46.2-.65c.13-.19.32-.35.54-.44l3.89-1.35c.17-.06.32-.16.44-.29.12-.13.21-.28.25-.45l1.25-4.15c.05-.23.18-.43.37-.57.19-.14.42-.22.65-.22s.47.08.65.22c.19.14.32.34.37.57Z" fill="#f8f9f9" stroke-width="0"></path>
      <path d="M346.92,212.72c.24,0,.47.08.65.22.19.14.32.34.37.57l1.26,4.14c.05.17.14.32.26.45.12.13.27.23.44.29l3.9,1.34c.22.09.41.24.54.43.13.19.2.42.2.65,0,.23-.07.46-.2.65-.13.19-.32.35-.54.44l-3.89,1.35c-.17.06-.32.16-.44.29-.12.13-.21.28-.25.45l-1.26,4.15c-.05.22-.18.43-.37.57-.19.14-.42.22-.65.22h0c-.24,0-.47-.08-.65-.22-.19-.14-.32-.34-.37-.57l-1.26-4.14c-.05-.17-.14-.32-.26-.45-.12-.13-.27-.23-.44-.29l-3.9-1.34c-.22-.09-.41-.24-.54-.43-.13-.19-.2-.42-.2-.65,0-.23.07-.46.2-.65.13-.19.32-.35.54-.44l3.89-1.35c.17-.06.32-.16.44-.29.12-.13.21-.28.25-.45l1.25-4.15c.05-.23.18-.43.37-.57.19-.14.42-.22.65-.22h0M346.92,210.72h0c-.68,0-1.34.23-1.88.64-.52.41-.9.98-1.07,1.61l-1.11,3.68-3.45,1.19-.05.02-.05.02c-.58.24-1.08.64-1.43,1.16-.36.53-.55,1.15-.55,1.79,0,.64.19,1.25.55,1.78.36.52.85.92,1.44,1.16l.05.02.05.02,3.45,1.19,1.12,3.68c.17.63.55,1.2,1.07,1.61.54.42,1.21.64,1.88.64.68,0,1.35-.23,1.88-.64.53-.41.9-.98,1.07-1.61l1.12-3.68,3.45-1.19.05-.02.05-.02c.59-.24,1.08-.64,1.44-1.16.36-.52.55-1.14.55-1.78,0-.64-.19-1.26-.55-1.78-.35-.52-.85-.92-1.44-1.16l-.05-.02-.05-.02-3.45-1.19-1.12-3.68c-.17-.64-.55-1.21-1.07-1.61-.54-.41-1.2-.64-1.88-.64h0Z" fill="#121212" stroke-width="0"></path>
    </g>
    <g>
      <path d="M372.28,239.9l.72,2.35c.03.09.08.18.15.25.07.07.15.13.25.16l2.23.76c.13.05.23.14.31.25.08.11.12.24.12.37s-.04.26-.12.37c-.08.11-.18.2-.31.25l-2.23.76c-.1.03-.18.09-.25.16-.07.07-.12.16-.15.25l-.72,2.35c-.03.13-.1.24-.21.32-.11.08-.24.13-.37.13s-.27-.04-.37-.13c-.11-.08-.18-.2-.21-.32l-.72-2.35c-.03-.09-.08-.18-.15-.25-.07-.07-.15-.13-.25-.16l-2.23-.76c-.13-.05-.23-.14-.31-.25-.08-.11-.12-.24-.12-.37s.04-.26.12-.37c.08-.11.18-.2.31-.25l2.23-.76c.1-.03.18-.09.25-.16.07-.07.12-.16.15-.25l.72-2.35c.03-.13.11-.24.21-.32.11-.08.24-.13.37-.13s.27.04.37.13c.11.08.18.2.21.32Z" fill="#f8f9f9" stroke-width="0"></path>
      <path d="M371.7,239.45c.14,0,.27.04.37.13.11.08.18.2.21.32l.73,2.35c.03.09.08.18.15.25.07.07.15.13.25.16l2.23.76c.13.05.23.14.31.25.08.11.12.24.12.37s-.04.26-.12.37c-.08.11-.18.2-.31.25l-2.23.76c-.1.03-.18.09-.25.16-.07.07-.12.16-.15.25l-.72,2.35c-.03.13-.1.24-.21.32-.11.08-.24.13-.37.13-.14,0-.27-.04-.38-.13-.11-.08-.18-.2-.21-.32l-.73-2.35c-.03-.09-.08-.18-.15-.25-.07-.07-.15-.13-.25-.16l-2.23-.76c-.13-.05-.23-.14-.31-.25-.08-.11-.12-.24-.12-.37s.04-.26.12-.37c.08-.11.18-.2.31-.25l2.23-.76c.1-.03.18-.09.25-.16.07-.07.12-.16.15-.25l.72-2.35c.03-.13.11-.24.21-.32.11-.08.24-.13.37-.13h0M371.7,237.45h0c-.57,0-1.14.19-1.59.54-.45.35-.77.83-.92,1.36l-.51,1.65-1.56.53-.05.02-.05.02c-.49.2-.91.53-1.21.97-.3.44-.47.96-.47,1.5s.16,1.06.47,1.51c.3.44.72.77,1.21.97l.05.02.05.02,1.57.53.51,1.65c.15.54.47,1.02.92,1.36.46.35,1.02.54,1.59.54.57,0,1.14-.19,1.59-.54.45-.34.77-.82.92-1.36l.51-1.65,1.56-.53.05-.02.05-.02c.49-.2.9-.53,1.2-.96.31-.45.47-.97.47-1.51s-.16-1.06-.47-1.51c-.3-.43-.72-.77-1.21-.96l-.05-.02-.05-.02-1.57-.53-.51-1.65c-.15-.54-.47-1.02-.92-1.36-.45-.34-1.01-.53-1.59-.53h0Z" fill="#121212" stroke-width="0"></path>
    </g>
    <g>
      <path d="M395.51,227.07l.72,2.35c.03.09.08.18.15.25.07.07.15.13.25.16l2.23.76c.13.05.23.14.31.25.08.11.12.24.12.37s-.04.26-.12.37c-.08.11-.18.2-.31.25l-2.23.76c-.1.03-.18.09-.25.16-.07.07-.12.16-.15.25l-.72,2.35c-.03.13-.1.24-.21.32-.11.08-.24.13-.37.13s-.27-.04-.37-.13c-.11-.08-.18-.2-.21-.32l-.72-2.35c-.03-.09-.08-.18-.15-.25-.07-.07-.15-.13-.25-.16l-2.23-.76c-.13-.05-.23-.14-.31-.25-.08-.11-.12-.24-.12-.37s.04-.26.12-.37c.08-.11.18-.2.31-.25l2.23-.76c.1-.03.18-.09.25-.16.07-.07.12-.16.15-.25l.72-2.35c.03-.13.11-.24.21-.32.11-.08.24-.13.37-.13s.27.04.37.13c.11.08.18.2.21.32Z" fill="#f8f9f9" stroke-width="0"></path>
      <path d="M394.92,226.62c.14,0,.27.04.37.13.11.08.18.2.21.32l.72,2.35c.03.09.08.18.15.25.07.07.15.13.25.16l2.23.76c.13.05.23.14.31.25.08.11.12.24.12.37,0,.13-.04.26-.12.37-.08.11-.18.2-.31.25l-2.23.76c-.1.03-.18.09-.25.16-.07.07-.12.16-.15.25l-.72,2.35c-.03.13-.1.24-.21.32-.11.08-.24.13-.37.13-.14,0-.27-.04-.37-.13-.11-.08-.18-.2-.21-.32l-.73-2.35c-.03-.09-.08-.18-.15-.25-.07-.07-.15-.13-.25-.16l-2.23-.76c-.13-.05-.23-.14-.31-.25-.08-.11-.12-.24-.12-.37,0-.13.04-.26.12-.37.08-.11.18-.2.31-.25l2.23-.76c.1-.03.18-.09.25-.16.07-.07.12-.16.15-.25l.72-2.35c.03-.13.1-.24.21-.32.11-.08.24-.13.37-.13M394.92,224.62h0c-.58,0-1.14.19-1.59.54-.44.34-.77.82-.91,1.36l-.51,1.65-1.56.53-.05.02-.05.02c-.49.2-.91.53-1.21.97-.31.44-.47.96-.47,1.5,0,.55.17,1.07.47,1.51.3.43.72.76,1.21.96l.05.02.05.02,1.57.53.51,1.65c.15.54.47,1.02.92,1.36.46.35,1.02.54,1.59.54.57,0,1.13-.19,1.59-.54.45-.34.78-.83.92-1.37l.51-1.65,1.56-.53.05-.02.05-.02c.48-.2.9-.53,1.2-.96.31-.46.48-.98.47-1.52,0-.54-.17-1.06-.48-1.51-.3-.43-.72-.76-1.21-.96l-.05-.02-.05-.02-1.57-.53-.51-1.65c-.15-.54-.47-1.02-.92-1.36-.45-.34-1.01-.54-1.59-.54h0Z" fill="#121212" stroke-width="0"></path>
    </g>
  </g>
  <g id="Layer_9" data-name="Layer 9">
    <g clip-path="url(#clippath)">
      <g>
        <g>
          <path d="M371.57,344.2s-21.44-45.85-24.21-52.11c-7.48-16.92-23.45-49.91-37.97-63.09-.03-.03-.05-.07-.08-.1-.23-.2-.46-.38-.69-.58-.24-.21-.48-.41-.72-.6-.17-.14-.35-.28-.52-.42-.06-.05-.12-.09-.17-.14-16.79-13.36-33.26-12.15-33.26-12.15-11.96,23.69-27.5,20.52-36.45,14-6.85-4.99-10.01-12.01-10.01-12.01,0,0-27.77,3.46-44.6,20.51-11.35,11.49-21.44,43.02-24.8,61.47-3.86,21.21-20.77,166.06-20.69,168.85.43,14.46,9.66,18.64,32.43,2.24,6.34-4.57,14.54-81.63,16.77-101.2,1.78-15.54,13.47-87.02,10.68-46.52-2.05,29.81-14,141.72-14,141.72l40.53,25.63,32.36-26.06,73.91,11.85s-7.06-48.04-11.73-109.7c13.18,8.15,30.27,17.2,41.85,17.67,11.18.45,14.66-8.45,15.46-17.02.71-7.64-.82-15.33-4.13-22.25ZM316.25,329.04l-4.53-36.01,15.39,40.53-10.86-4.53Z" fill="#8aa23b" stroke-width="0"></path>
          <path d="M223.83,490.71c-.18,0-.37-.05-.53-.16l-40.53-25.63c-.32-.2-.5-.57-.46-.95.12-1.12,11.97-112.23,14-141.68.23-3.36.35-5.75.39-7.46-2.69,11.31-7.79,42.76-9.09,54.16l-.59,5.23c-5.12,45.58-11.1,92.71-16.59,96.67-12.92,9.31-22.37,12.6-28.07,9.78-3.74-1.85-5.74-6.15-5.94-12.8-.11-3.69,17.2-149.77,20.7-169.06,3.39-18.63,13.4-50.18,25.07-62,16.88-17.09,44.91-20.76,45.19-20.8.44-.05.85.18,1.04.58.03.07,3.14,6.85,9.68,11.61,3.12,2.28,9.47,5.82,16.84,4.04,6.96-1.68,13.06-7.63,18.13-17.68.16-.31.47-.52.82-.55.68-.05,17.06-1.09,33.96,12.36l.7.57c.25.2.49.41.74.62l.24.2c.15.12.3.25.45.38.04.04.11.11.16.17,15.31,13.96,31.77,48.95,38.14,63.37,2.72,6.16,23.87,51.39,24.2,52.09,3.47,7.27,4.92,15.15,4.22,22.77-1.12,12.12-6.85,18.32-16.5,17.92-11.45-.47-28.12-9.16-40.67-16.79,4.61,59.99,11.5,107.2,11.57,107.68.05.32-.06.63-.29.86-.23.22-.55.33-.86.28l-73.47-11.78-32.02,25.78c-.18.15-.4.22-.63.22ZM184.36,463.57l39.4,24.92,31.81-25.61c.22-.18.5-.25.79-.21l72.57,11.64c-1.17-8.23-7.36-53.11-11.54-108.42-.03-.38.16-.73.48-.93.32-.2.73-.19,1.05,0,12.5,7.73,29.83,17.05,41.37,17.52,8.57.36,13.4-5.07,14.42-16.11.67-7.27-.72-14.78-4.03-21.73,0,0,0,0,0,0-.21-.46-21.48-45.93-24.22-52.13-6.33-14.32-22.67-49.09-37.72-62.75-.04-.04-.09-.08-.12-.13,0,0,0,0,0,0-.11-.1-.23-.2-.35-.3l-.26-.22c-.24-.21-.47-.4-.7-.59l-.68-.54c-14.57-11.6-29.05-12.02-32.03-11.96-5.3,10.28-11.75,16.4-19.18,18.19-8.16,1.97-15.09-1.89-18.49-4.37-5.8-4.23-9-9.79-9.99-11.72-4.4.68-28.4,5.01-43.31,20.11-11.24,11.39-21.28,43.1-24.53,60.95-3.84,21.1-20.68,165.16-20.67,168.65.18,5.84,1.8,9.57,4.82,11.06,4.93,2.43,13.92-.89,26.02-9.61,3.66-2.64,8.97-34.69,15.77-95.27l.59-5.23c.74-6.5,3.03-21.47,5.21-34.09,4.45-25.76,5.4-25.68,6.59-25.57,1.15.1,1.78.16.87,13.33-1.95,28.34-12.98,132.11-13.94,141.13ZM327.12,334.56c-.13,0-.26-.03-.38-.08l-10.86-4.53c-.33-.14-.56-.44-.61-.8l-4.53-36.01c-.06-.5.26-.97.75-1.1.49-.12,1,.14,1.18.62l15.39,40.53c.14.37.05.8-.24,1.07-.19.18-.44.28-.7.28ZM317.17,328.34l8.18,3.41-11.6-30.54,3.41,27.13Z" fill="#121212" stroke-width="0"></path>
        </g>
        <g>
          <path d="M267.79,205.61l12.59,20.06-30.43,9.34-26.25-9.08,10.96-21.95c.47.04,33.12,1.63,33.12,1.63Z" fill="#c68f79" stroke-width="0"></path>
          <path d="M249.95,236.02c-.11,0-.22-.02-.33-.05l-26.25-9.08c-.27-.09-.49-.3-.6-.57s-.1-.57.03-.83l10.96-21.95c.18-.37.57-.58.98-.55.54.04,21.88,1.08,33.09,1.63.33.02.62.19.8.47l12.59,20.06c.17.26.2.59.09.88-.11.29-.35.52-.64.61l-30.43,9.34c-.1.03-.2.04-.29.04ZM225.11,225.36l24.86,8.6,28.88-8.86-11.62-18.51c-4.68-.23-27.66-1.35-31.95-1.57l-10.16,20.35Z" fill="#121212" stroke-width="0"></path>
        </g>
        <g>
          <path d="M289.72,159.2s2.68-13.76,12.71-10.38c10.03,3.38,8.16,12.71,6.88,15.51-1.28,2.8-5.25,6.3-9.56,7.58-4.32,1.28-9.33,1.05-9.33,1.05-6.53,27.06-17.73,35.62-42.45,34.99-30.56-.78-32.89-34.99-32.89-34.99-19.28-.47-25.27-17.88-14.85-23.32,10.42-5.44,16.17,9.8,16.17,9.8" fill="#c68f79" stroke-width="0"></path>
          <path d="M250.36,208.97c-.79,0-1.6-.01-2.42-.03-16.28-.41-24.63-10.2-28.77-18.33-3.66-7.2-4.73-14.24-5.01-16.69-11.57-.59-18.22-7.1-19.69-13.42-1.15-4.95.88-9.45,5.29-11.76,2.77-1.45,5.5-1.68,8.1-.68,6.13,2.34,9.33,10.66,9.47,11.01.2.52-.07,1.09-.58,1.29-.51.2-1.09-.06-1.29-.58-.03-.08-3.03-7.84-8.31-9.85-2.04-.78-4.22-.58-6.46.59-3.62,1.89-5.22,5.45-4.27,9.53,1.33,5.73,7.63,11.64,18.68,11.91.52.01.94.42.97.93,0,.08.63,8.5,4.91,16.87,5.67,11.09,14.75,16.87,27.01,17.18,24.67.64,35.13-8.01,41.45-34.22.11-.47.53-.79,1.02-.76.05,0,4.9.21,9-1.01,4.14-1.23,7.8-4.54,8.94-7.04.7-1.53,1.64-5.34.16-8.76-1.08-2.49-3.25-4.3-6.45-5.38-2.23-.75-4.15-.63-5.86.36-4.17,2.42-5.53,9.19-5.55,9.26-.11.54-.63.89-1.17.79-.54-.11-.9-.63-.79-1.17.06-.31,1.56-7.73,6.5-10.61,2.21-1.29,4.74-1.46,7.51-.53,3.76,1.27,6.33,3.45,7.65,6.48,1.76,4.07.72,8.44-.18,10.39-1.31,2.86-5.33,6.68-10.19,8.12-3.42,1.02-7.17,1.12-8.83,1.11-6.35,25.59-17.22,35-40.84,35Z" fill="#121212" stroke-width="0"></path>
        </g>
        <path d="M293.65,168.12h-.02c-.55-.01-.99-.47-.98-1.02.03-1.08.35-10.64,4.1-13.17,1.06-.71,2.31-.83,3.62-.34.52.2.78.77.58,1.29s-.77.78-1.29.58c-.7-.26-1.27-.22-1.79.13-2.19,1.47-3.14,7.87-3.22,11.55-.01.54-.46.98-1,.98Z" fill="#121212" stroke-width="0"></path>
        <path d="M216.63,163.42s-4-33.92,11.86-40.57c15.86-6.65,27.76-10.03,43.85-8.05,28.17,3.47,16.46,49.45,16.46,49.45" fill="#c68f79" stroke-width="0"></path>
        <path d="M299.28,163.85c-.52,0-.96-.4-1-.93-.04-.55.38-1.03.93-1.07,2.34-.17,2.56-3.25,2.57-3.38.04-.55.52-1.01,1.06-.94.55.03.97.5.94,1.05-.1,1.72-1.15,5.02-4.42,5.26-.02,0-.05,0-.07,0Z" fill="#121212" stroke-width="0"></path>
        <path d="M212.11,166.56c-.41,0-.79-.25-.94-.66-1.26-3.47-4.21-9.22-6.74-9.92-.61-.17-1.16-.02-1.74.45-.43.35-1.06.29-1.41-.14-.35-.43-.29-1.06.14-1.41,1.08-.89,2.3-1.17,3.54-.83,4.36,1.2,7.72,10.15,8.09,11.16.19.52-.08,1.09-.6,1.28-.11.04-.23.06-.34.06Z" fill="#121212" stroke-width="0"></path>
        <path d="M204.53,164.43c-2.54,0-4.18-2.32-4.74-3.72-.21-.51.04-1.09.55-1.3.51-.21,1.09.04,1.3.55.06.13,1.25,2.96,3.52,2.38.53-.14,1.08.18,1.22.72s-.18,1.08-.72,1.22c-.39.1-.77.15-1.13.15Z" fill="#121212" stroke-width="0"></path>
        <g>
          <path d="M216.48,159.74c-4.12-12.21-12.36-11.74-12.36-11.74-1.17-3.97-2.33-28.22,0-31.72,1.1-1.66,2.76-4.77,5.36-7,2.92-2.5,5.54-5.31,7.59-8.56,4.55-7.22,9.37-10.04,20.4-15.46,9.31-4.57,17.02-6.44,20.55-7.12,1.13-.22,2.2.56,2.35,1.7l.44,3.19c.26,1.88,1.83,3.3,3.73,3.37,5.49.19,16.77-.01,25.56-4.13.96-.45,2.11-.18,2.69.7.93,1.41,2.05,3.93,2.05,7.89,0,0,.47.93,2.41.86s4.74,1.32,4.98,8.86c.23,7.54-4.59,47.74-4.59,47.74-6.76,2.57-8.09,11.2-8.09,11.2l-1.32-13.76s-6.53.31-6.69-5.75c-.16-6.06-.16-10.26-.16-10.26,0,0,.31-4.82-3.27-7.31-3.58-2.49-8.55-5.29-17.1-5.29-8.55,0-14.77-1.87-21.92,4.98-7.15,6.84-9.17,7.77-9.17,7.77,0,0-4.51,1.55-6.06,7.15s-7,6.53-7,12.44c0,5.91-.39,10.26-.39,10.26Z" fill="#121212" stroke-width="0"></path>
          <path d="M216.48,160.74c-.42,0-.81-.27-.95-.68-3.8-11.27-11.04-11.07-11.36-11.06-.48-.02-.88-.28-1.01-.72-1.18-4.01-2.45-28.69.13-32.56.21-.31.43-.67.68-1.08,1.12-1.78,2.64-4.22,4.86-6.12,3.14-2.69,5.56-5.42,7.4-8.34,4.66-7.39,9.66-10.35,20.81-15.83,9.32-4.57,17.04-6.48,20.81-7.2.81-.16,1.63.02,2.31.5.67.48,1.12,1.22,1.23,2.04l.44,3.19c.2,1.4,1.36,2.45,2.77,2.5,5.72.2,16.6-.06,25.1-4.03,1.44-.67,3.1-.23,3.95,1.06.98,1.49,2.14,4.07,2.21,8.05.17.1.59.27,1.37.24.88-.03,2.15.16,3.32,1.25,1.66,1.55,2.57,4.44,2.7,8.58.23,7.53-4.4,46.24-4.59,47.89-.04.37-.29.68-.64.82-6.15,2.33-7.44,10.33-7.45,10.41-.08.49-.5.85-.99.85h-.03c-.5-.01-.92-.4-.97-.9l-1.24-12.89c-1.19-.1-3.25-.49-4.8-1.93-1.26-1.17-1.93-2.77-1.98-4.76-.15-6.01-.16-10.25-.16-10.29,0-.1.22-4.36-2.84-6.49-3.63-2.53-8.43-5.11-16.53-5.11-1.59,0-3.08-.06-4.53-.12-6.24-.26-11.17-.47-16.7,4.82-7.07,6.76-9.22,7.86-9.45,7.96-.03.01-.06.03-.09.04-.16.06-4.04,1.49-5.43,6.47-.77,2.76-2.4,4.49-3.85,6.02-1.67,1.77-3.12,3.3-3.12,6.15,0,5.89-.39,10.31-.39,10.35-.04.47-.41.85-.88.9-.04,0-.08,0-.12,0ZM204.91,147.03c2.02.19,7.15,1.37,10.83,8.39.07-1.65.13-3.69.13-5.95,0-3.65,1.86-5.62,3.66-7.53,1.41-1.49,2.74-2.9,3.37-5.18,1.59-5.71,5.99-7.56,6.63-7.8.24-.13,2.4-1.38,8.88-7.58,6.15-5.88,11.72-5.65,18.17-5.38,1.43.06,2.9.12,4.45.12,8.65,0,13.79,2.76,17.68,5.47,3.99,2.78,3.71,7.97,3.69,8.19h0s0,4.21.16,10.17c.04,1.43.48,2.55,1.33,3.34,1.64,1.53,4.29,1.44,4.31,1.44.54-.04.99.37,1.04.9l.86,8.92c1.18-2.55,3.21-5.45,6.63-6.96.59-4.97,4.72-40.12,4.51-47-.14-4.48-1.2-6.38-2.06-7.18-.54-.5-1.18-.73-1.87-.71-2.54.1-3.27-1.25-3.34-1.41-.07-.14-.11-.29-.11-.45,0-3.7-1.02-6.03-1.88-7.34-.3-.45-.9-.59-1.43-.35-8.88,4.15-20.11,4.43-26.02,4.22-2.39-.08-4.36-1.86-4.68-4.23l-.44-3.19c-.04-.28-.18-.52-.41-.69-.22-.16-.49-.22-.76-.17-3.67.71-11.19,2.56-20.3,7.03-11.02,5.41-15.6,8.11-20,15.1-1.95,3.09-4.49,5.97-7.78,8.79-1.99,1.7-3.42,3.99-4.46,5.67-.26.42-.5.8-.72,1.12-1.96,2.94-1.12,24.74-.04,30.2Z" fill="#121212" stroke-width="0"></path>
        </g>
        <path d="M273.62,142.08c-.29,0-.58-.13-.78-.37-.14-.17-3.27-3.9-8.01-.87-.46.3-1.08.16-1.38-.3-.3-.46-.16-1.08.3-1.38,5.03-3.21,9.17-.55,10.65,1.31.34.43.27,1.06-.16,1.41-.18.15-.41.22-.62.22Z" fill="#121212" stroke-width="0"></path>
        <path d="M242.83,142.08c-.29,0-.58-.13-.78-.37-.14-.17-3.28-3.9-8.01-.87-.46.3-1.08.16-1.38-.3-.3-.46-.16-1.08.3-1.38,5.02-3.21,9.17-.55,10.65,1.31.34.43.27,1.06-.16,1.41-.18.15-.41.22-.62.22Z" fill="#121212" stroke-width="0"></path>
        <path d="M254.68,194.12c-.28,0-.56,0-.85-.02-10.97-.49-13.99-8.71-14.12-9.06-.18-.52.09-1.09.61-1.28.52-.18,1.09.09,1.28.61.11.29,2.74,7.3,12.32,7.73,9.62.44,13.15-7.41,13.19-7.49.22-.5.81-.74,1.32-.52.51.22.74.81.52,1.32-.04.09-3.92,8.7-14.26,8.7Z" fill="#121212" stroke-width="0"></path>
        <ellipse cx="238.63" cy="160.98" rx="3.58" ry="7" fill="#121212" stroke-width="0"></ellipse>
        <ellipse cx="269.16" cy="160.98" rx="3.58" ry="7" fill="#121212" stroke-width="0"></ellipse>
        <path d="M254.89,176.83c-.33,0-.65-.16-.84-.46-.3-.46-.17-1.08.3-1.38,3.67-2.38,5.5-4.69,5.28-6.7-.29-2.66-4.11-4.66-5.56-5.21-.52-.19-.78-.77-.58-1.29.2-.52.77-.78,1.29-.58.26.1,6.36,2.44,6.84,6.86.31,2.85-1.77,5.74-6.18,8.6-.17.11-.36.16-.54.16Z" fill="#121212" stroke-width="0"></path>
        <circle cx="250.29" cy="254.45" r=".6" fill="#121212" stroke-width="0"></circle>
        <circle cx="252.79" cy="254.45" r=".6" fill="#121212" stroke-width="0"></circle>
        <path d="M251.54,258.72c-2.36,0-4.27-1.92-4.27-4.27s1.92-4.27,4.27-4.27,4.27,1.92,4.27,4.27-1.92,4.27-4.27,4.27ZM251.54,252.18c-1.25,0-2.27,1.02-2.27,2.27s1.02,2.27,2.27,2.27,2.27-1.02,2.27-2.27-1.02-2.27-2.27-2.27Z" fill="#121212" stroke-width="0"></path>
        <circle cx="250.29" cy="289.46" r=".6" fill="#121212" stroke-width="0"></circle>
        <circle cx="252.79" cy="289.46" r=".6" fill="#121212" stroke-width="0"></circle>
        <path d="M251.54,293.74c-2.36,0-4.27-1.92-4.27-4.27s1.92-4.27,4.27-4.27,4.27,1.92,4.27,4.27-1.92,4.27-4.27,4.27ZM251.54,287.2c-1.25,0-2.27,1.02-2.27,2.27s1.02,2.27,2.27,2.27,2.27-1.02,2.27-2.27-1.02-2.27-2.27-2.27Z" fill="#121212" stroke-width="0"></path>
        <circle cx="250.29" cy="316.01" r=".6" fill="#121212" stroke-width="0"></circle>
        <circle cx="252.79" cy="316.01" r=".6" fill="#121212" stroke-width="0"></circle>
        <path d="M251.54,320.29c-2.36,0-4.27-1.92-4.27-4.27s1.92-4.27,4.27-4.27,4.27,1.92,4.27,4.27-1.92,4.27-4.27,4.27ZM251.54,313.75c-1.25,0-2.27,1.02-2.27,2.27s1.02,2.27,2.27,2.27,2.27-1.02,2.27-2.27-1.02-2.27-2.27-2.27Z" fill="#121212" stroke-width="0"></path>
        <circle cx="253.27" cy="369.11" r=".6" fill="#121212" stroke-width="0"></circle>
        <circle cx="255.76" cy="369.11" r=".6" fill="#121212" stroke-width="0"></circle>
        <path d="M254.52,373.39c-2.35,0-4.27-1.92-4.27-4.27s1.92-4.27,4.27-4.27,4.27,1.92,4.27,4.27-1.92,4.27-4.27,4.27ZM254.52,366.85c-1.25,0-2.27,1.02-2.27,2.27s1.02,2.27,2.27,2.27,2.27-1.02,2.27-2.27-1.02-2.27-2.27-2.27Z" fill="#121212" stroke-width="0"></path>
        <circle cx="251.33" cy="342.9" r=".6" fill="#121212" stroke-width="0"></circle>
        <circle cx="253.82" cy="342.9" r=".6" fill="#121212" stroke-width="0"></circle>
        <path d="M252.58,347.17c-2.36,0-4.27-1.92-4.27-4.27s1.92-4.27,4.27-4.27,4.27,1.92,4.27,4.27-1.92,4.27-4.27,4.27ZM252.58,340.63c-1.25,0-2.27,1.02-2.27,2.27s1.02,2.27,2.27,2.27,2.27-1.02,2.27-2.27-1.02-2.27-2.27-2.27Z" fill="#121212" stroke-width="0"></path>
        <circle cx="254.78" cy="393.27" r=".6" fill="#121212" stroke-width="0"></circle>
        <circle cx="257.27" cy="393.27" r=".6" fill="#121212" stroke-width="0"></circle>
        <path d="M256.03,397.55c-2.35,0-4.27-1.92-4.27-4.27s1.92-4.27,4.27-4.27,4.27,1.92,4.27,4.27-1.92,4.27-4.27,4.27ZM256.03,391.01c-1.25,0-2.27,1.02-2.27,2.27s1.02,2.27,2.27,2.27,2.27-1.02,2.27-2.27-1.02-2.27-2.27-2.27Z" fill="#121212" stroke-width="0"></path>
        <circle cx="255.56" cy="420.45" r=".6" fill="#121212" stroke-width="0"></circle>
        <circle cx="258.05" cy="420.45" r=".6" fill="#121212" stroke-width="0"></circle>
        <path d="M256.8,424.73c-2.36,0-4.27-1.92-4.27-4.27s1.92-4.27,4.27-4.27,4.27,1.92,4.27,4.27-1.92,4.27-4.27,4.27ZM256.8,418.19c-1.25,0-2.27,1.02-2.27,2.27s1.02,2.27,2.27,2.27,2.27-1.02,2.27-2.27-1.02-2.27-2.27-2.27Z" fill="#121212" stroke-width="0"></path>
        <circle cx="256.25" cy="447.25" r=".6" fill="#121212" stroke-width="0"></circle>
        <circle cx="258.74" cy="447.25" r=".6" fill="#121212" stroke-width="0"></circle>
        <path d="M257.5,451.53c-2.35,0-4.27-1.92-4.27-4.27s1.92-4.27,4.27-4.27,4.27,1.92,4.27,4.27-1.92,4.27-4.27,4.27ZM257.5,444.99c-1.25,0-2.27,1.02-2.27,2.27s1.02,2.27,2.27,2.27,2.27-1.02,2.27-2.27-1.02-2.27-2.27-2.27Z" fill="#121212" stroke-width="0"></path>
        <g>
          <path d="M292.54,218.61l-3.96-1.46c-3.91-1.16-7.32-1.87-11.39-2.09l-3.23-.04c-2.93,6.22-11.56,18.68-23.24,18.93,0,0,11.16,15.48,19.26,19.84,4.79-5.09,21.95-30.24,22.56-35.18Z" fill="#f8f9f9" stroke-width="0"></path>
          <path d="M269.98,254.79c-.16,0-.32-.04-.47-.12-8.21-4.42-19.14-19.49-19.6-20.13-.22-.3-.25-.7-.08-1.03.17-.33.5-.55.87-.55,10.96-.24,19.42-12.11,22.36-18.36.17-.35.54-.56.92-.57l3.23.04c3.86.21,7.33.84,11.66,2.13l4.02,1.48c.44.16.7.6.65,1.06-.68,5.48-18.52,31.16-22.83,35.74-.19.21-.46.32-.73.32ZM252.6,234.82c2.87,3.78,10.88,13.92,17.17,17.71,5.3-6.06,19.74-27.54,21.59-33.28l-3.13-1.16c-4.17-1.24-7.4-1.83-11.1-2.03l-2.56-.03c-1.04,2.07-3.75,6.97-8.26,11.41-4.37,4.31-8.98,6.78-13.72,7.38Z" fill="#121212" stroke-width="0"></path>
        </g>
        <g>
          <path d="M247.22,233.45c-13.97-3.29-19.72-16.43-19.72-16.43-7.95.67-19.5,5.01-19.5,5.01,3.31,7.79,25.38,32.03,25.38,32.03,10.19-6.51,17.05-20.06,17.05-20.06-1.5-.17-1.68-.19-3.21-.55Z" fill="#f8f9f9" stroke-width="0"></path>
          <path d="M233.37,255.05c-.27,0-.54-.11-.74-.33-.91-.99-22.22-24.46-25.56-32.31-.11-.25-.11-.53,0-.79s.31-.45.57-.54c.48-.18,11.77-4.4,19.77-5.07.44-.04.83.2,1,.59.06.13,5.74,12.73,19.04,15.86,1.46.34,1.61.36,3.04.52.33.04.64.23.79.52s.18.64.04.93c-.29.56-7.1,13.87-17.41,20.45-.17.11-.35.16-.54.16ZM209.37,222.59c4,7.62,20.83,26.46,24.17,30.16,7.69-5.24,13.4-14.56,15.31-17.94-.51-.08-.97-.18-1.86-.39h0c-12.64-2.97-18.69-13.55-20.09-16.35-6.3.68-14.64,3.49-17.52,4.51Z" fill="#121212" stroke-width="0"></path>
        </g>
        <path d="M220.07,468.14c-.17,0-.34-.04-.49-.13l-27.32-15.46c-.48-.27-.65-.88-.38-1.36.27-.48.88-.65,1.36-.38l27.32,15.46c.48.27.65.88.38,1.36-.18.33-.52.51-.87.51Z" fill="#121212" stroke-width="0"></path>
        <path d="M352.1,344.77c-.08,0-.17-.01-.26-.03-3.44-.91-47.61-19.54-49.49-20.34-.51-.21-.75-.8-.53-1.31.21-.51.8-.75,1.31-.53,15.87,6.7,46.58,19.55,49.22,20.25.53.14.85.69.71,1.22-.12.45-.52.75-.97.75Z" fill="#121212" stroke-width="0"></path>
        <g>
          <line x1="324.12" y1="369.36" x2="301" y2="355.43" fill="#8aa23b" stroke-width="0"></line>
          <path d="M324.12,370.36c-.18,0-.35-.05-.51-.14l-23.12-13.93c-.47-.29-.63-.9-.34-1.37.28-.47.9-.63,1.37-.34l23.12,13.93c.47.29.63.9.34,1.37-.19.31-.52.48-.86.48Z" fill="#121212" stroke-width="0"></path>
        </g>
        <g>
          <rect x="232.84" y="261.04" width="36.52" height="60.86" rx="6.91" ry="6.91" transform="translate(4.21 -3.57) rotate(.82)" fill="#4f94f6" stroke-width="0"></rect>
          <path d="M240.09,262.88h.07s22.69.33,22.69.33c1.31.02,2.54.55,3.45,1.49.91.94,1.41,2.18,1.39,3.49l-.67,47.03c-.04,2.67-2.24,4.84-4.91,4.84h-.07s-22.69-.33-22.69-.33c-2.71-.04-4.88-2.27-4.84-4.98l.67-47.03c.04-2.67,2.24-4.84,4.91-4.84M240.09,260.88c-3.77,0-6.86,3.03-6.91,6.81l-.67,47.03c-.05,3.82,3,6.96,6.81,7.01l22.69.33s.07,0,.1,0c3.77,0,6.86-3.03,6.91-6.81l.67-47.03c.05-3.82-3-6.96-6.81-7.01l-22.69-.33s-.07,0-.1,0h0Z" fill="#121212" stroke-width="0"></path>
        </g>
        <g>
          <circle cx="251.08" cy="284.79" r="6.13" fill="#8fbffe" stroke-width="0"></circle>
          <path d="M251.08,280.66c2.28,0,4.13,1.85,4.13,4.13s-1.85,4.13-4.13,4.13-4.13-1.85-4.13-4.13,1.85-4.13,4.13-4.13M251.08,278.66c-3.38,0-6.13,2.74-6.13,6.13s2.74,6.13,6.13,6.13,6.13-2.74,6.13-6.13-2.74-6.13-6.13-6.13h0Z" fill="#121212" stroke-width="0"></path>
        </g>
        <path d="M286.51,320.26s-3.27-3.69-4.11-5.08c-.84-1.39-9.89-17.83-11.21-19.64l-1.84-3.03-.24,7.63-8.43-1.18s-12.05-3.34-15.18-5.57-8.5-4.6-9.68-4.53-3.34-.28-3.55,1.81c-.21,2.09.21,3.13.21,3.13,0,0-2.44-.14-3.06.56s-1.81,1.88-1.88,2.72.42,3.69,1.32,4.39,2.86,2.02,2.86,2.02c0,0-2.51.49-2.72,1.39s-.91,1.95-.42,3.27c.49,1.32.28,2.58,2.93,4.6l4.32,2.44s-2.65-.28-3.34.56c-.7.84-1.46,1.95-1.04,2.51s.7,1.39,2.23,2.79c1.53,1.39,10.86,6.96,10.86,6.96,0,0,11.91,6.48,14.42,7.24,2.51.77,21.66,8.36,21.66,8.36l6.41-22.63-.49-.7Z" fill="#c68f79" stroke-width="0"></path>
        <path d="M289.86,322.72c-.13,0-.26-.02-.38-.08-.8-.33-1.57-.67-2.27-1.01-2.23-1.08-4.4-4.13-5.83-6.5-1.98-3.29-4.05-7.14-6.05-10.85-2.65-4.93-5.16-9.58-7.03-12.13-.33-.45-.23-1.07.22-1.4.44-.33,1.07-.23,1.4.22,1.95,2.66,4.49,7.37,7.17,12.36,1.99,3.69,4.05,7.51,6,10.77,1.79,2.98,3.61,5.07,4.98,5.73.67.32,1.4.65,2.17.96.51.21.75.79.54,1.3-.16.39-.53.62-.92.62Z" fill="#121212" stroke-width="0"></path>
        <path d="M258.75,309.14c-.14,0-.28-.03-.41-.09-.69-.31-16.9-7.72-21.46-10.46-4.92-2.96-5.55-5.35-5.86-6.5-.2-.77-.04-2.36,1.26-3.34,2.21-1.68,6.36-.74,12.33,2.79,11.24,6.64,24.29,7.97,24.42,7.98.55.05.95.54.9,1.09-.05.55-.55.95-1.09.9-.55-.05-13.61-1.38-25.24-8.25-7.04-4.16-9.4-3.44-10.08-2.94-.6.43-.59,1.14-.56,1.26.24.89.73,2.76,4.96,5.29,4.47,2.68,21.1,10.28,21.26,10.35.5.23.72.82.5,1.33-.17.37-.53.58-.91.58Z" fill="#121212" stroke-width="0"></path>
        <path d="M254.05,317.38c-.16,0-.33-.04-.48-.12-.71-.39-17.46-9.68-21.37-12.24-3.86-2.53-6.32-4.5-5.39-8.64.77-3.45,4.03-3.79,5.65-3.48.54.1.9.63.8,1.17-.1.54-.62.9-1.17.8-.29-.05-2.79-.43-3.33,1.95-.6,2.67.55,3.92,4.53,6.54,3.84,2.52,21.07,12.07,21.24,12.16.48.27.66.88.39,1.36-.18.33-.52.52-.88.52Z" fill="#121212" stroke-width="0"></path>
        <path d="M249.64,324.02c-.16,0-.33-.04-.48-.12-.5-.28-12.36-6.79-16.29-9.21-3.97-2.46-5.89-4.43-5.33-8.42.19-1.32.74-2.28,1.64-2.85,1.4-.89,3.03-.42,3.21-.36.53.16.82.72.66,1.25-.16.53-.72.82-1.25.66-.26-.07-1.03-.19-1.56.14-.38.25-.62.73-.72,1.44-.38,2.72.52,4.04,4.4,6.43,3.89,2.4,16.08,9.09,16.2,9.16.48.27.66.87.4,1.36-.18.33-.52.52-.88.52Z" fill="#121212" stroke-width="0"></path>
        <path d="M280.94,344.59c-.13,0-.26-.02-.39-.08-1.56-.65-5.97-2.37-10.64-4.18-6.43-2.5-13.08-5.08-14.81-5.86-2.99-1.35-15.06-7.68-19.62-11.04-4.28-3.15-6.04-4.46-4.31-7.56.49-.88,1.21-1.47,2.09-1.72,1.57-.44,3.08.38,3.25.48.48.27.65.88.37,1.36-.27.48-.88.64-1.36.38-.3-.17-1.83-.92-2.61.48-.76,1.36-.87,1.56,3.75,4.97,4.37,3.22,16.41,9.54,19.26,10.83,1.68.76,8.6,3.45,14.71,5.82,4.68,1.82,9.11,3.54,10.69,4.2.51.21.75.8.54,1.31-.16.38-.53.61-.92.61Z" fill="#121212" stroke-width="0"></path>
        <g>
          <polygon points="300.19 358.22 310.38 322.04 288.02 317.45 279.98 346.93 300.19 358.22" fill="#f8f9f9" stroke-width="0"></polygon>
          <path d="M300.81,359.71l-22-12.29,8.49-31.14,24.34,4.99-10.83,38.43ZM281.15,346.44l18.42,10.29,9.56-33.92-20.39-4.18-7.58,27.82Z" fill="#121212" stroke-width="0"></path>
        </g>
        <g>
          <line x1="305.64" y1="323.45" x2="302.34" y2="334.6" fill="#e1dbd8" stroke-width="0"></line>
          <path d="M302.34,335.6c-.09,0-.19-.01-.28-.04-.53-.16-.83-.71-.67-1.24l3.31-11.15c.16-.53.71-.83,1.24-.67.53.16.83.71.67,1.24l-3.31,11.15c-.13.43-.53.72-.96.72Z" fill="#221f1f" stroke-width="0"></path>
        </g>
      </g>
    </g>
  </g>
  <g id="Layer_7" data-name="Layer 7">
    <path d="M236.59,447.95c-.55,0-1.11-.01-1.66-.04-5.78-.24-11.55-1.77-16.69-4.43l-132.39-68.39c-4.07-2.1-7.73-4.87-10.86-8.21l1.46-1.37c2.98,3.18,6.45,5.81,10.32,7.8l132.39,68.39c4.89,2.52,10.37,3.98,15.86,4.21,5.49.24,11.08-.76,16.16-2.86l105.84-43.81.77,1.85-105.84,43.81c-4.83,2-10.11,3.04-15.35,3.04Z" fill="#121212" stroke-width="0"></path>
  </g>
</svg>
