<?xml version="1.0" encoding="UTF-8"?>
<svg xmlns="http://www.w3.org/2000/svg" width="56" height="56" viewBox="0 0 56 56" fill="none">
  <path d="M4.2874 16.275H18.1999L21.8749 20.475H39.6374C41.1249 20.475 42.4374 21.7 42.4374 23.275V44.7125C42.4374 46.2 41.2124 47.5125 39.6374 47.5125H4.1999C2.7124 47.5125 1.3999 46.2875 1.3999 44.7125V18.9875C1.3999 17.5 2.6249 16.1875 4.1999 16.1875H18.1999" stroke="#231F20" stroke-width="1.5" stroke-miterlimit="10" stroke-linecap="round" stroke-linejoin="round"></path>
  <path d="M42.35 36.6617C35.35 33.3367 28.9625 24.6742 30.275 13.0367C35.7 13.1242 39.725 11.6367 42.35 8.57422C44.8 11.5492 48.65 13.0367 53.725 13.0367C53.9 13.0367 54.1625 13.0367 54.3375 13.0367C55.7375 24.6742 49.35 33.2492 42.35 36.6617Z" fill="#F9C900" stroke="#231F20" stroke-width="1.5" stroke-miterlimit="10" stroke-linecap="round" stroke-linejoin="round"></path>
  <path d="M37.1001 20.7383L41.9126 24.7633L47.4251 17.6758" stroke="#231F20" stroke-width="1.5" stroke-miterlimit="10" stroke-linecap="round" stroke-linejoin="round"></path>
</svg>
