<?xml version="1.0" encoding="UTF-8"?>
<svg xmlns="http://www.w3.org/2000/svg" width="56" height="56" viewBox="0 0 56 56" fill="none">
  <g clip-path="url(#clip0_2466_2192)">
    <path d="M9.01252 46.9019C-1.48748 36.4894 -1.57498 19.6019 8.83752 9.10187C19.25 -1.39813 36.1375 -1.48563 46.6375 8.92687C46.725 9.01437 46.725 9.01437 46.8125 9.10187C57.3125 19.5144 57.4 36.4019 46.9875 46.9019C36.575 57.4019 19.6875 57.4894 9.18752 47.0769C9.18752 46.9894 9.10002 46.9894 9.01252 46.9019Z" stroke="#231F20" stroke-width="1.5" stroke-miterlimit="10" stroke-linecap="round" stroke-linejoin="round"></path>
    <path d="M6.7373 35.6984L11.6373 20.2109H15.3998L20.2998 35.6984H17.5873L13.1248 21.7859H13.7373L9.3623 35.6984H6.7373ZM9.44981 32.3734V29.9234H17.5873V32.3734H9.44981Z" fill="#231F20"></path>
    <path d="M22.2246 35.6984V20.2109H27.1246C27.2121 20.2109 27.4746 20.2109 27.9121 20.2109C28.2621 20.2109 28.6996 20.2109 29.0496 20.2984C30.2746 20.4734 31.3246 20.9109 32.1996 21.6109C33.0746 22.3109 33.6871 23.2734 34.1246 24.3234C34.5621 25.4609 34.8246 26.5984 34.8246 27.9109C34.8246 29.2234 34.5621 30.4484 34.1246 31.4984C33.6871 32.6359 33.0746 33.5109 32.1996 34.2109C31.3246 34.9109 30.2746 35.3484 29.0496 35.5234C28.6996 35.5234 28.3496 35.6109 27.9121 35.6109C27.5621 35.6109 27.2996 35.6109 27.1246 35.6109H22.2246V35.6984ZM24.8496 33.3359H27.1246C27.2996 33.3359 27.6496 33.3359 27.9121 33.3359C28.2621 33.3359 28.5246 33.2484 28.7871 33.2484C29.4871 33.0734 30.0996 32.8109 30.5371 32.2859C30.9746 31.7609 31.3246 31.1484 31.5871 30.3609C31.8496 29.6609 31.9371 28.8734 31.9371 27.9984C31.9371 27.1234 31.8496 26.3359 31.5871 25.6359C31.3246 24.9359 31.0621 24.2359 30.5371 23.7984C30.0996 23.2734 29.4871 23.0109 28.7871 22.8359C28.5246 22.7484 28.2621 22.7484 27.9121 22.7484C27.5621 22.7484 27.2996 22.7484 27.1246 22.7484H24.8496V33.3359Z" fill="#231F20"></path>
    <path d="M43.0497 36.05C41.9122 36.05 40.8622 35.875 39.9872 35.4375C39.1122 35 38.3247 34.475 37.7122 33.775C37.0997 33.075 36.7497 32.2 36.5747 31.15L39.2872 30.7125C39.5497 31.5875 39.9872 32.375 40.6872 32.8125C41.3872 33.3375 42.2622 33.6 43.1372 33.6C43.6622 33.6 44.1872 33.5125 44.7122 33.3375C45.2372 33.1625 45.5872 32.9 45.9372 32.55C46.1997 32.2 46.3747 31.85 46.3747 31.325C46.3747 31.15 46.3747 30.8875 46.2872 30.7125C46.1997 30.5375 46.1122 30.3625 45.9372 30.1875C45.7622 30.0125 45.5872 29.925 45.4122 29.8375C45.1497 29.75 44.9747 29.575 44.6247 29.4875L40.5997 28.2625C40.2497 28.175 39.8997 28 39.4622 27.825C39.0247 27.65 38.6747 27.3875 38.3247 27.125C37.9747 26.8625 37.7122 26.425 37.4497 25.9875C37.1872 25.55 37.0997 24.9375 37.0997 24.2375C37.0997 23.275 37.3622 22.4 37.8872 21.7C38.4122 21 39.1122 20.475 39.8997 20.2125C40.7747 19.8625 41.7372 19.6875 42.7872 19.6875C43.8372 19.6875 44.7997 19.8625 45.5872 20.2125C46.4622 20.5625 47.0747 21.0875 47.6872 21.7875C48.2122 22.4875 48.6497 23.275 48.9122 24.2375L46.1122 24.7625C46.0247 24.2375 45.7622 23.7125 45.4122 23.3625C45.0622 23.0125 44.7122 22.6625 44.1872 22.4875C43.7497 22.3125 43.2247 22.1375 42.6997 22.1375C42.1747 22.1375 41.7372 22.225 41.2997 22.4C40.8622 22.575 40.5122 22.75 40.2497 23.1C39.9872 23.3625 39.8122 23.7125 39.8122 24.15C39.8122 24.5 39.8997 24.85 40.1622 25.1125C40.4247 25.375 40.6872 25.55 41.0372 25.725C41.3872 25.9 41.7372 25.9875 42.0872 26.075L44.8872 26.8625C45.2372 26.95 45.6747 27.125 46.1997 27.3C46.6372 27.475 47.1622 27.7375 47.5997 28C48.0372 28.35 48.3872 28.7 48.6497 29.225C48.9122 29.75 49.0872 30.3625 49.0872 31.15C49.0872 31.9375 48.9122 32.6375 48.5622 33.25C48.2122 33.8625 47.7747 34.3875 47.2497 34.7375C46.7247 35.175 46.0247 35.4375 45.3247 35.6125C44.6247 35.9625 43.8372 36.05 43.0497 36.05Z" fill="#231F20"></path>
    <path d="M46.5501 9.27734L9.1001 46.6398" stroke="#231F20" stroke-width="1.5" stroke-miterlimit="10" stroke-linecap="round" stroke-linejoin="round"></path>
  </g>
  <defs>
    <clipPath id="clip0_2466_2192">
      <rect width="56" height="56" fill="white"></rect>
    </clipPath>
  </defs>
</svg>
