<?xml version="1.0" encoding="UTF-8"?>
<svg xmlns="http://www.w3.org/2000/svg" xmlns:xlink="http://www.w3.org/1999/xlink" id="Layer_6" data-name="Layer 6" viewBox="0 0 513 513">
  <defs>
    <clipPath id="clippath">
      <path d="M253.72,239.86c19.67,0,36.17-1.71,43.7-4.01-1.86-.67,23.95-29.74,20.45-30.27-8.58-1.3-34.8-50.15-49.27-50.15-12.86,0-61.05,35.89-69.5,36.95-4.93.62,12.58,42.62,10.21,43.47,7.53,2.3,24.75,4.01,44.41,4.01Z" fill="none" stroke-width="0"></path>
    </clipPath>
    <clipPath id="clippath-1">
      <path d="M282.54,242.81c-8.32,11.86-31.9,12.2-51.21-1.44-31.07-21.89-26.94-35.97-18.6-47.71,8.32-11.86,27.8-16.36,51.8.51,19.24,13.58,26.28,36.84,18.01,48.63Z" fill="none" stroke-width="0"></path>
    </clipPath>
  </defs>
  <g>
    <path d="M74.03,204.34l109.89-124.92c5.64-6.41,13.23-10.8,21.6-12.49,8.37-1.69,17.07-.59,24.75,3.14l160.89,77.98c5.3,2.57,9.95,6.3,13.6,10.93,3.65,4.62,6.21,10.01,7.49,15.76l34.03,153.34c1.99,8.97.76,18.35-3.49,26.49-4.24,8.15-11.22,14.54-19.7,18.05l-172.41,71.36c-5.25,2.17-10.91,3.17-16.58,2.93-5.68-.24-11.23-1.71-16.28-4.32l-132.39-68.39c-6.37-3.29-11.7-8.27-15.43-14.38-3.73-6.12-5.7-13.15-5.7-20.31v-109.37c0-9.5,3.46-18.67,9.73-25.8Z" fill="#c1d9fd" stroke-width="0"></path>
    <path d="M235.71,447.95c-.55,0-1.11-.01-1.66-.04-5.78-.24-11.55-1.77-16.69-4.43l-132.39-68.39c-6.53-3.37-12-8.48-15.83-14.75-3.82-6.28-5.84-13.48-5.84-20.83v-109.37c0-9.74,3.54-19.14,9.98-26.46l109.89-124.92c5.75-6.54,13.62-11.09,22.16-12.81,8.54-1.72,17.55-.58,25.39,3.22l160.89,77.98c5.4,2.62,10.23,6.49,13.95,11.2,3.72,4.71,6.38,10.3,7.68,16.16l34.03,153.34c2.04,9.18.77,18.83-3.58,27.17-4.34,8.34-11.52,14.92-20.21,18.51l-172.41,71.36c-4.83,2-10.11,3.04-15.35,3.04ZM74.78,205h0c-6.12,6.95-9.48,15.88-9.48,25.14v109.37c0,6.98,1.92,13.83,5.55,19.79,3.63,5.96,8.83,10.81,15.04,14.02l132.39,68.39c4.89,2.52,10.37,3.98,15.86,4.21,5.5.23,11.08-.76,16.16-2.86l172.41-71.36c8.26-3.42,15.07-9.66,19.2-17.59,4.12-7.93,5.33-17.09,3.4-25.82l-34.03-153.34c-1.24-5.57-3.76-10.88-7.3-15.35-3.54-4.48-8.12-8.16-13.26-10.64l-160.89-77.98c-7.44-3.61-16.01-4.7-24.12-3.06-8.11,1.63-15.58,5.96-21.05,12.17l-109.89,124.92Z" fill="#121212" stroke-width="0"></path>
  </g>
  <g>
    <g>
      <circle cx="106.41" cy="170.31" r="55.51" fill="#f9c900" stroke-width="0"></circle>
      <path d="M106.41,226.83c-31.16,0-56.51-25.35-56.51-56.51s25.35-56.51,56.51-56.51,56.51,25.35,56.51,56.51-25.35,56.51-56.51,56.51ZM106.41,115.8c-30.06,0-54.51,24.45-54.51,54.51s24.45,54.51,54.51,54.51,54.51-24.45,54.51-54.51-24.45-54.51-54.51-54.51Z" fill="#15162e" stroke-width="0"></path>
    </g>
    <path d="M105.48,193.88c-2.28,0-4.43-.44-6.45-1.33-2.03-.88-3.78-2.14-5.27-3.76-1.49-1.62-2.56-3.54-3.21-5.76l7.37-1.99c.53,1.81,1.49,3.21,2.89,4.19,1.4.98,2.95,1.46,4.63,1.44,1.5,0,2.84-.35,4.02-1.04,1.18-.7,2.11-1.64,2.78-2.83.67-1.19,1.01-2.53,1.01-4,0-2.26-.73-4.14-2.18-5.66-1.46-1.52-3.33-2.28-5.63-2.28-.7,0-1.38.09-2.04.28-.66.19-1.3.45-1.91.79l-3.48-6.01,15.31-13.1.67,1.83h-21.67v-7.18h27.94v7.21l-12.31,11.83-.06-2.25c2.76.19,5.12.96,7.07,2.31,1.95,1.35,3.45,3.09,4.49,5.22,1.04,2.13,1.57,4.46,1.57,6.99,0,2.87-.7,5.44-2.1,7.72s-3.28,4.08-5.63,5.39c-2.35,1.32-4.95,1.98-7.8,1.98Z" fill="#121212" stroke-width="0"></path>
  </g>
  <g>
    <path d="M232.52,121.08l1.71,5.61c.06.23.18.43.35.61.16.17.37.31.59.39l5.28,1.81c.3.12.55.33.73.59.18.26.28.57.28.89s-.09.62-.27.89c-.18.26-.43.47-.73.59l-5.27,1.82c-.23.08-.43.22-.59.39-.16.17-.28.38-.35.61l-1.7,5.61c-.07.3-.25.58-.5.77-.25.19-.56.3-.88.3s-.63-.11-.89-.3c-.25-.2-.43-.47-.5-.77l-1.71-5.61c-.06-.23-.18-.43-.35-.61-.16-.17-.37-.31-.59-.39l-5.28-1.81c-.3-.12-.55-.33-.73-.59-.18-.26-.28-.57-.28-.89s.09-.62.27-.89c.18-.26.43-.47.73-.59l5.27-1.82c.23-.08.43-.22.59-.39.16-.17.28-.38.35-.61l1.7-5.62c.07-.3.25-.58.5-.77.25-.2.56-.3.89-.3s.63.11.89.3c.25.19.43.47.5.77Z" fill="#f8f9f9" stroke-width="0"></path>
    <path d="M231.14,120.01c.32,0,.63.11.88.3.25.19.43.47.5.77l1.71,5.61c.06.23.18.43.35.61s.37.31.59.39l5.28,1.81c.3.12.55.33.73.59.18.26.28.57.28.89,0,.32-.1.62-.27.89-.18.26-.43.47-.73.59l-5.27,1.82c-.23.08-.43.22-.59.39-.16.17-.28.38-.34.61l-1.7,5.61c-.07.3-.25.58-.5.77-.25.2-.56.3-.88.3h0c-.32,0-.63-.11-.88-.3-.25-.2-.43-.47-.5-.77l-1.71-5.61c-.06-.23-.18-.43-.35-.61s-.37-.31-.59-.39l-5.28-1.81c-.3-.12-.55-.33-.73-.59-.18-.26-.27-.57-.28-.89,0-.32.09-.62.27-.89.18-.26.43-.47.73-.59l5.27-1.82c.23-.08.43-.22.59-.39.16-.17.28-.38.35-.61l1.7-5.62c.07-.3.25-.58.5-.77.25-.2.56-.3.89-.3h0M231.14,118.01h0c-.76,0-1.51.26-2.11.72-.59.46-1.02,1.1-1.2,1.82l-1.62,5.35-5.01,1.73-.05.02-.05.02c-.66.27-1.22.72-1.62,1.31-.41.6-.62,1.3-.62,2.02,0,.72.22,1.41.62,2.01.41.59.97,1.04,1.63,1.31l.05.02.05.02,5.02,1.72,1.63,5.34c.19.72.61,1.36,1.2,1.81.6.46,1.35.72,2.11.72.77,0,1.51-.26,2.11-.72.59-.46,1.01-1.1,1.2-1.82l1.62-5.34,5.01-1.73.05-.02.05-.02c.66-.27,1.23-.73,1.63-1.32.41-.59.62-1.29.62-2.01,0-.72-.22-1.42-.63-2.02-.4-.59-.96-1.04-1.63-1.31l-.05-.02-.05-.02-5.02-1.72-1.63-5.34c-.19-.72-.62-1.36-1.21-1.82-.6-.46-1.34-.72-2.11-.72h0Z" fill="#121212" stroke-width="0"></path>
  </g>
  <g>
    <path d="M350.44,251.62l1.71,5.61c.06.23.18.43.35.61.16.17.37.31.59.39l5.28,1.81c.3.12.55.33.73.59.18.26.28.57.28.89s-.09.62-.27.89c-.18.26-.43.47-.73.59l-5.27,1.82c-.23.08-.43.22-.59.39-.16.17-.28.38-.35.61l-1.7,5.61c-.07.3-.25.58-.5.77-.25.19-.56.3-.88.3s-.63-.11-.89-.3c-.25-.2-.43-.47-.5-.77l-1.71-5.61c-.06-.23-.18-.43-.35-.61-.16-.17-.37-.31-.59-.39l-5.28-1.81c-.3-.12-.55-.33-.73-.59-.18-.26-.28-.57-.28-.89,0-.32.09-.62.27-.89.18-.26.43-.47.73-.59l5.27-1.82c.23-.08.43-.22.59-.39.16-.17.28-.38.35-.61l1.7-5.62c.07-.3.25-.58.5-.77.25-.2.56-.3.89-.3s.63.11.89.3c.25.19.43.47.5.77Z" fill="#f8f9f9" stroke-width="0"></path>
    <path d="M349.06,250.55c.32,0,.63.11.88.3.25.19.43.47.5.77l1.71,5.61c.06.23.18.43.35.61s.37.31.59.39l5.28,1.81c.3.12.55.33.73.59.18.26.28.57.28.89,0,.32-.1.62-.27.89-.18.26-.43.47-.73.59l-5.27,1.82c-.23.08-.43.22-.59.39-.16.17-.28.38-.34.61l-1.7,5.61c-.07.3-.25.58-.5.77-.25.2-.56.3-.88.3h0c-.32,0-.63-.11-.88-.3-.25-.2-.43-.47-.5-.77l-1.71-5.61c-.06-.23-.18-.43-.35-.61-.16-.17-.37-.31-.59-.39l-5.28-1.81c-.3-.12-.55-.33-.73-.59-.18-.26-.27-.57-.28-.89,0-.31.09-.62.27-.89.18-.26.43-.47.73-.59l5.27-1.82c.23-.08.43-.22.59-.39.16-.17.28-.38.35-.61l1.7-5.62c.07-.3.25-.58.5-.77.25-.2.56-.3.89-.3h0M349.06,248.55h0c-.76,0-1.51.26-2.11.72-.59.46-1.02,1.1-1.2,1.82l-1.62,5.35-5.01,1.73-.05.02-.05.02c-.66.27-1.22.72-1.62,1.31-.41.6-.62,1.3-.62,2.02,0,.72.22,1.42.62,2.01.41.59.97,1.04,1.63,1.31l.05.02.05.02,5.02,1.72,1.63,5.34c.19.72.61,1.36,1.2,1.81.6.46,1.35.72,2.11.72.77,0,1.51-.26,2.11-.72.59-.46,1.01-1.1,1.2-1.82l1.62-5.34,5.01-1.73.05-.02.05-.02c.66-.27,1.23-.73,1.63-1.32.41-.59.62-1.29.62-2.01,0-.72-.22-1.42-.63-2.02-.4-.59-.96-1.04-1.63-1.31l-.05-.02-.05-.02-5.02-1.72-1.63-5.34c-.19-.72-.61-1.36-1.21-1.82-.6-.46-1.35-.72-2.11-.72h0Z" fill="#121212" stroke-width="0"></path>
  </g>
  <g>
    <path d="M193.32,155.04l.79,2.57c.03.1.08.2.16.28.08.08.17.14.27.18l2.44.83c.14.06.26.15.34.27.08.12.13.26.13.4s-.04.29-.13.41c-.08.12-.2.21-.34.27l-2.44.83c-.1.04-.2.1-.27.18-.07.08-.13.17-.16.28l-.79,2.57c-.03.14-.11.26-.23.35-.12.09-.26.14-.41.14s-.29-.05-.41-.14c-.12-.09-.2-.21-.23-.35l-.79-2.56c-.03-.1-.08-.2-.16-.28-.08-.08-.17-.14-.27-.18l-2.44-.83c-.14-.06-.26-.15-.34-.27-.08-.12-.13-.26-.13-.4s.04-.29.13-.41c.08-.12.2-.21.34-.27l2.44-.83c.1-.04.2-.1.27-.18.07-.08.13-.17.16-.28l.79-2.57c.03-.14.12-.26.23-.35.12-.09.26-.14.41-.14s.29.05.41.14c.12.09.2.21.23.35Z" fill="#f8f9f9" stroke-width="0"></path>
    <path d="M192.67,154.55c.15,0,.29.05.41.14s.2.21.23.35l.79,2.57c.03.1.08.2.16.28.08.08.17.14.27.18l2.44.83c.14.06.26.15.34.27.08.12.13.26.13.4s-.04.29-.13.41c-.08.12-.2.21-.34.27l-2.44.83c-.1.04-.2.1-.27.18-.08.08-.13.17-.16.28l-.79,2.57c-.03.14-.11.26-.23.35-.12.09-.26.14-.41.14h0c-.15,0-.29-.05-.41-.14-.12-.09-.2-.21-.23-.35l-.79-2.56c-.03-.1-.08-.2-.16-.28-.08-.08-.17-.14-.27-.18l-2.44-.83c-.14-.06-.26-.15-.34-.27-.08-.12-.13-.26-.13-.4,0-.14.04-.29.13-.41.08-.12.2-.21.34-.27l2.44-.83c.1-.04.2-.1.27-.18.08-.08.13-.17.16-.28l.79-2.57c.03-.14.12-.26.23-.35.12-.09.26-.14.41-.14M192.67,152.55h0c-.59,0-1.16.2-1.62.55-.46.35-.79.84-.94,1.39l-.58,1.9-1.8.61s-.07.03-.11.04c-.5.2-.92.54-1.23.98-.32.46-.48,1-.48,1.55,0,.55.17,1.08.48,1.53.31.45.74.79,1.24.99.03.01.07.03.1.04l1.8.61.59,1.9c.15.55.48,1.04.94,1.39.47.36,1.04.55,1.63.55.59,0,1.16-.2,1.63-.55.46-.35.79-.84.94-1.39l.58-1.9,1.8-.61s.07-.03.11-.04c.5-.2.93-.54,1.23-.99.32-.46.48-.99.48-1.54s-.17-1.09-.49-1.55c-.3-.44-.73-.78-1.23-.98-.03-.01-.07-.03-.1-.04l-1.8-.61-.58-1.9c-.15-.55-.48-1.04-.94-1.39-.46-.35-1.04-.55-1.62-.55h0Z" fill="#121212" stroke-width="0"></path>
  </g>
  <g>
    <path d="M373.97,279.28l.98,3.18c.04.13.11.25.2.34.09.1.21.17.34.22l3.03,1.03c.17.07.32.18.42.33.1.15.16.32.16.5s-.05.35-.16.5c-.1.15-.25.26-.42.33l-3.02,1.03c-.13.05-.24.12-.34.22-.09.1-.16.22-.2.34l-.97,3.18c-.04.17-.14.33-.29.44-.14.11-.32.17-.51.17s-.36-.06-.51-.17c-.14-.11-.25-.27-.29-.44l-.98-3.18c-.04-.13-.11-.25-.2-.34-.09-.1-.21-.17-.34-.22l-3.03-1.03c-.17-.07-.32-.18-.42-.33-.1-.15-.16-.32-.16-.5s.05-.35.16-.5c.1-.15.25-.26.42-.33l3.02-1.03c.13-.05.24-.12.34-.22.09-.1.16-.22.2-.34l.97-3.18c.04-.17.14-.33.29-.44.14-.11.32-.17.51-.17s.36.06.51.17c.15.11.25.26.29.44Z" fill="#f8f9f9" stroke-width="0"></path>
    <path d="M373.18,278.67c.18,0,.36.06.51.17.15.11.25.26.29.44l.98,3.18c.04.13.1.25.2.34.09.1.21.17.34.22l3.03,1.03c.17.07.32.18.42.33.1.15.16.32.16.5s-.05.35-.16.5c-.1.15-.25.26-.42.33l-3.02,1.03c-.13.05-.24.12-.34.22-.09.1-.16.22-.2.34l-.97,3.18c-.04.17-.14.33-.29.44-.14.11-.32.17-.51.17h0c-.18,0-.36-.06-.51-.17-.14-.11-.25-.26-.29-.44l-.98-3.18c-.04-.13-.11-.25-.2-.34-.09-.1-.21-.17-.34-.22l-3.03-1.03c-.17-.07-.32-.18-.42-.33-.1-.15-.16-.32-.16-.5s.05-.35.16-.5.25-.26.42-.33l3.02-1.03c.13-.05.24-.12.34-.22.09-.1.16-.22.2-.34l.97-3.18c.04-.17.14-.33.29-.44.14-.11.32-.17.51-.17h0M373.18,276.67h0c-.62,0-1.24.21-1.73.59-.49.38-.83.9-.99,1.48l-.79,2.59-2.46.84-.05.02-.05.02c-.53.22-.99.58-1.31,1.05-.33.48-.51,1.05-.51,1.64s.18,1.15.51,1.64c.33.47.79.84,1.32,1.05l.05.02.05.02,2.46.84.8,2.59c.16.58.51,1.1,1,1.48.5.38,1.1.58,1.72.58.62,0,1.23-.21,1.72-.58.49-.37.84-.9,1-1.48l.79-2.59,2.46-.84.06-.02.05-.02c.53-.22.98-.58,1.31-1.05.34-.49.51-1.06.51-1.64s-.18-1.16-.52-1.64c-.32-.47-.78-.83-1.32-1.05l-.05-.02-.05-.02-2.46-.84-.8-2.59c-.16-.59-.51-1.11-1-1.48-.49-.37-1.1-.58-1.72-.58h0Z" fill="#121212" stroke-width="0"></path>
  </g>
  <g>
    <path d="M285,121.35l.98,3.18c.04.13.11.25.2.34.09.1.21.17.34.22l3.03,1.03c.17.07.32.18.42.33.1.15.16.32.16.5s-.05.35-.16.5c-.1.15-.25.26-.42.33l-3.02,1.03c-.13.05-.24.12-.34.22-.09.1-.16.22-.2.34l-.97,3.18c-.04.17-.14.33-.29.44-.14.11-.32.17-.51.17s-.36-.06-.51-.17c-.14-.11-.25-.27-.29-.44l-.98-3.18c-.04-.13-.11-.25-.2-.34-.09-.1-.21-.17-.34-.22l-3.03-1.03c-.17-.07-.32-.18-.42-.33-.1-.15-.16-.32-.16-.5s.05-.35.16-.5c.1-.15.25-.26.42-.33l3.02-1.03c.13-.05.24-.12.34-.22.09-.1.16-.22.2-.34l.97-3.18c.04-.17.14-.33.29-.44.14-.11.32-.17.51-.17s.36.06.51.17c.15.11.25.26.29.44Z" fill="#f8f9f9" stroke-width="0"></path>
    <path d="M284.2,120.74c.18,0,.36.06.51.17.15.11.25.26.29.44l.98,3.18c.04.13.1.25.2.34.09.1.21.17.34.22l3.03,1.03c.17.07.32.18.42.33.1.15.16.32.16.5,0,.18-.05.35-.16.5-.1.15-.25.26-.42.33l-3.02,1.03c-.13.05-.24.12-.34.22-.09.1-.16.22-.2.34l-.98,3.18c-.04.17-.14.33-.29.44-.14.11-.32.17-.51.17h0c-.18,0-.36-.06-.51-.17-.14-.11-.25-.27-.29-.44l-.98-3.18c-.04-.13-.1-.25-.2-.34-.09-.1-.21-.17-.34-.22l-3.02-1.03c-.17-.07-.32-.18-.42-.33-.1-.15-.16-.32-.16-.5,0-.18.05-.35.16-.5s.25-.26.42-.33l3.02-1.03c.13-.05.24-.12.34-.22.09-.1.16-.22.2-.34l.98-3.18c.04-.17.14-.33.29-.44.14-.11.32-.17.51-.17h0M284.2,118.74h0c-.62,0-1.24.21-1.73.59-.49.37-.83.9-.99,1.48l-.79,2.59-2.46.84-.05.02-.05.02c-.53.22-.99.58-1.31,1.05-.33.48-.51,1.05-.51,1.64,0,.59.18,1.16.51,1.64.33.47.79.84,1.33,1.05l.05.02.05.02,2.46.84.8,2.59c.16.58.51,1.11,1,1.48.5.38,1.11.58,1.72.58.62,0,1.23-.21,1.72-.58.49-.37.84-.9,1-1.48l.79-2.59,2.46-.84.05-.02.05-.02c.53-.22.98-.58,1.31-1.04.34-.49.52-1.06.52-1.65,0-.58-.18-1.15-.52-1.64-.33-.47-.78-.83-1.32-1.05l-.05-.02-.05-.02-2.46-.84-.8-2.59c-.16-.59-.51-1.11-1-1.48-.49-.37-1.1-.58-1.72-.58h0Z" fill="#121212" stroke-width="0"></path>
  </g>
  <g>
    <path d="M303.5,254.1s19.46,1.82,22.96,25.9c3.13,21.51,2.9,50.6-18.63,78.32-7.23,9.31-17.52,15.9-29.13,17.97-2.09.37-4.32.65-6.73.84-11.61.92-30.58.5-38.17-.07-2.22-.17-4.32-.43-6.25-.77-11.61-2.08-21.89-8.66-29.13-17.97-21.53-27.72-21.75-56.81-18.63-78.32,3.5-24.08,22.96-25.9,22.96-25.9h100.74Z" fill="#4f94f6" stroke-width="0"></path>
    <path d="M254.88,378.67c-8.64,0-17.02-.3-21.15-.61-2.23-.17-4.37-.43-6.35-.79-11.6-2.08-22.16-8.59-29.74-18.35-17.19-22.13-23.34-47.99-18.83-79.08,1.86-12.81,8.22-19.4,13.23-22.67,5.45-3.56,10.41-4.06,10.62-4.08h100.83s.06,0,.09,0c.21.02,5.17.52,10.62,4.08,5.01,3.27,11.37,9.86,13.23,22.67,4.52,31.08-1.64,56.95-18.83,79.08-7.58,9.76-18.14,16.27-29.74,18.35-2.13.38-4.37.66-6.82.86-4.93.39-11.11.54-17.17.54ZM202.76,255.1c-.67.07-18.63,2.07-21.97,25.04-4.43,30.52,1.59,55.89,18.43,77.56,7.27,9.36,17.4,15.62,28.51,17.6,1.91.34,3.98.6,6.15.76,6.96.52,26.16,1.01,38.01.07,2.39-.19,4.56-.46,6.63-.83,11.11-1.99,21.24-8.24,28.51-17.6,16.84-21.67,22.86-47.04,18.43-77.56-3.29-22.64-20.78-24.91-22.02-25.04h-100.69Z" fill="#121212" stroke-width="0"></path>
  </g>
  <g>
    <path d="M303.98,249.19s-33.46-3.2-50.46-3.2-50.46,3.2-50.46,3.2c0,0-.04,4.31-.04,4.39,0,4.2,22.61,7.59,50.5,7.59s50.5-3.4,50.5-7.59c0-.08-.04-4.39-.04-4.39Z" fill="#fff" stroke-width="0"></path>
    <path d="M253.53,262.18c-17.81,0-51.5-1.8-51.5-8.59,0-.08.04-4.4.04-4.4,0-.51.4-.94.9-.99.34-.03,33.7-3.21,50.55-3.21s50.22,3.17,50.55,3.21c.51.05.9.47.91.99,0,0,.04,4.32.04,4.4,0,1.72-1.62,4.25-15.64,6.36-9.59,1.44-22.32,2.24-35.85,2.24ZM204.06,250.1c-.01,1.26-.03,3.39-.03,3.48,0,2.3,17,6.59,49.5,6.59s49.5-4.29,49.5-6.59c0-.09-.02-2.22-.03-3.48-5.44-.5-34.26-3.11-49.47-3.11s-44.02,2.61-49.46,3.11Z" fill="#121212" stroke-width="0"></path>
  </g>
  <g>
    <path d="M253.53,332.2c-32.87,0-60.93-3.1-71.92-7.47,1.48,5.56,3.54,11.21,6.34,16.89l.33.12c13.58,3.27,37.73,5.44,65.26,5.44s50.52-2.08,64.27-5.22l.5-.31c2.74-5.57,4.79-11.12,6.26-16.59-11.56,4.19-39.01,7.13-71.03,7.13Z" fill="#fff" stroke-width="0"></path>
    <path d="M253.53,348.17c-26.79,0-51.27-2.04-65.49-5.47-.03,0-.07-.02-.1-.03l-.33-.12c-.24-.09-.45-.27-.56-.5-2.7-5.48-4.85-11.22-6.4-17.07-.1-.37.02-.75.3-1,.28-.25.69-.32,1.03-.18,11.12,4.42,39.88,7.4,71.55,7.4s58.83-2.78,70.69-7.07c.35-.13.74-.05,1.02.2s.39.64.29,1c-1.55,5.75-3.68,11.39-6.33,16.77-.08.17-.21.31-.38.41l-.5.31c-.09.06-.19.1-.3.12-14.36,3.28-38.47,5.24-64.49,5.24ZM188.66,340.79c14.1,3.37,38.33,5.38,64.87,5.38s49.65-1.93,63.88-5.16l.11-.07c2.25-4.62,4.12-9.43,5.55-14.34-12.9,4.02-39.74,6.58-69.55,6.58s-57.92-2.67-70.43-6.86c1.43,4.94,3.3,9.8,5.57,14.46Z" fill="#121212" stroke-width="0"></path>
  </g>
  <g>
    <path d="M310.26,241.43c0-3.2-1.62-5.99-4.05-7.55-.03-.02-.06-.05-.1-.06-.16-.1-.34-.2-.51-.29-6.35-3.41-27.36-5.91-52.32-5.91s-45.98,2.5-52.32,5.91c-.17.09-.34.19-.51.29-.03.02-.07.04-.1.07h0c-2.43,1.55-4.05,4.35-4.05,7.54,0,.22.02.43.03.64-.01.21-.03.43-.03.65,0,3.2,1.62,5.99,4.05,7.55.03.02.06.05.1.06.16.1.34.2.51.29,6.35,3.41,27.36,5.91,52.32,5.91s45.98-2.5,52.32-5.91c.17-.09.34-.19.51-.29.03-.02.07-.05.1-.07h0c2.43-1.55,4.05-4.35,4.05-7.54,0-.22-.02-.43-.03-.65.01-.21.03-.43.03-.64Z" fill="#fff" stroke-width="0"></path>
    <path d="M253.28,257.53c-24.86,0-46.08-2.42-52.79-6.03-.17-.09-.34-.19-.51-.29-.09-.05-.16-.1-.2-.12-2.79-1.79-4.48-4.92-4.48-8.36,0-.22.01-.43.03-.65-.01-.21-.03-.42-.03-.64,0-3.44,1.69-6.57,4.51-8.39.01,0,.03-.02.04-.03,0,0,0,0,.01,0,.25-.16.44-.26.63-.37,6.69-3.6,27.91-6.02,52.78-6.02s46.08,2.42,52.79,6.03c.17.08.34.18.51.29.1.05.17.1.21.13,2.78,1.79,4.47,4.92,4.47,8.36,0,.22-.01.44-.03.65.02.21.03.42.03.64,0,3.44-1.69,6.58-4.51,8.39-.01,0-.03.02-.04.02,0,0-.02.01-.02.01-.25.15-.43.26-.62.36-6.7,3.6-27.92,6.03-52.78,6.03ZM200.91,249.44s.06.03.08.05c.14.09.29.17.43.25,6.36,3.42,27.68,5.8,51.86,5.8s45.5-2.38,51.85-5.79c.16-.08.31-.17.46-.26.03-.02.05-.03.08-.04h0c2.25-1.45,3.59-3.96,3.59-6.71,0-.17-.01-.34-.02-.51,0-.05,0-.16,0-.21.02-.23.03-.4.03-.58,0-2.75-1.34-5.26-3.59-6.71,0,0-.01,0-.01,0-.03-.01-.06-.03-.09-.05-.14-.09-.28-.17-.43-.25-6.37-3.42-27.69-5.8-51.86-5.8s-45.5,2.38-51.85,5.79c-.17.08-.31.17-.46.26-.04.03-.08.06-.12.08-2.22,1.45-3.55,3.94-3.55,6.68,0,.17.01.34.02.51,0,.05,0,.16,0,.2-.02.24-.03.41-.03.58,0,2.75,1.34,5.26,3.59,6.71,0,0,.02.01.02.01ZM200.81,249.39s0,0,0,0c0,0,0,0,0,0ZM305.75,234.75s0,0,0,0c0,0,0,0,0,0Z" fill="#121212" stroke-width="0"></path>
  </g>
  <g>
    <path d="M253.5,240.8c26.67,0,48.3-2.95,48.3-6.59s-21.62-6.59-48.3-6.59-48.3,2.95-48.3,6.59,21.62,6.59,48.3,6.59Z" fill="#fff" stroke-width="0"></path>
    <path d="M253.5,241.8c-17.05,0-49.3-1.59-49.3-7.59s32.25-7.59,49.3-7.59,49.3,1.59,49.3,7.59-32.25,7.59-49.3,7.59ZM253.5,228.61c-30.55,0-46.79,3.6-47.3,5.61.51,1.99,16.75,5.58,47.3,5.58s46.79-3.59,47.3-5.61c-.51-1.99-16.74-5.58-47.3-5.58Z" fill="#121212" stroke-width="0"></path>
  </g>
  <g>
    <path d="M253.46,240.81c19.67,0,36.57-1.6,44.1-3.91-6.43-2.3-23.74-3.94-44.1-3.94s-37.68,1.64-44.1,3.94c7.53,2.3,24.44,3.91,44.1,3.91Z" fill="#fcc018" stroke-width="0"></path>
    <path d="M253.46,241.81c-19.1,0-36.52-1.55-44.39-3.95-.41-.12-.7-.5-.71-.93,0-.43.26-.82.66-.96,6.69-2.39,24.55-4,44.44-4s37.75,1.61,44.44,4c.41.14.67.53.66.96,0,.43-.29.81-.71.93-7.85,2.4-25.27,3.95-44.4,3.95ZM213.31,236.85c8.76,1.82,23.82,2.95,40.15,2.95s31.41-1.13,40.16-2.95c-8.17-1.77-23.41-2.9-40.16-2.9s-31.98,1.13-40.15,2.9Z" fill="#121212" stroke-width="0"></path>
  </g>
  <path d="M226.92,218.4h0s0,0,0,0Z" fill="#f9c900" stroke-width="0"></path>
  <g>
    <path d="M178.42,302.68l.15.1c7.79,5.15,38.39,8.98,74.95,8.98s65.05-3.58,74.06-8.46l.22-.17c.19-5.09.02-10-.37-14.65l-.1-.03c-9.31,4.81-38.84,8.32-73.81,8.32s-66.45-3.74-74.67-8.8c-.42,4.66-.61,9.58-.44,14.7Z" fill="#fff" stroke-width="0"></path>
    <path d="M253.53,312.76c-36.31,0-67.35-3.76-75.5-9.15l-.15-.1c-.27-.18-.44-.48-.45-.8-.16-4.77-.01-9.75.44-14.82.03-.34.24-.65.55-.8.31-.16.68-.14.97.04,8.15,5.01,39.33,8.65,74.14,8.65s64-3.38,73.36-8.21c.24-.12.52-.15.78-.06l.1.03c.38.13.65.46.68.86.43,5.03.56,10,.38,14.77-.01.3-.16.59-.41.77l-.22.17s-.08.05-.12.08c-9.34,5.05-40,8.58-74.54,8.58ZM179.4,302.12c8.18,5.02,39.15,8.64,74.12,8.64s63.9-3.36,73.31-8.19c.13-4.1.04-8.34-.28-12.64-10.88,4.72-39.73,7.85-73.03,7.85s-63.63-3.33-73.8-8.2c-.33,4.28-.44,8.49-.32,12.54Z" fill="#121212" stroke-width="0"></path>
  </g>
  <g>
    <path d="M278.58,242.23s0-.02,0-.03c-.03-1.3-1.25-2.25-2.54-2.15-6.74.49-14.42.76-22.58.76-13.74,0-26.11-.79-34.9-2.05-.81-.12-1.65.15-2.14.8-.33.44-.52.99-.51,1.59l.31,20.89c0,.12.02.24.03.36v.04c.04,2.75,1.85,5.19,4.45,5.79,3.83.89,7.18-2.13,7.13-5.91l-.02-1.62c0-.26-.03-.52-.07-.76l-.02-1.5c0-.27.05-.53.07-.8.33-4.83,4.15-8.7,8.92-8.77,4.77-.07,8.7,3.68,9.18,8.51.03.27.09.52.09.8l.22,14.74.11,7.21c.05,3.17,2.4,5.91,5.47,6.06,3.36.18,6.11-2.61,6.06-6.03l-.15-10.16c-.01-.18-.04-.59-.02-1.14-.09-6.3,4.77-12.48,10.87-12.56,0,0,3.63-.18,4.57-.53,6.09-2.27,5.55-8.73,5.49-12.66v-.87Z" fill="#fcc018" stroke-width="0"></path>
    <path d="M252.08,287.19c-.12,0-.24,0-.36,0-3.54-.18-6.36-3.28-6.42-7.05l-.32-21.96c0-.13-.02-.25-.04-.38-.02-.11-.03-.22-.04-.33-.43-4.36-3.88-7.61-8.05-7.61-.04,0-.08,0-.12,0-4.16.06-7.65,3.51-7.94,7.84l-.04.3c-.02.14-.04.27-.04.42l.02,1.44c.04.27.06.55.07.82l.02,1.62c.03,2.2-.92,4.24-2.6,5.6-1.61,1.3-3.71,1.78-5.75,1.3-3.02-.7-5.17-3.47-5.22-6.75v-.09c-.02-.1-.03-.21-.03-.31l-.31-20.89c-.01-.8.23-1.56.71-2.2.68-.91,1.86-1.37,3.08-1.19,9.17,1.31,21.52,2.04,34.75,2.04,7.84,0,15.62-.26,22.51-.76.95-.07,1.87.25,2.57.88.65.59,1.02,1.39,1.05,2.24v.04l.03,1.61c.08,3.92.23,10.5-6.16,12.87-1.03.38-4.24.56-4.87.59-5.3.08-10.01,5.58-9.92,11.55-.02.53,0,.89.01,1.06l.15,10.24c.03,1.96-.75,3.84-2.14,5.18-1.26,1.22-2.89,1.87-4.61,1.87ZM236.84,247.86c5.21,0,9.51,4.02,10.04,9.41,0,.08.02.16.03.24.03.21.06.42.06.64l.32,21.96c.04,2.72,2.03,4.95,4.52,5.08,1.3.07,2.53-.4,3.48-1.31.99-.95,1.55-2.31,1.53-3.71l-.15-10.16c-.01-.2-.04-.63-.02-1.2-.11-7.08,5.43-13.43,11.86-13.52,1.41-.07,3.69-.27,4.24-.47,5.04-1.88,4.93-7.12,4.85-10.95l-.03-1.62h0v-.04c0-.37-.22-.63-.39-.79-.29-.26-.69-.39-1.08-.37-6.93.5-14.76.77-22.65.77-13.33,0-25.77-.73-35.04-2.06-.49-.07-.95.09-1.2.41-.21.28-.32.62-.31.98l.31,20.89s0,.1.01.15v.16c.05,2.42,1.59,4.45,3.69,4.93,1.46.34,2.9.02,4.05-.91,1.2-.97,1.88-2.43,1.85-4.01l-.02-1.62c0-.22-.03-.43-.06-.64,0-.04,0-.08,0-.12l-.02-1.5c0-.24.02-.47.05-.7l.03-.21c.36-5.33,4.71-9.59,9.91-9.67.05,0,.1,0,.15,0Z" fill="#121212" stroke-width="0"></path>
  </g>
  <g clip-path="url(#clippath)">
    <g>
      <g>
        <path d="M268.23,199.21l-.34-.22c-14.67-9.51-18.4-17.16-18.95-21.91-.38-3.33.63-6.36,2.95-8.77,2.96-2.88,9.87-5.97,17.12.6,9.9,8.98,9.75,18.23-.51,30l-.27.3Z" fill="#f8f9f9" stroke-width="0"></path>
        <path d="M268.42,200.52l-1.07-.69c-15-9.72-18.83-17.68-19.4-22.64-.42-3.63.69-6.95,3.22-9.57,3.22-3.14,10.71-6.52,18.51.55,10.26,9.31,10.13,19.29-.43,31.39l-.84.96ZM259.97,166.03c-3.22,0-5.87,1.53-7.38,3-2.08,2.16-3,4.91-2.65,7.93.52,4.5,4.09,11.76,18.11,20.94,9.64-11.23,9.72-19.7.29-28.25-2.95-2.67-5.83-3.62-8.37-3.62Z" fill="#121212" stroke-width="0"></path>
      </g>
      <g>
        <path d="M286.22,215.28c-4.98-2.53-10.92-7.38-17.57-16.19l-.24-.32.27-.29c13.85-14.48,24.43-8.62,32.1-1.91,1.68,1.47,9.77,9.26,3.65,17.88-.88,1.25-3.98,3.25-8.52,3.31-2.58.04-5.85-.54-9.69-2.49Z" fill="#f8f9f9" stroke-width="0"></path>
        <path d="M295.67,218.78c-3.18,0-6.51-.88-9.91-2.6h0c-5.9-3-11.93-8.55-17.92-16.48l-.75-1,.87-.9c14.59-15.26,26.1-8.43,33.48-1.97,1.8,1.57,10.42,9.89,3.8,19.22-1.04,1.46-4.38,3.66-9.32,3.74-.08,0-.17,0-.25,0ZM286.67,214.39c3.2,1.63,6.31,2.42,9.22,2.39,4.32-.06,7.07-1.98,7.72-2.89,5.62-7.92-1.92-15.18-3.49-16.55-13.69-11.98-23.05-6.06-30.4,1.52,5.71,7.5,11.42,12.72,16.95,15.54h0Z" fill="#121212" stroke-width="0"></path>
      </g>
      <g>
        <path d="M282.54,242.81c-8.32,11.86-31.9,12.2-51.21-1.44-31.07-21.89-26.94-35.97-18.6-47.71,8.32-11.86,27.8-16.36,51.8.51,19.24,13.58,26.28,36.84,18.01,48.63Z" fill="#fcc018" stroke-width="0"></path>
        <path d="M261.57,252.67c-10.14,0-21.24-3.71-30.82-10.48-15.05-10.61-23.14-20.26-24.73-29.51-1.38-8.06,2.42-14.71,5.9-19.59,4.6-6.56,11.98-10.45,20.78-10.94,9.99-.55,21.18,3.32,32.41,11.21,18.67,13.18,27.37,37.03,18.25,50.03h0c-3.18,4.53-8.46,7.56-15.26,8.74-2.11.37-4.29.55-6.52.55ZM234.6,184.1c-.6,0-1.2.02-1.79.05-8.17.46-15.01,4.04-19.26,10.09-3.45,4.86-6.81,10.81-5.56,18.1,1.49,8.7,9.31,17.93,23.91,28.21,11.26,7.95,24.66,11.55,35.85,9.6,6.27-1.09,11.1-3.83,13.97-7.92h0c7.68-10.96,1.72-33.49-17.76-47.24-10.18-7.15-20.29-10.9-29.36-10.9Z" fill="#121212" stroke-width="0"></path>
      </g>
      <g>
        <g>
          <ellipse cx="225.17" cy="193.87" rx="4.44" ry="2.47" transform="translate(-71.13 171.6) rotate(-36.43)" fill="#121212" stroke-width="0"></ellipse>
          <path d="M221.97,197.26c-.26-.13-.48-.31-.65-.54-.94-1.27.02-3.51,2.18-5.11,2.16-1.59,4.59-1.85,5.53-.58.94,1.27-.02,3.51-2.18,5.11-1.77,1.31-3.71,1.71-4.88,1.12ZM228.06,191.11c-.91-.46-2.63-.05-4.14,1.06-1.78,1.32-2.71,3.21-2.03,4.13.68.92,2.76.59,4.55-.73,1.78-1.32,2.71-3.21,2.03-4.13-.1-.14-.24-.25-.4-.34Z" fill="#121212" stroke-width="0"></path>
        </g>
        <ellipse cx="224.53" cy="192.7" rx="1.28" ry=".71" transform="translate(-70.56 170.99) rotate(-36.43)" fill="#f8f9f9" stroke-width="0"></ellipse>
      </g>
      <g>
        <g>
          <ellipse cx="230.82" cy="200.66" rx="4.44" ry="2.47" transform="translate(-73.17 167) rotate(-34.68)" fill="#121212" stroke-width="0"></ellipse>
          <path d="M227.57,203.97c-.28-.14-.51-.34-.69-.59-.45-.65-.43-1.55.05-2.53.45-.91,1.26-1.8,2.28-2.51,1.02-.71,2.14-1.15,3.16-1.25,1.09-.11,1.93.19,2.38.84.45.65.43,1.55-.05,2.53-.45.91-1.26,1.8-2.29,2.51h0c-1.02.71-2.14,1.15-3.16,1.25-.67.07-1.25-.02-1.7-.25ZM233.76,197.96c-.33-.17-.78-.23-1.31-.18-.9.09-1.9.49-2.83,1.13-.93.64-1.66,1.44-2.06,2.25-.37.74-.4,1.39-.1,1.82.3.43.92.63,1.74.55.9-.09,1.9-.49,2.83-1.13h0c.93-.64,1.66-1.44,2.06-2.25.37-.74.4-1.39.1-1.82-.11-.15-.25-.28-.43-.37ZM232.23,202.68h0s0,0,0,0Z" fill="#121212" stroke-width="0"></path>
        </g>
        <ellipse cx="230.07" cy="199.58" rx="1.28" ry=".71" transform="translate(-72.69 166.38) rotate(-34.68)" fill="#f8f9f9" stroke-width="0"></ellipse>
      </g>
      <g>
        <path d="M218.16,208.84c-3.49-1.77-3.05-4.99-3.05-5.03.05-.33.36-.56.69-.51.33.05.56.36.51.69-.02.13-.34,2.88,3.28,4.15.31.11.48.46.37.77-.11.32-.46.48-.77.37-.38-.13-.72-.28-1.04-.44Z" fill="#121212" stroke-width="0"></path>
        <path d="M219.4,209.82c-.12,0-.24-.02-.36-.06-.39-.13-.76-.29-1.1-.47h0c-3.77-1.92-3.34-5.4-3.32-5.54.09-.61.66-1.03,1.26-.94.6.09,1.02.65.93,1.25-.01.1-.29,2.47,2.96,3.6.57.2.88.83.68,1.41-.16.46-.59.74-1.05.74ZM215.71,203.8c-.05,0-.1.04-.11.09-.01.11-.35,2.92,2.78,4.51h0c.3.15.63.29.97.41.06.02.12-.01.14-.07.02-.05-.02-.12-.07-.14-4.01-1.4-3.63-4.55-3.61-4.68,0-.06-.03-.12-.09-.13,0,0-.01,0-.02,0Z" fill="#121212" stroke-width="0"></path>
      </g>
      <g clip-path="url(#clippath-1)">
        <g>
          <path d="M243.05,248.85c3.09,1.27,6.18,2.1,9.19,2.77,16.88-4.97,30.97-27.64,27.54-42.23-2.09-3.45-4.65-6.71-7.67-9.77,6.26,19.04-12.09,42.16-29.07,49.23Z" fill="#121212" stroke-width="0"></path>
          <path d="M242.13,248.85l.78-.33c15.72-6.56,35.26-29.36,28.87-48.8l-.47-1.42,1.05,1.07c3.02,3.07,5.62,6.38,7.72,9.84l.04.1c3.54,15.07-11.26,37.78-27.79,42.65l-.09.03-.09-.02c-3.63-.8-6.57-1.68-9.25-2.79l-.78-.32ZM272.86,200.89c2.25,8.49.05,18.37-6.27,28.01-5.75,8.78-14.16,16.17-22.62,19.93,2.41.93,5.06,1.71,8.26,2.42,16.17-4.82,30.64-27,27.23-41.73-1.83-3.01-4.05-5.9-6.6-8.63Z" fill="#121212" stroke-width="0"></path>
        </g>
        <g>
          <path d="M265.93,194.05c.05-.07-5.16-3.28-7.21-4.52,1.81,15.77-11.37,46.03-34.09,47.87,1.98,1.62,4.14,3.27,6.49,4.96.61.46,1.2.81,1.81,1.27,24.26-5.46,37.14-36.5,33-49.58Z" fill="#121212" stroke-width="0"></path>
          <path d="M232.84,244.01l-.13-.1c-.3-.23-.59-.43-.89-.62-.31-.21-.61-.41-.92-.65-2.34-1.67-4.53-3.35-6.5-4.96l-.67-.55.87-.07c8.01-.65,15.53-4.99,21.74-12.54,9.24-11.24,13.04-26.08,12.03-34.94l-.08-.71.61.37c6.72,4.06,7.3,4.56,7.37,4.71h0s0,0,0,0c0,0,0,.01,0,.02,2.15,6.83-.27,18.12-6.01,28.11-3.88,6.76-12.59,18.59-27.26,21.89l-.16.04ZM225.51,237.67c1.79,1.44,3.74,2.92,5.81,4.4.31.23.6.43.9.63.26.18.52.35.79.55,14.31-3.29,22.83-14.89,26.64-21.52,5.63-9.8,8.02-20.82,5.97-27.48-.55-.4-4.23-2.68-6.49-4.05.76,9.07-3.13,23.66-12.25,34.76-6.12,7.44-13.49,11.82-21.37,12.71Z" fill="#121212" stroke-width="0"></path>
        </g>
        <g>
          <path d="M262.51,252.86c8.93-.51,16.43-3.8,20.53-9.66,3.9-5.57,4.7-13.45,2.68-21.82-.33,12.44-13.27,28.64-23.21,31.48Z" fill="#121212" stroke-width="0"></path>
          <path d="M259.38,253.39l3.03-.86c9.53-2.72,22.62-18.62,22.96-31.15l.07-2.64.62,2.57c2.11,8.73,1.14,16.58-2.73,22.1-4.07,5.79-11.45,9.28-20.8,9.8l-3.14.18ZM285.86,223.76c-1.6,11.31-12.11,24.4-20.89,28.53,7.95-.94,14.21-4.2,17.78-9.29,3.41-4.87,4.49-11.64,3.11-19.24Z" fill="#121212" stroke-width="0"></path>
        </g>
      </g>
    </g>
  </g>
  <g>
    <g>
      <path d="M315.92,374.99c.28.19.77.46,1.57.75,1.06.37,15.41,4.96,40.22-11.83.2-.14.2-.11.4-.25,2.18-1.6,4.48-3.25,6.65-5.07l.51-.43.51-.43c.47-.39.91-.81,1.37-1.21,1.86-1.65,3.42-3.14,5.09-4.83,20.78-21.59,18.79-36.52,18.53-37.61-.46-1.9-1.65-3.19-1.65-3.19-.4-.38-1.1-.48-2.18-.21-4.41,1.07-14.45,7.33-26.58,16.62-3.85,2.97-7.89,6.23-12.02,9.71l-.51.43-.51.43c-5.74,4.83-11.05,9.57-15.66,13.96-9.07,8.69-15.29,15.94-16.87,19.58-.43,1-.43,1.54-.19,2.15,0,0,.43.89,1.34,1.44Z" fill="#4f94f6" stroke-width="0"></path>
      <path d="M323.98,377.6c-3.93,0-6.25-.72-6.83-.92-.71-.25-1.3-.54-1.77-.85-1.12-.69-1.64-1.74-1.7-1.85-.39-.99-.34-1.81.17-2.98,1.67-3.84,7.9-11.1,17.09-19.9,4.74-4.51,10.03-9.22,15.71-14l1.03-.86c4.02-3.38,8.07-6.65,12.05-9.73,12.28-9.41,22.36-15.69,26.96-16.8,1.39-.35,2.41-.2,3.1.45.11.11,1.42,1.56,1.93,3.68.04.15,3.07,15.85-18.78,38.54-1.78,1.8-3.36,3.3-5.15,4.88-.21.18-.41.36-.6.54-.26.23-.52.47-.78.69l-1.03.86c-1.98,1.67-4.05,3.18-6.06,4.64l-.64.47c-.16.11-.22.15-.29.19-.03.02-.07.04-.13.08-15.83,10.72-27.48,12.87-34.29,12.87ZM315.51,373.17s.33.6.93.96c.01,0,.02.02.04.02.23.15.65.39,1.35.64.59.21,14.75,4.92,39.33-11.72.13-.09.2-.13.26-.16.03-.02.07-.04.13-.08l.62-.45c1.98-1.44,4.02-2.94,5.95-4.56l1.03-.86c.25-.21.48-.42.72-.64.21-.19.42-.38.63-.56,1.74-1.54,3.29-3.02,5.03-4.78,21.1-21.92,18.3-36.53,18.27-36.67-.39-1.61-1.4-2.74-1.41-2.75-.04-.03-.4-.11-1.2.09-4.29,1.04-14.33,7.34-26.22,16.44-3.96,3.06-7.99,6.32-11.99,9.68l-1.03.86c-5.66,4.76-10.91,9.44-15.62,13.92-8.88,8.5-15.1,15.7-16.64,19.25-.38.86-.28,1.12-.18,1.38h0Z" fill="#121212" stroke-width="0"></path>
    </g>
    <g>
      <path d="M325.17,376.4c0,.06,0,.1,0,.16,6.76-.25,17.81-2.69,32.54-12.66.2-.14.2-.11.4-.25,2.18-1.6,4.48-3.25,6.65-5.07l.51-.43.51-.43c.47-.39.91-.81,1.37-1.21,1.86-1.65,3.42-3.14,5.09-4.83,11.97-12.43,16.38-22.65,17.92-29.29,0,0,0,0,0,0-10.83,4.82-22.78,14.52-34.45,24.09-11.67,9.57-22.56,20.48-30.53,29.92Z" fill="#fff" stroke-width="0"></path>
      <path d="M325.17,377.56c-.27,0-.53-.11-.72-.3-.2-.2-.3-.48-.28-.77,0-.04,0-.1,0-.17.02-.21.1-.4.23-.56,8.53-10.12,19.71-21.07,30.66-30.05,11-9.02,23.47-19.24,34.68-24.23.34-.15.75-.1,1.04.14.29.24.42.63.34,1-1.52,6.54-5.9,17.01-18.17,29.76-1.78,1.8-3.36,3.3-5.15,4.88-.21.18-.4.36-.6.54-.26.23-.52.47-.78.69l-1.03.86c-1.98,1.67-4.05,3.18-6.06,4.64l-.64.47c-.16.11-.22.15-.29.18-.03.02-.07.04-.13.08-14.99,10.15-26.26,12.58-33.07,12.83-.01,0-.02,0-.04,0ZM388.65,324.2c-10.47,5.15-22.04,14.63-32.31,23.05-10.27,8.42-20.74,18.59-29,28.16,6.67-.67,16.75-3.49,29.81-12.33.13-.09.2-.13.26-.17.03-.02.07-.04.13-.08l.62-.45c1.98-1.44,4.02-2.94,5.95-4.56l1.03-.86c.25-.21.49-.43.73-.65.21-.19.42-.38.63-.56,1.74-1.54,3.29-3.02,5.03-4.78,10.73-11.14,15.25-20.44,17.12-26.78Z" fill="#121212" stroke-width="0"></path>
    </g>
    <g>
      <path d="M359.46,358.19c-2.24,1.89-3.17,4.99-2.15,7.74.47,1.27,1.16,2.48,2.09,3.58,4.17,4.96,11.45,5.71,16.24,1.67,4.8-4.04,5.3-11.33,1.13-16.29-.92-1.1-2-1.99-3.17-2.67-2.54-1.47-5.75-1.09-7.99.8l-6.15,5.17Z" fill="#4f94f6" stroke-width="0"></path>
      <path d="M368.47,374.77c-3.63,0-7.28-1.58-9.84-4.62-.98-1.16-1.74-2.47-2.26-3.88-1.14-3.1-.16-6.66,2.44-8.85h0l6.15-5.17c2.61-2.19,6.28-2.55,9.14-.9,1.3.75,2.45,1.73,3.43,2.89,2.19,2.6,3.26,5.87,3.03,9.2-.23,3.35-1.75,6.37-4.28,8.5-2.26,1.9-5.03,2.83-7.81,2.83ZM360.1,358.95c-1.96,1.65-2.71,4.32-1.86,6.63.44,1.19,1.08,2.3,1.91,3.28,3.81,4.53,10.47,5.22,14.84,1.55,2.11-1.78,3.38-4.3,3.57-7.1.2-2.82-.72-5.58-2.57-7.78-.83-.99-1.81-1.81-2.91-2.45-2.13-1.23-4.88-.96-6.85.7l-6.15,5.17Z" fill="#121212" stroke-width="0"></path>
    </g>
  </g>
  <g>
    <rect x="142.51" y="322.75" width="61.66" height="61.66" transform="translate(-91.71 62.35) rotate(-16.19)" fill="none" stroke-width="0"></rect>
    <g>
      <g>
        <path d="M160.64,376.68c-12.79-6.96-17.51-22.97-10.56-35.76,6.95-12.79,22.95-17.51,35.73-10.55.07.03.14.08.21.12,12.79,6.96,17.51,22.97,10.56,35.76-6.95,12.79-22.95,17.51-35.73,10.55-.07-.03-.14-.08-.21-.12Z" fill="#f8f9f9" stroke-width="0"></path>
        <path d="M173.24,327.15v2h0c4.03,0,8.05,1.03,11.62,2.97.04.02.08.04.13.06-.02,0-.04-.02-.04-.02,0,0,0,0,0,0l.12.07c11.79,6.42,16.17,21.25,9.76,33.05-4.26,7.85-12.46,12.72-21.4,12.72-4.03,0-8.05-1.03-11.62-2.97-.04-.02-.08-.04-.13-.06.02,0,.04.02.04.02,0,0,0,0,0,0l-.12-.07c-11.79-6.42-16.17-21.25-9.76-33.05,4.26-7.84,12.46-12.72,21.4-12.72v-2M173.24,327.15c-9.34,0-18.38,4.98-23.16,13.76-6.94,12.79-2.22,28.8,10.56,35.76.07.04.14.08.21.12,4,2.18,8.32,3.21,12.58,3.21,9.34,0,18.38-4.98,23.16-13.76,6.94-12.79,2.22-28.8-10.56-35.76-.08-.04-.14-.08-.21-.12-4-2.18-8.32-3.21-12.58-3.21h0Z" fill="#121212" stroke-width="0"></path>
      </g>
      <g>
        <path d="M163.54,371.4c-9.86-5.37-13.5-17.72-8.14-27.58,5.36-9.86,17.7-13.5,27.55-8.13.05.03.11.06.16.09,9.85,5.37,13.5,17.72,8.14,27.58-5.36,9.86-17.7,13.5-27.55,8.13-.05-.03-.11-.06-.16-.09Z" fill="#f8f9f9" stroke-width="0"></path>
        <path d="M173.26,335.2h0c3.03,0,6.05.77,8.74,2.24l.07.04.09.05c8.87,4.84,12.17,15.99,7.34,24.87-3.21,5.9-9.38,9.57-16.1,9.57-3.03,0-6.06-.77-8.74-2.23l-.16-.09c-8.88-4.84-12.17-15.99-7.34-24.87,3.21-5.9,9.38-9.57,16.1-9.57M173.26,333.2c-7.2,0-14.18,3.84-17.86,10.61-5.36,9.86-1.71,22.21,8.14,27.58.05.03.11.06.16.09,3.09,1.68,6.41,2.48,9.7,2.48,7.2,0,14.18-3.84,17.86-10.61,5.36-9.86,1.71-22.21-8.14-27.58-.05-.03-.11-.06-.16-.09-3.09-1.68-6.41-2.48-9.7-2.48h0Z" fill="#121212" stroke-width="0"></path>
      </g>
      <g>
        <path d="M171.11,364.23c.19.05.39,0,.53-.15l3.4-3.66c.13-.15.18-.36.13-.55l-1.43-4.94c-.06-.2-.21-.35-.4-.4l-4.83-1.28c-.19-.05-.39,0-.53.15l-3.39,3.66c-.13.15-.18.36-.13.55l1.43,4.94c.06.2.21.35.4.4l4.83,1.27Z" fill="#fcc018" stroke-width="0"></path>
        <path d="M171.25,365.25c-.13,0-.26-.02-.39-.05l-4.83-1.27c-.53-.14-.96-.56-1.11-1.09l-1.43-4.94c-.16-.53-.02-1.11.35-1.51l3.39-3.67c.38-.42.97-.58,1.52-.44l4.83,1.28c.53.14.96.56,1.11,1.09l1.43,4.94c.16.53.02,1.11-.35,1.51l-3.4,3.66c-.29.32-.7.49-1.12.49ZM171.37,363.26h0,0ZM166.77,362.05l4.32,1.14,3.04-3.28-1.3-4.49-4.32-1.14-3.04,3.28,1.3,4.49ZM174.2,360.14h0s0,0,0,0ZM165.4,357.33h0s0,0,0,0Z" fill="#121212" stroke-width="0"></path>
      </g>
      <g>
        <path d="M173.31,354.48c.19.05.39,0,.53-.15l3.4-3.66c.13-.15.18-.36.13-.55l-1.43-4.94c-.06-.2-.21-.35-.4-.4l-4.83-1.28c-.19-.05-.39,0-.53.15l-3.39,3.66c-.13.15-.18.36-.13.55l1.43,4.94c.06.2.21.35.4.4l4.83,1.27Z" fill="#fcc018" stroke-width="0"></path>
        <path d="M173.45,355.5c-.13,0-.26-.02-.39-.05l-4.83-1.27c-.53-.14-.96-.56-1.11-1.09l-1.43-4.94c-.15-.53-.02-1.11.35-1.51l3.4-3.67c.39-.42.97-.58,1.52-.44l4.83,1.27c.53.14.95.56,1.11,1.08l1.43,4.94c.16.53.02,1.11-.35,1.51l-3.4,3.66c-.29.32-.7.49-1.12.49ZM173.57,353.52h0,0ZM168.98,352.3l4.32,1.14,3.04-3.28-1.3-4.49-4.32-1.14-3.04,3.28,1.3,4.49ZM176.4,350.39h0s0,0,0,0Z" fill="#121212" stroke-width="0"></path>
      </g>
      <g>
        <path d="M180.39,361.53c.19.05.39,0,.53-.15l3.4-3.66c.13-.15.18-.36.13-.55l-1.43-4.94c-.06-.2-.21-.35-.4-.4l-4.83-1.28c-.19-.05-.39,0-.53.15l-3.39,3.66c-.13.15-.18.36-.13.55l1.43,4.94c.06.2.21.35.4.4l4.83,1.27Z" fill="#fcc018" fill-rule="evenodd" stroke-width="0"></path>
        <path d="M180.53,362.55c-.13,0-.26-.02-.39-.05l-4.83-1.27c-.53-.14-.95-.55-1.11-1.08l-1.43-4.94c-.15-.53-.02-1.11.35-1.51l3.39-3.67c.39-.42.97-.58,1.52-.44l4.83,1.28c.53.14.96.56,1.11,1.09l1.43,4.94c.15.53.02,1.11-.35,1.51l-3.4,3.66c-.29.32-.7.49-1.12.49ZM180.65,360.57h0,0ZM176.05,359.35l4.32,1.14,3.04-3.28-1.3-4.49-4.32-1.14-3.04,3.28,1.3,4.49Z" fill="#121212" stroke-width="0"></path>
      </g>
    </g>
  </g>
  <g>
    <rect x="107.66" y="260.59" width="40.17" height="40.17" transform="translate(188.87 -21.58) rotate(35.9)" fill="none" stroke-width="0"></rect>
    <g>
      <g>
        <path d="M110.79,283.4c-1.54-9.36,4.8-18.2,14.16-19.75,9.36-1.55,18.19,4.79,19.73,14.14.01.05.02.1.03.16,1.54,9.36-4.8,18.2-14.16,19.75-9.36,1.55-18.19-4.79-19.73-14.14-.01-.05-.02-.1-.03-.16Z" fill="#f8f9f9" stroke-width="0"></path>
        <path d="M127.77,263.42v2c7.44,0,13.72,5.34,14.93,12.7,0,.02,0,.04.01.07v.09c1.37,8.25-4.24,16.08-12.5,17.45-.83.14-1.67.21-2.5.21-7.44,0-13.72-5.34-14.93-12.7,0-.02,0-.04-.01-.06v-.09c-1.37-8.25,4.24-16.08,12.5-17.45.83-.14,1.67-.21,2.5-.21v-2M127.77,263.42c-.93,0-1.87.08-2.82.23-9.35,1.55-15.7,10.39-14.16,19.75,0,.05.01.11.03.16,1.39,8.41,8.65,14.38,16.91,14.38.93,0,1.87-.08,2.82-.23,9.35-1.55,15.7-10.39,14.16-19.75,0-.05-.01-.11-.03-.16-1.39-8.41-8.65-14.38-16.91-14.38h0Z" fill="#121212" stroke-width="0"></path>
      </g>
      <g>
        <path d="M114.66,282.78c-1.18-7.22,3.7-14.03,10.92-15.23,7.21-1.19,14.03,3.69,15.21,10.91,0,.04.01.08.02.12,1.18,7.22-3.7,14.03-10.92,15.22-7.21,1.19-14.03-3.69-15.21-10.91,0-.04-.01-.08-.02-.12Z" fill="#f8f9f9" stroke-width="0"></path>
        <path d="M127.76,269.38c5.52,0,10.17,3.96,11.07,9.45v.08c1.02,6.12-3.14,11.92-9.26,12.93-.61.1-1.23.15-1.85.15-5.52,0-10.17-3.96-11.07-9.41l-.02-.12c-1-6.12,3.15-11.92,9.27-12.93.61-.1,1.23-.15,1.85-.15M127.76,267.38c-.72,0-1.44.06-2.17.18-7.22,1.19-12.1,8.01-10.92,15.23,0,.04.01.08.02.12,1.06,6.49,6.68,11.09,13.04,11.09.72,0,1.44-.06,2.17-.18,7.21-1.19,12.1-8.01,10.92-15.22,0-.04-.01-.08-.02-.12-1.06-6.49-6.68-11.09-13.04-11.09h0Z" fill="#121212" stroke-width="0"></path>
      </g>
      <g>
        <path d="M121.38,283.8c.05.12.16.2.29.21l3.24.28c.13.01.26-.05.33-.16l1.97-2.71c.08-.11.09-.25.04-.37l-1.28-2.99c-.05-.12-.16-.2-.29-.21l-3.24-.28c-.13-.01-.26.05-.33.16l-1.97,2.71c-.08.11-.09.25-.04.37l1.28,2.99Z" fill="#fcc018" stroke-width="0"></path>
        <path d="M124.94,285.29s-.07,0-.11,0l-3.25-.28c-.5-.04-.93-.35-1.12-.81l-1.28-2.99c-.19-.45-.13-.96.15-1.34l1.97-2.72c.28-.39.75-.62,1.23-.57l3.25.28c.5.04.93.35,1.12.81l1.28,2.99c.19.44.13.96-.16,1.35l-1.96,2.71c-.26.36-.68.57-1.12.57ZM122.3,283.41h0,0ZM122.3,283.4h0s0,0,0,0ZM122.14,283.05l2.5.21,1.55-2.15-.98-2.3-2.5-.21-1.55,2.15.98,2.3ZM121.75,283.01h0,0ZM126.4,280.83s0,0,0,0h0ZM125.6,278.84h0,0Z" fill="#121212" stroke-width="0"></path>
      </g>
      <g>
        <path d="M127.27,281.03c.05.12.16.2.29.21l3.24.28c.13.01.26-.05.33-.16l1.97-2.71c.08-.11.09-.25.04-.37l-1.28-2.99c-.05-.12-.16-.2-.29-.21l-3.24-.28c-.13-.01-.26.05-.33.16l-1.97,2.71c-.08.11-.09.25-.04.37l1.28,2.99Z" fill="#fcc018" stroke-width="0"></path>
        <path d="M130.83,282.52s-.07,0-.11,0l-3.25-.28c-.5-.04-.93-.36-1.12-.81,0,0,0,0,0,0l-1.28-2.99c-.18-.44-.13-.95.15-1.34l1.97-2.72c.28-.39.75-.61,1.23-.57l3.25.28c.49.04.93.35,1.12.81l1.28,3c.19.44.13.96-.16,1.35l-1.96,2.71c-.26.36-.68.57-1.12.57ZM130.33,280.78s0,0,0,0h0ZM128.04,280.28l2.5.21,1.55-2.15-.98-2.3-2.5-.21-1.55,2.15.98,2.3ZM132.23,278.67s0,0,0,0h0ZM132.29,278.06s0,0,0,0h0ZM131.49,276.07h0,0ZM128.81,275.54h0s0,0,0,0Z" fill="#121212" stroke-width="0"></path>
      </g>
      <g>
        <path d="M126.48,287.49c.05.12.16.2.29.21l3.24.28c.13.01.26-.05.33-.16l1.97-2.71c.08-.11.09-.25.04-.37l-1.28-2.99c-.05-.12-.16-.2-.29-.21l-3.24-.28c-.13-.01-.26.05-.33.16l-1.97,2.71c-.08.11-.09.25-.04.37l1.28,2.99Z" fill="#fcc018" fill-rule="evenodd" stroke-width="0"></path>
        <path d="M130.04,288.98s-.08,0-.12,0l-3.24-.28c-.5-.04-.93-.35-1.12-.81l-1.28-2.99c-.19-.44-.13-.95.15-1.34l1.97-2.72c.28-.39.76-.61,1.24-.57l3.24.28c.5.05.93.36,1.12.81l1.28,2.99c.19.44.13.95-.15,1.34l-1.97,2.72c-.26.36-.68.57-1.11.57ZM129.54,287.24s0,0,0,0h0ZM127.4,287.1h0,0ZM130.09,286.98h0s0,0,0,0ZM127.24,286.74l2.5.21,1.55-2.14-.98-2.31-2.5-.21-1.55,2.15.98,2.3ZM126.85,286.7h0,0ZM131.44,285.14s0,0,0,0h0ZM126.12,284.1h0s0,0,0,0ZM127.46,282.26s0,0,0,0h0ZM128.02,282h0s0,0,0,0Z" fill="#121212" stroke-width="0"></path>
      </g>
    </g>
  </g>
  <g>
    <rect x="328.02" y="196.43" width="40.17" height="40.17" transform="translate(-15.73 27.62) rotate(-4.44)" fill="none" stroke-width="0"></rect>
    <g>
      <g>
        <path d="M336.95,229.57c-7.23-6.14-8.12-16.98-1.99-24.21,6.13-7.24,16.96-8.13,24.19-1.99.04.03.08.07.12.1,7.23,6.14,8.12,16.98,1.99,24.21-6.13,7.24-16.96,8.13-24.19,1.99-.04-.03-.08-.07-.12-.1Z" fill="#f8f9f9" stroke-width="0"></path>
        <path d="M348.05,199.29v2c3.58,0,7.06,1.28,9.8,3.6.02.01.03.03.05.04l.07.06c6.38,5.41,7.17,15.01,1.76,21.4-2.89,3.41-7.1,5.36-11.57,5.36-3.58,0-7.06-1.28-9.8-3.6-.02-.01-.03-.03-.05-.04l-.07-.07c-6.38-5.41-7.17-15.01-1.76-21.4,2.89-3.41,7.1-5.36,11.57-5.36v-2M348.05,199.29c-4.87,0-9.7,2.06-13.1,6.07-6.13,7.24-5.24,18.08,1.99,24.21.04.04.08.07.12.1,3.23,2.74,7.17,4.08,11.1,4.08,4.87,0,9.7-2.06,13.1-6.07,6.13-7.24,5.24-18.08-1.99-24.21-.04-.04-.08-.07-.12-.1-3.23-2.74-7.17-4.08-11.1-4.08h0Z" fill="#121212" stroke-width="0"></path>
      </g>
      <g>
        <path d="M339.5,226.59c-5.57-4.73-6.26-13.09-1.54-18.67,4.73-5.58,13.08-6.27,18.66-1.53.03.03.06.05.09.08,5.57,4.73,6.26,13.09,1.54,18.67-4.73,5.58-13.08,6.27-18.66,1.53-.03-.03-.06-.05-.09-.08Z" fill="#f8f9f9" stroke-width="0"></path>
        <path d="M348.07,205.23h0c2.65,0,5.23.95,7.25,2.66l.1.08c4.73,4.01,5.31,11.13,1.3,15.85-2.14,2.52-5.26,3.97-8.58,3.97-2.65,0-5.23-.95-7.25-2.66l-.1-.09c-4.73-4.01-5.31-11.13-1.3-15.85,2.14-2.52,5.27-3.97,8.58-3.97M348.06,203.23c-3.75,0-7.48,1.59-10.1,4.68-4.73,5.58-4.04,13.94,1.54,18.67.03.03.06.05.09.08,2.49,2.11,5.53,3.14,8.55,3.14,3.75,0,7.48-1.59,10.1-4.68,4.73-5.58,4.04-13.94-1.54-18.67l-.09-.08c-2.49-2.11-5.53-3.14-8.55-3.14h0Z" fill="#121212" stroke-width="0"></path>
      </g>
      <g>
        <path d="M345.27,223.02c.12.06.25.05.36-.03l2.65-1.89c.11-.07.16-.2.15-.34l-.26-3.34c-.01-.13-.09-.25-.2-.31l-2.91-1.45c-.12-.06-.25-.05-.36.03l-2.65,1.89c-.11.07-.16.2-.15.34l.26,3.34c.01.13.09.25.2.31l2.91,1.45Z" fill="#fcc018" stroke-width="0"></path>
        <path d="M345.43,224.05c-.21,0-.41-.05-.6-.14l-2.91-1.45c-.43-.21-.72-.65-.75-1.13l-.26-3.34c-.04-.47.18-.95.57-1.22l2.66-1.89c.4-.29.94-.33,1.39-.11l2.91,1.45c.43.21.72.65.75,1.13l.26,3.34c.04.48-.18.95-.57,1.23l-2.65,1.89c-.24.17-.51.25-.78.25ZM345.72,222.12h0,0ZM343.13,220.83l2.24,1.12,2.04-1.45-.21-2.64-2.24-1.12-2.04,1.45.21,2.64ZM343.16,221.17h0s0,0,0,0ZM347.44,220.84h0s0,0,0,0ZM342.81,220.67h0s0,0,0,0ZM342.9,217.83h0s0,0,0,0ZM347.18,217.5h0s0,0,0,0ZM344.62,216.56s0,0,0,0h0ZM345.29,216.5h0s0,0,0,0Z" fill="#121212" stroke-width="0"></path>
      </g>
      <g>
        <path d="M347.97,217.09c.12.06.25.05.36-.03l2.65-1.89c.11-.07.16-.2.15-.34l-.26-3.34c-.01-.13-.09-.25-.2-.31l-2.91-1.45c-.12-.06-.25-.05-.36.03l-2.65,1.89c-.11.07-.16.2-.15.34l.26,3.34c.01.13.09.25.2.31l2.91,1.45Z" fill="#fcc018" stroke-width="0"></path>
        <path d="M348.13,218.13c-.21,0-.41-.05-.61-.14l-2.91-1.45c-.43-.21-.72-.64-.75-1.12l-.26-3.34c-.04-.48.18-.95.57-1.23l2.65-1.89c.41-.29.94-.33,1.38-.11l2.91,1.45c.43.21.72.64.75,1.12l.26,3.34c.04.48-.18.95-.57,1.23l-2.65,1.89c-.23.17-.5.25-.78.25ZM347.75,216.25s0,0,0,0h0ZM348.43,216.2h0,0ZM345.83,214.9l2.24,1.12,2.04-1.45-.21-2.64-2.24-1.12-2.04,1.45.21,2.64Z" fill="#121212" stroke-width="0"></path>
      </g>
      <g>
        <path d="M351.55,222.53c.12.06.25.05.36-.03l2.65-1.89c.11-.07.16-.2.15-.34l-.26-3.34c-.01-.13-.09-.25-.2-.31l-2.91-1.45c-.12-.06-.25-.05-.36.03l-2.65,1.89c-.11.07-.16.2-.15.34l.26,3.34c.01.13.09.25.2.31l2.91,1.45Z" fill="#fcc018" fill-rule="evenodd" stroke-width="0"></path>
        <path d="M351.71,223.56c-.21,0-.41-.05-.6-.14l-2.91-1.45c-.43-.21-.72-.64-.75-1.12l-.26-3.34c-.04-.48.18-.95.57-1.23l2.65-1.89c.41-.29.94-.33,1.39-.1l2.91,1.45c.43.21.72.65.75,1.13l.26,3.34c.04.48-.18.95-.57,1.23l-2.65,1.89c-.24.17-.51.25-.78.25ZM352,221.63h0,0ZM349.41,220.34l2.24,1.12,2.04-1.45-.21-2.64-2.24-1.12-2.04,1.45.21,2.64ZM353.72,220.35h0s0,0,0,0ZM349.09,220.18h0s0,0,0,0ZM353.46,217.01h0s0,0,0,0ZM350.89,216.07s0,0,0,0h0ZM351.57,216.01h0s0,0,0,0Z" fill="#121212" stroke-width="0"></path>
      </g>
    </g>
  </g>
</svg>
