<?xml version="1.0" encoding="UTF-8"?>
<svg xmlns="http://www.w3.org/2000/svg" width="272" height="272" viewBox="0 0 272 272" fill="none">
  <path d="M39.2349 120.146L97.5054 53.922C100.475 50.5286 104.504 48.1957 108.958 47.2943C113.412 46.393 118.025 46.9762 122.107 48.938L207.419 90.2947C210.229 91.6733 212.721 93.6351 214.63 96.074C216.592 98.513 217.917 101.376 218.606 104.451L236.634 185.733C237.694 190.505 237.058 195.436 234.778 199.784C232.551 204.079 228.84 207.472 224.333 209.381L132.924 247.238C130.167 248.405 127.144 248.935 124.122 248.776C121.1 248.67 118.184 247.874 115.48 246.496L45.2793 210.229C41.8859 208.48 39.0758 205.828 37.114 202.594C35.1522 199.36 34.0918 195.648 34.0918 191.831V133.825C34.0918 128.788 35.9475 123.963 39.2349 120.146Z" fill="#C1D9FD"></path>
  <path d="M124.971 249.306C124.653 249.306 124.388 249.306 124.07 249.306C120.995 249.2 117.919 248.352 115.215 246.973L45.0679 210.707C41.6215 208.904 38.7053 206.2 36.6905 202.86C34.6757 199.519 33.6152 195.702 33.6152 191.831V133.826C33.6152 128.683 35.471 123.699 38.9174 119.775L97.1349 53.5512C100.21 50.1048 104.346 47.6658 108.906 46.7645C113.413 45.8631 118.237 46.4464 122.373 48.4612L207.685 89.8179C210.548 91.1964 213.093 93.2643 215.108 95.7563C217.069 98.2483 218.501 101.218 219.19 104.346L237.218 185.628C238.278 190.506 237.642 195.596 235.309 200.049C233.029 204.45 229.211 207.95 224.598 209.858L133.189 247.716C130.538 248.776 127.781 249.306 124.971 249.306ZM39.6597 120.517C36.4254 124.229 34.6226 128.948 34.6226 133.826V191.831C34.6226 195.543 35.63 199.148 37.5918 202.329C39.5006 205.511 42.2577 208.056 45.5451 209.752L115.745 246.019C118.343 247.345 121.26 248.14 124.176 248.246C127.092 248.352 130.061 247.822 132.765 246.708L224.121 208.904C228.522 207.101 232.128 203.761 234.301 199.572C236.475 195.384 237.112 190.506 236.104 185.893L218.077 104.611C217.441 101.642 216.062 98.8315 214.206 96.4456C212.351 94.0596 209.912 92.0978 207.154 90.8253L121.843 49.4686C117.919 47.5598 113.359 46.9766 109.065 47.8249C104.77 48.6732 100.793 51.0062 97.9302 54.2935L39.6597 120.517Z" fill="#121212"></path>
  <path d="M143.264 126.403C151.694 105.884 164.631 105.566 177.94 110.391C191.248 115.216 190.453 124.918 189.604 128.312C188.756 131.652 176.932 147.081 143.264 126.403Z" fill="#F8F9F9"></path>
  <path d="M173.062 137.537C166.01 137.537 156.201 134.992 142.945 126.88L142.574 126.668L142.733 126.244C151.959 103.816 166.487 105.725 178.099 109.913C183.984 112.034 187.855 115.322 189.551 119.722C191.036 123.54 190.453 127.092 190.081 128.471C189.657 130.274 187.059 133.879 181.969 135.947C179.689 136.848 176.72 137.537 173.062 137.537ZM143.9 126.191C163.465 138.121 175.182 137.537 181.545 134.939C186.423 132.925 188.703 129.531 189.021 128.206C189.71 125.343 190.983 115.746 177.674 110.921C166.646 106.891 152.807 105.035 143.9 126.191Z" fill="#121212"></path>
  <path d="M84.3026 157.579C90.7182 159.382 97.611 154.769 99.7318 147.24C101.853 139.764 98.3533 132.182 91.9377 130.379C85.5221 128.577 78.6293 133.19 76.5084 140.719C74.3876 148.248 77.887 155.777 84.3026 157.579Z" fill="#F8F9F9"></path>
  <path d="M87.1133 158.481C86.1059 158.481 85.0985 158.322 84.1441 158.057C77.4634 156.201 73.8049 148.354 75.9788 140.56C78.1527 132.819 85.3636 127.994 92.0443 129.903C98.725 131.758 102.383 139.606 100.21 147.4C99.1492 151.164 96.9223 154.346 93.9 156.36C91.7792 157.739 89.4462 158.481 87.1133 158.481ZM89.0751 130.539C83.826 130.539 78.7359 134.675 76.9862 140.878C74.9714 148.089 78.3117 155.353 84.4092 157.05C87.3784 157.898 90.5067 157.315 93.3168 155.459C96.1269 153.603 98.1948 150.634 99.2022 147.135C101.217 139.924 97.8767 132.66 91.7792 130.963C90.8778 130.698 89.9765 130.539 89.0751 130.539Z" fill="#231F20"></path>
  <path d="M177.939 170.093C173.803 187.166 147.292 197.982 119.509 191.09C74.759 180.114 73.2214 162.405 77.4101 145.438C81.5457 128.365 101.588 114.686 136.105 123.116C163.835 130.009 182.074 153.126 177.939 170.093Z" fill="#FCC018"></path>
  <path d="M143.58 126.668C151.056 105.884 142.944 97.7715 131.226 93.3177C119.509 88.8639 113.782 96.8171 112.351 99.8923C108.692 108.747 114.312 120.73 143.58 126.668Z" fill="#F8F9F9"></path>
  <path d="M143.899 127.304L143.475 127.198C122.744 122.957 115.162 115.958 112.404 110.868C110.496 107.262 110.337 103.445 111.874 99.6803C113.942 95.1204 120.358 88.5988 131.439 92.7875C146.55 98.5668 150.474 109.065 144.111 126.827L143.899 127.304ZM124.599 92.5224C122.266 92.5224 120.146 93.1056 118.184 94.2191C115.48 95.8097 113.624 98.3017 112.829 100.104C111.397 103.498 111.609 107.05 113.359 110.338C115.957 115.216 123.221 121.896 143.21 126.032C150.792 104.452 140.665 97.4534 131.015 93.7949C128.735 92.9465 126.614 92.5224 124.599 92.5224Z" fill="#121212"></path>
  <path d="M91.2499 160.072C88.4928 160.072 86.9551 159.011 86.1068 158.057C85.0994 156.996 84.8873 155.883 84.8343 155.83C84.7812 155.565 84.9403 155.247 85.2584 155.194C85.5235 155.141 85.8417 155.3 85.8947 155.565C85.9477 155.724 86.743 158.958 91.3029 158.958C91.4089 158.958 91.568 158.958 91.674 158.958C91.9391 158.958 92.2042 159.17 92.2042 159.488C92.2042 159.807 91.9922 160.019 91.674 160.019C91.515 160.072 91.3559 160.072 91.2499 160.072Z" fill="#121212"></path>
  <mask id="mask0_4042_6243" style="mask-type:luminance" maskUnits="userSpaceOnUse" x="75" y="120" width="104" height="74">
    <path d="M177.939 170.093C173.803 187.166 147.292 197.982 119.509 191.09C74.759 180.114 73.2214 162.405 77.4101 145.438C81.5457 128.365 101.588 114.686 136.105 123.116C163.835 130.009 182.074 153.126 177.939 170.093Z" fill="white"></path>
  </mask>
  <g mask="url(#mask0_4042_6243)">
    <path d="M136.053 194.377C140.082 194.43 143.953 194.006 147.664 193.423C164.525 180.38 170.411 148.514 160.071 133.562C156.201 130.593 151.853 128.048 147.081 125.927C162.563 144.696 152.065 178.895 136.053 194.377Z" fill="#121212"></path>
    <path d="M136.9 194.907C136.635 194.907 136.317 194.907 136.052 194.907H134.779L135.681 194.006C143.687 186.265 150.262 173.752 152.86 161.292C155.829 147.135 153.655 134.728 146.656 126.298L145.225 124.548L147.292 125.449C152.064 127.57 156.465 130.168 160.389 133.137L160.442 133.19L160.495 133.243C165.479 140.454 167.016 152.066 164.577 164.261C162.085 176.774 156.041 187.537 147.982 193.794L147.876 193.9H147.717C143.634 194.589 140.134 194.907 136.9 194.907ZM148.83 127.358C154.927 135.947 156.73 147.983 153.92 161.504C151.322 173.911 145.172 185.894 137.324 193.847C140.347 193.847 143.634 193.529 147.398 192.946C163.464 180.379 169.986 149.044 159.646 133.986C156.412 131.441 152.754 129.267 148.83 127.358Z" fill="#121212"></path>
  </g>
  <mask id="mask1_4042_6243" style="mask-type:luminance" maskUnits="userSpaceOnUse" x="75" y="120" width="104" height="74">
    <path d="M177.939 170.093C173.803 187.166 147.292 197.982 119.509 191.09C74.759 180.114 73.2214 162.405 77.4101 145.438C81.5457 128.365 101.588 114.686 136.105 123.116C163.835 130.009 182.074 153.126 177.939 170.093Z" fill="white"></path>
  </mask>
  <g mask="url(#mask1_4042_6243)">
    <path d="M137.643 122.426C137.696 122.32 130.379 120.995 127.516 120.518C136.529 137.537 135.045 177.516 110.178 189.605C113.147 190.559 116.275 191.46 119.669 192.309C120.57 192.574 121.365 192.68 122.267 192.945C147.293 176.084 148.088 135.364 137.643 122.426Z" fill="#121212"></path>
    <path d="M122.425 193.528L122.213 193.475C121.789 193.369 121.365 193.263 120.941 193.157C120.517 193.051 120.092 192.945 119.615 192.839C116.222 191.991 113.041 191.036 110.071 190.082L108.799 189.658L109.965 189.075C118.714 184.833 125.235 176.615 128.894 165.374C134.355 148.619 132.075 130.221 127.038 120.677L126.508 119.723L127.568 119.882C137.536 121.578 137.908 121.844 138.067 122.003C143.528 128.789 145.808 142.628 143.74 156.467C142.361 165.851 137.749 183.083 122.584 193.316L122.425 193.528ZM111.556 189.499C114.154 190.294 116.911 191.09 119.827 191.832C120.251 191.938 120.676 192.044 121.1 192.15C121.471 192.203 121.842 192.309 122.213 192.415C136.847 182.394 141.301 165.586 142.68 156.467C144.694 142.946 142.52 129.532 137.324 122.904C136.423 122.692 131.545 121.79 128.47 121.26C133.295 131.228 135.257 149.309 129.901 165.798C126.296 176.774 119.986 184.939 111.556 189.499Z" fill="#121212"></path>
  </g>
  <mask id="mask2_4042_6243" style="mask-type:luminance" maskUnits="userSpaceOnUse" x="75" y="120" width="104" height="74">
    <path d="M177.939 170.093C173.803 187.166 147.292 197.982 119.509 191.09C74.759 180.114 73.2214 162.405 77.4101 145.438C81.5457 128.365 101.588 114.686 136.105 123.116C163.835 130.009 182.074 153.126 177.939 170.093Z" fill="white"></path>
  </mask>
  <g mask="url(#mask2_4042_6243)">
    <path d="M159.805 190.294C169.667 185.787 176.666 178.735 178.733 170.305C180.695 162.299 178.097 153.02 172.106 144.483C177.196 158.693 169.72 182.712 159.805 190.294Z" fill="#121212"></path>
    <path d="M155.67 192.786L159.434 189.923C168.978 182.659 176.719 159.012 171.523 144.749L170.145 140.984L172.425 144.272C178.681 153.232 181.067 162.564 179.105 170.517C177.091 178.895 170.251 186.106 159.912 190.825L155.67 192.786ZM173.538 147.718C174.864 154.028 174.386 161.928 172.107 169.987C169.986 177.463 166.645 183.932 162.881 188.12C171.099 183.561 176.454 177.304 178.204 170.146C179.848 163.412 178.204 155.512 173.538 147.718Z" fill="#121212"></path>
  </g>
  <path d="M136.635 193.74C130.962 193.74 125.182 193.051 119.403 191.619C97.9295 186.37 84.6211 179.106 78.8417 169.562C73.8577 161.291 75.1833 152.278 76.933 145.332C79.1599 136.106 85.6815 128.63 95.1724 124.282C106.042 119.298 120.251 118.768 136.264 122.639C165.32 129.796 182.499 153.656 178.469 170.199C176.931 176.561 172.425 182.129 165.426 186.37C157.473 191.248 147.345 193.74 136.635 193.74ZM116.381 121.154C108.587 121.154 101.588 122.532 95.5965 125.237C86.3708 129.478 80.1143 136.689 77.9404 145.597C74.7591 158.428 77.2511 164.844 79.7431 168.979C85.3634 178.311 98.4067 185.363 119.615 190.559C135.999 194.589 152.913 192.68 164.843 185.469C171.576 181.386 175.924 175.978 177.409 169.934C179.37 161.768 176.189 152.012 168.554 143.105C160.495 133.72 148.936 126.827 135.999 123.593C129.053 122.002 122.478 121.154 116.381 121.154Z" fill="#121212"></path>
  <path d="M136.157 164.632C136.157 164.632 124.545 166.488 114.153 165.374C112.403 165.162 110.229 163.466 108.215 161.981C103.284 158.588 98.8828 159.171 98.8828 159.171C98.8828 159.171 95.5425 159.224 94.9593 162.617C94.429 165.958 96.762 166.859 96.762 166.859C100.049 168.238 105.776 167.654 108.745 167.23C110.123 167.018 111.502 167.071 112.88 167.283C118.607 168.185 123.644 168.45 127.939 168.397C131.491 168.344 134.566 168.026 137.058 167.654L136.157 164.632Z" fill="#F8F9F9"></path>
  <path d="M99.6791 159.171C101.164 159.171 104.504 159.489 108.216 161.981C110.23 163.412 112.404 165.162 114.154 165.374C116.593 165.639 119.138 165.745 121.524 165.745C129.371 165.745 136.158 164.632 136.158 164.632L137.112 167.654C134.567 168.025 131.545 168.343 127.993 168.396C127.568 168.396 127.144 168.396 126.72 168.396C122.69 168.396 118.077 168.078 112.881 167.283C112.139 167.177 111.397 167.124 110.654 167.124C110.018 167.124 109.382 167.177 108.746 167.283C107.155 167.495 104.822 167.813 102.436 167.813C100.368 167.813 98.2475 167.601 96.7099 166.965C96.7099 166.965 94.3239 166.064 94.9071 162.723C95.4373 159.277 98.8307 159.277 98.8307 159.277C98.8307 159.277 99.1488 159.171 99.6791 159.171ZM99.6791 158.11C99.2549 158.11 98.9368 158.11 98.7777 158.163C97.2931 158.216 94.4299 159.171 93.8997 162.511C93.3695 165.798 95.2783 167.495 96.3917 167.919C97.8763 168.556 99.9442 168.874 102.489 168.874C104.928 168.874 107.314 168.609 108.958 168.343C109.541 168.237 110.124 168.237 110.708 168.237C111.397 168.237 112.086 168.29 112.722 168.396C117.547 169.139 122.213 169.563 126.72 169.563C127.144 169.563 127.568 169.563 127.993 169.563C131.227 169.51 134.355 169.245 137.271 168.821C137.589 168.768 137.854 168.609 138.014 168.343C138.173 168.078 138.226 167.76 138.12 167.442L137.165 164.42C137.006 163.996 136.635 163.678 136.158 163.678C136.105 163.678 136.052 163.678 135.999 163.678C135.946 163.678 129.159 164.738 121.524 164.738C118.926 164.738 116.487 164.632 114.26 164.367C113.04 164.208 111.185 162.882 109.594 161.716C109.329 161.557 109.064 161.345 108.852 161.186C104.981 158.481 101.429 158.11 99.6791 158.11Z" fill="#231F20"></path>
  <path d="M146.497 162.616C143.528 169.615 136.317 173.327 130.326 170.729C124.334 168.237 121.789 160.548 124.758 153.55C127.728 146.551 134.939 142.839 140.93 145.437C147.027 147.929 149.413 155.67 146.497 162.616Z" fill="#F8F9F9"></path>
  <path d="M134.302 172.107C132.87 172.107 131.438 171.842 130.113 171.259C127.409 170.146 125.235 167.919 124.015 165.003C122.531 161.45 122.637 157.208 124.28 153.391C125.924 149.52 128.946 146.445 132.499 145.014C135.362 143.847 138.437 143.847 141.088 145.014C143.845 146.127 146.019 148.354 147.186 151.27C148.617 154.822 148.564 159.064 146.921 162.882C145.277 166.752 142.255 169.828 138.702 171.259C137.271 171.789 135.786 172.107 134.302 172.107ZM136.953 145.173C135.627 145.173 134.249 145.438 132.923 145.968C129.583 147.293 126.772 150.157 125.288 153.762C123.803 157.314 123.697 161.238 125.023 164.525C126.136 167.176 128.098 169.191 130.537 170.252C132.923 171.312 135.733 171.259 138.331 170.199C141.672 168.873 144.482 166.01 145.966 162.405C147.504 158.799 147.61 154.876 146.231 151.588C145.171 148.937 143.156 146.922 140.717 145.915C139.551 145.438 138.225 145.173 136.953 145.173Z" fill="#231F20"></path>
  <path d="M142.043 123.806C137.324 116.542 127.728 112.353 117.547 113.095C107.526 113.785 99.096 117.231 93.6348 125.555C96.4979 124.071 99.043 123.275 102.648 122.109C106.943 118.663 112.033 117.496 117.813 117.072C126.561 116.436 134.673 119.988 138.544 125.98C142.361 131.812 141.99 139.129 137.537 147.453L141.142 149.415C146.444 139.871 146.709 130.858 142.043 123.806Z" fill="#F8F9F9"></path>
  <path d="M141.142 149.945C141.036 149.945 140.983 149.945 140.877 149.892L137.271 147.93C137.006 147.771 136.9 147.453 137.059 147.188C141.46 139.022 141.831 131.971 138.067 126.297C134.249 120.412 126.296 117.018 117.813 117.655C111.079 118.132 106.678 119.564 102.967 122.586C102.914 122.639 102.861 122.639 102.808 122.692L102.171 122.904C98.8839 123.964 96.551 124.707 93.8999 126.138C93.6878 126.244 93.4227 126.191 93.2636 126.032C93.1046 125.873 93.1046 125.608 93.2106 125.396C98.3007 117.602 106.254 113.413 117.494 112.671C127.887 111.928 137.643 116.223 142.468 123.593C147.239 130.804 146.921 140.083 141.619 149.786C141.513 149.839 141.354 149.945 141.142 149.945ZM138.279 147.241L140.983 148.725C145.861 139.553 146.126 130.857 141.619 124.123C137.006 117.018 127.622 112.936 117.6 113.678C107.526 114.367 100.209 117.814 95.2785 124.229C97.2933 123.328 99.3081 122.692 101.853 121.843L102.436 121.684C107.314 117.761 113.2 116.912 117.813 116.594C126.667 115.958 134.992 119.564 139.021 125.714C142.839 131.599 142.574 139.022 138.279 147.241Z" fill="#231F20"></path>
  <path d="M146.551 162.67C143.74 169.298 137.537 173.062 132.553 171.048C127.569 169.033 125.925 161.981 128.629 155.194C131.386 148.46 137.643 144.802 142.627 146.817C147.505 148.938 149.255 155.99 146.551 162.67Z" fill="#F8F9F9"></path>
  <path d="M135.416 172.108C134.356 172.108 133.348 171.896 132.341 171.525C127.092 169.404 125.236 162.14 128.152 154.982C129.531 151.642 131.811 148.884 134.515 147.241C137.272 145.597 140.241 145.279 142.839 146.339C147.982 148.566 149.838 155.989 147.028 162.882C144.589 168.502 139.923 172.108 135.416 172.108ZM139.711 146.764C138.173 146.764 136.583 147.241 135.045 148.142C132.5 149.627 130.379 152.225 129.107 155.353C126.403 161.928 127.993 168.555 132.712 170.517C137.378 172.426 143.316 168.768 146.02 162.458C148.618 156.095 146.975 149.309 142.415 147.294C141.567 146.976 140.665 146.764 139.711 146.764Z" fill="#231F20"></path>
  <path d="M96.1799 142.15C96.0208 142.15 95.8088 142.044 95.7027 141.885C92.7865 136.742 88.3858 138.227 88.1737 138.333C87.9086 138.439 87.5904 138.28 87.4844 138.015C87.3783 137.75 87.5374 137.432 87.8025 137.325C87.8555 137.325 93.2107 135.417 96.6041 141.355C96.7631 141.62 96.6571 141.938 96.392 142.097C96.339 142.15 96.2859 142.15 96.1799 142.15Z" fill="#121212"></path>
  <path d="M110.707 148.566C110.548 148.566 110.336 148.46 110.23 148.301C107.314 143.158 102.913 144.643 102.701 144.749C102.436 144.855 102.118 144.696 102.012 144.431C101.906 144.166 102.065 143.848 102.33 143.741C102.383 143.741 107.738 141.833 111.131 147.771C111.29 148.036 111.184 148.354 110.919 148.513C110.919 148.566 110.813 148.566 110.707 148.566Z" fill="#121212"></path>
  <path d="M72.056 190.134L73.3285 194.217C73.3815 194.376 73.4876 194.535 73.5936 194.641C73.6996 194.747 73.8587 194.853 74.0178 194.906L77.8883 196.232C78.1004 196.338 78.3125 196.444 78.4185 196.656C78.5246 196.868 78.6306 197.08 78.6306 197.292C78.6306 197.504 78.5776 197.769 78.4185 197.928C78.3125 198.14 78.1004 198.246 77.8883 198.353L74.0178 199.678C73.8587 199.731 73.6996 199.837 73.5936 199.943C73.4876 200.049 73.3815 200.208 73.3285 200.367L72.109 204.45C72.056 204.662 71.9499 204.874 71.7379 205.033C71.5788 205.192 71.3137 205.245 71.1016 205.245C70.8895 205.245 70.6244 205.192 70.4653 205.033C70.3063 204.874 70.1472 204.715 70.0942 204.45L68.8217 200.367C68.7687 200.208 68.6626 200.049 68.5566 199.943C68.4505 199.837 68.2915 199.731 68.1324 199.678L64.2618 198.353C64.0497 198.246 63.8377 198.14 63.7316 197.928C63.6256 197.716 63.5195 197.504 63.5195 197.292C63.5195 197.08 63.5725 196.815 63.7316 196.656C63.8377 196.444 64.0497 196.338 64.2618 196.232L68.1324 194.906C68.2915 194.853 68.4505 194.747 68.5566 194.641C68.6626 194.535 68.7687 194.376 68.8217 194.217L70.0412 190.134C70.0942 189.922 70.2002 189.71 70.4123 189.551C70.5714 189.392 70.8365 189.339 71.0486 189.339C71.2607 189.339 71.5258 189.392 71.6848 189.551C71.8439 189.71 72.003 189.922 72.056 190.134Z" fill="#F8F9F9"></path>
  <path d="M71.0479 189.339C71.26 189.339 71.5251 189.392 71.6841 189.551C71.8432 189.71 72.0023 189.869 72.0553 190.134L73.3278 194.217C73.3808 194.376 73.4869 194.535 73.5929 194.641C73.699 194.747 73.858 194.853 74.0171 194.906L77.8876 196.232C78.0997 196.338 78.3118 196.444 78.4179 196.656C78.5239 196.868 78.63 197.08 78.63 197.292C78.63 197.504 78.5769 197.769 78.4179 197.928C78.3118 198.14 78.0997 198.246 77.8876 198.352L74.0171 199.678C73.858 199.731 73.699 199.837 73.5929 199.943C73.4869 200.049 73.3808 200.208 73.3278 200.367L72.1083 204.45C72.0553 204.662 71.9493 204.874 71.7372 205.033C71.5781 205.192 71.313 205.245 71.1009 205.245C70.8888 205.245 70.6237 205.192 70.4646 205.033C70.3056 204.874 70.1465 204.715 70.0935 204.45L68.821 200.367C68.768 200.208 68.6619 200.049 68.5559 199.943C68.4498 199.837 68.2908 199.731 68.1317 199.678L64.2611 198.352C64.0491 198.246 63.837 198.14 63.7309 197.928C63.6249 197.716 63.5188 197.504 63.5188 197.292C63.5188 197.08 63.5719 196.815 63.7309 196.656C63.837 196.444 64.0491 196.338 64.2611 196.232L68.1317 194.906C68.2908 194.853 68.4498 194.747 68.5559 194.641C68.6619 194.535 68.768 194.376 68.821 194.217L70.0405 190.134C70.0935 189.922 70.1995 189.71 70.4116 189.551C70.5707 189.445 70.7828 189.339 71.0479 189.339ZM71.0479 188.278C70.5707 188.278 70.0935 188.437 69.7754 188.702C69.4042 188.968 69.1391 189.392 69.0331 189.816L67.8136 193.899L63.996 195.224H63.943C63.5188 195.383 63.2007 195.648 62.9356 196.019C62.6705 196.391 62.5645 196.815 62.5645 197.292C62.5645 197.716 62.7235 198.14 62.9356 198.511C63.2007 198.883 63.5188 199.148 63.943 199.307H63.996L67.8666 200.632C67.8666 200.632 67.8666 200.632 67.8666 200.685L69.0861 204.768C69.1921 205.192 69.4572 205.616 69.8284 205.881C70.1995 206.147 70.6767 206.306 71.1009 206.306C71.5781 206.306 72.0553 206.147 72.3734 205.881C72.7446 205.616 73.0097 205.192 73.1157 204.768L74.3352 200.685L78.1528 199.36H78.2058C78.63 199.201 78.9481 198.936 79.2132 198.564C79.4783 198.193 79.5843 197.769 79.5843 197.345C79.5843 196.921 79.4253 196.444 79.2132 196.125C78.9481 195.754 78.63 195.489 78.2058 195.33H78.1528L74.2822 194.005V193.952L73.0627 189.869C72.9567 189.445 72.6915 189.021 72.3204 188.756C71.9492 188.437 71.5251 188.278 71.0479 188.278Z" fill="#121212"></path>
  <path d="M202.064 155.936L203.336 160.019C203.389 160.178 203.495 160.337 203.601 160.443C203.707 160.549 203.867 160.655 204.026 160.708L207.896 162.033C208.108 162.139 208.32 162.245 208.426 162.458C208.532 162.67 208.638 162.882 208.638 163.094C208.638 163.306 208.585 163.571 208.426 163.73C208.32 163.942 208.108 164.048 207.896 164.154L204.026 165.48C203.867 165.533 203.707 165.639 203.601 165.745C203.495 165.851 203.389 166.01 203.336 166.169L202.117 170.252C202.064 170.464 201.958 170.676 201.746 170.835C201.587 170.994 201.321 171.047 201.109 171.047C200.897 171.047 200.632 170.994 200.473 170.835C200.314 170.676 200.155 170.517 200.102 170.252L198.829 166.169C198.776 166.01 198.67 165.851 198.564 165.745C198.458 165.639 198.299 165.533 198.14 165.48L194.27 164.154C194.058 164.048 193.845 163.942 193.739 163.73C193.633 163.518 193.527 163.306 193.527 163.094C193.527 162.882 193.58 162.617 193.739 162.458C193.845 162.245 194.058 162.139 194.27 162.033L198.14 160.708C198.299 160.655 198.458 160.549 198.564 160.443C198.67 160.337 198.776 160.178 198.829 160.019L200.049 155.936C200.102 155.724 200.208 155.512 200.42 155.353C200.579 155.194 200.844 155.141 201.056 155.141C201.268 155.141 201.534 155.194 201.693 155.353C201.852 155.565 202.011 155.724 202.064 155.936Z" fill="#F8F9F9"></path>
  <path d="M201.056 155.193C201.268 155.193 201.533 155.246 201.692 155.405C201.851 155.564 202.01 155.723 202.063 155.989L203.336 160.071C203.389 160.23 203.495 160.389 203.601 160.495C203.707 160.601 203.866 160.707 204.025 160.76L207.896 162.086C208.108 162.192 208.32 162.298 208.426 162.51C208.532 162.722 208.638 162.934 208.638 163.146C208.638 163.359 208.585 163.624 208.426 163.783C208.32 163.995 208.108 164.101 207.896 164.207L204.025 165.532C203.866 165.585 203.707 165.691 203.601 165.798C203.495 165.904 203.389 166.063 203.336 166.222L202.116 170.304C202.063 170.516 201.957 170.729 201.745 170.888C201.586 171.047 201.321 171.1 201.109 171.1C200.897 171.1 200.632 171.047 200.473 170.888C200.314 170.729 200.155 170.569 200.102 170.304L198.829 166.222C198.776 166.063 198.67 165.904 198.564 165.798C198.458 165.691 198.299 165.585 198.14 165.532L194.269 164.207C194.057 164.101 193.845 163.995 193.739 163.783C193.633 163.571 193.527 163.359 193.527 163.146C193.527 162.934 193.58 162.669 193.739 162.51C193.845 162.298 194.057 162.192 194.269 162.086L198.14 160.76C198.299 160.707 198.458 160.601 198.564 160.495C198.67 160.389 198.776 160.23 198.829 160.071L200.049 155.989C200.102 155.776 200.208 155.564 200.42 155.405C200.579 155.246 200.791 155.193 201.056 155.193ZM201.056 154.133C200.579 154.133 200.102 154.292 199.783 154.557C199.412 154.822 199.147 155.246 199.041 155.67L197.822 159.753L193.951 161.079H193.898C193.474 161.238 193.156 161.503 192.891 161.874C192.626 162.245 192.52 162.669 192.52 163.146C192.52 163.571 192.679 163.995 192.891 164.366C193.156 164.737 193.474 165.002 193.898 165.161H193.951L197.822 166.487C197.822 166.487 197.822 166.487 197.822 166.54L199.041 170.622C199.147 171.047 199.412 171.471 199.783 171.736C200.155 172.001 200.632 172.16 201.056 172.16C201.533 172.16 202.01 172.001 202.329 171.736C202.7 171.471 202.965 171.047 203.071 170.622L204.29 166.54L203.548 165.798L204.343 166.54L208.161 165.214H208.214C208.638 165.055 208.956 164.737 209.221 164.419C209.486 164.048 209.592 163.624 209.592 163.199C209.592 162.775 209.433 162.298 209.221 161.98C208.956 161.609 208.638 161.344 208.214 161.185H208.161L204.29 159.859V159.806L203.071 155.723C202.965 155.299 202.7 154.875 202.329 154.61C201.957 154.292 201.48 154.133 201.056 154.133Z" fill="#121212"></path>
  <path d="M95.9154 79.5316L97.1879 83.6143C97.2409 83.7734 97.3469 83.9324 97.453 84.0385C97.559 84.1445 97.7181 84.2506 97.8772 84.3036L101.748 85.6291C101.96 85.7352 102.172 85.8412 102.278 86.0533C102.384 86.2654 102.49 86.4775 102.49 86.6895C102.49 86.9016 102.437 87.1667 102.278 87.3258C102.172 87.5379 101.96 87.6439 101.748 87.75L97.8772 89.0755C97.7181 89.1285 97.559 89.2346 97.453 89.3406C97.3469 89.4467 97.2409 89.6057 97.1879 89.7648L95.9684 93.8474C95.9154 94.0595 95.8093 94.2716 95.5972 94.4307C95.4382 94.5897 95.1731 94.6428 94.961 94.6428C94.7489 94.6428 94.4838 94.5897 94.3247 94.4307C94.1656 94.2716 94.0066 94.1125 93.9536 93.8474L92.681 89.7648C92.628 89.6057 92.522 89.4467 92.4159 89.3406C92.3099 89.2346 92.1508 89.1285 91.9918 89.0755L88.1212 87.75C87.9091 87.6439 87.697 87.5379 87.591 87.3258C87.4849 87.1137 87.3789 86.9016 87.3789 86.6895C87.3789 86.4775 87.4319 86.2124 87.591 86.0533C87.697 85.8412 87.9091 85.7352 88.1212 85.6291L91.9918 84.3036C92.1508 84.2506 92.3099 84.1445 92.4159 84.0385C92.522 83.9324 92.628 83.7734 92.681 83.6143L93.9005 79.5316C93.9536 79.3196 94.0596 79.1075 94.2717 78.9484C94.4308 78.7893 94.6959 78.7363 94.9079 78.7363C95.12 78.7363 95.3851 78.7893 95.5442 78.9484C95.7033 79.1075 95.8623 79.3196 95.9154 79.5316Z" fill="#F8F9F9"></path>
  <path d="M94.9076 78.7362C95.1196 78.7362 95.3847 78.7892 95.5438 78.9483C95.7029 79.1074 95.8619 79.2664 95.915 79.5315L97.1875 83.6142C97.2405 83.7732 97.3465 83.9323 97.4526 84.0384C97.5586 84.1444 97.7177 84.2504 97.8768 84.3035L101.747 85.629C101.959 85.735 102.171 85.8411 102.278 86.0532C102.384 86.2653 102.49 86.4773 102.49 86.6894C102.49 86.9015 102.437 87.1666 102.278 87.3257C102.171 87.5378 101.959 87.6438 101.747 87.7499L97.8768 89.0754C97.7177 89.1284 97.5586 89.2345 97.4526 89.3405C97.3465 89.4465 97.2405 89.6056 97.1875 89.7647L95.968 93.8473C95.915 94.0594 95.8089 94.2715 95.5968 94.4306C95.4378 94.5896 95.1727 94.6426 94.9606 94.6426C94.7485 94.6426 94.4834 94.5896 94.3243 94.4306C94.1652 94.2715 94.0062 94.1124 93.9532 93.8473L92.6807 89.7647C92.6276 89.6056 92.5216 89.4465 92.4155 89.3405C92.3095 89.2345 92.1504 89.1284 91.9914 89.0754L88.1208 87.7499C87.9087 87.6438 87.6966 87.5378 87.5906 87.3257C87.4845 87.1136 87.3785 86.9015 87.3785 86.6894C87.3785 86.4773 87.4315 86.2122 87.5906 86.0532C87.6966 85.8411 87.9087 85.735 88.1208 85.629L91.9914 84.3035C92.1504 84.2504 92.3095 84.1444 92.4155 84.0384C92.5216 83.9323 92.6276 83.7732 92.6807 83.6142L93.9001 79.5315C93.9532 79.3194 94.0592 79.1074 94.2713 78.9483C94.4304 78.8422 94.6424 78.7362 94.9076 78.7362ZM94.9076 77.6758C94.4304 77.6758 93.9532 77.8348 93.635 78.1C93.2639 78.3651 92.9988 78.7892 92.8927 79.2134L91.6732 83.2961L87.8027 84.6216H87.7497C87.3255 84.7807 87.0074 85.0458 86.7423 85.4169C86.4771 85.7881 86.3711 86.2122 86.3711 86.6894C86.3711 87.1136 86.5302 87.5908 86.7423 87.9089C87.0074 88.2801 87.3255 88.5452 87.7497 88.7042H87.8027L91.6732 90.0298C91.6732 90.0298 91.6732 90.0298 91.6732 90.0828L92.8927 94.1655C92.9988 94.5896 93.2639 95.0138 93.635 95.2789C94.0062 95.544 94.4834 95.7031 94.9076 95.7031C95.3847 95.7031 95.8619 95.544 96.1801 95.2789C96.5512 95.0138 96.8163 94.5896 96.9224 94.1655L98.1419 90.0828L101.959 88.7573H102.012C102.437 88.5982 102.755 88.2801 103.02 87.9619C103.285 87.5908 103.391 87.1666 103.391 86.7425C103.391 86.3183 103.232 85.8411 103.02 85.523C102.755 85.1518 102.437 84.8867 102.012 84.7276H101.959L98.0888 83.4021V83.3491L96.8693 79.2664C96.7633 78.8423 96.4982 78.4181 96.127 78.153C95.8089 77.8348 95.3847 77.6758 94.9076 77.6758Z" fill="#121212"></path>
  <path d="M118.291 68.6091L118.821 70.3058C118.821 70.3589 118.874 70.4119 118.927 70.4649C118.98 70.5179 119.033 70.5709 119.086 70.5709L120.677 71.1012C120.783 71.1542 120.836 71.2072 120.889 71.2602C120.942 71.3132 120.995 71.4193 120.995 71.5253C120.995 71.6314 120.942 71.7374 120.889 71.7904C120.836 71.8434 120.783 71.9495 120.677 71.9495L119.086 72.4797C119.033 72.4797 118.98 72.5327 118.927 72.5857C118.874 72.6388 118.821 72.6918 118.821 72.7448L118.291 74.4415C118.291 74.5475 118.238 74.6006 118.132 74.6536C118.079 74.7066 117.973 74.7596 117.867 74.7596C117.761 74.7596 117.654 74.7066 117.601 74.6536C117.548 74.6006 117.495 74.4945 117.442 74.4415L116.912 72.7448C116.912 72.6918 116.859 72.6388 116.806 72.5857C116.753 72.5327 116.7 72.4797 116.647 72.4797L115.056 71.9495C114.95 71.8965 114.897 71.8434 114.844 71.7904C114.791 71.7374 114.738 71.6314 114.738 71.5253C114.738 71.4193 114.791 71.3132 114.844 71.2602C114.897 71.2072 114.95 71.1012 115.056 71.1012L116.647 70.5709C116.7 70.5709 116.753 70.5179 116.806 70.4649C116.859 70.4119 116.912 70.3589 116.912 70.3058L117.442 68.6091C117.442 68.5031 117.495 68.4501 117.601 68.3971C117.654 68.344 117.761 68.291 117.867 68.291C117.973 68.291 118.079 68.344 118.132 68.3971C118.238 68.4501 118.291 68.5561 118.291 68.6091Z" fill="#F8F9F9"></path>
  <path d="M117.867 68.2909C117.973 68.2909 118.079 68.3439 118.132 68.3969C118.185 68.45 118.238 68.556 118.291 68.609L118.821 70.3057C118.821 70.3587 118.874 70.4117 118.927 70.4648C118.98 70.5178 119.033 70.5708 119.086 70.5708L120.677 71.101C120.783 71.1541 120.836 71.2071 120.889 71.2601C120.942 71.3131 120.995 71.4192 120.995 71.5252C120.995 71.6312 120.942 71.7373 120.889 71.7903C120.836 71.8433 120.783 71.9494 120.677 71.9494L119.086 72.4796C119.033 72.4796 118.98 72.5326 118.927 72.5856C118.874 72.6386 118.821 72.6917 118.821 72.7447L118.291 74.4414C118.291 74.5474 118.238 74.6004 118.132 74.6535C118.079 74.7065 117.973 74.7595 117.867 74.7595C117.761 74.7595 117.655 74.7065 117.602 74.6535C117.549 74.6004 117.496 74.4944 117.443 74.4414L116.912 72.7447C116.912 72.6917 116.859 72.6386 116.806 72.5856C116.753 72.5326 116.7 72.4796 116.647 72.4796L115.057 71.9494C114.951 71.8964 114.898 71.8433 114.844 71.7903C114.791 71.7373 114.738 71.6312 114.738 71.5252C114.738 71.4192 114.791 71.3131 114.844 71.2601C114.898 71.2071 114.951 71.101 115.057 71.101L116.647 70.5708C116.7 70.5708 116.753 70.5178 116.806 70.4648C116.859 70.4117 116.912 70.3587 116.912 70.3057L117.443 68.609C117.443 68.503 117.496 68.45 117.602 68.3969C117.708 68.3439 117.814 68.2909 117.867 68.2909ZM117.867 67.2305C117.549 67.2305 117.23 67.3365 116.965 67.5486C116.7 67.7607 116.541 68.0258 116.435 68.3439L116.011 69.7225L114.685 70.1466H114.632H114.579C114.314 70.2527 114.049 70.4648 113.89 70.7299C113.731 70.995 113.625 71.3131 113.625 71.5782C113.625 71.8964 113.731 72.1615 113.89 72.4266C114.049 72.6917 114.314 72.8507 114.579 73.0098L115.905 73.434L116.329 74.8125C116.435 75.1307 116.594 75.3958 116.859 75.6079C117.124 75.8199 117.443 75.926 117.761 75.926C118.079 75.926 118.397 75.8199 118.662 75.6079C118.927 75.3958 119.086 75.1307 119.192 74.8125L119.616 73.434L120.942 73.0098H120.995H121.048C121.313 72.9038 121.578 72.6917 121.737 72.4796C121.896 72.2145 122.002 71.8964 122.002 71.6312C122.002 71.3131 121.896 70.995 121.737 70.7829C121.578 70.5178 121.313 70.3587 121.048 70.2527L119.722 69.8285L119.298 68.45C119.192 68.1318 119.033 67.8667 118.768 67.6546C118.556 67.3365 118.238 67.2305 117.867 67.2305Z" fill="#121212"></path>
  <path d="M214.578 134.727L215.108 136.424C215.108 136.477 215.161 136.53 215.214 136.583C215.267 136.636 215.32 136.689 215.373 136.689L216.964 137.219C217.07 137.272 217.123 137.325 217.176 137.378C217.229 137.431 217.282 137.537 217.282 137.643C217.282 137.75 217.229 137.856 217.176 137.909C217.123 137.962 217.07 138.068 216.964 138.068L215.373 138.598C215.32 138.598 215.267 138.651 215.214 138.704C215.161 138.757 215.108 138.81 215.108 138.863L214.578 140.56C214.578 140.666 214.525 140.719 214.419 140.772C214.366 140.825 214.26 140.878 214.154 140.878C214.048 140.878 213.942 140.825 213.889 140.772C213.836 140.719 213.783 140.613 213.729 140.56L213.199 138.863C213.199 138.81 213.146 138.757 213.093 138.704C213.04 138.651 212.987 138.598 212.934 138.598L211.344 138.068C211.237 138.015 211.184 137.962 211.131 137.909C211.078 137.856 211.025 137.75 211.025 137.643C211.025 137.537 211.078 137.431 211.131 137.378C211.184 137.325 211.237 137.219 211.344 137.219L212.934 136.689C212.987 136.689 213.04 136.636 213.093 136.583C213.146 136.53 213.199 136.477 213.199 136.424L213.729 134.727C213.729 134.621 213.783 134.568 213.889 134.515C213.942 134.462 214.048 134.409 214.154 134.409C214.26 134.409 214.366 134.462 214.419 134.515C214.525 134.568 214.578 134.621 214.578 134.727Z" fill="#F8F9F9"></path>
  <path d="M214.154 134.409C214.26 134.409 214.366 134.462 214.419 134.515C214.472 134.568 214.525 134.674 214.578 134.727L215.108 136.424C215.108 136.477 215.161 136.53 215.214 136.583C215.267 136.636 215.32 136.689 215.373 136.689L216.964 137.219C217.07 137.272 217.123 137.325 217.176 137.378C217.229 137.431 217.282 137.537 217.282 137.643C217.282 137.749 217.229 137.855 217.176 137.908C217.123 137.962 217.07 138.068 216.964 138.068L215.373 138.598C215.32 138.598 215.267 138.651 215.214 138.704C215.161 138.757 215.108 138.81 215.108 138.863L214.578 140.56C214.578 140.666 214.525 140.719 214.419 140.772C214.366 140.825 214.26 140.878 214.154 140.878C214.047 140.878 213.941 140.825 213.888 140.772C213.835 140.719 213.782 140.613 213.729 140.56L213.199 138.863C213.199 138.81 213.146 138.757 213.093 138.704C213.04 138.651 212.987 138.598 212.934 138.598L211.343 138.068C211.237 138.015 211.184 137.962 211.131 137.908C211.078 137.855 211.025 137.749 211.025 137.643C211.025 137.537 211.078 137.431 211.131 137.378C211.184 137.325 211.237 137.219 211.343 137.219L212.934 136.689C212.987 136.689 213.04 136.636 213.093 136.583C213.146 136.53 213.199 136.477 213.199 136.424L213.729 134.727C213.729 134.621 213.782 134.568 213.888 134.515C213.994 134.462 214.047 134.409 214.154 134.409ZM214.154 133.349C213.835 133.349 213.517 133.455 213.252 133.667C212.987 133.879 212.828 134.144 212.722 134.462L212.298 135.841L211.025 136.265H210.972H210.919C210.654 136.371 210.389 136.583 210.23 136.795C210.071 137.06 209.965 137.378 209.965 137.643C209.965 137.962 210.071 138.227 210.23 138.492C210.389 138.757 210.654 138.916 210.919 139.075L212.245 139.499L212.669 140.878C212.775 141.196 212.934 141.461 213.199 141.673C213.464 141.885 213.782 141.991 214.101 141.991C214.419 141.991 214.737 141.885 215.002 141.673C215.267 141.461 215.426 141.196 215.532 140.878L215.956 139.499L217.282 139.075H217.335H217.388C217.653 138.969 217.918 138.757 218.077 138.545C218.236 138.28 218.342 137.962 218.342 137.696C218.342 137.378 218.236 137.06 218.077 136.848C217.918 136.583 217.653 136.424 217.388 136.265L216.062 135.841L215.638 134.462C215.532 134.144 215.373 133.879 215.108 133.667C214.843 133.455 214.525 133.349 214.154 133.349Z" fill="#121212"></path>
  <path d="M57.527 175.501L58.0573 177.197C58.0573 177.25 58.1103 177.303 58.1633 177.357C58.2163 177.41 58.2693 177.463 58.3224 177.463L59.913 177.993C60.0191 178.046 60.0721 178.099 60.1251 178.152C60.1781 178.205 60.2311 178.311 60.2311 178.417C60.2311 178.523 60.1781 178.629 60.1251 178.682C60.0721 178.735 60.0191 178.841 59.913 178.841L58.3224 179.371C58.2693 179.371 58.2163 179.424 58.1633 179.477C58.1103 179.53 58.0573 179.583 58.0573 179.636L57.527 181.333C57.527 181.439 57.474 181.492 57.368 181.545C57.315 181.598 57.2089 181.651 57.1029 181.651C56.9968 181.651 56.8908 181.598 56.8378 181.545C56.7847 181.492 56.7317 181.386 56.6787 181.333L56.1485 179.636C56.1485 179.583 56.0955 179.53 56.0424 179.477C55.9894 179.424 55.9364 179.371 55.8834 179.371L54.2927 178.841C54.1867 178.788 54.1337 178.735 54.0807 178.682C54.0276 178.629 53.9746 178.523 53.9746 178.417C53.9746 178.311 54.0276 178.205 54.0807 178.152C54.1337 178.099 54.1867 177.993 54.2927 177.993L55.8834 177.463C55.9364 177.463 55.9894 177.41 56.0424 177.357C56.0955 177.303 56.1485 177.25 56.1485 177.197L56.6787 175.501C56.6787 175.395 56.7317 175.342 56.8378 175.289C56.8908 175.236 56.9968 175.183 57.1029 175.183C57.2089 175.183 57.315 175.236 57.368 175.289C57.474 175.289 57.527 175.395 57.527 175.501Z" fill="#F8F9F9"></path>
  <path d="M57.103 175.182C57.2091 175.182 57.3151 175.236 57.3681 175.289C57.4212 175.342 57.4742 175.448 57.5272 175.501L58.0574 177.197C58.0574 177.25 58.1104 177.303 58.1635 177.356C58.2165 177.409 58.2695 177.462 58.3225 177.462L59.9132 177.993C60.0192 178.046 60.0722 178.099 60.1253 178.152C60.1783 178.205 60.2313 178.311 60.2313 178.417C60.2313 178.523 60.1783 178.629 60.1253 178.682C60.0722 178.735 60.0192 178.841 59.9132 178.841L58.3225 179.371C58.2695 179.371 58.2165 179.424 58.1635 179.477C58.1104 179.53 58.0574 179.583 58.0574 179.636L57.5272 181.333C57.5272 181.439 57.4742 181.492 57.3681 181.545C57.3151 181.598 57.2091 181.651 57.103 181.651C56.997 181.651 56.891 181.598 56.8379 181.545C56.7849 181.492 56.7319 181.386 56.6789 181.333L56.1487 179.636C56.1487 179.583 56.0956 179.53 56.0426 179.477C55.9896 179.424 55.9366 179.371 55.8836 179.371L54.2929 178.841C54.1869 178.788 54.1338 178.735 54.0808 178.682C54.0278 178.629 53.9748 178.523 53.9748 178.417C53.9748 178.311 54.0278 178.205 54.0808 178.152C54.1338 178.099 54.1869 177.993 54.2929 177.993L55.8836 177.462C55.9366 177.462 55.9896 177.409 56.0426 177.356C56.0956 177.303 56.1487 177.25 56.1487 177.197L56.6789 175.501C56.6789 175.395 56.7319 175.342 56.8379 175.289C56.944 175.183 56.997 175.182 57.103 175.182ZM57.103 174.122C56.7849 174.122 56.4668 174.228 56.2017 174.44C55.9366 174.652 55.7775 174.917 55.6715 175.236L55.2473 176.614L53.9218 177.038H53.8687H53.8157C53.5506 177.144 53.2855 177.356 53.1264 177.621C52.9674 177.887 52.8613 178.205 52.8613 178.47C52.8613 178.788 52.9674 179.053 53.1264 179.318C53.2855 179.583 53.5506 179.742 53.8157 179.901L55.1413 180.326L55.5654 181.704C55.6715 182.022 55.8305 182.287 56.0956 182.499C56.3607 182.712 56.6789 182.818 56.997 182.818C57.3151 182.818 57.6333 182.712 57.8984 182.499C58.1635 182.287 58.3225 182.022 58.4286 181.704L58.8528 180.326L60.1783 179.901H60.2313H60.2843C60.5494 179.795 60.8145 179.583 60.9736 179.371C61.1327 179.106 61.2387 178.788 61.2387 178.523C61.2387 178.205 61.1327 177.887 60.9736 177.675C60.8145 177.409 60.5494 177.25 60.2843 177.144L58.9588 176.72L58.5346 175.342C58.4286 175.023 58.2695 174.758 58.0044 174.546C57.7393 174.228 57.4212 174.122 57.103 174.122Z" fill="#121212"></path>
  <path d="M210.759 186.795L211.29 188.491C211.29 188.544 211.343 188.597 211.396 188.65C211.449 188.703 211.502 188.756 211.555 188.756L213.145 189.287C213.251 189.34 213.305 189.393 213.358 189.446C213.411 189.499 213.464 189.605 213.464 189.711C213.464 189.817 213.411 189.923 213.358 189.976C213.305 190.029 213.251 190.135 213.145 190.135L211.555 190.665C211.502 190.665 211.449 190.718 211.396 190.771C211.343 190.824 211.29 190.877 211.29 190.93L210.759 192.627C210.759 192.733 210.706 192.786 210.6 192.839C210.547 192.892 210.441 192.945 210.335 192.945C210.229 192.945 210.123 192.892 210.07 192.839C210.017 192.786 209.964 192.68 209.911 192.627L209.381 190.93C209.381 190.877 209.328 190.824 209.275 190.771C209.222 190.718 209.169 190.665 209.116 190.665L207.525 190.135C207.419 190.082 207.366 190.029 207.313 189.976C207.26 189.923 207.207 189.817 207.207 189.711C207.207 189.605 207.26 189.499 207.313 189.446C207.366 189.393 207.419 189.287 207.525 189.287L209.116 188.756C209.169 188.756 209.222 188.703 209.275 188.65C209.328 188.597 209.381 188.544 209.381 188.491L209.911 186.795C209.911 186.689 209.964 186.636 210.07 186.583C210.123 186.53 210.229 186.477 210.335 186.477C210.441 186.477 210.547 186.53 210.6 186.583C210.706 186.636 210.759 186.689 210.759 186.795Z" fill="#F8F9F9"></path>
  <path d="M210.335 186.476C210.442 186.476 210.548 186.529 210.601 186.582C210.654 186.635 210.707 186.742 210.76 186.795L211.29 188.491C211.29 188.544 211.343 188.597 211.396 188.65C211.449 188.703 211.502 188.756 211.555 188.756L213.146 189.287C213.252 189.34 213.305 189.393 213.358 189.446C213.411 189.499 213.464 189.605 213.464 189.711C213.464 189.817 213.411 189.923 213.358 189.976C213.305 190.029 213.252 190.135 213.146 190.135L211.555 190.665C211.502 190.665 211.449 190.718 211.396 190.771C211.343 190.824 211.29 190.877 211.29 190.93L210.76 192.627C210.76 192.733 210.707 192.786 210.601 192.839C210.548 192.892 210.442 192.945 210.335 192.945C210.229 192.945 210.123 192.892 210.07 192.839C210.017 192.786 209.964 192.68 209.911 192.627L209.381 190.93C209.381 190.877 209.328 190.824 209.275 190.771C209.222 190.718 209.169 190.665 209.116 190.665L207.525 190.135C207.419 190.082 207.366 190.029 207.313 189.976C207.26 189.923 207.207 189.817 207.207 189.711C207.207 189.605 207.26 189.499 207.313 189.446C207.366 189.393 207.419 189.287 207.525 189.287L209.116 188.756C209.169 188.756 209.222 188.703 209.275 188.65C209.328 188.597 209.381 188.544 209.381 188.491L209.911 186.795C209.911 186.689 209.964 186.635 210.07 186.582C210.123 186.529 210.229 186.476 210.335 186.476ZM210.335 185.416C210.017 185.416 209.699 185.522 209.434 185.734C209.169 185.946 209.01 186.211 208.904 186.529L208.48 187.908L207.154 188.332H207.101H207.048C206.783 188.438 206.518 188.65 206.359 188.862C206.2 189.128 206.094 189.446 206.094 189.711C206.094 190.029 206.2 190.294 206.359 190.559C206.518 190.824 206.783 190.983 207.048 191.142L208.374 191.566L208.798 192.945C208.904 193.263 209.063 193.528 209.328 193.74C209.593 193.952 209.911 194.059 210.229 194.059C210.548 194.059 210.866 193.952 211.131 193.74C211.396 193.528 211.555 193.263 211.661 192.945L212.085 191.566L213.411 191.142H213.464H213.517C213.782 191.036 214.047 190.824 214.206 190.612C214.365 190.347 214.471 190.029 214.471 189.764C214.471 189.446 214.365 189.128 214.206 188.915C214.047 188.65 213.782 188.491 213.517 188.385L212.191 187.961L211.767 186.582C211.661 186.264 211.502 185.999 211.237 185.787C210.972 185.522 210.654 185.416 210.335 185.416Z" fill="#121212"></path>
</svg>
