<?xml version="1.0" encoding="UTF-8"?>
<svg xmlns="http://www.w3.org/2000/svg" width="272" height="272" viewBox="0 0 272 272" fill="none">
  <g clip-path="url(#clip0_4042_6126)">
    <path d="M39.2349 120.147L97.5054 53.923C100.475 50.5296 104.504 48.1967 108.958 47.2953C113.412 46.3939 118.025 46.9772 122.107 48.939L207.419 90.2957C210.229 91.6742 212.721 93.636 214.63 96.075C216.592 98.514 217.917 101.377 218.606 104.452L236.634 185.734C237.694 190.506 237.058 195.437 234.778 199.785C232.551 204.08 228.84 207.473 224.333 209.382L132.924 247.239C130.167 248.406 127.144 248.936 124.122 248.777C121.1 248.671 118.184 247.875 115.48 246.497L45.2793 210.23C41.8859 208.48 39.0758 205.829 37.114 202.595C35.1522 199.361 34.0918 195.649 34.0918 191.832V133.826C34.0918 128.789 35.9475 123.964 39.2349 120.147Z" fill="#C1D9FD"></path>
    <path d="M124.971 249.307C124.653 249.307 124.388 249.307 124.07 249.307C120.995 249.201 117.919 248.353 115.215 246.974L45.0679 210.708C41.6215 208.905 38.7053 206.201 36.6905 202.861C34.6757 199.52 33.6152 195.703 33.6152 191.832V133.827C33.6152 128.684 35.471 123.7 38.9174 119.776L97.1349 53.5522C100.21 50.1058 104.346 47.6668 108.906 46.7655C113.413 45.8641 118.237 46.4473 122.373 48.4621L207.685 89.8189C210.548 91.1974 213.093 93.2653 215.108 95.7573C217.069 98.2493 218.501 101.218 219.19 104.347L237.218 185.629C238.278 190.507 237.642 195.597 235.309 200.05C233.029 204.451 229.211 207.951 224.598 209.859L133.189 247.717C130.538 248.777 127.781 249.307 124.971 249.307ZM39.6597 120.518C36.4254 124.23 34.6226 128.949 34.6226 133.827V191.832C34.6226 195.544 35.63 199.149 37.5918 202.33C39.5006 205.512 42.2577 208.057 45.5451 209.753L115.745 246.02C118.343 247.346 121.26 248.141 124.176 248.247C127.092 248.353 130.061 247.823 132.765 246.709L224.121 208.905C228.522 207.102 232.128 203.762 234.301 199.573C236.475 195.385 237.112 190.507 236.104 185.894L218.077 104.612C217.441 101.643 216.062 98.8325 214.206 96.4465C212.351 94.0606 209.912 92.0988 207.154 90.8263L121.843 49.4696C117.919 47.5608 113.359 46.9775 109.065 47.8259C104.77 48.6742 100.793 51.0072 97.9302 54.2945L39.6597 120.518Z" fill="#121212"></path>
    <mask id="mask0_4042_6126" style="mask-type:luminance" maskUnits="userSpaceOnUse" x="34" y="22" width="204" height="227">
      <path d="M236.634 185.787L218.606 104.505C217.917 101.43 216.592 98.6197 214.63 96.1277C212.668 93.6887 210.229 91.6739 207.419 90.3483L189.02 81.4407V22.5869H85.8937V67.1249L39.2349 120.146C35.8945 123.911 34.0918 128.789 34.0918 133.826V191.831C34.0918 195.649 35.1522 199.36 37.114 202.595C39.0758 205.829 41.939 208.48 45.2793 210.23L115.48 246.496C118.131 247.875 121.1 248.67 124.122 248.776C127.144 248.882 130.114 248.352 132.924 247.239L224.333 209.381C228.84 207.526 232.551 204.132 234.778 199.785C237.005 195.49 237.694 190.506 236.634 185.787Z" fill="white"></path>
    </mask>
    <g mask="url(#mask0_4042_6126)">
      <path d="M127.464 30.5929C125.343 31.1231 124.017 31.6003 124.017 31.6003C124.017 31.6003 99.4685 32.0244 99.9987 50.688C100.529 69.3515 100.158 117.389 100.158 117.389H135.576C152.384 125.607 156.785 110.284 156.785 110.284C156.785 110.284 161.557 72.4798 159.489 50.1048C159.171 46.5523 158.057 43.1059 156.095 40.1367C150.21 31.2291 140.189 29.5855 132.819 29.7976C131.069 29.9036 129.267 30.1687 127.464 30.5929Z" fill="#E8BC86"></path>
      <path d="M144.643 120.359C141.833 120.359 138.757 119.563 135.47 117.92H100.158C99.9988 117.92 99.8928 117.867 99.7867 117.761C99.6807 117.655 99.6276 117.549 99.6276 117.389C99.6276 116.912 99.9988 69.1399 99.4686 50.6885C99.3095 45.9165 100.794 41.8339 103.816 38.6526C107.475 34.8351 112.777 32.9793 116.541 32.0779C120.306 31.1766 123.328 31.0705 123.858 31.0705C124.177 30.9645 125.396 30.5403 127.252 30.0631C129.108 29.5859 130.963 29.3208 132.766 29.2678C140.295 29.0557 150.475 30.7524 156.467 39.8721C158.375 42.7883 159.595 46.3407 159.913 50.1052C161.981 72.2682 157.262 110.019 157.209 110.391C157.209 110.444 157.209 110.444 157.209 110.497C157.156 110.762 155.3 116.859 149.627 119.351C148.195 120.041 146.499 120.359 144.643 120.359ZM100.688 116.912H135.576C135.682 116.912 135.735 116.912 135.788 116.965C141.037 119.563 145.597 120.041 149.309 118.397C154.293 116.17 156.095 110.762 156.255 110.232C156.467 108.747 160.92 71.9501 158.906 50.2113C158.588 46.6058 157.421 43.2124 155.618 40.4553C149.892 31.7598 140.083 30.1692 132.819 30.3282C131.122 30.3813 129.32 30.6464 127.57 31.0705C125.502 31.6007 124.177 32.0779 124.177 32.0779C124.124 32.0779 124.071 32.131 124.018 32.131C123.911 32.131 111.239 32.4491 104.612 39.3949C101.749 42.3641 100.423 46.1816 100.529 50.6885C101.059 68.1325 100.741 111.557 100.688 116.912Z" fill="#221F1F"></path>
      <path d="M144.695 93.6352L148.088 112.988L132.871 129.637L116.646 119.457L121.047 92.4688C121.418 92.4688 144.642 93.6352 144.695 93.6352Z" fill="#F4C8BD"></path>
      <path d="M132.819 130.114C132.713 130.114 132.607 130.114 132.554 130.008L116.382 119.881C116.223 119.775 116.117 119.563 116.117 119.351L120.518 92.363C120.571 92.0979 120.836 91.8858 121.101 91.9388C121.419 91.9388 136.689 92.7342 144.696 93.1053C144.961 93.1053 145.173 93.3174 145.226 93.5295L148.619 112.882C148.672 113.041 148.619 113.2 148.513 113.306L133.296 129.955C133.084 130.061 132.925 130.114 132.819 130.114ZM117.231 119.192L132.713 128.895L147.506 112.776L144.272 94.1127C141.249 93.9537 124.654 93.1583 121.578 92.9993L117.231 119.192Z" fill="#121212"></path>
      <path d="M114.26 111.398C114.26 111.398 132.87 117.655 148.936 112.671C164.948 107.687 137.112 166.17 137.112 166.17C137.112 166.17 114.79 141.833 113.518 111.398" fill="#FCC018"></path>
      <path d="M137.166 166.7C137.007 166.7 136.901 166.647 136.795 166.541C136.583 166.275 114.314 141.727 113.041 111.451C113.041 111.133 113.253 110.921 113.571 110.921C113.73 110.921 113.889 110.974 113.942 111.08C114.101 110.921 114.261 110.868 114.473 110.974C114.632 111.027 133.136 117.125 148.831 112.247C150.792 111.61 152.33 111.875 153.284 112.989C155.935 116.064 154.133 126.032 147.823 142.628C143.157 154.823 137.696 166.329 137.643 166.435C137.59 166.594 137.431 166.7 137.219 166.753C137.219 166.7 137.166 166.7 137.166 166.7ZM114.101 111.929C115.48 138.969 133.666 161.344 137.007 165.268C143.21 152.066 157.155 119.192 152.436 113.678C151.747 112.883 150.686 112.724 149.096 113.254C133.083 118.185 114.314 111.982 114.101 111.929Z" fill="#121212"></path>
      <path d="M152.753 54.5061C146.921 48.3556 139.286 46.5529 132.976 46.3408C129.318 49.6812 123.909 53.2336 116.327 55.3545C113.835 56.0437 112.192 57.5814 111.131 59.5962C110.601 60.6566 110.336 61.8231 110.336 63.0426V70.5186C110.336 74.6012 110.919 78.7369 112.245 82.6605C114.525 89.5533 119.562 97.8777 130.431 98.1958C143.899 98.5669 150.738 93.848 154.927 79.2671C155.457 77.4114 155.987 73.5938 156.359 70.6777C156.73 67.4964 156.624 64.103 155.828 60.9747C154.556 56.0437 152.753 54.5061 152.753 54.5061Z" fill="#F4C8BD"></path>
      <path d="M131.916 98.7259C131.439 98.7259 130.909 98.7259 130.432 98.7259C119.244 98.4078 114.101 89.9244 111.768 82.8195C110.496 79.002 109.859 74.8663 109.859 70.5185V62.9895C109.859 61.664 110.178 60.3914 110.708 59.331C111.927 56.9981 113.783 55.5135 116.222 54.8242C122.585 53.0745 128.152 50.0523 132.659 45.9696C132.765 45.8636 132.871 45.8105 133.03 45.8105C141.248 46.0757 148.194 48.9388 153.072 54.0289L153.125 54.0819C153.178 54.1349 155.034 55.7786 156.306 60.8156C157.101 63.8378 157.261 67.2842 156.836 70.7306C156.465 73.6468 155.935 77.5174 155.405 79.3731C151.481 93.3708 145.013 98.7259 131.916 98.7259ZM133.189 46.871C128.576 51.0066 122.956 54.0289 116.487 55.8316C114.313 56.4148 112.67 57.7404 111.662 59.8082C111.185 60.7626 110.92 61.823 110.92 62.9895V70.5185C110.92 74.7603 111.556 78.7899 112.776 82.4484C115.002 89.1821 119.88 97.2944 130.485 97.6125C143.952 97.9836 150.474 92.9996 154.45 79.055C154.981 77.2523 155.511 73.4347 155.829 70.5716C156.253 67.2842 156.041 63.9969 155.299 61.0807C154.238 56.945 152.86 55.3014 152.489 54.9302C152.436 54.9302 152.383 54.8772 152.383 54.8242C147.664 49.8932 141.195 47.1891 133.189 46.871Z" fill="#221F1F"></path>
      <path d="M124.759 74.3357C126.085 74.3357 127.145 72.2148 127.145 69.6698C127.145 67.0717 126.085 65.0039 124.759 65.0039C123.433 65.0039 122.373 67.1248 122.373 69.6698C122.373 72.2148 123.433 74.3357 124.759 74.3357Z" fill="#121212"></path>
      <path d="M145.173 74.283C146.499 74.283 147.559 72.1621 147.559 69.6171C147.559 67.019 146.499 64.9512 145.173 64.9512C143.848 64.9512 142.787 67.072 142.787 69.6171C142.787 72.2151 143.848 74.283 145.173 74.283Z" fill="#121212"></path>
      <path opacity="0.27" d="M134.09 61.9824L153.867 61.4521C153.867 61.4521 156.359 75.927 146.656 76.4042C142.786 76.5633 141.354 76.7223 139.657 76.0861C139.127 75.874 138.809 75.3438 138.968 74.7075C139.127 73.9652 138.756 72.8518 138.438 72.3746C138.12 71.7913 137.006 70.943 136.105 70.5718C135.575 70.3598 134.938 70.2007 134.832 69.6175C133.56 63.7851 134.09 61.9824 134.09 61.9824Z" fill="#ACDFF2"></path>
      <path opacity="0.27" d="M113.995 62.5654L133.772 62.0352C133.772 62.0352 136.264 76.51 126.561 76.9872C117.706 77.4114 115.957 76.51 114.737 70.7307C113.518 64.8983 113.942 62.5654 113.995 62.5654Z" fill="#ACDFF2"></path>
      <path d="M123.275 77.5707C117.283 77.5707 115.375 76.2451 114.261 70.7839C113.042 64.9516 113.466 62.5126 113.466 62.4065C113.519 62.1414 113.731 61.9824 113.996 61.9824L133.773 61.4521C134.038 61.4521 134.25 61.6112 134.303 61.8763C134.356 62.1944 135.682 70.3597 132.182 74.7605C130.857 76.4572 128.948 77.3586 126.615 77.4646C125.343 77.5176 124.229 77.5707 123.275 77.5707ZM114.42 63.0428C114.367 63.9442 114.367 66.3301 115.269 70.5718C116.435 76.0861 117.867 76.8284 126.509 76.4042C128.524 76.2982 130.168 75.5559 131.281 74.1243C134.038 70.6779 133.455 64.3153 133.243 62.5656L114.42 63.0428Z" fill="#121212"></path>
      <path d="M143.688 76.9867C141.567 76.9867 140.295 76.7746 139.075 76.2974C138.81 76.1914 138.704 75.9263 138.757 75.7142C139.499 72.4268 135.311 70.9422 135.151 70.8892C135.045 70.8362 134.939 70.7832 134.886 70.6771C134.886 70.6241 134.409 69.8818 134.25 69.0865C133.084 63.4132 133.561 61.9816 133.667 61.7165C133.72 61.6105 133.826 61.5044 133.932 61.4514C133.985 61.3984 134.091 61.3984 134.197 61.3984L153.974 60.8682C154.239 60.8682 154.451 61.0272 154.504 61.2923C154.557 61.6105 155.883 69.7758 152.383 74.1765C151.058 75.8732 149.149 76.7746 146.816 76.8806C145.544 76.9867 144.536 76.9867 143.688 76.9867ZM139.87 75.4491C141.302 75.9263 142.999 75.9793 146.657 75.8202C148.672 75.7142 150.316 74.9719 151.429 73.5403C154.186 70.0939 153.603 63.7313 153.391 61.9816L134.462 62.5118C134.409 63.1481 134.356 64.8448 135.205 68.9274C135.311 69.3516 135.523 69.7758 135.629 69.9879C137.431 70.6241 140.242 72.4799 139.87 75.4491Z" fill="#121212"></path>
      <path d="M135.84 79.2673C135.681 79.2673 135.522 79.1613 135.416 79.0022C135.257 78.7371 135.31 78.419 135.575 78.2599C137.802 76.8284 138.915 75.3968 138.809 74.1243C138.65 72.4806 136.317 71.2611 135.416 70.943C135.151 70.8369 134.992 70.5188 135.098 70.2537C135.204 69.9886 135.522 69.8295 135.787 69.9356C135.946 69.9886 139.604 71.3671 139.87 74.0182C140.029 75.7149 138.809 77.4116 136.158 79.1613C135.999 79.2673 135.946 79.2673 135.84 79.2673Z" fill="#121212"></path>
      <path d="M149.574 59.3314C149.414 59.3314 149.308 59.2784 149.202 59.1724C149.096 59.0663 146.498 56.2562 142.999 58.8012C142.787 58.9603 142.416 58.9073 142.257 58.6952C142.097 58.4831 142.151 58.1119 142.363 57.9529C146.71 54.8776 149.945 58.4301 149.998 58.4831C150.21 58.6952 150.157 59.0133 149.945 59.2254C149.839 59.2784 149.68 59.3314 149.574 59.3314Z" fill="#121212"></path>
      <path d="M121.047 59.3844C120.888 59.3844 120.729 59.3314 120.623 59.1723C120.411 58.9603 120.464 58.5891 120.676 58.43C124.812 55.0367 128.311 58.43 128.311 58.43C128.523 58.6421 128.523 58.9603 128.311 59.1723C128.099 59.3844 127.781 59.3844 127.569 59.1723C127.463 59.0663 124.706 56.4682 121.313 59.2254C121.26 59.3314 121.154 59.3844 121.047 59.3844Z" fill="#121212"></path>
      <path d="M133.879 90.8252C133.561 90.8252 133.296 90.8252 132.978 90.7722C130.751 90.6132 128.736 90.0299 127.04 88.9695C126.774 88.8104 126.721 88.4923 126.88 88.2272C127.04 87.9621 127.358 87.9091 127.623 88.0681C129.16 89.0225 131.016 89.6058 133.084 89.7118C135.841 89.8709 138.227 89.1816 140.242 87.697C140.454 87.5379 140.825 87.5909 140.984 87.803C141.143 88.0151 141.09 88.3863 140.878 88.5453C138.863 90.0299 136.53 90.8252 133.879 90.8252Z" fill="#121212"></path>
      <path d="M92.8939 209.382C92.8408 210.283 92.8409 210.919 92.8409 210.919C89.5005 265.107 77.3586 350.578 77.3586 350.578L130.486 351.267L132.925 262.986L138.863 351.267L187.007 350.26L174.706 223.22C174.441 219.191 173.221 150.422 174.653 157.792L178.736 188.173L176.085 196.604C176.085 196.604 197.134 235.521 198.99 194.218C200.315 164.314 190.241 140.401 184.568 129.425C182.553 125.555 180.008 122.055 177.039 118.927C177.039 118.927 177.039 118.927 176.986 118.874C172.267 113.89 159.807 106.52 147.029 104.24C147.029 104.24 136.743 162.299 135.788 164.526C134.41 164.685 119.511 105.99 118.079 106.255C105.142 108.694 98.9913 113.307 98.6732 113.625C90.2428 122.161 68.0798 156.625 65.5348 187.431C62.1414 228.469 124.124 200.209 124.124 200.209" fill="#F8F9F9"></path>
      <path d="M138.81 351.798C138.545 351.798 138.279 351.586 138.279 351.32L133.136 274.227L131.016 351.32C131.016 351.586 130.75 351.851 130.485 351.851L77.3578 351.161C77.1987 351.161 77.0397 351.108 76.9866 351.002C76.8806 350.896 76.8276 350.737 76.8806 350.578C76.9867 349.73 89.0755 264.471 92.3629 210.973C92.3629 210.973 92.3629 210.602 92.4159 209.965C83.4022 210.973 76.5095 209.806 71.8436 206.519C66.5944 202.807 64.2615 196.392 65.0038 187.431C67.6019 156.467 89.8709 121.844 98.3013 113.307C98.3543 113.254 104.346 108.323 117.972 105.778C118.927 105.619 119.51 106.786 127.569 135.735C130.697 146.976 134.197 159.542 135.628 163.2C137.272 155.936 143.9 119.034 146.498 104.241C146.498 104.082 146.604 103.975 146.71 103.922C146.816 103.816 146.975 103.816 147.081 103.816C160.495 106.202 172.849 113.89 177.356 118.609C180.485 121.844 183.03 125.449 185.044 129.267C191.036 140.825 200.898 164.579 199.572 194.324C199.042 206.466 196.815 212.775 192.839 213.73C185.734 215.374 176.084 197.717 175.66 196.922C175.607 196.816 175.554 196.657 175.607 196.498L178.205 188.174L174.599 161.398C174.228 175.024 174.97 219.774 175.235 223.221L187.483 350.26C187.483 350.419 187.43 350.578 187.377 350.684C187.271 350.79 187.165 350.843 187.006 350.843L138.81 351.798ZM77.941 350.101L129.902 350.79L132.341 263.04C132.341 262.775 132.553 262.51 132.871 262.51C133.136 262.51 133.401 262.722 133.401 262.987L139.287 350.79L186.37 349.783L174.175 223.274C174.016 221.365 173.698 205.193 173.539 188.863C173.433 179.902 173.433 172.373 173.486 167.071C173.592 156.838 173.804 156.785 174.44 156.732C175.023 156.679 175.182 157.315 175.235 157.686L179.318 188.12C179.318 188.174 179.318 188.28 179.318 188.333L176.773 196.551C179.53 201.588 187.483 213.836 192.679 212.616C195.012 212.086 197.929 208.428 198.565 194.218C199.89 164.738 190.134 141.144 184.196 129.691C182.234 125.926 179.742 122.48 176.72 119.299L176.667 119.246C172.319 114.686 160.495 107.316 147.505 104.824C146.392 110.974 137.272 162.511 136.318 164.685C136.265 164.844 136.106 165.003 135.893 165.003C134.992 165.109 134.409 163.996 126.615 135.894C123.221 123.752 119.033 108.694 117.919 106.786C104.823 109.278 99.0966 113.944 99.0436 113.997C90.6662 122.48 68.6093 156.785 66.0642 187.484C65.375 196.021 67.4958 202.118 72.4268 205.618C87.4319 216.169 123.486 199.944 123.858 199.785C124.123 199.679 124.441 199.785 124.547 200.05C124.653 200.315 124.547 200.634 124.282 200.74C124.176 200.793 114.95 204.928 103.975 207.738C100.21 208.693 96.6576 209.382 93.4233 209.806C93.3703 210.496 93.3703 210.973 93.3703 210.973C90.189 262.191 79.0545 342.36 77.941 350.101Z" fill="#121212"></path>
      <path d="M99.891 192.839C97.452 192.839 95.3842 192.521 93.7936 192.15C93.5285 192.097 93.3164 191.779 93.4224 191.514C93.4754 191.248 93.7936 191.036 94.0587 191.142C97.5051 191.991 103.231 192.415 110.76 189.923C111.026 189.817 111.344 189.976 111.45 190.241C111.556 190.506 111.397 190.824 111.132 190.93C106.731 192.362 102.966 192.839 99.891 192.839Z" fill="#121212"></path>
      <path d="M93.796 191.62C87.7516 190.135 84.3052 186.636 84.4643 183.825C84.7824 178.205 92.7356 157.421 93.2128 156.678C94.1672 155.194 95.3867 153.55 95.1216 159.223C94.9095 163.73 94.3793 179.053 93.796 191.62Z" fill="#C1D9FD"></path>
      <path d="M93.8482 192.15C93.7952 192.15 93.6892 192.15 93.6362 192.097C87.0615 190.453 83.7742 186.689 83.9332 183.773C84.2514 178.046 92.2576 157.103 92.7348 156.361C93.318 155.459 93.9543 154.452 94.7496 154.717C95.3859 154.929 95.757 155.724 95.598 159.224C95.5449 160.655 95.4389 163.147 95.3329 166.276C95.0677 172.956 94.6966 183.03 94.3254 191.62C94.3254 191.832 94.2194 191.991 94.0603 192.044C94.0073 192.15 93.9013 192.15 93.8482 192.15ZM94.4315 155.883C94.2724 156.043 94.0073 156.414 93.6362 156.997C93.212 157.739 85.3118 178.258 84.9937 183.879C84.8876 186.212 87.7508 189.446 93.318 190.984C93.6892 182.5 94.0603 172.797 94.3254 166.276C94.4315 163.147 94.5375 160.655 94.5905 159.224C94.6966 156.997 94.5375 156.149 94.4315 155.883Z" fill="#121212"></path>
      <path d="M102.968 153.019C102.225 153.019 101.801 152.542 101.642 152.224C101.536 151.959 101.642 151.641 101.907 151.535C102.172 151.429 102.491 151.535 102.597 151.8C102.65 151.853 102.756 152.012 103.18 151.959C103.445 151.906 103.763 152.065 103.816 152.33C103.869 152.595 103.71 152.913 103.445 152.966C103.286 153.019 103.127 153.019 102.968 153.019Z" fill="#221F1F"></path>
      <path d="M111.131 156.837C111.821 156.731 112.457 156.519 113.04 156.307C115.426 153.55 115.32 148.036 113.093 145.915C112.351 145.544 111.556 145.278 110.654 145.066C113.889 147.611 113.305 153.709 111.131 156.837Z" fill="#121212"></path>
      <path d="M108.958 144.748C108.958 144.748 107.685 144.748 107.208 144.748C109.276 147.293 110.39 153.974 106.625 156.837C107.155 156.89 107.685 156.943 108.322 156.943C108.481 156.943 108.64 156.943 108.799 156.943C112.404 153.391 111.185 146.551 108.958 144.748Z" fill="#121212"></path>
      <path d="M114.949 155.352C116.434 154.292 117.388 152.86 117.441 151.376C117.494 149.997 116.752 148.512 115.479 147.293C116.805 149.52 116.381 153.762 114.949 155.352Z" fill="#121212"></path>
      <path d="M108.8 157.368C108.641 157.368 108.429 157.368 108.27 157.368C104.399 157.208 101.801 156.413 100.475 154.929C99.256 153.603 99.15 151.959 99.256 150.634C99.4151 146.127 104.346 144.271 108.853 144.43C113.731 144.642 118.079 147.983 117.92 151.376C117.867 152.596 117.23 153.815 116.117 154.822C114.314 156.466 111.61 157.368 108.8 157.368ZM108.058 145.491C102.808 145.491 100.369 148.036 100.263 150.687C100.21 152.33 100.475 153.391 101.218 154.186C102.384 155.459 104.717 156.148 108.27 156.307C111.027 156.413 113.678 155.565 115.322 154.08C116.223 153.232 116.7 152.33 116.753 151.376C116.859 148.831 113.36 145.703 108.694 145.491C108.482 145.491 108.27 145.491 108.058 145.491Z" fill="#221F1F"></path>
      <path d="M103.179 149.997C103.02 149.997 102.861 149.944 102.755 149.838C102.384 149.414 102.013 149.52 101.96 149.573C101.694 149.732 101.376 149.626 101.217 149.361C101.058 149.096 101.164 148.778 101.376 148.619C101.747 148.354 102.755 148.142 103.55 149.096C103.762 149.308 103.709 149.626 103.497 149.838C103.391 149.997 103.285 149.997 103.179 149.997Z" fill="#221F1F"></path>
      <path d="M106.2 150.74C106.041 150.74 105.882 150.687 105.776 150.581C105.405 150.156 105.034 150.262 104.981 150.315C104.716 150.474 104.398 150.368 104.239 150.103C104.08 149.838 104.186 149.52 104.398 149.361C104.769 149.096 105.776 148.884 106.572 149.838C106.784 150.05 106.731 150.368 106.519 150.581C106.466 150.687 106.307 150.74 106.2 150.74Z" fill="#221F1F"></path>
      <path d="M110.178 145.384C110.125 145.384 110.125 145.384 110.072 145.384C107.102 145.384 105.088 144.748 104.08 143.529C103.55 142.892 103.338 142.15 103.497 141.302C103.709 140.4 104.716 138.757 107.049 139.128C110.019 139.605 111.185 141.461 110.655 144.854C110.655 145.225 110.443 145.384 110.178 145.384ZM106.413 140.188C104.982 140.188 104.61 141.408 104.61 141.567C104.504 142.044 104.61 142.468 104.929 142.892C105.353 143.423 106.519 144.271 109.7 144.324C110.019 141.196 108.534 140.506 106.89 140.241C106.731 140.188 106.572 140.188 106.413 140.188Z" fill="#121212"></path>
      <path d="M114.314 146.233C113.2 146.233 111.769 145.968 109.966 145.331C109.701 145.225 109.595 145.013 109.648 144.748C110.602 139.764 114.261 140.294 115.48 140.507C118.45 140.931 118.503 143.211 118.503 143.635C118.503 144.006 118.184 144.854 117.23 145.491C116.541 145.862 115.639 146.233 114.314 146.233ZM110.761 144.483C113.943 145.597 115.639 145.172 116.541 144.642C117.23 144.218 117.442 143.688 117.442 143.582C117.442 143.052 117.283 141.832 115.321 141.514C113.36 141.249 111.504 141.408 110.761 144.483Z" fill="#221F1F"></path>
      <path d="M118.345 105.142L135.683 164.526L119.246 138.704L121.738 132.13L112.99 127.199L105.143 109.224L118.345 105.142Z" fill="#F8F9F9"></path>
      <path d="M135.682 165.056C135.523 165.056 135.311 164.95 135.258 164.791L118.822 138.969C118.715 138.81 118.715 138.651 118.768 138.492L121.101 132.342L112.724 127.676C112.618 127.623 112.565 127.517 112.512 127.411L104.665 109.436C104.612 109.277 104.612 109.118 104.665 109.012C104.718 108.906 104.824 108.747 104.983 108.747L118.185 104.717C118.344 104.664 118.45 104.664 118.609 104.77C118.715 104.823 118.821 104.93 118.875 105.089L136.213 164.473C136.266 164.738 136.16 165.003 135.947 165.109C135.841 165.003 135.735 165.056 135.682 165.056ZM119.829 138.598L134.145 161.079L118.026 105.831L105.884 109.542L113.413 126.827L122.003 131.652C122.215 131.758 122.321 132.077 122.215 132.289L119.829 138.598Z" fill="#121212"></path>
      <path d="M147.028 104.24L135.787 164.526L148.618 137.22L145.702 130.804L154.133 125.343L160.336 107.262L147.028 104.24Z" fill="#F8F9F9"></path>
      <path d="M135.786 165.056C135.733 165.056 135.68 165.056 135.627 165.056C135.362 164.95 135.203 164.738 135.256 164.473L146.497 104.187C146.497 104.028 146.603 103.922 146.709 103.816C146.815 103.763 146.974 103.71 147.133 103.763L160.441 106.785C160.6 106.838 160.707 106.891 160.813 107.051C160.866 107.157 160.919 107.316 160.866 107.475L154.662 125.555C154.609 125.661 154.556 125.767 154.45 125.82L146.338 130.963L149.095 136.955C149.148 137.114 149.148 137.273 149.095 137.379L136.264 164.738C136.158 164.897 135.999 165.056 135.786 165.056ZM147.398 104.877L137.006 160.549L147.981 137.22L145.171 131.016C145.065 130.751 145.171 130.486 145.383 130.327L153.655 124.972L159.593 107.634L147.398 104.877Z" fill="#121212"></path>
      <path d="M148.989 177.145C150.049 180.751 153.867 182.819 157.472 181.705C161.078 180.645 163.145 176.827 162.032 173.222C161.131 170.306 158.48 168.397 155.563 168.344L153.708 162.14L151.693 155.353L149.254 153.922L147.822 156.52L148.352 158.27L150.473 159.118L149.148 160.974L151.269 161.822L149.943 163.678L152.064 164.526L150.738 166.382L151.693 169.616C149.307 171.207 148.14 174.229 148.989 177.145ZM155.563 175.237C156.571 174.918 157.631 175.502 157.949 176.509C158.267 177.516 157.684 178.577 156.677 178.895C155.669 179.213 154.609 178.63 154.291 177.622C153.973 176.562 154.503 175.502 155.563 175.237Z" fill="#96B6C5"></path>
      <path d="M155.511 182.553C152.33 182.553 149.414 180.485 148.459 177.304C147.558 174.335 148.618 171.206 151.004 169.404L150.156 166.541C150.103 166.381 150.156 166.222 150.209 166.063L151.11 164.791L149.626 164.208C149.467 164.155 149.36 163.996 149.307 163.889C149.254 163.73 149.307 163.571 149.36 163.412L150.262 162.14L148.777 161.557C148.618 161.504 148.512 161.344 148.459 161.238C148.406 161.079 148.459 160.92 148.512 160.761L149.413 159.489L147.929 158.905C147.77 158.852 147.664 158.693 147.611 158.587L147.081 156.838C147.028 156.679 147.081 156.573 147.134 156.413L148.565 153.815C148.618 153.709 148.777 153.603 148.883 153.55C149.042 153.497 149.148 153.55 149.307 153.603L151.746 155.035C151.852 155.088 151.959 155.194 152.012 155.353L155.776 167.972C158.904 168.184 161.502 170.199 162.404 173.221C163.57 177.092 161.343 181.174 157.473 182.341C156.943 182.447 156.253 182.553 155.511 182.553ZM149.52 176.986C150.527 180.326 154.026 182.182 157.314 181.227C160.654 180.22 162.51 176.721 161.555 173.433C160.76 170.782 158.374 168.98 155.564 168.927C155.352 168.927 155.087 168.767 155.034 168.555L151.216 155.777L149.413 154.717L148.353 156.626L148.724 157.951L150.58 158.693C150.739 158.746 150.845 158.905 150.898 159.011C150.951 159.171 150.898 159.33 150.845 159.489L149.944 160.761L151.428 161.344C151.587 161.397 151.693 161.557 151.746 161.663C151.799 161.822 151.746 161.981 151.693 162.14L150.792 163.412L152.277 163.995C152.436 164.049 152.542 164.208 152.595 164.314C152.648 164.473 152.595 164.632 152.542 164.791L151.375 166.434L152.277 169.404C152.33 169.616 152.277 169.881 152.065 169.987C149.732 171.578 148.724 174.388 149.52 176.986ZM156.094 179.478C155.034 179.478 154.079 178.788 153.761 177.728C153.549 177.092 153.655 176.456 153.973 175.872C154.291 175.289 154.822 174.865 155.405 174.706C156.041 174.547 156.677 174.6 157.261 174.918C157.844 175.236 158.268 175.766 158.427 176.35C158.798 177.622 158.056 179.001 156.783 179.372C156.571 179.478 156.306 179.478 156.094 179.478ZM156.094 175.66C155.988 175.66 155.829 175.66 155.723 175.713C155.352 175.819 155.087 176.031 154.928 176.403C154.769 176.721 154.716 177.092 154.822 177.463C155.034 178.205 155.829 178.629 156.518 178.417C157.261 178.205 157.685 177.41 157.473 176.721C157.367 176.349 157.155 176.084 156.783 175.925C156.518 175.713 156.306 175.66 156.094 175.66Z" fill="#121212"></path>
      <path d="M190.398 194.43C181.968 189.552 163.039 171.63 159.964 168.661C159.54 168.29 159.01 168.025 158.426 168.131C157.737 168.237 157.101 168.714 157.472 170.517C158.161 173.751 162.562 178.205 162.509 178.152C162.509 178.152 159.275 176.773 154.185 177.728C154.132 177.728 152.965 178.046 152.912 178.046C151.534 178.364 151.321 179.053 151.056 180.379C150.95 180.962 150.95 182.712 151.109 183.295C151.215 183.666 151.374 184.09 151.534 184.568C151.48 185.522 151.268 189.234 151.481 190.294C151.746 191.566 152.488 195.278 152.965 195.914C153.442 196.55 154.609 196.444 154.609 196.444L156.995 196.179C156.995 196.179 158.903 196.444 160.6 196.71C160.759 196.763 160.918 196.71 161.077 196.55C162.244 196.869 163.304 197.346 164.471 197.717C166.061 198.247 167.599 198.724 169.243 199.096C169.826 199.202 170.356 199.467 170.886 199.626C170.992 199.679 171.098 199.679 171.151 199.732C173.325 199.573 174.757 199.202 174.757 199.202C174.757 199.202 181.968 207.155 182.233 207.632C182.233 207.632 187.853 212.404 192.466 207.208C192.466 207.208 194.534 205.087 194.958 201.481C195.435 197.929 190.398 194.43 190.398 194.43Z" fill="#F4C8BD"></path>
      <path d="M187.589 210.231C184.514 210.231 181.969 208.11 181.916 208.11C181.863 208.057 181.81 208.004 181.81 207.951C181.544 207.526 177.356 202.861 174.652 199.838C173.379 200.263 169.031 201.217 163.04 197.771C161.927 197.134 158.374 196.71 154.928 196.869C154.928 196.869 153.496 196.869 153.072 196.498C152.754 196.233 152.595 195.968 152.489 195.809C151.959 194.854 151.322 193.847 151.746 192.84C152.012 192.203 152.701 191.726 153.867 191.461C157.42 190.613 161.343 190.666 161.502 190.666C161.821 190.666 162.033 190.931 162.033 191.196C162.033 191.461 161.768 191.726 161.502 191.726C161.449 191.726 157.526 191.673 154.132 192.468C153.39 192.68 152.913 192.946 152.754 193.264C152.542 193.741 153.019 194.536 153.39 195.226C153.496 195.385 153.549 195.544 153.708 195.65C153.867 195.703 154.61 195.809 154.875 195.809C158.056 195.65 162.033 195.968 163.57 196.816C170.092 200.581 174.546 198.725 174.599 198.672C174.811 198.566 175.076 198.619 175.182 198.778C176.826 200.581 181.969 206.254 182.658 207.208C183.188 207.686 188.066 211.397 192.096 206.784C192.149 206.731 194.058 204.716 194.429 201.323C194.8 198.089 190.081 194.748 190.028 194.695C181.969 190.029 164.631 173.752 159.541 168.874C159.222 168.556 158.798 168.397 158.427 168.45C158.162 168.503 158.056 168.609 158.003 168.662C157.897 168.821 157.738 169.192 157.95 170.146C158.48 172.691 161.502 176.085 162.775 177.463C163.04 177.728 163.093 177.994 162.881 178.259C162.722 178.471 162.404 178.524 162.192 178.365C162.192 178.365 159.275 176.509 152.966 178.471C152.012 178.736 151.375 179.584 151.322 180.539V180.592C151.322 181.122 151.375 181.652 151.534 182.235L151.64 182.606C151.64 182.712 151.693 182.818 151.746 182.872C152.86 181.864 154.451 181.228 155.776 181.228H156.359C156.624 181.228 156.89 181.228 157.155 181.228C158.162 181.228 159.169 181.281 160.071 181.599C160.336 181.705 160.495 181.97 160.389 182.235C160.283 182.5 160.018 182.659 159.753 182.606C159.753 182.606 158.48 182.288 156.89 182.288C156.73 182.288 156.624 182.288 156.465 182.288C155.193 182.341 153.761 182.553 152.754 183.402C152.171 183.826 151.799 184.515 151.693 185.364C151.587 186.106 151.534 186.901 151.64 187.643C152.701 186.848 155.034 185.947 160.336 186.053C160.654 186.053 160.866 186.318 160.866 186.583C160.866 186.848 160.601 187.113 160.336 187.113C152.754 186.954 151.852 188.969 151.852 188.969C151.799 189.181 151.587 189.34 151.322 189.34C151.057 189.34 150.898 189.181 150.792 188.916C150.474 187.696 150.421 186.424 150.633 185.151C150.686 184.727 150.845 184.356 151.004 183.985C150.792 183.773 150.686 183.402 150.58 182.925L150.474 182.553C150.262 181.811 150.156 181.175 150.209 180.592V180.539C150.315 179.107 151.269 177.887 152.595 177.463C156.306 176.297 158.957 176.403 160.601 176.721C159.063 174.918 157.261 172.426 156.837 170.358C156.624 169.298 156.677 168.556 157.049 168.026C157.314 167.654 157.738 167.442 158.215 167.389C158.904 167.283 159.594 167.548 160.177 168.079C163.782 171.525 182.34 189.022 190.505 193.741C190.77 193.9 195.86 197.505 195.383 201.376C194.959 205.087 192.838 207.314 192.732 207.42C191.194 209.594 189.286 210.231 187.589 210.231Z" fill="#121212"></path>
      <path d="M152.171 193.793C151.959 193.793 151.747 193.687 151.694 193.475C151.11 191.938 150.686 189.233 151.057 188.438C151.163 188.173 151.375 188.12 151.482 188.067C151.747 187.961 152.065 188.173 152.118 188.438C152.171 188.65 152.118 188.862 151.959 188.968C151.853 189.499 152.065 191.619 152.648 193.051C152.754 193.316 152.595 193.634 152.33 193.74C152.33 193.793 152.224 193.793 152.171 193.793Z" fill="#121212"></path>
      <path d="M181.492 187.855C181.492 187.855 193.104 184.673 197.982 192.467C201.64 198.353 200.898 210.017 193.581 215.161C189.18 218.236 183.136 217.228 179.637 213.199C177.039 210.177 175.66 202.913 174.971 199.307C174.971 199.307 181.757 208.268 187.166 201.269C192.044 194.853 181.492 187.855 181.492 187.855Z" fill="#FCC018"></path>
      <path d="M187.802 217.547C184.674 217.547 181.493 216.168 179.266 213.57C176.615 210.548 175.236 203.496 174.494 199.679L174.441 199.414C174.388 199.149 174.494 198.936 174.759 198.83C174.971 198.724 175.236 198.777 175.395 198.989C175.448 199.042 178.789 203.39 182.447 203.39C184.038 203.39 185.469 202.542 186.742 200.898C187.749 199.626 188.121 198.194 187.855 196.71C187.113 192.362 181.599 188.544 181.228 188.279C181.069 188.173 181.016 188.067 180.963 187.908C180.91 187.643 181.069 187.378 181.334 187.325C181.44 187.272 193.423 184.143 198.407 192.203C202.383 198.565 201.217 210.442 193.847 215.585C192.044 216.911 189.923 217.547 187.802 217.547ZM175.873 201.11C176.668 204.928 177.94 210.389 180.061 212.881C183.455 216.805 189.234 217.6 193.264 214.79C200.475 209.7 200.846 198.141 197.558 192.839C193.847 186.848 185.788 187.643 182.765 188.173C184.568 189.552 188.227 192.839 188.863 196.603C189.181 198.406 188.704 200.103 187.537 201.641C186.053 203.549 184.356 204.557 182.394 204.557C179.743 204.451 177.304 202.542 175.873 201.11Z" fill="#121212"></path>
      <path d="M186.21 214.63C185.839 214.63 185.468 214.63 185.097 214.577C184.779 214.577 184.566 214.312 184.619 213.994C184.619 213.676 184.885 213.464 185.203 213.517C194.322 214.1 195.966 207.366 196.019 207.101C196.072 206.836 196.39 206.624 196.655 206.677C196.92 206.73 197.133 207.048 197.079 207.313C197.026 207.419 195.277 214.63 186.21 214.63Z" fill="#121212"></path>
      <path d="M155.598 227.515L132.004 228.363C130.678 228.416 129.565 227.356 129.511 226.03L128.822 207.155C128.769 205.829 129.83 204.716 131.155 204.663L154.75 203.814C156.075 203.761 157.189 204.822 157.242 206.147L157.931 225.023C157.984 226.349 156.924 227.462 155.598 227.515Z" fill="#96B6C5"></path>
      <path d="M131.897 228.893C130.306 228.893 128.98 227.621 128.927 226.03L128.238 207.155C128.185 206.359 128.503 205.617 129.033 205.034C129.564 204.451 130.306 204.132 131.101 204.079L154.696 203.231C156.287 203.178 157.718 204.451 157.771 206.094L158.46 224.97C158.513 225.765 158.195 226.508 157.665 227.091C157.135 227.674 156.393 227.992 155.597 228.045L132.003 228.893C132.003 228.893 131.95 228.893 131.897 228.893ZM154.855 204.345H154.802L131.207 205.193C130.677 205.193 130.253 205.405 129.882 205.776C129.511 206.147 129.352 206.624 129.352 207.155L130.041 226.03C130.094 227.091 130.942 227.886 132.003 227.833L155.597 226.985C156.127 226.985 156.552 226.773 156.923 226.401C157.294 226.03 157.453 225.553 157.453 225.023L156.764 206.147C156.711 205.14 155.862 204.345 154.855 204.345Z" fill="#121212"></path>
      <path d="M145.66 213.862C145.713 215.188 144.706 216.248 143.38 216.301C142.055 216.354 140.994 215.347 140.941 214.021C140.888 212.696 141.896 211.635 143.221 211.582C144.547 211.529 145.607 212.536 145.66 213.862Z" fill="#121212"></path>
      <path d="M143.275 216.831C142.533 216.831 141.844 216.566 141.313 216.036C140.73 215.505 140.412 214.763 140.412 214.021C140.359 213.226 140.677 212.483 141.207 211.953C141.738 211.37 142.48 211.052 143.222 211.052C143.964 210.999 144.76 211.317 145.29 211.847C145.873 212.377 146.191 213.119 146.191 213.862C146.244 214.657 145.926 215.399 145.396 215.93C144.866 216.513 144.123 216.831 143.381 216.831C143.381 216.831 143.328 216.831 143.275 216.831ZM143.328 212.059H143.275C142.798 212.059 142.321 212.271 142.003 212.642C141.685 213.013 141.472 213.491 141.525 213.968C141.525 214.445 141.738 214.922 142.109 215.24C142.48 215.558 142.904 215.771 143.434 215.718C143.911 215.718 144.389 215.505 144.707 215.134C145.025 214.763 145.237 214.286 145.184 213.809C145.184 213.332 144.972 212.854 144.601 212.536C144.23 212.271 143.752 212.059 143.328 212.059Z" fill="#121212"></path>
      <path d="M143.367 216.288L143.526 221.007Z" fill="#96B6C5"></path>
      <path d="M143.58 221.59C143.315 221.59 143.05 221.378 143.05 221.06L142.891 216.341C142.891 216.023 143.103 215.811 143.421 215.811C143.686 215.811 143.951 216.023 143.951 216.341L144.11 221.06C144.11 221.325 143.845 221.537 143.58 221.59Z" fill="#121212"></path>
      <path d="M152.422 203.895L147.703 204.054L147.491 198.751C147.385 196.419 145.476 194.616 143.143 194.722L142.03 194.775C139.697 194.881 137.894 196.79 138 199.123L138.212 204.425L133.493 204.584L133.334 199.812C133.122 194.563 137.258 190.162 142.454 190.003C147.703 189.791 152.104 193.927 152.263 199.123L152.422 203.895Z" fill="#96B6C5"></path>
      <path d="M133.494 205.114C133.228 205.114 132.963 204.902 132.963 204.583L132.804 199.811C132.592 194.297 136.94 189.631 142.454 189.472C147.968 189.26 152.634 193.608 152.793 199.122L152.952 203.894C152.952 204.212 152.74 204.424 152.422 204.424L147.703 204.583C147.544 204.583 147.438 204.53 147.332 204.424C147.226 204.318 147.173 204.212 147.173 204.053L146.961 198.751C146.908 197.797 146.537 196.842 145.795 196.206C145.052 195.517 144.151 195.199 143.143 195.199L142.03 195.252C140.015 195.305 138.425 197.001 138.478 199.069L138.69 204.371C138.69 204.689 138.478 204.902 138.159 204.902L133.494 205.114ZM142.772 190.533C142.666 190.533 142.56 190.533 142.454 190.533C137.523 190.692 133.653 194.88 133.812 199.811L133.971 204.053L137.629 203.947L137.47 199.175C137.364 196.577 139.432 194.35 142.03 194.297L143.143 194.244C144.416 194.191 145.636 194.668 146.537 195.517C147.438 196.365 148.021 197.532 148.021 198.804L148.181 203.576L151.839 203.47L151.68 199.228C151.574 194.35 147.597 190.533 142.772 190.533Z" fill="#121212"></path>
      <path d="M142.572 205.246C143.049 204.185 142.254 202.807 140.981 201.693L140.133 202.595L142.572 205.246Z" fill="#F4C8BD"></path>
      <path d="M142.573 205.776C142.414 205.776 142.308 205.723 142.202 205.617L139.763 202.966C139.55 202.754 139.55 202.436 139.763 202.224L140.611 201.323C140.823 201.111 141.141 201.111 141.353 201.27C142.944 202.648 143.633 204.239 143.103 205.458C143.05 205.617 142.891 205.723 142.732 205.776C142.679 205.776 142.626 205.776 142.573 205.776ZM140.876 202.595L142.042 203.868C141.883 203.39 141.512 202.913 141.035 202.436L140.876 202.595Z" fill="#121212"></path>
      <path d="M133.242 212.988C133.985 211.556 133.242 210.284 132.182 209.117L130.697 211.026L133.242 212.988Z" fill="#FFB67C"></path>
      <path d="M138.015 209.753C138.651 207.844 138.174 206.466 136.583 205.617L133.879 208.215L138.015 209.753Z" fill="#F4C8BD"></path>
      <path d="M138.014 210.283C137.961 210.283 137.908 210.283 137.802 210.23L133.666 208.693C133.507 208.64 133.348 208.48 133.348 208.321C133.295 208.162 133.348 207.95 133.507 207.844L136.211 205.246C136.37 205.087 136.635 205.034 136.847 205.14C138.703 206.148 139.286 207.791 138.544 209.912C138.491 210.071 138.385 210.177 138.279 210.23C138.12 210.283 138.067 210.283 138.014 210.283ZM134.833 208.003L137.643 209.064C137.908 207.844 137.59 206.943 136.635 206.254L134.833 208.003Z" fill="#121212"></path>
      <path d="M101.64 195.437C101.746 193.052 100.632 190.984 103.018 190.931C103.018 190.931 120.515 191.408 125.871 192.309C131.703 193.317 137.641 193.794 142.784 196.71C144.004 197.399 145.011 198.036 145.594 198.566C147.503 200.368 145.276 203.338 142.678 202.277C141.088 201.641 135.733 198.672 135.308 199.308C134.884 199.997 140.717 201.747 142.042 203.232C143.368 204.716 142.36 206.572 140.557 207.049C138.755 207.473 132.71 203.921 132.445 204.557C132.18 205.246 135.679 206.042 137.535 207.632C139.073 208.958 137.429 211.98 134.831 210.973C132.763 210.177 128.363 207.951 128.203 208.481C128.097 208.958 131.65 210.071 132.763 210.973C133.93 211.874 133.294 214.048 131.597 214.048C130.006 214.048 123.909 211.344 119.296 209.064C115.107 206.943 110.918 206.678 106.253 206.148C105.139 206.042 104.079 205.989 103.071 206.042C100.473 206.148 101.375 204.292 101.481 201.694L101.64 195.437Z" fill="#F4C8BD"></path>
      <path d="M131.651 214.578C129.742 214.525 123.114 211.556 119.085 209.541C115.267 207.632 111.343 207.261 107.208 206.784L106.2 206.678C105.034 206.572 103.973 206.519 103.072 206.572C102.171 206.625 101.534 206.413 101.163 205.988C100.527 205.352 100.686 204.292 100.792 203.125C100.845 202.648 100.898 202.171 100.898 201.641L101.11 195.437C101.11 194.854 101.057 194.271 101.004 193.687C100.898 192.574 100.792 191.673 101.375 191.036C101.747 190.665 102.224 190.453 102.966 190.453C103.708 190.453 120.569 190.93 125.924 191.832C126.879 191.991 127.833 192.15 128.787 192.309C133.612 193.051 138.649 193.846 143.05 196.285C144.482 197.081 145.436 197.717 145.966 198.194C146.974 199.149 147.133 200.474 146.391 201.588C145.701 202.648 144.217 203.496 142.467 202.807C142.414 202.754 142.308 202.754 142.202 202.701C142.308 202.754 142.361 202.86 142.414 202.913C143.103 203.655 143.315 204.61 143.05 205.458C142.732 206.466 141.831 207.261 140.664 207.526C139.922 207.685 138.862 207.42 137.43 206.89C137.589 206.996 137.748 207.102 137.854 207.208C138.703 207.95 138.862 209.223 138.225 210.336C137.589 211.344 136.264 212.139 134.62 211.503C134.302 211.397 133.984 211.238 133.559 211.078C133.878 211.609 133.984 212.351 133.718 213.04C133.453 213.995 132.605 214.578 131.651 214.578ZM103.761 205.458C104.504 205.458 105.352 205.511 106.306 205.617L107.314 205.723C111.556 206.147 115.585 206.572 119.562 208.586C124.387 210.972 130.219 213.517 131.651 213.517C132.446 213.517 132.764 212.881 132.817 212.722C132.976 212.298 132.923 211.768 132.499 211.45C132.022 211.078 131.014 210.654 130.113 210.23C128.363 209.435 127.568 209.117 127.727 208.427C127.78 208.268 127.886 208.109 128.045 208.056C128.522 207.844 129.424 208.162 132.605 209.594C133.506 210.018 134.355 210.389 134.991 210.601C136.157 211.025 136.953 210.548 137.324 209.912C137.642 209.382 137.695 208.639 137.165 208.162C136.317 207.42 135.044 206.837 133.984 206.36C132.552 205.723 131.598 205.299 131.916 204.451C131.969 204.292 132.128 204.186 132.287 204.08C132.764 203.868 133.453 204.133 135.521 205.034C137.112 205.723 139.551 206.784 140.399 206.572C141.195 206.36 141.831 205.829 141.99 205.193C142.149 204.663 142.043 204.133 141.619 203.655C141.035 202.966 139.233 202.171 137.748 201.535C135.68 200.58 134.938 200.209 134.779 199.679C134.726 199.467 134.726 199.308 134.832 199.149C135.309 198.353 136.582 198.831 140.77 200.898C141.672 201.323 142.414 201.694 142.838 201.853C144.005 202.33 145.012 201.8 145.489 201.057C145.86 200.527 145.966 199.679 145.224 198.99C144.747 198.565 143.846 197.982 142.52 197.24C138.278 194.854 133.612 194.112 128.628 193.369C127.674 193.21 126.72 193.051 125.765 192.892C120.516 191.991 103.178 191.514 102.966 191.514C102.542 191.514 102.277 191.62 102.171 191.726C101.906 191.991 102.012 192.786 102.065 193.581C102.118 194.165 102.171 194.801 102.171 195.49L101.959 201.694C101.959 202.277 101.906 202.754 101.853 203.231C101.747 204.133 101.694 204.981 101.959 205.246C102.171 205.458 102.648 205.511 103.072 205.458C103.284 205.511 103.496 205.458 103.761 205.458Z" fill="#121212"></path>
      <path d="M99.7843 188.81L99.5723 209.329L112.032 208.534L112.085 190.135L99.7843 188.81Z" fill="#FCC018"></path>
      <path d="M99.5732 209.859C99.4141 209.859 99.3081 209.806 99.202 209.7C99.096 209.594 99.043 209.435 99.043 209.329L99.2551 188.81C99.2551 188.65 99.3081 188.491 99.4141 188.438C99.5202 188.332 99.6792 188.279 99.8383 188.332L112.086 189.711C112.351 189.764 112.563 189.976 112.563 190.241L112.51 208.64C112.51 208.905 112.298 209.17 112.033 209.17L99.5732 209.859ZM100.315 189.446L100.103 208.799L111.503 208.109L111.556 190.718L100.315 189.446Z" fill="#121212"></path>
      <path d="M106.944 192.256C106.891 192.256 106.891 192.256 106.944 192.256L101.589 191.885C101.271 191.885 101.059 191.62 101.112 191.302C101.112 190.984 101.377 190.772 101.695 190.825L106.997 191.196C107.315 191.196 107.527 191.461 107.474 191.779C107.421 192.044 107.209 192.256 106.944 192.256Z" fill="#221F1F"></path>
    </g>
    <path d="M124.971 249.307C124.653 249.307 124.388 249.307 124.07 249.307C120.995 249.201 117.919 248.352 115.215 246.974L45.0679 210.707C41.6215 208.904 38.7053 206.2 36.6905 202.86C34.6757 199.519 33.6152 195.702 33.6152 191.831V133.826C33.6152 128.683 35.471 123.699 38.9174 119.775L95.9685 54.877L96.7638 55.5662L39.6597 120.517C36.4254 124.229 34.6226 128.948 34.6226 133.826V191.831C34.6226 195.543 35.63 199.148 37.5918 202.33C39.5006 205.511 42.2577 208.056 45.5451 209.753L115.745 246.019C118.343 247.345 121.26 248.14 124.176 248.246C127.092 248.352 130.061 247.822 132.765 246.709L224.121 208.904C228.522 207.101 232.128 203.761 234.301 199.572C236.475 195.384 237.112 190.506 236.104 185.893L218.077 104.611C217.441 101.642 216.062 98.8317 214.206 96.4458C212.351 94.0598 209.912 92.098 207.154 90.8255L160.761 68.3444L161.238 67.39L207.632 89.8711C210.495 91.2497 213.04 93.3175 215.055 95.8095C217.016 98.3015 218.448 101.271 219.137 104.399L237.165 185.681C238.225 190.559 237.589 195.649 235.256 200.103C232.976 204.503 229.158 208.003 224.545 209.912L133.136 247.769C130.538 248.776 127.781 249.307 124.971 249.307Z" fill="#121212"></path>
  </g>
  <defs>
    <clipPath id="clip0_4042_6126">
      <rect width="272" height="272" fill="white"></rect>
    </clipPath>
  </defs>
</svg>
